G04 #@! TF.GenerationSoftware,KiCad,Pcbnew,(5.1.9)-1*
G04 #@! TF.CreationDate,2022-09-16T10:06:17+09:00*
G04 #@! TF.ProjectId,mz-80b,6d7a2d38-3062-42e6-9b69-6361645f7063,rev?*
G04 #@! TF.SameCoordinates,PX2faf080PY93d1cc0*
G04 #@! TF.FileFunction,Copper,L2,Bot*
G04 #@! TF.FilePolarity,Positive*
%FSLAX46Y46*%
G04 Gerber Fmt 4.6, Leading zero omitted, Abs format (unit mm)*
G04 Created by KiCad (PCBNEW (5.1.9)-1) date 2022-09-16 10:06:17*
%MOMM*%
%LPD*%
G01*
G04 APERTURE LIST*
G04 #@! TA.AperFunction,ConnectorPad*
%ADD10R,1.780000X10.000000*%
G04 #@! TD*
G04 #@! TA.AperFunction,ComponentPad*
%ADD11O,1.700000X1.700000*%
G04 #@! TD*
G04 #@! TA.AperFunction,ComponentPad*
%ADD12R,1.700000X1.700000*%
G04 #@! TD*
G04 #@! TA.AperFunction,ComponentPad*
%ADD13R,3.500000X3.500000*%
G04 #@! TD*
G04 #@! TA.AperFunction,ViaPad*
%ADD14C,0.500000*%
G04 #@! TD*
G04 #@! TA.AperFunction,Conductor*
%ADD15C,0.200000*%
G04 #@! TD*
G04 #@! TA.AperFunction,Conductor*
%ADD16C,0.254000*%
G04 #@! TD*
G04 #@! TA.AperFunction,Conductor*
%ADD17C,0.100000*%
G04 #@! TD*
G04 APERTURE END LIST*
D10*
X11176000Y94270000D03*
X13716000Y94270000D03*
X16256000Y94270000D03*
X18796000Y94270000D03*
X21336000Y94270000D03*
X23876000Y94270000D03*
X26416000Y94270000D03*
X28956000Y94270000D03*
X31496000Y94270000D03*
X34036000Y94270000D03*
X36576000Y94270000D03*
X39116000Y94270000D03*
X41656000Y94270000D03*
X44196000Y94270000D03*
X46736000Y94270000D03*
X49276000Y94270000D03*
X51816000Y94270000D03*
X54356000Y94270000D03*
X56896000Y94270000D03*
X59436000Y94270000D03*
X61976000Y94270000D03*
X64516000Y94270000D03*
D11*
X64516000Y55880000D03*
X64516000Y53340000D03*
X61976000Y55880000D03*
X61976000Y53340000D03*
X59436000Y55880000D03*
X59436000Y53340000D03*
X56896000Y55880000D03*
X56896000Y53340000D03*
X54356000Y55880000D03*
X54356000Y53340000D03*
X51816000Y55880000D03*
X51816000Y53340000D03*
X49276000Y55880000D03*
X49276000Y53340000D03*
X46736000Y55880000D03*
X46736000Y53340000D03*
X44196000Y55880000D03*
X44196000Y53340000D03*
X41656000Y55880000D03*
X41656000Y53340000D03*
X39116000Y55880000D03*
X39116000Y53340000D03*
X36576000Y55880000D03*
X36576000Y53340000D03*
X34036000Y55880000D03*
X34036000Y53340000D03*
X31496000Y55880000D03*
X31496000Y53340000D03*
X28956000Y55880000D03*
X28956000Y53340000D03*
X26416000Y55880000D03*
X26416000Y53340000D03*
X23876000Y55880000D03*
X23876000Y53340000D03*
X21336000Y55880000D03*
X21336000Y53340000D03*
X18796000Y55880000D03*
X18796000Y53340000D03*
X16256000Y55880000D03*
X16256000Y53340000D03*
X13716000Y55880000D03*
X13716000Y53340000D03*
X11176000Y55880000D03*
D12*
X11176000Y53340000D03*
X23622000Y3048000D03*
D11*
X23622000Y5588000D03*
X26162000Y3048000D03*
X26162000Y5588000D03*
X28702000Y3048000D03*
X28702000Y5588000D03*
X31242000Y3048000D03*
X31242000Y5588000D03*
X33782000Y3048000D03*
X33782000Y5588000D03*
X36322000Y3048000D03*
X36322000Y5588000D03*
X38862000Y3048000D03*
X38862000Y5588000D03*
X41402000Y3048000D03*
X41402000Y5588000D03*
X43942000Y3048000D03*
X43942000Y5588000D03*
X46482000Y3048000D03*
X46482000Y5588000D03*
X49022000Y3048000D03*
X49022000Y5588000D03*
X51562000Y3048000D03*
X51562000Y5588000D03*
X54102000Y3048000D03*
X54102000Y5588000D03*
X56642000Y3048000D03*
X56642000Y5588000D03*
X59182000Y3048000D03*
X59182000Y5588000D03*
X61722000Y3048000D03*
X61722000Y5588000D03*
X64262000Y3048000D03*
X64262000Y5588000D03*
X66802000Y3048000D03*
X66802000Y5588000D03*
X69342000Y3048000D03*
X69342000Y5588000D03*
X71882000Y3048000D03*
X71882000Y5588000D03*
D12*
X5080000Y12700000D03*
D13*
X13970000Y26035000D03*
G04 #@! TA.AperFunction,ComponentPad*
G36*
G01*
X6470000Y25035000D02*
X6470000Y27035000D01*
G75*
G02*
X7220000Y27785000I750000J0D01*
G01*
X8720000Y27785000D01*
G75*
G02*
X9470000Y27035000I0J-750000D01*
G01*
X9470000Y25035000D01*
G75*
G02*
X8720000Y24285000I-750000J0D01*
G01*
X7220000Y24285000D01*
G75*
G02*
X6470000Y25035000I0J750000D01*
G01*
G37*
G04 #@! TD.AperFunction*
G04 #@! TA.AperFunction,ComponentPad*
G36*
G01*
X9220000Y20460000D02*
X9220000Y22210000D01*
G75*
G02*
X10095000Y23085000I875000J0D01*
G01*
X11845000Y23085000D01*
G75*
G02*
X12720000Y22210000I0J-875000D01*
G01*
X12720000Y20460000D01*
G75*
G02*
X11845000Y19585000I-875000J0D01*
G01*
X10095000Y19585000D01*
G75*
G02*
X9220000Y20460000I0J875000D01*
G01*
G37*
G04 #@! TD.AperFunction*
D12*
X5080000Y42545000D03*
D11*
X5080000Y40005000D03*
X5080000Y37465000D03*
D14*
X11176000Y88698800D03*
X64516000Y88593000D03*
X43638600Y23386700D03*
X43638600Y26849400D03*
X56380800Y46047800D03*
X68787000Y8438600D03*
X63356900Y25408800D03*
X62494500Y30667500D03*
X60633800Y33255600D03*
X59902100Y48342000D03*
X60602400Y48448800D03*
D15*
X11176000Y94270000D02*
X11176000Y88698800D01*
X45312100Y4221500D02*
X45312100Y2782800D01*
X45312100Y2782800D02*
X44400000Y1870700D01*
X44400000Y1870700D02*
X35863800Y1870700D01*
X35863800Y1870700D02*
X34932300Y2802200D01*
X34932300Y2802200D02*
X34932300Y3048000D01*
X45092300Y5588000D02*
X45092300Y4441300D01*
X45092300Y4441300D02*
X45312100Y4221500D01*
X56642000Y3623200D02*
X54916400Y1897600D01*
X54916400Y1897600D02*
X53588100Y1897600D01*
X53588100Y1897600D02*
X52712400Y2773300D01*
X52712400Y2773300D02*
X52712400Y3545700D01*
X52712400Y3545700D02*
X52036600Y4221500D01*
X52036600Y4221500D02*
X45312100Y4221500D01*
X33782000Y3048000D02*
X34932300Y3048000D01*
X43942000Y5588000D02*
X45092300Y5588000D01*
X56642000Y3623200D02*
X56642000Y4198300D01*
X56642000Y3048000D02*
X56642000Y3623200D01*
X56642000Y4198300D02*
X56929700Y4198300D01*
X56929700Y4198300D02*
X57792300Y5060900D01*
X57792300Y5060900D02*
X57792300Y47172800D01*
X57792300Y47172800D02*
X63365700Y52746200D01*
X63365700Y52746200D02*
X63365700Y53340000D01*
X64516000Y88593000D02*
X64516000Y94270000D01*
X64516000Y55880000D02*
X64516000Y88593000D01*
X64516000Y53340000D02*
X64516000Y55880000D01*
X64516000Y53340000D02*
X63365700Y53340000D01*
X41656000Y53340000D02*
X41656000Y54490300D01*
X41656000Y94270000D02*
X41656000Y88969700D01*
X41656000Y88969700D02*
X40504100Y87817800D01*
X40504100Y87817800D02*
X40504100Y55403800D01*
X40504100Y55403800D02*
X41417600Y54490300D01*
X41417600Y54490300D02*
X41656000Y54490300D01*
X51562000Y6738300D02*
X43638600Y14661700D01*
X43638600Y14661700D02*
X43638600Y23386700D01*
X51562000Y5588000D02*
X51562000Y6738300D01*
X54102000Y4198300D02*
X53814300Y4198300D01*
X53814300Y4198300D02*
X52951700Y5060900D01*
X52951700Y5060900D02*
X52951700Y17536300D01*
X52951700Y17536300D02*
X43638600Y26849400D01*
X54102000Y3048000D02*
X54102000Y4198300D01*
X23622000Y4198300D02*
X23334400Y4198300D01*
X23334400Y4198300D02*
X22467900Y5064800D01*
X22467900Y5064800D02*
X22467900Y48946700D01*
X22467900Y48946700D02*
X25073900Y51552700D01*
X25073900Y51552700D02*
X25073900Y53770100D01*
X25073900Y53770100D02*
X24114300Y54729700D01*
X24114300Y54729700D02*
X23876000Y54729700D01*
X23876000Y55880000D02*
X23876000Y54729700D01*
X23622000Y3048000D02*
X23622000Y4198300D01*
X23622000Y6738300D02*
X23622000Y47336200D01*
X23622000Y47336200D02*
X27590100Y51304300D01*
X27590100Y51304300D02*
X27590100Y53882500D01*
X27590100Y53882500D02*
X26416000Y55056600D01*
X26416000Y55056600D02*
X26416000Y55880000D01*
X23622000Y5588000D02*
X23622000Y6738300D01*
X26162000Y4198300D02*
X25923600Y4198300D01*
X25923600Y4198300D02*
X24971400Y5150500D01*
X24971400Y5150500D02*
X24971400Y45471700D01*
X24971400Y45471700D02*
X30149900Y50650200D01*
X30149900Y50650200D02*
X30149900Y53823400D01*
X30149900Y53823400D02*
X29243600Y54729700D01*
X29243600Y54729700D02*
X28956000Y54729700D01*
X26162000Y3048000D02*
X26162000Y4198300D01*
X28956000Y55880000D02*
X28956000Y54729700D01*
X26162000Y5588000D02*
X26162000Y46059900D01*
X26162000Y46059900D02*
X32657300Y52555200D01*
X32657300Y52555200D02*
X32657300Y54718700D01*
X32657300Y54718700D02*
X31496000Y55880000D01*
X28702000Y3048000D02*
X28702000Y4198300D01*
X28702000Y4198300D02*
X28414400Y4198300D01*
X28414400Y4198300D02*
X27511400Y5101300D01*
X27511400Y5101300D02*
X27511400Y43721300D01*
X27511400Y43721300D02*
X35209200Y51419100D01*
X35209200Y51419100D02*
X35209200Y54706800D01*
X35209200Y54706800D02*
X34036000Y55880000D01*
X28702000Y5588000D02*
X28702000Y41929400D01*
X28702000Y41929400D02*
X37749200Y50976600D01*
X37749200Y50976600D02*
X37749200Y54706800D01*
X37749200Y54706800D02*
X36576000Y55880000D01*
X31242000Y3048000D02*
X31242000Y4198300D01*
X31242000Y4198300D02*
X30954400Y4198300D01*
X30954400Y4198300D02*
X30038900Y5113800D01*
X30038900Y5113800D02*
X30038900Y40767600D01*
X30038900Y40767600D02*
X40289200Y51017900D01*
X40289200Y51017900D02*
X40289200Y54706800D01*
X40289200Y54706800D02*
X39116000Y55880000D01*
X31242000Y5588000D02*
X31242000Y39936600D01*
X31242000Y39936600D02*
X42829200Y51523800D01*
X42829200Y51523800D02*
X42829200Y54706800D01*
X42829200Y54706800D02*
X41656000Y55880000D01*
X33782000Y5588000D02*
X33782000Y39413100D01*
X33782000Y39413100D02*
X45369200Y51000300D01*
X45369200Y51000300D02*
X45369200Y54706800D01*
X45369200Y54706800D02*
X44196000Y55880000D01*
X36322000Y3048000D02*
X36322000Y4198300D01*
X36322000Y4198300D02*
X36034400Y4198300D01*
X36034400Y4198300D02*
X35118900Y5113800D01*
X35118900Y5113800D02*
X35118900Y38698300D01*
X35118900Y38698300D02*
X47909200Y51488600D01*
X47909200Y51488600D02*
X47909200Y54706800D01*
X47909200Y54706800D02*
X46736000Y55880000D01*
X36322000Y5588000D02*
X36322000Y37057800D01*
X36322000Y37057800D02*
X50449200Y51185000D01*
X50449200Y51185000D02*
X50449200Y54706800D01*
X50449200Y54706800D02*
X49276000Y55880000D01*
X38862000Y4198300D02*
X38623600Y4198300D01*
X38623600Y4198300D02*
X37671400Y5150500D01*
X37671400Y5150500D02*
X37671400Y36540700D01*
X37671400Y36540700D02*
X53006600Y51875900D01*
X53006600Y51875900D02*
X53006600Y54689400D01*
X53006600Y54689400D02*
X51816000Y55880000D01*
X38862000Y3048000D02*
X38862000Y4198300D01*
X38862000Y5588000D02*
X38862000Y35268900D01*
X38862000Y35268900D02*
X55529200Y51936100D01*
X55529200Y51936100D02*
X55529200Y54706800D01*
X55529200Y54706800D02*
X54356000Y55880000D01*
X41402000Y3048000D02*
X41402000Y4198300D01*
X41402000Y4198300D02*
X41114400Y4198300D01*
X41114400Y4198300D02*
X40198900Y5113800D01*
X40198900Y5113800D02*
X40198900Y34358700D01*
X40198900Y34358700D02*
X58054100Y52213900D01*
X58054100Y52213900D02*
X58054100Y54721900D01*
X58054100Y54721900D02*
X56896000Y55880000D01*
X41402000Y5588000D02*
X41402000Y33349700D01*
X41402000Y33349700D02*
X60586400Y52534100D01*
X60586400Y52534100D02*
X60586400Y54729600D01*
X60586400Y54729600D02*
X59436000Y55880000D01*
X43942000Y3048000D02*
X43942000Y4198300D01*
X43942000Y4198300D02*
X43654400Y4198300D01*
X43654400Y4198300D02*
X42766200Y5086500D01*
X42766200Y5086500D02*
X42766200Y32433200D01*
X42766200Y32433200D02*
X56380800Y46047800D01*
X13716000Y54490300D02*
X13477600Y54490300D01*
X13477600Y54490300D02*
X12535100Y55432800D01*
X12535100Y55432800D02*
X12535100Y87788800D01*
X12535100Y87788800D02*
X13716000Y88969700D01*
X13716000Y53340000D02*
X13716000Y54490300D01*
X13716000Y94270000D02*
X13716000Y88969700D01*
X16256000Y88969700D02*
X16248900Y88969700D01*
X16248900Y88969700D02*
X15065700Y87786500D01*
X15065700Y87786500D02*
X15065700Y55442200D01*
X15065700Y55442200D02*
X16017600Y54490300D01*
X16017600Y54490300D02*
X16256000Y54490300D01*
X16256000Y53340000D02*
X16256000Y54490300D01*
X16256000Y94270000D02*
X16256000Y88969700D01*
X18796000Y53340000D02*
X18796000Y5739800D01*
X18796000Y5739800D02*
X23065400Y1470400D01*
X23065400Y1470400D02*
X46581700Y1470400D01*
X46581700Y1470400D02*
X47871700Y2760400D01*
X47871700Y2760400D02*
X47871700Y3048000D01*
X49022000Y3048000D02*
X47871700Y3048000D01*
X18796000Y53340000D02*
X18796000Y54490300D01*
X18796000Y54490300D02*
X18508400Y54490300D01*
X18508400Y54490300D02*
X17615100Y55383600D01*
X17615100Y55383600D02*
X17615100Y87788800D01*
X17615100Y87788800D02*
X18796000Y88969700D01*
X18796000Y94270000D02*
X18796000Y88969700D01*
X21336000Y94270000D02*
X21336000Y88969700D01*
X21336000Y53340000D02*
X21336000Y54490300D01*
X21336000Y54490300D02*
X21048400Y54490300D01*
X21048400Y54490300D02*
X20185500Y55353200D01*
X20185500Y55353200D02*
X20185500Y87819200D01*
X20185500Y87819200D02*
X21336000Y88969700D01*
X23876000Y94270000D02*
X23876000Y88969700D01*
X23876000Y53340000D02*
X22695100Y54520900D01*
X22695100Y54520900D02*
X22695100Y87788800D01*
X22695100Y87788800D02*
X23876000Y88969700D01*
X28956000Y94270000D02*
X28956000Y88969700D01*
X28956000Y53340000D02*
X27775100Y54520900D01*
X27775100Y54520900D02*
X27775100Y87788800D01*
X27775100Y87788800D02*
X28956000Y88969700D01*
X71882000Y3048000D02*
X71882000Y4198300D01*
X71882000Y4198300D02*
X71594300Y4198300D01*
X71594300Y4198300D02*
X70731700Y5060900D01*
X70731700Y5060900D02*
X70731700Y6493900D01*
X70731700Y6493900D02*
X68787000Y8438600D01*
X31496000Y94270000D02*
X31496000Y88969700D01*
X31496000Y53340000D02*
X31496000Y54490300D01*
X31496000Y54490300D02*
X31208400Y54490300D01*
X31208400Y54490300D02*
X30315100Y55383600D01*
X30315100Y55383600D02*
X30315100Y87788800D01*
X30315100Y87788800D02*
X31496000Y88969700D01*
X34036000Y94270000D02*
X34036000Y88969700D01*
X34036000Y53340000D02*
X34036000Y54490300D01*
X34036000Y88969700D02*
X32845600Y87779300D01*
X32845600Y87779300D02*
X32845600Y55442300D01*
X32845600Y55442300D02*
X33797600Y54490300D01*
X33797600Y54490300D02*
X34036000Y54490300D01*
X66802000Y6738300D02*
X63356900Y10183400D01*
X63356900Y10183400D02*
X63356900Y25408800D01*
X66802000Y5588000D02*
X66802000Y6738300D01*
X36576000Y94270000D02*
X36576000Y88969700D01*
X36576000Y53340000D02*
X36576000Y54490300D01*
X36576000Y54490300D02*
X36284000Y54490300D01*
X36284000Y54490300D02*
X35402700Y55371600D01*
X35402700Y55371600D02*
X35402700Y87796400D01*
X35402700Y87796400D02*
X36576000Y88969700D01*
X39116000Y94270000D02*
X39116000Y88969700D01*
X39116000Y53340000D02*
X39116000Y54490300D01*
X39116000Y54490300D02*
X38824000Y54490300D01*
X38824000Y54490300D02*
X37935100Y55379200D01*
X37935100Y55379200D02*
X37935100Y87788800D01*
X37935100Y87788800D02*
X39116000Y88969700D01*
X44196000Y94270000D02*
X44196000Y88969700D01*
X44196000Y53340000D02*
X44196000Y54490300D01*
X44196000Y54490300D02*
X43908400Y54490300D01*
X43908400Y54490300D02*
X43022700Y55376000D01*
X43022700Y55376000D02*
X43022700Y87796400D01*
X43022700Y87796400D02*
X44196000Y88969700D01*
X46736000Y88969700D02*
X45570800Y87804500D01*
X45570800Y87804500D02*
X45570800Y55367900D01*
X45570800Y55367900D02*
X46448400Y54490300D01*
X46448400Y54490300D02*
X46736000Y54490300D01*
X46736000Y94270000D02*
X46736000Y88969700D01*
X46736000Y53340000D02*
X46736000Y54490300D01*
X64262000Y3048000D02*
X64262000Y4198300D01*
X64262000Y4198300D02*
X63974300Y4198300D01*
X63974300Y4198300D02*
X63111700Y5060900D01*
X63111700Y5060900D02*
X63111700Y5914900D01*
X63111700Y5914900D02*
X62494500Y6532100D01*
X62494500Y6532100D02*
X62494500Y30667500D01*
X49276000Y94270000D02*
X49276000Y88969700D01*
X49276000Y53340000D02*
X49276000Y54490300D01*
X49276000Y54490300D02*
X48984000Y54490300D01*
X48984000Y54490300D02*
X48102700Y55371600D01*
X48102700Y55371600D02*
X48102700Y87796400D01*
X48102700Y87796400D02*
X49276000Y88969700D01*
X51816000Y94270000D02*
X51816000Y88969700D01*
X51816000Y53340000D02*
X51816000Y54490300D01*
X51816000Y54490300D02*
X51524000Y54490300D01*
X51524000Y54490300D02*
X50635100Y55379200D01*
X50635100Y55379200D02*
X50635100Y87788800D01*
X50635100Y87788800D02*
X51816000Y88969700D01*
X61722000Y5588000D02*
X61722000Y6738300D01*
X61722000Y6738300D02*
X60633800Y7826500D01*
X60633800Y7826500D02*
X60633800Y33255600D01*
X54356000Y94270000D02*
X54356000Y88969700D01*
X54356000Y53340000D02*
X54356000Y54490300D01*
X54356000Y54490300D02*
X54064000Y54490300D01*
X54064000Y54490300D02*
X53182700Y55371600D01*
X53182700Y55371600D02*
X53182700Y87796400D01*
X53182700Y87796400D02*
X54356000Y88969700D01*
X59182000Y6738300D02*
X59182000Y47621900D01*
X59182000Y47621900D02*
X59902100Y48342000D01*
X56896000Y94270000D02*
X56896000Y88969700D01*
X56896000Y53340000D02*
X56896000Y54490300D01*
X56896000Y54490300D02*
X56604000Y54490300D01*
X56604000Y54490300D02*
X55715100Y55379200D01*
X55715100Y55379200D02*
X55715100Y87788800D01*
X55715100Y87788800D02*
X56896000Y88969700D01*
X59182000Y5588000D02*
X59182000Y6738300D01*
X59182000Y4198300D02*
X59469600Y4198300D01*
X59469600Y4198300D02*
X60335100Y5063800D01*
X60335100Y5063800D02*
X60335100Y6144400D01*
X60335100Y6144400D02*
X60077800Y6401700D01*
X60077800Y6401700D02*
X60077800Y47739400D01*
X60077800Y47739400D02*
X60602400Y48264000D01*
X60602400Y48264000D02*
X60602400Y48448800D01*
X59436000Y94270000D02*
X59436000Y88969700D01*
X59436000Y53340000D02*
X59436000Y54490300D01*
X59436000Y54490300D02*
X59144000Y54490300D01*
X59144000Y54490300D02*
X58255100Y55379200D01*
X58255100Y55379200D02*
X58255100Y87788800D01*
X58255100Y87788800D02*
X59436000Y88969700D01*
X59182000Y3048000D02*
X59182000Y4198300D01*
X61976000Y53340000D02*
X61976000Y52189700D01*
X56642000Y5588000D02*
X56642000Y6738300D01*
X56642000Y6738300D02*
X56931200Y7027500D01*
X56931200Y7027500D02*
X56931200Y47144900D01*
X56931200Y47144900D02*
X61976000Y52189700D01*
X61976000Y94270000D02*
X61976000Y88969700D01*
X61976000Y53340000D02*
X61976000Y54490300D01*
X61976000Y54490300D02*
X61684000Y54490300D01*
X61684000Y54490300D02*
X60785700Y55388600D01*
X60785700Y55388600D02*
X60785700Y87779400D01*
X60785700Y87779400D02*
X61976000Y88969700D01*
X26416000Y94270000D02*
X26416000Y88969700D01*
X26416000Y53340000D02*
X26416000Y54490300D01*
X26416000Y54490300D02*
X26128400Y54490300D01*
X26128400Y54490300D02*
X25258000Y55360700D01*
X25258000Y55360700D02*
X25258000Y87811700D01*
X25258000Y87811700D02*
X26416000Y88969700D01*
D16*
X10391723Y88279595D02*
X10488576Y88134645D01*
X10611845Y88011376D01*
X10756795Y87914523D01*
X10917855Y87847810D01*
X11088835Y87813800D01*
X11263165Y87813800D01*
X11434145Y87847810D01*
X11595205Y87914523D01*
X11740155Y88011376D01*
X11863424Y88134645D01*
X11960277Y88279595D01*
X11998966Y88373000D01*
X12079854Y88373000D01*
X12040908Y88334054D01*
X12012863Y88311038D01*
X11921014Y88199120D01*
X11869013Y88101833D01*
X11852764Y88071433D01*
X11810735Y87932885D01*
X11796544Y87788800D01*
X11800101Y87752685D01*
X11800100Y57228842D01*
X11609158Y57307932D01*
X11322260Y57365000D01*
X11029740Y57365000D01*
X10742842Y57307932D01*
X10472589Y57195990D01*
X10229368Y57033475D01*
X10022525Y56826632D01*
X9860010Y56583411D01*
X9748068Y56313158D01*
X9691000Y56026260D01*
X9691000Y55733740D01*
X9748068Y55446842D01*
X9860010Y55176589D01*
X10022525Y54933368D01*
X10154380Y54801513D01*
X10081820Y54779502D01*
X9971506Y54720537D01*
X9874815Y54641185D01*
X9795463Y54544494D01*
X9736498Y54434180D01*
X9700188Y54314482D01*
X9687928Y54190000D01*
X9687928Y52490000D01*
X9700188Y52365518D01*
X9736498Y52245820D01*
X9795463Y52135506D01*
X9874815Y52038815D01*
X9971506Y51959463D01*
X10081820Y51900498D01*
X10201518Y51864188D01*
X10326000Y51851928D01*
X12026000Y51851928D01*
X12150482Y51864188D01*
X12270180Y51900498D01*
X12380494Y51959463D01*
X12477185Y52038815D01*
X12556537Y52135506D01*
X12615502Y52245820D01*
X12637513Y52318380D01*
X12769368Y52186525D01*
X13012589Y52024010D01*
X13282842Y51912068D01*
X13569740Y51855000D01*
X13862260Y51855000D01*
X14149158Y51912068D01*
X14419411Y52024010D01*
X14662632Y52186525D01*
X14869475Y52393368D01*
X14986000Y52567760D01*
X15102525Y52393368D01*
X15309368Y52186525D01*
X15552589Y52024010D01*
X15822842Y51912068D01*
X16109740Y51855000D01*
X16402260Y51855000D01*
X16689158Y51912068D01*
X16959411Y52024010D01*
X17202632Y52186525D01*
X17409475Y52393368D01*
X17526000Y52567760D01*
X17642525Y52393368D01*
X17849368Y52186525D01*
X18061000Y52045117D01*
X18061001Y5775915D01*
X18057444Y5739800D01*
X18071635Y5595715D01*
X18112501Y5461000D01*
X18113664Y5457167D01*
X18181914Y5329480D01*
X18273763Y5217562D01*
X18301808Y5194546D01*
X22520146Y976207D01*
X22543162Y948162D01*
X22655080Y856313D01*
X22782767Y788063D01*
X22921315Y746035D01*
X23029295Y735400D01*
X23029304Y735400D01*
X23065399Y731845D01*
X23101494Y735400D01*
X46545595Y735400D01*
X46581700Y731844D01*
X46617805Y735400D01*
X46725785Y746035D01*
X46864333Y788063D01*
X46992020Y856313D01*
X47103938Y948162D01*
X47126958Y976212D01*
X48060320Y1909573D01*
X48075368Y1894525D01*
X48318589Y1732010D01*
X48588842Y1620068D01*
X48875740Y1563000D01*
X49168260Y1563000D01*
X49455158Y1620068D01*
X49725411Y1732010D01*
X49968632Y1894525D01*
X50175475Y2101368D01*
X50292000Y2275760D01*
X50408525Y2101368D01*
X50615368Y1894525D01*
X50858589Y1732010D01*
X51128842Y1620068D01*
X51415740Y1563000D01*
X51708260Y1563000D01*
X51995158Y1620068D01*
X52265411Y1732010D01*
X52508632Y1894525D01*
X52715475Y2101368D01*
X52832000Y2275760D01*
X52948525Y2101368D01*
X53155368Y1894525D01*
X53398589Y1732010D01*
X53668842Y1620068D01*
X53955740Y1563000D01*
X54248260Y1563000D01*
X54535158Y1620068D01*
X54805411Y1732010D01*
X55048632Y1894525D01*
X55255475Y2101368D01*
X55377195Y2283534D01*
X55446822Y2166645D01*
X55641731Y1950412D01*
X55875080Y1776359D01*
X56137901Y1651175D01*
X56285110Y1606524D01*
X56515000Y1727845D01*
X56515000Y2921000D01*
X56495000Y2921000D01*
X56495000Y3175000D01*
X56515000Y3175000D01*
X56515000Y3195000D01*
X56769000Y3195000D01*
X56769000Y3175000D01*
X56789000Y3175000D01*
X56789000Y2921000D01*
X56769000Y2921000D01*
X56769000Y1727845D01*
X56998890Y1606524D01*
X57146099Y1651175D01*
X57408920Y1776359D01*
X57642269Y1950412D01*
X57837178Y2166645D01*
X57906805Y2283534D01*
X58028525Y2101368D01*
X58235368Y1894525D01*
X58478589Y1732010D01*
X58748842Y1620068D01*
X59035740Y1563000D01*
X59328260Y1563000D01*
X59615158Y1620068D01*
X59885411Y1732010D01*
X60128632Y1894525D01*
X60335475Y2101368D01*
X60452000Y2275760D01*
X60568525Y2101368D01*
X60775368Y1894525D01*
X61018589Y1732010D01*
X61288842Y1620068D01*
X61575740Y1563000D01*
X61868260Y1563000D01*
X62155158Y1620068D01*
X62425411Y1732010D01*
X62668632Y1894525D01*
X62875475Y2101368D01*
X62992000Y2275760D01*
X63108525Y2101368D01*
X63315368Y1894525D01*
X63558589Y1732010D01*
X63828842Y1620068D01*
X64115740Y1563000D01*
X64408260Y1563000D01*
X64695158Y1620068D01*
X64965411Y1732010D01*
X65208632Y1894525D01*
X65415475Y2101368D01*
X65532000Y2275760D01*
X65648525Y2101368D01*
X65855368Y1894525D01*
X66098589Y1732010D01*
X66368842Y1620068D01*
X66655740Y1563000D01*
X66948260Y1563000D01*
X67235158Y1620068D01*
X67505411Y1732010D01*
X67748632Y1894525D01*
X67955475Y2101368D01*
X68072000Y2275760D01*
X68188525Y2101368D01*
X68395368Y1894525D01*
X68638589Y1732010D01*
X68908842Y1620068D01*
X69195740Y1563000D01*
X69488260Y1563000D01*
X69775158Y1620068D01*
X70045411Y1732010D01*
X70288632Y1894525D01*
X70495475Y2101368D01*
X70612000Y2275760D01*
X70728525Y2101368D01*
X70935368Y1894525D01*
X71178589Y1732010D01*
X71448842Y1620068D01*
X71735740Y1563000D01*
X72028260Y1563000D01*
X72315158Y1620068D01*
X72585411Y1732010D01*
X72828632Y1894525D01*
X73035475Y2101368D01*
X73197990Y2344589D01*
X73309932Y2614842D01*
X73367000Y2901740D01*
X73367000Y3194260D01*
X73309932Y3481158D01*
X73197990Y3751411D01*
X73035475Y3994632D01*
X72828632Y4201475D01*
X72654240Y4318000D01*
X72828632Y4434525D01*
X73035475Y4641368D01*
X73197990Y4884589D01*
X73309932Y5154842D01*
X73322918Y5220128D01*
X92765000Y5220128D01*
X92765000Y4779872D01*
X92850890Y4348075D01*
X93019369Y3941331D01*
X93263962Y3575271D01*
X93575271Y3263962D01*
X93941331Y3019369D01*
X94348075Y2850890D01*
X94779872Y2765000D01*
X95220128Y2765000D01*
X95651925Y2850890D01*
X96058669Y3019369D01*
X96424729Y3263962D01*
X96736038Y3575271D01*
X96980631Y3941331D01*
X97149110Y4348075D01*
X97235000Y4779872D01*
X97235000Y5220128D01*
X97149110Y5651925D01*
X96980631Y6058669D01*
X96736038Y6424729D01*
X96424729Y6736038D01*
X96058669Y6980631D01*
X95651925Y7149110D01*
X95220128Y7235000D01*
X94779872Y7235000D01*
X94348075Y7149110D01*
X93941331Y6980631D01*
X93575271Y6736038D01*
X93263962Y6424729D01*
X93019369Y6058669D01*
X92850890Y5651925D01*
X92765000Y5220128D01*
X73322918Y5220128D01*
X73367000Y5441740D01*
X73367000Y5734260D01*
X73309932Y6021158D01*
X73197990Y6291411D01*
X73035475Y6534632D01*
X72828632Y6741475D01*
X72585411Y6903990D01*
X72315158Y7015932D01*
X72028260Y7073000D01*
X71735740Y7073000D01*
X71448842Y7015932D01*
X71303510Y6955734D01*
X71253938Y7016138D01*
X71225893Y7039154D01*
X69655294Y8609752D01*
X69637990Y8696745D01*
X69571277Y8857805D01*
X69474424Y9002755D01*
X69351155Y9126024D01*
X69206205Y9222877D01*
X69045145Y9289590D01*
X68874165Y9323600D01*
X68699835Y9323600D01*
X68528855Y9289590D01*
X68367795Y9222877D01*
X68222845Y9126024D01*
X68099576Y9002755D01*
X68002723Y8857805D01*
X67936010Y8696745D01*
X67902000Y8525765D01*
X67902000Y8351435D01*
X67936010Y8180455D01*
X68002723Y8019395D01*
X68099576Y7874445D01*
X68222845Y7751176D01*
X68367795Y7654323D01*
X68528855Y7587610D01*
X68615848Y7570306D01*
X69126856Y7059298D01*
X68908842Y7015932D01*
X68638589Y6903990D01*
X68395368Y6741475D01*
X68188525Y6534632D01*
X68072000Y6360240D01*
X67955475Y6534632D01*
X67748632Y6741475D01*
X67523472Y6891922D01*
X67508154Y6942419D01*
X67484337Y7020933D01*
X67416087Y7148620D01*
X67324238Y7260538D01*
X67296193Y7283554D01*
X64091900Y10487846D01*
X64091900Y24915847D01*
X64141177Y24989595D01*
X64207890Y25150655D01*
X64241900Y25321635D01*
X64241900Y25495965D01*
X64207890Y25666945D01*
X64141177Y25828005D01*
X64044324Y25972955D01*
X63921055Y26096224D01*
X63776105Y26193077D01*
X63615045Y26259790D01*
X63444065Y26293800D01*
X63269735Y26293800D01*
X63229500Y26285797D01*
X63229500Y30174547D01*
X63278777Y30248295D01*
X63345490Y30409355D01*
X63379500Y30580335D01*
X63379500Y30754665D01*
X63345490Y30925645D01*
X63278777Y31086705D01*
X63181924Y31231655D01*
X63058655Y31354924D01*
X62913705Y31451777D01*
X62752645Y31518490D01*
X62581665Y31552500D01*
X62407335Y31552500D01*
X62236355Y31518490D01*
X62075295Y31451777D01*
X61930345Y31354924D01*
X61807076Y31231655D01*
X61710223Y31086705D01*
X61643510Y30925645D01*
X61609500Y30754665D01*
X61609500Y30580335D01*
X61643510Y30409355D01*
X61710223Y30248295D01*
X61759501Y30174546D01*
X61759500Y7740247D01*
X61368800Y8130946D01*
X61368800Y32762647D01*
X61418077Y32836395D01*
X61484790Y32997455D01*
X61518800Y33168435D01*
X61518800Y33342765D01*
X61484790Y33513745D01*
X61418077Y33674805D01*
X61321224Y33819755D01*
X61197955Y33943024D01*
X61053005Y34039877D01*
X60891945Y34106590D01*
X60812800Y34122333D01*
X60812800Y47434954D01*
X61084184Y47706337D01*
X61166555Y47761376D01*
X61289824Y47884645D01*
X61386677Y48029595D01*
X61453390Y48190655D01*
X61487400Y48361635D01*
X61487400Y48535965D01*
X61453390Y48706945D01*
X61386677Y48868005D01*
X61289824Y49012955D01*
X61166555Y49136224D01*
X61021605Y49233077D01*
X60860545Y49299790D01*
X60689565Y49333800D01*
X60515235Y49333800D01*
X60344255Y49299790D01*
X60183195Y49233077D01*
X60131699Y49198668D01*
X60042214Y49216468D01*
X62470193Y51644446D01*
X62498238Y51667462D01*
X62590087Y51779380D01*
X62610005Y51816644D01*
X62658337Y51907066D01*
X62697472Y52036078D01*
X62922632Y52186525D01*
X63129475Y52393368D01*
X63251195Y52575534D01*
X63320822Y52458645D01*
X63515731Y52242412D01*
X63749080Y52068359D01*
X64011901Y51943175D01*
X64159110Y51898524D01*
X64389000Y52019845D01*
X64389000Y53213000D01*
X64643000Y53213000D01*
X64643000Y52019845D01*
X64872890Y51898524D01*
X65020099Y51943175D01*
X65282920Y52068359D01*
X65516269Y52242412D01*
X65711178Y52458645D01*
X65860157Y52708748D01*
X65957481Y52983109D01*
X65836814Y53213000D01*
X64643000Y53213000D01*
X64389000Y53213000D01*
X64369000Y53213000D01*
X64369000Y53467000D01*
X64389000Y53467000D01*
X64389000Y55753000D01*
X64643000Y55753000D01*
X64643000Y53467000D01*
X65836814Y53467000D01*
X65957481Y53696891D01*
X65860157Y53971252D01*
X65711178Y54221355D01*
X65516269Y54437588D01*
X65285120Y54610000D01*
X65516269Y54782412D01*
X65711178Y54998645D01*
X65860157Y55248748D01*
X65957481Y55523109D01*
X65836814Y55753000D01*
X64643000Y55753000D01*
X64389000Y55753000D01*
X64369000Y55753000D01*
X64369000Y56007000D01*
X64389000Y56007000D01*
X64389000Y57200155D01*
X64643000Y57200155D01*
X64643000Y56007000D01*
X65836814Y56007000D01*
X65957481Y56236891D01*
X65860157Y56511252D01*
X65711178Y56761355D01*
X65516269Y56977588D01*
X65282920Y57151641D01*
X65020099Y57276825D01*
X64872890Y57321476D01*
X64643000Y57200155D01*
X64389000Y57200155D01*
X64159110Y57321476D01*
X64011901Y57276825D01*
X63749080Y57151641D01*
X63515731Y56977588D01*
X63320822Y56761355D01*
X63251195Y56644466D01*
X63129475Y56826632D01*
X62922632Y57033475D01*
X62679411Y57195990D01*
X62409158Y57307932D01*
X62122260Y57365000D01*
X61829740Y57365000D01*
X61542842Y57307932D01*
X61520700Y57298761D01*
X61520700Y84220128D01*
X92765000Y84220128D01*
X92765000Y83779872D01*
X92850890Y83348075D01*
X93019369Y82941331D01*
X93263962Y82575271D01*
X93575271Y82263962D01*
X93941331Y82019369D01*
X94348075Y81850890D01*
X94779872Y81765000D01*
X95220128Y81765000D01*
X95651925Y81850890D01*
X96058669Y82019369D01*
X96424729Y82263962D01*
X96736038Y82575271D01*
X96980631Y82941331D01*
X97149110Y83348075D01*
X97235000Y83779872D01*
X97235000Y84220128D01*
X97149110Y84651925D01*
X96980631Y85058669D01*
X96736038Y85424729D01*
X96424729Y85736038D01*
X96058669Y85980631D01*
X95651925Y86149110D01*
X95220128Y86235000D01*
X94779872Y86235000D01*
X94348075Y86149110D01*
X93941331Y85980631D01*
X93575271Y85736038D01*
X93263962Y85424729D01*
X93019369Y85058669D01*
X92850890Y84651925D01*
X92765000Y84220128D01*
X61520700Y84220128D01*
X61520700Y87474954D01*
X62418747Y88373000D01*
X99340001Y88373000D01*
X99340000Y660000D01*
X660000Y660000D01*
X660000Y5220128D01*
X2765000Y5220128D01*
X2765000Y4779872D01*
X2850890Y4348075D01*
X3019369Y3941331D01*
X3263962Y3575271D01*
X3575271Y3263962D01*
X3941331Y3019369D01*
X4348075Y2850890D01*
X4779872Y2765000D01*
X5220128Y2765000D01*
X5651925Y2850890D01*
X6058669Y3019369D01*
X6424729Y3263962D01*
X6736038Y3575271D01*
X6980631Y3941331D01*
X7149110Y4348075D01*
X7235000Y4779872D01*
X7235000Y5220128D01*
X7149110Y5651925D01*
X6980631Y6058669D01*
X6736038Y6424729D01*
X6424729Y6736038D01*
X6058669Y6980631D01*
X5651925Y7149110D01*
X5220128Y7235000D01*
X4779872Y7235000D01*
X4348075Y7149110D01*
X3941331Y6980631D01*
X3575271Y6736038D01*
X3263962Y6424729D01*
X3019369Y6058669D01*
X2850890Y5651925D01*
X2765000Y5220128D01*
X660000Y5220128D01*
X660000Y13550000D01*
X3591928Y13550000D01*
X3591928Y11850000D01*
X3604188Y11725518D01*
X3640498Y11605820D01*
X3699463Y11495506D01*
X3778815Y11398815D01*
X3875506Y11319463D01*
X3985820Y11260498D01*
X4105518Y11224188D01*
X4230000Y11211928D01*
X5930000Y11211928D01*
X6054482Y11224188D01*
X6174180Y11260498D01*
X6284494Y11319463D01*
X6381185Y11398815D01*
X6460537Y11495506D01*
X6519502Y11605820D01*
X6555812Y11725518D01*
X6568072Y11850000D01*
X6568072Y13550000D01*
X6555812Y13674482D01*
X6519502Y13794180D01*
X6460537Y13904494D01*
X6381185Y14001185D01*
X6284494Y14080537D01*
X6174180Y14139502D01*
X6054482Y14175812D01*
X5930000Y14188072D01*
X4230000Y14188072D01*
X4105518Y14175812D01*
X3985820Y14139502D01*
X3875506Y14080537D01*
X3778815Y14001185D01*
X3699463Y13904494D01*
X3640498Y13794180D01*
X3604188Y13674482D01*
X3591928Y13550000D01*
X660000Y13550000D01*
X660000Y22210000D01*
X8581928Y22210000D01*
X8581928Y20460000D01*
X8611001Y20164814D01*
X8697104Y19880972D01*
X8836927Y19619382D01*
X9025097Y19390097D01*
X9254382Y19201927D01*
X9515972Y19062104D01*
X9799814Y18976001D01*
X10095000Y18946928D01*
X11845000Y18946928D01*
X12140186Y18976001D01*
X12424028Y19062104D01*
X12685618Y19201927D01*
X12914903Y19390097D01*
X13103073Y19619382D01*
X13242896Y19880972D01*
X13328999Y20164814D01*
X13358072Y20460000D01*
X13358072Y22210000D01*
X13328999Y22505186D01*
X13242896Y22789028D01*
X13103073Y23050618D01*
X12914903Y23279903D01*
X12685618Y23468073D01*
X12424028Y23607896D01*
X12295357Y23646928D01*
X15720000Y23646928D01*
X15844482Y23659188D01*
X15964180Y23695498D01*
X16074494Y23754463D01*
X16171185Y23833815D01*
X16250537Y23930506D01*
X16309502Y24040820D01*
X16345812Y24160518D01*
X16358072Y24285000D01*
X16358072Y27785000D01*
X16345812Y27909482D01*
X16309502Y28029180D01*
X16250537Y28139494D01*
X16171185Y28236185D01*
X16074494Y28315537D01*
X15964180Y28374502D01*
X15844482Y28410812D01*
X15720000Y28423072D01*
X12220000Y28423072D01*
X12095518Y28410812D01*
X11975820Y28374502D01*
X11865506Y28315537D01*
X11768815Y28236185D01*
X11689463Y28139494D01*
X11630498Y28029180D01*
X11594188Y27909482D01*
X11581928Y27785000D01*
X11581928Y24285000D01*
X11594188Y24160518D01*
X11630498Y24040820D01*
X11689463Y23930506D01*
X11768815Y23833815D01*
X11865506Y23754463D01*
X11942131Y23713506D01*
X11845000Y23723072D01*
X10095000Y23723072D01*
X9799814Y23693999D01*
X9515972Y23607896D01*
X9254382Y23468073D01*
X9025097Y23279903D01*
X8836927Y23050618D01*
X8697104Y22789028D01*
X8611001Y22505186D01*
X8581928Y22210000D01*
X660000Y22210000D01*
X660000Y24285000D01*
X5831928Y24285000D01*
X5844188Y24160518D01*
X5880498Y24040820D01*
X5939463Y23930506D01*
X6018815Y23833815D01*
X6115506Y23754463D01*
X6225820Y23695498D01*
X6345518Y23659188D01*
X6470000Y23646928D01*
X7684250Y23650000D01*
X7843000Y23808750D01*
X7843000Y25908000D01*
X8097000Y25908000D01*
X8097000Y23808750D01*
X8255750Y23650000D01*
X9470000Y23646928D01*
X9594482Y23659188D01*
X9714180Y23695498D01*
X9824494Y23754463D01*
X9921185Y23833815D01*
X10000537Y23930506D01*
X10059502Y24040820D01*
X10095812Y24160518D01*
X10108072Y24285000D01*
X10105000Y25749250D01*
X9946250Y25908000D01*
X8097000Y25908000D01*
X7843000Y25908000D01*
X5993750Y25908000D01*
X5835000Y25749250D01*
X5831928Y24285000D01*
X660000Y24285000D01*
X660000Y27785000D01*
X5831928Y27785000D01*
X5835000Y26320750D01*
X5993750Y26162000D01*
X7843000Y26162000D01*
X7843000Y28261250D01*
X8097000Y28261250D01*
X8097000Y26162000D01*
X9946250Y26162000D01*
X10105000Y26320750D01*
X10108072Y27785000D01*
X10095812Y27909482D01*
X10059502Y28029180D01*
X10000537Y28139494D01*
X9921185Y28236185D01*
X9824494Y28315537D01*
X9714180Y28374502D01*
X9594482Y28410812D01*
X9470000Y28423072D01*
X8255750Y28420000D01*
X8097000Y28261250D01*
X7843000Y28261250D01*
X7684250Y28420000D01*
X6470000Y28423072D01*
X6345518Y28410812D01*
X6225820Y28374502D01*
X6115506Y28315537D01*
X6018815Y28236185D01*
X5939463Y28139494D01*
X5880498Y28029180D01*
X5844188Y27909482D01*
X5831928Y27785000D01*
X660000Y27785000D01*
X660000Y43395000D01*
X3591928Y43395000D01*
X3591928Y41695000D01*
X3604188Y41570518D01*
X3640498Y41450820D01*
X3699463Y41340506D01*
X3778815Y41243815D01*
X3875506Y41164463D01*
X3985820Y41105498D01*
X4058380Y41083487D01*
X3926525Y40951632D01*
X3764010Y40708411D01*
X3652068Y40438158D01*
X3595000Y40151260D01*
X3595000Y39858740D01*
X3652068Y39571842D01*
X3764010Y39301589D01*
X3926525Y39058368D01*
X4133368Y38851525D01*
X4307760Y38735000D01*
X4133368Y38618475D01*
X3926525Y38411632D01*
X3764010Y38168411D01*
X3652068Y37898158D01*
X3595000Y37611260D01*
X3595000Y37318740D01*
X3652068Y37031842D01*
X3764010Y36761589D01*
X3926525Y36518368D01*
X4133368Y36311525D01*
X4376589Y36149010D01*
X4646842Y36037068D01*
X4933740Y35980000D01*
X5226260Y35980000D01*
X5513158Y36037068D01*
X5783411Y36149010D01*
X6026632Y36311525D01*
X6233475Y36518368D01*
X6395990Y36761589D01*
X6507932Y37031842D01*
X6565000Y37318740D01*
X6565000Y37611260D01*
X6507932Y37898158D01*
X6395990Y38168411D01*
X6233475Y38411632D01*
X6026632Y38618475D01*
X5852240Y38735000D01*
X6026632Y38851525D01*
X6233475Y39058368D01*
X6395990Y39301589D01*
X6507932Y39571842D01*
X6565000Y39858740D01*
X6565000Y40151260D01*
X6507932Y40438158D01*
X6395990Y40708411D01*
X6233475Y40951632D01*
X6101620Y41083487D01*
X6174180Y41105498D01*
X6284494Y41164463D01*
X6381185Y41243815D01*
X6460537Y41340506D01*
X6519502Y41450820D01*
X6555812Y41570518D01*
X6568072Y41695000D01*
X6568072Y43395000D01*
X6555812Y43519482D01*
X6519502Y43639180D01*
X6460537Y43749494D01*
X6381185Y43846185D01*
X6284494Y43925537D01*
X6174180Y43984502D01*
X6054482Y44020812D01*
X5930000Y44033072D01*
X4230000Y44033072D01*
X4105518Y44020812D01*
X3985820Y43984502D01*
X3875506Y43925537D01*
X3778815Y43846185D01*
X3699463Y43749494D01*
X3640498Y43639180D01*
X3604188Y43519482D01*
X3591928Y43395000D01*
X660000Y43395000D01*
X660000Y84220128D01*
X2765000Y84220128D01*
X2765000Y83779872D01*
X2850890Y83348075D01*
X3019369Y82941331D01*
X3263962Y82575271D01*
X3575271Y82263962D01*
X3941331Y82019369D01*
X4348075Y81850890D01*
X4779872Y81765000D01*
X5220128Y81765000D01*
X5651925Y81850890D01*
X6058669Y82019369D01*
X6424729Y82263962D01*
X6736038Y82575271D01*
X6980631Y82941331D01*
X7149110Y83348075D01*
X7235000Y83779872D01*
X7235000Y84220128D01*
X7149110Y84651925D01*
X6980631Y85058669D01*
X6736038Y85424729D01*
X6424729Y85736038D01*
X6058669Y85980631D01*
X5651925Y86149110D01*
X5220128Y86235000D01*
X4779872Y86235000D01*
X4348075Y86149110D01*
X3941331Y85980631D01*
X3575271Y85736038D01*
X3263962Y85424729D01*
X3019369Y85058669D01*
X2850890Y84651925D01*
X2765000Y84220128D01*
X660000Y84220128D01*
X660000Y88373000D01*
X10353034Y88373000D01*
X10391723Y88279595D01*
G04 #@! TA.AperFunction,Conductor*
D17*
G36*
X10391723Y88279595D02*
G01*
X10488576Y88134645D01*
X10611845Y88011376D01*
X10756795Y87914523D01*
X10917855Y87847810D01*
X11088835Y87813800D01*
X11263165Y87813800D01*
X11434145Y87847810D01*
X11595205Y87914523D01*
X11740155Y88011376D01*
X11863424Y88134645D01*
X11960277Y88279595D01*
X11998966Y88373000D01*
X12079854Y88373000D01*
X12040908Y88334054D01*
X12012863Y88311038D01*
X11921014Y88199120D01*
X11869013Y88101833D01*
X11852764Y88071433D01*
X11810735Y87932885D01*
X11796544Y87788800D01*
X11800101Y87752685D01*
X11800100Y57228842D01*
X11609158Y57307932D01*
X11322260Y57365000D01*
X11029740Y57365000D01*
X10742842Y57307932D01*
X10472589Y57195990D01*
X10229368Y57033475D01*
X10022525Y56826632D01*
X9860010Y56583411D01*
X9748068Y56313158D01*
X9691000Y56026260D01*
X9691000Y55733740D01*
X9748068Y55446842D01*
X9860010Y55176589D01*
X10022525Y54933368D01*
X10154380Y54801513D01*
X10081820Y54779502D01*
X9971506Y54720537D01*
X9874815Y54641185D01*
X9795463Y54544494D01*
X9736498Y54434180D01*
X9700188Y54314482D01*
X9687928Y54190000D01*
X9687928Y52490000D01*
X9700188Y52365518D01*
X9736498Y52245820D01*
X9795463Y52135506D01*
X9874815Y52038815D01*
X9971506Y51959463D01*
X10081820Y51900498D01*
X10201518Y51864188D01*
X10326000Y51851928D01*
X12026000Y51851928D01*
X12150482Y51864188D01*
X12270180Y51900498D01*
X12380494Y51959463D01*
X12477185Y52038815D01*
X12556537Y52135506D01*
X12615502Y52245820D01*
X12637513Y52318380D01*
X12769368Y52186525D01*
X13012589Y52024010D01*
X13282842Y51912068D01*
X13569740Y51855000D01*
X13862260Y51855000D01*
X14149158Y51912068D01*
X14419411Y52024010D01*
X14662632Y52186525D01*
X14869475Y52393368D01*
X14986000Y52567760D01*
X15102525Y52393368D01*
X15309368Y52186525D01*
X15552589Y52024010D01*
X15822842Y51912068D01*
X16109740Y51855000D01*
X16402260Y51855000D01*
X16689158Y51912068D01*
X16959411Y52024010D01*
X17202632Y52186525D01*
X17409475Y52393368D01*
X17526000Y52567760D01*
X17642525Y52393368D01*
X17849368Y52186525D01*
X18061000Y52045117D01*
X18061001Y5775915D01*
X18057444Y5739800D01*
X18071635Y5595715D01*
X18112501Y5461000D01*
X18113664Y5457167D01*
X18181914Y5329480D01*
X18273763Y5217562D01*
X18301808Y5194546D01*
X22520146Y976207D01*
X22543162Y948162D01*
X22655080Y856313D01*
X22782767Y788063D01*
X22921315Y746035D01*
X23029295Y735400D01*
X23029304Y735400D01*
X23065399Y731845D01*
X23101494Y735400D01*
X46545595Y735400D01*
X46581700Y731844D01*
X46617805Y735400D01*
X46725785Y746035D01*
X46864333Y788063D01*
X46992020Y856313D01*
X47103938Y948162D01*
X47126958Y976212D01*
X48060320Y1909573D01*
X48075368Y1894525D01*
X48318589Y1732010D01*
X48588842Y1620068D01*
X48875740Y1563000D01*
X49168260Y1563000D01*
X49455158Y1620068D01*
X49725411Y1732010D01*
X49968632Y1894525D01*
X50175475Y2101368D01*
X50292000Y2275760D01*
X50408525Y2101368D01*
X50615368Y1894525D01*
X50858589Y1732010D01*
X51128842Y1620068D01*
X51415740Y1563000D01*
X51708260Y1563000D01*
X51995158Y1620068D01*
X52265411Y1732010D01*
X52508632Y1894525D01*
X52715475Y2101368D01*
X52832000Y2275760D01*
X52948525Y2101368D01*
X53155368Y1894525D01*
X53398589Y1732010D01*
X53668842Y1620068D01*
X53955740Y1563000D01*
X54248260Y1563000D01*
X54535158Y1620068D01*
X54805411Y1732010D01*
X55048632Y1894525D01*
X55255475Y2101368D01*
X55377195Y2283534D01*
X55446822Y2166645D01*
X55641731Y1950412D01*
X55875080Y1776359D01*
X56137901Y1651175D01*
X56285110Y1606524D01*
X56515000Y1727845D01*
X56515000Y2921000D01*
X56495000Y2921000D01*
X56495000Y3175000D01*
X56515000Y3175000D01*
X56515000Y3195000D01*
X56769000Y3195000D01*
X56769000Y3175000D01*
X56789000Y3175000D01*
X56789000Y2921000D01*
X56769000Y2921000D01*
X56769000Y1727845D01*
X56998890Y1606524D01*
X57146099Y1651175D01*
X57408920Y1776359D01*
X57642269Y1950412D01*
X57837178Y2166645D01*
X57906805Y2283534D01*
X58028525Y2101368D01*
X58235368Y1894525D01*
X58478589Y1732010D01*
X58748842Y1620068D01*
X59035740Y1563000D01*
X59328260Y1563000D01*
X59615158Y1620068D01*
X59885411Y1732010D01*
X60128632Y1894525D01*
X60335475Y2101368D01*
X60452000Y2275760D01*
X60568525Y2101368D01*
X60775368Y1894525D01*
X61018589Y1732010D01*
X61288842Y1620068D01*
X61575740Y1563000D01*
X61868260Y1563000D01*
X62155158Y1620068D01*
X62425411Y1732010D01*
X62668632Y1894525D01*
X62875475Y2101368D01*
X62992000Y2275760D01*
X63108525Y2101368D01*
X63315368Y1894525D01*
X63558589Y1732010D01*
X63828842Y1620068D01*
X64115740Y1563000D01*
X64408260Y1563000D01*
X64695158Y1620068D01*
X64965411Y1732010D01*
X65208632Y1894525D01*
X65415475Y2101368D01*
X65532000Y2275760D01*
X65648525Y2101368D01*
X65855368Y1894525D01*
X66098589Y1732010D01*
X66368842Y1620068D01*
X66655740Y1563000D01*
X66948260Y1563000D01*
X67235158Y1620068D01*
X67505411Y1732010D01*
X67748632Y1894525D01*
X67955475Y2101368D01*
X68072000Y2275760D01*
X68188525Y2101368D01*
X68395368Y1894525D01*
X68638589Y1732010D01*
X68908842Y1620068D01*
X69195740Y1563000D01*
X69488260Y1563000D01*
X69775158Y1620068D01*
X70045411Y1732010D01*
X70288632Y1894525D01*
X70495475Y2101368D01*
X70612000Y2275760D01*
X70728525Y2101368D01*
X70935368Y1894525D01*
X71178589Y1732010D01*
X71448842Y1620068D01*
X71735740Y1563000D01*
X72028260Y1563000D01*
X72315158Y1620068D01*
X72585411Y1732010D01*
X72828632Y1894525D01*
X73035475Y2101368D01*
X73197990Y2344589D01*
X73309932Y2614842D01*
X73367000Y2901740D01*
X73367000Y3194260D01*
X73309932Y3481158D01*
X73197990Y3751411D01*
X73035475Y3994632D01*
X72828632Y4201475D01*
X72654240Y4318000D01*
X72828632Y4434525D01*
X73035475Y4641368D01*
X73197990Y4884589D01*
X73309932Y5154842D01*
X73322918Y5220128D01*
X92765000Y5220128D01*
X92765000Y4779872D01*
X92850890Y4348075D01*
X93019369Y3941331D01*
X93263962Y3575271D01*
X93575271Y3263962D01*
X93941331Y3019369D01*
X94348075Y2850890D01*
X94779872Y2765000D01*
X95220128Y2765000D01*
X95651925Y2850890D01*
X96058669Y3019369D01*
X96424729Y3263962D01*
X96736038Y3575271D01*
X96980631Y3941331D01*
X97149110Y4348075D01*
X97235000Y4779872D01*
X97235000Y5220128D01*
X97149110Y5651925D01*
X96980631Y6058669D01*
X96736038Y6424729D01*
X96424729Y6736038D01*
X96058669Y6980631D01*
X95651925Y7149110D01*
X95220128Y7235000D01*
X94779872Y7235000D01*
X94348075Y7149110D01*
X93941331Y6980631D01*
X93575271Y6736038D01*
X93263962Y6424729D01*
X93019369Y6058669D01*
X92850890Y5651925D01*
X92765000Y5220128D01*
X73322918Y5220128D01*
X73367000Y5441740D01*
X73367000Y5734260D01*
X73309932Y6021158D01*
X73197990Y6291411D01*
X73035475Y6534632D01*
X72828632Y6741475D01*
X72585411Y6903990D01*
X72315158Y7015932D01*
X72028260Y7073000D01*
X71735740Y7073000D01*
X71448842Y7015932D01*
X71303510Y6955734D01*
X71253938Y7016138D01*
X71225893Y7039154D01*
X69655294Y8609752D01*
X69637990Y8696745D01*
X69571277Y8857805D01*
X69474424Y9002755D01*
X69351155Y9126024D01*
X69206205Y9222877D01*
X69045145Y9289590D01*
X68874165Y9323600D01*
X68699835Y9323600D01*
X68528855Y9289590D01*
X68367795Y9222877D01*
X68222845Y9126024D01*
X68099576Y9002755D01*
X68002723Y8857805D01*
X67936010Y8696745D01*
X67902000Y8525765D01*
X67902000Y8351435D01*
X67936010Y8180455D01*
X68002723Y8019395D01*
X68099576Y7874445D01*
X68222845Y7751176D01*
X68367795Y7654323D01*
X68528855Y7587610D01*
X68615848Y7570306D01*
X69126856Y7059298D01*
X68908842Y7015932D01*
X68638589Y6903990D01*
X68395368Y6741475D01*
X68188525Y6534632D01*
X68072000Y6360240D01*
X67955475Y6534632D01*
X67748632Y6741475D01*
X67523472Y6891922D01*
X67508154Y6942419D01*
X67484337Y7020933D01*
X67416087Y7148620D01*
X67324238Y7260538D01*
X67296193Y7283554D01*
X64091900Y10487846D01*
X64091900Y24915847D01*
X64141177Y24989595D01*
X64207890Y25150655D01*
X64241900Y25321635D01*
X64241900Y25495965D01*
X64207890Y25666945D01*
X64141177Y25828005D01*
X64044324Y25972955D01*
X63921055Y26096224D01*
X63776105Y26193077D01*
X63615045Y26259790D01*
X63444065Y26293800D01*
X63269735Y26293800D01*
X63229500Y26285797D01*
X63229500Y30174547D01*
X63278777Y30248295D01*
X63345490Y30409355D01*
X63379500Y30580335D01*
X63379500Y30754665D01*
X63345490Y30925645D01*
X63278777Y31086705D01*
X63181924Y31231655D01*
X63058655Y31354924D01*
X62913705Y31451777D01*
X62752645Y31518490D01*
X62581665Y31552500D01*
X62407335Y31552500D01*
X62236355Y31518490D01*
X62075295Y31451777D01*
X61930345Y31354924D01*
X61807076Y31231655D01*
X61710223Y31086705D01*
X61643510Y30925645D01*
X61609500Y30754665D01*
X61609500Y30580335D01*
X61643510Y30409355D01*
X61710223Y30248295D01*
X61759501Y30174546D01*
X61759500Y7740247D01*
X61368800Y8130946D01*
X61368800Y32762647D01*
X61418077Y32836395D01*
X61484790Y32997455D01*
X61518800Y33168435D01*
X61518800Y33342765D01*
X61484790Y33513745D01*
X61418077Y33674805D01*
X61321224Y33819755D01*
X61197955Y33943024D01*
X61053005Y34039877D01*
X60891945Y34106590D01*
X60812800Y34122333D01*
X60812800Y47434954D01*
X61084184Y47706337D01*
X61166555Y47761376D01*
X61289824Y47884645D01*
X61386677Y48029595D01*
X61453390Y48190655D01*
X61487400Y48361635D01*
X61487400Y48535965D01*
X61453390Y48706945D01*
X61386677Y48868005D01*
X61289824Y49012955D01*
X61166555Y49136224D01*
X61021605Y49233077D01*
X60860545Y49299790D01*
X60689565Y49333800D01*
X60515235Y49333800D01*
X60344255Y49299790D01*
X60183195Y49233077D01*
X60131699Y49198668D01*
X60042214Y49216468D01*
X62470193Y51644446D01*
X62498238Y51667462D01*
X62590087Y51779380D01*
X62610005Y51816644D01*
X62658337Y51907066D01*
X62697472Y52036078D01*
X62922632Y52186525D01*
X63129475Y52393368D01*
X63251195Y52575534D01*
X63320822Y52458645D01*
X63515731Y52242412D01*
X63749080Y52068359D01*
X64011901Y51943175D01*
X64159110Y51898524D01*
X64389000Y52019845D01*
X64389000Y53213000D01*
X64643000Y53213000D01*
X64643000Y52019845D01*
X64872890Y51898524D01*
X65020099Y51943175D01*
X65282920Y52068359D01*
X65516269Y52242412D01*
X65711178Y52458645D01*
X65860157Y52708748D01*
X65957481Y52983109D01*
X65836814Y53213000D01*
X64643000Y53213000D01*
X64389000Y53213000D01*
X64369000Y53213000D01*
X64369000Y53467000D01*
X64389000Y53467000D01*
X64389000Y55753000D01*
X64643000Y55753000D01*
X64643000Y53467000D01*
X65836814Y53467000D01*
X65957481Y53696891D01*
X65860157Y53971252D01*
X65711178Y54221355D01*
X65516269Y54437588D01*
X65285120Y54610000D01*
X65516269Y54782412D01*
X65711178Y54998645D01*
X65860157Y55248748D01*
X65957481Y55523109D01*
X65836814Y55753000D01*
X64643000Y55753000D01*
X64389000Y55753000D01*
X64369000Y55753000D01*
X64369000Y56007000D01*
X64389000Y56007000D01*
X64389000Y57200155D01*
X64643000Y57200155D01*
X64643000Y56007000D01*
X65836814Y56007000D01*
X65957481Y56236891D01*
X65860157Y56511252D01*
X65711178Y56761355D01*
X65516269Y56977588D01*
X65282920Y57151641D01*
X65020099Y57276825D01*
X64872890Y57321476D01*
X64643000Y57200155D01*
X64389000Y57200155D01*
X64159110Y57321476D01*
X64011901Y57276825D01*
X63749080Y57151641D01*
X63515731Y56977588D01*
X63320822Y56761355D01*
X63251195Y56644466D01*
X63129475Y56826632D01*
X62922632Y57033475D01*
X62679411Y57195990D01*
X62409158Y57307932D01*
X62122260Y57365000D01*
X61829740Y57365000D01*
X61542842Y57307932D01*
X61520700Y57298761D01*
X61520700Y84220128D01*
X92765000Y84220128D01*
X92765000Y83779872D01*
X92850890Y83348075D01*
X93019369Y82941331D01*
X93263962Y82575271D01*
X93575271Y82263962D01*
X93941331Y82019369D01*
X94348075Y81850890D01*
X94779872Y81765000D01*
X95220128Y81765000D01*
X95651925Y81850890D01*
X96058669Y82019369D01*
X96424729Y82263962D01*
X96736038Y82575271D01*
X96980631Y82941331D01*
X97149110Y83348075D01*
X97235000Y83779872D01*
X97235000Y84220128D01*
X97149110Y84651925D01*
X96980631Y85058669D01*
X96736038Y85424729D01*
X96424729Y85736038D01*
X96058669Y85980631D01*
X95651925Y86149110D01*
X95220128Y86235000D01*
X94779872Y86235000D01*
X94348075Y86149110D01*
X93941331Y85980631D01*
X93575271Y85736038D01*
X93263962Y85424729D01*
X93019369Y85058669D01*
X92850890Y84651925D01*
X92765000Y84220128D01*
X61520700Y84220128D01*
X61520700Y87474954D01*
X62418747Y88373000D01*
X99340001Y88373000D01*
X99340000Y660000D01*
X660000Y660000D01*
X660000Y5220128D01*
X2765000Y5220128D01*
X2765000Y4779872D01*
X2850890Y4348075D01*
X3019369Y3941331D01*
X3263962Y3575271D01*
X3575271Y3263962D01*
X3941331Y3019369D01*
X4348075Y2850890D01*
X4779872Y2765000D01*
X5220128Y2765000D01*
X5651925Y2850890D01*
X6058669Y3019369D01*
X6424729Y3263962D01*
X6736038Y3575271D01*
X6980631Y3941331D01*
X7149110Y4348075D01*
X7235000Y4779872D01*
X7235000Y5220128D01*
X7149110Y5651925D01*
X6980631Y6058669D01*
X6736038Y6424729D01*
X6424729Y6736038D01*
X6058669Y6980631D01*
X5651925Y7149110D01*
X5220128Y7235000D01*
X4779872Y7235000D01*
X4348075Y7149110D01*
X3941331Y6980631D01*
X3575271Y6736038D01*
X3263962Y6424729D01*
X3019369Y6058669D01*
X2850890Y5651925D01*
X2765000Y5220128D01*
X660000Y5220128D01*
X660000Y13550000D01*
X3591928Y13550000D01*
X3591928Y11850000D01*
X3604188Y11725518D01*
X3640498Y11605820D01*
X3699463Y11495506D01*
X3778815Y11398815D01*
X3875506Y11319463D01*
X3985820Y11260498D01*
X4105518Y11224188D01*
X4230000Y11211928D01*
X5930000Y11211928D01*
X6054482Y11224188D01*
X6174180Y11260498D01*
X6284494Y11319463D01*
X6381185Y11398815D01*
X6460537Y11495506D01*
X6519502Y11605820D01*
X6555812Y11725518D01*
X6568072Y11850000D01*
X6568072Y13550000D01*
X6555812Y13674482D01*
X6519502Y13794180D01*
X6460537Y13904494D01*
X6381185Y14001185D01*
X6284494Y14080537D01*
X6174180Y14139502D01*
X6054482Y14175812D01*
X5930000Y14188072D01*
X4230000Y14188072D01*
X4105518Y14175812D01*
X3985820Y14139502D01*
X3875506Y14080537D01*
X3778815Y14001185D01*
X3699463Y13904494D01*
X3640498Y13794180D01*
X3604188Y13674482D01*
X3591928Y13550000D01*
X660000Y13550000D01*
X660000Y22210000D01*
X8581928Y22210000D01*
X8581928Y20460000D01*
X8611001Y20164814D01*
X8697104Y19880972D01*
X8836927Y19619382D01*
X9025097Y19390097D01*
X9254382Y19201927D01*
X9515972Y19062104D01*
X9799814Y18976001D01*
X10095000Y18946928D01*
X11845000Y18946928D01*
X12140186Y18976001D01*
X12424028Y19062104D01*
X12685618Y19201927D01*
X12914903Y19390097D01*
X13103073Y19619382D01*
X13242896Y19880972D01*
X13328999Y20164814D01*
X13358072Y20460000D01*
X13358072Y22210000D01*
X13328999Y22505186D01*
X13242896Y22789028D01*
X13103073Y23050618D01*
X12914903Y23279903D01*
X12685618Y23468073D01*
X12424028Y23607896D01*
X12295357Y23646928D01*
X15720000Y23646928D01*
X15844482Y23659188D01*
X15964180Y23695498D01*
X16074494Y23754463D01*
X16171185Y23833815D01*
X16250537Y23930506D01*
X16309502Y24040820D01*
X16345812Y24160518D01*
X16358072Y24285000D01*
X16358072Y27785000D01*
X16345812Y27909482D01*
X16309502Y28029180D01*
X16250537Y28139494D01*
X16171185Y28236185D01*
X16074494Y28315537D01*
X15964180Y28374502D01*
X15844482Y28410812D01*
X15720000Y28423072D01*
X12220000Y28423072D01*
X12095518Y28410812D01*
X11975820Y28374502D01*
X11865506Y28315537D01*
X11768815Y28236185D01*
X11689463Y28139494D01*
X11630498Y28029180D01*
X11594188Y27909482D01*
X11581928Y27785000D01*
X11581928Y24285000D01*
X11594188Y24160518D01*
X11630498Y24040820D01*
X11689463Y23930506D01*
X11768815Y23833815D01*
X11865506Y23754463D01*
X11942131Y23713506D01*
X11845000Y23723072D01*
X10095000Y23723072D01*
X9799814Y23693999D01*
X9515972Y23607896D01*
X9254382Y23468073D01*
X9025097Y23279903D01*
X8836927Y23050618D01*
X8697104Y22789028D01*
X8611001Y22505186D01*
X8581928Y22210000D01*
X660000Y22210000D01*
X660000Y24285000D01*
X5831928Y24285000D01*
X5844188Y24160518D01*
X5880498Y24040820D01*
X5939463Y23930506D01*
X6018815Y23833815D01*
X6115506Y23754463D01*
X6225820Y23695498D01*
X6345518Y23659188D01*
X6470000Y23646928D01*
X7684250Y23650000D01*
X7843000Y23808750D01*
X7843000Y25908000D01*
X8097000Y25908000D01*
X8097000Y23808750D01*
X8255750Y23650000D01*
X9470000Y23646928D01*
X9594482Y23659188D01*
X9714180Y23695498D01*
X9824494Y23754463D01*
X9921185Y23833815D01*
X10000537Y23930506D01*
X10059502Y24040820D01*
X10095812Y24160518D01*
X10108072Y24285000D01*
X10105000Y25749250D01*
X9946250Y25908000D01*
X8097000Y25908000D01*
X7843000Y25908000D01*
X5993750Y25908000D01*
X5835000Y25749250D01*
X5831928Y24285000D01*
X660000Y24285000D01*
X660000Y27785000D01*
X5831928Y27785000D01*
X5835000Y26320750D01*
X5993750Y26162000D01*
X7843000Y26162000D01*
X7843000Y28261250D01*
X8097000Y28261250D01*
X8097000Y26162000D01*
X9946250Y26162000D01*
X10105000Y26320750D01*
X10108072Y27785000D01*
X10095812Y27909482D01*
X10059502Y28029180D01*
X10000537Y28139494D01*
X9921185Y28236185D01*
X9824494Y28315537D01*
X9714180Y28374502D01*
X9594482Y28410812D01*
X9470000Y28423072D01*
X8255750Y28420000D01*
X8097000Y28261250D01*
X7843000Y28261250D01*
X7684250Y28420000D01*
X6470000Y28423072D01*
X6345518Y28410812D01*
X6225820Y28374502D01*
X6115506Y28315537D01*
X6018815Y28236185D01*
X5939463Y28139494D01*
X5880498Y28029180D01*
X5844188Y27909482D01*
X5831928Y27785000D01*
X660000Y27785000D01*
X660000Y43395000D01*
X3591928Y43395000D01*
X3591928Y41695000D01*
X3604188Y41570518D01*
X3640498Y41450820D01*
X3699463Y41340506D01*
X3778815Y41243815D01*
X3875506Y41164463D01*
X3985820Y41105498D01*
X4058380Y41083487D01*
X3926525Y40951632D01*
X3764010Y40708411D01*
X3652068Y40438158D01*
X3595000Y40151260D01*
X3595000Y39858740D01*
X3652068Y39571842D01*
X3764010Y39301589D01*
X3926525Y39058368D01*
X4133368Y38851525D01*
X4307760Y38735000D01*
X4133368Y38618475D01*
X3926525Y38411632D01*
X3764010Y38168411D01*
X3652068Y37898158D01*
X3595000Y37611260D01*
X3595000Y37318740D01*
X3652068Y37031842D01*
X3764010Y36761589D01*
X3926525Y36518368D01*
X4133368Y36311525D01*
X4376589Y36149010D01*
X4646842Y36037068D01*
X4933740Y35980000D01*
X5226260Y35980000D01*
X5513158Y36037068D01*
X5783411Y36149010D01*
X6026632Y36311525D01*
X6233475Y36518368D01*
X6395990Y36761589D01*
X6507932Y37031842D01*
X6565000Y37318740D01*
X6565000Y37611260D01*
X6507932Y37898158D01*
X6395990Y38168411D01*
X6233475Y38411632D01*
X6026632Y38618475D01*
X5852240Y38735000D01*
X6026632Y38851525D01*
X6233475Y39058368D01*
X6395990Y39301589D01*
X6507932Y39571842D01*
X6565000Y39858740D01*
X6565000Y40151260D01*
X6507932Y40438158D01*
X6395990Y40708411D01*
X6233475Y40951632D01*
X6101620Y41083487D01*
X6174180Y41105498D01*
X6284494Y41164463D01*
X6381185Y41243815D01*
X6460537Y41340506D01*
X6519502Y41450820D01*
X6555812Y41570518D01*
X6568072Y41695000D01*
X6568072Y43395000D01*
X6555812Y43519482D01*
X6519502Y43639180D01*
X6460537Y43749494D01*
X6381185Y43846185D01*
X6284494Y43925537D01*
X6174180Y43984502D01*
X6054482Y44020812D01*
X5930000Y44033072D01*
X4230000Y44033072D01*
X4105518Y44020812D01*
X3985820Y43984502D01*
X3875506Y43925537D01*
X3778815Y43846185D01*
X3699463Y43749494D01*
X3640498Y43639180D01*
X3604188Y43519482D01*
X3591928Y43395000D01*
X660000Y43395000D01*
X660000Y84220128D01*
X2765000Y84220128D01*
X2765000Y83779872D01*
X2850890Y83348075D01*
X3019369Y82941331D01*
X3263962Y82575271D01*
X3575271Y82263962D01*
X3941331Y82019369D01*
X4348075Y81850890D01*
X4779872Y81765000D01*
X5220128Y81765000D01*
X5651925Y81850890D01*
X6058669Y82019369D01*
X6424729Y82263962D01*
X6736038Y82575271D01*
X6980631Y82941331D01*
X7149110Y83348075D01*
X7235000Y83779872D01*
X7235000Y84220128D01*
X7149110Y84651925D01*
X6980631Y85058669D01*
X6736038Y85424729D01*
X6424729Y85736038D01*
X6058669Y85980631D01*
X5651925Y86149110D01*
X5220128Y86235000D01*
X4779872Y86235000D01*
X4348075Y86149110D01*
X3941331Y85980631D01*
X3575271Y85736038D01*
X3263962Y85424729D01*
X3019369Y85058669D01*
X2850890Y84651925D01*
X2765000Y84220128D01*
X660000Y84220128D01*
X660000Y88373000D01*
X10353034Y88373000D01*
X10391723Y88279595D01*
G37*
G04 #@! TD.AperFunction*
D16*
X33909000Y3175000D02*
X33929000Y3175000D01*
X33929000Y2921000D01*
X33909000Y2921000D01*
X33909000Y2901000D01*
X33655000Y2901000D01*
X33655000Y2921000D01*
X33635000Y2921000D01*
X33635000Y3175000D01*
X33655000Y3175000D01*
X33655000Y3195000D01*
X33909000Y3195000D01*
X33909000Y3175000D01*
G04 #@! TA.AperFunction,Conductor*
D17*
G36*
X33909000Y3175000D02*
G01*
X33929000Y3175000D01*
X33929000Y2921000D01*
X33909000Y2921000D01*
X33909000Y2901000D01*
X33655000Y2901000D01*
X33655000Y2921000D01*
X33635000Y2921000D01*
X33635000Y3175000D01*
X33655000Y3175000D01*
X33655000Y3195000D01*
X33909000Y3195000D01*
X33909000Y3175000D01*
G37*
G04 #@! TD.AperFunction*
D16*
X45328525Y4641368D02*
X45535368Y4434525D01*
X45709760Y4318000D01*
X45535368Y4201475D01*
X45328525Y3994632D01*
X45212000Y3820240D01*
X45095475Y3994632D01*
X44888632Y4201475D01*
X44712594Y4319100D01*
X44942269Y4490412D01*
X45137178Y4706645D01*
X45206805Y4823534D01*
X45328525Y4641368D01*
G04 #@! TA.AperFunction,Conductor*
D17*
G36*
X45328525Y4641368D02*
G01*
X45535368Y4434525D01*
X45709760Y4318000D01*
X45535368Y4201475D01*
X45328525Y3994632D01*
X45212000Y3820240D01*
X45095475Y3994632D01*
X44888632Y4201475D01*
X44712594Y4319100D01*
X44942269Y4490412D01*
X45137178Y4706645D01*
X45206805Y4823534D01*
X45328525Y4641368D01*
G37*
G04 #@! TD.AperFunction*
D16*
X50567373Y6693480D02*
X50408525Y6534632D01*
X50292000Y6360240D01*
X50175475Y6534632D01*
X49968632Y6741475D01*
X49725411Y6903990D01*
X49455158Y7015932D01*
X49168260Y7073000D01*
X48875740Y7073000D01*
X48588842Y7015932D01*
X48318589Y6903990D01*
X48075368Y6741475D01*
X47868525Y6534632D01*
X47752000Y6360240D01*
X47635475Y6534632D01*
X47428632Y6741475D01*
X47185411Y6903990D01*
X46915158Y7015932D01*
X46628260Y7073000D01*
X46335740Y7073000D01*
X46048842Y7015932D01*
X45778589Y6903990D01*
X45535368Y6741475D01*
X45328525Y6534632D01*
X45206805Y6352466D01*
X45137178Y6469355D01*
X44942269Y6685588D01*
X44708920Y6859641D01*
X44446099Y6984825D01*
X44298890Y7029476D01*
X44069000Y6908155D01*
X44069000Y5715000D01*
X44089000Y5715000D01*
X44089000Y5461000D01*
X44069000Y5461000D01*
X44069000Y5441000D01*
X43815000Y5441000D01*
X43815000Y5461000D01*
X43795000Y5461000D01*
X43795000Y5715000D01*
X43815000Y5715000D01*
X43815000Y6908155D01*
X43585110Y7029476D01*
X43501200Y7004025D01*
X43501200Y13759654D01*
X50567373Y6693480D01*
G04 #@! TA.AperFunction,Conductor*
D17*
G36*
X50567373Y6693480D02*
G01*
X50408525Y6534632D01*
X50292000Y6360240D01*
X50175475Y6534632D01*
X49968632Y6741475D01*
X49725411Y6903990D01*
X49455158Y7015932D01*
X49168260Y7073000D01*
X48875740Y7073000D01*
X48588842Y7015932D01*
X48318589Y6903990D01*
X48075368Y6741475D01*
X47868525Y6534632D01*
X47752000Y6360240D01*
X47635475Y6534632D01*
X47428632Y6741475D01*
X47185411Y6903990D01*
X46915158Y7015932D01*
X46628260Y7073000D01*
X46335740Y7073000D01*
X46048842Y7015932D01*
X45778589Y6903990D01*
X45535368Y6741475D01*
X45328525Y6534632D01*
X45206805Y6352466D01*
X45137178Y6469355D01*
X44942269Y6685588D01*
X44708920Y6859641D01*
X44446099Y6984825D01*
X44298890Y7029476D01*
X44069000Y6908155D01*
X44069000Y5715000D01*
X44089000Y5715000D01*
X44089000Y5461000D01*
X44069000Y5461000D01*
X44069000Y5441000D01*
X43815000Y5441000D01*
X43815000Y5461000D01*
X43795000Y5461000D01*
X43795000Y5715000D01*
X43815000Y5715000D01*
X43815000Y6908155D01*
X43585110Y7029476D01*
X43501200Y7004025D01*
X43501200Y13759654D01*
X50567373Y6693480D01*
G37*
G04 #@! TD.AperFunction*
D16*
X41783000Y53467000D02*
X41803000Y53467000D01*
X41803000Y53213000D01*
X41783000Y53213000D01*
X41783000Y52019845D01*
X42012890Y51898524D01*
X42094200Y51923187D01*
X42094200Y51828247D01*
X40937453Y50671500D01*
X40971537Y50735267D01*
X41013565Y50873815D01*
X41024200Y50981795D01*
X41024200Y50981804D01*
X41027755Y51017899D01*
X41024200Y51053994D01*
X41024200Y52004000D01*
X41151901Y51943175D01*
X41299110Y51898524D01*
X41529000Y52019845D01*
X41529000Y53213000D01*
X41509000Y53213000D01*
X41509000Y53467000D01*
X41529000Y53467000D01*
X41529000Y53487000D01*
X41783000Y53487000D01*
X41783000Y53467000D01*
G04 #@! TA.AperFunction,Conductor*
D17*
G36*
X41783000Y53467000D02*
G01*
X41803000Y53467000D01*
X41803000Y53213000D01*
X41783000Y53213000D01*
X41783000Y52019845D01*
X42012890Y51898524D01*
X42094200Y51923187D01*
X42094200Y51828247D01*
X40937453Y50671500D01*
X40971537Y50735267D01*
X41013565Y50873815D01*
X41024200Y50981795D01*
X41024200Y50981804D01*
X41027755Y51017899D01*
X41024200Y51053994D01*
X41024200Y52004000D01*
X41151901Y51943175D01*
X41299110Y51898524D01*
X41529000Y52019845D01*
X41529000Y53213000D01*
X41509000Y53213000D01*
X41509000Y53467000D01*
X41529000Y53467000D01*
X41529000Y53487000D01*
X41783000Y53487000D01*
X41783000Y53467000D01*
G37*
G04 #@! TD.AperFunction*
D16*
X22200908Y88334054D02*
X22172863Y88311038D01*
X22081014Y88199120D01*
X22029013Y88101833D01*
X22012764Y88071433D01*
X21970735Y87932885D01*
X21956544Y87788800D01*
X21960101Y87752685D01*
X21960100Y57219667D01*
X21840099Y57276825D01*
X21692890Y57321476D01*
X21463000Y57200155D01*
X21463000Y56007000D01*
X21483000Y56007000D01*
X21483000Y55753000D01*
X21463000Y55753000D01*
X21463000Y55733000D01*
X21209000Y55733000D01*
X21209000Y55753000D01*
X21189000Y55753000D01*
X21189000Y56007000D01*
X21209000Y56007000D01*
X21209000Y57200155D01*
X20979110Y57321476D01*
X20920500Y57303699D01*
X20920500Y87514754D01*
X21778747Y88373000D01*
X22239854Y88373000D01*
X22200908Y88334054D01*
G04 #@! TA.AperFunction,Conductor*
D17*
G36*
X22200908Y88334054D02*
G01*
X22172863Y88311038D01*
X22081014Y88199120D01*
X22029013Y88101833D01*
X22012764Y88071433D01*
X21970735Y87932885D01*
X21956544Y87788800D01*
X21960101Y87752685D01*
X21960100Y57219667D01*
X21840099Y57276825D01*
X21692890Y57321476D01*
X21463000Y57200155D01*
X21463000Y56007000D01*
X21483000Y56007000D01*
X21483000Y55753000D01*
X21463000Y55753000D01*
X21463000Y55733000D01*
X21209000Y55733000D01*
X21209000Y55753000D01*
X21189000Y55753000D01*
X21189000Y56007000D01*
X21209000Y56007000D01*
X21209000Y57200155D01*
X20979110Y57321476D01*
X20920500Y57303699D01*
X20920500Y87514754D01*
X21778747Y88373000D01*
X22239854Y88373000D01*
X22200908Y88334054D01*
G37*
G04 #@! TD.AperFunction*
D16*
X42528508Y88341654D02*
X42500463Y88318638D01*
X42408614Y88206720D01*
X42370089Y88134645D01*
X42340364Y88079033D01*
X42298335Y87940485D01*
X42284144Y87796400D01*
X42287701Y87760285D01*
X42287700Y57225694D01*
X42089158Y57307932D01*
X41802260Y57365000D01*
X41509740Y57365000D01*
X41222842Y57307932D01*
X40952589Y57195990D01*
X40709368Y57033475D01*
X40502525Y56826632D01*
X40386000Y56652240D01*
X40269475Y56826632D01*
X40062632Y57033475D01*
X39819411Y57195990D01*
X39549158Y57307932D01*
X39262260Y57365000D01*
X38969740Y57365000D01*
X38682842Y57307932D01*
X38670100Y57302654D01*
X38670100Y87484354D01*
X39558747Y88373000D01*
X42559854Y88373000D01*
X42528508Y88341654D01*
G04 #@! TA.AperFunction,Conductor*
D17*
G36*
X42528508Y88341654D02*
G01*
X42500463Y88318638D01*
X42408614Y88206720D01*
X42370089Y88134645D01*
X42340364Y88079033D01*
X42298335Y87940485D01*
X42284144Y87796400D01*
X42287701Y87760285D01*
X42287700Y57225694D01*
X42089158Y57307932D01*
X41802260Y57365000D01*
X41509740Y57365000D01*
X41222842Y57307932D01*
X40952589Y57195990D01*
X40709368Y57033475D01*
X40502525Y56826632D01*
X40386000Y56652240D01*
X40269475Y56826632D01*
X40062632Y57033475D01*
X39819411Y57195990D01*
X39549158Y57307932D01*
X39262260Y57365000D01*
X38969740Y57365000D01*
X38682842Y57307932D01*
X38670100Y57302654D01*
X38670100Y87484354D01*
X39558747Y88373000D01*
X42559854Y88373000D01*
X42528508Y88341654D01*
G37*
G04 #@! TD.AperFunction*
M02*
