M48
; DRILL file {KiCad (5.1.9)-1} date 09/16/22 10:06:19
; FORMAT={-:-/ absolute / metric / decimal}
; #@! TF.CreationDate,2022-09-16T10:06:19+09:00
; #@! TF.GenerationSoftware,Kicad,Pcbnew,(5.1.9)-1
FMAT,2
METRIC
T1C0.300
T2C1.000
T3C3.200
%
G90
G05
T1
X11.176Y88.699
X43.639Y26.849
X43.639Y23.387
X56.381Y46.048
X59.902Y48.342
X60.602Y48.449
X60.634Y33.256
X62.494Y30.667
X63.357Y25.409
X64.516Y88.593
X68.787Y8.439
T2
X5.08Y42.545
X5.08Y40.005
X5.08Y37.465
X5.08Y12.7
X11.176Y55.88
X11.176Y53.34
X13.716Y55.88
X13.716Y53.34
X16.256Y55.88
X16.256Y53.34
X18.796Y55.88
X18.796Y53.34
X21.336Y55.88
X21.336Y53.34
X23.622Y5.588
X23.622Y3.048
X23.876Y55.88
X23.876Y53.34
X26.162Y5.588
X26.162Y3.048
X26.416Y55.88
X26.416Y53.34
X28.702Y5.588
X28.702Y3.048
X28.956Y55.88
X28.956Y53.34
X31.242Y5.588
X31.242Y3.048
X31.496Y55.88
X31.496Y53.34
X33.782Y5.588
X33.782Y3.048
X34.036Y55.88
X34.036Y53.34
X36.322Y5.588
X36.322Y3.048
X36.576Y55.88
X36.576Y53.34
X38.862Y5.588
X38.862Y3.048
X39.116Y55.88
X39.116Y53.34
X41.402Y5.588
X41.402Y3.048
X41.656Y55.88
X41.656Y53.34
X43.942Y5.588
X43.942Y3.048
X44.196Y55.88
X44.196Y53.34
X46.482Y5.588
X46.482Y3.048
X46.736Y55.88
X46.736Y53.34
X49.022Y5.588
X49.022Y3.048
X49.276Y55.88
X49.276Y53.34
X51.562Y5.588
X51.562Y3.048
X51.816Y55.88
X51.816Y53.34
X54.102Y5.588
X54.102Y3.048
X54.356Y55.88
X54.356Y53.34
X56.642Y5.588
X56.642Y3.048
X56.896Y55.88
X56.896Y53.34
X59.182Y5.588
X59.182Y3.048
X59.436Y55.88
X59.436Y53.34
X61.722Y5.588
X61.722Y3.048
X61.976Y55.88
X61.976Y53.34
X64.262Y5.588
X64.262Y3.048
X64.516Y55.88
X64.516Y53.34
X66.802Y5.588
X66.802Y3.048
X69.342Y5.588
X69.342Y3.048
X71.882Y5.588
X71.882Y3.048
T3
X5.0Y84.0
X5.0Y5.0
X95.0Y84.0
X95.0Y5.0
T2
G00X7.97Y27.035
M15
G01X7.97Y25.035
M16
G05
G00X9.97Y21.335
M15
G01X11.97Y21.335
M16
G05
G00X13.97Y27.035
M15
G01X13.97Y25.035
M16
G05
T0
M30
