M48
; DRILL file {KiCad (5.1.9)-1} date 05/23/22 16:02:49
; FORMAT={-:-/ absolute / metric / decimal}
; #@! TF.CreationDate,2022-05-23T16:02:49+09:00
; #@! TF.GenerationSoftware,Kicad,Pcbnew,(5.1.9)-1
FMAT,2
METRIC
T1C0.300
T2C1.000
%
G90
G05
T1
X11.176Y87.376
X15.621Y87.947
X24.653Y41.515
X25.85Y49.316
X29.278Y46.575
X29.517Y45.451
X30.468Y29.868
X31.034Y49.873
X31.988Y23.268
X32.625Y47.555
X33.347Y8.217
X34.455Y18.261
X36.472Y10.373
X42.988Y86.995
X44.196Y18.68
X45.546Y86.995
X48.977Y87.4
X51.47Y87.567
X51.816Y16.14
X53.963Y87.579
X56.455Y87.579
X58.948Y87.579
X61.441Y87.579
X63.082Y16.261
X63.179Y15.055
X64.516Y87.376
T2
X5.08Y39.37
X5.08Y36.83
X5.08Y34.29
X11.176Y55.88
X11.176Y53.34
X13.716Y55.88
X13.716Y53.34
X16.256Y55.88
X16.256Y53.34
X18.796Y55.88
X18.796Y53.34
X21.336Y55.88
X21.336Y53.34
X21.57Y7.136
X21.57Y4.596
X23.876Y55.88
X23.876Y53.34
X24.11Y7.136
X24.11Y4.596
X26.416Y55.88
X26.416Y53.34
X26.65Y7.136
X26.65Y4.596
X28.956Y55.88
X28.956Y53.34
X29.19Y7.136
X29.19Y4.596
X31.496Y55.88
X31.496Y53.34
X31.73Y7.136
X31.73Y4.596
X34.036Y55.88
X34.036Y53.34
X34.27Y7.136
X34.27Y4.596
X36.576Y55.88
X36.576Y53.34
X36.81Y7.136
X36.81Y4.596
X39.116Y55.88
X39.116Y53.34
X39.35Y7.136
X39.35Y4.596
X41.656Y55.88
X41.656Y53.34
X41.89Y7.136
X41.89Y4.596
X44.196Y55.88
X44.196Y53.34
X44.43Y7.136
X44.43Y4.596
X46.736Y55.88
X46.736Y53.34
X46.97Y7.136
X46.97Y4.596
X49.276Y55.88
X49.276Y53.34
X49.51Y7.136
X49.51Y4.596
X51.816Y55.88
X51.816Y53.34
X52.05Y7.136
X52.05Y4.596
X54.356Y55.88
X54.356Y53.34
X54.59Y7.136
X54.59Y4.596
X56.896Y55.88
X56.896Y53.34
X57.13Y7.136
X57.13Y4.596
X59.436Y55.88
X59.436Y53.34
X59.67Y7.136
X59.67Y4.596
X61.976Y55.88
X61.976Y53.34
X62.21Y7.136
X62.21Y4.596
X64.516Y55.88
X64.516Y53.34
X64.75Y7.136
X64.75Y4.596
X67.29Y7.136
X67.29Y4.596
X69.83Y7.136
X69.83Y4.596
X72.37Y7.136
X72.37Y4.596
X74.91Y7.136
X74.91Y4.596
T2
G00X7.97Y20.685
M15
G01X7.97Y18.685
M16
G05
G00X9.97Y14.985
M15
G01X11.97Y14.985
M16
G05
G00X13.97Y20.685
M15
G01X13.97Y18.685
M16
G05
T0
M30
