G04 #@! TF.GenerationSoftware,KiCad,Pcbnew,(5.1.9)-1*
G04 #@! TF.CreationDate,2022-06-04T11:55:27+09:00*
G04 #@! TF.ProjectId,mz-2000,6d7a2d32-3030-4302-9e6b-696361645f70,rev?*
G04 #@! TF.SameCoordinates,PX2faf080PY93d1cc0*
G04 #@! TF.FileFunction,Legend,Top*
G04 #@! TF.FilePolarity,Positive*
%FSLAX46Y46*%
G04 Gerber Fmt 4.6, Leading zero omitted, Abs format (unit mm)*
G04 Created by KiCad (PCBNEW (5.1.9)-1) date 2022-06-04 11:55:27*
%MOMM*%
%LPD*%
G01*
G04 APERTURE LIST*
%ADD10C,0.100000*%
%ADD11C,0.300000*%
%ADD12C,0.120000*%
%ADD13C,0.150000*%
G04 APERTURE END LIST*
D10*
X6273976Y50273358D02*
X6559690Y50178120D01*
X6654928Y50082881D01*
X6750166Y49892405D01*
X6750166Y49606691D01*
X6654928Y49416215D01*
X6559690Y49320977D01*
X6369214Y49225739D01*
X5607309Y49225739D01*
X5607309Y51225739D01*
X6273976Y51225739D01*
X6464452Y51130500D01*
X6559690Y51035262D01*
X6654928Y50844786D01*
X6654928Y50654310D01*
X6559690Y50463834D01*
X6464452Y50368596D01*
X6273976Y50273358D01*
X5607309Y50273358D01*
X8654928Y49225739D02*
X7512071Y49225739D01*
X8083500Y49225739D02*
X8083500Y51225739D01*
X7893023Y50940024D01*
X7702547Y50749548D01*
X7512071Y50654310D01*
X5654928Y58687167D02*
X6607309Y58687167D01*
X5464452Y58115739D02*
X6131119Y60115739D01*
X6797785Y58115739D01*
X8512071Y58115739D02*
X7369214Y58115739D01*
X7940642Y58115739D02*
X7940642Y60115739D01*
X7750166Y59830024D01*
X7559690Y59639548D01*
X7369214Y59544310D01*
X67453095Y50307858D02*
X67738809Y50212620D01*
X67834047Y50117381D01*
X67929285Y49926905D01*
X67929285Y49641191D01*
X67834047Y49450715D01*
X67738809Y49355477D01*
X67548333Y49260239D01*
X66786428Y49260239D01*
X66786428Y51260239D01*
X67453095Y51260239D01*
X67643571Y51165000D01*
X67738809Y51069762D01*
X67834047Y50879286D01*
X67834047Y50688810D01*
X67738809Y50498334D01*
X67643571Y50403096D01*
X67453095Y50307858D01*
X66786428Y50307858D01*
X68691190Y51069762D02*
X68786428Y51165000D01*
X68976904Y51260239D01*
X69453095Y51260239D01*
X69643571Y51165000D01*
X69738809Y51069762D01*
X69834047Y50879286D01*
X69834047Y50688810D01*
X69738809Y50403096D01*
X68595952Y49260239D01*
X69834047Y49260239D01*
X70595952Y51069762D02*
X70691190Y51165000D01*
X70881666Y51260239D01*
X71357857Y51260239D01*
X71548333Y51165000D01*
X71643571Y51069762D01*
X71738809Y50879286D01*
X71738809Y50688810D01*
X71643571Y50403096D01*
X70500714Y49260239D01*
X71738809Y49260239D01*
X66834047Y58306167D02*
X67786428Y58306167D01*
X66643571Y57734739D02*
X67310238Y59734739D01*
X67976904Y57734739D01*
X68548333Y59544262D02*
X68643571Y59639500D01*
X68834047Y59734739D01*
X69310238Y59734739D01*
X69500714Y59639500D01*
X69595952Y59544262D01*
X69691190Y59353786D01*
X69691190Y59163310D01*
X69595952Y58877596D01*
X68453095Y57734739D01*
X69691190Y57734739D01*
X70453095Y59544262D02*
X70548333Y59639500D01*
X70738809Y59734739D01*
X71215000Y59734739D01*
X71405476Y59639500D01*
X71500714Y59544262D01*
X71595952Y59353786D01*
X71595952Y59163310D01*
X71500714Y58877596D01*
X70357857Y57734739D01*
X71595952Y57734739D01*
X15148095Y2458858D02*
X15433809Y2363620D01*
X15529047Y2268381D01*
X15624285Y2077905D01*
X15624285Y1792191D01*
X15529047Y1601715D01*
X15433809Y1506477D01*
X15243333Y1411239D01*
X14481428Y1411239D01*
X14481428Y3411239D01*
X15148095Y3411239D01*
X15338571Y3316000D01*
X15433809Y3220762D01*
X15529047Y3030286D01*
X15529047Y2839810D01*
X15433809Y2649334D01*
X15338571Y2554096D01*
X15148095Y2458858D01*
X14481428Y2458858D01*
X16386190Y3220762D02*
X16481428Y3316000D01*
X16671904Y3411239D01*
X17148095Y3411239D01*
X17338571Y3316000D01*
X17433809Y3220762D01*
X17529047Y3030286D01*
X17529047Y2839810D01*
X17433809Y2554096D01*
X16290952Y1411239D01*
X17529047Y1411239D01*
X18290952Y3220762D02*
X18386190Y3316000D01*
X18576666Y3411239D01*
X19052857Y3411239D01*
X19243333Y3316000D01*
X19338571Y3220762D01*
X19433809Y3030286D01*
X19433809Y2839810D01*
X19338571Y2554096D01*
X18195714Y1411239D01*
X19433809Y1411239D01*
X14619047Y10482667D02*
X15571428Y10482667D01*
X14428571Y9911239D02*
X15095238Y11911239D01*
X15761904Y9911239D01*
X16333333Y11720762D02*
X16428571Y11816000D01*
X16619047Y11911239D01*
X17095238Y11911239D01*
X17285714Y11816000D01*
X17380952Y11720762D01*
X17476190Y11530286D01*
X17476190Y11339810D01*
X17380952Y11054096D01*
X16238095Y9911239D01*
X17476190Y9911239D01*
X18238095Y11720762D02*
X18333333Y11816000D01*
X18523809Y11911239D01*
X19000000Y11911239D01*
X19190476Y11816000D01*
X19285714Y11720762D01*
X19380952Y11530286D01*
X19380952Y11339810D01*
X19285714Y11054096D01*
X18142857Y9911239D01*
X19380952Y9911239D01*
X78600476Y2958858D02*
X78886190Y2863620D01*
X78981428Y2768381D01*
X79076666Y2577905D01*
X79076666Y2292191D01*
X78981428Y2101715D01*
X78886190Y2006477D01*
X78695714Y1911239D01*
X77933809Y1911239D01*
X77933809Y3911239D01*
X78600476Y3911239D01*
X78790952Y3816000D01*
X78886190Y3720762D01*
X78981428Y3530286D01*
X78981428Y3339810D01*
X78886190Y3149334D01*
X78790952Y3054096D01*
X78600476Y2958858D01*
X77933809Y2958858D01*
X80981428Y1911239D02*
X79838571Y1911239D01*
X80410000Y1911239D02*
X80410000Y3911239D01*
X80219523Y3625524D01*
X80029047Y3435048D01*
X79838571Y3339810D01*
X77981428Y9982667D02*
X78933809Y9982667D01*
X77790952Y9411239D02*
X78457619Y11411239D01*
X79124285Y9411239D01*
X80838571Y9411239D02*
X79695714Y9411239D01*
X80267142Y9411239D02*
X80267142Y11411239D01*
X80076666Y11125524D01*
X79886190Y10935048D01*
X79695714Y10839810D01*
X49010000Y10046096D02*
X48962380Y9950858D01*
X48962380Y9808000D01*
X49010000Y9665143D01*
X49105238Y9569905D01*
X49200476Y9522286D01*
X49390952Y9474667D01*
X49533809Y9474667D01*
X49724285Y9522286D01*
X49819523Y9569905D01*
X49914761Y9665143D01*
X49962380Y9808000D01*
X49962380Y9903239D01*
X49914761Y10046096D01*
X49867142Y10093715D01*
X49533809Y10093715D01*
X49533809Y9903239D01*
X49962380Y10522286D02*
X48962380Y10522286D01*
X49962380Y11093715D01*
X48962380Y11093715D01*
X49962380Y11569905D02*
X48962380Y11569905D01*
X48962380Y11808000D01*
X49010000Y11950858D01*
X49105238Y12046096D01*
X49200476Y12093715D01*
X49390952Y12141334D01*
X49533809Y12141334D01*
X49724285Y12093715D01*
X49819523Y12046096D01*
X49914761Y11950858D01*
X49962380Y11808000D01*
X49962380Y11569905D01*
X41390000Y9792096D02*
X41342380Y9696858D01*
X41342380Y9554000D01*
X41390000Y9411143D01*
X41485238Y9315905D01*
X41580476Y9268286D01*
X41770952Y9220667D01*
X41913809Y9220667D01*
X42104285Y9268286D01*
X42199523Y9315905D01*
X42294761Y9411143D01*
X42342380Y9554000D01*
X42342380Y9649239D01*
X42294761Y9792096D01*
X42247142Y9839715D01*
X41913809Y9839715D01*
X41913809Y9649239D01*
X42342380Y10268286D02*
X41342380Y10268286D01*
X42342380Y10839715D01*
X41342380Y10839715D01*
X42342380Y11315905D02*
X41342380Y11315905D01*
X41342380Y11554000D01*
X41390000Y11696858D01*
X41485238Y11792096D01*
X41580476Y11839715D01*
X41770952Y11887334D01*
X41913809Y11887334D01*
X42104285Y11839715D01*
X42199523Y11792096D01*
X42294761Y11696858D01*
X42342380Y11554000D01*
X42342380Y11315905D01*
X33770000Y10238096D02*
X33722380Y10142858D01*
X33722380Y10000000D01*
X33770000Y9857143D01*
X33865238Y9761905D01*
X33960476Y9714286D01*
X34150952Y9666667D01*
X34293809Y9666667D01*
X34484285Y9714286D01*
X34579523Y9761905D01*
X34674761Y9857143D01*
X34722380Y10000000D01*
X34722380Y10095239D01*
X34674761Y10238096D01*
X34627142Y10285715D01*
X34293809Y10285715D01*
X34293809Y10095239D01*
X34722380Y10714286D02*
X33722380Y10714286D01*
X34722380Y11285715D01*
X33722380Y11285715D01*
X34722380Y11761905D02*
X33722380Y11761905D01*
X33722380Y12000000D01*
X33770000Y12142858D01*
X33865238Y12238096D01*
X33960476Y12285715D01*
X34150952Y12333334D01*
X34293809Y12333334D01*
X34484285Y12285715D01*
X34579523Y12238096D01*
X34674761Y12142858D01*
X34722380Y12000000D01*
X34722380Y11761905D01*
X51200000Y10268381D02*
X51200000Y11411239D01*
X52502380Y10506477D02*
X51502380Y10506477D01*
X52216666Y10839810D01*
X51502380Y11173143D01*
X52502380Y11173143D01*
X51200000Y11411239D02*
X51200000Y12363620D01*
X52502380Y12173143D02*
X52502380Y11601715D01*
X52502380Y11887429D02*
X51502380Y11887429D01*
X51645238Y11792191D01*
X51740476Y11696953D01*
X51788095Y11601715D01*
X65158880Y1230405D02*
X64158880Y1230405D01*
X64158880Y1468500D01*
X64206500Y1611358D01*
X64301738Y1706596D01*
X64396976Y1754215D01*
X64587452Y1801834D01*
X64730309Y1801834D01*
X64920785Y1754215D01*
X65016023Y1706596D01*
X65111261Y1611358D01*
X65158880Y1468500D01*
X65158880Y1230405D01*
X64158880Y2658977D02*
X64158880Y2468500D01*
X64206500Y2373262D01*
X64254119Y2325643D01*
X64396976Y2230405D01*
X64587452Y2182786D01*
X64968404Y2182786D01*
X65063642Y2230405D01*
X65111261Y2278024D01*
X65158880Y2373262D01*
X65158880Y2563739D01*
X65111261Y2658977D01*
X65063642Y2706596D01*
X64968404Y2754215D01*
X64730309Y2754215D01*
X64635071Y2706596D01*
X64587452Y2658977D01*
X64539833Y2563739D01*
X64539833Y2373262D01*
X64587452Y2278024D01*
X64635071Y2230405D01*
X64730309Y2182786D01*
X61710000Y10046096D02*
X61662380Y9950858D01*
X61662380Y9808000D01*
X61710000Y9665143D01*
X61805238Y9569905D01*
X61900476Y9522286D01*
X62090952Y9474667D01*
X62233809Y9474667D01*
X62424285Y9522286D01*
X62519523Y9569905D01*
X62614761Y9665143D01*
X62662380Y9808000D01*
X62662380Y9903239D01*
X62614761Y10046096D01*
X62567142Y10093715D01*
X62233809Y10093715D01*
X62233809Y9903239D01*
X62662380Y10522286D02*
X61662380Y10522286D01*
X62662380Y11093715D01*
X61662380Y11093715D01*
X62662380Y11569905D02*
X61662380Y11569905D01*
X61662380Y11808000D01*
X61710000Y11950858D01*
X61805238Y12046096D01*
X61900476Y12093715D01*
X62090952Y12141334D01*
X62233809Y12141334D01*
X62424285Y12093715D01*
X62519523Y12046096D01*
X62614761Y11950858D01*
X62662380Y11808000D01*
X62662380Y11569905D01*
X23260000Y9016667D02*
X23260000Y9650000D01*
X24038571Y9183334D02*
X24038571Y9416667D01*
X24562380Y9516667D02*
X24562380Y9183334D01*
X23562380Y9183334D01*
X23562380Y9516667D01*
X23260000Y9650000D02*
X23260000Y10316667D01*
X23562380Y9750000D02*
X24562380Y10216667D01*
X23562380Y10216667D02*
X24562380Y9750000D01*
X23260000Y10316667D02*
X23260000Y11116667D01*
X23562380Y10416667D02*
X24562380Y10583334D01*
X23848095Y10716667D01*
X24562380Y10850000D01*
X23562380Y11016667D01*
X23260000Y11116667D02*
X23260000Y11716667D01*
X24276666Y11250000D02*
X24276666Y11583334D01*
X24562380Y11183334D02*
X23562380Y11416667D01*
X24562380Y11650000D01*
X23260000Y11716667D02*
X23260000Y12050000D01*
X24562380Y11883334D02*
X23562380Y11883334D01*
X23260000Y12050000D02*
X23260000Y12583334D01*
X23562380Y12116667D02*
X23562380Y12516667D01*
X24562380Y12316667D02*
X23562380Y12316667D01*
X46120000Y9990572D02*
X46120000Y11133429D01*
X46422380Y10133429D02*
X47422380Y10371524D01*
X46708095Y10562000D01*
X47422380Y10752477D01*
X46422380Y10990572D01*
X46120000Y11133429D02*
X46120000Y12133429D01*
X47422380Y11942953D02*
X46946190Y11609620D01*
X47422380Y11371524D02*
X46422380Y11371524D01*
X46422380Y11752477D01*
X46470000Y11847715D01*
X46517619Y11895334D01*
X46612857Y11942953D01*
X46755714Y11942953D01*
X46850952Y11895334D01*
X46898571Y11847715D01*
X46946190Y11752477D01*
X46946190Y11371524D01*
X60122380Y10069620D02*
X59646190Y9736286D01*
X60122380Y9498191D02*
X59122380Y9498191D01*
X59122380Y9879143D01*
X59170000Y9974381D01*
X59217619Y10022000D01*
X59312857Y10069620D01*
X59455714Y10069620D01*
X59550952Y10022000D01*
X59598571Y9974381D01*
X59646190Y9879143D01*
X59646190Y9498191D01*
X59598571Y10498191D02*
X59598571Y10831524D01*
X60122380Y10974381D02*
X60122380Y10498191D01*
X59122380Y10498191D01*
X59122380Y10974381D01*
X60074761Y11355334D02*
X60122380Y11498191D01*
X60122380Y11736286D01*
X60074761Y11831524D01*
X60027142Y11879143D01*
X59931904Y11926762D01*
X59836666Y11926762D01*
X59741428Y11879143D01*
X59693809Y11831524D01*
X59646190Y11736286D01*
X59598571Y11545810D01*
X59550952Y11450572D01*
X59503333Y11402953D01*
X59408095Y11355334D01*
X59312857Y11355334D01*
X59217619Y11402953D01*
X59170000Y11450572D01*
X59122380Y11545810D01*
X59122380Y11783905D01*
X59170000Y11926762D01*
X59598571Y12355334D02*
X59598571Y12688667D01*
X60122380Y12831524D02*
X60122380Y12355334D01*
X59122380Y12355334D01*
X59122380Y12831524D01*
X59122380Y13117239D02*
X59122380Y13688667D01*
X60122380Y13402953D02*
X59122380Y13402953D01*
X30880000Y9196572D02*
X30880000Y10101334D01*
X31658571Y9434667D02*
X31658571Y9768000D01*
X32182380Y9910858D02*
X32182380Y9434667D01*
X31182380Y9434667D01*
X31182380Y9910858D01*
X30880000Y10101334D02*
X30880000Y11053715D01*
X31182380Y10244191D02*
X32182380Y10910858D01*
X31182380Y10910858D02*
X32182380Y10244191D01*
X30880000Y11053715D02*
X30880000Y11529905D01*
X32182380Y11291810D02*
X31182380Y11291810D01*
X30880000Y11529905D02*
X30880000Y12577524D01*
X32182380Y11768000D02*
X31182380Y11768000D01*
X32182380Y12339429D01*
X31182380Y12339429D01*
X30880000Y12577524D02*
X30880000Y13339429D01*
X31182380Y12672762D02*
X31182380Y13244191D01*
X32182380Y12958477D02*
X31182380Y12958477D01*
X20720000Y9204762D02*
X20720000Y9657143D01*
X21498571Y9323810D02*
X21498571Y9490477D01*
X22022380Y9561905D02*
X22022380Y9323810D01*
X21022380Y9323810D01*
X21022380Y9561905D01*
X20720000Y9657143D02*
X20720000Y10133334D01*
X21022380Y9728572D02*
X22022380Y10061905D01*
X21022380Y10061905D02*
X22022380Y9728572D01*
X20720000Y10133334D02*
X20720000Y10633334D01*
X22022380Y10538096D02*
X21546190Y10371429D01*
X22022380Y10252381D02*
X21022380Y10252381D01*
X21022380Y10442858D01*
X21070000Y10490477D01*
X21117619Y10514286D01*
X21212857Y10538096D01*
X21355714Y10538096D01*
X21450952Y10514286D01*
X21498571Y10490477D01*
X21546190Y10442858D01*
X21546190Y10252381D01*
X20720000Y10633334D02*
X20720000Y11085715D01*
X21498571Y10752381D02*
X21498571Y10919048D01*
X22022380Y10990477D02*
X22022380Y10752381D01*
X21022380Y10752381D01*
X21022380Y10990477D01*
X20720000Y11085715D02*
X20720000Y11561905D01*
X21974761Y11180953D02*
X22022380Y11252381D01*
X22022380Y11371429D01*
X21974761Y11419048D01*
X21927142Y11442858D01*
X21831904Y11466667D01*
X21736666Y11466667D01*
X21641428Y11442858D01*
X21593809Y11419048D01*
X21546190Y11371429D01*
X21498571Y11276191D01*
X21450952Y11228572D01*
X21403333Y11204762D01*
X21308095Y11180953D01*
X21212857Y11180953D01*
X21117619Y11204762D01*
X21070000Y11228572D01*
X21022380Y11276191D01*
X21022380Y11395239D01*
X21070000Y11466667D01*
X20720000Y11561905D02*
X20720000Y12014286D01*
X21498571Y11680953D02*
X21498571Y11847620D01*
X22022380Y11919048D02*
X22022380Y11680953D01*
X21022380Y11680953D01*
X21022380Y11919048D01*
X20720000Y12014286D02*
X20720000Y12395239D01*
X21022380Y12061905D02*
X21022380Y12347620D01*
X22022380Y12204762D02*
X21022380Y12204762D01*
X65202380Y10577905D02*
X64202380Y10577905D01*
X64202380Y10816000D01*
X64250000Y10958858D01*
X64345238Y11054096D01*
X64440476Y11101715D01*
X64630952Y11149334D01*
X64773809Y11149334D01*
X64964285Y11101715D01*
X65059523Y11054096D01*
X65154761Y10958858D01*
X65202380Y10816000D01*
X65202380Y10577905D01*
X64202380Y11482667D02*
X64202380Y12149334D01*
X65202380Y11720762D01*
X72822380Y10577905D02*
X71822380Y10577905D01*
X71822380Y10816000D01*
X71870000Y10958858D01*
X71965238Y11054096D01*
X72060476Y11101715D01*
X72250952Y11149334D01*
X72393809Y11149334D01*
X72584285Y11101715D01*
X72679523Y11054096D01*
X72774761Y10958858D01*
X72822380Y10816000D01*
X72822380Y10577905D01*
X71822380Y11482667D02*
X71822380Y12101715D01*
X72203333Y11768381D01*
X72203333Y11911239D01*
X72250952Y12006477D01*
X72298571Y12054096D01*
X72393809Y12101715D01*
X72631904Y12101715D01*
X72727142Y12054096D01*
X72774761Y12006477D01*
X72822380Y11911239D01*
X72822380Y11625524D01*
X72774761Y11530286D01*
X72727142Y11482667D01*
X67742380Y10577905D02*
X66742380Y10577905D01*
X66742380Y10816000D01*
X66790000Y10958858D01*
X66885238Y11054096D01*
X66980476Y11101715D01*
X67170952Y11149334D01*
X67313809Y11149334D01*
X67504285Y11101715D01*
X67599523Y11054096D01*
X67694761Y10958858D01*
X67742380Y10816000D01*
X67742380Y10577905D01*
X66742380Y12054096D02*
X66742380Y11577905D01*
X67218571Y11530286D01*
X67170952Y11577905D01*
X67123333Y11673143D01*
X67123333Y11911239D01*
X67170952Y12006477D01*
X67218571Y12054096D01*
X67313809Y12101715D01*
X67551904Y12101715D01*
X67647142Y12054096D01*
X67694761Y12006477D01*
X67742380Y11911239D01*
X67742380Y11673143D01*
X67694761Y11577905D01*
X67647142Y11530286D01*
X22022380Y2000000D02*
X21022380Y2000000D01*
X21165238Y1904762D02*
X21165238Y2095239D01*
X21212857Y2238096D01*
X21308095Y2333334D01*
X21403333Y2380953D01*
X21593809Y2380953D01*
X21689047Y2333334D01*
X21784285Y2238096D01*
X21831904Y2095239D01*
X21831904Y1904762D01*
X21784285Y1761905D01*
X21689047Y1666667D01*
X21593809Y1619048D01*
X21403333Y1619048D01*
X21308095Y1666667D01*
X21212857Y1761905D01*
X21165238Y1904762D01*
X38500000Y9029905D02*
X38500000Y9506096D01*
X39802380Y9268000D02*
X38802380Y9268000D01*
X38500000Y9506096D02*
X38500000Y10553715D01*
X38802380Y9934667D02*
X38802380Y10125143D01*
X38850000Y10220381D01*
X38945238Y10315620D01*
X39135714Y10363239D01*
X39469047Y10363239D01*
X39659523Y10315620D01*
X39754761Y10220381D01*
X39802380Y10125143D01*
X39802380Y9934667D01*
X39754761Y9839429D01*
X39659523Y9744191D01*
X39469047Y9696572D01*
X39135714Y9696572D01*
X38945238Y9744191D01*
X38850000Y9839429D01*
X38802380Y9934667D01*
X38500000Y10553715D02*
X38500000Y11553715D01*
X39802380Y11363239D02*
X39326190Y11029905D01*
X39802380Y10791810D02*
X38802380Y10791810D01*
X38802380Y11172762D01*
X38850000Y11268000D01*
X38897619Y11315620D01*
X38992857Y11363239D01*
X39135714Y11363239D01*
X39230952Y11315620D01*
X39278571Y11268000D01*
X39326190Y11172762D01*
X39326190Y10791810D01*
X38500000Y11553715D02*
X38500000Y12458477D01*
X39278571Y11791810D02*
X39278571Y12125143D01*
X39802380Y12268000D02*
X39802380Y11791810D01*
X38802380Y11791810D01*
X38802380Y12268000D01*
X38500000Y12458477D02*
X38500000Y13506096D01*
X39897619Y13363239D02*
X39850000Y13268000D01*
X39754761Y13172762D01*
X39611904Y13029905D01*
X39564285Y12934667D01*
X39564285Y12839429D01*
X39802380Y12887048D02*
X39754761Y12791810D01*
X39659523Y12696572D01*
X39469047Y12648953D01*
X39135714Y12648953D01*
X38945238Y12696572D01*
X38850000Y12791810D01*
X38802380Y12887048D01*
X38802380Y13077524D01*
X38850000Y13172762D01*
X38945238Y13268000D01*
X39135714Y13315620D01*
X39469047Y13315620D01*
X39659523Y13268000D01*
X39754761Y13172762D01*
X39802380Y13077524D01*
X39802380Y12887048D01*
X67698880Y1230405D02*
X66698880Y1230405D01*
X66698880Y1468500D01*
X66746500Y1611358D01*
X66841738Y1706596D01*
X66936976Y1754215D01*
X67127452Y1801834D01*
X67270309Y1801834D01*
X67460785Y1754215D01*
X67556023Y1706596D01*
X67651261Y1611358D01*
X67698880Y1468500D01*
X67698880Y1230405D01*
X67032214Y2658977D02*
X67698880Y2658977D01*
X66651261Y2420881D02*
X67365547Y2182786D01*
X67365547Y2801834D01*
X53740000Y8815905D02*
X53740000Y9863524D01*
X55042380Y9054000D02*
X54042380Y9054000D01*
X54518571Y9054000D02*
X54518571Y9625429D01*
X55042380Y9625429D02*
X54042380Y9625429D01*
X53740000Y9863524D02*
X53740000Y10720667D01*
X54756666Y10054000D02*
X54756666Y10530191D01*
X55042380Y9958762D02*
X54042380Y10292096D01*
X55042380Y10625429D01*
X53740000Y10720667D02*
X53740000Y11530191D01*
X55042380Y11434953D02*
X55042380Y10958762D01*
X54042380Y10958762D01*
X53740000Y11530191D02*
X53740000Y12292096D01*
X54042380Y11625429D02*
X54042380Y12196858D01*
X55042380Y11911143D02*
X54042380Y11911143D01*
X56630000Y10046096D02*
X56582380Y9950858D01*
X56582380Y9808000D01*
X56630000Y9665143D01*
X56725238Y9569905D01*
X56820476Y9522286D01*
X57010952Y9474667D01*
X57153809Y9474667D01*
X57344285Y9522286D01*
X57439523Y9569905D01*
X57534761Y9665143D01*
X57582380Y9808000D01*
X57582380Y9903239D01*
X57534761Y10046096D01*
X57487142Y10093715D01*
X57153809Y10093715D01*
X57153809Y9903239D01*
X57582380Y10522286D02*
X56582380Y10522286D01*
X57582380Y11093715D01*
X56582380Y11093715D01*
X57582380Y11569905D02*
X56582380Y11569905D01*
X56582380Y11808000D01*
X56630000Y11950858D01*
X56725238Y12046096D01*
X56820476Y12093715D01*
X57010952Y12141334D01*
X57153809Y12141334D01*
X57344285Y12093715D01*
X57439523Y12046096D01*
X57534761Y11950858D01*
X57582380Y11808000D01*
X57582380Y11569905D01*
X35960000Y8952381D02*
X35960000Y10095239D01*
X37262380Y9190477D02*
X36262380Y9190477D01*
X36976666Y9523810D01*
X36262380Y9857143D01*
X37262380Y9857143D01*
X35960000Y10095239D02*
X35960000Y11095239D01*
X37262380Y10904762D02*
X36786190Y10571429D01*
X37262380Y10333334D02*
X36262380Y10333334D01*
X36262380Y10714286D01*
X36310000Y10809524D01*
X36357619Y10857143D01*
X36452857Y10904762D01*
X36595714Y10904762D01*
X36690952Y10857143D01*
X36738571Y10809524D01*
X36786190Y10714286D01*
X36786190Y10333334D01*
X35960000Y11095239D02*
X35960000Y12000000D01*
X36738571Y11333334D02*
X36738571Y11666667D01*
X37262380Y11809524D02*
X37262380Y11333334D01*
X36262380Y11333334D01*
X36262380Y11809524D01*
X35960000Y12000000D02*
X35960000Y13047620D01*
X37357619Y12904762D02*
X37310000Y12809524D01*
X37214761Y12714286D01*
X37071904Y12571429D01*
X37024285Y12476191D01*
X37024285Y12380953D01*
X37262380Y12428572D02*
X37214761Y12333334D01*
X37119523Y12238096D01*
X36929047Y12190477D01*
X36595714Y12190477D01*
X36405238Y12238096D01*
X36310000Y12333334D01*
X36262380Y12428572D01*
X36262380Y12619048D01*
X36310000Y12714286D01*
X36405238Y12809524D01*
X36595714Y12857143D01*
X36929047Y12857143D01*
X37119523Y12809524D01*
X37214761Y12714286D01*
X37262380Y12619048D01*
X37262380Y12428572D01*
X25800000Y9720667D02*
X25800000Y10768286D01*
X27102380Y9958762D02*
X26102380Y9958762D01*
X27102380Y10530191D01*
X26102380Y10530191D01*
X25800000Y10768286D02*
X25800000Y11911143D01*
X27102380Y11006381D02*
X26102380Y11006381D01*
X26816666Y11339715D01*
X26102380Y11673048D01*
X27102380Y11673048D01*
X25800000Y11911143D02*
X25800000Y12387334D01*
X27102380Y12149239D02*
X26102380Y12149239D01*
X43580000Y10062000D02*
X43580000Y11062000D01*
X44882380Y10871524D02*
X44406190Y10538191D01*
X44882380Y10300096D02*
X43882380Y10300096D01*
X43882380Y10681048D01*
X43930000Y10776286D01*
X43977619Y10823905D01*
X44072857Y10871524D01*
X44215714Y10871524D01*
X44310952Y10823905D01*
X44358571Y10776286D01*
X44406190Y10681048D01*
X44406190Y10300096D01*
X43580000Y11062000D02*
X43580000Y12062000D01*
X44882380Y11300096D02*
X43882380Y11300096D01*
X43882380Y11538191D01*
X43930000Y11681048D01*
X44025238Y11776286D01*
X44120476Y11823905D01*
X44310952Y11871524D01*
X44453809Y11871524D01*
X44644285Y11823905D01*
X44739523Y11776286D01*
X44834761Y11681048D01*
X44882380Y11538191D01*
X44882380Y11300096D01*
X29642380Y10379429D02*
X28642380Y10379429D01*
X29118571Y10855620D02*
X29118571Y11188953D01*
X29642380Y11331810D02*
X29642380Y10855620D01*
X28642380Y10855620D01*
X28642380Y11331810D01*
X28642380Y11950858D02*
X28642380Y12046096D01*
X28690000Y12141334D01*
X28737619Y12188953D01*
X28832857Y12236572D01*
X29023333Y12284191D01*
X29261428Y12284191D01*
X29451904Y12236572D01*
X29547142Y12188953D01*
X29594761Y12141334D01*
X29642380Y12046096D01*
X29642380Y11950858D01*
X29594761Y11855620D01*
X29547142Y11808000D01*
X29451904Y11760381D01*
X29261428Y11712762D01*
X29023333Y11712762D01*
X28832857Y11760381D01*
X28737619Y11808000D01*
X28690000Y11855620D01*
X28642380Y11950858D01*
X62269666Y1254215D02*
X62269666Y1730405D01*
X62555380Y1158977D02*
X61555380Y1492310D01*
X62555380Y1825643D01*
X61555380Y2349453D02*
X61555380Y2444691D01*
X61603000Y2539929D01*
X61650619Y2587548D01*
X61745857Y2635167D01*
X61936333Y2682786D01*
X62174428Y2682786D01*
X62364904Y2635167D01*
X62460142Y2587548D01*
X62507761Y2539929D01*
X62555380Y2444691D01*
X62555380Y2349453D01*
X62507761Y2254215D01*
X62460142Y2206596D01*
X62364904Y2158977D01*
X62174428Y2111358D01*
X61936333Y2111358D01*
X61745857Y2158977D01*
X61650619Y2206596D01*
X61603000Y2254215D01*
X61555380Y2349453D01*
X59836666Y1317715D02*
X59836666Y1793905D01*
X60122380Y1222477D02*
X59122380Y1555810D01*
X60122380Y1889143D01*
X60122380Y2746286D02*
X60122380Y2174858D01*
X60122380Y2460572D02*
X59122380Y2460572D01*
X59265238Y2365334D01*
X59360476Y2270096D01*
X59408095Y2174858D01*
X72715380Y1230405D02*
X71715380Y1230405D01*
X71715380Y1468500D01*
X71763000Y1611358D01*
X71858238Y1706596D01*
X71953476Y1754215D01*
X72143952Y1801834D01*
X72286809Y1801834D01*
X72477285Y1754215D01*
X72572523Y1706596D01*
X72667761Y1611358D01*
X72715380Y1468500D01*
X72715380Y1230405D01*
X71810619Y2182786D02*
X71763000Y2230405D01*
X71715380Y2325643D01*
X71715380Y2563739D01*
X71763000Y2658977D01*
X71810619Y2706596D01*
X71905857Y2754215D01*
X72001095Y2754215D01*
X72143952Y2706596D01*
X72715380Y2135167D01*
X72715380Y2754215D01*
X69330000Y10046096D02*
X69282380Y9950858D01*
X69282380Y9808000D01*
X69330000Y9665143D01*
X69425238Y9569905D01*
X69520476Y9522286D01*
X69710952Y9474667D01*
X69853809Y9474667D01*
X70044285Y9522286D01*
X70139523Y9569905D01*
X70234761Y9665143D01*
X70282380Y9808000D01*
X70282380Y9903239D01*
X70234761Y10046096D01*
X70187142Y10093715D01*
X69853809Y10093715D01*
X69853809Y9903239D01*
X70282380Y10522286D02*
X69282380Y10522286D01*
X70282380Y11093715D01*
X69282380Y11093715D01*
X70282380Y11569905D02*
X69282380Y11569905D01*
X69282380Y11808000D01*
X69330000Y11950858D01*
X69425238Y12046096D01*
X69520476Y12093715D01*
X69710952Y12141334D01*
X69853809Y12141334D01*
X70044285Y12093715D01*
X70139523Y12046096D01*
X70234761Y11950858D01*
X70282380Y11808000D01*
X70282380Y11569905D01*
X54713166Y1317715D02*
X54713166Y1793905D01*
X54998880Y1222477D02*
X53998880Y1555810D01*
X54998880Y1889143D01*
X53998880Y2127239D02*
X53998880Y2746286D01*
X54379833Y2412953D01*
X54379833Y2555810D01*
X54427452Y2651048D01*
X54475071Y2698667D01*
X54570309Y2746286D01*
X54808404Y2746286D01*
X54903642Y2698667D01*
X54951261Y2651048D01*
X54998880Y2555810D01*
X54998880Y2270096D01*
X54951261Y2174858D01*
X54903642Y2127239D01*
X52216666Y1254215D02*
X52216666Y1730405D01*
X52502380Y1158977D02*
X51502380Y1492310D01*
X52502380Y1825643D01*
X51835714Y2587548D02*
X52502380Y2587548D01*
X51454761Y2349453D02*
X52169047Y2111358D01*
X52169047Y2730405D01*
X57316666Y1254215D02*
X57316666Y1730405D01*
X57602380Y1158977D02*
X56602380Y1492310D01*
X57602380Y1825643D01*
X56697619Y2111358D02*
X56650000Y2158977D01*
X56602380Y2254215D01*
X56602380Y2492310D01*
X56650000Y2587548D01*
X56697619Y2635167D01*
X56792857Y2682786D01*
X56888095Y2682786D01*
X57030952Y2635167D01*
X57602380Y2063739D01*
X57602380Y2682786D01*
X49760166Y1317715D02*
X49760166Y1793905D01*
X50045880Y1222477D02*
X49045880Y1555810D01*
X50045880Y1889143D01*
X49045880Y2698667D02*
X49045880Y2222477D01*
X49522071Y2174858D01*
X49474452Y2222477D01*
X49426833Y2317715D01*
X49426833Y2555810D01*
X49474452Y2651048D01*
X49522071Y2698667D01*
X49617309Y2746286D01*
X49855404Y2746286D01*
X49950642Y2698667D01*
X49998261Y2651048D01*
X50045880Y2555810D01*
X50045880Y2317715D01*
X49998261Y2222477D01*
X49950642Y2174858D01*
X24360166Y841524D02*
X24360166Y1317715D01*
X24645880Y746286D02*
X23645880Y1079620D01*
X24645880Y1412953D01*
X24645880Y2270096D02*
X24645880Y1698667D01*
X24645880Y1984381D02*
X23645880Y1984381D01*
X23788738Y1889143D01*
X23883976Y1793905D01*
X23931595Y1698667D01*
X23645880Y3174858D02*
X23645880Y2698667D01*
X24122071Y2651048D01*
X24074452Y2698667D01*
X24026833Y2793905D01*
X24026833Y3032000D01*
X24074452Y3127239D01*
X24122071Y3174858D01*
X24217309Y3222477D01*
X24455404Y3222477D01*
X24550642Y3174858D01*
X24598261Y3127239D01*
X24645880Y3032000D01*
X24645880Y2793905D01*
X24598261Y2698667D01*
X24550642Y2651048D01*
X42140166Y1508215D02*
X42140166Y1984405D01*
X42425880Y1412977D02*
X41425880Y1746310D01*
X42425880Y2079643D01*
X41854452Y2555834D02*
X41806833Y2460596D01*
X41759214Y2412977D01*
X41663976Y2365358D01*
X41616357Y2365358D01*
X41521119Y2412977D01*
X41473500Y2460596D01*
X41425880Y2555834D01*
X41425880Y2746310D01*
X41473500Y2841548D01*
X41521119Y2889167D01*
X41616357Y2936786D01*
X41663976Y2936786D01*
X41759214Y2889167D01*
X41806833Y2841548D01*
X41854452Y2746310D01*
X41854452Y2555834D01*
X41902071Y2460596D01*
X41949690Y2412977D01*
X42044928Y2365358D01*
X42235404Y2365358D01*
X42330642Y2412977D01*
X42378261Y2460596D01*
X42425880Y2555834D01*
X42425880Y2746310D01*
X42378261Y2841548D01*
X42330642Y2889167D01*
X42235404Y2936786D01*
X42044928Y2936786D01*
X41949690Y2889167D01*
X41902071Y2841548D01*
X41854452Y2746310D01*
X36933166Y778024D02*
X36933166Y1254215D01*
X37218880Y682786D02*
X36218880Y1016120D01*
X37218880Y1349453D01*
X37218880Y2206596D02*
X37218880Y1635167D01*
X37218880Y1920881D02*
X36218880Y1920881D01*
X36361738Y1825643D01*
X36456976Y1730405D01*
X36504595Y1635167D01*
X36218880Y2825643D02*
X36218880Y2920881D01*
X36266500Y3016120D01*
X36314119Y3063739D01*
X36409357Y3111358D01*
X36599833Y3158977D01*
X36837928Y3158977D01*
X37028404Y3111358D01*
X37123642Y3063739D01*
X37171261Y3016120D01*
X37218880Y2920881D01*
X37218880Y2825643D01*
X37171261Y2730405D01*
X37123642Y2682786D01*
X37028404Y2635167D01*
X36837928Y2587548D01*
X36599833Y2587548D01*
X36409357Y2635167D01*
X36314119Y2682786D01*
X36266500Y2730405D01*
X36218880Y2825643D01*
X39536666Y1571715D02*
X39536666Y2047905D01*
X39822380Y1476477D02*
X38822380Y1809810D01*
X39822380Y2143143D01*
X39822380Y2524096D02*
X39822380Y2714572D01*
X39774761Y2809810D01*
X39727142Y2857429D01*
X39584285Y2952667D01*
X39393809Y3000286D01*
X39012857Y3000286D01*
X38917619Y2952667D01*
X38870000Y2905048D01*
X38822380Y2809810D01*
X38822380Y2619334D01*
X38870000Y2524096D01*
X38917619Y2476477D01*
X39012857Y2428858D01*
X39250952Y2428858D01*
X39346190Y2476477D01*
X39393809Y2524096D01*
X39441428Y2619334D01*
X39441428Y2809810D01*
X39393809Y2905048D01*
X39346190Y2952667D01*
X39250952Y3000286D01*
X75318880Y1230405D02*
X74318880Y1230405D01*
X74318880Y1468500D01*
X74366500Y1611358D01*
X74461738Y1706596D01*
X74556976Y1754215D01*
X74747452Y1801834D01*
X74890309Y1801834D01*
X75080785Y1754215D01*
X75176023Y1706596D01*
X75271261Y1611358D01*
X75318880Y1468500D01*
X75318880Y1230405D01*
X74318880Y2420881D02*
X74318880Y2516120D01*
X74366500Y2611358D01*
X74414119Y2658977D01*
X74509357Y2706596D01*
X74699833Y2754215D01*
X74937928Y2754215D01*
X75128404Y2706596D01*
X75223642Y2658977D01*
X75271261Y2611358D01*
X75318880Y2516120D01*
X75318880Y2420881D01*
X75271261Y2325643D01*
X75223642Y2278024D01*
X75128404Y2230405D01*
X74937928Y2182786D01*
X74699833Y2182786D01*
X74509357Y2230405D01*
X74414119Y2278024D01*
X74366500Y2325643D01*
X74318880Y2420881D01*
X31916666Y778024D02*
X31916666Y1254215D01*
X32202380Y682786D02*
X31202380Y1016120D01*
X32202380Y1349453D01*
X32202380Y2206596D02*
X32202380Y1635167D01*
X32202380Y1920881D02*
X31202380Y1920881D01*
X31345238Y1825643D01*
X31440476Y1730405D01*
X31488095Y1635167D01*
X31297619Y2587548D02*
X31250000Y2635167D01*
X31202380Y2730405D01*
X31202380Y2968500D01*
X31250000Y3063739D01*
X31297619Y3111358D01*
X31392857Y3158977D01*
X31488095Y3158977D01*
X31630952Y3111358D01*
X32202380Y2539929D01*
X32202380Y3158977D01*
X44489666Y1444715D02*
X44489666Y1920905D01*
X44775380Y1349477D02*
X43775380Y1682810D01*
X44775380Y2016143D01*
X43775380Y2254239D02*
X43775380Y2920905D01*
X44775380Y2492334D01*
X47093166Y1444715D02*
X47093166Y1920905D01*
X47378880Y1349477D02*
X46378880Y1682810D01*
X47378880Y2016143D01*
X46378880Y2778048D02*
X46378880Y2587572D01*
X46426500Y2492334D01*
X46474119Y2444715D01*
X46616976Y2349477D01*
X46807452Y2301858D01*
X47188404Y2301858D01*
X47283642Y2349477D01*
X47331261Y2397096D01*
X47378880Y2492334D01*
X47378880Y2682810D01*
X47331261Y2778048D01*
X47283642Y2825667D01*
X47188404Y2873286D01*
X46950309Y2873286D01*
X46855071Y2825667D01*
X46807452Y2778048D01*
X46759833Y2682810D01*
X46759833Y2492334D01*
X46807452Y2397096D01*
X46855071Y2349477D01*
X46950309Y2301858D01*
X75362380Y10577905D02*
X74362380Y10577905D01*
X74362380Y10816000D01*
X74410000Y10958858D01*
X74505238Y11054096D01*
X74600476Y11101715D01*
X74790952Y11149334D01*
X74933809Y11149334D01*
X75124285Y11101715D01*
X75219523Y11054096D01*
X75314761Y10958858D01*
X75362380Y10816000D01*
X75362380Y10577905D01*
X75362380Y12101715D02*
X75362380Y11530286D01*
X75362380Y11816000D02*
X74362380Y11816000D01*
X74505238Y11720762D01*
X74600476Y11625524D01*
X74648095Y11530286D01*
X34436666Y841524D02*
X34436666Y1317715D01*
X34722380Y746286D02*
X33722380Y1079620D01*
X34722380Y1412953D01*
X34722380Y2270096D02*
X34722380Y1698667D01*
X34722380Y1984381D02*
X33722380Y1984381D01*
X33865238Y1889143D01*
X33960476Y1793905D01*
X34008095Y1698667D01*
X34722380Y3222477D02*
X34722380Y2651048D01*
X34722380Y2936762D02*
X33722380Y2936762D01*
X33865238Y2841524D01*
X33960476Y2746286D01*
X34008095Y2651048D01*
X69330000Y1270096D02*
X69282380Y1174858D01*
X69282380Y1032000D01*
X69330000Y889143D01*
X69425238Y793905D01*
X69520476Y746286D01*
X69710952Y698667D01*
X69853809Y698667D01*
X70044285Y746286D01*
X70139523Y793905D01*
X70234761Y889143D01*
X70282380Y1032000D01*
X70282380Y1127239D01*
X70234761Y1270096D01*
X70187142Y1317715D01*
X69853809Y1317715D01*
X69853809Y1127239D01*
X70282380Y1746286D02*
X69282380Y1746286D01*
X70282380Y2317715D01*
X69282380Y2317715D01*
X70282380Y2793905D02*
X69282380Y2793905D01*
X69282380Y3032000D01*
X69330000Y3174858D01*
X69425238Y3270096D01*
X69520476Y3317715D01*
X69710952Y3365334D01*
X69853809Y3365334D01*
X70044285Y3317715D01*
X70139523Y3270096D01*
X70234761Y3174858D01*
X70282380Y3032000D01*
X70282380Y2793905D01*
X26773166Y778024D02*
X26773166Y1254215D01*
X27058880Y682786D02*
X26058880Y1016120D01*
X27058880Y1349453D01*
X27058880Y2206596D02*
X27058880Y1635167D01*
X27058880Y1920881D02*
X26058880Y1920881D01*
X26201738Y1825643D01*
X26296976Y1730405D01*
X26344595Y1635167D01*
X26392214Y3063739D02*
X27058880Y3063739D01*
X26011261Y2825643D02*
X26725547Y2587548D01*
X26725547Y3206596D01*
X29313166Y841524D02*
X29313166Y1317715D01*
X29598880Y746286D02*
X28598880Y1079620D01*
X29598880Y1412953D01*
X29598880Y2270096D02*
X29598880Y1698667D01*
X29598880Y1984381D02*
X28598880Y1984381D01*
X28741738Y1889143D01*
X28836976Y1793905D01*
X28884595Y1698667D01*
X28598880Y2603429D02*
X28598880Y3222477D01*
X28979833Y2889143D01*
X28979833Y3032000D01*
X29027452Y3127239D01*
X29075071Y3174858D01*
X29170309Y3222477D01*
X29408404Y3222477D01*
X29503642Y3174858D01*
X29551261Y3127239D01*
X29598880Y3032000D01*
X29598880Y2746286D01*
X29551261Y2651048D01*
X29503642Y2603429D01*
X64016000Y58420096D02*
X63968380Y58324858D01*
X63968380Y58182000D01*
X64016000Y58039143D01*
X64111238Y57943905D01*
X64206476Y57896286D01*
X64396952Y57848667D01*
X64539809Y57848667D01*
X64730285Y57896286D01*
X64825523Y57943905D01*
X64920761Y58039143D01*
X64968380Y58182000D01*
X64968380Y58277239D01*
X64920761Y58420096D01*
X64873142Y58467715D01*
X64539809Y58467715D01*
X64539809Y58277239D01*
X64968380Y58896286D02*
X63968380Y58896286D01*
X64968380Y59467715D01*
X63968380Y59467715D01*
X64968380Y59943905D02*
X63968380Y59943905D01*
X63968380Y60182000D01*
X64016000Y60324858D01*
X64111238Y60420096D01*
X64206476Y60467715D01*
X64396952Y60515334D01*
X64539809Y60515334D01*
X64730285Y60467715D01*
X64825523Y60420096D01*
X64920761Y60324858D01*
X64968380Y60182000D01*
X64968380Y59943905D01*
X62142666Y58340715D02*
X62142666Y58816905D01*
X62428380Y58245477D02*
X61428380Y58578810D01*
X62428380Y58912143D01*
X61428380Y59435953D02*
X61428380Y59531191D01*
X61476000Y59626429D01*
X61523619Y59674048D01*
X61618857Y59721667D01*
X61809333Y59769286D01*
X62047428Y59769286D01*
X62237904Y59721667D01*
X62333142Y59674048D01*
X62380761Y59626429D01*
X62428380Y59531191D01*
X62428380Y59435953D01*
X62380761Y59340715D01*
X62333142Y59293096D01*
X62237904Y59245477D01*
X62047428Y59197858D01*
X61809333Y59197858D01*
X61618857Y59245477D01*
X61523619Y59293096D01*
X61476000Y59340715D01*
X61428380Y59435953D01*
X59602666Y58340715D02*
X59602666Y58816905D01*
X59888380Y58245477D02*
X58888380Y58578810D01*
X59888380Y58912143D01*
X59888380Y59769286D02*
X59888380Y59197858D01*
X59888380Y59483572D02*
X58888380Y59483572D01*
X59031238Y59388334D01*
X59126476Y59293096D01*
X59174095Y59197858D01*
X57062666Y58340715D02*
X57062666Y58816905D01*
X57348380Y58245477D02*
X56348380Y58578810D01*
X57348380Y58912143D01*
X56443619Y59197858D02*
X56396000Y59245477D01*
X56348380Y59340715D01*
X56348380Y59578810D01*
X56396000Y59674048D01*
X56443619Y59721667D01*
X56538857Y59769286D01*
X56634095Y59769286D01*
X56776952Y59721667D01*
X57348380Y59150239D01*
X57348380Y59769286D01*
X54522666Y58340715D02*
X54522666Y58816905D01*
X54808380Y58245477D02*
X53808380Y58578810D01*
X54808380Y58912143D01*
X53808380Y59150239D02*
X53808380Y59769286D01*
X54189333Y59435953D01*
X54189333Y59578810D01*
X54236952Y59674048D01*
X54284571Y59721667D01*
X54379809Y59769286D01*
X54617904Y59769286D01*
X54713142Y59721667D01*
X54760761Y59674048D01*
X54808380Y59578810D01*
X54808380Y59293096D01*
X54760761Y59197858D01*
X54713142Y59150239D01*
X51982666Y58340715D02*
X51982666Y58816905D01*
X52268380Y58245477D02*
X51268380Y58578810D01*
X52268380Y58912143D01*
X51601714Y59674048D02*
X52268380Y59674048D01*
X51220761Y59435953D02*
X51935047Y59197858D01*
X51935047Y59816905D01*
X49442666Y58340715D02*
X49442666Y58816905D01*
X49728380Y58245477D02*
X48728380Y58578810D01*
X49728380Y58912143D01*
X48728380Y59721667D02*
X48728380Y59245477D01*
X49204571Y59197858D01*
X49156952Y59245477D01*
X49109333Y59340715D01*
X49109333Y59578810D01*
X49156952Y59674048D01*
X49204571Y59721667D01*
X49299809Y59769286D01*
X49537904Y59769286D01*
X49633142Y59721667D01*
X49680761Y59674048D01*
X49728380Y59578810D01*
X49728380Y59340715D01*
X49680761Y59245477D01*
X49633142Y59197858D01*
X46902666Y58340715D02*
X46902666Y58816905D01*
X47188380Y58245477D02*
X46188380Y58578810D01*
X47188380Y58912143D01*
X46188380Y59674048D02*
X46188380Y59483572D01*
X46236000Y59388334D01*
X46283619Y59340715D01*
X46426476Y59245477D01*
X46616952Y59197858D01*
X46997904Y59197858D01*
X47093142Y59245477D01*
X47140761Y59293096D01*
X47188380Y59388334D01*
X47188380Y59578810D01*
X47140761Y59674048D01*
X47093142Y59721667D01*
X46997904Y59769286D01*
X46759809Y59769286D01*
X46664571Y59721667D01*
X46616952Y59674048D01*
X46569333Y59578810D01*
X46569333Y59388334D01*
X46616952Y59293096D01*
X46664571Y59245477D01*
X46759809Y59197858D01*
X44362666Y58340715D02*
X44362666Y58816905D01*
X44648380Y58245477D02*
X43648380Y58578810D01*
X44648380Y58912143D01*
X43648380Y59150239D02*
X43648380Y59816905D01*
X44648380Y59388334D01*
X41822666Y58340715D02*
X41822666Y58816905D01*
X42108380Y58245477D02*
X41108380Y58578810D01*
X42108380Y58912143D01*
X41536952Y59388334D02*
X41489333Y59293096D01*
X41441714Y59245477D01*
X41346476Y59197858D01*
X41298857Y59197858D01*
X41203619Y59245477D01*
X41156000Y59293096D01*
X41108380Y59388334D01*
X41108380Y59578810D01*
X41156000Y59674048D01*
X41203619Y59721667D01*
X41298857Y59769286D01*
X41346476Y59769286D01*
X41441714Y59721667D01*
X41489333Y59674048D01*
X41536952Y59578810D01*
X41536952Y59388334D01*
X41584571Y59293096D01*
X41632190Y59245477D01*
X41727428Y59197858D01*
X41917904Y59197858D01*
X42013142Y59245477D01*
X42060761Y59293096D01*
X42108380Y59388334D01*
X42108380Y59578810D01*
X42060761Y59674048D01*
X42013142Y59721667D01*
X41917904Y59769286D01*
X41727428Y59769286D01*
X41632190Y59721667D01*
X41584571Y59674048D01*
X41536952Y59578810D01*
X39282666Y58340715D02*
X39282666Y58816905D01*
X39568380Y58245477D02*
X38568380Y58578810D01*
X39568380Y58912143D01*
X39568380Y59293096D02*
X39568380Y59483572D01*
X39520761Y59578810D01*
X39473142Y59626429D01*
X39330285Y59721667D01*
X39139809Y59769286D01*
X38758857Y59769286D01*
X38663619Y59721667D01*
X38616000Y59674048D01*
X38568380Y59578810D01*
X38568380Y59388334D01*
X38616000Y59293096D01*
X38663619Y59245477D01*
X38758857Y59197858D01*
X38996952Y59197858D01*
X39092190Y59245477D01*
X39139809Y59293096D01*
X39187428Y59388334D01*
X39187428Y59578810D01*
X39139809Y59674048D01*
X39092190Y59721667D01*
X38996952Y59769286D01*
X36742666Y57864524D02*
X36742666Y58340715D01*
X37028380Y57769286D02*
X36028380Y58102620D01*
X37028380Y58435953D01*
X37028380Y59293096D02*
X37028380Y58721667D01*
X37028380Y59007381D02*
X36028380Y59007381D01*
X36171238Y58912143D01*
X36266476Y58816905D01*
X36314095Y58721667D01*
X36028380Y59912143D02*
X36028380Y60007381D01*
X36076000Y60102620D01*
X36123619Y60150239D01*
X36218857Y60197858D01*
X36409333Y60245477D01*
X36647428Y60245477D01*
X36837904Y60197858D01*
X36933142Y60150239D01*
X36980761Y60102620D01*
X37028380Y60007381D01*
X37028380Y59912143D01*
X36980761Y59816905D01*
X36933142Y59769286D01*
X36837904Y59721667D01*
X36647428Y59674048D01*
X36409333Y59674048D01*
X36218857Y59721667D01*
X36123619Y59769286D01*
X36076000Y59816905D01*
X36028380Y59912143D01*
X34202666Y57864524D02*
X34202666Y58340715D01*
X34488380Y57769286D02*
X33488380Y58102620D01*
X34488380Y58435953D01*
X34488380Y59293096D02*
X34488380Y58721667D01*
X34488380Y59007381D02*
X33488380Y59007381D01*
X33631238Y58912143D01*
X33726476Y58816905D01*
X33774095Y58721667D01*
X34488380Y60245477D02*
X34488380Y59674048D01*
X34488380Y59959762D02*
X33488380Y59959762D01*
X33631238Y59864524D01*
X33726476Y59769286D01*
X33774095Y59674048D01*
X31662666Y57864524D02*
X31662666Y58340715D01*
X31948380Y57769286D02*
X30948380Y58102620D01*
X31948380Y58435953D01*
X31948380Y59293096D02*
X31948380Y58721667D01*
X31948380Y59007381D02*
X30948380Y59007381D01*
X31091238Y58912143D01*
X31186476Y58816905D01*
X31234095Y58721667D01*
X31043619Y59674048D02*
X30996000Y59721667D01*
X30948380Y59816905D01*
X30948380Y60055000D01*
X30996000Y60150239D01*
X31043619Y60197858D01*
X31138857Y60245477D01*
X31234095Y60245477D01*
X31376952Y60197858D01*
X31948380Y59626429D01*
X31948380Y60245477D01*
X29122666Y57864524D02*
X29122666Y58340715D01*
X29408380Y57769286D02*
X28408380Y58102620D01*
X29408380Y58435953D01*
X29408380Y59293096D02*
X29408380Y58721667D01*
X29408380Y59007381D02*
X28408380Y59007381D01*
X28551238Y58912143D01*
X28646476Y58816905D01*
X28694095Y58721667D01*
X28408380Y59626429D02*
X28408380Y60245477D01*
X28789333Y59912143D01*
X28789333Y60055000D01*
X28836952Y60150239D01*
X28884571Y60197858D01*
X28979809Y60245477D01*
X29217904Y60245477D01*
X29313142Y60197858D01*
X29360761Y60150239D01*
X29408380Y60055000D01*
X29408380Y59769286D01*
X29360761Y59674048D01*
X29313142Y59626429D01*
X26582666Y57864524D02*
X26582666Y58340715D01*
X26868380Y57769286D02*
X25868380Y58102620D01*
X26868380Y58435953D01*
X26868380Y59293096D02*
X26868380Y58721667D01*
X26868380Y59007381D02*
X25868380Y59007381D01*
X26011238Y58912143D01*
X26106476Y58816905D01*
X26154095Y58721667D01*
X26201714Y60150239D02*
X26868380Y60150239D01*
X25820761Y59912143D02*
X26535047Y59674048D01*
X26535047Y60293096D01*
X24042666Y57864524D02*
X24042666Y58340715D01*
X24328380Y57769286D02*
X23328380Y58102620D01*
X24328380Y58435953D01*
X24328380Y59293096D02*
X24328380Y58721667D01*
X24328380Y59007381D02*
X23328380Y59007381D01*
X23471238Y58912143D01*
X23566476Y58816905D01*
X23614095Y58721667D01*
X23328380Y60197858D02*
X23328380Y59721667D01*
X23804571Y59674048D01*
X23756952Y59721667D01*
X23709333Y59816905D01*
X23709333Y60055000D01*
X23756952Y60150239D01*
X23804571Y60197858D01*
X23899809Y60245477D01*
X24137904Y60245477D01*
X24233142Y60197858D01*
X24280761Y60150239D01*
X24328380Y60055000D01*
X24328380Y59816905D01*
X24280761Y59721667D01*
X24233142Y59674048D01*
X20836000Y58293096D02*
X20788380Y58197858D01*
X20788380Y58055000D01*
X20836000Y57912143D01*
X20931238Y57816905D01*
X21026476Y57769286D01*
X21216952Y57721667D01*
X21359809Y57721667D01*
X21550285Y57769286D01*
X21645523Y57816905D01*
X21740761Y57912143D01*
X21788380Y58055000D01*
X21788380Y58150239D01*
X21740761Y58293096D01*
X21693142Y58340715D01*
X21359809Y58340715D01*
X21359809Y58150239D01*
X21788380Y58769286D02*
X20788380Y58769286D01*
X21788380Y59340715D01*
X20788380Y59340715D01*
X21788380Y59816905D02*
X20788380Y59816905D01*
X20788380Y60055000D01*
X20836000Y60197858D01*
X20931238Y60293096D01*
X21026476Y60340715D01*
X21216952Y60388334D01*
X21359809Y60388334D01*
X21550285Y60340715D01*
X21645523Y60293096D01*
X21740761Y60197858D01*
X21788380Y60055000D01*
X21788380Y59816905D01*
X19248380Y58316905D02*
X18248380Y58316905D01*
X18248380Y58555000D01*
X18296000Y58697858D01*
X18391238Y58793096D01*
X18486476Y58840715D01*
X18676952Y58888334D01*
X18819809Y58888334D01*
X19010285Y58840715D01*
X19105523Y58793096D01*
X19200761Y58697858D01*
X19248380Y58555000D01*
X19248380Y58316905D01*
X18248380Y59507381D02*
X18248380Y59602620D01*
X18296000Y59697858D01*
X18343619Y59745477D01*
X18438857Y59793096D01*
X18629333Y59840715D01*
X18867428Y59840715D01*
X19057904Y59793096D01*
X19153142Y59745477D01*
X19200761Y59697858D01*
X19248380Y59602620D01*
X19248380Y59507381D01*
X19200761Y59412143D01*
X19153142Y59364524D01*
X19057904Y59316905D01*
X18867428Y59269286D01*
X18629333Y59269286D01*
X18438857Y59316905D01*
X18343619Y59364524D01*
X18296000Y59412143D01*
X18248380Y59507381D01*
X16708380Y58316905D02*
X15708380Y58316905D01*
X15708380Y58555000D01*
X15756000Y58697858D01*
X15851238Y58793096D01*
X15946476Y58840715D01*
X16136952Y58888334D01*
X16279809Y58888334D01*
X16470285Y58840715D01*
X16565523Y58793096D01*
X16660761Y58697858D01*
X16708380Y58555000D01*
X16708380Y58316905D01*
X16708380Y59840715D02*
X16708380Y59269286D01*
X16708380Y59555000D02*
X15708380Y59555000D01*
X15851238Y59459762D01*
X15946476Y59364524D01*
X15994095Y59269286D01*
X11247428Y57769286D02*
X11247428Y58531191D01*
X11628380Y58150239D02*
X10866476Y58150239D01*
X10628380Y59483572D02*
X10628380Y59007381D01*
X11104571Y58959762D01*
X11056952Y59007381D01*
X11009333Y59102620D01*
X11009333Y59340715D01*
X11056952Y59435953D01*
X11104571Y59483572D01*
X11199809Y59531191D01*
X11437904Y59531191D01*
X11533142Y59483572D01*
X11580761Y59435953D01*
X11628380Y59340715D01*
X11628380Y59102620D01*
X11580761Y59007381D01*
X11533142Y58959762D01*
X10628380Y59816905D02*
X11628380Y60150239D01*
X10628380Y60483572D01*
X14168380Y58316905D02*
X13168380Y58316905D01*
X13168380Y58555000D01*
X13216000Y58697858D01*
X13311238Y58793096D01*
X13406476Y58840715D01*
X13596952Y58888334D01*
X13739809Y58888334D01*
X13930285Y58840715D01*
X14025523Y58793096D01*
X14120761Y58697858D01*
X14168380Y58555000D01*
X14168380Y58316905D01*
X13263619Y59269286D02*
X13216000Y59316905D01*
X13168380Y59412143D01*
X13168380Y59650239D01*
X13216000Y59745477D01*
X13263619Y59793096D01*
X13358857Y59840715D01*
X13454095Y59840715D01*
X13596952Y59793096D01*
X14168380Y59221667D01*
X14168380Y59840715D01*
X64270000Y49403096D02*
X64222380Y49307858D01*
X64222380Y49165000D01*
X64270000Y49022143D01*
X64365238Y48926905D01*
X64460476Y48879286D01*
X64650952Y48831667D01*
X64793809Y48831667D01*
X64984285Y48879286D01*
X65079523Y48926905D01*
X65174761Y49022143D01*
X65222380Y49165000D01*
X65222380Y49260239D01*
X65174761Y49403096D01*
X65127142Y49450715D01*
X64793809Y49450715D01*
X64793809Y49260239D01*
X65222380Y49879286D02*
X64222380Y49879286D01*
X65222380Y50450715D01*
X64222380Y50450715D01*
X65222380Y50926905D02*
X64222380Y50926905D01*
X64222380Y51165000D01*
X64270000Y51307858D01*
X64365238Y51403096D01*
X64460476Y51450715D01*
X64650952Y51498334D01*
X64793809Y51498334D01*
X64984285Y51450715D01*
X65079523Y51403096D01*
X65174761Y51307858D01*
X65222380Y51165000D01*
X65222380Y50926905D01*
X61380000Y48831667D02*
X61380000Y49879286D01*
X62682380Y49069762D02*
X61682380Y49069762D01*
X62682380Y49641191D01*
X61682380Y49641191D01*
X61380000Y49879286D02*
X61380000Y51022143D01*
X62682380Y50117381D02*
X61682380Y50117381D01*
X62396666Y50450715D01*
X61682380Y50784048D01*
X62682380Y50784048D01*
X61380000Y51022143D02*
X61380000Y51498334D01*
X62682380Y51260239D02*
X61682380Y51260239D01*
X58840000Y47746667D02*
X58840000Y48380000D01*
X59618571Y47913334D02*
X59618571Y48146667D01*
X60142380Y48246667D02*
X60142380Y47913334D01*
X59142380Y47913334D01*
X59142380Y48246667D01*
X58840000Y48380000D02*
X58840000Y49046667D01*
X59142380Y48480000D02*
X60142380Y48946667D01*
X59142380Y48946667D02*
X60142380Y48480000D01*
X58840000Y49046667D02*
X58840000Y49846667D01*
X59142380Y49146667D02*
X60142380Y49313334D01*
X59428095Y49446667D01*
X60142380Y49580000D01*
X59142380Y49746667D01*
X58840000Y49846667D02*
X58840000Y50446667D01*
X59856666Y49980000D02*
X59856666Y50313334D01*
X60142380Y49913334D02*
X59142380Y50146667D01*
X60142380Y50380000D01*
X58840000Y50446667D02*
X58840000Y50780000D01*
X60142380Y50613334D02*
X59142380Y50613334D01*
X58840000Y50780000D02*
X58840000Y51313334D01*
X59142380Y50846667D02*
X59142380Y51246667D01*
X60142380Y51046667D02*
X59142380Y51046667D01*
X56300000Y47458572D02*
X56300000Y48363334D01*
X57078571Y47696667D02*
X57078571Y48030000D01*
X57602380Y48172858D02*
X57602380Y47696667D01*
X56602380Y47696667D01*
X56602380Y48172858D01*
X56300000Y48363334D02*
X56300000Y49315715D01*
X56602380Y48506191D02*
X57602380Y49172858D01*
X56602380Y49172858D02*
X57602380Y48506191D01*
X56300000Y49315715D02*
X56300000Y49791905D01*
X57602380Y49553810D02*
X56602380Y49553810D01*
X56300000Y49791905D02*
X56300000Y50839524D01*
X57602380Y50030000D02*
X56602380Y50030000D01*
X57602380Y50601429D01*
X56602380Y50601429D01*
X56300000Y50839524D02*
X56300000Y51601429D01*
X56602380Y50934762D02*
X56602380Y51506191D01*
X57602380Y51220477D02*
X56602380Y51220477D01*
X53760000Y47934762D02*
X53760000Y48387143D01*
X54538571Y48053810D02*
X54538571Y48220477D01*
X55062380Y48291905D02*
X55062380Y48053810D01*
X54062380Y48053810D01*
X54062380Y48291905D01*
X53760000Y48387143D02*
X53760000Y48863334D01*
X54062380Y48458572D02*
X55062380Y48791905D01*
X54062380Y48791905D02*
X55062380Y48458572D01*
X53760000Y48863334D02*
X53760000Y49363334D01*
X55062380Y49268096D02*
X54586190Y49101429D01*
X55062380Y48982381D02*
X54062380Y48982381D01*
X54062380Y49172858D01*
X54110000Y49220477D01*
X54157619Y49244286D01*
X54252857Y49268096D01*
X54395714Y49268096D01*
X54490952Y49244286D01*
X54538571Y49220477D01*
X54586190Y49172858D01*
X54586190Y48982381D01*
X53760000Y49363334D02*
X53760000Y49815715D01*
X54538571Y49482381D02*
X54538571Y49649048D01*
X55062380Y49720477D02*
X55062380Y49482381D01*
X54062380Y49482381D01*
X54062380Y49720477D01*
X53760000Y49815715D02*
X53760000Y50291905D01*
X55014761Y49910953D02*
X55062380Y49982381D01*
X55062380Y50101429D01*
X55014761Y50149048D01*
X54967142Y50172858D01*
X54871904Y50196667D01*
X54776666Y50196667D01*
X54681428Y50172858D01*
X54633809Y50149048D01*
X54586190Y50101429D01*
X54538571Y50006191D01*
X54490952Y49958572D01*
X54443333Y49934762D01*
X54348095Y49910953D01*
X54252857Y49910953D01*
X54157619Y49934762D01*
X54110000Y49958572D01*
X54062380Y50006191D01*
X54062380Y50125239D01*
X54110000Y50196667D01*
X53760000Y50291905D02*
X53760000Y50744286D01*
X54538571Y50410953D02*
X54538571Y50577620D01*
X55062380Y50649048D02*
X55062380Y50410953D01*
X54062380Y50410953D01*
X54062380Y50649048D01*
X53760000Y50744286D02*
X53760000Y51125239D01*
X54062380Y50791905D02*
X54062380Y51077620D01*
X55062380Y50934762D02*
X54062380Y50934762D01*
X52522380Y48077620D02*
X52046190Y47744286D01*
X52522380Y47506191D02*
X51522380Y47506191D01*
X51522380Y47887143D01*
X51570000Y47982381D01*
X51617619Y48030000D01*
X51712857Y48077620D01*
X51855714Y48077620D01*
X51950952Y48030000D01*
X51998571Y47982381D01*
X52046190Y47887143D01*
X52046190Y47506191D01*
X51998571Y48506191D02*
X51998571Y48839524D01*
X52522380Y48982381D02*
X52522380Y48506191D01*
X51522380Y48506191D01*
X51522380Y48982381D01*
X52474761Y49363334D02*
X52522380Y49506191D01*
X52522380Y49744286D01*
X52474761Y49839524D01*
X52427142Y49887143D01*
X52331904Y49934762D01*
X52236666Y49934762D01*
X52141428Y49887143D01*
X52093809Y49839524D01*
X52046190Y49744286D01*
X51998571Y49553810D01*
X51950952Y49458572D01*
X51903333Y49410953D01*
X51808095Y49363334D01*
X51712857Y49363334D01*
X51617619Y49410953D01*
X51570000Y49458572D01*
X51522380Y49553810D01*
X51522380Y49791905D01*
X51570000Y49934762D01*
X51998571Y50363334D02*
X51998571Y50696667D01*
X52522380Y50839524D02*
X52522380Y50363334D01*
X51522380Y50363334D01*
X51522380Y50839524D01*
X51522380Y51125239D02*
X51522380Y51696667D01*
X52522380Y51410953D02*
X51522380Y51410953D01*
X49982380Y49236429D02*
X48982380Y49236429D01*
X49458571Y49712620D02*
X49458571Y50045953D01*
X49982380Y50188810D02*
X49982380Y49712620D01*
X48982380Y49712620D01*
X48982380Y50188810D01*
X48982380Y50807858D02*
X48982380Y50903096D01*
X49030000Y50998334D01*
X49077619Y51045953D01*
X49172857Y51093572D01*
X49363333Y51141191D01*
X49601428Y51141191D01*
X49791904Y51093572D01*
X49887142Y51045953D01*
X49934761Y50998334D01*
X49982380Y50903096D01*
X49982380Y50807858D01*
X49934761Y50712620D01*
X49887142Y50665000D01*
X49791904Y50617381D01*
X49601428Y50569762D01*
X49363333Y50569762D01*
X49172857Y50617381D01*
X49077619Y50665000D01*
X49030000Y50712620D01*
X48982380Y50807858D01*
X47442380Y49236429D02*
X46442380Y49236429D01*
X46918571Y49712620D02*
X46918571Y50045953D01*
X47442380Y50188810D02*
X47442380Y49712620D01*
X46442380Y49712620D01*
X46442380Y50188810D01*
X47442380Y51141191D02*
X47442380Y50569762D01*
X47442380Y50855477D02*
X46442380Y50855477D01*
X46585238Y50760239D01*
X46680476Y50665000D01*
X46728095Y50569762D01*
X43600000Y47791905D02*
X43600000Y48839524D01*
X44902380Y48030000D02*
X43902380Y48030000D01*
X44378571Y48030000D02*
X44378571Y48601429D01*
X44902380Y48601429D02*
X43902380Y48601429D01*
X43600000Y48839524D02*
X43600000Y49696667D01*
X44616666Y49030000D02*
X44616666Y49506191D01*
X44902380Y48934762D02*
X43902380Y49268096D01*
X44902380Y49601429D01*
X43600000Y49696667D02*
X43600000Y50506191D01*
X44902380Y50410953D02*
X44902380Y49934762D01*
X43902380Y49934762D01*
X43600000Y50506191D02*
X43600000Y51268096D01*
X43902380Y50601429D02*
X43902380Y51172858D01*
X44902380Y50887143D02*
X43902380Y50887143D01*
X41410000Y49403096D02*
X41362380Y49307858D01*
X41362380Y49165000D01*
X41410000Y49022143D01*
X41505238Y48926905D01*
X41600476Y48879286D01*
X41790952Y48831667D01*
X41933809Y48831667D01*
X42124285Y48879286D01*
X42219523Y48926905D01*
X42314761Y49022143D01*
X42362380Y49165000D01*
X42362380Y49260239D01*
X42314761Y49403096D01*
X42267142Y49450715D01*
X41933809Y49450715D01*
X41933809Y49260239D01*
X42362380Y49879286D02*
X41362380Y49879286D01*
X42362380Y50450715D01*
X41362380Y50450715D01*
X42362380Y50926905D02*
X41362380Y50926905D01*
X41362380Y51165000D01*
X41410000Y51307858D01*
X41505238Y51403096D01*
X41600476Y51450715D01*
X41790952Y51498334D01*
X41933809Y51498334D01*
X42124285Y51450715D01*
X42219523Y51403096D01*
X42314761Y51307858D01*
X42362380Y51165000D01*
X42362380Y50926905D01*
X38520000Y47482381D02*
X38520000Y48625239D01*
X39822380Y47720477D02*
X38822380Y47720477D01*
X39536666Y48053810D01*
X38822380Y48387143D01*
X39822380Y48387143D01*
X38520000Y48625239D02*
X38520000Y49625239D01*
X39822380Y49434762D02*
X39346190Y49101429D01*
X39822380Y48863334D02*
X38822380Y48863334D01*
X38822380Y49244286D01*
X38870000Y49339524D01*
X38917619Y49387143D01*
X39012857Y49434762D01*
X39155714Y49434762D01*
X39250952Y49387143D01*
X39298571Y49339524D01*
X39346190Y49244286D01*
X39346190Y48863334D01*
X38520000Y49625239D02*
X38520000Y50530000D01*
X39298571Y49863334D02*
X39298571Y50196667D01*
X39822380Y50339524D02*
X39822380Y49863334D01*
X38822380Y49863334D01*
X38822380Y50339524D01*
X38520000Y50530000D02*
X38520000Y51577620D01*
X39917619Y51434762D02*
X39870000Y51339524D01*
X39774761Y51244286D01*
X39631904Y51101429D01*
X39584285Y51006191D01*
X39584285Y50910953D01*
X39822380Y50958572D02*
X39774761Y50863334D01*
X39679523Y50768096D01*
X39489047Y50720477D01*
X39155714Y50720477D01*
X38965238Y50768096D01*
X38870000Y50863334D01*
X38822380Y50958572D01*
X38822380Y51149048D01*
X38870000Y51244286D01*
X38965238Y51339524D01*
X39155714Y51387143D01*
X39489047Y51387143D01*
X39679523Y51339524D01*
X39774761Y51244286D01*
X39822380Y51149048D01*
X39822380Y50958572D01*
X35980000Y47291905D02*
X35980000Y47768096D01*
X37282380Y47530000D02*
X36282380Y47530000D01*
X35980000Y47768096D02*
X35980000Y48815715D01*
X36282380Y48196667D02*
X36282380Y48387143D01*
X36330000Y48482381D01*
X36425238Y48577620D01*
X36615714Y48625239D01*
X36949047Y48625239D01*
X37139523Y48577620D01*
X37234761Y48482381D01*
X37282380Y48387143D01*
X37282380Y48196667D01*
X37234761Y48101429D01*
X37139523Y48006191D01*
X36949047Y47958572D01*
X36615714Y47958572D01*
X36425238Y48006191D01*
X36330000Y48101429D01*
X36282380Y48196667D01*
X35980000Y48815715D02*
X35980000Y49815715D01*
X37282380Y49625239D02*
X36806190Y49291905D01*
X37282380Y49053810D02*
X36282380Y49053810D01*
X36282380Y49434762D01*
X36330000Y49530000D01*
X36377619Y49577620D01*
X36472857Y49625239D01*
X36615714Y49625239D01*
X36710952Y49577620D01*
X36758571Y49530000D01*
X36806190Y49434762D01*
X36806190Y49053810D01*
X35980000Y49815715D02*
X35980000Y50720477D01*
X36758571Y50053810D02*
X36758571Y50387143D01*
X37282380Y50530000D02*
X37282380Y50053810D01*
X36282380Y50053810D01*
X36282380Y50530000D01*
X35980000Y50720477D02*
X35980000Y51768096D01*
X37377619Y51625239D02*
X37330000Y51530000D01*
X37234761Y51434762D01*
X37091904Y51291905D01*
X37044285Y51196667D01*
X37044285Y51101429D01*
X37282380Y51149048D02*
X37234761Y51053810D01*
X37139523Y50958572D01*
X36949047Y50910953D01*
X36615714Y50910953D01*
X36425238Y50958572D01*
X36330000Y51053810D01*
X36282380Y51149048D01*
X36282380Y51339524D01*
X36330000Y51434762D01*
X36425238Y51530000D01*
X36615714Y51577620D01*
X36949047Y51577620D01*
X37139523Y51530000D01*
X37234761Y51434762D01*
X37282380Y51339524D01*
X37282380Y51149048D01*
X33440000Y49165000D02*
X33440000Y50165000D01*
X34742380Y49974524D02*
X34266190Y49641191D01*
X34742380Y49403096D02*
X33742380Y49403096D01*
X33742380Y49784048D01*
X33790000Y49879286D01*
X33837619Y49926905D01*
X33932857Y49974524D01*
X34075714Y49974524D01*
X34170952Y49926905D01*
X34218571Y49879286D01*
X34266190Y49784048D01*
X34266190Y49403096D01*
X33440000Y50165000D02*
X33440000Y51165000D01*
X34742380Y50403096D02*
X33742380Y50403096D01*
X33742380Y50641191D01*
X33790000Y50784048D01*
X33885238Y50879286D01*
X33980476Y50926905D01*
X34170952Y50974524D01*
X34313809Y50974524D01*
X34504285Y50926905D01*
X34599523Y50879286D01*
X34694761Y50784048D01*
X34742380Y50641191D01*
X34742380Y50403096D01*
X30900000Y49093572D02*
X30900000Y50236429D01*
X31202380Y49236429D02*
X32202380Y49474524D01*
X31488095Y49665000D01*
X32202380Y49855477D01*
X31202380Y50093572D01*
X30900000Y50236429D02*
X30900000Y51236429D01*
X32202380Y51045953D02*
X31726190Y50712620D01*
X32202380Y50474524D02*
X31202380Y50474524D01*
X31202380Y50855477D01*
X31250000Y50950715D01*
X31297619Y50998334D01*
X31392857Y51045953D01*
X31535714Y51045953D01*
X31630952Y50998334D01*
X31678571Y50950715D01*
X31726190Y50855477D01*
X31726190Y50474524D01*
X28360000Y49117381D02*
X28360000Y50260239D01*
X29662380Y49355477D02*
X28662380Y49355477D01*
X29376666Y49688810D01*
X28662380Y50022143D01*
X29662380Y50022143D01*
X28360000Y50260239D02*
X28360000Y51212620D01*
X29662380Y51022143D02*
X29662380Y50450715D01*
X29662380Y50736429D02*
X28662380Y50736429D01*
X28805238Y50641191D01*
X28900476Y50545953D01*
X28948095Y50450715D01*
X27122380Y50165000D02*
X26122380Y50165000D01*
X26265238Y50069762D02*
X26265238Y50260239D01*
X26312857Y50403096D01*
X26408095Y50498334D01*
X26503333Y50545953D01*
X26693809Y50545953D01*
X26789047Y50498334D01*
X26884285Y50403096D01*
X26931904Y50260239D01*
X26931904Y50069762D01*
X26884285Y49926905D01*
X26789047Y49831667D01*
X26693809Y49784048D01*
X26503333Y49784048D01*
X26408095Y49831667D01*
X26312857Y49926905D01*
X26265238Y50069762D01*
X24582380Y49426905D02*
X23582380Y49426905D01*
X23582380Y49665000D01*
X23630000Y49807858D01*
X23725238Y49903096D01*
X23820476Y49950715D01*
X24010952Y49998334D01*
X24153809Y49998334D01*
X24344285Y49950715D01*
X24439523Y49903096D01*
X24534761Y49807858D01*
X24582380Y49665000D01*
X24582380Y49426905D01*
X23582380Y50331667D02*
X23582380Y50998334D01*
X24582380Y50569762D01*
X22042380Y49426905D02*
X21042380Y49426905D01*
X21042380Y49665000D01*
X21090000Y49807858D01*
X21185238Y49903096D01*
X21280476Y49950715D01*
X21470952Y49998334D01*
X21613809Y49998334D01*
X21804285Y49950715D01*
X21899523Y49903096D01*
X21994761Y49807858D01*
X22042380Y49665000D01*
X22042380Y49426905D01*
X21042380Y50855477D02*
X21042380Y50665000D01*
X21090000Y50569762D01*
X21137619Y50522143D01*
X21280476Y50426905D01*
X21470952Y50379286D01*
X21851904Y50379286D01*
X21947142Y50426905D01*
X21994761Y50474524D01*
X22042380Y50569762D01*
X22042380Y50760239D01*
X21994761Y50855477D01*
X21947142Y50903096D01*
X21851904Y50950715D01*
X21613809Y50950715D01*
X21518571Y50903096D01*
X21470952Y50855477D01*
X21423333Y50760239D01*
X21423333Y50569762D01*
X21470952Y50474524D01*
X21518571Y50426905D01*
X21613809Y50379286D01*
X19502380Y49426905D02*
X18502380Y49426905D01*
X18502380Y49665000D01*
X18550000Y49807858D01*
X18645238Y49903096D01*
X18740476Y49950715D01*
X18930952Y49998334D01*
X19073809Y49998334D01*
X19264285Y49950715D01*
X19359523Y49903096D01*
X19454761Y49807858D01*
X19502380Y49665000D01*
X19502380Y49426905D01*
X18502380Y50903096D02*
X18502380Y50426905D01*
X18978571Y50379286D01*
X18930952Y50426905D01*
X18883333Y50522143D01*
X18883333Y50760239D01*
X18930952Y50855477D01*
X18978571Y50903096D01*
X19073809Y50950715D01*
X19311904Y50950715D01*
X19407142Y50903096D01*
X19454761Y50855477D01*
X19502380Y50760239D01*
X19502380Y50522143D01*
X19454761Y50426905D01*
X19407142Y50379286D01*
X16962380Y49426905D02*
X15962380Y49426905D01*
X15962380Y49665000D01*
X16010000Y49807858D01*
X16105238Y49903096D01*
X16200476Y49950715D01*
X16390952Y49998334D01*
X16533809Y49998334D01*
X16724285Y49950715D01*
X16819523Y49903096D01*
X16914761Y49807858D01*
X16962380Y49665000D01*
X16962380Y49426905D01*
X16295714Y50855477D02*
X16962380Y50855477D01*
X15914761Y50617381D02*
X16629047Y50379286D01*
X16629047Y50998334D01*
X14422380Y49426905D02*
X13422380Y49426905D01*
X13422380Y49665000D01*
X13470000Y49807858D01*
X13565238Y49903096D01*
X13660476Y49950715D01*
X13850952Y49998334D01*
X13993809Y49998334D01*
X14184285Y49950715D01*
X14279523Y49903096D01*
X14374761Y49807858D01*
X14422380Y49665000D01*
X14422380Y49426905D01*
X13422380Y50331667D02*
X13422380Y50950715D01*
X13803333Y50617381D01*
X13803333Y50760239D01*
X13850952Y50855477D01*
X13898571Y50903096D01*
X13993809Y50950715D01*
X14231904Y50950715D01*
X14327142Y50903096D01*
X14374761Y50855477D01*
X14422380Y50760239D01*
X14422380Y50474524D01*
X14374761Y50379286D01*
X14327142Y50331667D01*
X11501428Y48879286D02*
X11501428Y49641191D01*
X11882380Y49260239D02*
X11120476Y49260239D01*
X10882380Y50593572D02*
X10882380Y50117381D01*
X11358571Y50069762D01*
X11310952Y50117381D01*
X11263333Y50212620D01*
X11263333Y50450715D01*
X11310952Y50545953D01*
X11358571Y50593572D01*
X11453809Y50641191D01*
X11691904Y50641191D01*
X11787142Y50593572D01*
X11834761Y50545953D01*
X11882380Y50450715D01*
X11882380Y50212620D01*
X11834761Y50117381D01*
X11787142Y50069762D01*
X10882380Y50926905D02*
X11882380Y51260239D01*
X10882380Y51593572D01*
D11*
X38214285Y35142858D02*
X38214285Y38142858D01*
X39214285Y36000000D01*
X40214285Y38142858D01*
X40214285Y35142858D01*
X41357142Y38142858D02*
X43357142Y38142858D01*
X41357142Y35142858D01*
X43357142Y35142858D01*
X44500000Y36285715D02*
X46785714Y36285715D01*
X48071428Y37857143D02*
X48214285Y38000000D01*
X48500000Y38142858D01*
X49214285Y38142858D01*
X49500000Y38000000D01*
X49642857Y37857143D01*
X49785714Y37571429D01*
X49785714Y37285715D01*
X49642857Y36857143D01*
X47928571Y35142858D01*
X49785714Y35142858D01*
X51642857Y38142858D02*
X51928571Y38142858D01*
X52214285Y38000000D01*
X52357142Y37857143D01*
X52500000Y37571429D01*
X52642857Y37000000D01*
X52642857Y36285715D01*
X52500000Y35714286D01*
X52357142Y35428572D01*
X52214285Y35285715D01*
X51928571Y35142858D01*
X51642857Y35142858D01*
X51357142Y35285715D01*
X51214285Y35428572D01*
X51071428Y35714286D01*
X50928571Y36285715D01*
X50928571Y37000000D01*
X51071428Y37571429D01*
X51214285Y37857143D01*
X51357142Y38000000D01*
X51642857Y38142858D01*
X54500000Y38142858D02*
X54785714Y38142858D01*
X55071428Y38000000D01*
X55214285Y37857143D01*
X55357142Y37571429D01*
X55500000Y37000000D01*
X55500000Y36285715D01*
X55357142Y35714286D01*
X55214285Y35428572D01*
X55071428Y35285715D01*
X54785714Y35142858D01*
X54500000Y35142858D01*
X54214285Y35285715D01*
X54071428Y35428572D01*
X53928571Y35714286D01*
X53785714Y36285715D01*
X53785714Y37000000D01*
X53928571Y37571429D01*
X54071428Y37857143D01*
X54214285Y38000000D01*
X54500000Y38142858D01*
X57357142Y38142858D02*
X57642857Y38142858D01*
X57928571Y38000000D01*
X58071428Y37857143D01*
X58214285Y37571429D01*
X58357142Y37000000D01*
X58357142Y36285715D01*
X58214285Y35714286D01*
X58071428Y35428572D01*
X57928571Y35285715D01*
X57642857Y35142858D01*
X57357142Y35142858D01*
X57071428Y35285715D01*
X56928571Y35428572D01*
X56785714Y35714286D01*
X56642857Y36285715D01*
X56642857Y37000000D01*
X56785714Y37571429D01*
X56928571Y37857143D01*
X57071428Y38000000D01*
X57357142Y38142858D01*
X61928571Y36714286D02*
X62928571Y36714286D01*
X63357142Y35142858D02*
X61928571Y35142858D01*
X61928571Y38142858D01*
X63357142Y38142858D01*
X64357142Y38142858D02*
X66357142Y35142858D01*
X66357142Y38142858D02*
X64357142Y35142858D01*
X67071428Y38142858D02*
X68785714Y38142858D01*
X67928571Y35142858D02*
X67928571Y38142858D01*
X69785714Y36285715D02*
X72071428Y36285715D01*
X74500000Y36714286D02*
X74928571Y36571429D01*
X75071428Y36428572D01*
X75214285Y36142858D01*
X75214285Y35714286D01*
X75071428Y35428572D01*
X74928571Y35285715D01*
X74642857Y35142858D01*
X73500000Y35142858D01*
X73500000Y38142858D01*
X74500000Y38142858D01*
X74785714Y38000000D01*
X74928571Y37857143D01*
X75071428Y37571429D01*
X75071428Y37285715D01*
X74928571Y37000000D01*
X74785714Y36857143D01*
X74500000Y36714286D01*
X73500000Y36714286D01*
X77071428Y38142858D02*
X77642857Y38142858D01*
X77928571Y38000000D01*
X78214285Y37714286D01*
X78357142Y37142858D01*
X78357142Y36142858D01*
X78214285Y35571429D01*
X77928571Y35285715D01*
X77642857Y35142858D01*
X77071428Y35142858D01*
X76785714Y35285715D01*
X76500000Y35571429D01*
X76357142Y36142858D01*
X76357142Y37142858D01*
X76500000Y37714286D01*
X76785714Y38000000D01*
X77071428Y38142858D01*
X79500000Y36000000D02*
X80928571Y36000000D01*
X79214285Y35142858D02*
X80214285Y38142858D01*
X81214285Y35142858D01*
X83928571Y35142858D02*
X82928571Y36571429D01*
X82214285Y35142858D02*
X82214285Y38142858D01*
X83357142Y38142858D01*
X83642857Y38000000D01*
X83785714Y37857143D01*
X83928571Y37571429D01*
X83928571Y37142858D01*
X83785714Y36857143D01*
X83642857Y36714286D01*
X83357142Y36571429D01*
X82214285Y36571429D01*
X85214285Y35142858D02*
X85214285Y38142858D01*
X85928571Y38142858D01*
X86357142Y38000000D01*
X86642857Y37714286D01*
X86785714Y37428572D01*
X86928571Y36857143D01*
X86928571Y36428572D01*
X86785714Y35857143D01*
X86642857Y35571429D01*
X86357142Y35285715D01*
X85928571Y35142858D01*
X85214285Y35142858D01*
D12*
X65846000Y52010000D02*
X65846000Y57210000D01*
X12446000Y52010000D02*
X65846000Y52010000D01*
X9846000Y57210000D02*
X65846000Y57210000D01*
X12446000Y52010000D02*
X12446000Y54610000D01*
X12446000Y54610000D02*
X9846000Y54610000D01*
X9846000Y54610000D02*
X9846000Y57210000D01*
X11176000Y52010000D02*
X9846000Y52010000D01*
X9846000Y52010000D02*
X9846000Y53340000D01*
X15070000Y23435000D02*
X15070000Y24485000D01*
X14020000Y24485000D02*
X15070000Y24485000D01*
X8970000Y15085000D02*
X170000Y15085000D01*
X170000Y15085000D02*
X170000Y24285000D01*
X14870000Y17785000D02*
X14870000Y15085000D01*
X14870000Y15085000D02*
X12970000Y15085000D01*
X170000Y24285000D02*
X14870000Y24285000D01*
X14870000Y24285000D02*
X14870000Y21685000D01*
X3750000Y32960000D02*
X6410000Y32960000D01*
X3750000Y38100000D02*
X3750000Y32960000D01*
X6410000Y38100000D02*
X6410000Y32960000D01*
X3750000Y38100000D02*
X6410000Y38100000D01*
X3750000Y39370000D02*
X3750000Y40700000D01*
X3750000Y40700000D02*
X5080000Y40700000D01*
D13*
X7166666Y54822620D02*
X7166666Y54108334D01*
X7119047Y53965477D01*
X7023809Y53870239D01*
X6880952Y53822620D01*
X6785714Y53822620D01*
X7595238Y54727381D02*
X7642857Y54775000D01*
X7738095Y54822620D01*
X7976190Y54822620D01*
X8071428Y54775000D01*
X8119047Y54727381D01*
X8166666Y54632143D01*
X8166666Y54536905D01*
X8119047Y54394048D01*
X7547619Y53822620D01*
X8166666Y53822620D01*
X5186666Y14482620D02*
X5186666Y13768334D01*
X5139047Y13625477D01*
X5043809Y13530239D01*
X4900952Y13482620D01*
X4805714Y13482620D01*
X6091428Y14149286D02*
X6091428Y13482620D01*
X5853333Y14530239D02*
X5615238Y13815953D01*
X6234285Y13815953D01*
X2953095Y27217620D02*
X2953095Y26503334D01*
X2905476Y26360477D01*
X2810238Y26265239D01*
X2667380Y26217620D01*
X2572142Y26217620D01*
X3857857Y26217620D02*
X3857857Y26741429D01*
X3810238Y26836667D01*
X3715000Y26884286D01*
X3524523Y26884286D01*
X3429285Y26836667D01*
X3857857Y26265239D02*
X3762619Y26217620D01*
X3524523Y26217620D01*
X3429285Y26265239D01*
X3381666Y26360477D01*
X3381666Y26455715D01*
X3429285Y26550953D01*
X3524523Y26598572D01*
X3762619Y26598572D01*
X3857857Y26646191D01*
X4762619Y26265239D02*
X4667380Y26217620D01*
X4476904Y26217620D01*
X4381666Y26265239D01*
X4334047Y26312858D01*
X4286428Y26408096D01*
X4286428Y26693810D01*
X4334047Y26789048D01*
X4381666Y26836667D01*
X4476904Y26884286D01*
X4667380Y26884286D01*
X4762619Y26836667D01*
X5191190Y26217620D02*
X5191190Y27217620D01*
X5286428Y26598572D02*
X5572142Y26217620D01*
X5572142Y26884286D02*
X5191190Y26503334D01*
X6000714Y26598572D02*
X6762619Y26598572D01*
X7238809Y26217620D02*
X7238809Y27217620D01*
X7476904Y27217620D01*
X7619761Y27170000D01*
X7715000Y27074762D01*
X7762619Y26979524D01*
X7810238Y26789048D01*
X7810238Y26646191D01*
X7762619Y26455715D01*
X7715000Y26360477D01*
X7619761Y26265239D01*
X7476904Y26217620D01*
X7238809Y26217620D01*
X8810238Y26312858D02*
X8762619Y26265239D01*
X8619761Y26217620D01*
X8524523Y26217620D01*
X8381666Y26265239D01*
X8286428Y26360477D01*
X8238809Y26455715D01*
X8191190Y26646191D01*
X8191190Y26789048D01*
X8238809Y26979524D01*
X8286428Y27074762D01*
X8381666Y27170000D01*
X8524523Y27217620D01*
X8619761Y27217620D01*
X8762619Y27170000D01*
X8810238Y27122381D01*
X77751666Y6413620D02*
X77751666Y5699334D01*
X77704047Y5556477D01*
X77608809Y5461239D01*
X77465952Y5413620D01*
X77370714Y5413620D01*
X78704047Y6413620D02*
X78227857Y6413620D01*
X78180238Y5937429D01*
X78227857Y5985048D01*
X78323095Y6032667D01*
X78561190Y6032667D01*
X78656428Y5985048D01*
X78704047Y5937429D01*
X78751666Y5842191D01*
X78751666Y5604096D01*
X78704047Y5508858D01*
X78656428Y5461239D01*
X78561190Y5413620D01*
X78323095Y5413620D01*
X78227857Y5461239D01*
X78180238Y5508858D01*
X4318095Y41295239D02*
X4460952Y41247620D01*
X4699047Y41247620D01*
X4794285Y41295239D01*
X4841904Y41342858D01*
X4889523Y41438096D01*
X4889523Y41533334D01*
X4841904Y41628572D01*
X4794285Y41676191D01*
X4699047Y41723810D01*
X4508571Y41771429D01*
X4413333Y41819048D01*
X4365714Y41866667D01*
X4318095Y41961905D01*
X4318095Y42057143D01*
X4365714Y42152381D01*
X4413333Y42200000D01*
X4508571Y42247620D01*
X4746666Y42247620D01*
X4889523Y42200000D01*
X5841904Y41247620D02*
X5270476Y41247620D01*
X5556190Y41247620D02*
X5556190Y42247620D01*
X5460952Y42104762D01*
X5365714Y42009524D01*
X5270476Y41961905D01*
X1992380Y33687143D02*
X1992380Y33877620D01*
X2040000Y33972858D01*
X2135238Y34068096D01*
X2325714Y34115715D01*
X2659047Y34115715D01*
X2849523Y34068096D01*
X2944761Y33972858D01*
X2992380Y33877620D01*
X2992380Y33687143D01*
X2944761Y33591905D01*
X2849523Y33496667D01*
X2659047Y33449048D01*
X2325714Y33449048D01*
X2135238Y33496667D01*
X2040000Y33591905D01*
X1992380Y33687143D01*
X2992380Y34544286D02*
X1992380Y34544286D01*
X2992380Y35115715D01*
X1992380Y35115715D01*
X1992380Y38068096D02*
X1992380Y38258572D01*
X2040000Y38353810D01*
X2135238Y38449048D01*
X2325714Y38496667D01*
X2659047Y38496667D01*
X2849523Y38449048D01*
X2944761Y38353810D01*
X2992380Y38258572D01*
X2992380Y38068096D01*
X2944761Y37972858D01*
X2849523Y37877620D01*
X2659047Y37830000D01*
X2325714Y37830000D01*
X2135238Y37877620D01*
X2040000Y37972858D01*
X1992380Y38068096D01*
X2468571Y39258572D02*
X2468571Y38925239D01*
X2992380Y38925239D02*
X1992380Y38925239D01*
X1992380Y39401429D01*
X2468571Y40115715D02*
X2468571Y39782381D01*
X2992380Y39782381D02*
X1992380Y39782381D01*
X1992380Y40258572D01*
M02*
