G04 #@! TF.GenerationSoftware,KiCad,Pcbnew,(5.1.9)-1*
G04 #@! TF.CreationDate,2022-05-23T16:02:47+09:00*
G04 #@! TF.ProjectId,mz-2000,6d7a2d32-3030-4302-9e6b-696361645f70,rev?*
G04 #@! TF.SameCoordinates,PX2faf080PY93d1cc0*
G04 #@! TF.FileFunction,Copper,L2,Bot*
G04 #@! TF.FilePolarity,Positive*
%FSLAX46Y46*%
G04 Gerber Fmt 4.6, Leading zero omitted, Abs format (unit mm)*
G04 Created by KiCad (PCBNEW (5.1.9)-1) date 2022-05-23 16:02:47*
%MOMM*%
%LPD*%
G01*
G04 APERTURE LIST*
G04 #@! TA.AperFunction,ConnectorPad*
%ADD10R,1.780000X10.000000*%
G04 #@! TD*
G04 #@! TA.AperFunction,ComponentPad*
%ADD11O,1.700000X1.700000*%
G04 #@! TD*
G04 #@! TA.AperFunction,ComponentPad*
%ADD12R,1.700000X1.700000*%
G04 #@! TD*
G04 #@! TA.AperFunction,ComponentPad*
%ADD13R,3.500000X3.500000*%
G04 #@! TD*
G04 #@! TA.AperFunction,ViaPad*
%ADD14C,0.500000*%
G04 #@! TD*
G04 #@! TA.AperFunction,Conductor*
%ADD15C,0.400000*%
G04 #@! TD*
G04 #@! TA.AperFunction,Conductor*
%ADD16C,0.200000*%
G04 #@! TD*
G04 #@! TA.AperFunction,Conductor*
%ADD17C,0.254000*%
G04 #@! TD*
G04 #@! TA.AperFunction,Conductor*
%ADD18C,0.100000*%
G04 #@! TD*
G04 APERTURE END LIST*
D10*
X11176000Y94270000D03*
X13716000Y94270000D03*
X16256000Y94270000D03*
X18796000Y94270000D03*
X21336000Y94270000D03*
X23876000Y94270000D03*
X26416000Y94270000D03*
X28956000Y94270000D03*
X31496000Y94270000D03*
X34036000Y94270000D03*
X36576000Y94270000D03*
X39116000Y94270000D03*
X41656000Y94270000D03*
X44196000Y94270000D03*
X46736000Y94270000D03*
X49276000Y94270000D03*
X51816000Y94270000D03*
X54356000Y94270000D03*
X56896000Y94270000D03*
X59436000Y94270000D03*
X61976000Y94270000D03*
X64516000Y94270000D03*
D11*
X64516000Y55880000D03*
X64516000Y53340000D03*
X61976000Y55880000D03*
X61976000Y53340000D03*
X59436000Y55880000D03*
X59436000Y53340000D03*
X56896000Y55880000D03*
X56896000Y53340000D03*
X54356000Y55880000D03*
X54356000Y53340000D03*
X51816000Y55880000D03*
X51816000Y53340000D03*
X49276000Y55880000D03*
X49276000Y53340000D03*
X46736000Y55880000D03*
X46736000Y53340000D03*
X44196000Y55880000D03*
X44196000Y53340000D03*
X41656000Y55880000D03*
X41656000Y53340000D03*
X39116000Y55880000D03*
X39116000Y53340000D03*
X36576000Y55880000D03*
X36576000Y53340000D03*
X34036000Y55880000D03*
X34036000Y53340000D03*
X31496000Y55880000D03*
X31496000Y53340000D03*
X28956000Y55880000D03*
X28956000Y53340000D03*
X26416000Y55880000D03*
X26416000Y53340000D03*
X23876000Y55880000D03*
X23876000Y53340000D03*
X21336000Y55880000D03*
X21336000Y53340000D03*
X18796000Y55880000D03*
X18796000Y53340000D03*
X16256000Y55880000D03*
X16256000Y53340000D03*
X13716000Y55880000D03*
X13716000Y53340000D03*
X11176000Y55880000D03*
D12*
X11176000Y53340000D03*
D13*
X13970000Y19685000D03*
G04 #@! TA.AperFunction,ComponentPad*
G36*
G01*
X6470000Y18685000D02*
X6470000Y20685000D01*
G75*
G02*
X7220000Y21435000I750000J0D01*
G01*
X8720000Y21435000D01*
G75*
G02*
X9470000Y20685000I0J-750000D01*
G01*
X9470000Y18685000D01*
G75*
G02*
X8720000Y17935000I-750000J0D01*
G01*
X7220000Y17935000D01*
G75*
G02*
X6470000Y18685000I0J750000D01*
G01*
G37*
G04 #@! TD.AperFunction*
G04 #@! TA.AperFunction,ComponentPad*
G36*
G01*
X9220000Y14110000D02*
X9220000Y15860000D01*
G75*
G02*
X10095000Y16735000I875000J0D01*
G01*
X11845000Y16735000D01*
G75*
G02*
X12720000Y15860000I0J-875000D01*
G01*
X12720000Y14110000D01*
G75*
G02*
X11845000Y13235000I-875000J0D01*
G01*
X10095000Y13235000D01*
G75*
G02*
X9220000Y14110000I0J875000D01*
G01*
G37*
G04 #@! TD.AperFunction*
D12*
X74910000Y4596000D03*
D11*
X74910000Y7136000D03*
X72370000Y4596000D03*
X72370000Y7136000D03*
X69830000Y4596000D03*
X69830000Y7136000D03*
X67290000Y4596000D03*
X67290000Y7136000D03*
X64750000Y4596000D03*
X64750000Y7136000D03*
X62210000Y4596000D03*
X62210000Y7136000D03*
X59670000Y4596000D03*
X59670000Y7136000D03*
X57130000Y4596000D03*
X57130000Y7136000D03*
X54590000Y4596000D03*
X54590000Y7136000D03*
X52050000Y4596000D03*
X52050000Y7136000D03*
X49510000Y4596000D03*
X49510000Y7136000D03*
X46970000Y4596000D03*
X46970000Y7136000D03*
X44430000Y4596000D03*
X44430000Y7136000D03*
X41890000Y4596000D03*
X41890000Y7136000D03*
X39350000Y4596000D03*
X39350000Y7136000D03*
X36810000Y4596000D03*
X36810000Y7136000D03*
X34270000Y4596000D03*
X34270000Y7136000D03*
X31730000Y4596000D03*
X31730000Y7136000D03*
X29190000Y4596000D03*
X29190000Y7136000D03*
X26650000Y4596000D03*
X26650000Y7136000D03*
X24110000Y4596000D03*
X24110000Y7136000D03*
X21570000Y4596000D03*
X21570000Y7136000D03*
D12*
X5080000Y39370000D03*
D11*
X5080000Y36830000D03*
X5080000Y34290000D03*
D14*
X11176000Y87376000D03*
X64516000Y87376000D03*
X33347400Y8217100D03*
X63179000Y15055100D03*
X15621000Y87947500D03*
X63082100Y16261000D03*
X24653000Y41515500D03*
X30468300Y29868000D03*
X34455400Y18260900D03*
X36472500Y10372900D03*
X44196000Y18680300D03*
X42988300Y86995000D03*
X45545700Y86995000D03*
X31034200Y49872600D03*
X48977500Y87400100D03*
X51470100Y87567400D03*
X51816000Y16140300D03*
X25849800Y49316100D03*
X53962700Y87579500D03*
X32625200Y47554900D03*
X56455300Y87579500D03*
X29278000Y46574800D03*
X58947900Y87579500D03*
X29517500Y45451400D03*
X61440500Y87579500D03*
X31988100Y23268200D03*
D15*
X11176000Y94270000D02*
X11176000Y87376000D01*
D16*
X41656000Y53340000D02*
X40505700Y53340000D01*
X21336000Y55880000D02*
X21336000Y54729700D01*
X21336000Y54729700D02*
X21623700Y54729700D01*
X21623700Y54729700D02*
X22486300Y53867100D01*
X22486300Y53867100D02*
X22486300Y53087000D01*
X22486300Y53087000D02*
X23405700Y52167600D01*
X23405700Y52167600D02*
X39571600Y52167600D01*
X39571600Y52167600D02*
X40505700Y53101700D01*
X40505700Y53101700D02*
X40505700Y53340000D01*
X41656000Y53340000D02*
X42806300Y53340000D01*
X64516000Y54610000D02*
X43837900Y54610000D01*
X43837900Y54610000D02*
X42806300Y53578400D01*
X42806300Y53578400D02*
X42806300Y53340000D01*
D15*
X64516000Y54610000D02*
X64516000Y53340000D01*
X64516000Y55880000D02*
X64516000Y54610000D01*
D16*
X34845200Y7136000D02*
X34845200Y7497600D01*
X34845200Y7497600D02*
X25304100Y17038700D01*
X25304100Y17038700D02*
X10616300Y17038700D01*
X10616300Y17038700D02*
X7970000Y19685000D01*
X62210000Y5985700D02*
X67528300Y5985700D01*
X67528300Y5985700D02*
X68679700Y4834300D01*
X68679700Y4834300D02*
X68679700Y4596000D01*
X62210000Y5985700D02*
X59192200Y5985700D01*
X59192200Y5985700D02*
X58280300Y6897600D01*
X58280300Y6897600D02*
X58280300Y7136000D01*
X62210000Y7136000D02*
X62210000Y5985700D01*
X57130000Y7136000D02*
X58280300Y7136000D01*
X34845200Y7136000D02*
X35420300Y7136000D01*
X34270000Y7136000D02*
X34845200Y7136000D01*
X41890000Y7136000D02*
X40739700Y7136000D01*
X35420300Y7136000D02*
X35420300Y6848400D01*
X35420300Y6848400D02*
X36283100Y5985600D01*
X36283100Y5985600D02*
X39827600Y5985600D01*
X39827600Y5985600D02*
X40739700Y6897700D01*
X40739700Y6897700D02*
X40739700Y7136000D01*
X49510000Y5985700D02*
X55067700Y5985700D01*
X55067700Y5985700D02*
X55979700Y6897700D01*
X55979700Y6897700D02*
X55979700Y7136000D01*
X49510000Y5985700D02*
X43952200Y5985700D01*
X43952200Y5985700D02*
X43040300Y6897600D01*
X43040300Y6897600D02*
X43040300Y7136000D01*
X49510000Y7136000D02*
X49510000Y5985700D01*
X41890000Y7136000D02*
X43040300Y7136000D01*
X57130000Y7136000D02*
X55979700Y7136000D01*
X69830000Y4596000D02*
X68679700Y4596000D01*
D15*
X64516000Y94270000D02*
X64516000Y87376000D01*
X64516000Y87376000D02*
X64516000Y55880000D01*
D16*
X41656000Y85344000D02*
X41656000Y88969700D01*
X42545000Y84455000D02*
X41656000Y85344000D01*
X61595000Y84455000D02*
X42545000Y84455000D01*
X41656000Y88969700D02*
X41656000Y94270000D01*
X64516000Y87376000D02*
X61595000Y84455000D01*
X13716000Y54729700D02*
X13477600Y54729700D01*
X13477600Y54729700D02*
X12561200Y53813300D01*
X12561200Y53813300D02*
X12561200Y52832200D01*
X12561200Y52832200D02*
X23327600Y42065800D01*
X23327600Y42065800D02*
X24881000Y42065800D01*
X24881000Y42065800D02*
X32578100Y34368700D01*
X32578100Y34368700D02*
X41686600Y34368700D01*
X41686600Y34368700D02*
X68560000Y7495300D01*
X68560000Y7495300D02*
X68560000Y6717500D01*
X68560000Y6717500D02*
X69531200Y5746300D01*
X69531200Y5746300D02*
X70357100Y5746300D01*
X70357100Y5746300D02*
X71219700Y4883700D01*
X71219700Y4883700D02*
X71219700Y4596000D01*
X13716000Y55880000D02*
X13716000Y54729700D01*
X72370000Y4596000D02*
X71219700Y4596000D01*
X73759700Y7136000D02*
X73759700Y7423600D01*
X73759700Y7423600D02*
X65472600Y15710700D01*
X65472600Y15710700D02*
X62854200Y15710700D01*
X62854200Y15710700D02*
X40452800Y38112100D01*
X40452800Y38112100D02*
X32384400Y38112100D01*
X32384400Y38112100D02*
X17526000Y52970500D01*
X17526000Y52970500D02*
X17526000Y53698000D01*
X17526000Y53698000D02*
X16494300Y54729700D01*
X16494300Y54729700D02*
X16256000Y54729700D01*
X16256000Y55880000D02*
X16256000Y54729700D01*
X74910000Y7136000D02*
X73759700Y7136000D01*
X74910000Y5746300D02*
X75197600Y5746300D01*
X75197600Y5746300D02*
X76084000Y6632700D01*
X76084000Y6632700D02*
X76084000Y7607000D01*
X76084000Y7607000D02*
X39854400Y43836600D01*
X39854400Y43836600D02*
X29194000Y43836600D01*
X29194000Y43836600D02*
X20066000Y52964600D01*
X20066000Y52964600D02*
X20066000Y53698000D01*
X20066000Y53698000D02*
X19034300Y54729700D01*
X19034300Y54729700D02*
X18796000Y54729700D01*
X18796000Y55880000D02*
X18796000Y54729700D01*
X74910000Y4596000D02*
X74910000Y5746300D01*
X34270000Y4596000D02*
X34270000Y5746300D01*
X34270000Y5746300D02*
X33982400Y5746300D01*
X33982400Y5746300D02*
X33119600Y6609100D01*
X33119600Y6609100D02*
X33119600Y7989300D01*
X33119600Y7989300D02*
X33347400Y8217100D01*
X14866300Y53340000D02*
X14866300Y53101600D01*
X14866300Y53101600D02*
X32329800Y35638100D01*
X32329800Y35638100D02*
X41162900Y35638100D01*
X41162900Y35638100D02*
X62496600Y14304400D01*
X62496600Y14304400D02*
X64338900Y14304400D01*
X64338900Y14304400D02*
X71219700Y7423600D01*
X71219700Y7423600D02*
X71219700Y7136000D01*
X13716000Y94270000D02*
X13716000Y88969700D01*
X14866300Y53340000D02*
X14866300Y87819400D01*
X14866300Y87819400D02*
X13716000Y88969700D01*
X13716000Y53340000D02*
X14866300Y53340000D01*
X72370000Y7136000D02*
X71219700Y7136000D01*
X63179000Y15055100D02*
X62943600Y15055100D01*
X62943600Y15055100D02*
X41960200Y36038500D01*
X41960200Y36038500D02*
X33557500Y36038500D01*
X33557500Y36038500D02*
X16256000Y53340000D01*
X16256000Y88582500D02*
X15621000Y87947500D01*
X16256000Y94270000D02*
X16256000Y88582500D01*
X63082100Y16261000D02*
X40830600Y38512500D01*
X40830600Y38512500D02*
X33939700Y38512500D01*
X33939700Y38512500D02*
X19371200Y53081000D01*
X19371200Y53081000D02*
X19371200Y53340000D01*
X18796000Y94270000D02*
X18796000Y88969700D01*
X19371200Y53340000D02*
X17605700Y55105500D01*
X17605700Y55105500D02*
X17605700Y87779400D01*
X17605700Y87779400D02*
X18796000Y88969700D01*
X18796000Y53340000D02*
X19371200Y53340000D01*
X21336000Y53340000D02*
X21336000Y52854700D01*
X21336000Y52854700D02*
X29486300Y44704400D01*
X29486300Y44704400D02*
X39552900Y44704400D01*
X39552900Y44704400D02*
X76484400Y7772900D01*
X76484400Y7772900D02*
X76484400Y3982900D01*
X76484400Y3982900D02*
X75947100Y3445600D01*
X75947100Y3445600D02*
X66763100Y3445600D01*
X66763100Y3445600D02*
X65900300Y4308400D01*
X65900300Y4308400D02*
X65900300Y4596000D01*
X21336000Y53340000D02*
X20145700Y54530300D01*
X20145700Y54530300D02*
X20145700Y87779400D01*
X20145700Y87779400D02*
X21336000Y88969700D01*
X21336000Y94270000D02*
X21336000Y88969700D01*
X64750000Y4596000D02*
X65900300Y4596000D01*
X64750000Y7136000D02*
X63599700Y7136000D01*
X63599700Y7136000D02*
X63599700Y7423600D01*
X63599700Y7423600D02*
X38182700Y32840600D01*
X38182700Y32840600D02*
X33327900Y32840600D01*
X33327900Y32840600D02*
X24653000Y41515500D01*
X23876000Y94270000D02*
X23876000Y88969700D01*
X23876000Y53340000D02*
X23876000Y54490300D01*
X23876000Y54490300D02*
X24163600Y54490300D01*
X24163600Y54490300D02*
X25056900Y55383600D01*
X25056900Y55383600D02*
X25056900Y87788800D01*
X25056900Y87788800D02*
X23876000Y88969700D01*
X26416000Y94270000D02*
X26416000Y88969700D01*
X26416000Y53340000D02*
X26416000Y54490300D01*
X26416000Y54490300D02*
X26703600Y54490300D01*
X26703600Y54490300D02*
X27596900Y55383600D01*
X27596900Y55383600D02*
X27596900Y87788800D01*
X27596900Y87788800D02*
X26416000Y88969700D01*
X52050000Y8286300D02*
X30468300Y29868000D01*
X52050000Y7136000D02*
X52050000Y8286300D01*
X28956000Y94270000D02*
X28956000Y88969700D01*
X28956000Y53340000D02*
X28956000Y54490300D01*
X28956000Y54490300D02*
X29243600Y54490300D01*
X29243600Y54490300D02*
X30124200Y55370900D01*
X30124200Y55370900D02*
X30124200Y87801500D01*
X30124200Y87801500D02*
X28956000Y88969700D01*
X34036000Y94270000D02*
X34036000Y88969700D01*
X34036000Y53340000D02*
X34036000Y54490300D01*
X34036000Y54490300D02*
X34323600Y54490300D01*
X34323600Y54490300D02*
X35216900Y55383600D01*
X35216900Y55383600D02*
X35216900Y87788800D01*
X35216900Y87788800D02*
X34036000Y88969700D01*
X44430000Y8286300D02*
X34455400Y18260900D01*
X44430000Y7136000D02*
X44430000Y8286300D01*
X39350000Y7136000D02*
X39350000Y8286300D01*
X39350000Y8286300D02*
X38559100Y8286300D01*
X38559100Y8286300D02*
X36472500Y10372900D01*
X36576000Y94270000D02*
X36576000Y88969700D01*
X36576000Y53340000D02*
X36576000Y54490300D01*
X36576000Y54490300D02*
X36863600Y54490300D01*
X36863600Y54490300D02*
X37750300Y55377000D01*
X37750300Y55377000D02*
X37750300Y87795400D01*
X37750300Y87795400D02*
X36576000Y88969700D01*
X39116000Y94270000D02*
X39116000Y88969700D01*
X39116000Y53340000D02*
X39116000Y54490300D01*
X39116000Y54490300D02*
X39403600Y54490300D01*
X39403600Y54490300D02*
X40296900Y55383600D01*
X40296900Y55383600D02*
X40296900Y87788800D01*
X40296900Y87788800D02*
X39116000Y88969700D01*
X54590000Y8286300D02*
X44196000Y18680300D01*
X54590000Y7136000D02*
X54590000Y8286300D01*
X44196000Y88202700D02*
X42988300Y86995000D01*
X44196000Y94270000D02*
X44196000Y88202700D01*
X46736000Y88185300D02*
X45545700Y86995000D01*
X46736000Y94270000D02*
X46736000Y88185300D01*
X48125700Y53340000D02*
X48125700Y53052400D01*
X48125700Y53052400D02*
X44945900Y49872600D01*
X44945900Y49872600D02*
X31034200Y49872600D01*
X49276000Y53340000D02*
X48125700Y53340000D01*
X49276000Y94270000D02*
X49276000Y88969700D01*
X48977500Y87400100D02*
X48977500Y88671200D01*
X48977500Y88671200D02*
X49276000Y88969700D01*
X51816000Y94270000D02*
X51816000Y88969700D01*
X51470100Y87567400D02*
X51470100Y88623800D01*
X51470100Y88623800D02*
X51816000Y88969700D01*
X59670000Y8286300D02*
X51816000Y16140300D01*
X59670000Y7136000D02*
X59670000Y8286300D01*
X53205700Y53340000D02*
X53205700Y53102100D01*
X53205700Y53102100D02*
X49419700Y49316100D01*
X49419700Y49316100D02*
X25849800Y49316100D01*
X54356000Y53340000D02*
X53205700Y53340000D01*
X54356000Y94270000D02*
X54356000Y88969700D01*
X53962700Y87579500D02*
X53962700Y88576400D01*
X53962700Y88576400D02*
X54356000Y88969700D01*
X56896000Y53340000D02*
X55745700Y53340000D01*
X32625200Y47554900D02*
X50198900Y47554900D01*
X50198900Y47554900D02*
X55745700Y53101700D01*
X55745700Y53101700D02*
X55745700Y53340000D01*
X56896000Y94270000D02*
X56896000Y88969700D01*
X56455300Y87579500D02*
X56455300Y88529000D01*
X56455300Y88529000D02*
X56896000Y88969700D01*
X58285700Y53340000D02*
X58285700Y53052500D01*
X58285700Y53052500D02*
X51808000Y46574800D01*
X51808000Y46574800D02*
X29278000Y46574800D01*
X59436000Y53340000D02*
X58285700Y53340000D01*
X59436000Y94270000D02*
X59436000Y88969700D01*
X58947900Y87579500D02*
X58947900Y88481600D01*
X58947900Y88481600D02*
X59436000Y88969700D01*
X60825700Y53340000D02*
X60825700Y53101700D01*
X60825700Y53101700D02*
X53175400Y45451400D01*
X53175400Y45451400D02*
X29517500Y45451400D01*
X61976000Y53340000D02*
X60825700Y53340000D01*
X61976000Y94270000D02*
X61976000Y88969700D01*
X61440500Y87579500D02*
X61440500Y88434200D01*
X61440500Y88434200D02*
X61976000Y88969700D01*
X46970000Y8286300D02*
X31988100Y23268200D01*
X31496000Y94270000D02*
X31496000Y88969700D01*
X31496000Y53340000D02*
X31496000Y54490300D01*
X31496000Y54490300D02*
X31783600Y54490300D01*
X31783600Y54490300D02*
X32646800Y55353500D01*
X32646800Y55353500D02*
X32646800Y87818900D01*
X32646800Y87818900D02*
X31496000Y88969700D01*
X46970000Y7136000D02*
X46970000Y8286300D01*
D17*
X10341001Y87672751D02*
X10325010Y87634145D01*
X10291000Y87463165D01*
X10291000Y87288835D01*
X10325010Y87117855D01*
X10391723Y86956795D01*
X10488576Y86811845D01*
X10611845Y86688576D01*
X10756795Y86591723D01*
X10917855Y86525010D01*
X11088835Y86491000D01*
X11263165Y86491000D01*
X11434145Y86525010D01*
X11595205Y86591723D01*
X11740155Y86688576D01*
X11863424Y86811845D01*
X11960277Y86956795D01*
X12026990Y87117855D01*
X12061000Y87288835D01*
X12061000Y87463165D01*
X12026990Y87634145D01*
X12011000Y87672748D01*
X12011000Y88373000D01*
X13273254Y88373000D01*
X14131301Y87514952D01*
X14131300Y57311484D01*
X13862260Y57365000D01*
X13569740Y57365000D01*
X13282842Y57307932D01*
X13012589Y57195990D01*
X12769368Y57033475D01*
X12562525Y56826632D01*
X12446000Y56652240D01*
X12329475Y56826632D01*
X12122632Y57033475D01*
X11879411Y57195990D01*
X11609158Y57307932D01*
X11322260Y57365000D01*
X11029740Y57365000D01*
X10742842Y57307932D01*
X10472589Y57195990D01*
X10229368Y57033475D01*
X10022525Y56826632D01*
X9860010Y56583411D01*
X9748068Y56313158D01*
X9691000Y56026260D01*
X9691000Y55733740D01*
X9748068Y55446842D01*
X9860010Y55176589D01*
X10022525Y54933368D01*
X10154380Y54801513D01*
X10081820Y54779502D01*
X9971506Y54720537D01*
X9874815Y54641185D01*
X9795463Y54544494D01*
X9736498Y54434180D01*
X9700188Y54314482D01*
X9687928Y54190000D01*
X9687928Y52490000D01*
X9700188Y52365518D01*
X9736498Y52245820D01*
X9795463Y52135506D01*
X9874815Y52038815D01*
X9971506Y51959463D01*
X10081820Y51900498D01*
X10201518Y51864188D01*
X10326000Y51851928D01*
X12026000Y51851928D01*
X12150482Y51864188D01*
X12270180Y51900498D01*
X12380494Y51959463D01*
X12388182Y51965772D01*
X22782346Y41571607D01*
X22805362Y41543562D01*
X22917280Y41451713D01*
X23044967Y41383463D01*
X23183515Y41341435D01*
X23327600Y41327244D01*
X23363705Y41330800D01*
X23787401Y41330800D01*
X23802010Y41257355D01*
X23868723Y41096295D01*
X23965576Y40951345D01*
X24088845Y40828076D01*
X24233795Y40731223D01*
X24394855Y40664510D01*
X24481848Y40647206D01*
X32782646Y32346407D01*
X32805662Y32318362D01*
X32917580Y32226513D01*
X33045267Y32158263D01*
X33183815Y32116235D01*
X33291795Y32105600D01*
X33291804Y32105600D01*
X33327899Y32102045D01*
X33363994Y32105600D01*
X37878254Y32105600D01*
X61533259Y8450594D01*
X61443080Y8407641D01*
X61209731Y8233588D01*
X61014822Y8017355D01*
X60945195Y7900466D01*
X60823475Y8082632D01*
X60616632Y8289475D01*
X60391472Y8439922D01*
X60352337Y8568933D01*
X60284087Y8696620D01*
X60192238Y8808538D01*
X60164193Y8831554D01*
X52684294Y16311452D01*
X52666990Y16398445D01*
X52600277Y16559505D01*
X52503424Y16704455D01*
X52380155Y16827724D01*
X52235205Y16924577D01*
X52074145Y16991290D01*
X51903165Y17025300D01*
X51728835Y17025300D01*
X51557855Y16991290D01*
X51396795Y16924577D01*
X51251845Y16827724D01*
X51128576Y16704455D01*
X51031723Y16559505D01*
X50965010Y16398445D01*
X50931000Y16227465D01*
X50931000Y16053135D01*
X50965010Y15882155D01*
X51031723Y15721095D01*
X51128576Y15576145D01*
X51251845Y15452876D01*
X51396795Y15356023D01*
X51557855Y15289310D01*
X51644848Y15272006D01*
X58675373Y8241480D01*
X58516525Y8082632D01*
X58394805Y7900466D01*
X58325178Y8017355D01*
X58130269Y8233588D01*
X57896920Y8407641D01*
X57634099Y8532825D01*
X57486890Y8577476D01*
X57257000Y8456155D01*
X57257000Y7263000D01*
X57277000Y7263000D01*
X57277000Y7009000D01*
X57257000Y7009000D01*
X57257000Y6989000D01*
X57003000Y6989000D01*
X57003000Y7009000D01*
X56983000Y7009000D01*
X56983000Y7263000D01*
X57003000Y7263000D01*
X57003000Y8456155D01*
X56773110Y8577476D01*
X56625901Y8532825D01*
X56363080Y8407641D01*
X56129731Y8233588D01*
X55934822Y8017355D01*
X55865195Y7900466D01*
X55743475Y8082632D01*
X55536632Y8289475D01*
X55311472Y8439922D01*
X55294077Y8497265D01*
X55272337Y8568933D01*
X55204087Y8696620D01*
X55112238Y8808538D01*
X55084193Y8831554D01*
X45064294Y18851452D01*
X45046990Y18938445D01*
X44980277Y19099505D01*
X44883424Y19244455D01*
X44760155Y19367724D01*
X44615205Y19464577D01*
X44454145Y19531290D01*
X44283165Y19565300D01*
X44108835Y19565300D01*
X43937855Y19531290D01*
X43776795Y19464577D01*
X43631845Y19367724D01*
X43508576Y19244455D01*
X43411723Y19099505D01*
X43345010Y18938445D01*
X43311000Y18767465D01*
X43311000Y18593135D01*
X43345010Y18422155D01*
X43411723Y18261095D01*
X43508576Y18116145D01*
X43631845Y17992876D01*
X43776795Y17896023D01*
X43937855Y17829310D01*
X44024848Y17812006D01*
X53595373Y8241480D01*
X53436525Y8082632D01*
X53320000Y7908240D01*
X53203475Y8082632D01*
X52996632Y8289475D01*
X52771472Y8439922D01*
X52754077Y8497265D01*
X52732337Y8568933D01*
X52664087Y8696620D01*
X52572238Y8808538D01*
X52544193Y8831554D01*
X31336594Y30039152D01*
X31319290Y30126145D01*
X31252577Y30287205D01*
X31155724Y30432155D01*
X31032455Y30555424D01*
X30887505Y30652277D01*
X30726445Y30718990D01*
X30555465Y30753000D01*
X30381135Y30753000D01*
X30210155Y30718990D01*
X30049095Y30652277D01*
X29904145Y30555424D01*
X29780876Y30432155D01*
X29684023Y30287205D01*
X29617310Y30126145D01*
X29583300Y29955165D01*
X29583300Y29780835D01*
X29617310Y29609855D01*
X29684023Y29448795D01*
X29780876Y29303845D01*
X29904145Y29180576D01*
X30049095Y29083723D01*
X30210155Y29017010D01*
X30297148Y28999706D01*
X51055373Y8241480D01*
X50896525Y8082632D01*
X50774805Y7900466D01*
X50705178Y8017355D01*
X50510269Y8233588D01*
X50276920Y8407641D01*
X50014099Y8532825D01*
X49866890Y8577476D01*
X49637000Y8456155D01*
X49637000Y7263000D01*
X49657000Y7263000D01*
X49657000Y7009000D01*
X49637000Y7009000D01*
X49637000Y6989000D01*
X49383000Y6989000D01*
X49383000Y7009000D01*
X49363000Y7009000D01*
X49363000Y7263000D01*
X49383000Y7263000D01*
X49383000Y8456155D01*
X49153110Y8577476D01*
X49005901Y8532825D01*
X48743080Y8407641D01*
X48509731Y8233588D01*
X48314822Y8017355D01*
X48245195Y7900466D01*
X48123475Y8082632D01*
X47916632Y8289475D01*
X47691472Y8439922D01*
X47652337Y8568933D01*
X47584087Y8696620D01*
X47492238Y8808538D01*
X47464193Y8831554D01*
X32856394Y23439352D01*
X32839090Y23526345D01*
X32772377Y23687405D01*
X32675524Y23832355D01*
X32552255Y23955624D01*
X32407305Y24052477D01*
X32246245Y24119190D01*
X32075265Y24153200D01*
X31900935Y24153200D01*
X31729955Y24119190D01*
X31568895Y24052477D01*
X31423945Y23955624D01*
X31300676Y23832355D01*
X31203823Y23687405D01*
X31137110Y23526345D01*
X31103100Y23355365D01*
X31103100Y23181035D01*
X31137110Y23010055D01*
X31203823Y22848995D01*
X31300676Y22704045D01*
X31423945Y22580776D01*
X31568895Y22483923D01*
X31729955Y22417210D01*
X31816948Y22399906D01*
X45975373Y8241480D01*
X45816525Y8082632D01*
X45700000Y7908240D01*
X45583475Y8082632D01*
X45376632Y8289475D01*
X45151472Y8439922D01*
X45112337Y8568934D01*
X45044087Y8696620D01*
X44975253Y8780494D01*
X44952238Y8808538D01*
X44924193Y8831554D01*
X35323694Y18432052D01*
X35306390Y18519045D01*
X35239677Y18680105D01*
X35142824Y18825055D01*
X35019555Y18948324D01*
X34874605Y19045177D01*
X34713545Y19111890D01*
X34542565Y19145900D01*
X34368235Y19145900D01*
X34197255Y19111890D01*
X34036195Y19045177D01*
X33891245Y18948324D01*
X33767976Y18825055D01*
X33671123Y18680105D01*
X33604410Y18519045D01*
X33570400Y18348065D01*
X33570400Y18173735D01*
X33604410Y18002755D01*
X33671123Y17841695D01*
X33767976Y17696745D01*
X33891245Y17573476D01*
X34036195Y17476623D01*
X34197255Y17409910D01*
X34284248Y17392606D01*
X43435373Y8241480D01*
X43276525Y8082632D01*
X43154805Y7900466D01*
X43085178Y8017355D01*
X42890269Y8233588D01*
X42656920Y8407641D01*
X42394099Y8532825D01*
X42246890Y8577476D01*
X42017000Y8456155D01*
X42017000Y7263000D01*
X42037000Y7263000D01*
X42037000Y7009000D01*
X42017000Y7009000D01*
X42017000Y6989000D01*
X41763000Y6989000D01*
X41763000Y7009000D01*
X41743000Y7009000D01*
X41743000Y7263000D01*
X41763000Y7263000D01*
X41763000Y8456155D01*
X41533110Y8577476D01*
X41385901Y8532825D01*
X41123080Y8407641D01*
X40889731Y8233588D01*
X40694822Y8017355D01*
X40625195Y7900466D01*
X40503475Y8082632D01*
X40296632Y8289475D01*
X40071472Y8439922D01*
X40032337Y8568933D01*
X39964087Y8696620D01*
X39872238Y8808538D01*
X39760320Y8900387D01*
X39632633Y8968637D01*
X39494085Y9010665D01*
X39386105Y9021300D01*
X39350000Y9024856D01*
X39313895Y9021300D01*
X38863547Y9021300D01*
X37340794Y10544052D01*
X37323490Y10631045D01*
X37256777Y10792105D01*
X37159924Y10937055D01*
X37036655Y11060324D01*
X36891705Y11157177D01*
X36730645Y11223890D01*
X36559665Y11257900D01*
X36385335Y11257900D01*
X36214355Y11223890D01*
X36053295Y11157177D01*
X35908345Y11060324D01*
X35785076Y10937055D01*
X35688223Y10792105D01*
X35621510Y10631045D01*
X35587500Y10460065D01*
X35587500Y10285735D01*
X35621510Y10114755D01*
X35688223Y9953695D01*
X35785076Y9808745D01*
X35908345Y9685476D01*
X36053295Y9588623D01*
X36214355Y9521910D01*
X36301348Y9504606D01*
X37241739Y8564214D01*
X36956260Y8621000D01*
X36663740Y8621000D01*
X36376842Y8563932D01*
X36106589Y8451990D01*
X35863368Y8289475D01*
X35656525Y8082632D01*
X35534805Y7900466D01*
X35465178Y8017355D01*
X35270269Y8233588D01*
X35036920Y8407641D01*
X34774099Y8532825D01*
X34626890Y8577476D01*
X34397000Y8456155D01*
X34397000Y7263000D01*
X34417000Y7263000D01*
X34417000Y7009000D01*
X34397000Y7009000D01*
X34397000Y6989000D01*
X34143000Y6989000D01*
X34143000Y7009000D01*
X34123000Y7009000D01*
X34123000Y7263000D01*
X34143000Y7263000D01*
X34143000Y7825231D01*
X34198390Y7958955D01*
X34232400Y8129935D01*
X34232400Y8304265D01*
X34198390Y8475245D01*
X34131677Y8636305D01*
X34034824Y8781255D01*
X33911555Y8904524D01*
X33766605Y9001377D01*
X33605545Y9068090D01*
X33434565Y9102100D01*
X33260235Y9102100D01*
X33089255Y9068090D01*
X32928195Y9001377D01*
X32783245Y8904524D01*
X32659976Y8781255D01*
X32563123Y8636305D01*
X32496410Y8475245D01*
X32484936Y8417562D01*
X32433411Y8451990D01*
X32163158Y8563932D01*
X31876260Y8621000D01*
X31583740Y8621000D01*
X31296842Y8563932D01*
X31026589Y8451990D01*
X30783368Y8289475D01*
X30576525Y8082632D01*
X30460000Y7908240D01*
X30343475Y8082632D01*
X30136632Y8289475D01*
X29893411Y8451990D01*
X29623158Y8563932D01*
X29336260Y8621000D01*
X29043740Y8621000D01*
X28756842Y8563932D01*
X28486589Y8451990D01*
X28243368Y8289475D01*
X28036525Y8082632D01*
X27920000Y7908240D01*
X27803475Y8082632D01*
X27596632Y8289475D01*
X27353411Y8451990D01*
X27083158Y8563932D01*
X26796260Y8621000D01*
X26503740Y8621000D01*
X26216842Y8563932D01*
X25946589Y8451990D01*
X25703368Y8289475D01*
X25496525Y8082632D01*
X25380000Y7908240D01*
X25263475Y8082632D01*
X25056632Y8289475D01*
X24813411Y8451990D01*
X24543158Y8563932D01*
X24256260Y8621000D01*
X23963740Y8621000D01*
X23676842Y8563932D01*
X23406589Y8451990D01*
X23163368Y8289475D01*
X22956525Y8082632D01*
X22840000Y7908240D01*
X22723475Y8082632D01*
X22516632Y8289475D01*
X22273411Y8451990D01*
X22003158Y8563932D01*
X21716260Y8621000D01*
X21423740Y8621000D01*
X21136842Y8563932D01*
X20866589Y8451990D01*
X20623368Y8289475D01*
X20416525Y8082632D01*
X20254010Y7839411D01*
X20142068Y7569158D01*
X20085000Y7282260D01*
X20085000Y6989740D01*
X20142068Y6702842D01*
X20254010Y6432589D01*
X20416525Y6189368D01*
X20623368Y5982525D01*
X20797760Y5866000D01*
X20623368Y5749475D01*
X20416525Y5542632D01*
X20254010Y5299411D01*
X20142068Y5029158D01*
X20085000Y4742260D01*
X20085000Y4449740D01*
X20142068Y4162842D01*
X20254010Y3892589D01*
X20416525Y3649368D01*
X20623368Y3442525D01*
X20866589Y3280010D01*
X21136842Y3168068D01*
X21423740Y3111000D01*
X21716260Y3111000D01*
X22003158Y3168068D01*
X22273411Y3280010D01*
X22516632Y3442525D01*
X22723475Y3649368D01*
X22840000Y3823760D01*
X22956525Y3649368D01*
X23163368Y3442525D01*
X23406589Y3280010D01*
X23676842Y3168068D01*
X23963740Y3111000D01*
X24256260Y3111000D01*
X24543158Y3168068D01*
X24813411Y3280010D01*
X25056632Y3442525D01*
X25263475Y3649368D01*
X25380000Y3823760D01*
X25496525Y3649368D01*
X25703368Y3442525D01*
X25946589Y3280010D01*
X26216842Y3168068D01*
X26503740Y3111000D01*
X26796260Y3111000D01*
X27083158Y3168068D01*
X27353411Y3280010D01*
X27596632Y3442525D01*
X27803475Y3649368D01*
X27920000Y3823760D01*
X28036525Y3649368D01*
X28243368Y3442525D01*
X28486589Y3280010D01*
X28756842Y3168068D01*
X29043740Y3111000D01*
X29336260Y3111000D01*
X29623158Y3168068D01*
X29893411Y3280010D01*
X30136632Y3442525D01*
X30343475Y3649368D01*
X30460000Y3823760D01*
X30576525Y3649368D01*
X30783368Y3442525D01*
X31026589Y3280010D01*
X31296842Y3168068D01*
X31583740Y3111000D01*
X31876260Y3111000D01*
X32163158Y3168068D01*
X32433411Y3280010D01*
X32676632Y3442525D01*
X32883475Y3649368D01*
X33000000Y3823760D01*
X33116525Y3649368D01*
X33323368Y3442525D01*
X33566589Y3280010D01*
X33836842Y3168068D01*
X34123740Y3111000D01*
X34416260Y3111000D01*
X34703158Y3168068D01*
X34973411Y3280010D01*
X35216632Y3442525D01*
X35423475Y3649368D01*
X35540000Y3823760D01*
X35656525Y3649368D01*
X35863368Y3442525D01*
X36106589Y3280010D01*
X36376842Y3168068D01*
X36663740Y3111000D01*
X36956260Y3111000D01*
X37243158Y3168068D01*
X37513411Y3280010D01*
X37756632Y3442525D01*
X37963475Y3649368D01*
X38080000Y3823760D01*
X38196525Y3649368D01*
X38403368Y3442525D01*
X38646589Y3280010D01*
X38916842Y3168068D01*
X39203740Y3111000D01*
X39496260Y3111000D01*
X39783158Y3168068D01*
X40053411Y3280010D01*
X40296632Y3442525D01*
X40503475Y3649368D01*
X40620000Y3823760D01*
X40736525Y3649368D01*
X40943368Y3442525D01*
X41186589Y3280010D01*
X41456842Y3168068D01*
X41743740Y3111000D01*
X42036260Y3111000D01*
X42323158Y3168068D01*
X42593411Y3280010D01*
X42836632Y3442525D01*
X43043475Y3649368D01*
X43160000Y3823760D01*
X43276525Y3649368D01*
X43483368Y3442525D01*
X43726589Y3280010D01*
X43996842Y3168068D01*
X44283740Y3111000D01*
X44576260Y3111000D01*
X44863158Y3168068D01*
X45133411Y3280010D01*
X45376632Y3442525D01*
X45583475Y3649368D01*
X45700000Y3823760D01*
X45816525Y3649368D01*
X46023368Y3442525D01*
X46266589Y3280010D01*
X46536842Y3168068D01*
X46823740Y3111000D01*
X47116260Y3111000D01*
X47403158Y3168068D01*
X47673411Y3280010D01*
X47916632Y3442525D01*
X48123475Y3649368D01*
X48240000Y3823760D01*
X48356525Y3649368D01*
X48563368Y3442525D01*
X48806589Y3280010D01*
X49076842Y3168068D01*
X49363740Y3111000D01*
X49656260Y3111000D01*
X49943158Y3168068D01*
X50213411Y3280010D01*
X50456632Y3442525D01*
X50663475Y3649368D01*
X50780000Y3823760D01*
X50896525Y3649368D01*
X51103368Y3442525D01*
X51346589Y3280010D01*
X51616842Y3168068D01*
X51903740Y3111000D01*
X52196260Y3111000D01*
X52483158Y3168068D01*
X52753411Y3280010D01*
X52996632Y3442525D01*
X53203475Y3649368D01*
X53320000Y3823760D01*
X53436525Y3649368D01*
X53643368Y3442525D01*
X53886589Y3280010D01*
X54156842Y3168068D01*
X54443740Y3111000D01*
X54736260Y3111000D01*
X55023158Y3168068D01*
X55293411Y3280010D01*
X55536632Y3442525D01*
X55743475Y3649368D01*
X55860000Y3823760D01*
X55976525Y3649368D01*
X56183368Y3442525D01*
X56426589Y3280010D01*
X56696842Y3168068D01*
X56983740Y3111000D01*
X57276260Y3111000D01*
X57563158Y3168068D01*
X57833411Y3280010D01*
X58076632Y3442525D01*
X58283475Y3649368D01*
X58400000Y3823760D01*
X58516525Y3649368D01*
X58723368Y3442525D01*
X58966589Y3280010D01*
X59236842Y3168068D01*
X59523740Y3111000D01*
X59816260Y3111000D01*
X60103158Y3168068D01*
X60373411Y3280010D01*
X60616632Y3442525D01*
X60823475Y3649368D01*
X60940000Y3823760D01*
X61056525Y3649368D01*
X61263368Y3442525D01*
X61506589Y3280010D01*
X61776842Y3168068D01*
X62063740Y3111000D01*
X62356260Y3111000D01*
X62643158Y3168068D01*
X62913411Y3280010D01*
X63156632Y3442525D01*
X63363475Y3649368D01*
X63480000Y3823760D01*
X63596525Y3649368D01*
X63803368Y3442525D01*
X64046589Y3280010D01*
X64316842Y3168068D01*
X64603740Y3111000D01*
X64896260Y3111000D01*
X65183158Y3168068D01*
X65453411Y3280010D01*
X65696632Y3442525D01*
X65711680Y3457573D01*
X66217846Y2951407D01*
X66240862Y2923362D01*
X66352780Y2831513D01*
X66480467Y2763263D01*
X66619015Y2721235D01*
X66726995Y2710600D01*
X66727004Y2710600D01*
X66763099Y2707045D01*
X66799194Y2710600D01*
X75910995Y2710600D01*
X75947100Y2707044D01*
X75983205Y2710600D01*
X76091185Y2721235D01*
X76229733Y2763263D01*
X76357420Y2831513D01*
X76469338Y2923362D01*
X76492358Y2951412D01*
X76978592Y3437646D01*
X77006638Y3460662D01*
X77098487Y3572580D01*
X77166737Y3700267D01*
X77208765Y3838815D01*
X77219400Y3946795D01*
X77222956Y3982900D01*
X77219400Y4019005D01*
X77219400Y7736804D01*
X77222955Y7772901D01*
X77219400Y7808998D01*
X77219400Y7809005D01*
X77208765Y7916985D01*
X77166737Y8055533D01*
X77098487Y8183220D01*
X77067410Y8221087D01*
X77029653Y8267094D01*
X77029650Y8267097D01*
X77006637Y8295138D01*
X76978598Y8318149D01*
X40580346Y44716400D01*
X53139295Y44716400D01*
X53175400Y44712844D01*
X53211505Y44716400D01*
X53319485Y44727035D01*
X53458033Y44769063D01*
X53585720Y44837313D01*
X53697638Y44929162D01*
X53720659Y44957213D01*
X60989670Y52226223D01*
X61029368Y52186525D01*
X61272589Y52024010D01*
X61542842Y51912068D01*
X61829740Y51855000D01*
X62122260Y51855000D01*
X62409158Y51912068D01*
X62679411Y52024010D01*
X62922632Y52186525D01*
X63129475Y52393368D01*
X63251195Y52575534D01*
X63320822Y52458645D01*
X63515731Y52242412D01*
X63749080Y52068359D01*
X64011901Y51943175D01*
X64159110Y51898524D01*
X64389000Y52019845D01*
X64389000Y53213000D01*
X64643000Y53213000D01*
X64643000Y52019845D01*
X64872890Y51898524D01*
X65020099Y51943175D01*
X65282920Y52068359D01*
X65516269Y52242412D01*
X65711178Y52458645D01*
X65860157Y52708748D01*
X65957481Y52983109D01*
X65836814Y53213000D01*
X64643000Y53213000D01*
X64389000Y53213000D01*
X64369000Y53213000D01*
X64369000Y53467000D01*
X64389000Y53467000D01*
X64389000Y55753000D01*
X64643000Y55753000D01*
X64643000Y53467000D01*
X65836814Y53467000D01*
X65957481Y53696891D01*
X65860157Y53971252D01*
X65711178Y54221355D01*
X65516269Y54437588D01*
X65285120Y54610000D01*
X65516269Y54782412D01*
X65711178Y54998645D01*
X65860157Y55248748D01*
X65957481Y55523109D01*
X65836814Y55753000D01*
X64643000Y55753000D01*
X64389000Y55753000D01*
X64369000Y55753000D01*
X64369000Y56007000D01*
X64389000Y56007000D01*
X64389000Y57200155D01*
X64643000Y57200155D01*
X64643000Y56007000D01*
X65836814Y56007000D01*
X65957481Y56236891D01*
X65860157Y56511252D01*
X65711178Y56761355D01*
X65516269Y56977588D01*
X65282920Y57151641D01*
X65020099Y57276825D01*
X64872890Y57321476D01*
X64643000Y57200155D01*
X64389000Y57200155D01*
X64159110Y57321476D01*
X64011901Y57276825D01*
X63749080Y57151641D01*
X63515731Y56977588D01*
X63320822Y56761355D01*
X63251195Y56644466D01*
X63129475Y56826632D01*
X62922632Y57033475D01*
X62679411Y57195990D01*
X62409158Y57307932D01*
X62122260Y57365000D01*
X61829740Y57365000D01*
X61542842Y57307932D01*
X61272589Y57195990D01*
X61029368Y57033475D01*
X60822525Y56826632D01*
X60706000Y56652240D01*
X60589475Y56826632D01*
X60382632Y57033475D01*
X60139411Y57195990D01*
X59869158Y57307932D01*
X59582260Y57365000D01*
X59289740Y57365000D01*
X59002842Y57307932D01*
X58732589Y57195990D01*
X58489368Y57033475D01*
X58282525Y56826632D01*
X58166000Y56652240D01*
X58049475Y56826632D01*
X57842632Y57033475D01*
X57599411Y57195990D01*
X57329158Y57307932D01*
X57042260Y57365000D01*
X56749740Y57365000D01*
X56462842Y57307932D01*
X56192589Y57195990D01*
X55949368Y57033475D01*
X55742525Y56826632D01*
X55626000Y56652240D01*
X55509475Y56826632D01*
X55302632Y57033475D01*
X55059411Y57195990D01*
X54789158Y57307932D01*
X54502260Y57365000D01*
X54209740Y57365000D01*
X53922842Y57307932D01*
X53652589Y57195990D01*
X53409368Y57033475D01*
X53202525Y56826632D01*
X53086000Y56652240D01*
X52969475Y56826632D01*
X52762632Y57033475D01*
X52519411Y57195990D01*
X52249158Y57307932D01*
X51962260Y57365000D01*
X51669740Y57365000D01*
X51382842Y57307932D01*
X51112589Y57195990D01*
X50869368Y57033475D01*
X50662525Y56826632D01*
X50546000Y56652240D01*
X50429475Y56826632D01*
X50222632Y57033475D01*
X49979411Y57195990D01*
X49709158Y57307932D01*
X49422260Y57365000D01*
X49129740Y57365000D01*
X48842842Y57307932D01*
X48572589Y57195990D01*
X48329368Y57033475D01*
X48122525Y56826632D01*
X48006000Y56652240D01*
X47889475Y56826632D01*
X47682632Y57033475D01*
X47439411Y57195990D01*
X47169158Y57307932D01*
X46882260Y57365000D01*
X46589740Y57365000D01*
X46302842Y57307932D01*
X46032589Y57195990D01*
X45789368Y57033475D01*
X45582525Y56826632D01*
X45466000Y56652240D01*
X45349475Y56826632D01*
X45142632Y57033475D01*
X44899411Y57195990D01*
X44629158Y57307932D01*
X44342260Y57365000D01*
X44049740Y57365000D01*
X43762842Y57307932D01*
X43492589Y57195990D01*
X43249368Y57033475D01*
X43042525Y56826632D01*
X42926000Y56652240D01*
X42809475Y56826632D01*
X42602632Y57033475D01*
X42359411Y57195990D01*
X42089158Y57307932D01*
X41802260Y57365000D01*
X41509740Y57365000D01*
X41222842Y57307932D01*
X41031900Y57228842D01*
X41031900Y87752695D01*
X41035456Y87788800D01*
X41021265Y87932885D01*
X41018663Y87941464D01*
X40979237Y88071433D01*
X40910987Y88199120D01*
X40819138Y88311038D01*
X40791093Y88334054D01*
X40752147Y88373000D01*
X43326853Y88373000D01*
X42817148Y87863294D01*
X42730155Y87845990D01*
X42569095Y87779277D01*
X42424145Y87682424D01*
X42300876Y87559155D01*
X42204023Y87414205D01*
X42137310Y87253145D01*
X42103300Y87082165D01*
X42103300Y86907835D01*
X42137310Y86736855D01*
X42204023Y86575795D01*
X42300876Y86430845D01*
X42424145Y86307576D01*
X42569095Y86210723D01*
X42730155Y86144010D01*
X42901135Y86110000D01*
X43075465Y86110000D01*
X43246445Y86144010D01*
X43407505Y86210723D01*
X43552455Y86307576D01*
X43675724Y86430845D01*
X43772577Y86575795D01*
X43839290Y86736855D01*
X43856594Y86823848D01*
X44690193Y87657446D01*
X44718238Y87680462D01*
X44810087Y87792380D01*
X44824479Y87819305D01*
X44878337Y87920066D01*
X44920365Y88058615D01*
X44934556Y88202700D01*
X44931000Y88238805D01*
X44931000Y88373000D01*
X45884253Y88373000D01*
X45374548Y87863294D01*
X45287555Y87845990D01*
X45126495Y87779277D01*
X44981545Y87682424D01*
X44858276Y87559155D01*
X44761423Y87414205D01*
X44694710Y87253145D01*
X44660700Y87082165D01*
X44660700Y86907835D01*
X44694710Y86736855D01*
X44761423Y86575795D01*
X44858276Y86430845D01*
X44981545Y86307576D01*
X45126495Y86210723D01*
X45287555Y86144010D01*
X45458535Y86110000D01*
X45632865Y86110000D01*
X45803845Y86144010D01*
X45964905Y86210723D01*
X46109855Y86307576D01*
X46233124Y86430845D01*
X46329977Y86575795D01*
X46396690Y86736855D01*
X46413994Y86823848D01*
X47230193Y87640046D01*
X47258238Y87663062D01*
X47350087Y87774980D01*
X47418337Y87902667D01*
X47460365Y88041215D01*
X47471000Y88149195D01*
X47471000Y88149204D01*
X47474555Y88185299D01*
X47471000Y88221394D01*
X47471000Y88373000D01*
X48242501Y88373000D01*
X48242500Y87893053D01*
X48193223Y87819305D01*
X48126510Y87658245D01*
X48092500Y87487265D01*
X48092500Y87312935D01*
X48126510Y87141955D01*
X48193223Y86980895D01*
X48290076Y86835945D01*
X48413345Y86712676D01*
X48558295Y86615823D01*
X48719355Y86549110D01*
X48890335Y86515100D01*
X49064665Y86515100D01*
X49235645Y86549110D01*
X49396705Y86615823D01*
X49541655Y86712676D01*
X49664924Y86835945D01*
X49761777Y86980895D01*
X49828490Y87141955D01*
X49862500Y87312935D01*
X49862500Y87487265D01*
X49828490Y87658245D01*
X49761777Y87819305D01*
X49712500Y87893053D01*
X49712500Y88366754D01*
X49718746Y88373000D01*
X50735101Y88373000D01*
X50735100Y88060354D01*
X50685823Y87986605D01*
X50619110Y87825545D01*
X50585100Y87654565D01*
X50585100Y87480235D01*
X50619110Y87309255D01*
X50685823Y87148195D01*
X50782676Y87003245D01*
X50905945Y86879976D01*
X51050895Y86783123D01*
X51211955Y86716410D01*
X51382935Y86682400D01*
X51557265Y86682400D01*
X51728245Y86716410D01*
X51889305Y86783123D01*
X52034255Y86879976D01*
X52157524Y87003245D01*
X52254377Y87148195D01*
X52321090Y87309255D01*
X52355100Y87480235D01*
X52355100Y87654565D01*
X52321090Y87825545D01*
X52254377Y87986605D01*
X52205100Y88060353D01*
X52205100Y88319354D01*
X52258746Y88373000D01*
X53227701Y88373000D01*
X53227700Y88072454D01*
X53178423Y87998705D01*
X53111710Y87837645D01*
X53077700Y87666665D01*
X53077700Y87492335D01*
X53111710Y87321355D01*
X53178423Y87160295D01*
X53275276Y87015345D01*
X53398545Y86892076D01*
X53543495Y86795223D01*
X53704555Y86728510D01*
X53875535Y86694500D01*
X54049865Y86694500D01*
X54220845Y86728510D01*
X54381905Y86795223D01*
X54526855Y86892076D01*
X54650124Y87015345D01*
X54746977Y87160295D01*
X54813690Y87321355D01*
X54847700Y87492335D01*
X54847700Y87666665D01*
X54813690Y87837645D01*
X54746977Y87998705D01*
X54697700Y88072453D01*
X54697700Y88271954D01*
X54798746Y88373000D01*
X55720301Y88373000D01*
X55720301Y88072454D01*
X55671023Y87998705D01*
X55604310Y87837645D01*
X55570300Y87666665D01*
X55570300Y87492335D01*
X55604310Y87321355D01*
X55671023Y87160295D01*
X55767876Y87015345D01*
X55891145Y86892076D01*
X56036095Y86795223D01*
X56197155Y86728510D01*
X56368135Y86694500D01*
X56542465Y86694500D01*
X56713445Y86728510D01*
X56874505Y86795223D01*
X57019455Y86892076D01*
X57142724Y87015345D01*
X57239577Y87160295D01*
X57306290Y87321355D01*
X57340300Y87492335D01*
X57340300Y87666665D01*
X57306290Y87837645D01*
X57239577Y87998705D01*
X57190300Y88072453D01*
X57190300Y88224554D01*
X57338746Y88373000D01*
X58212900Y88373000D01*
X58212900Y88072453D01*
X58163623Y87998705D01*
X58096910Y87837645D01*
X58062900Y87666665D01*
X58062900Y87492335D01*
X58096910Y87321355D01*
X58163623Y87160295D01*
X58260476Y87015345D01*
X58383745Y86892076D01*
X58528695Y86795223D01*
X58689755Y86728510D01*
X58860735Y86694500D01*
X59035065Y86694500D01*
X59206045Y86728510D01*
X59367105Y86795223D01*
X59512055Y86892076D01*
X59635324Y87015345D01*
X59732177Y87160295D01*
X59798890Y87321355D01*
X59832900Y87492335D01*
X59832900Y87666665D01*
X59798890Y87837645D01*
X59732177Y87998705D01*
X59682900Y88072453D01*
X59682900Y88177154D01*
X59878746Y88373000D01*
X60705500Y88373000D01*
X60705500Y88072453D01*
X60656223Y87998705D01*
X60589510Y87837645D01*
X60555500Y87666665D01*
X60555500Y87492335D01*
X60589510Y87321355D01*
X60656223Y87160295D01*
X60753076Y87015345D01*
X60876345Y86892076D01*
X61021295Y86795223D01*
X61182355Y86728510D01*
X61353335Y86694500D01*
X61527665Y86694500D01*
X61698645Y86728510D01*
X61859705Y86795223D01*
X62004655Y86892076D01*
X62127924Y87015345D01*
X62224777Y87160295D01*
X62291490Y87321355D01*
X62325500Y87492335D01*
X62325500Y87666665D01*
X62291490Y87837645D01*
X62224777Y87998705D01*
X62175500Y88072453D01*
X62175500Y88129754D01*
X62418746Y88373000D01*
X99340001Y88373000D01*
X99340000Y660000D01*
X660000Y660000D01*
X660000Y15860000D01*
X8581928Y15860000D01*
X8581928Y14110000D01*
X8611001Y13814814D01*
X8697104Y13530972D01*
X8836927Y13269382D01*
X9025097Y13040097D01*
X9254382Y12851927D01*
X9515972Y12712104D01*
X9799814Y12626001D01*
X10095000Y12596928D01*
X11845000Y12596928D01*
X12140186Y12626001D01*
X12424028Y12712104D01*
X12685618Y12851927D01*
X12914903Y13040097D01*
X13103073Y13269382D01*
X13242896Y13530972D01*
X13328999Y13814814D01*
X13358072Y14110000D01*
X13358072Y15860000D01*
X13328999Y16155186D01*
X13242896Y16439028D01*
X13103073Y16700618D01*
X12914903Y16929903D01*
X12685618Y17118073D01*
X12424028Y17257896D01*
X12295357Y17296928D01*
X15720000Y17296928D01*
X15844482Y17309188D01*
X15964180Y17345498D01*
X16074494Y17404463D01*
X16171185Y17483815D01*
X16250537Y17580506D01*
X16309502Y17690820D01*
X16345812Y17810518D01*
X16358072Y17935000D01*
X16358072Y21435000D01*
X16345812Y21559482D01*
X16309502Y21679180D01*
X16250537Y21789494D01*
X16171185Y21886185D01*
X16074494Y21965537D01*
X15964180Y22024502D01*
X15844482Y22060812D01*
X15720000Y22073072D01*
X12220000Y22073072D01*
X12095518Y22060812D01*
X11975820Y22024502D01*
X11865506Y21965537D01*
X11768815Y21886185D01*
X11689463Y21789494D01*
X11630498Y21679180D01*
X11594188Y21559482D01*
X11581928Y21435000D01*
X11581928Y17935000D01*
X11594188Y17810518D01*
X11630498Y17690820D01*
X11689463Y17580506D01*
X11768815Y17483815D01*
X11865506Y17404463D01*
X11942131Y17363506D01*
X11845000Y17373072D01*
X10095000Y17373072D01*
X9799814Y17343999D01*
X9515972Y17257896D01*
X9254382Y17118073D01*
X9025097Y16929903D01*
X8836927Y16700618D01*
X8697104Y16439028D01*
X8611001Y16155186D01*
X8581928Y15860000D01*
X660000Y15860000D01*
X660000Y17935000D01*
X5831928Y17935000D01*
X5844188Y17810518D01*
X5880498Y17690820D01*
X5939463Y17580506D01*
X6018815Y17483815D01*
X6115506Y17404463D01*
X6225820Y17345498D01*
X6345518Y17309188D01*
X6470000Y17296928D01*
X7684250Y17300000D01*
X7843000Y17458750D01*
X7843000Y19558000D01*
X8097000Y19558000D01*
X8097000Y17458750D01*
X8255750Y17300000D01*
X9470000Y17296928D01*
X9594482Y17309188D01*
X9714180Y17345498D01*
X9824494Y17404463D01*
X9921185Y17483815D01*
X10000537Y17580506D01*
X10059502Y17690820D01*
X10095812Y17810518D01*
X10108072Y17935000D01*
X10105000Y19399250D01*
X9946250Y19558000D01*
X8097000Y19558000D01*
X7843000Y19558000D01*
X5993750Y19558000D01*
X5835000Y19399250D01*
X5831928Y17935000D01*
X660000Y17935000D01*
X660000Y21435000D01*
X5831928Y21435000D01*
X5835000Y19970750D01*
X5993750Y19812000D01*
X7843000Y19812000D01*
X7843000Y21911250D01*
X8097000Y21911250D01*
X8097000Y19812000D01*
X9946250Y19812000D01*
X10105000Y19970750D01*
X10108072Y21435000D01*
X10095812Y21559482D01*
X10059502Y21679180D01*
X10000537Y21789494D01*
X9921185Y21886185D01*
X9824494Y21965537D01*
X9714180Y22024502D01*
X9594482Y22060812D01*
X9470000Y22073072D01*
X8255750Y22070000D01*
X8097000Y21911250D01*
X7843000Y21911250D01*
X7684250Y22070000D01*
X6470000Y22073072D01*
X6345518Y22060812D01*
X6225820Y22024502D01*
X6115506Y21965537D01*
X6018815Y21886185D01*
X5939463Y21789494D01*
X5880498Y21679180D01*
X5844188Y21559482D01*
X5831928Y21435000D01*
X660000Y21435000D01*
X660000Y40220000D01*
X3591928Y40220000D01*
X3591928Y38520000D01*
X3604188Y38395518D01*
X3640498Y38275820D01*
X3699463Y38165506D01*
X3778815Y38068815D01*
X3875506Y37989463D01*
X3985820Y37930498D01*
X4058380Y37908487D01*
X3926525Y37776632D01*
X3764010Y37533411D01*
X3652068Y37263158D01*
X3595000Y36976260D01*
X3595000Y36683740D01*
X3652068Y36396842D01*
X3764010Y36126589D01*
X3926525Y35883368D01*
X4133368Y35676525D01*
X4307760Y35560000D01*
X4133368Y35443475D01*
X3926525Y35236632D01*
X3764010Y34993411D01*
X3652068Y34723158D01*
X3595000Y34436260D01*
X3595000Y34143740D01*
X3652068Y33856842D01*
X3764010Y33586589D01*
X3926525Y33343368D01*
X4133368Y33136525D01*
X4376589Y32974010D01*
X4646842Y32862068D01*
X4933740Y32805000D01*
X5226260Y32805000D01*
X5513158Y32862068D01*
X5783411Y32974010D01*
X6026632Y33136525D01*
X6233475Y33343368D01*
X6395990Y33586589D01*
X6507932Y33856842D01*
X6565000Y34143740D01*
X6565000Y34436260D01*
X6507932Y34723158D01*
X6395990Y34993411D01*
X6233475Y35236632D01*
X6026632Y35443475D01*
X5852240Y35560000D01*
X6026632Y35676525D01*
X6233475Y35883368D01*
X6395990Y36126589D01*
X6507932Y36396842D01*
X6565000Y36683740D01*
X6565000Y36976260D01*
X6507932Y37263158D01*
X6395990Y37533411D01*
X6233475Y37776632D01*
X6101620Y37908487D01*
X6174180Y37930498D01*
X6284494Y37989463D01*
X6381185Y38068815D01*
X6460537Y38165506D01*
X6519502Y38275820D01*
X6555812Y38395518D01*
X6568072Y38520000D01*
X6568072Y40220000D01*
X6555812Y40344482D01*
X6519502Y40464180D01*
X6460537Y40574494D01*
X6381185Y40671185D01*
X6284494Y40750537D01*
X6174180Y40809502D01*
X6054482Y40845812D01*
X5930000Y40858072D01*
X4230000Y40858072D01*
X4105518Y40845812D01*
X3985820Y40809502D01*
X3875506Y40750537D01*
X3778815Y40671185D01*
X3699463Y40574494D01*
X3640498Y40464180D01*
X3604188Y40344482D01*
X3591928Y40220000D01*
X660000Y40220000D01*
X660000Y88373000D01*
X10341001Y88373000D01*
X10341001Y87672751D01*
G04 #@! TA.AperFunction,Conductor*
D18*
G36*
X10341001Y87672751D02*
G01*
X10325010Y87634145D01*
X10291000Y87463165D01*
X10291000Y87288835D01*
X10325010Y87117855D01*
X10391723Y86956795D01*
X10488576Y86811845D01*
X10611845Y86688576D01*
X10756795Y86591723D01*
X10917855Y86525010D01*
X11088835Y86491000D01*
X11263165Y86491000D01*
X11434145Y86525010D01*
X11595205Y86591723D01*
X11740155Y86688576D01*
X11863424Y86811845D01*
X11960277Y86956795D01*
X12026990Y87117855D01*
X12061000Y87288835D01*
X12061000Y87463165D01*
X12026990Y87634145D01*
X12011000Y87672748D01*
X12011000Y88373000D01*
X13273254Y88373000D01*
X14131301Y87514952D01*
X14131300Y57311484D01*
X13862260Y57365000D01*
X13569740Y57365000D01*
X13282842Y57307932D01*
X13012589Y57195990D01*
X12769368Y57033475D01*
X12562525Y56826632D01*
X12446000Y56652240D01*
X12329475Y56826632D01*
X12122632Y57033475D01*
X11879411Y57195990D01*
X11609158Y57307932D01*
X11322260Y57365000D01*
X11029740Y57365000D01*
X10742842Y57307932D01*
X10472589Y57195990D01*
X10229368Y57033475D01*
X10022525Y56826632D01*
X9860010Y56583411D01*
X9748068Y56313158D01*
X9691000Y56026260D01*
X9691000Y55733740D01*
X9748068Y55446842D01*
X9860010Y55176589D01*
X10022525Y54933368D01*
X10154380Y54801513D01*
X10081820Y54779502D01*
X9971506Y54720537D01*
X9874815Y54641185D01*
X9795463Y54544494D01*
X9736498Y54434180D01*
X9700188Y54314482D01*
X9687928Y54190000D01*
X9687928Y52490000D01*
X9700188Y52365518D01*
X9736498Y52245820D01*
X9795463Y52135506D01*
X9874815Y52038815D01*
X9971506Y51959463D01*
X10081820Y51900498D01*
X10201518Y51864188D01*
X10326000Y51851928D01*
X12026000Y51851928D01*
X12150482Y51864188D01*
X12270180Y51900498D01*
X12380494Y51959463D01*
X12388182Y51965772D01*
X22782346Y41571607D01*
X22805362Y41543562D01*
X22917280Y41451713D01*
X23044967Y41383463D01*
X23183515Y41341435D01*
X23327600Y41327244D01*
X23363705Y41330800D01*
X23787401Y41330800D01*
X23802010Y41257355D01*
X23868723Y41096295D01*
X23965576Y40951345D01*
X24088845Y40828076D01*
X24233795Y40731223D01*
X24394855Y40664510D01*
X24481848Y40647206D01*
X32782646Y32346407D01*
X32805662Y32318362D01*
X32917580Y32226513D01*
X33045267Y32158263D01*
X33183815Y32116235D01*
X33291795Y32105600D01*
X33291804Y32105600D01*
X33327899Y32102045D01*
X33363994Y32105600D01*
X37878254Y32105600D01*
X61533259Y8450594D01*
X61443080Y8407641D01*
X61209731Y8233588D01*
X61014822Y8017355D01*
X60945195Y7900466D01*
X60823475Y8082632D01*
X60616632Y8289475D01*
X60391472Y8439922D01*
X60352337Y8568933D01*
X60284087Y8696620D01*
X60192238Y8808538D01*
X60164193Y8831554D01*
X52684294Y16311452D01*
X52666990Y16398445D01*
X52600277Y16559505D01*
X52503424Y16704455D01*
X52380155Y16827724D01*
X52235205Y16924577D01*
X52074145Y16991290D01*
X51903165Y17025300D01*
X51728835Y17025300D01*
X51557855Y16991290D01*
X51396795Y16924577D01*
X51251845Y16827724D01*
X51128576Y16704455D01*
X51031723Y16559505D01*
X50965010Y16398445D01*
X50931000Y16227465D01*
X50931000Y16053135D01*
X50965010Y15882155D01*
X51031723Y15721095D01*
X51128576Y15576145D01*
X51251845Y15452876D01*
X51396795Y15356023D01*
X51557855Y15289310D01*
X51644848Y15272006D01*
X58675373Y8241480D01*
X58516525Y8082632D01*
X58394805Y7900466D01*
X58325178Y8017355D01*
X58130269Y8233588D01*
X57896920Y8407641D01*
X57634099Y8532825D01*
X57486890Y8577476D01*
X57257000Y8456155D01*
X57257000Y7263000D01*
X57277000Y7263000D01*
X57277000Y7009000D01*
X57257000Y7009000D01*
X57257000Y6989000D01*
X57003000Y6989000D01*
X57003000Y7009000D01*
X56983000Y7009000D01*
X56983000Y7263000D01*
X57003000Y7263000D01*
X57003000Y8456155D01*
X56773110Y8577476D01*
X56625901Y8532825D01*
X56363080Y8407641D01*
X56129731Y8233588D01*
X55934822Y8017355D01*
X55865195Y7900466D01*
X55743475Y8082632D01*
X55536632Y8289475D01*
X55311472Y8439922D01*
X55294077Y8497265D01*
X55272337Y8568933D01*
X55204087Y8696620D01*
X55112238Y8808538D01*
X55084193Y8831554D01*
X45064294Y18851452D01*
X45046990Y18938445D01*
X44980277Y19099505D01*
X44883424Y19244455D01*
X44760155Y19367724D01*
X44615205Y19464577D01*
X44454145Y19531290D01*
X44283165Y19565300D01*
X44108835Y19565300D01*
X43937855Y19531290D01*
X43776795Y19464577D01*
X43631845Y19367724D01*
X43508576Y19244455D01*
X43411723Y19099505D01*
X43345010Y18938445D01*
X43311000Y18767465D01*
X43311000Y18593135D01*
X43345010Y18422155D01*
X43411723Y18261095D01*
X43508576Y18116145D01*
X43631845Y17992876D01*
X43776795Y17896023D01*
X43937855Y17829310D01*
X44024848Y17812006D01*
X53595373Y8241480D01*
X53436525Y8082632D01*
X53320000Y7908240D01*
X53203475Y8082632D01*
X52996632Y8289475D01*
X52771472Y8439922D01*
X52754077Y8497265D01*
X52732337Y8568933D01*
X52664087Y8696620D01*
X52572238Y8808538D01*
X52544193Y8831554D01*
X31336594Y30039152D01*
X31319290Y30126145D01*
X31252577Y30287205D01*
X31155724Y30432155D01*
X31032455Y30555424D01*
X30887505Y30652277D01*
X30726445Y30718990D01*
X30555465Y30753000D01*
X30381135Y30753000D01*
X30210155Y30718990D01*
X30049095Y30652277D01*
X29904145Y30555424D01*
X29780876Y30432155D01*
X29684023Y30287205D01*
X29617310Y30126145D01*
X29583300Y29955165D01*
X29583300Y29780835D01*
X29617310Y29609855D01*
X29684023Y29448795D01*
X29780876Y29303845D01*
X29904145Y29180576D01*
X30049095Y29083723D01*
X30210155Y29017010D01*
X30297148Y28999706D01*
X51055373Y8241480D01*
X50896525Y8082632D01*
X50774805Y7900466D01*
X50705178Y8017355D01*
X50510269Y8233588D01*
X50276920Y8407641D01*
X50014099Y8532825D01*
X49866890Y8577476D01*
X49637000Y8456155D01*
X49637000Y7263000D01*
X49657000Y7263000D01*
X49657000Y7009000D01*
X49637000Y7009000D01*
X49637000Y6989000D01*
X49383000Y6989000D01*
X49383000Y7009000D01*
X49363000Y7009000D01*
X49363000Y7263000D01*
X49383000Y7263000D01*
X49383000Y8456155D01*
X49153110Y8577476D01*
X49005901Y8532825D01*
X48743080Y8407641D01*
X48509731Y8233588D01*
X48314822Y8017355D01*
X48245195Y7900466D01*
X48123475Y8082632D01*
X47916632Y8289475D01*
X47691472Y8439922D01*
X47652337Y8568933D01*
X47584087Y8696620D01*
X47492238Y8808538D01*
X47464193Y8831554D01*
X32856394Y23439352D01*
X32839090Y23526345D01*
X32772377Y23687405D01*
X32675524Y23832355D01*
X32552255Y23955624D01*
X32407305Y24052477D01*
X32246245Y24119190D01*
X32075265Y24153200D01*
X31900935Y24153200D01*
X31729955Y24119190D01*
X31568895Y24052477D01*
X31423945Y23955624D01*
X31300676Y23832355D01*
X31203823Y23687405D01*
X31137110Y23526345D01*
X31103100Y23355365D01*
X31103100Y23181035D01*
X31137110Y23010055D01*
X31203823Y22848995D01*
X31300676Y22704045D01*
X31423945Y22580776D01*
X31568895Y22483923D01*
X31729955Y22417210D01*
X31816948Y22399906D01*
X45975373Y8241480D01*
X45816525Y8082632D01*
X45700000Y7908240D01*
X45583475Y8082632D01*
X45376632Y8289475D01*
X45151472Y8439922D01*
X45112337Y8568934D01*
X45044087Y8696620D01*
X44975253Y8780494D01*
X44952238Y8808538D01*
X44924193Y8831554D01*
X35323694Y18432052D01*
X35306390Y18519045D01*
X35239677Y18680105D01*
X35142824Y18825055D01*
X35019555Y18948324D01*
X34874605Y19045177D01*
X34713545Y19111890D01*
X34542565Y19145900D01*
X34368235Y19145900D01*
X34197255Y19111890D01*
X34036195Y19045177D01*
X33891245Y18948324D01*
X33767976Y18825055D01*
X33671123Y18680105D01*
X33604410Y18519045D01*
X33570400Y18348065D01*
X33570400Y18173735D01*
X33604410Y18002755D01*
X33671123Y17841695D01*
X33767976Y17696745D01*
X33891245Y17573476D01*
X34036195Y17476623D01*
X34197255Y17409910D01*
X34284248Y17392606D01*
X43435373Y8241480D01*
X43276525Y8082632D01*
X43154805Y7900466D01*
X43085178Y8017355D01*
X42890269Y8233588D01*
X42656920Y8407641D01*
X42394099Y8532825D01*
X42246890Y8577476D01*
X42017000Y8456155D01*
X42017000Y7263000D01*
X42037000Y7263000D01*
X42037000Y7009000D01*
X42017000Y7009000D01*
X42017000Y6989000D01*
X41763000Y6989000D01*
X41763000Y7009000D01*
X41743000Y7009000D01*
X41743000Y7263000D01*
X41763000Y7263000D01*
X41763000Y8456155D01*
X41533110Y8577476D01*
X41385901Y8532825D01*
X41123080Y8407641D01*
X40889731Y8233588D01*
X40694822Y8017355D01*
X40625195Y7900466D01*
X40503475Y8082632D01*
X40296632Y8289475D01*
X40071472Y8439922D01*
X40032337Y8568933D01*
X39964087Y8696620D01*
X39872238Y8808538D01*
X39760320Y8900387D01*
X39632633Y8968637D01*
X39494085Y9010665D01*
X39386105Y9021300D01*
X39350000Y9024856D01*
X39313895Y9021300D01*
X38863547Y9021300D01*
X37340794Y10544052D01*
X37323490Y10631045D01*
X37256777Y10792105D01*
X37159924Y10937055D01*
X37036655Y11060324D01*
X36891705Y11157177D01*
X36730645Y11223890D01*
X36559665Y11257900D01*
X36385335Y11257900D01*
X36214355Y11223890D01*
X36053295Y11157177D01*
X35908345Y11060324D01*
X35785076Y10937055D01*
X35688223Y10792105D01*
X35621510Y10631045D01*
X35587500Y10460065D01*
X35587500Y10285735D01*
X35621510Y10114755D01*
X35688223Y9953695D01*
X35785076Y9808745D01*
X35908345Y9685476D01*
X36053295Y9588623D01*
X36214355Y9521910D01*
X36301348Y9504606D01*
X37241739Y8564214D01*
X36956260Y8621000D01*
X36663740Y8621000D01*
X36376842Y8563932D01*
X36106589Y8451990D01*
X35863368Y8289475D01*
X35656525Y8082632D01*
X35534805Y7900466D01*
X35465178Y8017355D01*
X35270269Y8233588D01*
X35036920Y8407641D01*
X34774099Y8532825D01*
X34626890Y8577476D01*
X34397000Y8456155D01*
X34397000Y7263000D01*
X34417000Y7263000D01*
X34417000Y7009000D01*
X34397000Y7009000D01*
X34397000Y6989000D01*
X34143000Y6989000D01*
X34143000Y7009000D01*
X34123000Y7009000D01*
X34123000Y7263000D01*
X34143000Y7263000D01*
X34143000Y7825231D01*
X34198390Y7958955D01*
X34232400Y8129935D01*
X34232400Y8304265D01*
X34198390Y8475245D01*
X34131677Y8636305D01*
X34034824Y8781255D01*
X33911555Y8904524D01*
X33766605Y9001377D01*
X33605545Y9068090D01*
X33434565Y9102100D01*
X33260235Y9102100D01*
X33089255Y9068090D01*
X32928195Y9001377D01*
X32783245Y8904524D01*
X32659976Y8781255D01*
X32563123Y8636305D01*
X32496410Y8475245D01*
X32484936Y8417562D01*
X32433411Y8451990D01*
X32163158Y8563932D01*
X31876260Y8621000D01*
X31583740Y8621000D01*
X31296842Y8563932D01*
X31026589Y8451990D01*
X30783368Y8289475D01*
X30576525Y8082632D01*
X30460000Y7908240D01*
X30343475Y8082632D01*
X30136632Y8289475D01*
X29893411Y8451990D01*
X29623158Y8563932D01*
X29336260Y8621000D01*
X29043740Y8621000D01*
X28756842Y8563932D01*
X28486589Y8451990D01*
X28243368Y8289475D01*
X28036525Y8082632D01*
X27920000Y7908240D01*
X27803475Y8082632D01*
X27596632Y8289475D01*
X27353411Y8451990D01*
X27083158Y8563932D01*
X26796260Y8621000D01*
X26503740Y8621000D01*
X26216842Y8563932D01*
X25946589Y8451990D01*
X25703368Y8289475D01*
X25496525Y8082632D01*
X25380000Y7908240D01*
X25263475Y8082632D01*
X25056632Y8289475D01*
X24813411Y8451990D01*
X24543158Y8563932D01*
X24256260Y8621000D01*
X23963740Y8621000D01*
X23676842Y8563932D01*
X23406589Y8451990D01*
X23163368Y8289475D01*
X22956525Y8082632D01*
X22840000Y7908240D01*
X22723475Y8082632D01*
X22516632Y8289475D01*
X22273411Y8451990D01*
X22003158Y8563932D01*
X21716260Y8621000D01*
X21423740Y8621000D01*
X21136842Y8563932D01*
X20866589Y8451990D01*
X20623368Y8289475D01*
X20416525Y8082632D01*
X20254010Y7839411D01*
X20142068Y7569158D01*
X20085000Y7282260D01*
X20085000Y6989740D01*
X20142068Y6702842D01*
X20254010Y6432589D01*
X20416525Y6189368D01*
X20623368Y5982525D01*
X20797760Y5866000D01*
X20623368Y5749475D01*
X20416525Y5542632D01*
X20254010Y5299411D01*
X20142068Y5029158D01*
X20085000Y4742260D01*
X20085000Y4449740D01*
X20142068Y4162842D01*
X20254010Y3892589D01*
X20416525Y3649368D01*
X20623368Y3442525D01*
X20866589Y3280010D01*
X21136842Y3168068D01*
X21423740Y3111000D01*
X21716260Y3111000D01*
X22003158Y3168068D01*
X22273411Y3280010D01*
X22516632Y3442525D01*
X22723475Y3649368D01*
X22840000Y3823760D01*
X22956525Y3649368D01*
X23163368Y3442525D01*
X23406589Y3280010D01*
X23676842Y3168068D01*
X23963740Y3111000D01*
X24256260Y3111000D01*
X24543158Y3168068D01*
X24813411Y3280010D01*
X25056632Y3442525D01*
X25263475Y3649368D01*
X25380000Y3823760D01*
X25496525Y3649368D01*
X25703368Y3442525D01*
X25946589Y3280010D01*
X26216842Y3168068D01*
X26503740Y3111000D01*
X26796260Y3111000D01*
X27083158Y3168068D01*
X27353411Y3280010D01*
X27596632Y3442525D01*
X27803475Y3649368D01*
X27920000Y3823760D01*
X28036525Y3649368D01*
X28243368Y3442525D01*
X28486589Y3280010D01*
X28756842Y3168068D01*
X29043740Y3111000D01*
X29336260Y3111000D01*
X29623158Y3168068D01*
X29893411Y3280010D01*
X30136632Y3442525D01*
X30343475Y3649368D01*
X30460000Y3823760D01*
X30576525Y3649368D01*
X30783368Y3442525D01*
X31026589Y3280010D01*
X31296842Y3168068D01*
X31583740Y3111000D01*
X31876260Y3111000D01*
X32163158Y3168068D01*
X32433411Y3280010D01*
X32676632Y3442525D01*
X32883475Y3649368D01*
X33000000Y3823760D01*
X33116525Y3649368D01*
X33323368Y3442525D01*
X33566589Y3280010D01*
X33836842Y3168068D01*
X34123740Y3111000D01*
X34416260Y3111000D01*
X34703158Y3168068D01*
X34973411Y3280010D01*
X35216632Y3442525D01*
X35423475Y3649368D01*
X35540000Y3823760D01*
X35656525Y3649368D01*
X35863368Y3442525D01*
X36106589Y3280010D01*
X36376842Y3168068D01*
X36663740Y3111000D01*
X36956260Y3111000D01*
X37243158Y3168068D01*
X37513411Y3280010D01*
X37756632Y3442525D01*
X37963475Y3649368D01*
X38080000Y3823760D01*
X38196525Y3649368D01*
X38403368Y3442525D01*
X38646589Y3280010D01*
X38916842Y3168068D01*
X39203740Y3111000D01*
X39496260Y3111000D01*
X39783158Y3168068D01*
X40053411Y3280010D01*
X40296632Y3442525D01*
X40503475Y3649368D01*
X40620000Y3823760D01*
X40736525Y3649368D01*
X40943368Y3442525D01*
X41186589Y3280010D01*
X41456842Y3168068D01*
X41743740Y3111000D01*
X42036260Y3111000D01*
X42323158Y3168068D01*
X42593411Y3280010D01*
X42836632Y3442525D01*
X43043475Y3649368D01*
X43160000Y3823760D01*
X43276525Y3649368D01*
X43483368Y3442525D01*
X43726589Y3280010D01*
X43996842Y3168068D01*
X44283740Y3111000D01*
X44576260Y3111000D01*
X44863158Y3168068D01*
X45133411Y3280010D01*
X45376632Y3442525D01*
X45583475Y3649368D01*
X45700000Y3823760D01*
X45816525Y3649368D01*
X46023368Y3442525D01*
X46266589Y3280010D01*
X46536842Y3168068D01*
X46823740Y3111000D01*
X47116260Y3111000D01*
X47403158Y3168068D01*
X47673411Y3280010D01*
X47916632Y3442525D01*
X48123475Y3649368D01*
X48240000Y3823760D01*
X48356525Y3649368D01*
X48563368Y3442525D01*
X48806589Y3280010D01*
X49076842Y3168068D01*
X49363740Y3111000D01*
X49656260Y3111000D01*
X49943158Y3168068D01*
X50213411Y3280010D01*
X50456632Y3442525D01*
X50663475Y3649368D01*
X50780000Y3823760D01*
X50896525Y3649368D01*
X51103368Y3442525D01*
X51346589Y3280010D01*
X51616842Y3168068D01*
X51903740Y3111000D01*
X52196260Y3111000D01*
X52483158Y3168068D01*
X52753411Y3280010D01*
X52996632Y3442525D01*
X53203475Y3649368D01*
X53320000Y3823760D01*
X53436525Y3649368D01*
X53643368Y3442525D01*
X53886589Y3280010D01*
X54156842Y3168068D01*
X54443740Y3111000D01*
X54736260Y3111000D01*
X55023158Y3168068D01*
X55293411Y3280010D01*
X55536632Y3442525D01*
X55743475Y3649368D01*
X55860000Y3823760D01*
X55976525Y3649368D01*
X56183368Y3442525D01*
X56426589Y3280010D01*
X56696842Y3168068D01*
X56983740Y3111000D01*
X57276260Y3111000D01*
X57563158Y3168068D01*
X57833411Y3280010D01*
X58076632Y3442525D01*
X58283475Y3649368D01*
X58400000Y3823760D01*
X58516525Y3649368D01*
X58723368Y3442525D01*
X58966589Y3280010D01*
X59236842Y3168068D01*
X59523740Y3111000D01*
X59816260Y3111000D01*
X60103158Y3168068D01*
X60373411Y3280010D01*
X60616632Y3442525D01*
X60823475Y3649368D01*
X60940000Y3823760D01*
X61056525Y3649368D01*
X61263368Y3442525D01*
X61506589Y3280010D01*
X61776842Y3168068D01*
X62063740Y3111000D01*
X62356260Y3111000D01*
X62643158Y3168068D01*
X62913411Y3280010D01*
X63156632Y3442525D01*
X63363475Y3649368D01*
X63480000Y3823760D01*
X63596525Y3649368D01*
X63803368Y3442525D01*
X64046589Y3280010D01*
X64316842Y3168068D01*
X64603740Y3111000D01*
X64896260Y3111000D01*
X65183158Y3168068D01*
X65453411Y3280010D01*
X65696632Y3442525D01*
X65711680Y3457573D01*
X66217846Y2951407D01*
X66240862Y2923362D01*
X66352780Y2831513D01*
X66480467Y2763263D01*
X66619015Y2721235D01*
X66726995Y2710600D01*
X66727004Y2710600D01*
X66763099Y2707045D01*
X66799194Y2710600D01*
X75910995Y2710600D01*
X75947100Y2707044D01*
X75983205Y2710600D01*
X76091185Y2721235D01*
X76229733Y2763263D01*
X76357420Y2831513D01*
X76469338Y2923362D01*
X76492358Y2951412D01*
X76978592Y3437646D01*
X77006638Y3460662D01*
X77098487Y3572580D01*
X77166737Y3700267D01*
X77208765Y3838815D01*
X77219400Y3946795D01*
X77222956Y3982900D01*
X77219400Y4019005D01*
X77219400Y7736804D01*
X77222955Y7772901D01*
X77219400Y7808998D01*
X77219400Y7809005D01*
X77208765Y7916985D01*
X77166737Y8055533D01*
X77098487Y8183220D01*
X77067410Y8221087D01*
X77029653Y8267094D01*
X77029650Y8267097D01*
X77006637Y8295138D01*
X76978598Y8318149D01*
X40580346Y44716400D01*
X53139295Y44716400D01*
X53175400Y44712844D01*
X53211505Y44716400D01*
X53319485Y44727035D01*
X53458033Y44769063D01*
X53585720Y44837313D01*
X53697638Y44929162D01*
X53720659Y44957213D01*
X60989670Y52226223D01*
X61029368Y52186525D01*
X61272589Y52024010D01*
X61542842Y51912068D01*
X61829740Y51855000D01*
X62122260Y51855000D01*
X62409158Y51912068D01*
X62679411Y52024010D01*
X62922632Y52186525D01*
X63129475Y52393368D01*
X63251195Y52575534D01*
X63320822Y52458645D01*
X63515731Y52242412D01*
X63749080Y52068359D01*
X64011901Y51943175D01*
X64159110Y51898524D01*
X64389000Y52019845D01*
X64389000Y53213000D01*
X64643000Y53213000D01*
X64643000Y52019845D01*
X64872890Y51898524D01*
X65020099Y51943175D01*
X65282920Y52068359D01*
X65516269Y52242412D01*
X65711178Y52458645D01*
X65860157Y52708748D01*
X65957481Y52983109D01*
X65836814Y53213000D01*
X64643000Y53213000D01*
X64389000Y53213000D01*
X64369000Y53213000D01*
X64369000Y53467000D01*
X64389000Y53467000D01*
X64389000Y55753000D01*
X64643000Y55753000D01*
X64643000Y53467000D01*
X65836814Y53467000D01*
X65957481Y53696891D01*
X65860157Y53971252D01*
X65711178Y54221355D01*
X65516269Y54437588D01*
X65285120Y54610000D01*
X65516269Y54782412D01*
X65711178Y54998645D01*
X65860157Y55248748D01*
X65957481Y55523109D01*
X65836814Y55753000D01*
X64643000Y55753000D01*
X64389000Y55753000D01*
X64369000Y55753000D01*
X64369000Y56007000D01*
X64389000Y56007000D01*
X64389000Y57200155D01*
X64643000Y57200155D01*
X64643000Y56007000D01*
X65836814Y56007000D01*
X65957481Y56236891D01*
X65860157Y56511252D01*
X65711178Y56761355D01*
X65516269Y56977588D01*
X65282920Y57151641D01*
X65020099Y57276825D01*
X64872890Y57321476D01*
X64643000Y57200155D01*
X64389000Y57200155D01*
X64159110Y57321476D01*
X64011901Y57276825D01*
X63749080Y57151641D01*
X63515731Y56977588D01*
X63320822Y56761355D01*
X63251195Y56644466D01*
X63129475Y56826632D01*
X62922632Y57033475D01*
X62679411Y57195990D01*
X62409158Y57307932D01*
X62122260Y57365000D01*
X61829740Y57365000D01*
X61542842Y57307932D01*
X61272589Y57195990D01*
X61029368Y57033475D01*
X60822525Y56826632D01*
X60706000Y56652240D01*
X60589475Y56826632D01*
X60382632Y57033475D01*
X60139411Y57195990D01*
X59869158Y57307932D01*
X59582260Y57365000D01*
X59289740Y57365000D01*
X59002842Y57307932D01*
X58732589Y57195990D01*
X58489368Y57033475D01*
X58282525Y56826632D01*
X58166000Y56652240D01*
X58049475Y56826632D01*
X57842632Y57033475D01*
X57599411Y57195990D01*
X57329158Y57307932D01*
X57042260Y57365000D01*
X56749740Y57365000D01*
X56462842Y57307932D01*
X56192589Y57195990D01*
X55949368Y57033475D01*
X55742525Y56826632D01*
X55626000Y56652240D01*
X55509475Y56826632D01*
X55302632Y57033475D01*
X55059411Y57195990D01*
X54789158Y57307932D01*
X54502260Y57365000D01*
X54209740Y57365000D01*
X53922842Y57307932D01*
X53652589Y57195990D01*
X53409368Y57033475D01*
X53202525Y56826632D01*
X53086000Y56652240D01*
X52969475Y56826632D01*
X52762632Y57033475D01*
X52519411Y57195990D01*
X52249158Y57307932D01*
X51962260Y57365000D01*
X51669740Y57365000D01*
X51382842Y57307932D01*
X51112589Y57195990D01*
X50869368Y57033475D01*
X50662525Y56826632D01*
X50546000Y56652240D01*
X50429475Y56826632D01*
X50222632Y57033475D01*
X49979411Y57195990D01*
X49709158Y57307932D01*
X49422260Y57365000D01*
X49129740Y57365000D01*
X48842842Y57307932D01*
X48572589Y57195990D01*
X48329368Y57033475D01*
X48122525Y56826632D01*
X48006000Y56652240D01*
X47889475Y56826632D01*
X47682632Y57033475D01*
X47439411Y57195990D01*
X47169158Y57307932D01*
X46882260Y57365000D01*
X46589740Y57365000D01*
X46302842Y57307932D01*
X46032589Y57195990D01*
X45789368Y57033475D01*
X45582525Y56826632D01*
X45466000Y56652240D01*
X45349475Y56826632D01*
X45142632Y57033475D01*
X44899411Y57195990D01*
X44629158Y57307932D01*
X44342260Y57365000D01*
X44049740Y57365000D01*
X43762842Y57307932D01*
X43492589Y57195990D01*
X43249368Y57033475D01*
X43042525Y56826632D01*
X42926000Y56652240D01*
X42809475Y56826632D01*
X42602632Y57033475D01*
X42359411Y57195990D01*
X42089158Y57307932D01*
X41802260Y57365000D01*
X41509740Y57365000D01*
X41222842Y57307932D01*
X41031900Y57228842D01*
X41031900Y87752695D01*
X41035456Y87788800D01*
X41021265Y87932885D01*
X41018663Y87941464D01*
X40979237Y88071433D01*
X40910987Y88199120D01*
X40819138Y88311038D01*
X40791093Y88334054D01*
X40752147Y88373000D01*
X43326853Y88373000D01*
X42817148Y87863294D01*
X42730155Y87845990D01*
X42569095Y87779277D01*
X42424145Y87682424D01*
X42300876Y87559155D01*
X42204023Y87414205D01*
X42137310Y87253145D01*
X42103300Y87082165D01*
X42103300Y86907835D01*
X42137310Y86736855D01*
X42204023Y86575795D01*
X42300876Y86430845D01*
X42424145Y86307576D01*
X42569095Y86210723D01*
X42730155Y86144010D01*
X42901135Y86110000D01*
X43075465Y86110000D01*
X43246445Y86144010D01*
X43407505Y86210723D01*
X43552455Y86307576D01*
X43675724Y86430845D01*
X43772577Y86575795D01*
X43839290Y86736855D01*
X43856594Y86823848D01*
X44690193Y87657446D01*
X44718238Y87680462D01*
X44810087Y87792380D01*
X44824479Y87819305D01*
X44878337Y87920066D01*
X44920365Y88058615D01*
X44934556Y88202700D01*
X44931000Y88238805D01*
X44931000Y88373000D01*
X45884253Y88373000D01*
X45374548Y87863294D01*
X45287555Y87845990D01*
X45126495Y87779277D01*
X44981545Y87682424D01*
X44858276Y87559155D01*
X44761423Y87414205D01*
X44694710Y87253145D01*
X44660700Y87082165D01*
X44660700Y86907835D01*
X44694710Y86736855D01*
X44761423Y86575795D01*
X44858276Y86430845D01*
X44981545Y86307576D01*
X45126495Y86210723D01*
X45287555Y86144010D01*
X45458535Y86110000D01*
X45632865Y86110000D01*
X45803845Y86144010D01*
X45964905Y86210723D01*
X46109855Y86307576D01*
X46233124Y86430845D01*
X46329977Y86575795D01*
X46396690Y86736855D01*
X46413994Y86823848D01*
X47230193Y87640046D01*
X47258238Y87663062D01*
X47350087Y87774980D01*
X47418337Y87902667D01*
X47460365Y88041215D01*
X47471000Y88149195D01*
X47471000Y88149204D01*
X47474555Y88185299D01*
X47471000Y88221394D01*
X47471000Y88373000D01*
X48242501Y88373000D01*
X48242500Y87893053D01*
X48193223Y87819305D01*
X48126510Y87658245D01*
X48092500Y87487265D01*
X48092500Y87312935D01*
X48126510Y87141955D01*
X48193223Y86980895D01*
X48290076Y86835945D01*
X48413345Y86712676D01*
X48558295Y86615823D01*
X48719355Y86549110D01*
X48890335Y86515100D01*
X49064665Y86515100D01*
X49235645Y86549110D01*
X49396705Y86615823D01*
X49541655Y86712676D01*
X49664924Y86835945D01*
X49761777Y86980895D01*
X49828490Y87141955D01*
X49862500Y87312935D01*
X49862500Y87487265D01*
X49828490Y87658245D01*
X49761777Y87819305D01*
X49712500Y87893053D01*
X49712500Y88366754D01*
X49718746Y88373000D01*
X50735101Y88373000D01*
X50735100Y88060354D01*
X50685823Y87986605D01*
X50619110Y87825545D01*
X50585100Y87654565D01*
X50585100Y87480235D01*
X50619110Y87309255D01*
X50685823Y87148195D01*
X50782676Y87003245D01*
X50905945Y86879976D01*
X51050895Y86783123D01*
X51211955Y86716410D01*
X51382935Y86682400D01*
X51557265Y86682400D01*
X51728245Y86716410D01*
X51889305Y86783123D01*
X52034255Y86879976D01*
X52157524Y87003245D01*
X52254377Y87148195D01*
X52321090Y87309255D01*
X52355100Y87480235D01*
X52355100Y87654565D01*
X52321090Y87825545D01*
X52254377Y87986605D01*
X52205100Y88060353D01*
X52205100Y88319354D01*
X52258746Y88373000D01*
X53227701Y88373000D01*
X53227700Y88072454D01*
X53178423Y87998705D01*
X53111710Y87837645D01*
X53077700Y87666665D01*
X53077700Y87492335D01*
X53111710Y87321355D01*
X53178423Y87160295D01*
X53275276Y87015345D01*
X53398545Y86892076D01*
X53543495Y86795223D01*
X53704555Y86728510D01*
X53875535Y86694500D01*
X54049865Y86694500D01*
X54220845Y86728510D01*
X54381905Y86795223D01*
X54526855Y86892076D01*
X54650124Y87015345D01*
X54746977Y87160295D01*
X54813690Y87321355D01*
X54847700Y87492335D01*
X54847700Y87666665D01*
X54813690Y87837645D01*
X54746977Y87998705D01*
X54697700Y88072453D01*
X54697700Y88271954D01*
X54798746Y88373000D01*
X55720301Y88373000D01*
X55720301Y88072454D01*
X55671023Y87998705D01*
X55604310Y87837645D01*
X55570300Y87666665D01*
X55570300Y87492335D01*
X55604310Y87321355D01*
X55671023Y87160295D01*
X55767876Y87015345D01*
X55891145Y86892076D01*
X56036095Y86795223D01*
X56197155Y86728510D01*
X56368135Y86694500D01*
X56542465Y86694500D01*
X56713445Y86728510D01*
X56874505Y86795223D01*
X57019455Y86892076D01*
X57142724Y87015345D01*
X57239577Y87160295D01*
X57306290Y87321355D01*
X57340300Y87492335D01*
X57340300Y87666665D01*
X57306290Y87837645D01*
X57239577Y87998705D01*
X57190300Y88072453D01*
X57190300Y88224554D01*
X57338746Y88373000D01*
X58212900Y88373000D01*
X58212900Y88072453D01*
X58163623Y87998705D01*
X58096910Y87837645D01*
X58062900Y87666665D01*
X58062900Y87492335D01*
X58096910Y87321355D01*
X58163623Y87160295D01*
X58260476Y87015345D01*
X58383745Y86892076D01*
X58528695Y86795223D01*
X58689755Y86728510D01*
X58860735Y86694500D01*
X59035065Y86694500D01*
X59206045Y86728510D01*
X59367105Y86795223D01*
X59512055Y86892076D01*
X59635324Y87015345D01*
X59732177Y87160295D01*
X59798890Y87321355D01*
X59832900Y87492335D01*
X59832900Y87666665D01*
X59798890Y87837645D01*
X59732177Y87998705D01*
X59682900Y88072453D01*
X59682900Y88177154D01*
X59878746Y88373000D01*
X60705500Y88373000D01*
X60705500Y88072453D01*
X60656223Y87998705D01*
X60589510Y87837645D01*
X60555500Y87666665D01*
X60555500Y87492335D01*
X60589510Y87321355D01*
X60656223Y87160295D01*
X60753076Y87015345D01*
X60876345Y86892076D01*
X61021295Y86795223D01*
X61182355Y86728510D01*
X61353335Y86694500D01*
X61527665Y86694500D01*
X61698645Y86728510D01*
X61859705Y86795223D01*
X62004655Y86892076D01*
X62127924Y87015345D01*
X62224777Y87160295D01*
X62291490Y87321355D01*
X62325500Y87492335D01*
X62325500Y87666665D01*
X62291490Y87837645D01*
X62224777Y87998705D01*
X62175500Y88072453D01*
X62175500Y88129754D01*
X62418746Y88373000D01*
X99340001Y88373000D01*
X99340000Y660000D01*
X660000Y660000D01*
X660000Y15860000D01*
X8581928Y15860000D01*
X8581928Y14110000D01*
X8611001Y13814814D01*
X8697104Y13530972D01*
X8836927Y13269382D01*
X9025097Y13040097D01*
X9254382Y12851927D01*
X9515972Y12712104D01*
X9799814Y12626001D01*
X10095000Y12596928D01*
X11845000Y12596928D01*
X12140186Y12626001D01*
X12424028Y12712104D01*
X12685618Y12851927D01*
X12914903Y13040097D01*
X13103073Y13269382D01*
X13242896Y13530972D01*
X13328999Y13814814D01*
X13358072Y14110000D01*
X13358072Y15860000D01*
X13328999Y16155186D01*
X13242896Y16439028D01*
X13103073Y16700618D01*
X12914903Y16929903D01*
X12685618Y17118073D01*
X12424028Y17257896D01*
X12295357Y17296928D01*
X15720000Y17296928D01*
X15844482Y17309188D01*
X15964180Y17345498D01*
X16074494Y17404463D01*
X16171185Y17483815D01*
X16250537Y17580506D01*
X16309502Y17690820D01*
X16345812Y17810518D01*
X16358072Y17935000D01*
X16358072Y21435000D01*
X16345812Y21559482D01*
X16309502Y21679180D01*
X16250537Y21789494D01*
X16171185Y21886185D01*
X16074494Y21965537D01*
X15964180Y22024502D01*
X15844482Y22060812D01*
X15720000Y22073072D01*
X12220000Y22073072D01*
X12095518Y22060812D01*
X11975820Y22024502D01*
X11865506Y21965537D01*
X11768815Y21886185D01*
X11689463Y21789494D01*
X11630498Y21679180D01*
X11594188Y21559482D01*
X11581928Y21435000D01*
X11581928Y17935000D01*
X11594188Y17810518D01*
X11630498Y17690820D01*
X11689463Y17580506D01*
X11768815Y17483815D01*
X11865506Y17404463D01*
X11942131Y17363506D01*
X11845000Y17373072D01*
X10095000Y17373072D01*
X9799814Y17343999D01*
X9515972Y17257896D01*
X9254382Y17118073D01*
X9025097Y16929903D01*
X8836927Y16700618D01*
X8697104Y16439028D01*
X8611001Y16155186D01*
X8581928Y15860000D01*
X660000Y15860000D01*
X660000Y17935000D01*
X5831928Y17935000D01*
X5844188Y17810518D01*
X5880498Y17690820D01*
X5939463Y17580506D01*
X6018815Y17483815D01*
X6115506Y17404463D01*
X6225820Y17345498D01*
X6345518Y17309188D01*
X6470000Y17296928D01*
X7684250Y17300000D01*
X7843000Y17458750D01*
X7843000Y19558000D01*
X8097000Y19558000D01*
X8097000Y17458750D01*
X8255750Y17300000D01*
X9470000Y17296928D01*
X9594482Y17309188D01*
X9714180Y17345498D01*
X9824494Y17404463D01*
X9921185Y17483815D01*
X10000537Y17580506D01*
X10059502Y17690820D01*
X10095812Y17810518D01*
X10108072Y17935000D01*
X10105000Y19399250D01*
X9946250Y19558000D01*
X8097000Y19558000D01*
X7843000Y19558000D01*
X5993750Y19558000D01*
X5835000Y19399250D01*
X5831928Y17935000D01*
X660000Y17935000D01*
X660000Y21435000D01*
X5831928Y21435000D01*
X5835000Y19970750D01*
X5993750Y19812000D01*
X7843000Y19812000D01*
X7843000Y21911250D01*
X8097000Y21911250D01*
X8097000Y19812000D01*
X9946250Y19812000D01*
X10105000Y19970750D01*
X10108072Y21435000D01*
X10095812Y21559482D01*
X10059502Y21679180D01*
X10000537Y21789494D01*
X9921185Y21886185D01*
X9824494Y21965537D01*
X9714180Y22024502D01*
X9594482Y22060812D01*
X9470000Y22073072D01*
X8255750Y22070000D01*
X8097000Y21911250D01*
X7843000Y21911250D01*
X7684250Y22070000D01*
X6470000Y22073072D01*
X6345518Y22060812D01*
X6225820Y22024502D01*
X6115506Y21965537D01*
X6018815Y21886185D01*
X5939463Y21789494D01*
X5880498Y21679180D01*
X5844188Y21559482D01*
X5831928Y21435000D01*
X660000Y21435000D01*
X660000Y40220000D01*
X3591928Y40220000D01*
X3591928Y38520000D01*
X3604188Y38395518D01*
X3640498Y38275820D01*
X3699463Y38165506D01*
X3778815Y38068815D01*
X3875506Y37989463D01*
X3985820Y37930498D01*
X4058380Y37908487D01*
X3926525Y37776632D01*
X3764010Y37533411D01*
X3652068Y37263158D01*
X3595000Y36976260D01*
X3595000Y36683740D01*
X3652068Y36396842D01*
X3764010Y36126589D01*
X3926525Y35883368D01*
X4133368Y35676525D01*
X4307760Y35560000D01*
X4133368Y35443475D01*
X3926525Y35236632D01*
X3764010Y34993411D01*
X3652068Y34723158D01*
X3595000Y34436260D01*
X3595000Y34143740D01*
X3652068Y33856842D01*
X3764010Y33586589D01*
X3926525Y33343368D01*
X4133368Y33136525D01*
X4376589Y32974010D01*
X4646842Y32862068D01*
X4933740Y32805000D01*
X5226260Y32805000D01*
X5513158Y32862068D01*
X5783411Y32974010D01*
X6026632Y33136525D01*
X6233475Y33343368D01*
X6395990Y33586589D01*
X6507932Y33856842D01*
X6565000Y34143740D01*
X6565000Y34436260D01*
X6507932Y34723158D01*
X6395990Y34993411D01*
X6233475Y35236632D01*
X6026632Y35443475D01*
X5852240Y35560000D01*
X6026632Y35676525D01*
X6233475Y35883368D01*
X6395990Y36126589D01*
X6507932Y36396842D01*
X6565000Y36683740D01*
X6565000Y36976260D01*
X6507932Y37263158D01*
X6395990Y37533411D01*
X6233475Y37776632D01*
X6101620Y37908487D01*
X6174180Y37930498D01*
X6284494Y37989463D01*
X6381185Y38068815D01*
X6460537Y38165506D01*
X6519502Y38275820D01*
X6555812Y38395518D01*
X6568072Y38520000D01*
X6568072Y40220000D01*
X6555812Y40344482D01*
X6519502Y40464180D01*
X6460537Y40574494D01*
X6381185Y40671185D01*
X6284494Y40750537D01*
X6174180Y40809502D01*
X6054482Y40845812D01*
X5930000Y40858072D01*
X4230000Y40858072D01*
X4105518Y40845812D01*
X3985820Y40809502D01*
X3875506Y40750537D01*
X3778815Y40671185D01*
X3699463Y40574494D01*
X3640498Y40464180D01*
X3604188Y40344482D01*
X3591928Y40220000D01*
X660000Y40220000D01*
X660000Y88373000D01*
X10341001Y88373000D01*
X10341001Y87672751D01*
G37*
G04 #@! TD.AperFunction*
D17*
X69957000Y4723000D02*
X69977000Y4723000D01*
X69977000Y4469000D01*
X69957000Y4469000D01*
X69957000Y4449000D01*
X69703000Y4449000D01*
X69703000Y4469000D01*
X69683000Y4469000D01*
X69683000Y4723000D01*
X69703000Y4723000D01*
X69703000Y4743000D01*
X69957000Y4743000D01*
X69957000Y4723000D01*
G04 #@! TA.AperFunction,Conductor*
D18*
G36*
X69957000Y4723000D02*
G01*
X69977000Y4723000D01*
X69977000Y4469000D01*
X69957000Y4469000D01*
X69957000Y4449000D01*
X69703000Y4449000D01*
X69703000Y4469000D01*
X69683000Y4469000D01*
X69683000Y4723000D01*
X69703000Y4723000D01*
X69703000Y4743000D01*
X69957000Y4743000D01*
X69957000Y4723000D01*
G37*
G04 #@! TD.AperFunction*
D17*
X69957000Y7263000D02*
X69977000Y7263000D01*
X69977000Y7009000D01*
X69957000Y7009000D01*
X69957000Y6989000D01*
X69703000Y6989000D01*
X69703000Y7009000D01*
X69683000Y7009000D01*
X69683000Y7263000D01*
X69703000Y7263000D01*
X69703000Y7283000D01*
X69957000Y7283000D01*
X69957000Y7263000D01*
G04 #@! TA.AperFunction,Conductor*
D18*
G36*
X69957000Y7263000D02*
G01*
X69977000Y7263000D01*
X69977000Y7009000D01*
X69957000Y7009000D01*
X69957000Y6989000D01*
X69703000Y6989000D01*
X69703000Y7009000D01*
X69683000Y7009000D01*
X69683000Y7263000D01*
X69703000Y7263000D01*
X69703000Y7283000D01*
X69957000Y7283000D01*
X69957000Y7263000D01*
G37*
G04 #@! TD.AperFunction*
D17*
X62337000Y7263000D02*
X62357000Y7263000D01*
X62357000Y7009000D01*
X62337000Y7009000D01*
X62337000Y6989000D01*
X62083000Y6989000D01*
X62083000Y7009000D01*
X62063000Y7009000D01*
X62063000Y7263000D01*
X62083000Y7263000D01*
X62083000Y7283000D01*
X62337000Y7283000D01*
X62337000Y7263000D01*
G04 #@! TA.AperFunction,Conductor*
D18*
G36*
X62337000Y7263000D02*
G01*
X62357000Y7263000D01*
X62357000Y7009000D01*
X62337000Y7009000D01*
X62337000Y6989000D01*
X62083000Y6989000D01*
X62083000Y7009000D01*
X62063000Y7009000D01*
X62063000Y7263000D01*
X62083000Y7263000D01*
X62083000Y7283000D01*
X62337000Y7283000D01*
X62337000Y7263000D01*
G37*
G04 #@! TD.AperFunction*
D17*
X41783000Y53467000D02*
X41803000Y53467000D01*
X41803000Y53213000D01*
X41783000Y53213000D01*
X41783000Y52019845D01*
X42012890Y51898524D01*
X42160099Y51943175D01*
X42422920Y52068359D01*
X42656269Y52242412D01*
X42851178Y52458645D01*
X42920805Y52575534D01*
X43042525Y52393368D01*
X43249368Y52186525D01*
X43492589Y52024010D01*
X43762842Y51912068D01*
X44049740Y51855000D01*
X44342260Y51855000D01*
X44629158Y51912068D01*
X44899411Y52024010D01*
X45142632Y52186525D01*
X45349475Y52393368D01*
X45466000Y52567760D01*
X45582525Y52393368D01*
X45789368Y52186525D01*
X46032589Y52024010D01*
X46050461Y52016607D01*
X44641454Y50607600D01*
X31527153Y50607600D01*
X31453405Y50656877D01*
X31292345Y50723590D01*
X31121365Y50757600D01*
X30947035Y50757600D01*
X30776055Y50723590D01*
X30614995Y50656877D01*
X30470045Y50560024D01*
X30346776Y50436755D01*
X30249923Y50291805D01*
X30183210Y50130745D01*
X30167368Y50051100D01*
X26342753Y50051100D01*
X26269005Y50100377D01*
X26107945Y50167090D01*
X25936965Y50201100D01*
X25762635Y50201100D01*
X25591655Y50167090D01*
X25430595Y50100377D01*
X25285645Y50003524D01*
X25256134Y49974013D01*
X23229857Y52000289D01*
X23442842Y51912068D01*
X23729740Y51855000D01*
X24022260Y51855000D01*
X24309158Y51912068D01*
X24579411Y52024010D01*
X24822632Y52186525D01*
X25029475Y52393368D01*
X25146000Y52567760D01*
X25262525Y52393368D01*
X25469368Y52186525D01*
X25712589Y52024010D01*
X25982842Y51912068D01*
X26269740Y51855000D01*
X26562260Y51855000D01*
X26849158Y51912068D01*
X27119411Y52024010D01*
X27362632Y52186525D01*
X27569475Y52393368D01*
X27686000Y52567760D01*
X27802525Y52393368D01*
X28009368Y52186525D01*
X28252589Y52024010D01*
X28522842Y51912068D01*
X28809740Y51855000D01*
X29102260Y51855000D01*
X29389158Y51912068D01*
X29659411Y52024010D01*
X29902632Y52186525D01*
X30109475Y52393368D01*
X30226000Y52567760D01*
X30342525Y52393368D01*
X30549368Y52186525D01*
X30792589Y52024010D01*
X31062842Y51912068D01*
X31349740Y51855000D01*
X31642260Y51855000D01*
X31929158Y51912068D01*
X32199411Y52024010D01*
X32442632Y52186525D01*
X32649475Y52393368D01*
X32766000Y52567760D01*
X32882525Y52393368D01*
X33089368Y52186525D01*
X33332589Y52024010D01*
X33602842Y51912068D01*
X33889740Y51855000D01*
X34182260Y51855000D01*
X34469158Y51912068D01*
X34739411Y52024010D01*
X34982632Y52186525D01*
X35189475Y52393368D01*
X35306000Y52567760D01*
X35422525Y52393368D01*
X35629368Y52186525D01*
X35872589Y52024010D01*
X36142842Y51912068D01*
X36429740Y51855000D01*
X36722260Y51855000D01*
X37009158Y51912068D01*
X37279411Y52024010D01*
X37522632Y52186525D01*
X37729475Y52393368D01*
X37846000Y52567760D01*
X37962525Y52393368D01*
X38169368Y52186525D01*
X38412589Y52024010D01*
X38682842Y51912068D01*
X38969740Y51855000D01*
X39262260Y51855000D01*
X39549158Y51912068D01*
X39819411Y52024010D01*
X40062632Y52186525D01*
X40269475Y52393368D01*
X40391195Y52575534D01*
X40460822Y52458645D01*
X40655731Y52242412D01*
X40889080Y52068359D01*
X41151901Y51943175D01*
X41299110Y51898524D01*
X41529000Y52019845D01*
X41529000Y53213000D01*
X41509000Y53213000D01*
X41509000Y53467000D01*
X41529000Y53467000D01*
X41529000Y53487000D01*
X41783000Y53487000D01*
X41783000Y53467000D01*
G04 #@! TA.AperFunction,Conductor*
D18*
G36*
X41783000Y53467000D02*
G01*
X41803000Y53467000D01*
X41803000Y53213000D01*
X41783000Y53213000D01*
X41783000Y52019845D01*
X42012890Y51898524D01*
X42160099Y51943175D01*
X42422920Y52068359D01*
X42656269Y52242412D01*
X42851178Y52458645D01*
X42920805Y52575534D01*
X43042525Y52393368D01*
X43249368Y52186525D01*
X43492589Y52024010D01*
X43762842Y51912068D01*
X44049740Y51855000D01*
X44342260Y51855000D01*
X44629158Y51912068D01*
X44899411Y52024010D01*
X45142632Y52186525D01*
X45349475Y52393368D01*
X45466000Y52567760D01*
X45582525Y52393368D01*
X45789368Y52186525D01*
X46032589Y52024010D01*
X46050461Y52016607D01*
X44641454Y50607600D01*
X31527153Y50607600D01*
X31453405Y50656877D01*
X31292345Y50723590D01*
X31121365Y50757600D01*
X30947035Y50757600D01*
X30776055Y50723590D01*
X30614995Y50656877D01*
X30470045Y50560024D01*
X30346776Y50436755D01*
X30249923Y50291805D01*
X30183210Y50130745D01*
X30167368Y50051100D01*
X26342753Y50051100D01*
X26269005Y50100377D01*
X26107945Y50167090D01*
X25936965Y50201100D01*
X25762635Y50201100D01*
X25591655Y50167090D01*
X25430595Y50100377D01*
X25285645Y50003524D01*
X25256134Y49974013D01*
X23229857Y52000289D01*
X23442842Y51912068D01*
X23729740Y51855000D01*
X24022260Y51855000D01*
X24309158Y51912068D01*
X24579411Y52024010D01*
X24822632Y52186525D01*
X25029475Y52393368D01*
X25146000Y52567760D01*
X25262525Y52393368D01*
X25469368Y52186525D01*
X25712589Y52024010D01*
X25982842Y51912068D01*
X26269740Y51855000D01*
X26562260Y51855000D01*
X26849158Y51912068D01*
X27119411Y52024010D01*
X27362632Y52186525D01*
X27569475Y52393368D01*
X27686000Y52567760D01*
X27802525Y52393368D01*
X28009368Y52186525D01*
X28252589Y52024010D01*
X28522842Y51912068D01*
X28809740Y51855000D01*
X29102260Y51855000D01*
X29389158Y51912068D01*
X29659411Y52024010D01*
X29902632Y52186525D01*
X30109475Y52393368D01*
X30226000Y52567760D01*
X30342525Y52393368D01*
X30549368Y52186525D01*
X30792589Y52024010D01*
X31062842Y51912068D01*
X31349740Y51855000D01*
X31642260Y51855000D01*
X31929158Y51912068D01*
X32199411Y52024010D01*
X32442632Y52186525D01*
X32649475Y52393368D01*
X32766000Y52567760D01*
X32882525Y52393368D01*
X33089368Y52186525D01*
X33332589Y52024010D01*
X33602842Y51912068D01*
X33889740Y51855000D01*
X34182260Y51855000D01*
X34469158Y51912068D01*
X34739411Y52024010D01*
X34982632Y52186525D01*
X35189475Y52393368D01*
X35306000Y52567760D01*
X35422525Y52393368D01*
X35629368Y52186525D01*
X35872589Y52024010D01*
X36142842Y51912068D01*
X36429740Y51855000D01*
X36722260Y51855000D01*
X37009158Y51912068D01*
X37279411Y52024010D01*
X37522632Y52186525D01*
X37729475Y52393368D01*
X37846000Y52567760D01*
X37962525Y52393368D01*
X38169368Y52186525D01*
X38412589Y52024010D01*
X38682842Y51912068D01*
X38969740Y51855000D01*
X39262260Y51855000D01*
X39549158Y51912068D01*
X39819411Y52024010D01*
X40062632Y52186525D01*
X40269475Y52393368D01*
X40391195Y52575534D01*
X40460822Y52458645D01*
X40655731Y52242412D01*
X40889080Y52068359D01*
X41151901Y51943175D01*
X41299110Y51898524D01*
X41529000Y52019845D01*
X41529000Y53213000D01*
X41509000Y53213000D01*
X41509000Y53467000D01*
X41529000Y53467000D01*
X41529000Y53487000D01*
X41783000Y53487000D01*
X41783000Y53467000D01*
G37*
G04 #@! TD.AperFunction*
D17*
X24321901Y87484352D02*
X24321900Y57302654D01*
X24309158Y57307932D01*
X24022260Y57365000D01*
X23729740Y57365000D01*
X23442842Y57307932D01*
X23172589Y57195990D01*
X22929368Y57033475D01*
X22722525Y56826632D01*
X22600805Y56644466D01*
X22531178Y56761355D01*
X22336269Y56977588D01*
X22102920Y57151641D01*
X21840099Y57276825D01*
X21692890Y57321476D01*
X21463000Y57200155D01*
X21463000Y56007000D01*
X21483000Y56007000D01*
X21483000Y55753000D01*
X21463000Y55753000D01*
X21463000Y55733000D01*
X21209000Y55733000D01*
X21209000Y55753000D01*
X21189000Y55753000D01*
X21189000Y56007000D01*
X21209000Y56007000D01*
X21209000Y57200155D01*
X20979110Y57321476D01*
X20880700Y57291627D01*
X20880700Y87474954D01*
X21778747Y88373000D01*
X23433254Y88373000D01*
X24321901Y87484352D01*
G04 #@! TA.AperFunction,Conductor*
D18*
G36*
X24321901Y87484352D02*
G01*
X24321900Y57302654D01*
X24309158Y57307932D01*
X24022260Y57365000D01*
X23729740Y57365000D01*
X23442842Y57307932D01*
X23172589Y57195990D01*
X22929368Y57033475D01*
X22722525Y56826632D01*
X22600805Y56644466D01*
X22531178Y56761355D01*
X22336269Y56977588D01*
X22102920Y57151641D01*
X21840099Y57276825D01*
X21692890Y57321476D01*
X21463000Y57200155D01*
X21463000Y56007000D01*
X21483000Y56007000D01*
X21483000Y55753000D01*
X21463000Y55753000D01*
X21463000Y55733000D01*
X21209000Y55733000D01*
X21209000Y55753000D01*
X21189000Y55753000D01*
X21189000Y56007000D01*
X21209000Y56007000D01*
X21209000Y57200155D01*
X20979110Y57321476D01*
X20880700Y57291627D01*
X20880700Y87474954D01*
X21778747Y88373000D01*
X23433254Y88373000D01*
X24321901Y87484352D01*
G37*
G04 #@! TD.AperFunction*
M02*
