G04 #@! TF.GenerationSoftware,KiCad,Pcbnew,(5.1.9)-1*
G04 #@! TF.CreationDate,2022-06-04T11:55:27+09:00*
G04 #@! TF.ProjectId,mz-2000,6d7a2d32-3030-4302-9e6b-696361645f70,rev?*
G04 #@! TF.SameCoordinates,PX2faf080PY93d1cc0*
G04 #@! TF.FileFunction,Copper,L1,Top*
G04 #@! TF.FilePolarity,Positive*
%FSLAX46Y46*%
G04 Gerber Fmt 4.6, Leading zero omitted, Abs format (unit mm)*
G04 Created by KiCad (PCBNEW (5.1.9)-1) date 2022-06-04 11:55:27*
%MOMM*%
%LPD*%
G01*
G04 APERTURE LIST*
G04 #@! TA.AperFunction,ConnectorPad*
%ADD10R,1.780000X10.000000*%
G04 #@! TD*
G04 #@! TA.AperFunction,ComponentPad*
%ADD11O,1.700000X1.700000*%
G04 #@! TD*
G04 #@! TA.AperFunction,ComponentPad*
%ADD12R,1.700000X1.700000*%
G04 #@! TD*
G04 #@! TA.AperFunction,ComponentPad*
%ADD13R,3.500000X3.500000*%
G04 #@! TD*
G04 #@! TA.AperFunction,ViaPad*
%ADD14C,0.500000*%
G04 #@! TD*
G04 #@! TA.AperFunction,Conductor*
%ADD15C,0.400000*%
G04 #@! TD*
G04 #@! TA.AperFunction,Conductor*
%ADD16C,0.200000*%
G04 #@! TD*
G04 #@! TA.AperFunction,Conductor*
%ADD17C,0.254000*%
G04 #@! TD*
G04 #@! TA.AperFunction,Conductor*
%ADD18C,0.100000*%
G04 #@! TD*
G04 APERTURE END LIST*
D10*
X11176000Y94270000D03*
X13716000Y94270000D03*
X16256000Y94270000D03*
X18796000Y94270000D03*
X21336000Y94270000D03*
X23876000Y94270000D03*
X26416000Y94270000D03*
X28956000Y94270000D03*
X31496000Y94270000D03*
X34036000Y94270000D03*
X36576000Y94270000D03*
X39116000Y94270000D03*
X41656000Y94270000D03*
X44196000Y94270000D03*
X46736000Y94270000D03*
X49276000Y94270000D03*
X51816000Y94270000D03*
X54356000Y94270000D03*
X56896000Y94270000D03*
X59436000Y94270000D03*
X61976000Y94270000D03*
X64516000Y94270000D03*
D11*
X64516000Y55880000D03*
X64516000Y53340000D03*
X61976000Y55880000D03*
X61976000Y53340000D03*
X59436000Y55880000D03*
X59436000Y53340000D03*
X56896000Y55880000D03*
X56896000Y53340000D03*
X54356000Y55880000D03*
X54356000Y53340000D03*
X51816000Y55880000D03*
X51816000Y53340000D03*
X49276000Y55880000D03*
X49276000Y53340000D03*
X46736000Y55880000D03*
X46736000Y53340000D03*
X44196000Y55880000D03*
X44196000Y53340000D03*
X41656000Y55880000D03*
X41656000Y53340000D03*
X39116000Y55880000D03*
X39116000Y53340000D03*
X36576000Y55880000D03*
X36576000Y53340000D03*
X34036000Y55880000D03*
X34036000Y53340000D03*
X31496000Y55880000D03*
X31496000Y53340000D03*
X28956000Y55880000D03*
X28956000Y53340000D03*
X26416000Y55880000D03*
X26416000Y53340000D03*
X23876000Y55880000D03*
X23876000Y53340000D03*
X21336000Y55880000D03*
X21336000Y53340000D03*
X18796000Y55880000D03*
X18796000Y53340000D03*
X16256000Y55880000D03*
X16256000Y53340000D03*
X13716000Y55880000D03*
X13716000Y53340000D03*
X11176000Y55880000D03*
D12*
X11176000Y53340000D03*
D13*
X13970000Y19685000D03*
G04 #@! TA.AperFunction,ComponentPad*
G36*
G01*
X6470000Y18685000D02*
X6470000Y20685000D01*
G75*
G02*
X7220000Y21435000I750000J0D01*
G01*
X8720000Y21435000D01*
G75*
G02*
X9470000Y20685000I0J-750000D01*
G01*
X9470000Y18685000D01*
G75*
G02*
X8720000Y17935000I-750000J0D01*
G01*
X7220000Y17935000D01*
G75*
G02*
X6470000Y18685000I0J750000D01*
G01*
G37*
G04 #@! TD.AperFunction*
G04 #@! TA.AperFunction,ComponentPad*
G36*
G01*
X9220000Y14110000D02*
X9220000Y15860000D01*
G75*
G02*
X10095000Y16735000I875000J0D01*
G01*
X11845000Y16735000D01*
G75*
G02*
X12720000Y15860000I0J-875000D01*
G01*
X12720000Y14110000D01*
G75*
G02*
X11845000Y13235000I-875000J0D01*
G01*
X10095000Y13235000D01*
G75*
G02*
X9220000Y14110000I0J875000D01*
G01*
G37*
G04 #@! TD.AperFunction*
D12*
X74910000Y4596000D03*
D11*
X74910000Y7136000D03*
X72370000Y4596000D03*
X72370000Y7136000D03*
X69830000Y4596000D03*
X69830000Y7136000D03*
X67290000Y4596000D03*
X67290000Y7136000D03*
X64750000Y4596000D03*
X64750000Y7136000D03*
X62210000Y4596000D03*
X62210000Y7136000D03*
X59670000Y4596000D03*
X59670000Y7136000D03*
X57130000Y4596000D03*
X57130000Y7136000D03*
X54590000Y4596000D03*
X54590000Y7136000D03*
X52050000Y4596000D03*
X52050000Y7136000D03*
X49510000Y4596000D03*
X49510000Y7136000D03*
X46970000Y4596000D03*
X46970000Y7136000D03*
X44430000Y4596000D03*
X44430000Y7136000D03*
X41890000Y4596000D03*
X41890000Y7136000D03*
X39350000Y4596000D03*
X39350000Y7136000D03*
X36810000Y4596000D03*
X36810000Y7136000D03*
X34270000Y4596000D03*
X34270000Y7136000D03*
X31730000Y4596000D03*
X31730000Y7136000D03*
X29190000Y4596000D03*
X29190000Y7136000D03*
X26650000Y4596000D03*
X26650000Y7136000D03*
X24110000Y4596000D03*
X24110000Y7136000D03*
X21570000Y4596000D03*
X21570000Y7136000D03*
D12*
X5080000Y39370000D03*
D11*
X5080000Y36830000D03*
X5080000Y34290000D03*
D14*
X11176000Y87376000D03*
X64516000Y87376000D03*
X33347400Y8217100D03*
X63179000Y15055100D03*
X15621000Y87947500D03*
X63082100Y16261000D03*
X24653000Y41515500D03*
X30468300Y29868000D03*
X34455400Y18260900D03*
X36472500Y10372900D03*
X44196000Y18680300D03*
X42988300Y86995000D03*
X45545700Y86995000D03*
X31034200Y49872600D03*
X48977500Y87400100D03*
X51470100Y87567400D03*
X51816000Y16140300D03*
X25849800Y49316100D03*
X53962700Y87579500D03*
X32625200Y47554900D03*
X56455300Y87579500D03*
X29278000Y46574800D03*
X58947900Y87579500D03*
X29517500Y45451400D03*
X61440500Y87579500D03*
X31988100Y23268200D03*
D15*
X11176000Y55880000D02*
X11176000Y87376000D01*
X11176000Y53340000D02*
X11176000Y55880000D01*
X11176000Y87376000D02*
X11176000Y94270000D01*
X5080000Y36830000D02*
X11176000Y42926000D01*
X11176000Y42926000D02*
X11176000Y53340000D01*
D16*
X21336000Y55880000D02*
X21336000Y54729700D01*
X21336000Y55880000D02*
X21336000Y88969700D01*
X7970000Y19685000D02*
X3864200Y23790800D01*
X3864200Y23790800D02*
X3864200Y34776100D01*
X3864200Y34776100D02*
X4648100Y35560000D01*
X4648100Y35560000D02*
X5440300Y35560000D01*
X5440300Y35560000D02*
X20066000Y50185700D01*
X20066000Y50185700D02*
X20066000Y53698100D01*
X20066000Y53698100D02*
X21097600Y54729700D01*
X21097600Y54729700D02*
X21336000Y54729700D01*
X21336000Y94270000D02*
X21336000Y88969700D01*
X69830000Y7136000D02*
X69830000Y4596000D01*
D15*
X64516000Y87376000D02*
X64516000Y87249000D01*
X64516000Y94270000D02*
X64516000Y87376000D01*
D16*
X13716000Y55880000D02*
X13716000Y94270000D01*
X16256000Y55880000D02*
X16256000Y94270000D01*
X18796000Y55880000D02*
X18796000Y94270000D01*
X23876000Y55880000D02*
X23876000Y54729700D01*
X24110000Y4596000D02*
X22959700Y4596000D01*
X22959700Y4596000D02*
X22959700Y4308400D01*
X22959700Y4308400D02*
X22081400Y3430100D01*
X22081400Y3430100D02*
X21105000Y3430100D01*
X21105000Y3430100D02*
X20391500Y4143600D01*
X20391500Y4143600D02*
X20391500Y47164600D01*
X20391500Y47164600D02*
X22526400Y49299500D01*
X22526400Y49299500D02*
X22526400Y53618500D01*
X22526400Y53618500D02*
X23637600Y54729700D01*
X23637600Y54729700D02*
X23876000Y54729700D01*
X23876000Y94270000D02*
X23876000Y55880000D01*
X26416000Y55880000D02*
X26416000Y54729700D01*
X26650000Y4596000D02*
X26650000Y5746300D01*
X26650000Y5746300D02*
X26937700Y5746300D01*
X26937700Y5746300D02*
X27800300Y6608900D01*
X27800300Y6608900D02*
X27800300Y35437800D01*
X27800300Y35437800D02*
X30067900Y37705400D01*
X30067900Y37705400D02*
X30067900Y48743800D01*
X30067900Y48743800D02*
X27765600Y51046100D01*
X27765600Y51046100D02*
X27765600Y53618400D01*
X27765600Y53618400D02*
X26654300Y54729700D01*
X26654300Y54729700D02*
X26416000Y54729700D01*
X26416000Y55880000D02*
X26416000Y88969700D01*
X26416000Y94270000D02*
X26416000Y88969700D01*
X28956000Y55880000D02*
X28956000Y54729700D01*
X29190000Y4596000D02*
X29190000Y5746300D01*
X29190000Y5746300D02*
X29477700Y5746300D01*
X29477700Y5746300D02*
X30340300Y6608900D01*
X30340300Y6608900D02*
X30340300Y22398800D01*
X30340300Y22398800D02*
X31587700Y23646200D01*
X31587700Y23646200D02*
X31587700Y50672500D01*
X31587700Y50672500D02*
X30305600Y51954600D01*
X30305600Y51954600D02*
X30305600Y53618400D01*
X30305600Y53618400D02*
X29194300Y54729700D01*
X29194300Y54729700D02*
X28956000Y54729700D01*
X28956000Y94270000D02*
X28956000Y55880000D01*
X31730000Y5746300D02*
X32017600Y5746300D01*
X32017600Y5746300D02*
X32918000Y6646700D01*
X32918000Y6646700D02*
X32918000Y7866600D01*
X32918000Y7866600D02*
X32739200Y8045400D01*
X32739200Y8045400D02*
X32739200Y16757000D01*
X32739200Y16757000D02*
X33203000Y17220800D01*
X33203000Y17220800D02*
X33203000Y50078400D01*
X33203000Y50078400D02*
X32845600Y50435800D01*
X32845600Y50435800D02*
X32845600Y53618400D01*
X32845600Y53618400D02*
X31734300Y54729700D01*
X31734300Y54729700D02*
X31496000Y54729700D01*
X31496000Y55880000D02*
X31496000Y54729700D01*
X31730000Y4596000D02*
X31730000Y5746300D01*
X31496000Y55880000D02*
X31496000Y88969700D01*
X31496000Y94270000D02*
X31496000Y88969700D01*
X34036000Y55880000D02*
X34036000Y54729700D01*
X33347400Y8217100D02*
X35213300Y10083000D01*
X35213300Y10083000D02*
X35213300Y53790700D01*
X35213300Y53790700D02*
X34274300Y54729700D01*
X34274300Y54729700D02*
X34036000Y54729700D01*
X34036000Y94270000D02*
X34036000Y55880000D01*
X36810000Y5746300D02*
X36522400Y5746300D01*
X36522400Y5746300D02*
X35620900Y6647800D01*
X35620900Y6647800D02*
X35620900Y8707200D01*
X35620900Y8707200D02*
X37756900Y10843200D01*
X37756900Y10843200D02*
X37756900Y53787100D01*
X37756900Y53787100D02*
X36814300Y54729700D01*
X36814300Y54729700D02*
X36576000Y54729700D01*
X36576000Y55880000D02*
X36576000Y54729700D01*
X36810000Y4596000D02*
X36810000Y5746300D01*
X36576000Y88969700D02*
X36576000Y55880000D01*
X36576000Y94270000D02*
X36576000Y88969700D01*
X39116000Y55880000D02*
X39116000Y54729700D01*
X39350000Y4596000D02*
X39350000Y5746300D01*
X39350000Y5746300D02*
X39637600Y5746300D01*
X39637600Y5746300D02*
X40505600Y6614300D01*
X40505600Y6614300D02*
X40505600Y53578400D01*
X40505600Y53578400D02*
X39354300Y54729700D01*
X39354300Y54729700D02*
X39116000Y54729700D01*
X39116000Y94270000D02*
X39116000Y55880000D01*
X41656000Y55880000D02*
X41656000Y54729700D01*
X41890000Y4596000D02*
X41890000Y5746300D01*
X41890000Y5746300D02*
X42177600Y5746300D01*
X42177600Y5746300D02*
X43045600Y6614300D01*
X43045600Y6614300D02*
X43045600Y53578400D01*
X43045600Y53578400D02*
X41894300Y54729700D01*
X41894300Y54729700D02*
X41656000Y54729700D01*
X41656000Y55880000D02*
X41656000Y94270000D01*
X44196000Y55880000D02*
X44196000Y88969700D01*
X44430000Y5746300D02*
X44717600Y5746300D01*
X44717600Y5746300D02*
X45585600Y6614300D01*
X45585600Y6614300D02*
X45585600Y54490400D01*
X45585600Y54490400D02*
X44196000Y55880000D01*
X44196000Y94270000D02*
X44196000Y88969700D01*
X44430000Y4596000D02*
X44430000Y5746300D01*
X46736000Y55880000D02*
X46736000Y88969700D01*
X46736000Y55880000D02*
X46736000Y54729700D01*
X46970000Y5746300D02*
X47257600Y5746300D01*
X47257600Y5746300D02*
X48125600Y6614300D01*
X48125600Y6614300D02*
X48125600Y53578400D01*
X48125600Y53578400D02*
X46974300Y54729700D01*
X46974300Y54729700D02*
X46736000Y54729700D01*
X46736000Y94270000D02*
X46736000Y88969700D01*
X46970000Y4596000D02*
X46970000Y5746300D01*
X49276000Y55880000D02*
X49276000Y57030300D01*
X49276000Y57030300D02*
X49527800Y57282100D01*
X49527800Y57282100D02*
X49527800Y88717900D01*
X49527800Y88717900D02*
X49276000Y88969700D01*
X49510000Y5746300D02*
X49797600Y5746300D01*
X49797600Y5746300D02*
X50665600Y6614300D01*
X50665600Y6614300D02*
X50665600Y54490400D01*
X50665600Y54490400D02*
X49276000Y55880000D01*
X49276000Y94270000D02*
X49276000Y88969700D01*
X49510000Y4596000D02*
X49510000Y5746300D01*
X51816000Y55880000D02*
X51816000Y57030300D01*
X51816000Y57030300D02*
X52020400Y57234700D01*
X52020400Y57234700D02*
X52020400Y88765300D01*
X52020400Y88765300D02*
X51816000Y88969700D01*
X52050000Y5746300D02*
X52337600Y5746300D01*
X52337600Y5746300D02*
X53205600Y6614300D01*
X53205600Y6614300D02*
X53205600Y54490400D01*
X53205600Y54490400D02*
X51816000Y55880000D01*
X51816000Y94270000D02*
X51816000Y88969700D01*
X52050000Y4596000D02*
X52050000Y5746300D01*
X54356000Y94270000D02*
X54356000Y88969700D01*
X54356000Y55880000D02*
X54356000Y57030300D01*
X54356000Y57030300D02*
X54513000Y57187300D01*
X54513000Y57187300D02*
X54513000Y88812700D01*
X54513000Y88812700D02*
X54356000Y88969700D01*
X54590000Y4596000D02*
X54590000Y5746300D01*
X54590000Y5746300D02*
X54877600Y5746300D01*
X54877600Y5746300D02*
X55745600Y6614300D01*
X55745600Y6614300D02*
X55745600Y54490400D01*
X55745600Y54490400D02*
X54356000Y55880000D01*
X56896000Y94270000D02*
X56896000Y88969700D01*
X56896000Y55880000D02*
X56896000Y57030300D01*
X56896000Y57030300D02*
X57005600Y57139900D01*
X57005600Y57139900D02*
X57005600Y88860100D01*
X57005600Y88860100D02*
X56896000Y88969700D01*
X57130000Y4596000D02*
X57130000Y5746300D01*
X57130000Y5746300D02*
X57417600Y5746300D01*
X57417600Y5746300D02*
X58285600Y6614300D01*
X58285600Y6614300D02*
X58285600Y54490400D01*
X58285600Y54490400D02*
X56896000Y55880000D01*
X59670000Y4596000D02*
X59670000Y5746300D01*
X59670000Y5746300D02*
X59957600Y5746300D01*
X59957600Y5746300D02*
X60825600Y6614300D01*
X60825600Y6614300D02*
X60825600Y54490400D01*
X60825600Y54490400D02*
X59436000Y55880000D01*
X59436000Y94270000D02*
X59436000Y88969700D01*
X59436000Y55880000D02*
X59436000Y57030300D01*
X59436000Y57030300D02*
X59498200Y57092500D01*
X59498200Y57092500D02*
X59498200Y88907500D01*
X59498200Y88907500D02*
X59436000Y88969700D01*
X61976000Y55880000D02*
X63152700Y54703300D01*
X63152700Y54703300D02*
X63152700Y17109800D01*
X63152700Y17109800D02*
X62531800Y16488900D01*
X62531800Y16488900D02*
X62531800Y14924100D01*
X62531800Y14924100D02*
X63365600Y14090300D01*
X63365600Y14090300D02*
X63365600Y6614300D01*
X63365600Y6614300D02*
X62497600Y5746300D01*
X62497600Y5746300D02*
X62210000Y5746300D01*
X61976000Y55880000D02*
X61976000Y57030300D01*
X61976000Y57030300D02*
X61990800Y57045100D01*
X61990800Y57045100D02*
X61990800Y88954900D01*
X61990800Y88954900D02*
X61976000Y88969700D01*
X61976000Y94270000D02*
X61976000Y88969700D01*
X62210000Y4596000D02*
X62210000Y5746300D01*
X67290000Y4596000D02*
X67290000Y5746300D01*
X67290000Y5746300D02*
X67002300Y5746300D01*
X67002300Y5746300D02*
X66139700Y6608900D01*
X66139700Y6608900D02*
X66139700Y12094400D01*
X66139700Y12094400D02*
X63179000Y15055100D01*
X15088600Y55370100D02*
X15088600Y87630000D01*
X15968400Y54490300D02*
X15088600Y55370100D01*
X16256000Y54490300D02*
X15968400Y54490300D01*
X16256000Y53340000D02*
X16256000Y54490300D01*
X15088600Y87630000D02*
X15303500Y87630000D01*
X15303500Y87630000D02*
X15621000Y87947500D01*
X15621000Y87947500D02*
X15621000Y87947500D01*
X67290000Y7136000D02*
X67290000Y12053100D01*
X67290000Y12053100D02*
X63082100Y16261000D01*
X23876000Y53340000D02*
X23876000Y52189700D01*
X24653000Y41515500D02*
X24653000Y51412700D01*
X24653000Y51412700D02*
X23876000Y52189700D01*
X21570000Y5746300D02*
X21857700Y5746300D01*
X21857700Y5746300D02*
X22720300Y6608900D01*
X22720300Y6608900D02*
X22720300Y37901400D01*
X22720300Y37901400D02*
X26416000Y41597100D01*
X26416000Y41597100D02*
X26416000Y52189700D01*
X26416000Y53340000D02*
X26416000Y52189700D01*
X21570000Y4596000D02*
X21570000Y5746300D01*
X30468300Y29868000D02*
X30468300Y50677400D01*
X30468300Y50677400D02*
X28956000Y52189700D01*
X28956000Y53340000D02*
X28956000Y52189700D01*
X34455400Y18260900D02*
X34455400Y51770300D01*
X34455400Y51770300D02*
X34036000Y52189700D01*
X34036000Y53340000D02*
X34036000Y52189700D01*
X36472500Y10372900D02*
X36576000Y10476400D01*
X36576000Y10476400D02*
X36576000Y53340000D01*
X36810000Y7136000D02*
X36810000Y8286300D01*
X36810000Y8286300D02*
X39116000Y10592300D01*
X39116000Y10592300D02*
X39116000Y52189700D01*
X39116000Y53340000D02*
X39116000Y52189700D01*
X44196000Y18680300D02*
X44196000Y53340000D01*
X42988300Y55410400D02*
X42988300Y86995000D01*
X43908400Y54490300D02*
X42988300Y55410400D01*
X44196000Y54490300D02*
X43908400Y54490300D01*
X44196000Y53340000D02*
X44196000Y54490300D01*
X42988300Y86995000D02*
X42988300Y86995000D01*
X45545700Y55096600D02*
X45545700Y86995000D01*
X46736000Y53906300D02*
X45545700Y55096600D01*
X46736000Y53340000D02*
X46736000Y53906300D01*
X45545700Y86995000D02*
X45545700Y86995000D01*
X29190000Y8286300D02*
X29190000Y26099000D01*
X29190000Y26099000D02*
X31034200Y27943200D01*
X31034200Y27943200D02*
X31034200Y49872600D01*
X29190000Y7136000D02*
X29190000Y8286300D01*
X49276000Y53340000D02*
X49276000Y54490300D01*
X49276000Y54490300D02*
X48988400Y54490300D01*
X48988400Y54490300D02*
X48123600Y55355100D01*
X48123600Y55355100D02*
X48123600Y86546200D01*
X48123600Y86546200D02*
X48977500Y87400100D01*
X51816000Y53340000D02*
X51816000Y54490300D01*
X51816000Y54490300D02*
X51524000Y54490300D01*
X51524000Y54490300D02*
X50661500Y55352800D01*
X50661500Y55352800D02*
X50661500Y86758800D01*
X50661500Y86758800D02*
X51470100Y87567400D01*
X51816000Y16140300D02*
X51816000Y53340000D01*
X21570000Y7136000D02*
X21570000Y37600200D01*
X21570000Y37600200D02*
X25849800Y41880000D01*
X25849800Y41880000D02*
X25849800Y49316100D01*
X54356000Y53340000D02*
X54356000Y54490300D01*
X54356000Y54490300D02*
X54064000Y54490300D01*
X54064000Y54490300D02*
X53195600Y55358700D01*
X53195600Y55358700D02*
X53195600Y86812400D01*
X53195600Y86812400D02*
X53962700Y87579500D01*
X31730000Y7136000D02*
X31730000Y22116200D01*
X31730000Y22116200D02*
X32625200Y23011400D01*
X32625200Y23011400D02*
X32625200Y47554900D01*
X56896000Y53340000D02*
X56896000Y54490300D01*
X56896000Y54490300D02*
X56604000Y54490300D01*
X56604000Y54490300D02*
X55729700Y55364600D01*
X55729700Y55364600D02*
X55729700Y86853900D01*
X55729700Y86853900D02*
X56455300Y87579500D01*
X24110000Y8286300D02*
X26816400Y10992700D01*
X26816400Y10992700D02*
X26816400Y44113200D01*
X26816400Y44113200D02*
X29278000Y46574800D01*
X24110000Y7136000D02*
X24110000Y8286300D01*
X59436000Y53340000D02*
X59436000Y54490300D01*
X59436000Y54490300D02*
X59144000Y54490300D01*
X59144000Y54490300D02*
X58263700Y55370600D01*
X58263700Y55370600D02*
X58263700Y86895300D01*
X58263700Y86895300D02*
X58947900Y87579500D01*
X26650000Y8286300D02*
X27216800Y8853100D01*
X27216800Y8853100D02*
X27216800Y43150700D01*
X27216800Y43150700D02*
X29517500Y45451400D01*
X26650000Y7136000D02*
X26650000Y8286300D01*
X61976000Y53340000D02*
X61976000Y54490300D01*
X61976000Y54490300D02*
X61684000Y54490300D01*
X61684000Y54490300D02*
X60797800Y55376500D01*
X60797800Y55376500D02*
X60797800Y86936800D01*
X60797800Y86936800D02*
X61440500Y87579500D01*
X31988100Y23268200D02*
X31988100Y51697600D01*
X31988100Y51697600D02*
X31496000Y52189700D01*
X31496000Y53340000D02*
X31496000Y52189700D01*
D15*
X5080000Y34290000D02*
X5080000Y28575000D01*
X5080000Y28575000D02*
X13970000Y19685000D01*
D17*
X10341000Y87672749D02*
X10325010Y87634145D01*
X10291000Y87463165D01*
X10291000Y87288835D01*
X10325010Y87117855D01*
X10341001Y87079249D01*
X10341000Y57108065D01*
X10229368Y57033475D01*
X10022525Y56826632D01*
X9860010Y56583411D01*
X9748068Y56313158D01*
X9691000Y56026260D01*
X9691000Y55733740D01*
X9748068Y55446842D01*
X9860010Y55176589D01*
X10022525Y54933368D01*
X10154380Y54801513D01*
X10081820Y54779502D01*
X9971506Y54720537D01*
X9874815Y54641185D01*
X9795463Y54544494D01*
X9736498Y54434180D01*
X9700188Y54314482D01*
X9687928Y54190000D01*
X9687928Y52490000D01*
X9700188Y52365518D01*
X9736498Y52245820D01*
X9795463Y52135506D01*
X9874815Y52038815D01*
X9971506Y51959463D01*
X10081820Y51900498D01*
X10201518Y51864188D01*
X10326000Y51851928D01*
X10341001Y51851928D01*
X10341000Y43271869D01*
X6568072Y39498940D01*
X6568072Y40220000D01*
X6555812Y40344482D01*
X6519502Y40464180D01*
X6460537Y40574494D01*
X6381185Y40671185D01*
X6284494Y40750537D01*
X6174180Y40809502D01*
X6054482Y40845812D01*
X5930000Y40858072D01*
X4230000Y40858072D01*
X4105518Y40845812D01*
X3985820Y40809502D01*
X3875506Y40750537D01*
X3778815Y40671185D01*
X3699463Y40574494D01*
X3640498Y40464180D01*
X3604188Y40344482D01*
X3591928Y40220000D01*
X3591928Y38520000D01*
X3604188Y38395518D01*
X3640498Y38275820D01*
X3699463Y38165506D01*
X3778815Y38068815D01*
X3875506Y37989463D01*
X3985820Y37930498D01*
X4058380Y37908487D01*
X3926525Y37776632D01*
X3764010Y37533411D01*
X3652068Y37263158D01*
X3595000Y36976260D01*
X3595000Y36683740D01*
X3652068Y36396842D01*
X3764010Y36126589D01*
X3926525Y35883368D01*
X4133368Y35676525D01*
X4307760Y35560000D01*
X4133368Y35443475D01*
X3926525Y35236632D01*
X3764010Y34993411D01*
X3652068Y34723158D01*
X3595000Y34436260D01*
X3595000Y34143740D01*
X3652068Y33856842D01*
X3764010Y33586589D01*
X3926525Y33343368D01*
X4133368Y33136525D01*
X4245000Y33061935D01*
X4245001Y28616028D01*
X4240960Y28575000D01*
X4257082Y28411312D01*
X4304828Y28253914D01*
X4304829Y28253913D01*
X4382365Y28108854D01*
X4486710Y27981709D01*
X4518574Y27955559D01*
X11581928Y20892203D01*
X11581928Y17935000D01*
X11594188Y17810518D01*
X11630498Y17690820D01*
X11689463Y17580506D01*
X11768815Y17483815D01*
X11865506Y17404463D01*
X11942131Y17363506D01*
X11845000Y17373072D01*
X10095000Y17373072D01*
X9799814Y17343999D01*
X9515972Y17257896D01*
X9254382Y17118073D01*
X9025097Y16929903D01*
X8836927Y16700618D01*
X8697104Y16439028D01*
X8611001Y16155186D01*
X8581928Y15860000D01*
X8581928Y14110000D01*
X8611001Y13814814D01*
X8697104Y13530972D01*
X8836927Y13269382D01*
X9025097Y13040097D01*
X9254382Y12851927D01*
X9515972Y12712104D01*
X9799814Y12626001D01*
X10095000Y12596928D01*
X11845000Y12596928D01*
X12140186Y12626001D01*
X12424028Y12712104D01*
X12685618Y12851927D01*
X12914903Y13040097D01*
X13103073Y13269382D01*
X13242896Y13530972D01*
X13328999Y13814814D01*
X13358072Y14110000D01*
X13358072Y15860000D01*
X13328999Y16155186D01*
X13242896Y16439028D01*
X13103073Y16700618D01*
X12914903Y16929903D01*
X12685618Y17118073D01*
X12424028Y17257896D01*
X12295357Y17296928D01*
X15720000Y17296928D01*
X15844482Y17309188D01*
X15964180Y17345498D01*
X16074494Y17404463D01*
X16171185Y17483815D01*
X16250537Y17580506D01*
X16309502Y17690820D01*
X16345812Y17810518D01*
X16358072Y17935000D01*
X16358072Y21435000D01*
X16345812Y21559482D01*
X16309502Y21679180D01*
X16250537Y21789494D01*
X16171185Y21886185D01*
X16074494Y21965537D01*
X15964180Y22024502D01*
X15844482Y22060812D01*
X15720000Y22073072D01*
X12762797Y22073072D01*
X5915000Y28920867D01*
X5915000Y33061935D01*
X6026632Y33136525D01*
X6233475Y33343368D01*
X6395990Y33586589D01*
X6507932Y33856842D01*
X6565000Y34143740D01*
X6565000Y34436260D01*
X6507932Y34723158D01*
X6395990Y34993411D01*
X6233475Y35236632D01*
X6026632Y35443475D01*
X5852240Y35560000D01*
X6026632Y35676525D01*
X6233475Y35883368D01*
X6395990Y36126589D01*
X6507932Y36396842D01*
X6565000Y36683740D01*
X6565000Y36976260D01*
X6538807Y37107940D01*
X11737433Y42306564D01*
X11769291Y42332709D01*
X11797015Y42366490D01*
X11873636Y42459854D01*
X11951172Y42604913D01*
X11998918Y42762311D01*
X12015040Y42926000D01*
X12011000Y42967018D01*
X12011000Y51851928D01*
X12026000Y51851928D01*
X12150482Y51864188D01*
X12270180Y51900498D01*
X12380494Y51959463D01*
X12477185Y52038815D01*
X12556537Y52135506D01*
X12615502Y52245820D01*
X12637513Y52318380D01*
X12769368Y52186525D01*
X13012589Y52024010D01*
X13282842Y51912068D01*
X13569740Y51855000D01*
X13862260Y51855000D01*
X14149158Y51912068D01*
X14419411Y52024010D01*
X14662632Y52186525D01*
X14869475Y52393368D01*
X14986000Y52567760D01*
X15102525Y52393368D01*
X15309368Y52186525D01*
X15552589Y52024010D01*
X15822842Y51912068D01*
X16109740Y51855000D01*
X16402260Y51855000D01*
X16689158Y51912068D01*
X16959411Y52024010D01*
X17202632Y52186525D01*
X17409475Y52393368D01*
X17526000Y52567760D01*
X17642525Y52393368D01*
X17849368Y52186525D01*
X18092589Y52024010D01*
X18362842Y51912068D01*
X18649740Y51855000D01*
X18942260Y51855000D01*
X19229158Y51912068D01*
X19499411Y52024010D01*
X19742632Y52186525D01*
X19949475Y52393368D01*
X20066000Y52567760D01*
X20182525Y52393368D01*
X20389368Y52186525D01*
X20632589Y52024010D01*
X20902842Y51912068D01*
X21189740Y51855000D01*
X21482260Y51855000D01*
X21769158Y51912068D01*
X21791401Y51921281D01*
X21791400Y49603947D01*
X19897308Y47709854D01*
X19869263Y47686838D01*
X19777414Y47574920D01*
X19720123Y47467735D01*
X19709164Y47447233D01*
X19667135Y47308685D01*
X19652944Y47164600D01*
X19656501Y47128485D01*
X19656500Y4179705D01*
X19652944Y4143600D01*
X19664550Y4025766D01*
X19667135Y3999516D01*
X19709163Y3860968D01*
X19777413Y3733281D01*
X19869262Y3621363D01*
X19897308Y3598346D01*
X20559746Y2935907D01*
X20582762Y2907862D01*
X20694680Y2816013D01*
X20822367Y2747763D01*
X20960915Y2705735D01*
X21068895Y2695100D01*
X21068904Y2695100D01*
X21104999Y2691545D01*
X21141094Y2695100D01*
X22045295Y2695100D01*
X22081400Y2691544D01*
X22117505Y2695100D01*
X22225485Y2705735D01*
X22364033Y2747763D01*
X22491720Y2816013D01*
X22603638Y2907862D01*
X22626658Y2935912D01*
X23148320Y3457573D01*
X23163368Y3442525D01*
X23406589Y3280010D01*
X23676842Y3168068D01*
X23963740Y3111000D01*
X24256260Y3111000D01*
X24543158Y3168068D01*
X24813411Y3280010D01*
X25056632Y3442525D01*
X25263475Y3649368D01*
X25380000Y3823760D01*
X25496525Y3649368D01*
X25703368Y3442525D01*
X25946589Y3280010D01*
X26216842Y3168068D01*
X26503740Y3111000D01*
X26796260Y3111000D01*
X27083158Y3168068D01*
X27353411Y3280010D01*
X27596632Y3442525D01*
X27803475Y3649368D01*
X27920000Y3823760D01*
X28036525Y3649368D01*
X28243368Y3442525D01*
X28486589Y3280010D01*
X28756842Y3168068D01*
X29043740Y3111000D01*
X29336260Y3111000D01*
X29623158Y3168068D01*
X29893411Y3280010D01*
X30136632Y3442525D01*
X30343475Y3649368D01*
X30460000Y3823760D01*
X30576525Y3649368D01*
X30783368Y3442525D01*
X31026589Y3280010D01*
X31296842Y3168068D01*
X31583740Y3111000D01*
X31876260Y3111000D01*
X32163158Y3168068D01*
X32433411Y3280010D01*
X32676632Y3442525D01*
X32883475Y3649368D01*
X33000000Y3823760D01*
X33116525Y3649368D01*
X33323368Y3442525D01*
X33566589Y3280010D01*
X33836842Y3168068D01*
X34123740Y3111000D01*
X34416260Y3111000D01*
X34703158Y3168068D01*
X34973411Y3280010D01*
X35216632Y3442525D01*
X35423475Y3649368D01*
X35540000Y3823760D01*
X35656525Y3649368D01*
X35863368Y3442525D01*
X36106589Y3280010D01*
X36376842Y3168068D01*
X36663740Y3111000D01*
X36956260Y3111000D01*
X37243158Y3168068D01*
X37513411Y3280010D01*
X37756632Y3442525D01*
X37963475Y3649368D01*
X38080000Y3823760D01*
X38196525Y3649368D01*
X38403368Y3442525D01*
X38646589Y3280010D01*
X38916842Y3168068D01*
X39203740Y3111000D01*
X39496260Y3111000D01*
X39783158Y3168068D01*
X40053411Y3280010D01*
X40296632Y3442525D01*
X40503475Y3649368D01*
X40620000Y3823760D01*
X40736525Y3649368D01*
X40943368Y3442525D01*
X41186589Y3280010D01*
X41456842Y3168068D01*
X41743740Y3111000D01*
X42036260Y3111000D01*
X42323158Y3168068D01*
X42593411Y3280010D01*
X42836632Y3442525D01*
X43043475Y3649368D01*
X43160000Y3823760D01*
X43276525Y3649368D01*
X43483368Y3442525D01*
X43726589Y3280010D01*
X43996842Y3168068D01*
X44283740Y3111000D01*
X44576260Y3111000D01*
X44863158Y3168068D01*
X45133411Y3280010D01*
X45376632Y3442525D01*
X45583475Y3649368D01*
X45700000Y3823760D01*
X45816525Y3649368D01*
X46023368Y3442525D01*
X46266589Y3280010D01*
X46536842Y3168068D01*
X46823740Y3111000D01*
X47116260Y3111000D01*
X47403158Y3168068D01*
X47673411Y3280010D01*
X47916632Y3442525D01*
X48123475Y3649368D01*
X48240000Y3823760D01*
X48356525Y3649368D01*
X48563368Y3442525D01*
X48806589Y3280010D01*
X49076842Y3168068D01*
X49363740Y3111000D01*
X49656260Y3111000D01*
X49943158Y3168068D01*
X50213411Y3280010D01*
X50456632Y3442525D01*
X50663475Y3649368D01*
X50780000Y3823760D01*
X50896525Y3649368D01*
X51103368Y3442525D01*
X51346589Y3280010D01*
X51616842Y3168068D01*
X51903740Y3111000D01*
X52196260Y3111000D01*
X52483158Y3168068D01*
X52753411Y3280010D01*
X52996632Y3442525D01*
X53203475Y3649368D01*
X53320000Y3823760D01*
X53436525Y3649368D01*
X53643368Y3442525D01*
X53886589Y3280010D01*
X54156842Y3168068D01*
X54443740Y3111000D01*
X54736260Y3111000D01*
X55023158Y3168068D01*
X55293411Y3280010D01*
X55536632Y3442525D01*
X55743475Y3649368D01*
X55860000Y3823760D01*
X55976525Y3649368D01*
X56183368Y3442525D01*
X56426589Y3280010D01*
X56696842Y3168068D01*
X56983740Y3111000D01*
X57276260Y3111000D01*
X57563158Y3168068D01*
X57833411Y3280010D01*
X58076632Y3442525D01*
X58283475Y3649368D01*
X58400000Y3823760D01*
X58516525Y3649368D01*
X58723368Y3442525D01*
X58966589Y3280010D01*
X59236842Y3168068D01*
X59523740Y3111000D01*
X59816260Y3111000D01*
X60103158Y3168068D01*
X60373411Y3280010D01*
X60616632Y3442525D01*
X60823475Y3649368D01*
X60940000Y3823760D01*
X61056525Y3649368D01*
X61263368Y3442525D01*
X61506589Y3280010D01*
X61776842Y3168068D01*
X62063740Y3111000D01*
X62356260Y3111000D01*
X62643158Y3168068D01*
X62913411Y3280010D01*
X63156632Y3442525D01*
X63363475Y3649368D01*
X63480000Y3823760D01*
X63596525Y3649368D01*
X63803368Y3442525D01*
X64046589Y3280010D01*
X64316842Y3168068D01*
X64603740Y3111000D01*
X64896260Y3111000D01*
X65183158Y3168068D01*
X65453411Y3280010D01*
X65696632Y3442525D01*
X65903475Y3649368D01*
X66020000Y3823760D01*
X66136525Y3649368D01*
X66343368Y3442525D01*
X66586589Y3280010D01*
X66856842Y3168068D01*
X67143740Y3111000D01*
X67436260Y3111000D01*
X67723158Y3168068D01*
X67993411Y3280010D01*
X68236632Y3442525D01*
X68443475Y3649368D01*
X68565195Y3831534D01*
X68634822Y3714645D01*
X68829731Y3498412D01*
X69063080Y3324359D01*
X69325901Y3199175D01*
X69473110Y3154524D01*
X69703000Y3275845D01*
X69703000Y4469000D01*
X69683000Y4469000D01*
X69683000Y4723000D01*
X69703000Y4723000D01*
X69703000Y7009000D01*
X69683000Y7009000D01*
X69683000Y7263000D01*
X69703000Y7263000D01*
X69703000Y8456155D01*
X69957000Y8456155D01*
X69957000Y7263000D01*
X69977000Y7263000D01*
X69977000Y7009000D01*
X69957000Y7009000D01*
X69957000Y4723000D01*
X69977000Y4723000D01*
X69977000Y4469000D01*
X69957000Y4469000D01*
X69957000Y3275845D01*
X70186890Y3154524D01*
X70334099Y3199175D01*
X70596920Y3324359D01*
X70830269Y3498412D01*
X71025178Y3714645D01*
X71094805Y3831534D01*
X71216525Y3649368D01*
X71423368Y3442525D01*
X71666589Y3280010D01*
X71936842Y3168068D01*
X72223740Y3111000D01*
X72516260Y3111000D01*
X72803158Y3168068D01*
X73073411Y3280010D01*
X73316632Y3442525D01*
X73448487Y3574380D01*
X73470498Y3501820D01*
X73529463Y3391506D01*
X73608815Y3294815D01*
X73705506Y3215463D01*
X73815820Y3156498D01*
X73935518Y3120188D01*
X74060000Y3107928D01*
X75760000Y3107928D01*
X75884482Y3120188D01*
X76004180Y3156498D01*
X76114494Y3215463D01*
X76211185Y3294815D01*
X76290537Y3391506D01*
X76349502Y3501820D01*
X76385812Y3621518D01*
X76398072Y3746000D01*
X76398072Y5220128D01*
X92765000Y5220128D01*
X92765000Y4779872D01*
X92850890Y4348075D01*
X93019369Y3941331D01*
X93263962Y3575271D01*
X93575271Y3263962D01*
X93941331Y3019369D01*
X94348075Y2850890D01*
X94779872Y2765000D01*
X95220128Y2765000D01*
X95651925Y2850890D01*
X96058669Y3019369D01*
X96424729Y3263962D01*
X96736038Y3575271D01*
X96980631Y3941331D01*
X97149110Y4348075D01*
X97235000Y4779872D01*
X97235000Y5220128D01*
X97149110Y5651925D01*
X96980631Y6058669D01*
X96736038Y6424729D01*
X96424729Y6736038D01*
X96058669Y6980631D01*
X95651925Y7149110D01*
X95220128Y7235000D01*
X94779872Y7235000D01*
X94348075Y7149110D01*
X93941331Y6980631D01*
X93575271Y6736038D01*
X93263962Y6424729D01*
X93019369Y6058669D01*
X92850890Y5651925D01*
X92765000Y5220128D01*
X76398072Y5220128D01*
X76398072Y5446000D01*
X76385812Y5570482D01*
X76349502Y5690180D01*
X76290537Y5800494D01*
X76211185Y5897185D01*
X76114494Y5976537D01*
X76004180Y6035502D01*
X75931620Y6057513D01*
X76063475Y6189368D01*
X76225990Y6432589D01*
X76337932Y6702842D01*
X76395000Y6989740D01*
X76395000Y7282260D01*
X76337932Y7569158D01*
X76225990Y7839411D01*
X76063475Y8082632D01*
X75856632Y8289475D01*
X75613411Y8451990D01*
X75343158Y8563932D01*
X75056260Y8621000D01*
X74763740Y8621000D01*
X74476842Y8563932D01*
X74206589Y8451990D01*
X73963368Y8289475D01*
X73756525Y8082632D01*
X73640000Y7908240D01*
X73523475Y8082632D01*
X73316632Y8289475D01*
X73073411Y8451990D01*
X72803158Y8563932D01*
X72516260Y8621000D01*
X72223740Y8621000D01*
X71936842Y8563932D01*
X71666589Y8451990D01*
X71423368Y8289475D01*
X71216525Y8082632D01*
X71094805Y7900466D01*
X71025178Y8017355D01*
X70830269Y8233588D01*
X70596920Y8407641D01*
X70334099Y8532825D01*
X70186890Y8577476D01*
X69957000Y8456155D01*
X69703000Y8456155D01*
X69473110Y8577476D01*
X69325901Y8532825D01*
X69063080Y8407641D01*
X68829731Y8233588D01*
X68634822Y8017355D01*
X68565195Y7900466D01*
X68443475Y8082632D01*
X68236632Y8289475D01*
X68025000Y8430883D01*
X68025000Y12017006D01*
X68028555Y12053101D01*
X68025000Y12089196D01*
X68025000Y12089205D01*
X68014365Y12197185D01*
X67972337Y12335733D01*
X67904087Y12463420D01*
X67812238Y12575338D01*
X67784193Y12598354D01*
X63950394Y16432152D01*
X63933090Y16519145D01*
X63866377Y16680205D01*
X63805324Y16771577D01*
X63835037Y16827167D01*
X63877065Y16965715D01*
X63887700Y17073695D01*
X63887700Y17073704D01*
X63891255Y17109799D01*
X63887700Y17145894D01*
X63887700Y52002333D01*
X64011901Y51943175D01*
X64159110Y51898524D01*
X64389000Y52019845D01*
X64389000Y53213000D01*
X64643000Y53213000D01*
X64643000Y52019845D01*
X64872890Y51898524D01*
X65020099Y51943175D01*
X65282920Y52068359D01*
X65516269Y52242412D01*
X65711178Y52458645D01*
X65860157Y52708748D01*
X65957481Y52983109D01*
X65836814Y53213000D01*
X64643000Y53213000D01*
X64389000Y53213000D01*
X64369000Y53213000D01*
X64369000Y53467000D01*
X64389000Y53467000D01*
X64389000Y55753000D01*
X64643000Y55753000D01*
X64643000Y53467000D01*
X65836814Y53467000D01*
X65957481Y53696891D01*
X65860157Y53971252D01*
X65711178Y54221355D01*
X65516269Y54437588D01*
X65285120Y54610000D01*
X65516269Y54782412D01*
X65711178Y54998645D01*
X65860157Y55248748D01*
X65957481Y55523109D01*
X65836814Y55753000D01*
X64643000Y55753000D01*
X64389000Y55753000D01*
X64369000Y55753000D01*
X64369000Y56007000D01*
X64389000Y56007000D01*
X64389000Y57200155D01*
X64643000Y57200155D01*
X64643000Y56007000D01*
X65836814Y56007000D01*
X65957481Y56236891D01*
X65860157Y56511252D01*
X65711178Y56761355D01*
X65516269Y56977588D01*
X65282920Y57151641D01*
X65020099Y57276825D01*
X64872890Y57321476D01*
X64643000Y57200155D01*
X64389000Y57200155D01*
X64159110Y57321476D01*
X64011901Y57276825D01*
X63749080Y57151641D01*
X63515731Y56977588D01*
X63320822Y56761355D01*
X63251195Y56644466D01*
X63129475Y56826632D01*
X62922632Y57033475D01*
X62725800Y57164994D01*
X62725800Y88373000D01*
X99340001Y88373000D01*
X99340000Y660000D01*
X660000Y660000D01*
X660000Y5220128D01*
X2765000Y5220128D01*
X2765000Y4779872D01*
X2850890Y4348075D01*
X3019369Y3941331D01*
X3263962Y3575271D01*
X3575271Y3263962D01*
X3941331Y3019369D01*
X4348075Y2850890D01*
X4779872Y2765000D01*
X5220128Y2765000D01*
X5651925Y2850890D01*
X6058669Y3019369D01*
X6424729Y3263962D01*
X6736038Y3575271D01*
X6980631Y3941331D01*
X7149110Y4348075D01*
X7235000Y4779872D01*
X7235000Y5220128D01*
X7149110Y5651925D01*
X6980631Y6058669D01*
X6736038Y6424729D01*
X6424729Y6736038D01*
X6058669Y6980631D01*
X5651925Y7149110D01*
X5220128Y7235000D01*
X4779872Y7235000D01*
X4348075Y7149110D01*
X3941331Y6980631D01*
X3575271Y6736038D01*
X3263962Y6424729D01*
X3019369Y6058669D01*
X2850890Y5651925D01*
X2765000Y5220128D01*
X660000Y5220128D01*
X660000Y17935000D01*
X5831928Y17935000D01*
X5844188Y17810518D01*
X5880498Y17690820D01*
X5939463Y17580506D01*
X6018815Y17483815D01*
X6115506Y17404463D01*
X6225820Y17345498D01*
X6345518Y17309188D01*
X6470000Y17296928D01*
X7684250Y17300000D01*
X7843000Y17458750D01*
X7843000Y19558000D01*
X8097000Y19558000D01*
X8097000Y17458750D01*
X8255750Y17300000D01*
X9470000Y17296928D01*
X9594482Y17309188D01*
X9714180Y17345498D01*
X9824494Y17404463D01*
X9921185Y17483815D01*
X10000537Y17580506D01*
X10059502Y17690820D01*
X10095812Y17810518D01*
X10108072Y17935000D01*
X10105000Y19399250D01*
X9946250Y19558000D01*
X8097000Y19558000D01*
X7843000Y19558000D01*
X5993750Y19558000D01*
X5835000Y19399250D01*
X5831928Y17935000D01*
X660000Y17935000D01*
X660000Y21435000D01*
X5831928Y21435000D01*
X5835000Y19970750D01*
X5993750Y19812000D01*
X7843000Y19812000D01*
X7843000Y21911250D01*
X8097000Y21911250D01*
X8097000Y19812000D01*
X9946250Y19812000D01*
X10105000Y19970750D01*
X10108072Y21435000D01*
X10095812Y21559482D01*
X10059502Y21679180D01*
X10000537Y21789494D01*
X9921185Y21886185D01*
X9824494Y21965537D01*
X9714180Y22024502D01*
X9594482Y22060812D01*
X9470000Y22073072D01*
X8255750Y22070000D01*
X8097000Y21911250D01*
X7843000Y21911250D01*
X7684250Y22070000D01*
X6470000Y22073072D01*
X6345518Y22060812D01*
X6225820Y22024502D01*
X6115506Y21965537D01*
X6018815Y21886185D01*
X5939463Y21789494D01*
X5880498Y21679180D01*
X5844188Y21559482D01*
X5831928Y21435000D01*
X660000Y21435000D01*
X660000Y79220128D01*
X2765000Y79220128D01*
X2765000Y78779872D01*
X2850890Y78348075D01*
X3019369Y77941331D01*
X3263962Y77575271D01*
X3575271Y77263962D01*
X3941331Y77019369D01*
X4348075Y76850890D01*
X4779872Y76765000D01*
X5220128Y76765000D01*
X5651925Y76850890D01*
X6058669Y77019369D01*
X6424729Y77263962D01*
X6736038Y77575271D01*
X6980631Y77941331D01*
X7149110Y78348075D01*
X7235000Y78779872D01*
X7235000Y79220128D01*
X7149110Y79651925D01*
X6980631Y80058669D01*
X6736038Y80424729D01*
X6424729Y80736038D01*
X6058669Y80980631D01*
X5651925Y81149110D01*
X5220128Y81235000D01*
X4779872Y81235000D01*
X4348075Y81149110D01*
X3941331Y80980631D01*
X3575271Y80736038D01*
X3263962Y80424729D01*
X3019369Y80058669D01*
X2850890Y79651925D01*
X2765000Y79220128D01*
X660000Y79220128D01*
X660000Y88373000D01*
X10341000Y88373000D01*
X10341000Y87672749D01*
G04 #@! TA.AperFunction,Conductor*
D18*
G36*
X10341000Y87672749D02*
G01*
X10325010Y87634145D01*
X10291000Y87463165D01*
X10291000Y87288835D01*
X10325010Y87117855D01*
X10341001Y87079249D01*
X10341000Y57108065D01*
X10229368Y57033475D01*
X10022525Y56826632D01*
X9860010Y56583411D01*
X9748068Y56313158D01*
X9691000Y56026260D01*
X9691000Y55733740D01*
X9748068Y55446842D01*
X9860010Y55176589D01*
X10022525Y54933368D01*
X10154380Y54801513D01*
X10081820Y54779502D01*
X9971506Y54720537D01*
X9874815Y54641185D01*
X9795463Y54544494D01*
X9736498Y54434180D01*
X9700188Y54314482D01*
X9687928Y54190000D01*
X9687928Y52490000D01*
X9700188Y52365518D01*
X9736498Y52245820D01*
X9795463Y52135506D01*
X9874815Y52038815D01*
X9971506Y51959463D01*
X10081820Y51900498D01*
X10201518Y51864188D01*
X10326000Y51851928D01*
X10341001Y51851928D01*
X10341000Y43271869D01*
X6568072Y39498940D01*
X6568072Y40220000D01*
X6555812Y40344482D01*
X6519502Y40464180D01*
X6460537Y40574494D01*
X6381185Y40671185D01*
X6284494Y40750537D01*
X6174180Y40809502D01*
X6054482Y40845812D01*
X5930000Y40858072D01*
X4230000Y40858072D01*
X4105518Y40845812D01*
X3985820Y40809502D01*
X3875506Y40750537D01*
X3778815Y40671185D01*
X3699463Y40574494D01*
X3640498Y40464180D01*
X3604188Y40344482D01*
X3591928Y40220000D01*
X3591928Y38520000D01*
X3604188Y38395518D01*
X3640498Y38275820D01*
X3699463Y38165506D01*
X3778815Y38068815D01*
X3875506Y37989463D01*
X3985820Y37930498D01*
X4058380Y37908487D01*
X3926525Y37776632D01*
X3764010Y37533411D01*
X3652068Y37263158D01*
X3595000Y36976260D01*
X3595000Y36683740D01*
X3652068Y36396842D01*
X3764010Y36126589D01*
X3926525Y35883368D01*
X4133368Y35676525D01*
X4307760Y35560000D01*
X4133368Y35443475D01*
X3926525Y35236632D01*
X3764010Y34993411D01*
X3652068Y34723158D01*
X3595000Y34436260D01*
X3595000Y34143740D01*
X3652068Y33856842D01*
X3764010Y33586589D01*
X3926525Y33343368D01*
X4133368Y33136525D01*
X4245000Y33061935D01*
X4245001Y28616028D01*
X4240960Y28575000D01*
X4257082Y28411312D01*
X4304828Y28253914D01*
X4304829Y28253913D01*
X4382365Y28108854D01*
X4486710Y27981709D01*
X4518574Y27955559D01*
X11581928Y20892203D01*
X11581928Y17935000D01*
X11594188Y17810518D01*
X11630498Y17690820D01*
X11689463Y17580506D01*
X11768815Y17483815D01*
X11865506Y17404463D01*
X11942131Y17363506D01*
X11845000Y17373072D01*
X10095000Y17373072D01*
X9799814Y17343999D01*
X9515972Y17257896D01*
X9254382Y17118073D01*
X9025097Y16929903D01*
X8836927Y16700618D01*
X8697104Y16439028D01*
X8611001Y16155186D01*
X8581928Y15860000D01*
X8581928Y14110000D01*
X8611001Y13814814D01*
X8697104Y13530972D01*
X8836927Y13269382D01*
X9025097Y13040097D01*
X9254382Y12851927D01*
X9515972Y12712104D01*
X9799814Y12626001D01*
X10095000Y12596928D01*
X11845000Y12596928D01*
X12140186Y12626001D01*
X12424028Y12712104D01*
X12685618Y12851927D01*
X12914903Y13040097D01*
X13103073Y13269382D01*
X13242896Y13530972D01*
X13328999Y13814814D01*
X13358072Y14110000D01*
X13358072Y15860000D01*
X13328999Y16155186D01*
X13242896Y16439028D01*
X13103073Y16700618D01*
X12914903Y16929903D01*
X12685618Y17118073D01*
X12424028Y17257896D01*
X12295357Y17296928D01*
X15720000Y17296928D01*
X15844482Y17309188D01*
X15964180Y17345498D01*
X16074494Y17404463D01*
X16171185Y17483815D01*
X16250537Y17580506D01*
X16309502Y17690820D01*
X16345812Y17810518D01*
X16358072Y17935000D01*
X16358072Y21435000D01*
X16345812Y21559482D01*
X16309502Y21679180D01*
X16250537Y21789494D01*
X16171185Y21886185D01*
X16074494Y21965537D01*
X15964180Y22024502D01*
X15844482Y22060812D01*
X15720000Y22073072D01*
X12762797Y22073072D01*
X5915000Y28920867D01*
X5915000Y33061935D01*
X6026632Y33136525D01*
X6233475Y33343368D01*
X6395990Y33586589D01*
X6507932Y33856842D01*
X6565000Y34143740D01*
X6565000Y34436260D01*
X6507932Y34723158D01*
X6395990Y34993411D01*
X6233475Y35236632D01*
X6026632Y35443475D01*
X5852240Y35560000D01*
X6026632Y35676525D01*
X6233475Y35883368D01*
X6395990Y36126589D01*
X6507932Y36396842D01*
X6565000Y36683740D01*
X6565000Y36976260D01*
X6538807Y37107940D01*
X11737433Y42306564D01*
X11769291Y42332709D01*
X11797015Y42366490D01*
X11873636Y42459854D01*
X11951172Y42604913D01*
X11998918Y42762311D01*
X12015040Y42926000D01*
X12011000Y42967018D01*
X12011000Y51851928D01*
X12026000Y51851928D01*
X12150482Y51864188D01*
X12270180Y51900498D01*
X12380494Y51959463D01*
X12477185Y52038815D01*
X12556537Y52135506D01*
X12615502Y52245820D01*
X12637513Y52318380D01*
X12769368Y52186525D01*
X13012589Y52024010D01*
X13282842Y51912068D01*
X13569740Y51855000D01*
X13862260Y51855000D01*
X14149158Y51912068D01*
X14419411Y52024010D01*
X14662632Y52186525D01*
X14869475Y52393368D01*
X14986000Y52567760D01*
X15102525Y52393368D01*
X15309368Y52186525D01*
X15552589Y52024010D01*
X15822842Y51912068D01*
X16109740Y51855000D01*
X16402260Y51855000D01*
X16689158Y51912068D01*
X16959411Y52024010D01*
X17202632Y52186525D01*
X17409475Y52393368D01*
X17526000Y52567760D01*
X17642525Y52393368D01*
X17849368Y52186525D01*
X18092589Y52024010D01*
X18362842Y51912068D01*
X18649740Y51855000D01*
X18942260Y51855000D01*
X19229158Y51912068D01*
X19499411Y52024010D01*
X19742632Y52186525D01*
X19949475Y52393368D01*
X20066000Y52567760D01*
X20182525Y52393368D01*
X20389368Y52186525D01*
X20632589Y52024010D01*
X20902842Y51912068D01*
X21189740Y51855000D01*
X21482260Y51855000D01*
X21769158Y51912068D01*
X21791401Y51921281D01*
X21791400Y49603947D01*
X19897308Y47709854D01*
X19869263Y47686838D01*
X19777414Y47574920D01*
X19720123Y47467735D01*
X19709164Y47447233D01*
X19667135Y47308685D01*
X19652944Y47164600D01*
X19656501Y47128485D01*
X19656500Y4179705D01*
X19652944Y4143600D01*
X19664550Y4025766D01*
X19667135Y3999516D01*
X19709163Y3860968D01*
X19777413Y3733281D01*
X19869262Y3621363D01*
X19897308Y3598346D01*
X20559746Y2935907D01*
X20582762Y2907862D01*
X20694680Y2816013D01*
X20822367Y2747763D01*
X20960915Y2705735D01*
X21068895Y2695100D01*
X21068904Y2695100D01*
X21104999Y2691545D01*
X21141094Y2695100D01*
X22045295Y2695100D01*
X22081400Y2691544D01*
X22117505Y2695100D01*
X22225485Y2705735D01*
X22364033Y2747763D01*
X22491720Y2816013D01*
X22603638Y2907862D01*
X22626658Y2935912D01*
X23148320Y3457573D01*
X23163368Y3442525D01*
X23406589Y3280010D01*
X23676842Y3168068D01*
X23963740Y3111000D01*
X24256260Y3111000D01*
X24543158Y3168068D01*
X24813411Y3280010D01*
X25056632Y3442525D01*
X25263475Y3649368D01*
X25380000Y3823760D01*
X25496525Y3649368D01*
X25703368Y3442525D01*
X25946589Y3280010D01*
X26216842Y3168068D01*
X26503740Y3111000D01*
X26796260Y3111000D01*
X27083158Y3168068D01*
X27353411Y3280010D01*
X27596632Y3442525D01*
X27803475Y3649368D01*
X27920000Y3823760D01*
X28036525Y3649368D01*
X28243368Y3442525D01*
X28486589Y3280010D01*
X28756842Y3168068D01*
X29043740Y3111000D01*
X29336260Y3111000D01*
X29623158Y3168068D01*
X29893411Y3280010D01*
X30136632Y3442525D01*
X30343475Y3649368D01*
X30460000Y3823760D01*
X30576525Y3649368D01*
X30783368Y3442525D01*
X31026589Y3280010D01*
X31296842Y3168068D01*
X31583740Y3111000D01*
X31876260Y3111000D01*
X32163158Y3168068D01*
X32433411Y3280010D01*
X32676632Y3442525D01*
X32883475Y3649368D01*
X33000000Y3823760D01*
X33116525Y3649368D01*
X33323368Y3442525D01*
X33566589Y3280010D01*
X33836842Y3168068D01*
X34123740Y3111000D01*
X34416260Y3111000D01*
X34703158Y3168068D01*
X34973411Y3280010D01*
X35216632Y3442525D01*
X35423475Y3649368D01*
X35540000Y3823760D01*
X35656525Y3649368D01*
X35863368Y3442525D01*
X36106589Y3280010D01*
X36376842Y3168068D01*
X36663740Y3111000D01*
X36956260Y3111000D01*
X37243158Y3168068D01*
X37513411Y3280010D01*
X37756632Y3442525D01*
X37963475Y3649368D01*
X38080000Y3823760D01*
X38196525Y3649368D01*
X38403368Y3442525D01*
X38646589Y3280010D01*
X38916842Y3168068D01*
X39203740Y3111000D01*
X39496260Y3111000D01*
X39783158Y3168068D01*
X40053411Y3280010D01*
X40296632Y3442525D01*
X40503475Y3649368D01*
X40620000Y3823760D01*
X40736525Y3649368D01*
X40943368Y3442525D01*
X41186589Y3280010D01*
X41456842Y3168068D01*
X41743740Y3111000D01*
X42036260Y3111000D01*
X42323158Y3168068D01*
X42593411Y3280010D01*
X42836632Y3442525D01*
X43043475Y3649368D01*
X43160000Y3823760D01*
X43276525Y3649368D01*
X43483368Y3442525D01*
X43726589Y3280010D01*
X43996842Y3168068D01*
X44283740Y3111000D01*
X44576260Y3111000D01*
X44863158Y3168068D01*
X45133411Y3280010D01*
X45376632Y3442525D01*
X45583475Y3649368D01*
X45700000Y3823760D01*
X45816525Y3649368D01*
X46023368Y3442525D01*
X46266589Y3280010D01*
X46536842Y3168068D01*
X46823740Y3111000D01*
X47116260Y3111000D01*
X47403158Y3168068D01*
X47673411Y3280010D01*
X47916632Y3442525D01*
X48123475Y3649368D01*
X48240000Y3823760D01*
X48356525Y3649368D01*
X48563368Y3442525D01*
X48806589Y3280010D01*
X49076842Y3168068D01*
X49363740Y3111000D01*
X49656260Y3111000D01*
X49943158Y3168068D01*
X50213411Y3280010D01*
X50456632Y3442525D01*
X50663475Y3649368D01*
X50780000Y3823760D01*
X50896525Y3649368D01*
X51103368Y3442525D01*
X51346589Y3280010D01*
X51616842Y3168068D01*
X51903740Y3111000D01*
X52196260Y3111000D01*
X52483158Y3168068D01*
X52753411Y3280010D01*
X52996632Y3442525D01*
X53203475Y3649368D01*
X53320000Y3823760D01*
X53436525Y3649368D01*
X53643368Y3442525D01*
X53886589Y3280010D01*
X54156842Y3168068D01*
X54443740Y3111000D01*
X54736260Y3111000D01*
X55023158Y3168068D01*
X55293411Y3280010D01*
X55536632Y3442525D01*
X55743475Y3649368D01*
X55860000Y3823760D01*
X55976525Y3649368D01*
X56183368Y3442525D01*
X56426589Y3280010D01*
X56696842Y3168068D01*
X56983740Y3111000D01*
X57276260Y3111000D01*
X57563158Y3168068D01*
X57833411Y3280010D01*
X58076632Y3442525D01*
X58283475Y3649368D01*
X58400000Y3823760D01*
X58516525Y3649368D01*
X58723368Y3442525D01*
X58966589Y3280010D01*
X59236842Y3168068D01*
X59523740Y3111000D01*
X59816260Y3111000D01*
X60103158Y3168068D01*
X60373411Y3280010D01*
X60616632Y3442525D01*
X60823475Y3649368D01*
X60940000Y3823760D01*
X61056525Y3649368D01*
X61263368Y3442525D01*
X61506589Y3280010D01*
X61776842Y3168068D01*
X62063740Y3111000D01*
X62356260Y3111000D01*
X62643158Y3168068D01*
X62913411Y3280010D01*
X63156632Y3442525D01*
X63363475Y3649368D01*
X63480000Y3823760D01*
X63596525Y3649368D01*
X63803368Y3442525D01*
X64046589Y3280010D01*
X64316842Y3168068D01*
X64603740Y3111000D01*
X64896260Y3111000D01*
X65183158Y3168068D01*
X65453411Y3280010D01*
X65696632Y3442525D01*
X65903475Y3649368D01*
X66020000Y3823760D01*
X66136525Y3649368D01*
X66343368Y3442525D01*
X66586589Y3280010D01*
X66856842Y3168068D01*
X67143740Y3111000D01*
X67436260Y3111000D01*
X67723158Y3168068D01*
X67993411Y3280010D01*
X68236632Y3442525D01*
X68443475Y3649368D01*
X68565195Y3831534D01*
X68634822Y3714645D01*
X68829731Y3498412D01*
X69063080Y3324359D01*
X69325901Y3199175D01*
X69473110Y3154524D01*
X69703000Y3275845D01*
X69703000Y4469000D01*
X69683000Y4469000D01*
X69683000Y4723000D01*
X69703000Y4723000D01*
X69703000Y7009000D01*
X69683000Y7009000D01*
X69683000Y7263000D01*
X69703000Y7263000D01*
X69703000Y8456155D01*
X69957000Y8456155D01*
X69957000Y7263000D01*
X69977000Y7263000D01*
X69977000Y7009000D01*
X69957000Y7009000D01*
X69957000Y4723000D01*
X69977000Y4723000D01*
X69977000Y4469000D01*
X69957000Y4469000D01*
X69957000Y3275845D01*
X70186890Y3154524D01*
X70334099Y3199175D01*
X70596920Y3324359D01*
X70830269Y3498412D01*
X71025178Y3714645D01*
X71094805Y3831534D01*
X71216525Y3649368D01*
X71423368Y3442525D01*
X71666589Y3280010D01*
X71936842Y3168068D01*
X72223740Y3111000D01*
X72516260Y3111000D01*
X72803158Y3168068D01*
X73073411Y3280010D01*
X73316632Y3442525D01*
X73448487Y3574380D01*
X73470498Y3501820D01*
X73529463Y3391506D01*
X73608815Y3294815D01*
X73705506Y3215463D01*
X73815820Y3156498D01*
X73935518Y3120188D01*
X74060000Y3107928D01*
X75760000Y3107928D01*
X75884482Y3120188D01*
X76004180Y3156498D01*
X76114494Y3215463D01*
X76211185Y3294815D01*
X76290537Y3391506D01*
X76349502Y3501820D01*
X76385812Y3621518D01*
X76398072Y3746000D01*
X76398072Y5220128D01*
X92765000Y5220128D01*
X92765000Y4779872D01*
X92850890Y4348075D01*
X93019369Y3941331D01*
X93263962Y3575271D01*
X93575271Y3263962D01*
X93941331Y3019369D01*
X94348075Y2850890D01*
X94779872Y2765000D01*
X95220128Y2765000D01*
X95651925Y2850890D01*
X96058669Y3019369D01*
X96424729Y3263962D01*
X96736038Y3575271D01*
X96980631Y3941331D01*
X97149110Y4348075D01*
X97235000Y4779872D01*
X97235000Y5220128D01*
X97149110Y5651925D01*
X96980631Y6058669D01*
X96736038Y6424729D01*
X96424729Y6736038D01*
X96058669Y6980631D01*
X95651925Y7149110D01*
X95220128Y7235000D01*
X94779872Y7235000D01*
X94348075Y7149110D01*
X93941331Y6980631D01*
X93575271Y6736038D01*
X93263962Y6424729D01*
X93019369Y6058669D01*
X92850890Y5651925D01*
X92765000Y5220128D01*
X76398072Y5220128D01*
X76398072Y5446000D01*
X76385812Y5570482D01*
X76349502Y5690180D01*
X76290537Y5800494D01*
X76211185Y5897185D01*
X76114494Y5976537D01*
X76004180Y6035502D01*
X75931620Y6057513D01*
X76063475Y6189368D01*
X76225990Y6432589D01*
X76337932Y6702842D01*
X76395000Y6989740D01*
X76395000Y7282260D01*
X76337932Y7569158D01*
X76225990Y7839411D01*
X76063475Y8082632D01*
X75856632Y8289475D01*
X75613411Y8451990D01*
X75343158Y8563932D01*
X75056260Y8621000D01*
X74763740Y8621000D01*
X74476842Y8563932D01*
X74206589Y8451990D01*
X73963368Y8289475D01*
X73756525Y8082632D01*
X73640000Y7908240D01*
X73523475Y8082632D01*
X73316632Y8289475D01*
X73073411Y8451990D01*
X72803158Y8563932D01*
X72516260Y8621000D01*
X72223740Y8621000D01*
X71936842Y8563932D01*
X71666589Y8451990D01*
X71423368Y8289475D01*
X71216525Y8082632D01*
X71094805Y7900466D01*
X71025178Y8017355D01*
X70830269Y8233588D01*
X70596920Y8407641D01*
X70334099Y8532825D01*
X70186890Y8577476D01*
X69957000Y8456155D01*
X69703000Y8456155D01*
X69473110Y8577476D01*
X69325901Y8532825D01*
X69063080Y8407641D01*
X68829731Y8233588D01*
X68634822Y8017355D01*
X68565195Y7900466D01*
X68443475Y8082632D01*
X68236632Y8289475D01*
X68025000Y8430883D01*
X68025000Y12017006D01*
X68028555Y12053101D01*
X68025000Y12089196D01*
X68025000Y12089205D01*
X68014365Y12197185D01*
X67972337Y12335733D01*
X67904087Y12463420D01*
X67812238Y12575338D01*
X67784193Y12598354D01*
X63950394Y16432152D01*
X63933090Y16519145D01*
X63866377Y16680205D01*
X63805324Y16771577D01*
X63835037Y16827167D01*
X63877065Y16965715D01*
X63887700Y17073695D01*
X63887700Y17073704D01*
X63891255Y17109799D01*
X63887700Y17145894D01*
X63887700Y52002333D01*
X64011901Y51943175D01*
X64159110Y51898524D01*
X64389000Y52019845D01*
X64389000Y53213000D01*
X64643000Y53213000D01*
X64643000Y52019845D01*
X64872890Y51898524D01*
X65020099Y51943175D01*
X65282920Y52068359D01*
X65516269Y52242412D01*
X65711178Y52458645D01*
X65860157Y52708748D01*
X65957481Y52983109D01*
X65836814Y53213000D01*
X64643000Y53213000D01*
X64389000Y53213000D01*
X64369000Y53213000D01*
X64369000Y53467000D01*
X64389000Y53467000D01*
X64389000Y55753000D01*
X64643000Y55753000D01*
X64643000Y53467000D01*
X65836814Y53467000D01*
X65957481Y53696891D01*
X65860157Y53971252D01*
X65711178Y54221355D01*
X65516269Y54437588D01*
X65285120Y54610000D01*
X65516269Y54782412D01*
X65711178Y54998645D01*
X65860157Y55248748D01*
X65957481Y55523109D01*
X65836814Y55753000D01*
X64643000Y55753000D01*
X64389000Y55753000D01*
X64369000Y55753000D01*
X64369000Y56007000D01*
X64389000Y56007000D01*
X64389000Y57200155D01*
X64643000Y57200155D01*
X64643000Y56007000D01*
X65836814Y56007000D01*
X65957481Y56236891D01*
X65860157Y56511252D01*
X65711178Y56761355D01*
X65516269Y56977588D01*
X65282920Y57151641D01*
X65020099Y57276825D01*
X64872890Y57321476D01*
X64643000Y57200155D01*
X64389000Y57200155D01*
X64159110Y57321476D01*
X64011901Y57276825D01*
X63749080Y57151641D01*
X63515731Y56977588D01*
X63320822Y56761355D01*
X63251195Y56644466D01*
X63129475Y56826632D01*
X62922632Y57033475D01*
X62725800Y57164994D01*
X62725800Y88373000D01*
X99340001Y88373000D01*
X99340000Y660000D01*
X660000Y660000D01*
X660000Y5220128D01*
X2765000Y5220128D01*
X2765000Y4779872D01*
X2850890Y4348075D01*
X3019369Y3941331D01*
X3263962Y3575271D01*
X3575271Y3263962D01*
X3941331Y3019369D01*
X4348075Y2850890D01*
X4779872Y2765000D01*
X5220128Y2765000D01*
X5651925Y2850890D01*
X6058669Y3019369D01*
X6424729Y3263962D01*
X6736038Y3575271D01*
X6980631Y3941331D01*
X7149110Y4348075D01*
X7235000Y4779872D01*
X7235000Y5220128D01*
X7149110Y5651925D01*
X6980631Y6058669D01*
X6736038Y6424729D01*
X6424729Y6736038D01*
X6058669Y6980631D01*
X5651925Y7149110D01*
X5220128Y7235000D01*
X4779872Y7235000D01*
X4348075Y7149110D01*
X3941331Y6980631D01*
X3575271Y6736038D01*
X3263962Y6424729D01*
X3019369Y6058669D01*
X2850890Y5651925D01*
X2765000Y5220128D01*
X660000Y5220128D01*
X660000Y17935000D01*
X5831928Y17935000D01*
X5844188Y17810518D01*
X5880498Y17690820D01*
X5939463Y17580506D01*
X6018815Y17483815D01*
X6115506Y17404463D01*
X6225820Y17345498D01*
X6345518Y17309188D01*
X6470000Y17296928D01*
X7684250Y17300000D01*
X7843000Y17458750D01*
X7843000Y19558000D01*
X8097000Y19558000D01*
X8097000Y17458750D01*
X8255750Y17300000D01*
X9470000Y17296928D01*
X9594482Y17309188D01*
X9714180Y17345498D01*
X9824494Y17404463D01*
X9921185Y17483815D01*
X10000537Y17580506D01*
X10059502Y17690820D01*
X10095812Y17810518D01*
X10108072Y17935000D01*
X10105000Y19399250D01*
X9946250Y19558000D01*
X8097000Y19558000D01*
X7843000Y19558000D01*
X5993750Y19558000D01*
X5835000Y19399250D01*
X5831928Y17935000D01*
X660000Y17935000D01*
X660000Y21435000D01*
X5831928Y21435000D01*
X5835000Y19970750D01*
X5993750Y19812000D01*
X7843000Y19812000D01*
X7843000Y21911250D01*
X8097000Y21911250D01*
X8097000Y19812000D01*
X9946250Y19812000D01*
X10105000Y19970750D01*
X10108072Y21435000D01*
X10095812Y21559482D01*
X10059502Y21679180D01*
X10000537Y21789494D01*
X9921185Y21886185D01*
X9824494Y21965537D01*
X9714180Y22024502D01*
X9594482Y22060812D01*
X9470000Y22073072D01*
X8255750Y22070000D01*
X8097000Y21911250D01*
X7843000Y21911250D01*
X7684250Y22070000D01*
X6470000Y22073072D01*
X6345518Y22060812D01*
X6225820Y22024502D01*
X6115506Y21965537D01*
X6018815Y21886185D01*
X5939463Y21789494D01*
X5880498Y21679180D01*
X5844188Y21559482D01*
X5831928Y21435000D01*
X660000Y21435000D01*
X660000Y79220128D01*
X2765000Y79220128D01*
X2765000Y78779872D01*
X2850890Y78348075D01*
X3019369Y77941331D01*
X3263962Y77575271D01*
X3575271Y77263962D01*
X3941331Y77019369D01*
X4348075Y76850890D01*
X4779872Y76765000D01*
X5220128Y76765000D01*
X5651925Y76850890D01*
X6058669Y77019369D01*
X6424729Y77263962D01*
X6736038Y77575271D01*
X6980631Y77941331D01*
X7149110Y78348075D01*
X7235000Y78779872D01*
X7235000Y79220128D01*
X7149110Y79651925D01*
X6980631Y80058669D01*
X6736038Y80424729D01*
X6424729Y80736038D01*
X6058669Y80980631D01*
X5651925Y81149110D01*
X5220128Y81235000D01*
X4779872Y81235000D01*
X4348075Y81149110D01*
X3941331Y80980631D01*
X3575271Y80736038D01*
X3263962Y80424729D01*
X3019369Y80058669D01*
X2850890Y79651925D01*
X2765000Y79220128D01*
X660000Y79220128D01*
X660000Y88373000D01*
X10341000Y88373000D01*
X10341000Y87672749D01*
G37*
G04 #@! TD.AperFunction*
D17*
X57550600Y8558152D02*
X57486890Y8577476D01*
X57257000Y8456155D01*
X57257000Y7263000D01*
X57277000Y7263000D01*
X57277000Y7009000D01*
X57257000Y7009000D01*
X57257000Y6989000D01*
X57003000Y6989000D01*
X57003000Y7009000D01*
X56983000Y7009000D01*
X56983000Y7263000D01*
X57003000Y7263000D01*
X57003000Y8456155D01*
X56773110Y8577476D01*
X56625901Y8532825D01*
X56480600Y8463617D01*
X56480600Y51908536D01*
X56749740Y51855000D01*
X57042260Y51855000D01*
X57329158Y51912068D01*
X57550601Y52003792D01*
X57550600Y8558152D01*
G04 #@! TA.AperFunction,Conductor*
D18*
G36*
X57550600Y8558152D02*
G01*
X57486890Y8577476D01*
X57257000Y8456155D01*
X57257000Y7263000D01*
X57277000Y7263000D01*
X57277000Y7009000D01*
X57257000Y7009000D01*
X57257000Y6989000D01*
X57003000Y6989000D01*
X57003000Y7009000D01*
X56983000Y7009000D01*
X56983000Y7263000D01*
X57003000Y7263000D01*
X57003000Y8456155D01*
X56773110Y8577476D01*
X56625901Y8532825D01*
X56480600Y8463617D01*
X56480600Y51908536D01*
X56749740Y51855000D01*
X57042260Y51855000D01*
X57329158Y51912068D01*
X57550601Y52003792D01*
X57550600Y8558152D01*
G37*
G04 #@! TD.AperFunction*
D17*
X49930600Y8558152D02*
X49866890Y8577476D01*
X49637000Y8456155D01*
X49637000Y7263000D01*
X49657000Y7263000D01*
X49657000Y7009000D01*
X49637000Y7009000D01*
X49637000Y6989000D01*
X49383000Y6989000D01*
X49383000Y7009000D01*
X49363000Y7009000D01*
X49363000Y7263000D01*
X49383000Y7263000D01*
X49383000Y8456155D01*
X49153110Y8577476D01*
X49005901Y8532825D01*
X48860600Y8463617D01*
X48860600Y51908536D01*
X49129740Y51855000D01*
X49422260Y51855000D01*
X49709158Y51912068D01*
X49930601Y52003792D01*
X49930600Y8558152D01*
G04 #@! TA.AperFunction,Conductor*
D18*
G36*
X49930600Y8558152D02*
G01*
X49866890Y8577476D01*
X49637000Y8456155D01*
X49637000Y7263000D01*
X49657000Y7263000D01*
X49657000Y7009000D01*
X49637000Y7009000D01*
X49637000Y6989000D01*
X49383000Y6989000D01*
X49383000Y7009000D01*
X49363000Y7009000D01*
X49363000Y7263000D01*
X49383000Y7263000D01*
X49383000Y8456155D01*
X49153110Y8577476D01*
X49005901Y8532825D01*
X48860600Y8463617D01*
X48860600Y51908536D01*
X49129740Y51855000D01*
X49422260Y51855000D01*
X49709158Y51912068D01*
X49930601Y52003792D01*
X49930600Y8558152D01*
G37*
G04 #@! TD.AperFunction*
D17*
X41783000Y53467000D02*
X41803000Y53467000D01*
X41803000Y53213000D01*
X41783000Y53213000D01*
X41783000Y52019845D01*
X42012890Y51898524D01*
X42160099Y51943175D01*
X42310601Y52014860D01*
X42310600Y8558152D01*
X42246890Y8577476D01*
X42017000Y8456155D01*
X42017000Y7263000D01*
X42037000Y7263000D01*
X42037000Y7009000D01*
X42017000Y7009000D01*
X42017000Y6989000D01*
X41763000Y6989000D01*
X41763000Y7009000D01*
X41743000Y7009000D01*
X41743000Y7263000D01*
X41763000Y7263000D01*
X41763000Y8456155D01*
X41533110Y8577476D01*
X41385901Y8532825D01*
X41240600Y8463617D01*
X41240600Y51916271D01*
X41299110Y51898524D01*
X41529000Y52019845D01*
X41529000Y53213000D01*
X41509000Y53213000D01*
X41509000Y53467000D01*
X41529000Y53467000D01*
X41529000Y53487000D01*
X41783000Y53487000D01*
X41783000Y53467000D01*
G04 #@! TA.AperFunction,Conductor*
D18*
G36*
X41783000Y53467000D02*
G01*
X41803000Y53467000D01*
X41803000Y53213000D01*
X41783000Y53213000D01*
X41783000Y52019845D01*
X42012890Y51898524D01*
X42160099Y51943175D01*
X42310601Y52014860D01*
X42310600Y8558152D01*
X42246890Y8577476D01*
X42017000Y8456155D01*
X42017000Y7263000D01*
X42037000Y7263000D01*
X42037000Y7009000D01*
X42017000Y7009000D01*
X42017000Y6989000D01*
X41763000Y6989000D01*
X41763000Y7009000D01*
X41743000Y7009000D01*
X41743000Y7263000D01*
X41763000Y7263000D01*
X41763000Y8456155D01*
X41533110Y8577476D01*
X41385901Y8532825D01*
X41240600Y8463617D01*
X41240600Y51916271D01*
X41299110Y51898524D01*
X41529000Y52019845D01*
X41529000Y53213000D01*
X41509000Y53213000D01*
X41509000Y53467000D01*
X41529000Y53467000D01*
X41529000Y53487000D01*
X41783000Y53487000D01*
X41783000Y53467000D01*
G37*
G04 #@! TD.AperFunction*
D17*
X62417701Y17414248D02*
X62037608Y17034154D01*
X62009562Y17011137D01*
X61917713Y16899219D01*
X61849463Y16771532D01*
X61827952Y16700618D01*
X61807435Y16632985D01*
X61793244Y16488900D01*
X61796800Y16452795D01*
X61796801Y14960215D01*
X61793244Y14924100D01*
X61807435Y14780015D01*
X61830377Y14704387D01*
X61849464Y14641467D01*
X61917714Y14513780D01*
X62009563Y14401862D01*
X62037608Y14378846D01*
X62630600Y13785853D01*
X62630601Y8558151D01*
X62566890Y8577476D01*
X62337000Y8456155D01*
X62337000Y7263000D01*
X62357000Y7263000D01*
X62357000Y7009000D01*
X62337000Y7009000D01*
X62337000Y6989000D01*
X62083000Y6989000D01*
X62083000Y7009000D01*
X62063000Y7009000D01*
X62063000Y7263000D01*
X62083000Y7263000D01*
X62083000Y8456155D01*
X61853110Y8577476D01*
X61705901Y8532825D01*
X61560600Y8463617D01*
X61560600Y51908536D01*
X61829740Y51855000D01*
X62122260Y51855000D01*
X62409158Y51912068D01*
X62417700Y51915606D01*
X62417701Y17414248D01*
G04 #@! TA.AperFunction,Conductor*
D18*
G36*
X62417701Y17414248D02*
G01*
X62037608Y17034154D01*
X62009562Y17011137D01*
X61917713Y16899219D01*
X61849463Y16771532D01*
X61827952Y16700618D01*
X61807435Y16632985D01*
X61793244Y16488900D01*
X61796800Y16452795D01*
X61796801Y14960215D01*
X61793244Y14924100D01*
X61807435Y14780015D01*
X61830377Y14704387D01*
X61849464Y14641467D01*
X61917714Y14513780D01*
X62009563Y14401862D01*
X62037608Y14378846D01*
X62630600Y13785853D01*
X62630601Y8558151D01*
X62566890Y8577476D01*
X62337000Y8456155D01*
X62337000Y7263000D01*
X62357000Y7263000D01*
X62357000Y7009000D01*
X62337000Y7009000D01*
X62337000Y6989000D01*
X62083000Y6989000D01*
X62083000Y7009000D01*
X62063000Y7009000D01*
X62063000Y7263000D01*
X62083000Y7263000D01*
X62083000Y8456155D01*
X61853110Y8577476D01*
X61705901Y8532825D01*
X61560600Y8463617D01*
X61560600Y51908536D01*
X61829740Y51855000D01*
X62122260Y51855000D01*
X62409158Y51912068D01*
X62417700Y51915606D01*
X62417701Y17414248D01*
G37*
G04 #@! TD.AperFunction*
D17*
X34397000Y7263000D02*
X34417000Y7263000D01*
X34417000Y7009000D01*
X34397000Y7009000D01*
X34397000Y6989000D01*
X34143000Y6989000D01*
X34143000Y7009000D01*
X34123000Y7009000D01*
X34123000Y7263000D01*
X34143000Y7263000D01*
X34143000Y7283000D01*
X34397000Y7283000D01*
X34397000Y7263000D01*
G04 #@! TA.AperFunction,Conductor*
D18*
G36*
X34397000Y7263000D02*
G01*
X34417000Y7263000D01*
X34417000Y7009000D01*
X34397000Y7009000D01*
X34397000Y6989000D01*
X34143000Y6989000D01*
X34143000Y7009000D01*
X34123000Y7009000D01*
X34123000Y7263000D01*
X34143000Y7263000D01*
X34143000Y7283000D01*
X34397000Y7283000D01*
X34397000Y7263000D01*
G37*
G04 #@! TD.AperFunction*
D17*
X23141001Y57174884D02*
X22929368Y57033475D01*
X22722525Y56826632D01*
X22600805Y56644466D01*
X22531178Y56761355D01*
X22336269Y56977588D01*
X22102920Y57151641D01*
X21840099Y57276825D01*
X21692890Y57321476D01*
X21463000Y57200155D01*
X21463000Y56007000D01*
X21483000Y56007000D01*
X21483000Y55753000D01*
X21463000Y55753000D01*
X21463000Y55733000D01*
X21209000Y55733000D01*
X21209000Y55753000D01*
X21189000Y55753000D01*
X21189000Y56007000D01*
X21209000Y56007000D01*
X21209000Y57200155D01*
X20979110Y57321476D01*
X20831901Y57276825D01*
X20569080Y57151641D01*
X20335731Y56977588D01*
X20140822Y56761355D01*
X20071195Y56644466D01*
X19949475Y56826632D01*
X19742632Y57033475D01*
X19531000Y57174883D01*
X19531000Y88373000D01*
X23141000Y88373000D01*
X23141001Y57174884D01*
G04 #@! TA.AperFunction,Conductor*
D18*
G36*
X23141001Y57174884D02*
G01*
X22929368Y57033475D01*
X22722525Y56826632D01*
X22600805Y56644466D01*
X22531178Y56761355D01*
X22336269Y56977588D01*
X22102920Y57151641D01*
X21840099Y57276825D01*
X21692890Y57321476D01*
X21463000Y57200155D01*
X21463000Y56007000D01*
X21483000Y56007000D01*
X21483000Y55753000D01*
X21463000Y55753000D01*
X21463000Y55733000D01*
X21209000Y55733000D01*
X21209000Y55753000D01*
X21189000Y55753000D01*
X21189000Y56007000D01*
X21209000Y56007000D01*
X21209000Y57200155D01*
X20979110Y57321476D01*
X20831901Y57276825D01*
X20569080Y57151641D01*
X20335731Y56977588D01*
X20140822Y56761355D01*
X20071195Y56644466D01*
X19949475Y56826632D01*
X19742632Y57033475D01*
X19531000Y57174883D01*
X19531000Y88373000D01*
X23141000Y88373000D01*
X23141001Y57174884D01*
G37*
G04 #@! TD.AperFunction*
M02*
