M48
; DRILL file {KiCad (5.1.9)-1} date 12/08/22 13:28:12
; FORMAT={-:-/ absolute / metric / decimal}
; #@! TF.CreationDate,2022-12-08T13:28:12+09:00
; #@! TF.GenerationSoftware,Kicad,Pcbnew,(5.1.9)-1
FMAT,2
METRIC
T1C0.300
T2C0.800
T3C1.000
T4C3.200
%
G90
G05
T1
X12.76Y13.638
X28.158Y106.02
X31.035Y130.341
X31.462Y17.668
X32.581Y131.335
X36.546Y90.989
X37.97Y86.154
X38.133Y89.873
X38.534Y22.622
X38.705Y86.748
X40.612Y102.86
X42.207Y126.994
X43.261Y101.864
X46.023Y93.721
X47.957Y104.429
X51.82Y111.694
X52.527Y100.992
X53.002Y101.585
X53.807Y119.965
X54.73Y112.252
X56.105Y119.4
X57.564Y118.848
X58.171Y110.437
X58.484Y106.946
X59.634Y72.202
X59.8Y112.633
X60.751Y110.255
X61.172Y117.605
X61.954Y131.324
X63.182Y104.747
X64.397Y104.098
X64.57Y72.48
X66.437Y72.024
X67.762Y74.163
X68.438Y104.476
X69.4Y72.772
X69.734Y59.856
X69.814Y117.705
X69.876Y57.786
X70.128Y72.004
X70.595Y104.129
X74.311Y118.151
X76.853Y91.558
X77.064Y104.832
X78.344Y87.4
X80.09Y131.363
X81.042Y85.82
X87.904Y63.394
X91.855Y62.663
X93.035Y87.188
T2
X7.825Y94.469
X7.825Y91.969
X8.132Y113.592
X8.132Y111.092
X8.525Y71.628
X8.525Y56.388
X11.065Y71.628
X11.065Y56.388
X11.307Y116.132
X11.307Y108.512
X11.381Y97.009
X11.381Y89.389
X13.605Y71.628
X13.605Y56.388
X13.732Y40.132
X13.732Y37.592
X13.732Y35.052
X13.732Y32.512
X13.732Y29.972
X13.732Y27.432
X13.732Y24.892
X13.732Y22.352
X13.732Y19.812
X13.732Y17.272
X13.732Y14.732
X13.732Y12.192
X13.847Y116.132
X13.847Y108.512
X13.921Y97.009
X13.921Y89.389
X16.145Y71.628
X16.145Y56.388
X16.272Y33.782
X16.272Y31.242
X16.272Y23.622
X16.272Y21.082
X16.387Y116.132
X16.387Y108.512
X16.461Y97.009
X16.461Y89.389
X18.685Y71.628
X18.685Y56.388
X18.927Y116.132
X18.927Y108.512
X19.001Y97.009
X19.001Y89.389
X19.955Y126.365
X19.955Y123.865
X21.225Y71.628
X21.225Y56.388
X21.467Y116.132
X21.467Y108.512
X21.541Y97.009
X21.541Y89.389
X23.765Y71.628
X23.765Y56.388
X24.007Y116.132
X24.007Y108.512
X24.081Y97.009
X24.081Y89.389
X26.305Y71.628
X26.305Y56.388
X26.547Y116.132
X26.547Y108.512
X26.621Y97.009
X26.621Y89.389
X28.845Y71.628
X28.845Y56.388
X28.972Y40.132
X28.972Y37.592
X28.972Y35.052
X28.972Y32.512
X28.972Y29.972
X28.972Y27.432
X28.972Y24.892
X28.972Y22.352
X28.972Y19.812
X28.972Y17.272
X28.972Y14.732
X28.972Y12.192
X31.385Y71.628
X31.385Y56.388
X33.925Y71.628
X33.925Y56.388
X36.465Y71.628
X36.465Y56.388
X37.215Y113.465
X37.215Y110.965
X39.005Y71.628
X39.005Y56.388
X40.39Y116.005
X40.39Y108.385
X41.545Y71.628
X41.545Y56.388
X42.93Y116.005
X42.93Y108.385
X44.085Y71.628
X44.085Y56.388
X45.47Y116.005
X45.47Y108.385
X46.625Y71.628
X46.625Y56.388
X47.895Y93.98
X47.895Y91.48
X48.01Y116.005
X48.01Y108.385
X49.165Y71.628
X49.165Y56.388
X50.55Y116.005
X50.55Y108.385
X51.197Y96.52
X51.197Y88.9
X51.705Y71.628
X51.705Y56.388
X53.09Y116.005
X53.09Y108.385
X53.737Y96.52
X53.737Y88.9
X54.245Y71.628
X54.245Y56.388
X55.63Y116.005
X55.63Y108.385
X56.277Y96.52
X56.277Y88.9
X56.785Y71.628
X56.785Y56.388
X58.817Y96.52
X58.817Y88.9
X59.96Y65.278
X59.96Y62.778
X61.357Y96.52
X61.357Y88.9
X61.865Y113.665
X61.865Y111.165
X63.897Y96.52
X63.897Y88.9
X65.421Y116.205
X65.421Y108.585
X66.437Y96.52
X66.437Y88.9
X67.961Y116.205
X67.961Y108.585
X68.469Y45.72
X68.469Y43.22
X68.85Y65.405
X68.85Y62.905
X68.977Y96.52
X68.977Y88.9
X70.501Y116.205
X70.501Y108.585
X71.517Y96.52
X71.517Y88.9
X72.025Y52.451
X72.025Y37.211
X72.152Y68.453
X72.152Y60.833
X73.041Y116.205
X73.041Y108.585
X74.057Y96.52
X74.057Y88.9
X74.565Y52.451
X74.565Y37.211
X74.692Y68.453
X74.692Y60.833
X75.581Y116.205
X75.581Y108.585
X77.105Y52.451
X77.105Y37.211
X77.232Y68.453
X77.232Y60.833
X78.121Y116.205
X78.121Y108.585
X79.645Y52.451
X79.645Y37.211
X79.772Y68.453
X79.772Y60.833
X80.28Y93.98
X80.28Y91.48
X80.661Y116.205
X80.661Y108.585
X82.185Y52.451
X82.185Y37.211
X82.312Y68.453
X82.312Y60.833
X83.455Y96.52
X83.455Y88.9
X84.725Y52.451
X84.725Y37.211
X84.852Y68.453
X84.852Y60.833
X85.995Y96.52
X85.995Y88.9
X87.265Y52.451
X87.265Y37.211
X87.392Y68.453
X87.392Y60.833
X87.544Y113.526
X87.544Y111.026
X88.535Y96.52
X88.535Y88.9
X89.805Y52.451
X89.805Y37.211
X89.932Y68.453
X89.932Y60.833
X90.719Y116.066
X90.719Y108.446
X91.075Y96.52
X91.075Y88.9
X92.345Y52.451
X92.345Y37.211
X92.472Y68.453
X92.472Y60.833
X93.259Y116.066
X93.259Y108.446
X93.615Y96.52
X93.615Y88.9
X94.885Y52.451
X94.885Y37.211
X95.012Y68.453
X95.012Y60.833
X95.799Y116.066
X95.799Y108.446
X96.155Y96.52
X96.155Y88.9
X97.425Y52.451
X97.425Y37.211
X98.339Y116.066
X98.339Y108.446
X98.695Y96.52
X98.695Y88.9
X99.965Y52.451
X99.965Y37.211
X100.879Y116.066
X100.879Y108.446
X101.235Y96.52
X101.235Y88.9
X102.505Y52.451
X102.505Y37.211
X103.419Y116.066
X103.419Y108.446
X103.775Y96.52
X103.775Y88.9
X105.045Y52.451
X105.045Y37.211
X105.959Y116.066
X105.959Y108.446
X106.315Y96.52
X106.315Y88.9
T3
X41.164Y30.226
X41.164Y4.826
X41.164Y2.286
X43.704Y30.226
X44.974Y38.481
X46.244Y30.226
X47.514Y38.481
X48.784Y30.226
X50.054Y38.481
X51.324Y30.226
X52.594Y38.481
X53.864Y30.226
X55.134Y38.481
X56.404Y30.226
X57.674Y38.481
X58.944Y30.226
X61.484Y30.226
X61.484Y4.826
X61.484Y2.286
X76.8Y1.9
X79.34Y1.9
X81.88Y1.9
T4
X4.0Y127.0
X4.0Y5.0
X111.0Y127.0
X111.0Y5.0
T0
M30
