G04 #@! TF.GenerationSoftware,KiCad,Pcbnew,(5.1.9)-1*
G04 #@! TF.CreationDate,2022-12-08T13:25:57+09:00*
G04 #@! TF.ProjectId,MZ2000_SD,4d5a3230-3030-45f5-9344-2e6b69636164,rev?*
G04 #@! TF.SameCoordinates,PX53920b0PY93c3260*
G04 #@! TF.FileFunction,Soldermask,Top*
G04 #@! TF.FilePolarity,Negative*
%FSLAX46Y46*%
G04 Gerber Fmt 4.6, Leading zero omitted, Abs format (unit mm)*
G04 Created by KiCad (PCBNEW (5.1.9)-1) date 2022-12-08 13:25:57*
%MOMM*%
%LPD*%
G01*
G04 APERTURE LIST*
%ADD10C,1.600000*%
%ADD11R,1.600000X2.400000*%
%ADD12O,1.600000X2.400000*%
%ADD13C,3.200000*%
%ADD14R,1.700000X1.700000*%
%ADD15O,1.700000X1.700000*%
%ADD16R,1.600000X1.600000*%
%ADD17O,1.600000X1.600000*%
%ADD18R,2.400000X1.600000*%
%ADD19O,2.400000X1.600000*%
G04 APERTURE END LIST*
D10*
X35349000Y10230000D03*
X35349000Y12730000D03*
D11*
X87884000Y19685000D03*
D12*
X39624000Y4445000D03*
X85344000Y19685000D03*
X42164000Y4445000D03*
X82804000Y19685000D03*
X44704000Y4445000D03*
X80264000Y19685000D03*
X47244000Y4445000D03*
X77724000Y19685000D03*
X49784000Y4445000D03*
X75184000Y19685000D03*
X52324000Y4445000D03*
X72644000Y19685000D03*
X54864000Y4445000D03*
X70104000Y19685000D03*
X57404000Y4445000D03*
X67564000Y19685000D03*
X59944000Y4445000D03*
X65024000Y19685000D03*
X62484000Y4445000D03*
X62484000Y19685000D03*
X65024000Y4445000D03*
X59944000Y19685000D03*
X67564000Y4445000D03*
X57404000Y19685000D03*
X70104000Y4445000D03*
X54864000Y19685000D03*
X72644000Y4445000D03*
X52324000Y19685000D03*
X75184000Y4445000D03*
X49784000Y19685000D03*
X77724000Y4445000D03*
X47244000Y19685000D03*
X80264000Y4445000D03*
X44704000Y19685000D03*
X82804000Y4445000D03*
X42164000Y19685000D03*
X85344000Y4445000D03*
X39624000Y19685000D03*
X87884000Y4445000D03*
D13*
X5000000Y95000000D03*
X84000000Y95000000D03*
X95000000Y5000000D03*
X5000000Y5000000D03*
D14*
X69850000Y74930000D03*
D15*
X69850000Y72390000D03*
X69850000Y69850000D03*
X69850000Y67310000D03*
X69850000Y64770000D03*
X69850000Y62230000D03*
X69850000Y59690000D03*
X69850000Y57150000D03*
X69850000Y54610000D03*
X97790000Y54610000D03*
X95250000Y54610000D03*
X97790000Y74930000D03*
X95250000Y74930000D03*
D16*
X95885000Y44450000D03*
D17*
X93345000Y44450000D03*
X90805000Y44450000D03*
X67945000Y29210000D03*
X88265000Y44450000D03*
X70485000Y29210000D03*
X85725000Y44450000D03*
X73025000Y29210000D03*
X83185000Y44450000D03*
X75565000Y29210000D03*
X80645000Y44450000D03*
X78105000Y29210000D03*
X78105000Y44450000D03*
X80645000Y29210000D03*
X75565000Y44450000D03*
X83185000Y29210000D03*
X73025000Y44450000D03*
X85725000Y29210000D03*
X70485000Y44450000D03*
X88265000Y29210000D03*
X67945000Y44450000D03*
X90805000Y29210000D03*
X93345000Y29210000D03*
X95885000Y29210000D03*
X86995000Y31750000D03*
X84455000Y31750000D03*
X76835000Y31750000D03*
X74295000Y31750000D03*
D10*
X18328000Y97409000D03*
X20828000Y97409000D03*
X20828000Y67564000D03*
X18328000Y67564000D03*
X50546000Y65024000D03*
X48046000Y65024000D03*
X50546000Y97409000D03*
X48046000Y97409000D03*
D15*
X7620000Y21330000D03*
X5080000Y21330000D03*
X7620000Y23870000D03*
X5080000Y23870000D03*
X7620000Y26410000D03*
X5080000Y26410000D03*
X7620000Y28950000D03*
X5080000Y28950000D03*
X7620000Y31490000D03*
X5080000Y31490000D03*
X7620000Y34030000D03*
X5080000Y34030000D03*
X7620000Y36570000D03*
X5080000Y36570000D03*
X7620000Y39110000D03*
X5080000Y39110000D03*
X7620000Y41650000D03*
X5080000Y41650000D03*
X7620000Y44190000D03*
X5080000Y44190000D03*
X7620000Y46730000D03*
X5080000Y46730000D03*
X7620000Y49270000D03*
X5080000Y49270000D03*
X7620000Y51810000D03*
X5080000Y51810000D03*
X7620000Y54350000D03*
X5080000Y54350000D03*
X7620000Y56890000D03*
X5080000Y56890000D03*
X7620000Y59430000D03*
X5080000Y59430000D03*
X7620000Y61970000D03*
X5080000Y61970000D03*
X7620000Y64510000D03*
X5080000Y64510000D03*
X7620000Y67050000D03*
X5080000Y67050000D03*
X7620000Y69590000D03*
X5080000Y69590000D03*
X7620000Y72130000D03*
X5080000Y72130000D03*
X7620000Y74670000D03*
D14*
X5080000Y74670000D03*
D18*
X15748000Y94234000D03*
D19*
X23368000Y71374000D03*
X15748000Y91694000D03*
X23368000Y73914000D03*
X15748000Y89154000D03*
X23368000Y76454000D03*
X15748000Y86614000D03*
X23368000Y78994000D03*
X15748000Y84074000D03*
X23368000Y81534000D03*
X15748000Y81534000D03*
X23368000Y84074000D03*
X15748000Y78994000D03*
X23368000Y86614000D03*
X15748000Y76454000D03*
X23368000Y89154000D03*
X15748000Y73914000D03*
X23368000Y91694000D03*
X15748000Y71374000D03*
X23368000Y94234000D03*
X23368000Y64389000D03*
X15748000Y41529000D03*
X23368000Y61849000D03*
X15748000Y44069000D03*
X23368000Y59309000D03*
X15748000Y46609000D03*
X23368000Y56769000D03*
X15748000Y49149000D03*
X23368000Y54229000D03*
X15748000Y51689000D03*
X23368000Y51689000D03*
X15748000Y54229000D03*
X23368000Y49149000D03*
X15748000Y56769000D03*
X23368000Y46609000D03*
X15748000Y59309000D03*
X23368000Y44069000D03*
X15748000Y61849000D03*
X23368000Y41529000D03*
D18*
X15748000Y64389000D03*
X45466000Y94234000D03*
D19*
X53086000Y71374000D03*
X45466000Y91694000D03*
X53086000Y73914000D03*
X45466000Y89154000D03*
X53086000Y76454000D03*
X45466000Y86614000D03*
X53086000Y78994000D03*
X45466000Y84074000D03*
X53086000Y81534000D03*
X45466000Y81534000D03*
X53086000Y84074000D03*
X45466000Y78994000D03*
X53086000Y86614000D03*
X45466000Y76454000D03*
X53086000Y89154000D03*
X45466000Y73914000D03*
X53086000Y91694000D03*
X45466000Y71374000D03*
X53086000Y94234000D03*
D14*
X66675000Y96520000D03*
D15*
X64135000Y96520000D03*
X61595000Y96520000D03*
D14*
X61595000Y71120000D03*
D15*
X61595000Y68580000D03*
X61595000Y66040000D03*
X61595000Y63500000D03*
X61595000Y60960000D03*
X61595000Y58420000D03*
D18*
X28702000Y44958000D03*
D19*
X36322000Y29718000D03*
X28702000Y42418000D03*
X36322000Y32258000D03*
X28702000Y39878000D03*
X36322000Y34798000D03*
X28702000Y37338000D03*
X36322000Y37338000D03*
X28702000Y34798000D03*
X36322000Y39878000D03*
X28702000Y32258000D03*
X36322000Y42418000D03*
X28702000Y29718000D03*
X36322000Y44958000D03*
D18*
X41656000Y61849000D03*
D19*
X56896000Y28829000D03*
X41656000Y59309000D03*
X56896000Y31369000D03*
X41656000Y56769000D03*
X56896000Y33909000D03*
X41656000Y54229000D03*
X56896000Y36449000D03*
X41656000Y51689000D03*
X56896000Y38989000D03*
X41656000Y49149000D03*
X56896000Y41529000D03*
X41656000Y46609000D03*
X56896000Y44069000D03*
X41656000Y44069000D03*
X56896000Y46609000D03*
X41656000Y41529000D03*
X56896000Y49149000D03*
X41656000Y38989000D03*
X56896000Y51689000D03*
X41656000Y36449000D03*
X56896000Y54229000D03*
X41656000Y33909000D03*
X56896000Y56769000D03*
X41656000Y31369000D03*
X56896000Y59309000D03*
X41656000Y28829000D03*
X56896000Y61849000D03*
X23876000Y34290000D03*
X16256000Y19050000D03*
X23876000Y31750000D03*
X16256000Y21590000D03*
X23876000Y29210000D03*
X16256000Y24130000D03*
X23876000Y26670000D03*
X16256000Y26670000D03*
X23876000Y24130000D03*
X16256000Y29210000D03*
X23876000Y21590000D03*
X16256000Y31750000D03*
X23876000Y19050000D03*
D18*
X16256000Y34290000D03*
X28702000Y68834000D03*
D19*
X36322000Y53594000D03*
X28702000Y66294000D03*
X36322000Y56134000D03*
X28702000Y63754000D03*
X36322000Y58674000D03*
X28702000Y61214000D03*
X36322000Y61214000D03*
X28702000Y58674000D03*
X36322000Y63754000D03*
X28702000Y56134000D03*
X36322000Y66294000D03*
X28702000Y53594000D03*
X36322000Y68834000D03*
D18*
X30480000Y94234000D03*
D19*
X38100000Y78994000D03*
X30480000Y91694000D03*
X38100000Y81534000D03*
X30480000Y89154000D03*
X38100000Y84074000D03*
X30480000Y86614000D03*
X38100000Y86614000D03*
X30480000Y84074000D03*
X38100000Y89154000D03*
X30480000Y81534000D03*
X38100000Y91694000D03*
X30480000Y78994000D03*
X38100000Y94234000D03*
D12*
X27940000Y4826000D03*
X12700000Y12446000D03*
X25400000Y4826000D03*
X15240000Y12446000D03*
X22860000Y4826000D03*
X17780000Y12446000D03*
X20320000Y4826000D03*
X20320000Y12446000D03*
X17780000Y4826000D03*
X22860000Y12446000D03*
X15240000Y4826000D03*
X25400000Y12446000D03*
X12700000Y4826000D03*
D11*
X27940000Y12446000D03*
D10*
X33600000Y48200000D03*
X31100000Y48200000D03*
X18700000Y37500000D03*
X21200000Y37500000D03*
X31200000Y7200000D03*
X31200000Y9700000D03*
X31300000Y72500000D03*
X33800000Y72500000D03*
X35400000Y97600000D03*
X32900000Y97600000D03*
D16*
X7620000Y84455000D03*
D10*
X7620000Y86955000D03*
M02*
