M48
; DRILL file {KiCad (5.1.9)-1} date 12/08/22 13:25:59
; FORMAT={-:-/ absolute / metric / decimal}
; #@! TF.CreationDate,2022-12-08T13:25:59+09:00
; #@! TF.GenerationSoftware,Kicad,Pcbnew,(5.1.9)-1
FMAT,2
METRIC
T1C0.300
T2C0.800
T3C1.000
T4C3.200
%
G90
G05
T1
X14.554Y50.136
X16.576Y2.712
X18.707Y25.215
X18.899Y32.229
X19.164Y49.192
X20.013Y30.34
X20.445Y34.311
X21.8Y72.681
X22.749Y66.666
X24.868Y48.29
X25.152Y85.04
X25.153Y85.846
X25.38Y45.701
X26.117Y79.456
X26.8Y16.976
X27.162Y55.197
X28.634Y24.82
X32.686Y24.242
X32.961Y73.553
X33.881Y86.846
X33.951Y33.525
X39.266Y57.436
X39.663Y47.27
X42.342Y50.419
X42.583Y66.13
X43.396Y67.063
X43.503Y32.97
X44.248Y23.782
X45.361Y23.89
X46.144Y24.54
X48.389Y25.141
X50.33Y70.37
X51.455Y80.791
X51.79Y85.634
X51.934Y83.0
X52.682Y55.631
X60.55Y40.226
X74.299Y24.231
T2
X7.62Y86.955
X7.62Y84.455
X12.7Y12.446
X12.7Y4.826
X15.24Y12.446
X15.24Y4.826
X15.748Y94.234
X15.748Y91.694
X15.748Y89.154
X15.748Y86.614
X15.748Y84.074
X15.748Y81.534
X15.748Y78.994
X15.748Y76.454
X15.748Y73.914
X15.748Y71.374
X15.748Y64.389
X15.748Y61.849
X15.748Y59.309
X15.748Y56.769
X15.748Y54.229
X15.748Y51.689
X15.748Y49.149
X15.748Y46.609
X15.748Y44.069
X15.748Y41.529
X16.256Y34.29
X16.256Y31.75
X16.256Y29.21
X16.256Y26.67
X16.256Y24.13
X16.256Y21.59
X16.256Y19.05
X17.78Y12.446
X17.78Y4.826
X18.328Y97.409
X18.328Y67.564
X18.7Y37.5
X20.32Y12.446
X20.32Y4.826
X20.828Y97.409
X20.828Y67.564
X21.2Y37.5
X22.86Y12.446
X22.86Y4.826
X23.368Y94.234
X23.368Y91.694
X23.368Y89.154
X23.368Y86.614
X23.368Y84.074
X23.368Y81.534
X23.368Y78.994
X23.368Y76.454
X23.368Y73.914
X23.368Y71.374
X23.368Y64.389
X23.368Y61.849
X23.368Y59.309
X23.368Y56.769
X23.368Y54.229
X23.368Y51.689
X23.368Y49.149
X23.368Y46.609
X23.368Y44.069
X23.368Y41.529
X23.876Y34.29
X23.876Y31.75
X23.876Y29.21
X23.876Y26.67
X23.876Y24.13
X23.876Y21.59
X23.876Y19.05
X25.4Y12.446
X25.4Y4.826
X27.94Y12.446
X27.94Y4.826
X28.702Y68.834
X28.702Y66.294
X28.702Y63.754
X28.702Y61.214
X28.702Y58.674
X28.702Y56.134
X28.702Y53.594
X28.702Y44.958
X28.702Y42.418
X28.702Y39.878
X28.702Y37.338
X28.702Y34.798
X28.702Y32.258
X28.702Y29.718
X30.48Y94.234
X30.48Y91.694
X30.48Y89.154
X30.48Y86.614
X30.48Y84.074
X30.48Y81.534
X30.48Y78.994
X31.1Y48.2
X31.2Y9.7
X31.2Y7.2
X31.3Y72.5
X32.9Y97.6
X33.6Y48.2
X33.8Y72.5
X35.349Y12.73
X35.349Y10.23
X35.4Y97.6
X36.322Y68.834
X36.322Y66.294
X36.322Y63.754
X36.322Y61.214
X36.322Y58.674
X36.322Y56.134
X36.322Y53.594
X36.322Y44.958
X36.322Y42.418
X36.322Y39.878
X36.322Y37.338
X36.322Y34.798
X36.322Y32.258
X36.322Y29.718
X38.1Y94.234
X38.1Y91.694
X38.1Y89.154
X38.1Y86.614
X38.1Y84.074
X38.1Y81.534
X38.1Y78.994
X39.624Y19.685
X39.624Y4.445
X41.656Y61.849
X41.656Y59.309
X41.656Y56.769
X41.656Y54.229
X41.656Y51.689
X41.656Y49.149
X41.656Y46.609
X41.656Y44.069
X41.656Y41.529
X41.656Y38.989
X41.656Y36.449
X41.656Y33.909
X41.656Y31.369
X41.656Y28.829
X42.164Y19.685
X42.164Y4.445
X44.704Y19.685
X44.704Y4.445
X45.466Y94.234
X45.466Y91.694
X45.466Y89.154
X45.466Y86.614
X45.466Y84.074
X45.466Y81.534
X45.466Y78.994
X45.466Y76.454
X45.466Y73.914
X45.466Y71.374
X47.244Y19.685
X47.244Y4.445
X48.046Y97.409
X48.046Y65.024
X49.784Y19.685
X49.784Y4.445
X50.546Y97.409
X50.546Y65.024
X52.324Y19.685
X52.324Y4.445
X53.086Y94.234
X53.086Y91.694
X53.086Y89.154
X53.086Y86.614
X53.086Y84.074
X53.086Y81.534
X53.086Y78.994
X53.086Y76.454
X53.086Y73.914
X53.086Y71.374
X54.864Y19.685
X54.864Y4.445
X56.896Y61.849
X56.896Y59.309
X56.896Y56.769
X56.896Y54.229
X56.896Y51.689
X56.896Y49.149
X56.896Y46.609
X56.896Y44.069
X56.896Y41.529
X56.896Y38.989
X56.896Y36.449
X56.896Y33.909
X56.896Y31.369
X56.896Y28.829
X57.404Y19.685
X57.404Y4.445
X59.944Y19.685
X59.944Y4.445
X62.484Y19.685
X62.484Y4.445
X65.024Y19.685
X65.024Y4.445
X67.564Y19.685
X67.564Y4.445
X67.945Y44.45
X67.945Y29.21
X70.104Y19.685
X70.104Y4.445
X70.485Y44.45
X70.485Y29.21
X72.644Y19.685
X72.644Y4.445
X73.025Y44.45
X73.025Y29.21
X74.295Y31.75
X75.184Y19.685
X75.184Y4.445
X75.565Y44.45
X75.565Y29.21
X76.835Y31.75
X77.724Y19.685
X77.724Y4.445
X78.105Y44.45
X78.105Y29.21
X80.264Y19.685
X80.264Y4.445
X80.645Y44.45
X80.645Y29.21
X82.804Y19.685
X82.804Y4.445
X83.185Y44.45
X83.185Y29.21
X84.455Y31.75
X85.344Y19.685
X85.344Y4.445
X85.725Y44.45
X85.725Y29.21
X86.995Y31.75
X87.884Y19.685
X87.884Y4.445
X88.265Y44.45
X88.265Y29.21
X90.805Y44.45
X90.805Y29.21
X93.345Y44.45
X93.345Y29.21
X95.885Y44.45
X95.885Y29.21
T3
X5.08Y74.67
X5.08Y72.13
X5.08Y69.59
X5.08Y67.05
X5.08Y64.51
X5.08Y61.97
X5.08Y59.43
X5.08Y56.89
X5.08Y54.35
X5.08Y51.81
X5.08Y49.27
X5.08Y46.73
X5.08Y44.19
X5.08Y41.65
X5.08Y39.11
X5.08Y36.57
X5.08Y34.03
X5.08Y31.49
X5.08Y28.95
X5.08Y26.41
X5.08Y23.87
X5.08Y21.33
X7.62Y74.67
X7.62Y72.13
X7.62Y69.59
X7.62Y67.05
X7.62Y64.51
X7.62Y61.97
X7.62Y59.43
X7.62Y56.89
X7.62Y54.35
X7.62Y51.81
X7.62Y49.27
X7.62Y46.73
X7.62Y44.19
X7.62Y41.65
X7.62Y39.11
X7.62Y36.57
X7.62Y34.03
X7.62Y31.49
X7.62Y28.95
X7.62Y26.41
X7.62Y23.87
X7.62Y21.33
X61.595Y96.52
X61.595Y71.12
X61.595Y68.58
X61.595Y66.04
X61.595Y63.5
X61.595Y60.96
X61.595Y58.42
X64.135Y96.52
X66.675Y96.52
X69.85Y74.93
X69.85Y72.39
X69.85Y69.85
X69.85Y67.31
X69.85Y64.77
X69.85Y62.23
X69.85Y59.69
X69.85Y57.15
X69.85Y54.61
X95.25Y74.93
X95.25Y54.61
X97.79Y74.93
X97.79Y54.61
T4
X5.0Y95.0
X5.0Y5.0
X84.0Y95.0
X95.0Y5.0
T0
M30
