G04 #@! TF.GenerationSoftware,KiCad,Pcbnew,(5.1.9)-1*
G04 #@! TF.CreationDate,2022-07-14T08:18:56+09:00*
G04 #@! TF.ProjectId,MZ2000_SD,4d5a3230-3030-45f5-9344-2e6b69636164,rev?*
G04 #@! TF.SameCoordinates,PX53920b0PY93c3260*
G04 #@! TF.FileFunction,Copper,L1,Top*
G04 #@! TF.FilePolarity,Positive*
%FSLAX46Y46*%
G04 Gerber Fmt 4.6, Leading zero omitted, Abs format (unit mm)*
G04 Created by KiCad (PCBNEW (5.1.9)-1) date 2022-07-14 08:18:56*
%MOMM*%
%LPD*%
G01*
G04 APERTURE LIST*
G04 #@! TA.AperFunction,ComponentPad*
%ADD10C,1.600000*%
G04 #@! TD*
G04 #@! TA.AperFunction,ComponentPad*
%ADD11R,1.600000X2.400000*%
G04 #@! TD*
G04 #@! TA.AperFunction,ComponentPad*
%ADD12O,1.600000X2.400000*%
G04 #@! TD*
G04 #@! TA.AperFunction,ComponentPad*
%ADD13R,1.700000X1.700000*%
G04 #@! TD*
G04 #@! TA.AperFunction,ComponentPad*
%ADD14O,1.700000X1.700000*%
G04 #@! TD*
G04 #@! TA.AperFunction,ComponentPad*
%ADD15R,1.600000X1.600000*%
G04 #@! TD*
G04 #@! TA.AperFunction,ComponentPad*
%ADD16O,1.600000X1.600000*%
G04 #@! TD*
G04 #@! TA.AperFunction,ComponentPad*
%ADD17R,2.400000X1.600000*%
G04 #@! TD*
G04 #@! TA.AperFunction,ComponentPad*
%ADD18O,2.400000X1.600000*%
G04 #@! TD*
G04 #@! TA.AperFunction,ViaPad*
%ADD19C,0.500000*%
G04 #@! TD*
G04 #@! TA.AperFunction,Conductor*
%ADD20C,0.400000*%
G04 #@! TD*
G04 #@! TA.AperFunction,Conductor*
%ADD21C,0.200000*%
G04 #@! TD*
G04 #@! TA.AperFunction,Conductor*
%ADD22C,0.254000*%
G04 #@! TD*
G04 #@! TA.AperFunction,Conductor*
%ADD23C,0.100000*%
G04 #@! TD*
G04 APERTURE END LIST*
D10*
X33825000Y10230000D03*
X33825000Y12730000D03*
D11*
X86360000Y19685000D03*
D12*
X38100000Y4445000D03*
X83820000Y19685000D03*
X40640000Y4445000D03*
X81280000Y19685000D03*
X43180000Y4445000D03*
X78740000Y19685000D03*
X45720000Y4445000D03*
X76200000Y19685000D03*
X48260000Y4445000D03*
X73660000Y19685000D03*
X50800000Y4445000D03*
X71120000Y19685000D03*
X53340000Y4445000D03*
X68580000Y19685000D03*
X55880000Y4445000D03*
X66040000Y19685000D03*
X58420000Y4445000D03*
X63500000Y19685000D03*
X60960000Y4445000D03*
X60960000Y19685000D03*
X63500000Y4445000D03*
X58420000Y19685000D03*
X66040000Y4445000D03*
X55880000Y19685000D03*
X68580000Y4445000D03*
X53340000Y19685000D03*
X71120000Y4445000D03*
X50800000Y19685000D03*
X73660000Y4445000D03*
X48260000Y19685000D03*
X76200000Y4445000D03*
X45720000Y19685000D03*
X78740000Y4445000D03*
X43180000Y19685000D03*
X81280000Y4445000D03*
X40640000Y19685000D03*
X83820000Y4445000D03*
X38100000Y19685000D03*
X86360000Y4445000D03*
D13*
X69850000Y74930000D03*
D14*
X69850000Y72390000D03*
X69850000Y69850000D03*
X69850000Y67310000D03*
X69850000Y64770000D03*
X69850000Y62230000D03*
X69850000Y59690000D03*
X69850000Y57150000D03*
X69850000Y54610000D03*
X97790000Y54610000D03*
X95250000Y54610000D03*
X97790000Y74930000D03*
X95250000Y74930000D03*
D15*
X95885000Y44450000D03*
D16*
X93345000Y44450000D03*
X90805000Y44450000D03*
X67945000Y29210000D03*
X88265000Y44450000D03*
X70485000Y29210000D03*
X85725000Y44450000D03*
X73025000Y29210000D03*
X83185000Y44450000D03*
X75565000Y29210000D03*
X80645000Y44450000D03*
X78105000Y29210000D03*
X78105000Y44450000D03*
X80645000Y29210000D03*
X75565000Y44450000D03*
X83185000Y29210000D03*
X73025000Y44450000D03*
X85725000Y29210000D03*
X70485000Y44450000D03*
X88265000Y29210000D03*
X67945000Y44450000D03*
X90805000Y29210000D03*
X93345000Y29210000D03*
X95885000Y29210000D03*
X86995000Y31750000D03*
X84455000Y31750000D03*
X76835000Y31750000D03*
X74295000Y31750000D03*
D10*
X19090000Y97155000D03*
X21590000Y97155000D03*
X21590000Y67310000D03*
X19090000Y67310000D03*
X19090000Y36195000D03*
X21590000Y36195000D03*
X46990000Y64770000D03*
X44490000Y64770000D03*
X46990000Y97155000D03*
X44490000Y97155000D03*
D14*
X7620000Y21330000D03*
X5080000Y21330000D03*
X7620000Y23870000D03*
X5080000Y23870000D03*
X7620000Y26410000D03*
X5080000Y26410000D03*
X7620000Y28950000D03*
X5080000Y28950000D03*
X7620000Y31490000D03*
X5080000Y31490000D03*
X7620000Y34030000D03*
X5080000Y34030000D03*
X7620000Y36570000D03*
X5080000Y36570000D03*
X7620000Y39110000D03*
X5080000Y39110000D03*
X7620000Y41650000D03*
X5080000Y41650000D03*
X7620000Y44190000D03*
X5080000Y44190000D03*
X7620000Y46730000D03*
X5080000Y46730000D03*
X7620000Y49270000D03*
X5080000Y49270000D03*
X7620000Y51810000D03*
X5080000Y51810000D03*
X7620000Y54350000D03*
X5080000Y54350000D03*
X7620000Y56890000D03*
X5080000Y56890000D03*
X7620000Y59430000D03*
X5080000Y59430000D03*
X7620000Y61970000D03*
X5080000Y61970000D03*
X7620000Y64510000D03*
X5080000Y64510000D03*
X7620000Y67050000D03*
X5080000Y67050000D03*
X7620000Y69590000D03*
X5080000Y69590000D03*
X7620000Y72130000D03*
X5080000Y72130000D03*
X7620000Y74670000D03*
D13*
X5080000Y74670000D03*
D17*
X16510000Y93980000D03*
D18*
X24130000Y71120000D03*
X16510000Y91440000D03*
X24130000Y73660000D03*
X16510000Y88900000D03*
X24130000Y76200000D03*
X16510000Y86360000D03*
X24130000Y78740000D03*
X16510000Y83820000D03*
X24130000Y81280000D03*
X16510000Y81280000D03*
X24130000Y83820000D03*
X16510000Y78740000D03*
X24130000Y86360000D03*
X16510000Y76200000D03*
X24130000Y88900000D03*
X16510000Y73660000D03*
X24130000Y91440000D03*
X16510000Y71120000D03*
X24130000Y93980000D03*
X24130000Y64135000D03*
X16510000Y41275000D03*
X24130000Y61595000D03*
X16510000Y43815000D03*
X24130000Y59055000D03*
X16510000Y46355000D03*
X24130000Y56515000D03*
X16510000Y48895000D03*
X24130000Y53975000D03*
X16510000Y51435000D03*
X24130000Y51435000D03*
X16510000Y53975000D03*
X24130000Y48895000D03*
X16510000Y56515000D03*
X24130000Y46355000D03*
X16510000Y59055000D03*
X24130000Y43815000D03*
X16510000Y61595000D03*
X24130000Y41275000D03*
D17*
X16510000Y64135000D03*
X16510000Y33020000D03*
D18*
X24130000Y5080000D03*
X16510000Y30480000D03*
X24130000Y7620000D03*
X16510000Y27940000D03*
X24130000Y10160000D03*
X16510000Y25400000D03*
X24130000Y12700000D03*
X16510000Y22860000D03*
X24130000Y15240000D03*
X16510000Y20320000D03*
X24130000Y17780000D03*
X16510000Y17780000D03*
X24130000Y20320000D03*
X16510000Y15240000D03*
X24130000Y22860000D03*
X16510000Y12700000D03*
X24130000Y25400000D03*
X16510000Y10160000D03*
X24130000Y27940000D03*
X16510000Y7620000D03*
X24130000Y30480000D03*
X16510000Y5080000D03*
X24130000Y33020000D03*
D17*
X41910000Y93980000D03*
D18*
X49530000Y71120000D03*
X41910000Y91440000D03*
X49530000Y73660000D03*
X41910000Y88900000D03*
X49530000Y76200000D03*
X41910000Y86360000D03*
X49530000Y78740000D03*
X41910000Y83820000D03*
X49530000Y81280000D03*
X41910000Y81280000D03*
X49530000Y83820000D03*
X41910000Y78740000D03*
X49530000Y86360000D03*
X41910000Y76200000D03*
X49530000Y88900000D03*
X41910000Y73660000D03*
X49530000Y91440000D03*
X41910000Y71120000D03*
X49530000Y93980000D03*
D15*
X7620000Y84455000D03*
D10*
X7620000Y86955000D03*
D13*
X66675000Y96520000D03*
D14*
X64135000Y96520000D03*
X61595000Y96520000D03*
D15*
X38100000Y61595000D03*
D16*
X53340000Y28575000D03*
X38100000Y59055000D03*
X53340000Y31115000D03*
X38100000Y56515000D03*
X53340000Y33655000D03*
X38100000Y53975000D03*
X53340000Y36195000D03*
X38100000Y51435000D03*
X53340000Y38735000D03*
X38100000Y48895000D03*
X53340000Y41275000D03*
X38100000Y46355000D03*
X53340000Y43815000D03*
X38100000Y43815000D03*
X53340000Y46355000D03*
X38100000Y41275000D03*
X53340000Y48895000D03*
X38100000Y38735000D03*
X53340000Y51435000D03*
X38100000Y36195000D03*
X53340000Y53975000D03*
X38100000Y33655000D03*
X53340000Y56515000D03*
X38100000Y31115000D03*
X53340000Y59055000D03*
X38100000Y28575000D03*
X53340000Y61595000D03*
D13*
X61595000Y71120000D03*
D14*
X61595000Y68580000D03*
X61595000Y66040000D03*
X61595000Y63500000D03*
X61595000Y60960000D03*
X61595000Y58420000D03*
D19*
X51857700Y27455200D03*
X55122200Y29719500D03*
X59736700Y33232500D03*
X61220100Y33896000D03*
X63917500Y37921500D03*
X42418900Y61389400D03*
X20821600Y64738500D03*
X40986400Y61964800D03*
X19792200Y56325500D03*
X41898300Y62599900D03*
X51839700Y67494300D03*
X28286900Y56917400D03*
X67999800Y17362900D03*
X51732300Y39739400D03*
X48394900Y12385000D03*
X56515000Y53975000D03*
X56515000Y82550000D03*
X9352000Y31107000D03*
X60273400Y30750400D03*
X35189000Y10975900D03*
X27525900Y48750900D03*
X44204000Y14873400D03*
X22076000Y8754700D03*
X20050300Y32857400D03*
D20*
X24130000Y64452500D02*
X24130000Y64135000D01*
X21590000Y67310000D02*
X24130000Y64770000D01*
X24130000Y64770000D02*
X24130000Y64452500D01*
X16510000Y64135000D02*
X18415000Y64135000D01*
X18415000Y64135000D02*
X21590000Y67310000D01*
X16510000Y93980000D02*
X18110300Y93980000D01*
X23184000Y95561000D02*
X22837000Y95908000D01*
X22837000Y95908000D02*
X20038300Y95908000D01*
X20038300Y95908000D02*
X18110300Y93980000D01*
X22837000Y95908000D02*
X21590000Y97155000D01*
X46990000Y97155000D02*
X45396000Y95561000D01*
X45396000Y95561000D02*
X23184000Y95561000D01*
X92011300Y44974100D02*
X92011300Y34156600D01*
X92011300Y34156600D02*
X88265000Y30410300D01*
X69850000Y73679700D02*
X70397000Y73679700D01*
X70397000Y73679700D02*
X71148200Y72928500D01*
X71148200Y72928500D02*
X71148200Y66242800D01*
X71148200Y66242800D02*
X70945400Y66040000D01*
X88265000Y29210000D02*
X88265000Y30410300D01*
X24130000Y93980000D02*
X24130000Y94615000D01*
X24130000Y94615000D02*
X23184000Y95561000D01*
X69850000Y74930000D02*
X69850000Y73679700D01*
X7620000Y74670000D02*
X7620000Y84455000D01*
X46990000Y64770000D02*
X50165000Y64770000D01*
X50165000Y64770000D02*
X53340000Y61595000D01*
X5080000Y74670000D02*
X7620000Y74670000D01*
X33825000Y10230000D02*
X45015000Y10230000D01*
X45015000Y10230000D02*
X50800000Y4445000D01*
X21590000Y36195000D02*
X24130000Y33655000D01*
X24130000Y33655000D02*
X24130000Y33020000D01*
X45623400Y63403400D02*
X46990000Y64770000D01*
X41433700Y63403400D02*
X45623400Y63403400D01*
X40384600Y64452500D02*
X41433700Y63403400D01*
X37782500Y64452500D02*
X40384600Y64452500D01*
X24130000Y64452500D02*
X37782500Y64452500D01*
X66675000Y78105000D02*
X69850000Y74930000D01*
X66675000Y96520000D02*
X66675000Y78105000D01*
X54610000Y61595000D02*
X61595000Y68580000D01*
X53340000Y61595000D02*
X54610000Y61595000D01*
X70925401Y66059999D02*
X71032700Y65952700D01*
X64115001Y66059999D02*
X70925401Y66059999D01*
X61595000Y68580000D02*
X64115001Y66059999D01*
X71032700Y65952700D02*
X92011300Y44974100D01*
X70945400Y66040000D02*
X71032700Y65952700D01*
X49530000Y94615000D02*
X49530000Y93980000D01*
X46990000Y97155000D02*
X49530000Y94615000D01*
X44490000Y66792000D02*
X44490000Y64770000D01*
X41676500Y71120000D02*
X44490000Y68306500D01*
X44490000Y68306500D02*
X44490000Y66792000D01*
X41676500Y71120000D02*
X41443000Y71120000D01*
X41910000Y71120000D02*
X41676500Y71120000D01*
X71120000Y18084700D02*
X68559000Y15523700D01*
X68559000Y15523700D02*
X36618700Y15523700D01*
X36618700Y15523700D02*
X33825000Y12730000D01*
X41109900Y71120000D02*
X40309700Y71120000D01*
X41109900Y71120000D02*
X41443000Y71120000D01*
X19090000Y69899000D02*
X19090000Y70140300D01*
X19090000Y70140300D02*
X18110300Y71120000D01*
X19090000Y67310000D02*
X19090000Y69899000D01*
X19090000Y69899000D02*
X39088700Y69899000D01*
X39088700Y69899000D02*
X40309700Y71120000D01*
X51739700Y41275000D02*
X39700300Y29235600D01*
X39700300Y29235600D02*
X39700300Y28575000D01*
X71120000Y19685000D02*
X71120000Y18084700D01*
X18110300Y5080000D02*
X18110300Y6266700D01*
X18110300Y6266700D02*
X23273600Y11430000D01*
X23273600Y11430000D02*
X32525000Y11430000D01*
X32525000Y11430000D02*
X33825000Y12730000D01*
X7620000Y21330000D02*
X5080000Y21330000D01*
X16510000Y5080000D02*
X18110300Y5080000D01*
X16510000Y41275000D02*
X18110300Y41275000D01*
X18110300Y41275000D02*
X18110300Y37174700D01*
X18110300Y37174700D02*
X19090000Y36195000D01*
X53340000Y41275000D02*
X51739700Y41275000D01*
X38100000Y28575000D02*
X39700300Y28575000D01*
X37666500Y28575000D02*
X38100000Y28575000D01*
X37666500Y28575000D02*
X36499700Y28575000D01*
X7620000Y64510000D02*
X8870300Y64510000D01*
X16510000Y71120000D02*
X14909700Y71120000D01*
X8870300Y64510000D02*
X8870300Y65080600D01*
X8870300Y65080600D02*
X14909700Y71120000D01*
X93345000Y29210000D02*
X92144700Y29210000D01*
X71120000Y19685000D02*
X72752400Y21317400D01*
X72752400Y21317400D02*
X84625100Y21317400D01*
X84625100Y21317400D02*
X92144700Y28837000D01*
X92144700Y28837000D02*
X92144700Y29210000D01*
X16510000Y71120000D02*
X18110300Y71120000D01*
X36499700Y28575000D02*
X33324700Y31750000D01*
X33324700Y31750000D02*
X23299800Y31750000D01*
X23299800Y31750000D02*
X19090000Y35959800D01*
X19090000Y35959800D02*
X19090000Y36195000D01*
X56445001Y65970001D02*
X61595000Y71120000D01*
X45690001Y65970001D02*
X56445001Y65970001D01*
X44490000Y64770000D02*
X45690001Y65970001D01*
X66040000Y71120000D02*
X69850000Y67310000D01*
X61595000Y71120000D02*
X66040000Y71120000D01*
D21*
X78105000Y44450000D02*
X77004700Y44450000D01*
X77004700Y44450000D02*
X77004700Y44312500D01*
X77004700Y44312500D02*
X60147400Y27455200D01*
X60147400Y27455200D02*
X51857700Y27455200D01*
X55122200Y29719500D02*
X55122200Y29719600D01*
X55122200Y29719600D02*
X60020900Y29719600D01*
X60020900Y29719600D02*
X74464700Y44163400D01*
X74464700Y44163400D02*
X74464700Y44450000D01*
X75565000Y44450000D02*
X74464700Y44450000D01*
X73025000Y44450000D02*
X71924700Y44450000D01*
X71924700Y44450000D02*
X71924700Y43762300D01*
X71924700Y43762300D02*
X61394900Y33232500D01*
X61394900Y33232500D02*
X59736700Y33232500D01*
X70485000Y44450000D02*
X70485000Y43349700D01*
X70485000Y43349700D02*
X61220100Y34084800D01*
X61220100Y34084800D02*
X61220100Y33896000D01*
X67945000Y44450000D02*
X67945000Y43349700D01*
X67945000Y43349700D02*
X63917500Y39322200D01*
X63917500Y39322200D02*
X63917500Y37921500D01*
X63500000Y19685000D02*
X63500000Y21185300D01*
X78105000Y29210000D02*
X70080300Y21185300D01*
X70080300Y21185300D02*
X63500000Y21185300D01*
X48260000Y21185300D02*
X49833800Y22759100D01*
X49833800Y22759100D02*
X70679400Y22759100D01*
X70679400Y22759100D02*
X76835000Y28914700D01*
X76835000Y28914700D02*
X76835000Y29511100D01*
X76835000Y29511100D02*
X77682800Y30358900D01*
X77682800Y30358900D02*
X78533300Y30358900D01*
X78533300Y30358900D02*
X79544700Y29347500D01*
X79544700Y29347500D02*
X79544700Y29210000D01*
X80645000Y29210000D02*
X79544700Y29210000D01*
X48260000Y19685000D02*
X48260000Y21185300D01*
X43180000Y21185300D02*
X47603700Y25609000D01*
X47603700Y25609000D02*
X62787800Y25609000D01*
X62787800Y25609000D02*
X68847900Y31669100D01*
X68847900Y31669100D02*
X72047300Y31669100D01*
X72047300Y31669100D02*
X84624700Y44246500D01*
X84624700Y44246500D02*
X84624700Y44450000D01*
X43180000Y19685000D02*
X43180000Y21185300D01*
X85725000Y44450000D02*
X84624700Y44450000D01*
X40640000Y19685000D02*
X40640000Y21185300D01*
X83185000Y44450000D02*
X82084700Y44450000D01*
X82084700Y44450000D02*
X82084700Y44312300D01*
X82084700Y44312300D02*
X81122100Y43349700D01*
X81122100Y43349700D02*
X79962200Y43349700D01*
X79962200Y43349700D02*
X62787700Y26175200D01*
X62787700Y26175200D02*
X45629900Y26175200D01*
X45629900Y26175200D02*
X40640000Y21185300D01*
X79544700Y44450000D02*
X79544700Y44312500D01*
X79544700Y44312500D02*
X61807800Y26575600D01*
X61807800Y26575600D02*
X43490200Y26575600D01*
X43490200Y26575600D02*
X43490200Y26575500D01*
X43490200Y26575500D02*
X38100000Y21185300D01*
X38100000Y19685000D02*
X38100000Y21185300D01*
X80645000Y44450000D02*
X79544700Y44450000D01*
X51839700Y53975000D02*
X44425300Y61389400D01*
X44425300Y61389400D02*
X42418900Y61389400D01*
X53340000Y53975000D02*
X51839700Y53975000D01*
X53340000Y51435000D02*
X51839700Y51435000D01*
X51839700Y51435000D02*
X45489700Y57785000D01*
X45489700Y57785000D02*
X31750800Y57785000D01*
X31750800Y57785000D02*
X26812400Y62723400D01*
X26812400Y62723400D02*
X22836700Y62723400D01*
X22836700Y62723400D02*
X20821600Y64738500D01*
X51839700Y56515000D02*
X46389900Y61964800D01*
X46389900Y61964800D02*
X40986400Y61964800D01*
X53340000Y56515000D02*
X51839700Y56515000D01*
X53340000Y43815000D02*
X49390600Y43815000D01*
X49390600Y43815000D02*
X40500600Y52705000D01*
X40500600Y52705000D02*
X23412700Y52705000D01*
X23412700Y52705000D02*
X19792200Y56325500D01*
X53340000Y59055000D02*
X51839700Y59055000D01*
X51839700Y59055000D02*
X48294800Y62599900D01*
X48294800Y62599900D02*
X41898300Y62599900D01*
X18010300Y73660000D02*
X19358200Y72312100D01*
X19358200Y72312100D02*
X43690900Y72312100D01*
X43690900Y72312100D02*
X48508700Y67494300D01*
X48508700Y67494300D02*
X51839700Y67494300D01*
X16510000Y73660000D02*
X18010300Y73660000D01*
X38100000Y56515000D02*
X30710300Y56515000D01*
X30710300Y56515000D02*
X25630300Y61595000D01*
X24130000Y61595000D02*
X25630300Y61595000D01*
X16510000Y43815000D02*
X18010300Y43815000D01*
X38100000Y46355000D02*
X36599700Y46355000D01*
X36599700Y46355000D02*
X35329700Y45085000D01*
X35329700Y45085000D02*
X19280300Y45085000D01*
X19280300Y45085000D02*
X18010300Y43815000D01*
X24130000Y53975000D02*
X38100000Y53975000D01*
X16510000Y51435000D02*
X18010300Y51435000D01*
X38100000Y43815000D02*
X39600300Y45315300D01*
X39600300Y45315300D02*
X39600300Y46877300D01*
X39600300Y46877300D02*
X38852600Y47625000D01*
X38852600Y47625000D02*
X21820300Y47625000D01*
X21820300Y47625000D02*
X18010300Y51435000D01*
X38100000Y51435000D02*
X24130000Y51435000D01*
X39600300Y41275000D02*
X40400900Y42075600D01*
X40400900Y42075600D02*
X40400900Y48667400D01*
X40400900Y48667400D02*
X38903300Y50165000D01*
X38903300Y50165000D02*
X21820300Y50165000D01*
X21820300Y50165000D02*
X18010300Y53975000D01*
X16510000Y53975000D02*
X18010300Y53975000D01*
X38100000Y41275000D02*
X39600300Y41275000D01*
X25630300Y43815000D02*
X26748900Y42696400D01*
X26748900Y42696400D02*
X38974200Y42696400D01*
X38974200Y42696400D02*
X40000600Y43722800D01*
X40000600Y43722800D02*
X40000600Y48494700D01*
X40000600Y48494700D02*
X39600300Y48895000D01*
X24130000Y43815000D02*
X25630300Y43815000D01*
X38100000Y48895000D02*
X39600300Y48895000D01*
X28286900Y56917400D02*
X25020900Y60183400D01*
X25020900Y60183400D02*
X23209200Y60183400D01*
X23209200Y60183400D02*
X21797600Y61595000D01*
X21797600Y61595000D02*
X16510000Y61595000D01*
X25630300Y20320000D02*
X28587400Y17362900D01*
X28587400Y17362900D02*
X67999800Y17362900D01*
X24130000Y20320000D02*
X25630300Y20320000D01*
X24130000Y25400000D02*
X37392900Y25400000D01*
X37392900Y25400000D02*
X51732300Y39739400D01*
X90805000Y44450000D02*
X90805000Y43349700D01*
X24130000Y12700000D02*
X25630300Y12700000D01*
X25630300Y12700000D02*
X29583100Y16652800D01*
X29583100Y16652800D02*
X68078100Y16652800D01*
X68078100Y16652800D02*
X69708400Y18283100D01*
X69708400Y18283100D02*
X69708400Y20247100D01*
X69708400Y20247100D02*
X76563000Y27101700D01*
X76563000Y27101700D02*
X80123600Y27101700D01*
X80123600Y27101700D02*
X81915000Y28893100D01*
X81915000Y28893100D02*
X81915000Y34459700D01*
X81915000Y34459700D02*
X90805000Y43349700D01*
X24130000Y10160000D02*
X25630300Y10160000D01*
X48394900Y12385000D02*
X35819700Y12385000D01*
X35819700Y12385000D02*
X34914700Y11480000D01*
X34914700Y11480000D02*
X33518800Y11480000D01*
X33518800Y11480000D02*
X32198800Y10160000D01*
X32198800Y10160000D02*
X25630300Y10160000D01*
X52374003Y52874999D02*
X53868001Y52874999D01*
X44409603Y60839399D02*
X52374003Y52874999D01*
X38855601Y60839399D02*
X44409603Y60839399D01*
X38100000Y61595000D02*
X38855601Y60839399D01*
X64135000Y92710000D02*
X64135000Y96520000D01*
X61595000Y90170000D02*
X64135000Y92710000D01*
X61595000Y90170000D02*
X56515000Y85090000D01*
X53868001Y52874999D02*
X55414999Y52874999D01*
X55414999Y52874999D02*
X56515000Y53975000D01*
X56515000Y53975000D02*
X56515000Y53975000D01*
X56515000Y85090000D02*
X56515000Y82550000D01*
X56515000Y82550000D02*
X56515000Y82550000D01*
X66040000Y19685000D02*
X66040000Y18184700D01*
X16131700Y33020000D02*
X22253900Y26897800D01*
X22253900Y26897800D02*
X22253900Y25248400D01*
X22253900Y25248400D02*
X23372300Y24130000D01*
X23372300Y24130000D02*
X29799000Y24130000D01*
X29799000Y24130000D02*
X35744300Y18184700D01*
X35744300Y18184700D02*
X66040000Y18184700D01*
X16131700Y33020000D02*
X15009700Y33020000D01*
X16510000Y33020000D02*
X16131700Y33020000D01*
X7620000Y23870000D02*
X7620000Y25020300D01*
X15009700Y33020000D02*
X12090100Y30100400D01*
X12090100Y30100400D02*
X7100700Y30100400D01*
X7100700Y30100400D02*
X6443800Y29443500D01*
X6443800Y29443500D02*
X6443800Y25958100D01*
X6443800Y25958100D02*
X7381600Y25020300D01*
X7381600Y25020300D02*
X7620000Y25020300D01*
X68580000Y18184700D02*
X67851600Y18184700D01*
X67851600Y18184700D02*
X67432200Y17765300D01*
X67432200Y17765300D02*
X28751300Y17765300D01*
X28751300Y17765300D02*
X24757000Y21759600D01*
X24757000Y21759600D02*
X23268700Y21759600D01*
X23268700Y21759600D02*
X17910200Y27118100D01*
X17910200Y27118100D02*
X17578100Y26786000D01*
X17578100Y26786000D02*
X9146300Y26786000D01*
X9146300Y26786000D02*
X8770300Y26410000D01*
X18010300Y30480000D02*
X18010300Y27218200D01*
X18010300Y27218200D02*
X17910200Y27118100D01*
X68580000Y19685000D02*
X68580000Y18184700D01*
X7620000Y26410000D02*
X8770300Y26410000D01*
X16510000Y30480000D02*
X18010300Y30480000D01*
X7620000Y28950000D02*
X8770300Y28950000D01*
X16510000Y27940000D02*
X9780300Y27940000D01*
X9780300Y27940000D02*
X8770300Y28950000D01*
X7620000Y31490000D02*
X8770300Y31490000D01*
X9352000Y31107000D02*
X9153300Y31107000D01*
X9153300Y31107000D02*
X8770300Y31490000D01*
X25630300Y7620000D02*
X30705900Y2544400D01*
X30705900Y2544400D02*
X73259700Y2544400D01*
X73259700Y2544400D02*
X73660000Y2944700D01*
X73660000Y4445000D02*
X73660000Y2944700D01*
X24130000Y7620000D02*
X25630300Y7620000D01*
X7620000Y36570000D02*
X7620000Y35419700D01*
X16510000Y20320000D02*
X15009700Y20320000D01*
X15009700Y20320000D02*
X14856600Y20166900D01*
X14856600Y20166900D02*
X4561300Y20166900D01*
X4561300Y20166900D02*
X3927000Y20801200D01*
X3927000Y20801200D02*
X3927000Y29456800D01*
X3927000Y29456800D02*
X4809800Y30339600D01*
X4809800Y30339600D02*
X5580000Y30339600D01*
X5580000Y30339600D02*
X6350000Y31109600D01*
X6350000Y31109600D02*
X6350000Y34388100D01*
X6350000Y34388100D02*
X7381600Y35419700D01*
X7381600Y35419700D02*
X7620000Y35419700D01*
X5080000Y50659700D02*
X4841600Y50659700D01*
X4841600Y50659700D02*
X3525400Y49343500D01*
X3525400Y49343500D02*
X3525400Y20628600D01*
X3525400Y20628600D02*
X11454000Y12700000D01*
X11454000Y12700000D02*
X16510000Y12700000D01*
X5080000Y51810000D02*
X5080000Y50659700D01*
X5080000Y53199700D02*
X4841600Y53199700D01*
X4841600Y53199700D02*
X3123600Y51481700D01*
X3123600Y51481700D02*
X3123600Y20394500D01*
X3123600Y20394500D02*
X13358100Y10160000D01*
X13358100Y10160000D02*
X16510000Y10160000D01*
X5080000Y54350000D02*
X5080000Y53199700D01*
X5080000Y61970000D02*
X6230300Y61970000D01*
X24130000Y59055000D02*
X22629700Y59055000D01*
X22629700Y59055000D02*
X21322100Y60362600D01*
X21322100Y60362600D02*
X15786100Y60362600D01*
X15786100Y60362600D02*
X15568300Y60580400D01*
X15568300Y60580400D02*
X7381500Y60580400D01*
X7381500Y60580400D02*
X6230300Y61731600D01*
X6230300Y61731600D02*
X6230300Y61970000D01*
X24130000Y56515000D02*
X25630300Y56515000D01*
X25630300Y56515000D02*
X26900300Y55245000D01*
X26900300Y55245000D02*
X40998800Y55245000D01*
X40998800Y55245000D02*
X51158800Y45085000D01*
X51158800Y45085000D02*
X54035100Y45085000D01*
X54035100Y45085000D02*
X58341700Y40778400D01*
X58341700Y40778400D02*
X58341700Y32682100D01*
X58341700Y32682100D02*
X60273400Y30750400D01*
X23379900Y56515000D02*
X24130000Y56515000D01*
X23379900Y56515000D02*
X22629700Y56515000D01*
X22629700Y56515000D02*
X22221500Y56923200D01*
X22221500Y56923200D02*
X19593200Y56923200D01*
X19593200Y56923200D02*
X18067900Y55397900D01*
X18067900Y55397900D02*
X11012300Y55397900D01*
X11012300Y55397900D02*
X8130600Y58279600D01*
X8130600Y58279600D02*
X7115000Y58279600D01*
X7115000Y58279600D02*
X6469600Y58925000D01*
X6469600Y58925000D02*
X6469600Y59704700D01*
X6469600Y59704700D02*
X5474300Y60700000D01*
X5474300Y60700000D02*
X4653500Y60700000D01*
X4653500Y60700000D02*
X3914200Y61439300D01*
X3914200Y61439300D02*
X3914200Y62432300D01*
X3914200Y62432300D02*
X4841600Y63359700D01*
X4841600Y63359700D02*
X5080000Y63359700D01*
X5080000Y64510000D02*
X5080000Y63359700D01*
X16510000Y88900000D02*
X15009700Y88900000D01*
X7620000Y67050000D02*
X6469700Y67050000D01*
X6469700Y67050000D02*
X6469700Y67337700D01*
X6469700Y67337700D02*
X5607100Y68200300D01*
X5607100Y68200300D02*
X4779600Y68200300D01*
X4779600Y68200300D02*
X3877000Y69102900D01*
X3877000Y69102900D02*
X3877000Y82807300D01*
X3877000Y82807300D02*
X6633100Y85563400D01*
X6633100Y85563400D02*
X11673100Y85563400D01*
X11673100Y85563400D02*
X15009700Y88900000D01*
X16943500Y88900000D02*
X16510000Y88900000D01*
X16943500Y88900000D02*
X18010300Y88900000D01*
X41910000Y91440000D02*
X40409700Y91440000D01*
X40409700Y91440000D02*
X39309300Y90339600D01*
X39309300Y90339600D02*
X19449900Y90339600D01*
X19449900Y90339600D02*
X18010300Y88900000D01*
X35189000Y10975900D02*
X53389400Y10975900D01*
X53389400Y10975900D02*
X58420000Y5945300D01*
X24130000Y48895000D02*
X27381800Y48895000D01*
X27381800Y48895000D02*
X27525900Y48750900D01*
X24130000Y78740000D02*
X41910000Y78740000D01*
X5080000Y67050000D02*
X5080000Y65899700D01*
X24130000Y48895000D02*
X21965500Y48895000D01*
X21965500Y48895000D02*
X18155500Y52705000D01*
X18155500Y52705000D02*
X12791100Y52705000D01*
X12791100Y52705000D02*
X9756500Y55739600D01*
X9756500Y55739600D02*
X7081900Y55739600D01*
X7081900Y55739600D02*
X6230400Y56591100D01*
X6230400Y56591100D02*
X6230400Y57428100D01*
X6230400Y57428100D02*
X5498500Y58160000D01*
X5498500Y58160000D02*
X4664600Y58160000D01*
X4664600Y58160000D02*
X3513800Y59310800D01*
X3513800Y59310800D02*
X3513800Y64571900D01*
X3513800Y64571900D02*
X4841600Y65899700D01*
X4841600Y65899700D02*
X5080000Y65899700D01*
X58420000Y4445000D02*
X58420000Y5945300D01*
X41910000Y88900000D02*
X40409700Y88900000D01*
X16510000Y86360000D02*
X18010300Y86360000D01*
X18010300Y86360000D02*
X19110700Y87460400D01*
X19110700Y87460400D02*
X38970100Y87460400D01*
X38970100Y87460400D02*
X40409700Y88900000D01*
X60960000Y4445000D02*
X60960000Y5945300D01*
X44204000Y14873400D02*
X52031900Y14873400D01*
X52031900Y14873400D02*
X60960000Y5945300D01*
X24130000Y76200000D02*
X25630300Y76200000D01*
X25630300Y76200000D02*
X26900300Y77470000D01*
X26900300Y77470000D02*
X42656600Y77470000D01*
X42656600Y77470000D02*
X43410300Y78223700D01*
X43410300Y78223700D02*
X43410300Y81280000D01*
X23696500Y76200000D02*
X24130000Y76200000D01*
X41910000Y81280000D02*
X43410300Y81280000D01*
X23696500Y76200000D02*
X22629700Y76200000D01*
X22629700Y76200000D02*
X21359700Y74930000D01*
X21359700Y74930000D02*
X15744900Y74930000D01*
X15744900Y74930000D02*
X11674900Y70860000D01*
X11674900Y70860000D02*
X7261900Y70860000D01*
X7261900Y70860000D02*
X6230300Y69828400D01*
X6230300Y69828400D02*
X6230300Y69590000D01*
X5080000Y69590000D02*
X6230300Y69590000D01*
X66040000Y4445000D02*
X66040000Y2944700D01*
X66040000Y2944700D02*
X36859500Y2944700D01*
X36859500Y2944700D02*
X31049500Y8754700D01*
X31049500Y8754700D02*
X22076000Y8754700D01*
X40409700Y86360000D02*
X36648100Y82598400D01*
X36648100Y82598400D02*
X21868600Y82598400D01*
X21868600Y82598400D02*
X21868600Y82598300D01*
X21868600Y82598300D02*
X18010300Y78740000D01*
X16510000Y78740000D02*
X18010300Y78740000D01*
X41910000Y86360000D02*
X40409700Y86360000D01*
X15009700Y46355000D02*
X15009700Y37898000D01*
X15009700Y37898000D02*
X20050300Y32857400D01*
X16510000Y46355000D02*
X15009700Y46355000D01*
X16510000Y76200000D02*
X15009700Y76200000D01*
X5080000Y72130000D02*
X6230300Y72130000D01*
X6230300Y72130000D02*
X6230300Y72417700D01*
X6230300Y72417700D02*
X7092900Y73280300D01*
X7092900Y73280300D02*
X12090000Y73280300D01*
X12090000Y73280300D02*
X15009700Y76200000D01*
X41910000Y83820000D02*
X40409700Y83820000D01*
X16510000Y76200000D02*
X18010300Y76200000D01*
X18010300Y76200000D02*
X21820300Y80010000D01*
X21820300Y80010000D02*
X36599700Y80010000D01*
X36599700Y80010000D02*
X40409700Y83820000D01*
X71000001Y63619999D02*
X69850000Y64770000D01*
X71000001Y59137999D02*
X71000001Y63619999D01*
X70402001Y58539999D02*
X71000001Y59137999D01*
X64015001Y58539999D02*
X70402001Y58539999D01*
X61595000Y60960000D02*
X64015001Y58539999D01*
X65405000Y62230000D02*
X69850000Y62230000D01*
X61595000Y66040000D02*
X65405000Y62230000D01*
X65405000Y59690000D02*
X69850000Y59690000D01*
X61595000Y63500000D02*
X65405000Y59690000D01*
X62865000Y57150000D02*
X69850000Y57150000D01*
X61595000Y58420000D02*
X62865000Y57150000D01*
D22*
X99340000Y660000D02*
X660000Y660000D01*
X660000Y5220128D01*
X2765000Y5220128D01*
X2765000Y4779872D01*
X2850890Y4348075D01*
X3019369Y3941331D01*
X3263962Y3575271D01*
X3575271Y3263962D01*
X3941331Y3019369D01*
X4348075Y2850890D01*
X4779872Y2765000D01*
X5220128Y2765000D01*
X5651925Y2850890D01*
X6058669Y3019369D01*
X6424729Y3263962D01*
X6736038Y3575271D01*
X6980631Y3941331D01*
X7149110Y4348075D01*
X7225270Y4730961D01*
X14718096Y4730961D01*
X14735633Y4648182D01*
X14846285Y4388354D01*
X15005500Y4155105D01*
X15207161Y3957399D01*
X15443517Y3802834D01*
X15705486Y3697350D01*
X15983000Y3645000D01*
X16383000Y3645000D01*
X16383000Y4953000D01*
X16637000Y4953000D01*
X16637000Y3645000D01*
X17037000Y3645000D01*
X17314514Y3697350D01*
X17576483Y3802834D01*
X17812839Y3957399D01*
X18014500Y4155105D01*
X18173715Y4388354D01*
X18284367Y4648182D01*
X18301904Y4730961D01*
X18179915Y4953000D01*
X16637000Y4953000D01*
X16383000Y4953000D01*
X14840085Y4953000D01*
X14718096Y4730961D01*
X7225270Y4730961D01*
X7235000Y4779872D01*
X7235000Y5220128D01*
X7149110Y5651925D01*
X6980631Y6058669D01*
X6736038Y6424729D01*
X6424729Y6736038D01*
X6058669Y6980631D01*
X5651925Y7149110D01*
X5220128Y7235000D01*
X4779872Y7235000D01*
X4348075Y7149110D01*
X3941331Y6980631D01*
X3575271Y6736038D01*
X3263962Y6424729D01*
X3019369Y6058669D01*
X2850890Y5651925D01*
X2765000Y5220128D01*
X660000Y5220128D01*
X660000Y51481700D01*
X2385044Y51481700D01*
X2388600Y51445595D01*
X2388601Y20430615D01*
X2385044Y20394500D01*
X2399235Y20250415D01*
X2439142Y20118863D01*
X2441264Y20111867D01*
X2509514Y19984180D01*
X2601363Y19872262D01*
X2629408Y19849246D01*
X12812846Y9665807D01*
X12835862Y9637762D01*
X12863906Y9614747D01*
X12947780Y9545913D01*
X13075466Y9477663D01*
X13214015Y9435635D01*
X13358100Y9421444D01*
X13394205Y9425000D01*
X14875736Y9425000D01*
X14911068Y9358899D01*
X15090392Y9140392D01*
X15308899Y8961068D01*
X15441858Y8890000D01*
X15308899Y8818932D01*
X15090392Y8639608D01*
X14911068Y8421101D01*
X14777818Y8171808D01*
X14695764Y7901309D01*
X14668057Y7620000D01*
X14695764Y7338691D01*
X14777818Y7068192D01*
X14911068Y6818899D01*
X15090392Y6600392D01*
X15308899Y6421068D01*
X15436741Y6352735D01*
X15207161Y6202601D01*
X15005500Y6004895D01*
X14846285Y5771646D01*
X14735633Y5511818D01*
X14718096Y5429039D01*
X14840085Y5207000D01*
X16383000Y5207000D01*
X16383000Y5227000D01*
X16637000Y5227000D01*
X16637000Y5207000D01*
X18179915Y5207000D01*
X18301904Y5429039D01*
X18284367Y5511818D01*
X18173715Y5771646D01*
X18014500Y6004895D01*
X17812839Y6202601D01*
X17583259Y6352735D01*
X17711101Y6421068D01*
X17929608Y6600392D01*
X18108932Y6818899D01*
X18242182Y7068192D01*
X18324236Y7338691D01*
X18351943Y7620000D01*
X18324236Y7901309D01*
X18242182Y8171808D01*
X18108932Y8421101D01*
X17929608Y8639608D01*
X17711101Y8818932D01*
X17578142Y8890000D01*
X17711101Y8961068D01*
X17929608Y9140392D01*
X18108932Y9358899D01*
X18242182Y9608192D01*
X18324236Y9878691D01*
X18351943Y10160000D01*
X18324236Y10441309D01*
X18242182Y10711808D01*
X18108932Y10961101D01*
X17929608Y11179608D01*
X17711101Y11358932D01*
X17578142Y11430000D01*
X17711101Y11501068D01*
X17929608Y11680392D01*
X18108932Y11898899D01*
X18242182Y12148192D01*
X18324236Y12418691D01*
X18351943Y12700000D01*
X18324236Y12981309D01*
X18242182Y13251808D01*
X18108932Y13501101D01*
X17929608Y13719608D01*
X17711101Y13898932D01*
X17578142Y13970000D01*
X17711101Y14041068D01*
X17929608Y14220392D01*
X18108932Y14438899D01*
X18242182Y14688192D01*
X18324236Y14958691D01*
X18351943Y15240000D01*
X18324236Y15521309D01*
X18242182Y15791808D01*
X18108932Y16041101D01*
X17929608Y16259608D01*
X17711101Y16438932D01*
X17578142Y16510000D01*
X17711101Y16581068D01*
X17929608Y16760392D01*
X18108932Y16978899D01*
X18242182Y17228192D01*
X18324236Y17498691D01*
X18351943Y17780000D01*
X18324236Y18061309D01*
X18242182Y18331808D01*
X18108932Y18581101D01*
X17929608Y18799608D01*
X17711101Y18978932D01*
X17578142Y19050000D01*
X17711101Y19121068D01*
X17929608Y19300392D01*
X18108932Y19518899D01*
X18242182Y19768192D01*
X18324236Y20038691D01*
X18351943Y20320000D01*
X18324236Y20601309D01*
X18242182Y20871808D01*
X18108932Y21121101D01*
X17929608Y21339608D01*
X17711101Y21518932D01*
X17578142Y21590000D01*
X17711101Y21661068D01*
X17929608Y21840392D01*
X18108932Y22058899D01*
X18242182Y22308192D01*
X18324236Y22578691D01*
X18351943Y22860000D01*
X18324236Y23141309D01*
X18242182Y23411808D01*
X18108932Y23661101D01*
X17929608Y23879608D01*
X17711101Y24058932D01*
X17578142Y24130000D01*
X17711101Y24201068D01*
X17929608Y24380392D01*
X18108932Y24598899D01*
X18242182Y24848192D01*
X18324236Y25118691D01*
X18351943Y25400000D01*
X18326060Y25662794D01*
X22682830Y21306023D01*
X22531068Y21121101D01*
X22397818Y20871808D01*
X22315764Y20601309D01*
X22288057Y20320000D01*
X22315764Y20038691D01*
X22397818Y19768192D01*
X22531068Y19518899D01*
X22710392Y19300392D01*
X22928899Y19121068D01*
X23061858Y19050000D01*
X22928899Y18978932D01*
X22710392Y18799608D01*
X22531068Y18581101D01*
X22397818Y18331808D01*
X22315764Y18061309D01*
X22288057Y17780000D01*
X22315764Y17498691D01*
X22397818Y17228192D01*
X22531068Y16978899D01*
X22710392Y16760392D01*
X22928899Y16581068D01*
X23061858Y16510000D01*
X22928899Y16438932D01*
X22710392Y16259608D01*
X22531068Y16041101D01*
X22397818Y15791808D01*
X22315764Y15521309D01*
X22288057Y15240000D01*
X22315764Y14958691D01*
X22397818Y14688192D01*
X22531068Y14438899D01*
X22710392Y14220392D01*
X22928899Y14041068D01*
X23061858Y13970000D01*
X22928899Y13898932D01*
X22710392Y13719608D01*
X22531068Y13501101D01*
X22397818Y13251808D01*
X22315764Y12981309D01*
X22288057Y12700000D01*
X22315764Y12418691D01*
X22397818Y12148192D01*
X22531068Y11898899D01*
X22710392Y11680392D01*
X22928899Y11501068D01*
X23061858Y11430000D01*
X22928899Y11358932D01*
X22710392Y11179608D01*
X22531068Y10961101D01*
X22397818Y10711808D01*
X22315764Y10441309D01*
X22288057Y10160000D01*
X22315764Y9878691D01*
X22397818Y9608192D01*
X22417642Y9571105D01*
X22334145Y9605690D01*
X22163165Y9639700D01*
X21988835Y9639700D01*
X21817855Y9605690D01*
X21656795Y9538977D01*
X21511845Y9442124D01*
X21388576Y9318855D01*
X21291723Y9173905D01*
X21225010Y9012845D01*
X21191000Y8841865D01*
X21191000Y8667535D01*
X21225010Y8496555D01*
X21291723Y8335495D01*
X21388576Y8190545D01*
X21511845Y8067276D01*
X21656795Y7970423D01*
X21817855Y7903710D01*
X21988835Y7869700D01*
X22163165Y7869700D01*
X22315638Y7900029D01*
X22288057Y7620000D01*
X22315764Y7338691D01*
X22397818Y7068192D01*
X22531068Y6818899D01*
X22710392Y6600392D01*
X22928899Y6421068D01*
X23061858Y6350000D01*
X22928899Y6278932D01*
X22710392Y6099608D01*
X22531068Y5881101D01*
X22397818Y5631808D01*
X22315764Y5361309D01*
X22288057Y5080000D01*
X22315764Y4798691D01*
X22397818Y4528192D01*
X22531068Y4278899D01*
X22710392Y4060392D01*
X22928899Y3881068D01*
X23178192Y3747818D01*
X23448691Y3665764D01*
X23659508Y3645000D01*
X24600492Y3645000D01*
X24811309Y3665764D01*
X25081808Y3747818D01*
X25331101Y3881068D01*
X25549608Y4060392D01*
X25728932Y4278899D01*
X25862182Y4528192D01*
X25944236Y4798691D01*
X25971943Y5080000D01*
X25944236Y5361309D01*
X25862182Y5631808D01*
X25728932Y5881101D01*
X25549608Y6099608D01*
X25331101Y6278932D01*
X25198142Y6350000D01*
X25331101Y6421068D01*
X25549608Y6600392D01*
X25577038Y6633816D01*
X30160646Y2050207D01*
X30183662Y2022162D01*
X30295580Y1930313D01*
X30423267Y1862063D01*
X30561815Y1820035D01*
X30669795Y1809400D01*
X30669804Y1809400D01*
X30705899Y1805845D01*
X30741994Y1809400D01*
X73223595Y1809400D01*
X73259700Y1805844D01*
X73295805Y1809400D01*
X73403785Y1820035D01*
X73542333Y1862063D01*
X73670020Y1930313D01*
X73781938Y2022162D01*
X73804959Y2050213D01*
X74154187Y2399441D01*
X74182238Y2422462D01*
X74274087Y2534380D01*
X74310796Y2603057D01*
X74342337Y2662066D01*
X74384365Y2800615D01*
X74384826Y2805299D01*
X74461100Y2846068D01*
X74679607Y3025392D01*
X74858932Y3243899D01*
X74930000Y3376858D01*
X75001068Y3243900D01*
X75180392Y3025393D01*
X75398899Y2846068D01*
X75648192Y2712818D01*
X75918691Y2630764D01*
X76200000Y2603057D01*
X76481308Y2630764D01*
X76751807Y2712818D01*
X77001100Y2846068D01*
X77219607Y3025392D01*
X77398932Y3243899D01*
X77470000Y3376858D01*
X77541068Y3243900D01*
X77720392Y3025393D01*
X77938899Y2846068D01*
X78188192Y2712818D01*
X78458691Y2630764D01*
X78740000Y2603057D01*
X79021308Y2630764D01*
X79291807Y2712818D01*
X79541100Y2846068D01*
X79759607Y3025392D01*
X79938932Y3243899D01*
X80010000Y3376858D01*
X80081068Y3243900D01*
X80260392Y3025393D01*
X80478899Y2846068D01*
X80728192Y2712818D01*
X80998691Y2630764D01*
X81280000Y2603057D01*
X81561308Y2630764D01*
X81831807Y2712818D01*
X82081100Y2846068D01*
X82299607Y3025392D01*
X82478932Y3243899D01*
X82550000Y3376858D01*
X82621068Y3243900D01*
X82800392Y3025393D01*
X83018899Y2846068D01*
X83268192Y2712818D01*
X83538691Y2630764D01*
X83820000Y2603057D01*
X84101308Y2630764D01*
X84371807Y2712818D01*
X84621100Y2846068D01*
X84839607Y3025392D01*
X85018932Y3243899D01*
X85090000Y3376858D01*
X85161068Y3243900D01*
X85340392Y3025393D01*
X85558899Y2846068D01*
X85808192Y2712818D01*
X86078691Y2630764D01*
X86360000Y2603057D01*
X86641308Y2630764D01*
X86911807Y2712818D01*
X87161100Y2846068D01*
X87379607Y3025392D01*
X87558932Y3243899D01*
X87692182Y3493192D01*
X87774236Y3763691D01*
X87795000Y3974508D01*
X87795000Y4915491D01*
X87774236Y5126309D01*
X87745777Y5220128D01*
X92765000Y5220128D01*
X92765000Y4779872D01*
X92850890Y4348075D01*
X93019369Y3941331D01*
X93263962Y3575271D01*
X93575271Y3263962D01*
X93941331Y3019369D01*
X94348075Y2850890D01*
X94779872Y2765000D01*
X95220128Y2765000D01*
X95651925Y2850890D01*
X96058669Y3019369D01*
X96424729Y3263962D01*
X96736038Y3575271D01*
X96980631Y3941331D01*
X97149110Y4348075D01*
X97235000Y4779872D01*
X97235000Y5220128D01*
X97149110Y5651925D01*
X96980631Y6058669D01*
X96736038Y6424729D01*
X96424729Y6736038D01*
X96058669Y6980631D01*
X95651925Y7149110D01*
X95220128Y7235000D01*
X94779872Y7235000D01*
X94348075Y7149110D01*
X93941331Y6980631D01*
X93575271Y6736038D01*
X93263962Y6424729D01*
X93019369Y6058669D01*
X92850890Y5651925D01*
X92765000Y5220128D01*
X87745777Y5220128D01*
X87692182Y5396808D01*
X87558932Y5646101D01*
X87379608Y5864608D01*
X87161101Y6043932D01*
X86911808Y6177182D01*
X86641309Y6259236D01*
X86360000Y6286943D01*
X86078692Y6259236D01*
X85808193Y6177182D01*
X85558900Y6043932D01*
X85340393Y5864608D01*
X85161068Y5646101D01*
X85090000Y5513142D01*
X85018932Y5646101D01*
X84839608Y5864608D01*
X84621101Y6043932D01*
X84371808Y6177182D01*
X84101309Y6259236D01*
X83820000Y6286943D01*
X83538692Y6259236D01*
X83268193Y6177182D01*
X83018900Y6043932D01*
X82800393Y5864608D01*
X82621068Y5646101D01*
X82550000Y5513142D01*
X82478932Y5646101D01*
X82299608Y5864608D01*
X82081101Y6043932D01*
X81831808Y6177182D01*
X81561309Y6259236D01*
X81280000Y6286943D01*
X80998692Y6259236D01*
X80728193Y6177182D01*
X80478900Y6043932D01*
X80260393Y5864608D01*
X80081068Y5646101D01*
X80010000Y5513142D01*
X79938932Y5646101D01*
X79759608Y5864608D01*
X79541101Y6043932D01*
X79291808Y6177182D01*
X79021309Y6259236D01*
X78740000Y6286943D01*
X78458692Y6259236D01*
X78188193Y6177182D01*
X77938900Y6043932D01*
X77720393Y5864608D01*
X77541068Y5646101D01*
X77470000Y5513142D01*
X77398932Y5646101D01*
X77219608Y5864608D01*
X77001101Y6043932D01*
X76751808Y6177182D01*
X76481309Y6259236D01*
X76200000Y6286943D01*
X75918692Y6259236D01*
X75648193Y6177182D01*
X75398900Y6043932D01*
X75180393Y5864608D01*
X75001068Y5646101D01*
X74930000Y5513142D01*
X74858932Y5646101D01*
X74679608Y5864608D01*
X74461101Y6043932D01*
X74211808Y6177182D01*
X73941309Y6259236D01*
X73660000Y6286943D01*
X73378692Y6259236D01*
X73108193Y6177182D01*
X72858900Y6043932D01*
X72640393Y5864608D01*
X72461068Y5646101D01*
X72390000Y5513142D01*
X72318932Y5646101D01*
X72139608Y5864608D01*
X71921101Y6043932D01*
X71671808Y6177182D01*
X71401309Y6259236D01*
X71120000Y6286943D01*
X70838692Y6259236D01*
X70568193Y6177182D01*
X70318900Y6043932D01*
X70100393Y5864608D01*
X69921068Y5646101D01*
X69850000Y5513142D01*
X69778932Y5646101D01*
X69599608Y5864608D01*
X69381101Y6043932D01*
X69131808Y6177182D01*
X68861309Y6259236D01*
X68580000Y6286943D01*
X68298692Y6259236D01*
X68028193Y6177182D01*
X67778900Y6043932D01*
X67560393Y5864608D01*
X67381068Y5646101D01*
X67310000Y5513142D01*
X67238932Y5646101D01*
X67059608Y5864608D01*
X66841101Y6043932D01*
X66591808Y6177182D01*
X66321309Y6259236D01*
X66040000Y6286943D01*
X65758692Y6259236D01*
X65488193Y6177182D01*
X65238900Y6043932D01*
X65020393Y5864608D01*
X64841068Y5646101D01*
X64770000Y5513142D01*
X64698932Y5646101D01*
X64519608Y5864608D01*
X64301101Y6043932D01*
X64051808Y6177182D01*
X63781309Y6259236D01*
X63500000Y6286943D01*
X63218692Y6259236D01*
X62948193Y6177182D01*
X62698900Y6043932D01*
X62480393Y5864608D01*
X62301068Y5646101D01*
X62230000Y5513142D01*
X62158932Y5646101D01*
X61979608Y5864608D01*
X61761101Y6043932D01*
X61684826Y6084702D01*
X61684365Y6089385D01*
X61642337Y6227933D01*
X61574087Y6355620D01*
X61482238Y6467538D01*
X61454193Y6490554D01*
X52577159Y15367587D01*
X52554138Y15395638D01*
X52442220Y15487487D01*
X52314533Y15555737D01*
X52175985Y15597765D01*
X52068005Y15608400D01*
X52031900Y15611956D01*
X51995795Y15608400D01*
X44696953Y15608400D01*
X44623205Y15657677D01*
X44462145Y15724390D01*
X44291165Y15758400D01*
X44116835Y15758400D01*
X43945855Y15724390D01*
X43784795Y15657677D01*
X43639845Y15560824D01*
X43516576Y15437555D01*
X43419723Y15292605D01*
X43353010Y15131545D01*
X43319000Y14960565D01*
X43319000Y14786235D01*
X43353010Y14615255D01*
X43419723Y14454195D01*
X43516576Y14309245D01*
X43639845Y14185976D01*
X43784795Y14089123D01*
X43945855Y14022410D01*
X44116835Y13988400D01*
X44291165Y13988400D01*
X44462145Y14022410D01*
X44623205Y14089123D01*
X44696953Y14138400D01*
X51727454Y14138400D01*
X59973816Y5892037D01*
X59940393Y5864608D01*
X59761068Y5646101D01*
X59690000Y5513142D01*
X59618932Y5646101D01*
X59439608Y5864608D01*
X59221101Y6043932D01*
X59144826Y6084702D01*
X59144365Y6089385D01*
X59102337Y6227934D01*
X59034087Y6355620D01*
X58980375Y6421068D01*
X58942238Y6467538D01*
X58914193Y6490554D01*
X53934659Y11470087D01*
X53911638Y11498138D01*
X53799720Y11589987D01*
X53672033Y11658237D01*
X53533485Y11700265D01*
X53425505Y11710900D01*
X53389400Y11714456D01*
X53353295Y11710900D01*
X48972379Y11710900D01*
X49082324Y11820845D01*
X49179177Y11965795D01*
X49245890Y12126855D01*
X49279900Y12297835D01*
X49279900Y12472165D01*
X49245890Y12643145D01*
X49179177Y12804205D01*
X49082324Y12949155D01*
X48959055Y13072424D01*
X48814105Y13169277D01*
X48653045Y13235990D01*
X48482065Y13270000D01*
X48307735Y13270000D01*
X48136755Y13235990D01*
X47975695Y13169277D01*
X47901947Y13120000D01*
X35855794Y13120000D01*
X35819699Y13123555D01*
X35783604Y13120000D01*
X35783595Y13120000D01*
X35675615Y13109365D01*
X35537067Y13067337D01*
X35409380Y12999087D01*
X35297462Y12907238D01*
X35274446Y12879193D01*
X35256254Y12861001D01*
X35223787Y13080130D01*
X35128603Y13346292D01*
X35061671Y13471514D01*
X34817702Y13543097D01*
X34004605Y12730000D01*
X34018748Y12715857D01*
X33839143Y12536252D01*
X33825000Y12550395D01*
X33810858Y12536252D01*
X33631253Y12715857D01*
X33645395Y12730000D01*
X32832298Y13543097D01*
X32588329Y13471514D01*
X32467429Y13216004D01*
X32398700Y12941816D01*
X32384783Y12659488D01*
X32426213Y12379870D01*
X32521397Y12113708D01*
X32588329Y11988486D01*
X32832296Y11916903D01*
X32716023Y11800630D01*
X32758003Y11758650D01*
X31894354Y10895000D01*
X25764264Y10895000D01*
X25728932Y10961101D01*
X25549608Y11179608D01*
X25331101Y11358932D01*
X25198142Y11430000D01*
X25331101Y11501068D01*
X25549608Y11680392D01*
X25728932Y11898899D01*
X25769702Y11975174D01*
X25774385Y11975635D01*
X25912933Y12017663D01*
X26040620Y12085913D01*
X26152538Y12177762D01*
X26175559Y12205813D01*
X27692448Y13722702D01*
X33011903Y13722702D01*
X33825000Y12909605D01*
X34638097Y13722702D01*
X34566514Y13966671D01*
X34311004Y14087571D01*
X34036816Y14156300D01*
X33754488Y14170217D01*
X33474870Y14128787D01*
X33208708Y14033603D01*
X33083486Y13966671D01*
X33011903Y13722702D01*
X27692448Y13722702D01*
X29887547Y15917800D01*
X68041995Y15917800D01*
X68078100Y15914244D01*
X68114205Y15917800D01*
X68222185Y15928435D01*
X68360733Y15970463D01*
X68488420Y16038713D01*
X68600338Y16130562D01*
X68623358Y16158612D01*
X70202597Y17737850D01*
X70230637Y17760862D01*
X70253650Y17788903D01*
X70253653Y17788906D01*
X70322486Y17872779D01*
X70322487Y17872780D01*
X70390737Y18000467D01*
X70402422Y18038986D01*
X70428354Y18021285D01*
X70688182Y17910633D01*
X70770961Y17893096D01*
X70993000Y18015085D01*
X70993000Y19558000D01*
X70973000Y19558000D01*
X70973000Y19812000D01*
X70993000Y19812000D01*
X70993000Y19832000D01*
X71247000Y19832000D01*
X71247000Y19812000D01*
X71267000Y19812000D01*
X71267000Y19558000D01*
X71247000Y19558000D01*
X71247000Y18015085D01*
X71469039Y17893096D01*
X71551818Y17910633D01*
X71811646Y18021285D01*
X72044895Y18180500D01*
X72242601Y18382161D01*
X72392735Y18611742D01*
X72461068Y18483900D01*
X72640392Y18265393D01*
X72858899Y18086068D01*
X73108192Y17952818D01*
X73378691Y17870764D01*
X73660000Y17843057D01*
X73941308Y17870764D01*
X74211807Y17952818D01*
X74461100Y18086068D01*
X74679607Y18265392D01*
X74858932Y18483899D01*
X74930000Y18616858D01*
X75001068Y18483900D01*
X75180392Y18265393D01*
X75398899Y18086068D01*
X75648192Y17952818D01*
X75918691Y17870764D01*
X76200000Y17843057D01*
X76481308Y17870764D01*
X76751807Y17952818D01*
X77001100Y18086068D01*
X77219607Y18265392D01*
X77398932Y18483899D01*
X77470000Y18616858D01*
X77541068Y18483900D01*
X77720392Y18265393D01*
X77938899Y18086068D01*
X78188192Y17952818D01*
X78458691Y17870764D01*
X78740000Y17843057D01*
X79021308Y17870764D01*
X79291807Y17952818D01*
X79541100Y18086068D01*
X79759607Y18265392D01*
X79938932Y18483899D01*
X80010000Y18616858D01*
X80081068Y18483900D01*
X80260392Y18265393D01*
X80478899Y18086068D01*
X80728192Y17952818D01*
X80998691Y17870764D01*
X81280000Y17843057D01*
X81561308Y17870764D01*
X81831807Y17952818D01*
X82081100Y18086068D01*
X82299607Y18265392D01*
X82478932Y18483899D01*
X82550000Y18616858D01*
X82621068Y18483900D01*
X82800392Y18265393D01*
X83018899Y18086068D01*
X83268192Y17952818D01*
X83538691Y17870764D01*
X83820000Y17843057D01*
X84101308Y17870764D01*
X84371807Y17952818D01*
X84621100Y18086068D01*
X84839607Y18265392D01*
X84932419Y18378483D01*
X84934188Y18360518D01*
X84970498Y18240820D01*
X85029463Y18130506D01*
X85108815Y18033815D01*
X85205506Y17954463D01*
X85315820Y17895498D01*
X85435518Y17859188D01*
X85560000Y17846928D01*
X87160000Y17846928D01*
X87284482Y17859188D01*
X87404180Y17895498D01*
X87514494Y17954463D01*
X87611185Y18033815D01*
X87690537Y18130506D01*
X87749502Y18240820D01*
X87785812Y18360518D01*
X87798072Y18485000D01*
X87798072Y20885000D01*
X87785812Y21009482D01*
X87749502Y21129180D01*
X87690537Y21239494D01*
X87611185Y21336185D01*
X87514494Y21415537D01*
X87404180Y21474502D01*
X87284482Y21510812D01*
X87160000Y21523072D01*
X85560000Y21523072D01*
X85435518Y21510812D01*
X85315820Y21474502D01*
X85205506Y21415537D01*
X85108815Y21336185D01*
X85029463Y21239494D01*
X84970498Y21129180D01*
X84934188Y21009482D01*
X84932419Y20991518D01*
X84839608Y21104608D01*
X84621101Y21283932D01*
X84371808Y21417182D01*
X84101309Y21499236D01*
X83820000Y21526943D01*
X83538692Y21499236D01*
X83268193Y21417182D01*
X83018900Y21283932D01*
X82800393Y21104608D01*
X82621068Y20886101D01*
X82550000Y20753142D01*
X82478932Y20886101D01*
X82299608Y21104608D01*
X82081101Y21283932D01*
X81831808Y21417182D01*
X81561309Y21499236D01*
X81280000Y21526943D01*
X80998692Y21499236D01*
X80728193Y21417182D01*
X80478900Y21283932D01*
X80260393Y21104608D01*
X80081068Y20886101D01*
X80010000Y20753142D01*
X79938932Y20886101D01*
X79759608Y21104608D01*
X79541101Y21283932D01*
X79291808Y21417182D01*
X79021309Y21499236D01*
X78740000Y21526943D01*
X78458692Y21499236D01*
X78188193Y21417182D01*
X77938900Y21283932D01*
X77720393Y21104608D01*
X77541068Y20886101D01*
X77470000Y20753142D01*
X77398932Y20886101D01*
X77219608Y21104608D01*
X77001101Y21283932D01*
X76751808Y21417182D01*
X76481309Y21499236D01*
X76200000Y21526943D01*
X75918692Y21499236D01*
X75648193Y21417182D01*
X75398900Y21283932D01*
X75180393Y21104608D01*
X75001068Y20886101D01*
X74930000Y20753142D01*
X74858932Y20886101D01*
X74679608Y21104608D01*
X74461101Y21283932D01*
X74211808Y21417182D01*
X73941309Y21499236D01*
X73660000Y21526943D01*
X73378692Y21499236D01*
X73108193Y21417182D01*
X72858900Y21283932D01*
X72640393Y21104608D01*
X72461068Y20886101D01*
X72392735Y20758259D01*
X72242601Y20987839D01*
X72044895Y21189500D01*
X71834120Y21333374D01*
X76867447Y26366700D01*
X80087495Y26366700D01*
X80123600Y26363144D01*
X80159705Y26366700D01*
X80267685Y26377335D01*
X80406233Y26419363D01*
X80533920Y26487613D01*
X80645838Y26579462D01*
X80668858Y26607512D01*
X82213475Y28152129D01*
X82270241Y28095363D01*
X82505273Y27938320D01*
X82766426Y27830147D01*
X83043665Y27775000D01*
X83326335Y27775000D01*
X83603574Y27830147D01*
X83864727Y27938320D01*
X84099759Y28095363D01*
X84299637Y28295241D01*
X84455000Y28527759D01*
X84610363Y28295241D01*
X84810241Y28095363D01*
X85045273Y27938320D01*
X85306426Y27830147D01*
X85583665Y27775000D01*
X85866335Y27775000D01*
X86143574Y27830147D01*
X86404727Y27938320D01*
X86639759Y28095363D01*
X86839637Y28295241D01*
X86995000Y28527759D01*
X87150363Y28295241D01*
X87350241Y28095363D01*
X87585273Y27938320D01*
X87846426Y27830147D01*
X88123665Y27775000D01*
X88406335Y27775000D01*
X88683574Y27830147D01*
X88944727Y27938320D01*
X89179759Y28095363D01*
X89379637Y28295241D01*
X89535000Y28527759D01*
X89690363Y28295241D01*
X89890241Y28095363D01*
X90125273Y27938320D01*
X90386426Y27830147D01*
X90663665Y27775000D01*
X90946335Y27775000D01*
X91223574Y27830147D01*
X91484727Y27938320D01*
X91719759Y28095363D01*
X91919637Y28295241D01*
X92076680Y28530273D01*
X92081067Y28540865D01*
X92192615Y28354869D01*
X92381586Y28146481D01*
X92607580Y27978963D01*
X92861913Y27858754D01*
X92995961Y27818096D01*
X93218000Y27940085D01*
X93218000Y29083000D01*
X93198000Y29083000D01*
X93198000Y29337000D01*
X93218000Y29337000D01*
X93218000Y30479915D01*
X93472000Y30479915D01*
X93472000Y29337000D01*
X93492000Y29337000D01*
X93492000Y29083000D01*
X93472000Y29083000D01*
X93472000Y27940085D01*
X93694039Y27818096D01*
X93828087Y27858754D01*
X94082420Y27978963D01*
X94308414Y28146481D01*
X94497385Y28354869D01*
X94608933Y28540865D01*
X94613320Y28530273D01*
X94770363Y28295241D01*
X94970241Y28095363D01*
X95205273Y27938320D01*
X95466426Y27830147D01*
X95743665Y27775000D01*
X96026335Y27775000D01*
X96303574Y27830147D01*
X96564727Y27938320D01*
X96799759Y28095363D01*
X96999637Y28295241D01*
X97156680Y28530273D01*
X97264853Y28791426D01*
X97320000Y29068665D01*
X97320000Y29351335D01*
X97264853Y29628574D01*
X97156680Y29889727D01*
X96999637Y30124759D01*
X96799759Y30324637D01*
X96564727Y30481680D01*
X96303574Y30589853D01*
X96026335Y30645000D01*
X95743665Y30645000D01*
X95466426Y30589853D01*
X95205273Y30481680D01*
X94970241Y30324637D01*
X94770363Y30124759D01*
X94613320Y29889727D01*
X94608933Y29879135D01*
X94497385Y30065131D01*
X94308414Y30273519D01*
X94082420Y30441037D01*
X93828087Y30561246D01*
X93694039Y30601904D01*
X93472000Y30479915D01*
X93218000Y30479915D01*
X92995961Y30601904D01*
X92861913Y30561246D01*
X92607580Y30441037D01*
X92381586Y30273519D01*
X92192615Y30065131D01*
X92081067Y29879135D01*
X92076680Y29889727D01*
X91919637Y30124759D01*
X91719759Y30324637D01*
X91484727Y30481680D01*
X91223574Y30589853D01*
X90946335Y30645000D01*
X90663665Y30645000D01*
X90386426Y30589853D01*
X90125273Y30481680D01*
X89890241Y30324637D01*
X89690363Y30124759D01*
X89535000Y29892241D01*
X89379637Y30124759D01*
X89269982Y30234414D01*
X92572727Y33537159D01*
X92604591Y33563309D01*
X92708936Y33690454D01*
X92786472Y33835513D01*
X92834218Y33992911D01*
X92846300Y34115581D01*
X92846300Y34115591D01*
X92850339Y34156599D01*
X92846300Y34197607D01*
X92846300Y43103336D01*
X92926426Y43070147D01*
X93203665Y43015000D01*
X93486335Y43015000D01*
X93763574Y43070147D01*
X94024727Y43178320D01*
X94259759Y43335363D01*
X94458357Y43533961D01*
X94459188Y43525518D01*
X94495498Y43405820D01*
X94554463Y43295506D01*
X94633815Y43198815D01*
X94730506Y43119463D01*
X94840820Y43060498D01*
X94960518Y43024188D01*
X95085000Y43011928D01*
X96685000Y43011928D01*
X96809482Y43024188D01*
X96929180Y43060498D01*
X97039494Y43119463D01*
X97136185Y43198815D01*
X97215537Y43295506D01*
X97274502Y43405820D01*
X97310812Y43525518D01*
X97323072Y43650000D01*
X97323072Y45250000D01*
X97310812Y45374482D01*
X97274502Y45494180D01*
X97215537Y45604494D01*
X97136185Y45701185D01*
X97039494Y45780537D01*
X96929180Y45839502D01*
X96809482Y45875812D01*
X96685000Y45888072D01*
X95085000Y45888072D01*
X94960518Y45875812D01*
X94840820Y45839502D01*
X94730506Y45780537D01*
X94633815Y45701185D01*
X94554463Y45604494D01*
X94495498Y45494180D01*
X94459188Y45374482D01*
X94458357Y45366039D01*
X94259759Y45564637D01*
X94024727Y45721680D01*
X93763574Y45829853D01*
X93486335Y45885000D01*
X93203665Y45885000D01*
X92926426Y45829853D01*
X92665273Y45721680D01*
X92532982Y45633287D01*
X83410009Y54756260D01*
X93765000Y54756260D01*
X93765000Y54463740D01*
X93822068Y54176842D01*
X93934010Y53906589D01*
X94096525Y53663368D01*
X94303368Y53456525D01*
X94546589Y53294010D01*
X94816842Y53182068D01*
X95103740Y53125000D01*
X95396260Y53125000D01*
X95683158Y53182068D01*
X95953411Y53294010D01*
X96196632Y53456525D01*
X96403475Y53663368D01*
X96520000Y53837760D01*
X96636525Y53663368D01*
X96843368Y53456525D01*
X97086589Y53294010D01*
X97356842Y53182068D01*
X97643740Y53125000D01*
X97936260Y53125000D01*
X98223158Y53182068D01*
X98493411Y53294010D01*
X98736632Y53456525D01*
X98943475Y53663368D01*
X99105990Y53906589D01*
X99217932Y54176842D01*
X99275000Y54463740D01*
X99275000Y54756260D01*
X99217932Y55043158D01*
X99105990Y55313411D01*
X98943475Y55556632D01*
X98736632Y55763475D01*
X98493411Y55925990D01*
X98223158Y56037932D01*
X97936260Y56095000D01*
X97643740Y56095000D01*
X97356842Y56037932D01*
X97086589Y55925990D01*
X96843368Y55763475D01*
X96636525Y55556632D01*
X96520000Y55382240D01*
X96403475Y55556632D01*
X96196632Y55763475D01*
X95953411Y55925990D01*
X95683158Y56037932D01*
X95396260Y56095000D01*
X95103740Y56095000D01*
X94816842Y56037932D01*
X94546589Y55925990D01*
X94303368Y55763475D01*
X94096525Y55556632D01*
X93934010Y55313411D01*
X93822068Y55043158D01*
X93765000Y54756260D01*
X83410009Y54756260D01*
X71981522Y66184745D01*
X71983200Y66201781D01*
X71983200Y66201782D01*
X71987240Y66242800D01*
X71983200Y66283818D01*
X71983200Y72887485D01*
X71987240Y72928501D01*
X71980746Y72994436D01*
X71971118Y73092189D01*
X71923372Y73249587D01*
X71845836Y73394646D01*
X71741491Y73521791D01*
X71709627Y73547941D01*
X71320281Y73937286D01*
X71325812Y73955518D01*
X71338072Y74080000D01*
X71338072Y75076260D01*
X93765000Y75076260D01*
X93765000Y74783740D01*
X93822068Y74496842D01*
X93934010Y74226589D01*
X94096525Y73983368D01*
X94303368Y73776525D01*
X94546589Y73614010D01*
X94816842Y73502068D01*
X95103740Y73445000D01*
X95396260Y73445000D01*
X95683158Y73502068D01*
X95953411Y73614010D01*
X96196632Y73776525D01*
X96403475Y73983368D01*
X96520000Y74157760D01*
X96636525Y73983368D01*
X96843368Y73776525D01*
X97086589Y73614010D01*
X97356842Y73502068D01*
X97643740Y73445000D01*
X97936260Y73445000D01*
X98223158Y73502068D01*
X98493411Y73614010D01*
X98736632Y73776525D01*
X98943475Y73983368D01*
X99105990Y74226589D01*
X99217932Y74496842D01*
X99275000Y74783740D01*
X99275000Y75076260D01*
X99217932Y75363158D01*
X99105990Y75633411D01*
X98943475Y75876632D01*
X98736632Y76083475D01*
X98493411Y76245990D01*
X98223158Y76357932D01*
X97936260Y76415000D01*
X97643740Y76415000D01*
X97356842Y76357932D01*
X97086589Y76245990D01*
X96843368Y76083475D01*
X96636525Y75876632D01*
X96520000Y75702240D01*
X96403475Y75876632D01*
X96196632Y76083475D01*
X95953411Y76245990D01*
X95683158Y76357932D01*
X95396260Y76415000D01*
X95103740Y76415000D01*
X94816842Y76357932D01*
X94546589Y76245990D01*
X94303368Y76083475D01*
X94096525Y75876632D01*
X93934010Y75633411D01*
X93822068Y75363158D01*
X93765000Y75076260D01*
X71338072Y75076260D01*
X71338072Y75780000D01*
X71325812Y75904482D01*
X71289502Y76024180D01*
X71230537Y76134494D01*
X71151185Y76231185D01*
X71054494Y76310537D01*
X70944180Y76369502D01*
X70824482Y76405812D01*
X70700000Y76418072D01*
X69542796Y76418072D01*
X67510000Y78450867D01*
X67510000Y95031928D01*
X67525000Y95031928D01*
X67649482Y95044188D01*
X67769180Y95080498D01*
X67879494Y95139463D01*
X67976185Y95218815D01*
X67977262Y95220128D01*
X81765000Y95220128D01*
X81765000Y94779872D01*
X81850890Y94348075D01*
X82019369Y93941331D01*
X82263962Y93575271D01*
X82575271Y93263962D01*
X82941331Y93019369D01*
X83348075Y92850890D01*
X83779872Y92765000D01*
X84220128Y92765000D01*
X84651925Y92850890D01*
X85058669Y93019369D01*
X85424729Y93263962D01*
X85736038Y93575271D01*
X85980631Y93941331D01*
X86149110Y94348075D01*
X86235000Y94779872D01*
X86235000Y95220128D01*
X86149110Y95651925D01*
X85980631Y96058669D01*
X85736038Y96424729D01*
X85424729Y96736038D01*
X85058669Y96980631D01*
X84651925Y97149110D01*
X84220128Y97235000D01*
X83779872Y97235000D01*
X83348075Y97149110D01*
X82941331Y96980631D01*
X82575271Y96736038D01*
X82263962Y96424729D01*
X82019369Y96058669D01*
X81850890Y95651925D01*
X81765000Y95220128D01*
X67977262Y95220128D01*
X68055537Y95315506D01*
X68114502Y95425820D01*
X68150812Y95545518D01*
X68163072Y95670000D01*
X68163072Y97370000D01*
X68150812Y97494482D01*
X68114502Y97614180D01*
X68055537Y97724494D01*
X67976185Y97821185D01*
X67879494Y97900537D01*
X67769180Y97959502D01*
X67649482Y97995812D01*
X67525000Y98008072D01*
X65825000Y98008072D01*
X65700518Y97995812D01*
X65580820Y97959502D01*
X65470506Y97900537D01*
X65373815Y97821185D01*
X65294463Y97724494D01*
X65235498Y97614180D01*
X65213487Y97541620D01*
X65081632Y97673475D01*
X64838411Y97835990D01*
X64568158Y97947932D01*
X64281260Y98005000D01*
X63988740Y98005000D01*
X63701842Y97947932D01*
X63431589Y97835990D01*
X63188368Y97673475D01*
X62981525Y97466632D01*
X62859805Y97284466D01*
X62790178Y97401355D01*
X62595269Y97617588D01*
X62361920Y97791641D01*
X62099099Y97916825D01*
X61951890Y97961476D01*
X61722000Y97840155D01*
X61722000Y96647000D01*
X61742000Y96647000D01*
X61742000Y96393000D01*
X61722000Y96393000D01*
X61722000Y95199845D01*
X61951890Y95078524D01*
X62099099Y95123175D01*
X62361920Y95248359D01*
X62595269Y95422412D01*
X62790178Y95638645D01*
X62859805Y95755534D01*
X62981525Y95573368D01*
X63188368Y95366525D01*
X63400001Y95225117D01*
X63400000Y93014447D01*
X61100811Y90715257D01*
X61100806Y90715253D01*
X56020808Y85635254D01*
X55992762Y85612237D01*
X55900913Y85500319D01*
X55832663Y85372632D01*
X55804796Y85280767D01*
X55790635Y85234085D01*
X55776444Y85090000D01*
X55780000Y85053895D01*
X55780001Y83042954D01*
X55730723Y82969205D01*
X55664010Y82808145D01*
X55630000Y82637165D01*
X55630000Y82462835D01*
X55664010Y82291855D01*
X55730723Y82130795D01*
X55827576Y81985845D01*
X55950845Y81862576D01*
X56095795Y81765723D01*
X56256855Y81699010D01*
X56427835Y81665000D01*
X56602165Y81665000D01*
X56773145Y81699010D01*
X56934205Y81765723D01*
X57079155Y81862576D01*
X57202424Y81985845D01*
X57299277Y82130795D01*
X57365990Y82291855D01*
X57400000Y82462835D01*
X57400000Y82637165D01*
X57365990Y82808145D01*
X57299277Y82969205D01*
X57250000Y83042953D01*
X57250000Y84785554D01*
X62140253Y89675806D01*
X62140257Y89675811D01*
X64629197Y92164750D01*
X64657237Y92187762D01*
X64680250Y92215803D01*
X64680253Y92215806D01*
X64749086Y92299679D01*
X64749087Y92299680D01*
X64817337Y92427367D01*
X64859365Y92565915D01*
X64870000Y92673895D01*
X64870000Y92673904D01*
X64873555Y92709999D01*
X64870000Y92746094D01*
X64870000Y95225117D01*
X65081632Y95366525D01*
X65213487Y95498380D01*
X65235498Y95425820D01*
X65294463Y95315506D01*
X65373815Y95218815D01*
X65470506Y95139463D01*
X65580820Y95080498D01*
X65700518Y95044188D01*
X65825000Y95031928D01*
X65840000Y95031928D01*
X65840001Y78146029D01*
X65835960Y78105000D01*
X65852082Y77941312D01*
X65899828Y77783914D01*
X65943900Y77701462D01*
X65977365Y77638854D01*
X66081710Y77511709D01*
X66113574Y77485559D01*
X68361928Y75237204D01*
X68361928Y74080000D01*
X68374188Y73955518D01*
X68410498Y73835820D01*
X68469463Y73725506D01*
X68548815Y73628815D01*
X68645506Y73549463D01*
X68755820Y73490498D01*
X68828380Y73468487D01*
X68696525Y73336632D01*
X68534010Y73093411D01*
X68422068Y72823158D01*
X68365000Y72536260D01*
X68365000Y72243740D01*
X68422068Y71956842D01*
X68534010Y71686589D01*
X68696525Y71443368D01*
X68903368Y71236525D01*
X69077760Y71120000D01*
X68903368Y71003475D01*
X68696525Y70796632D01*
X68534010Y70553411D01*
X68422068Y70283158D01*
X68365000Y69996260D01*
X68365000Y69703740D01*
X68422068Y69416842D01*
X68534010Y69146589D01*
X68696525Y68903368D01*
X68903368Y68696525D01*
X69085534Y68574805D01*
X68968645Y68505178D01*
X68752412Y68310269D01*
X68578359Y68076920D01*
X68453175Y67814099D01*
X68408524Y67666890D01*
X68529845Y67437000D01*
X69723000Y67437000D01*
X69723000Y67457000D01*
X69977000Y67457000D01*
X69977000Y67437000D01*
X69997000Y67437000D01*
X69997000Y67183000D01*
X69977000Y67183000D01*
X69977000Y67163000D01*
X69723000Y67163000D01*
X69723000Y67183000D01*
X68529845Y67183000D01*
X68408524Y66953110D01*
X68426150Y66894999D01*
X64460870Y66894999D01*
X63053807Y68302061D01*
X63080000Y68433740D01*
X63080000Y68726260D01*
X63022932Y69013158D01*
X62910990Y69283411D01*
X62748475Y69526632D01*
X62616620Y69658487D01*
X62689180Y69680498D01*
X62799494Y69739463D01*
X62896185Y69818815D01*
X62975537Y69915506D01*
X63034502Y70025820D01*
X63070812Y70145518D01*
X63083072Y70270000D01*
X63080000Y70834250D01*
X62921250Y70993000D01*
X61722000Y70993000D01*
X61722000Y70973000D01*
X61468000Y70973000D01*
X61468000Y70993000D01*
X60268750Y70993000D01*
X60110000Y70834250D01*
X60106928Y70270000D01*
X60119188Y70145518D01*
X60155498Y70025820D01*
X60214463Y69915506D01*
X60293815Y69818815D01*
X60390506Y69739463D01*
X60500820Y69680498D01*
X60573380Y69658487D01*
X60441525Y69526632D01*
X60279010Y69283411D01*
X60167068Y69013158D01*
X60110000Y68726260D01*
X60110000Y68433740D01*
X60136193Y68302061D01*
X54399264Y62565132D01*
X54254759Y62709637D01*
X54019727Y62866680D01*
X53758574Y62974853D01*
X53481335Y63030000D01*
X53198665Y63030000D01*
X53104582Y63011286D01*
X50784446Y65331421D01*
X50758291Y65363291D01*
X50631146Y65467636D01*
X50486087Y65545172D01*
X50328689Y65592918D01*
X50206019Y65605000D01*
X50206018Y65605000D01*
X50165000Y65609040D01*
X50123982Y65605000D01*
X48157930Y65605000D01*
X48104637Y65684759D01*
X47904759Y65884637D01*
X47669727Y66041680D01*
X47408574Y66149853D01*
X47131335Y66205000D01*
X46848665Y66205000D01*
X46571426Y66149853D01*
X46310273Y66041680D01*
X46075241Y65884637D01*
X45875363Y65684759D01*
X45741308Y65484131D01*
X45726671Y65511514D01*
X45482702Y65583097D01*
X44669605Y64770000D01*
X44683748Y64755857D01*
X44504143Y64576252D01*
X44490000Y64590395D01*
X44475858Y64576252D01*
X44296253Y64755857D01*
X44310395Y64770000D01*
X43497298Y65583097D01*
X43253329Y65511514D01*
X43132429Y65256004D01*
X43063700Y64981816D01*
X43049783Y64699488D01*
X43091213Y64419870D01*
X43156110Y64238400D01*
X41779568Y64238400D01*
X41004046Y65013921D01*
X40977891Y65045791D01*
X40850746Y65150136D01*
X40705687Y65227672D01*
X40548289Y65275418D01*
X40425619Y65287500D01*
X40425618Y65287500D01*
X40384600Y65291540D01*
X40343582Y65287500D01*
X25387679Y65287500D01*
X25331101Y65333932D01*
X25081808Y65467182D01*
X24811309Y65549236D01*
X24600492Y65570000D01*
X24510868Y65570000D01*
X24318166Y65762702D01*
X43676903Y65762702D01*
X44490000Y64949605D01*
X45303097Y65762702D01*
X45231514Y66006671D01*
X44976004Y66127571D01*
X44701816Y66196300D01*
X44419488Y66210217D01*
X44139870Y66168787D01*
X43873708Y66073603D01*
X43748486Y66006671D01*
X43676903Y65762702D01*
X24318166Y65762702D01*
X23006285Y67074582D01*
X23025000Y67168665D01*
X23025000Y67451335D01*
X22969853Y67728574D01*
X22861680Y67989727D01*
X22704637Y68224759D01*
X22504759Y68424637D01*
X22269727Y68581680D01*
X22008574Y68689853D01*
X21731335Y68745000D01*
X21448665Y68745000D01*
X21171426Y68689853D01*
X20910273Y68581680D01*
X20675241Y68424637D01*
X20475363Y68224759D01*
X20341308Y68024131D01*
X20326671Y68051514D01*
X20082702Y68123097D01*
X19269605Y67310000D01*
X19283748Y67295857D01*
X19104143Y67116252D01*
X19090000Y67130395D01*
X18276903Y66317298D01*
X18348486Y66073329D01*
X18603996Y65952429D01*
X18878184Y65883700D01*
X18977916Y65878784D01*
X18292121Y65192988D01*
X18240537Y65289494D01*
X18161185Y65386185D01*
X18064494Y65465537D01*
X17954180Y65524502D01*
X17834482Y65560812D01*
X17710000Y65573072D01*
X15310000Y65573072D01*
X15185518Y65560812D01*
X15065820Y65524502D01*
X14955506Y65465537D01*
X14858815Y65386185D01*
X14779463Y65289494D01*
X14720498Y65179180D01*
X14684188Y65059482D01*
X14671928Y64935000D01*
X14671928Y63335000D01*
X14684188Y63210518D01*
X14720498Y63090820D01*
X14779463Y62980506D01*
X14858815Y62883815D01*
X14955506Y62804463D01*
X15065820Y62745498D01*
X15185518Y62709188D01*
X15203482Y62707419D01*
X15090392Y62614608D01*
X14911068Y62396101D01*
X14777818Y62146808D01*
X14695764Y61876309D01*
X14668057Y61595000D01*
X14695596Y61315400D01*
X8956208Y61315400D01*
X9047932Y61536842D01*
X9105000Y61823740D01*
X9105000Y62116260D01*
X9047932Y62403158D01*
X8935990Y62673411D01*
X8773475Y62916632D01*
X8566632Y63123475D01*
X8384466Y63245195D01*
X8501355Y63314822D01*
X8717588Y63509731D01*
X8891641Y63743080D01*
X9016825Y64005901D01*
X9061476Y64153110D01*
X8940155Y64383000D01*
X7747000Y64383000D01*
X7747000Y64363000D01*
X7493000Y64363000D01*
X7493000Y64383000D01*
X7473000Y64383000D01*
X7473000Y64637000D01*
X7493000Y64637000D01*
X7493000Y64657000D01*
X7747000Y64657000D01*
X7747000Y64637000D01*
X8940155Y64637000D01*
X9061476Y64866890D01*
X9016825Y65014099D01*
X8891641Y65276920D01*
X8717588Y65510269D01*
X8501355Y65705178D01*
X8384466Y65774805D01*
X8566632Y65896525D01*
X8773475Y66103368D01*
X8935990Y66346589D01*
X9047932Y66616842D01*
X9105000Y66903740D01*
X9105000Y67196260D01*
X9096402Y67239488D01*
X17649783Y67239488D01*
X17691213Y66959870D01*
X17786397Y66693708D01*
X17853329Y66568486D01*
X18097298Y66496903D01*
X18910395Y67310000D01*
X18097298Y68123097D01*
X17853329Y68051514D01*
X17732429Y67796004D01*
X17663700Y67521816D01*
X17649783Y67239488D01*
X9096402Y67239488D01*
X9047932Y67483158D01*
X8935990Y67753411D01*
X8773475Y67996632D01*
X8566632Y68203475D01*
X8418129Y68302702D01*
X18276903Y68302702D01*
X19090000Y67489605D01*
X19903097Y68302702D01*
X19831514Y68546671D01*
X19576004Y68667571D01*
X19301816Y68736300D01*
X19019488Y68750217D01*
X18739870Y68708787D01*
X18473708Y68613603D01*
X18348486Y68546671D01*
X18276903Y68302702D01*
X8418129Y68302702D01*
X8392240Y68320000D01*
X8566632Y68436525D01*
X8773475Y68643368D01*
X8935990Y68886589D01*
X9047932Y69156842D01*
X9105000Y69443740D01*
X9105000Y69736260D01*
X9047932Y70023158D01*
X9005748Y70125000D01*
X11638795Y70125000D01*
X11674900Y70121444D01*
X11711005Y70125000D01*
X11818985Y70135635D01*
X11957533Y70177663D01*
X12085220Y70245913D01*
X12197138Y70337762D01*
X12220159Y70365813D01*
X12625307Y70770961D01*
X14718096Y70770961D01*
X14735633Y70688182D01*
X14846285Y70428354D01*
X15005500Y70195105D01*
X15207161Y69997399D01*
X15443517Y69842834D01*
X15705486Y69737350D01*
X15983000Y69685000D01*
X16383000Y69685000D01*
X16383000Y70993000D01*
X16637000Y70993000D01*
X16637000Y69685000D01*
X17037000Y69685000D01*
X17314514Y69737350D01*
X17576483Y69842834D01*
X17812839Y69997399D01*
X18014500Y70195105D01*
X18173715Y70428354D01*
X18284367Y70688182D01*
X18301904Y70770961D01*
X18179915Y70993000D01*
X16637000Y70993000D01*
X16383000Y70993000D01*
X14840085Y70993000D01*
X14718096Y70770961D01*
X12625307Y70770961D01*
X14842161Y72987815D01*
X14911068Y72858899D01*
X15090392Y72640392D01*
X15308899Y72461068D01*
X15436741Y72392735D01*
X15207161Y72242601D01*
X15005500Y72044895D01*
X14846285Y71811646D01*
X14735633Y71551818D01*
X14718096Y71469039D01*
X14840085Y71247000D01*
X16383000Y71247000D01*
X16383000Y71267000D01*
X16637000Y71267000D01*
X16637000Y71247000D01*
X18179915Y71247000D01*
X18301904Y71469039D01*
X18284367Y71551818D01*
X18173715Y71811646D01*
X18014500Y72044895D01*
X17812839Y72242601D01*
X17583259Y72392735D01*
X17711101Y72461068D01*
X17929608Y72640392D01*
X17957038Y72673816D01*
X18812946Y71817907D01*
X18835962Y71789862D01*
X18947880Y71698013D01*
X19075567Y71629763D01*
X19214115Y71587735D01*
X19322095Y71577100D01*
X19322104Y71577100D01*
X19358199Y71573545D01*
X19394294Y71577100D01*
X22369089Y71577100D01*
X22315764Y71401309D01*
X22288057Y71120000D01*
X22315764Y70838691D01*
X22397818Y70568192D01*
X22531068Y70318899D01*
X22710392Y70100392D01*
X22928899Y69921068D01*
X23178192Y69787818D01*
X23448691Y69705764D01*
X23659508Y69685000D01*
X24600492Y69685000D01*
X24811309Y69705764D01*
X25081808Y69787818D01*
X25331101Y69921068D01*
X25549608Y70100392D01*
X25728932Y70318899D01*
X25862182Y70568192D01*
X25923690Y70770961D01*
X40118096Y70770961D01*
X40135633Y70688182D01*
X40246285Y70428354D01*
X40405500Y70195105D01*
X40607161Y69997399D01*
X40843517Y69842834D01*
X41105486Y69737350D01*
X41383000Y69685000D01*
X41783000Y69685000D01*
X41783000Y70993000D01*
X42037000Y70993000D01*
X42037000Y69685000D01*
X42437000Y69685000D01*
X42714514Y69737350D01*
X42976483Y69842834D01*
X43212839Y69997399D01*
X43414500Y70195105D01*
X43573715Y70428354D01*
X43684367Y70688182D01*
X43701904Y70770961D01*
X43579915Y70993000D01*
X42037000Y70993000D01*
X41783000Y70993000D01*
X40240085Y70993000D01*
X40118096Y70770961D01*
X25923690Y70770961D01*
X25944236Y70838691D01*
X25971943Y71120000D01*
X25944236Y71401309D01*
X25890911Y71577100D01*
X40146400Y71577100D01*
X40135633Y71551818D01*
X40118096Y71469039D01*
X40240085Y71247000D01*
X41783000Y71247000D01*
X41783000Y71267000D01*
X42037000Y71267000D01*
X42037000Y71247000D01*
X43579915Y71247000D01*
X43628366Y71335188D01*
X47963446Y67000107D01*
X47986462Y66972062D01*
X48098380Y66880213D01*
X48226067Y66811963D01*
X48322586Y66782684D01*
X48364614Y66769935D01*
X48378832Y66768535D01*
X48472595Y66759300D01*
X48472602Y66759300D01*
X48508699Y66755745D01*
X48544796Y66759300D01*
X51346747Y66759300D01*
X51420495Y66710023D01*
X51581555Y66643310D01*
X51752535Y66609300D01*
X51926865Y66609300D01*
X52097845Y66643310D01*
X52258905Y66710023D01*
X52403855Y66806876D01*
X52527124Y66930145D01*
X52623977Y67075095D01*
X52690690Y67236155D01*
X52724700Y67407135D01*
X52724700Y67581465D01*
X52690690Y67752445D01*
X52623977Y67913505D01*
X52527124Y68058455D01*
X52403855Y68181724D01*
X52258905Y68278577D01*
X52097845Y68345290D01*
X51926865Y68379300D01*
X51752535Y68379300D01*
X51581555Y68345290D01*
X51420495Y68278577D01*
X51346747Y68229300D01*
X48813147Y68229300D01*
X44236159Y72806287D01*
X44213138Y72834338D01*
X44101220Y72926187D01*
X43973533Y72994437D01*
X43834985Y73036465D01*
X43727005Y73047100D01*
X43690900Y73050656D01*
X43654795Y73047100D01*
X43609528Y73047100D01*
X43642182Y73108192D01*
X43724236Y73378691D01*
X43751943Y73660000D01*
X43724236Y73941309D01*
X43642182Y74211808D01*
X43508932Y74461101D01*
X43329608Y74679608D01*
X43111101Y74858932D01*
X42978142Y74930000D01*
X43111101Y75001068D01*
X43329608Y75180392D01*
X43508932Y75398899D01*
X43642182Y75648192D01*
X43724236Y75918691D01*
X43751943Y76200000D01*
X43724236Y76481309D01*
X43642182Y76751808D01*
X43508932Y77001101D01*
X43381916Y77155870D01*
X43904497Y77678450D01*
X43932537Y77701462D01*
X43955550Y77729503D01*
X43955553Y77729506D01*
X44024387Y77813380D01*
X44024388Y77813381D01*
X44092637Y77941067D01*
X44134665Y78079615D01*
X44145300Y78187595D01*
X44145300Y78187596D01*
X44148856Y78223700D01*
X44145300Y78259805D01*
X44145300Y81243895D01*
X44148856Y81280000D01*
X44134665Y81424085D01*
X44092637Y81562633D01*
X44024387Y81690320D01*
X43932538Y81802238D01*
X43820620Y81894087D01*
X43692933Y81962337D01*
X43554385Y82004365D01*
X43549702Y82004826D01*
X43508932Y82081101D01*
X43329608Y82299608D01*
X43111101Y82478932D01*
X42978142Y82550000D01*
X43111101Y82621068D01*
X43329608Y82800392D01*
X43508932Y83018899D01*
X43642182Y83268192D01*
X43724236Y83538691D01*
X43751943Y83820000D01*
X43724236Y84101309D01*
X43642182Y84371808D01*
X43508932Y84621101D01*
X43329608Y84839608D01*
X43111101Y85018932D01*
X42978142Y85090000D01*
X43111101Y85161068D01*
X43329608Y85340392D01*
X43508932Y85558899D01*
X43642182Y85808192D01*
X43724236Y86078691D01*
X43751943Y86360000D01*
X43724236Y86641309D01*
X43642182Y86911808D01*
X43508932Y87161101D01*
X43329608Y87379608D01*
X43111101Y87558932D01*
X42978142Y87630000D01*
X43111101Y87701068D01*
X43329608Y87880392D01*
X43508932Y88098899D01*
X43642182Y88348192D01*
X43724236Y88618691D01*
X43751943Y88900000D01*
X43724236Y89181309D01*
X43642182Y89451808D01*
X43508932Y89701101D01*
X43329608Y89919608D01*
X43111101Y90098932D01*
X42978142Y90170000D01*
X43111101Y90241068D01*
X43329608Y90420392D01*
X43508932Y90638899D01*
X43642182Y90888192D01*
X43724236Y91158691D01*
X43751943Y91440000D01*
X43724236Y91721309D01*
X43642182Y91991808D01*
X43508932Y92241101D01*
X43329608Y92459608D01*
X43216518Y92552419D01*
X43234482Y92554188D01*
X43354180Y92590498D01*
X43464494Y92649463D01*
X43561185Y92728815D01*
X43640537Y92825506D01*
X43699502Y92935820D01*
X43735812Y93055518D01*
X43748072Y93180000D01*
X43745000Y93694250D01*
X43586250Y93853000D01*
X42037000Y93853000D01*
X42037000Y93833000D01*
X41783000Y93833000D01*
X41783000Y93853000D01*
X40233750Y93853000D01*
X40075000Y93694250D01*
X40071928Y93180000D01*
X40084188Y93055518D01*
X40120498Y92935820D01*
X40179463Y92825506D01*
X40258815Y92728815D01*
X40355506Y92649463D01*
X40465820Y92590498D01*
X40585518Y92554188D01*
X40603482Y92552419D01*
X40490392Y92459608D01*
X40311068Y92241101D01*
X40270298Y92164826D01*
X40265615Y92164365D01*
X40127066Y92122337D01*
X39999380Y92054087D01*
X39887462Y91962238D01*
X39864446Y91934193D01*
X39004854Y91074600D01*
X25918728Y91074600D01*
X25944236Y91158691D01*
X25971943Y91440000D01*
X25944236Y91721309D01*
X25862182Y91991808D01*
X25728932Y92241101D01*
X25549608Y92459608D01*
X25331101Y92638932D01*
X25198142Y92710000D01*
X25331101Y92781068D01*
X25549608Y92960392D01*
X25728932Y93178899D01*
X25862182Y93428192D01*
X25944236Y93698691D01*
X25971943Y93980000D01*
X25944236Y94261309D01*
X25862182Y94531808D01*
X25758384Y94726000D01*
X40072251Y94726000D01*
X40075000Y94265750D01*
X40233750Y94107000D01*
X41783000Y94107000D01*
X41783000Y94127000D01*
X42037000Y94127000D01*
X42037000Y94107000D01*
X43586250Y94107000D01*
X43745000Y94265750D01*
X43747749Y94726000D01*
X45354982Y94726000D01*
X45396000Y94721960D01*
X45437018Y94726000D01*
X45437019Y94726000D01*
X45559689Y94738082D01*
X45717087Y94785828D01*
X45862146Y94863364D01*
X45989291Y94967709D01*
X46015446Y94999579D01*
X46754582Y95738715D01*
X46848665Y95720000D01*
X47131335Y95720000D01*
X47225418Y95738715D01*
X48044642Y94919491D01*
X47931068Y94781101D01*
X47797818Y94531808D01*
X47715764Y94261309D01*
X47688057Y93980000D01*
X47715764Y93698691D01*
X47797818Y93428192D01*
X47931068Y93178899D01*
X48110392Y92960392D01*
X48328899Y92781068D01*
X48461858Y92710000D01*
X48328899Y92638932D01*
X48110392Y92459608D01*
X47931068Y92241101D01*
X47797818Y91991808D01*
X47715764Y91721309D01*
X47688057Y91440000D01*
X47715764Y91158691D01*
X47797818Y90888192D01*
X47931068Y90638899D01*
X48110392Y90420392D01*
X48328899Y90241068D01*
X48461858Y90170000D01*
X48328899Y90098932D01*
X48110392Y89919608D01*
X47931068Y89701101D01*
X47797818Y89451808D01*
X47715764Y89181309D01*
X47688057Y88900000D01*
X47715764Y88618691D01*
X47797818Y88348192D01*
X47931068Y88098899D01*
X48110392Y87880392D01*
X48328899Y87701068D01*
X48461858Y87630000D01*
X48328899Y87558932D01*
X48110392Y87379608D01*
X47931068Y87161101D01*
X47797818Y86911808D01*
X47715764Y86641309D01*
X47688057Y86360000D01*
X47715764Y86078691D01*
X47797818Y85808192D01*
X47931068Y85558899D01*
X48110392Y85340392D01*
X48328899Y85161068D01*
X48461858Y85090000D01*
X48328899Y85018932D01*
X48110392Y84839608D01*
X47931068Y84621101D01*
X47797818Y84371808D01*
X47715764Y84101309D01*
X47688057Y83820000D01*
X47715764Y83538691D01*
X47797818Y83268192D01*
X47931068Y83018899D01*
X48110392Y82800392D01*
X48328899Y82621068D01*
X48461858Y82550000D01*
X48328899Y82478932D01*
X48110392Y82299608D01*
X47931068Y82081101D01*
X47797818Y81831808D01*
X47715764Y81561309D01*
X47688057Y81280000D01*
X47715764Y80998691D01*
X47797818Y80728192D01*
X47931068Y80478899D01*
X48110392Y80260392D01*
X48328899Y80081068D01*
X48461858Y80010000D01*
X48328899Y79938932D01*
X48110392Y79759608D01*
X47931068Y79541101D01*
X47797818Y79291808D01*
X47715764Y79021309D01*
X47688057Y78740000D01*
X47715764Y78458691D01*
X47797818Y78188192D01*
X47931068Y77938899D01*
X48110392Y77720392D01*
X48328899Y77541068D01*
X48461858Y77470000D01*
X48328899Y77398932D01*
X48110392Y77219608D01*
X47931068Y77001101D01*
X47797818Y76751808D01*
X47715764Y76481309D01*
X47688057Y76200000D01*
X47715764Y75918691D01*
X47797818Y75648192D01*
X47931068Y75398899D01*
X48110392Y75180392D01*
X48328899Y75001068D01*
X48461858Y74930000D01*
X48328899Y74858932D01*
X48110392Y74679608D01*
X47931068Y74461101D01*
X47797818Y74211808D01*
X47715764Y73941309D01*
X47688057Y73660000D01*
X47715764Y73378691D01*
X47797818Y73108192D01*
X47931068Y72858899D01*
X48110392Y72640392D01*
X48328899Y72461068D01*
X48461858Y72390000D01*
X48328899Y72318932D01*
X48110392Y72139608D01*
X47931068Y71921101D01*
X47797818Y71671808D01*
X47715764Y71401309D01*
X47688057Y71120000D01*
X47715764Y70838691D01*
X47797818Y70568192D01*
X47931068Y70318899D01*
X48110392Y70100392D01*
X48328899Y69921068D01*
X48578192Y69787818D01*
X48848691Y69705764D01*
X49059508Y69685000D01*
X50000492Y69685000D01*
X50211309Y69705764D01*
X50481808Y69787818D01*
X50731101Y69921068D01*
X50949608Y70100392D01*
X51128932Y70318899D01*
X51262182Y70568192D01*
X51344236Y70838691D01*
X51371943Y71120000D01*
X51344236Y71401309D01*
X51262182Y71671808D01*
X51128932Y71921101D01*
X51088802Y71970000D01*
X60106928Y71970000D01*
X60110000Y71405750D01*
X60268750Y71247000D01*
X61468000Y71247000D01*
X61468000Y72446250D01*
X61722000Y72446250D01*
X61722000Y71247000D01*
X62921250Y71247000D01*
X63080000Y71405750D01*
X63083072Y71970000D01*
X63070812Y72094482D01*
X63034502Y72214180D01*
X62975537Y72324494D01*
X62896185Y72421185D01*
X62799494Y72500537D01*
X62689180Y72559502D01*
X62569482Y72595812D01*
X62445000Y72608072D01*
X61880750Y72605000D01*
X61722000Y72446250D01*
X61468000Y72446250D01*
X61309250Y72605000D01*
X60745000Y72608072D01*
X60620518Y72595812D01*
X60500820Y72559502D01*
X60390506Y72500537D01*
X60293815Y72421185D01*
X60214463Y72324494D01*
X60155498Y72214180D01*
X60119188Y72094482D01*
X60106928Y71970000D01*
X51088802Y71970000D01*
X50949608Y72139608D01*
X50731101Y72318932D01*
X50598142Y72390000D01*
X50731101Y72461068D01*
X50949608Y72640392D01*
X51128932Y72858899D01*
X51262182Y73108192D01*
X51344236Y73378691D01*
X51371943Y73660000D01*
X51344236Y73941309D01*
X51262182Y74211808D01*
X51128932Y74461101D01*
X50949608Y74679608D01*
X50731101Y74858932D01*
X50598142Y74930000D01*
X50731101Y75001068D01*
X50949608Y75180392D01*
X51128932Y75398899D01*
X51262182Y75648192D01*
X51344236Y75918691D01*
X51371943Y76200000D01*
X51344236Y76481309D01*
X51262182Y76751808D01*
X51128932Y77001101D01*
X50949608Y77219608D01*
X50731101Y77398932D01*
X50598142Y77470000D01*
X50731101Y77541068D01*
X50949608Y77720392D01*
X51128932Y77938899D01*
X51262182Y78188192D01*
X51344236Y78458691D01*
X51371943Y78740000D01*
X51344236Y79021309D01*
X51262182Y79291808D01*
X51128932Y79541101D01*
X50949608Y79759608D01*
X50731101Y79938932D01*
X50598142Y80010000D01*
X50731101Y80081068D01*
X50949608Y80260392D01*
X51128932Y80478899D01*
X51262182Y80728192D01*
X51344236Y80998691D01*
X51371943Y81280000D01*
X51344236Y81561309D01*
X51262182Y81831808D01*
X51128932Y82081101D01*
X50949608Y82299608D01*
X50731101Y82478932D01*
X50598142Y82550000D01*
X50731101Y82621068D01*
X50949608Y82800392D01*
X51128932Y83018899D01*
X51262182Y83268192D01*
X51344236Y83538691D01*
X51371943Y83820000D01*
X51344236Y84101309D01*
X51262182Y84371808D01*
X51128932Y84621101D01*
X50949608Y84839608D01*
X50731101Y85018932D01*
X50598142Y85090000D01*
X50731101Y85161068D01*
X50949608Y85340392D01*
X51128932Y85558899D01*
X51262182Y85808192D01*
X51344236Y86078691D01*
X51371943Y86360000D01*
X51344236Y86641309D01*
X51262182Y86911808D01*
X51128932Y87161101D01*
X50949608Y87379608D01*
X50731101Y87558932D01*
X50598142Y87630000D01*
X50731101Y87701068D01*
X50949608Y87880392D01*
X51128932Y88098899D01*
X51262182Y88348192D01*
X51344236Y88618691D01*
X51371943Y88900000D01*
X51344236Y89181309D01*
X51262182Y89451808D01*
X51128932Y89701101D01*
X50949608Y89919608D01*
X50731101Y90098932D01*
X50598142Y90170000D01*
X50731101Y90241068D01*
X50949608Y90420392D01*
X51128932Y90638899D01*
X51262182Y90888192D01*
X51344236Y91158691D01*
X51371943Y91440000D01*
X51344236Y91721309D01*
X51262182Y91991808D01*
X51128932Y92241101D01*
X50949608Y92459608D01*
X50731101Y92638932D01*
X50598142Y92710000D01*
X50731101Y92781068D01*
X50949608Y92960392D01*
X51128932Y93178899D01*
X51262182Y93428192D01*
X51344236Y93698691D01*
X51371943Y93980000D01*
X51344236Y94261309D01*
X51262182Y94531808D01*
X51128932Y94781101D01*
X50949608Y94999608D01*
X50731101Y95178932D01*
X50481808Y95312182D01*
X50211309Y95394236D01*
X50000492Y95415000D01*
X49910868Y95415000D01*
X49162759Y96163109D01*
X60153519Y96163109D01*
X60250843Y95888748D01*
X60399822Y95638645D01*
X60594731Y95422412D01*
X60828080Y95248359D01*
X61090901Y95123175D01*
X61238110Y95078524D01*
X61468000Y95199845D01*
X61468000Y96393000D01*
X60274186Y96393000D01*
X60153519Y96163109D01*
X49162759Y96163109D01*
X48448977Y96876891D01*
X60153519Y96876891D01*
X60274186Y96647000D01*
X61468000Y96647000D01*
X61468000Y97840155D01*
X61238110Y97961476D01*
X61090901Y97916825D01*
X60828080Y97791641D01*
X60594731Y97617588D01*
X60399822Y97401355D01*
X60250843Y97151252D01*
X60153519Y96876891D01*
X48448977Y96876891D01*
X48406285Y96919582D01*
X48425000Y97013665D01*
X48425000Y97296335D01*
X48369853Y97573574D01*
X48261680Y97834727D01*
X48104637Y98069759D01*
X47904759Y98269637D01*
X47669727Y98426680D01*
X47408574Y98534853D01*
X47131335Y98590000D01*
X46848665Y98590000D01*
X46571426Y98534853D01*
X46310273Y98426680D01*
X46075241Y98269637D01*
X45875363Y98069759D01*
X45741308Y97869131D01*
X45726671Y97896514D01*
X45482702Y97968097D01*
X44669605Y97155000D01*
X44683748Y97140857D01*
X44504143Y96961252D01*
X44490000Y96975395D01*
X44475858Y96961252D01*
X44296253Y97140857D01*
X44310395Y97155000D01*
X43497298Y97968097D01*
X43253329Y97896514D01*
X43132429Y97641004D01*
X43063700Y97366816D01*
X43049783Y97084488D01*
X43091213Y96804870D01*
X43186397Y96538708D01*
X43253329Y96413486D01*
X43312925Y96396000D01*
X23529867Y96396000D01*
X23456446Y96469421D01*
X23430291Y96501291D01*
X23398426Y96527442D01*
X23006286Y96919582D01*
X23025000Y97013665D01*
X23025000Y97296335D01*
X22969853Y97573574D01*
X22861680Y97834727D01*
X22704637Y98069759D01*
X22626694Y98147702D01*
X43676903Y98147702D01*
X44490000Y97334605D01*
X45303097Y98147702D01*
X45231514Y98391671D01*
X44976004Y98512571D01*
X44701816Y98581300D01*
X44419488Y98595217D01*
X44139870Y98553787D01*
X43873708Y98458603D01*
X43748486Y98391671D01*
X43676903Y98147702D01*
X22626694Y98147702D01*
X22504759Y98269637D01*
X22269727Y98426680D01*
X22008574Y98534853D01*
X21731335Y98590000D01*
X21448665Y98590000D01*
X21171426Y98534853D01*
X20910273Y98426680D01*
X20675241Y98269637D01*
X20475363Y98069759D01*
X20341308Y97869131D01*
X20326671Y97896514D01*
X20082702Y97968097D01*
X19269605Y97155000D01*
X19283748Y97140857D01*
X19104143Y96961252D01*
X19090000Y96975395D01*
X18276903Y96162298D01*
X18348486Y95918329D01*
X18603996Y95797429D01*
X18718227Y95768795D01*
X18169944Y95220512D01*
X18161185Y95231185D01*
X18064494Y95310537D01*
X17954180Y95369502D01*
X17834482Y95405812D01*
X17710000Y95418072D01*
X15310000Y95418072D01*
X15185518Y95405812D01*
X15065820Y95369502D01*
X14955506Y95310537D01*
X14858815Y95231185D01*
X14779463Y95134494D01*
X14720498Y95024180D01*
X14684188Y94904482D01*
X14671928Y94780000D01*
X14671928Y93180000D01*
X14684188Y93055518D01*
X14720498Y92935820D01*
X14779463Y92825506D01*
X14858815Y92728815D01*
X14955506Y92649463D01*
X15065820Y92590498D01*
X15185518Y92554188D01*
X15203482Y92552419D01*
X15090392Y92459608D01*
X14911068Y92241101D01*
X14777818Y91991808D01*
X14695764Y91721309D01*
X14668057Y91440000D01*
X14695764Y91158691D01*
X14777818Y90888192D01*
X14911068Y90638899D01*
X15090392Y90420392D01*
X15308899Y90241068D01*
X15441858Y90170000D01*
X15308899Y90098932D01*
X15090392Y89919608D01*
X14911068Y89701101D01*
X14870298Y89624826D01*
X14865614Y89624365D01*
X14835517Y89615235D01*
X14727067Y89582337D01*
X14599380Y89514087D01*
X14487462Y89422238D01*
X14464446Y89394193D01*
X11368654Y86298400D01*
X8896850Y86298400D01*
X8977571Y86468996D01*
X9046300Y86743184D01*
X9060217Y87025512D01*
X9018787Y87305130D01*
X8923603Y87571292D01*
X8856671Y87696514D01*
X8612702Y87768097D01*
X7799605Y86955000D01*
X7813748Y86940857D01*
X7634143Y86761252D01*
X7620000Y86775395D01*
X7605858Y86761252D01*
X7426253Y86940857D01*
X7440395Y86955000D01*
X6627298Y87768097D01*
X6383329Y87696514D01*
X6262429Y87441004D01*
X6193700Y87166816D01*
X6179783Y86884488D01*
X6221213Y86604870D01*
X6316397Y86338708D01*
X6363911Y86249815D01*
X6350467Y86245737D01*
X6222780Y86177487D01*
X6110862Y86085638D01*
X6087846Y86057593D01*
X3382808Y83352554D01*
X3354763Y83329538D01*
X3262914Y83217620D01*
X3220176Y83137663D01*
X3194664Y83089933D01*
X3152635Y82951385D01*
X3138444Y82807300D01*
X3142001Y82771185D01*
X3142000Y69139005D01*
X3138444Y69102900D01*
X3142000Y69066796D01*
X3152635Y68958816D01*
X3194663Y68820268D01*
X3262913Y68692581D01*
X3354762Y68580663D01*
X3382808Y68557646D01*
X3935173Y68005280D01*
X3926525Y67996632D01*
X3764010Y67753411D01*
X3652068Y67483158D01*
X3595000Y67196260D01*
X3595000Y66903740D01*
X3652068Y66616842D01*
X3764010Y66346589D01*
X3926525Y66103368D01*
X3966173Y66063720D01*
X3019608Y65117154D01*
X2991563Y65094138D01*
X2899714Y64982220D01*
X2865733Y64918646D01*
X2831464Y64854533D01*
X2789435Y64715985D01*
X2775244Y64571900D01*
X2778801Y64535785D01*
X2778800Y59346905D01*
X2775244Y59310800D01*
X2778800Y59274696D01*
X2789435Y59166716D01*
X2831463Y59028168D01*
X2899713Y58900481D01*
X2991562Y58788563D01*
X3019608Y58765546D01*
X3937523Y57847630D01*
X3926525Y57836632D01*
X3764010Y57593411D01*
X3652068Y57323158D01*
X3595000Y57036260D01*
X3595000Y56743740D01*
X3652068Y56456842D01*
X3764010Y56186589D01*
X3926525Y55943368D01*
X4133368Y55736525D01*
X4307760Y55620000D01*
X4133368Y55503475D01*
X3926525Y55296632D01*
X3764010Y55053411D01*
X3652068Y54783158D01*
X3595000Y54496260D01*
X3595000Y54203740D01*
X3652068Y53916842D01*
X3764010Y53646589D01*
X3926525Y53403368D01*
X3966173Y53363720D01*
X2629408Y52026954D01*
X2601362Y52003937D01*
X2509513Y51892019D01*
X2441263Y51764332D01*
X2411984Y51667813D01*
X2399235Y51625785D01*
X2385044Y51481700D01*
X660000Y51481700D01*
X660000Y87947702D01*
X6806903Y87947702D01*
X7620000Y87134605D01*
X8433097Y87947702D01*
X8361514Y88191671D01*
X8106004Y88312571D01*
X7831816Y88381300D01*
X7549488Y88395217D01*
X7269870Y88353787D01*
X7003708Y88258603D01*
X6878486Y88191671D01*
X6806903Y87947702D01*
X660000Y87947702D01*
X660000Y95220128D01*
X2765000Y95220128D01*
X2765000Y94779872D01*
X2850890Y94348075D01*
X3019369Y93941331D01*
X3263962Y93575271D01*
X3575271Y93263962D01*
X3941331Y93019369D01*
X4348075Y92850890D01*
X4779872Y92765000D01*
X5220128Y92765000D01*
X5651925Y92850890D01*
X6058669Y93019369D01*
X6424729Y93263962D01*
X6736038Y93575271D01*
X6980631Y93941331D01*
X7149110Y94348075D01*
X7235000Y94779872D01*
X7235000Y95220128D01*
X7149110Y95651925D01*
X6980631Y96058669D01*
X6736038Y96424729D01*
X6424729Y96736038D01*
X6058669Y96980631D01*
X5807937Y97084488D01*
X17649783Y97084488D01*
X17691213Y96804870D01*
X17786397Y96538708D01*
X17853329Y96413486D01*
X18097298Y96341903D01*
X18910395Y97155000D01*
X18097298Y97968097D01*
X17853329Y97896514D01*
X17732429Y97641004D01*
X17663700Y97366816D01*
X17649783Y97084488D01*
X5807937Y97084488D01*
X5651925Y97149110D01*
X5220128Y97235000D01*
X4779872Y97235000D01*
X4348075Y97149110D01*
X3941331Y96980631D01*
X3575271Y96736038D01*
X3263962Y96424729D01*
X3019369Y96058669D01*
X2850890Y95651925D01*
X2765000Y95220128D01*
X660000Y95220128D01*
X660000Y98147702D01*
X18276903Y98147702D01*
X19090000Y97334605D01*
X19903097Y98147702D01*
X19831514Y98391671D01*
X19576004Y98512571D01*
X19301816Y98581300D01*
X19019488Y98595217D01*
X18739870Y98553787D01*
X18473708Y98458603D01*
X18348486Y98391671D01*
X18276903Y98147702D01*
X660000Y98147702D01*
X660000Y99340000D01*
X99340001Y99340000D01*
X99340000Y660000D01*
G04 #@! TA.AperFunction,Conductor*
D23*
G36*
X99340000Y660000D02*
G01*
X660000Y660000D01*
X660000Y5220128D01*
X2765000Y5220128D01*
X2765000Y4779872D01*
X2850890Y4348075D01*
X3019369Y3941331D01*
X3263962Y3575271D01*
X3575271Y3263962D01*
X3941331Y3019369D01*
X4348075Y2850890D01*
X4779872Y2765000D01*
X5220128Y2765000D01*
X5651925Y2850890D01*
X6058669Y3019369D01*
X6424729Y3263962D01*
X6736038Y3575271D01*
X6980631Y3941331D01*
X7149110Y4348075D01*
X7225270Y4730961D01*
X14718096Y4730961D01*
X14735633Y4648182D01*
X14846285Y4388354D01*
X15005500Y4155105D01*
X15207161Y3957399D01*
X15443517Y3802834D01*
X15705486Y3697350D01*
X15983000Y3645000D01*
X16383000Y3645000D01*
X16383000Y4953000D01*
X16637000Y4953000D01*
X16637000Y3645000D01*
X17037000Y3645000D01*
X17314514Y3697350D01*
X17576483Y3802834D01*
X17812839Y3957399D01*
X18014500Y4155105D01*
X18173715Y4388354D01*
X18284367Y4648182D01*
X18301904Y4730961D01*
X18179915Y4953000D01*
X16637000Y4953000D01*
X16383000Y4953000D01*
X14840085Y4953000D01*
X14718096Y4730961D01*
X7225270Y4730961D01*
X7235000Y4779872D01*
X7235000Y5220128D01*
X7149110Y5651925D01*
X6980631Y6058669D01*
X6736038Y6424729D01*
X6424729Y6736038D01*
X6058669Y6980631D01*
X5651925Y7149110D01*
X5220128Y7235000D01*
X4779872Y7235000D01*
X4348075Y7149110D01*
X3941331Y6980631D01*
X3575271Y6736038D01*
X3263962Y6424729D01*
X3019369Y6058669D01*
X2850890Y5651925D01*
X2765000Y5220128D01*
X660000Y5220128D01*
X660000Y51481700D01*
X2385044Y51481700D01*
X2388600Y51445595D01*
X2388601Y20430615D01*
X2385044Y20394500D01*
X2399235Y20250415D01*
X2439142Y20118863D01*
X2441264Y20111867D01*
X2509514Y19984180D01*
X2601363Y19872262D01*
X2629408Y19849246D01*
X12812846Y9665807D01*
X12835862Y9637762D01*
X12863906Y9614747D01*
X12947780Y9545913D01*
X13075466Y9477663D01*
X13214015Y9435635D01*
X13358100Y9421444D01*
X13394205Y9425000D01*
X14875736Y9425000D01*
X14911068Y9358899D01*
X15090392Y9140392D01*
X15308899Y8961068D01*
X15441858Y8890000D01*
X15308899Y8818932D01*
X15090392Y8639608D01*
X14911068Y8421101D01*
X14777818Y8171808D01*
X14695764Y7901309D01*
X14668057Y7620000D01*
X14695764Y7338691D01*
X14777818Y7068192D01*
X14911068Y6818899D01*
X15090392Y6600392D01*
X15308899Y6421068D01*
X15436741Y6352735D01*
X15207161Y6202601D01*
X15005500Y6004895D01*
X14846285Y5771646D01*
X14735633Y5511818D01*
X14718096Y5429039D01*
X14840085Y5207000D01*
X16383000Y5207000D01*
X16383000Y5227000D01*
X16637000Y5227000D01*
X16637000Y5207000D01*
X18179915Y5207000D01*
X18301904Y5429039D01*
X18284367Y5511818D01*
X18173715Y5771646D01*
X18014500Y6004895D01*
X17812839Y6202601D01*
X17583259Y6352735D01*
X17711101Y6421068D01*
X17929608Y6600392D01*
X18108932Y6818899D01*
X18242182Y7068192D01*
X18324236Y7338691D01*
X18351943Y7620000D01*
X18324236Y7901309D01*
X18242182Y8171808D01*
X18108932Y8421101D01*
X17929608Y8639608D01*
X17711101Y8818932D01*
X17578142Y8890000D01*
X17711101Y8961068D01*
X17929608Y9140392D01*
X18108932Y9358899D01*
X18242182Y9608192D01*
X18324236Y9878691D01*
X18351943Y10160000D01*
X18324236Y10441309D01*
X18242182Y10711808D01*
X18108932Y10961101D01*
X17929608Y11179608D01*
X17711101Y11358932D01*
X17578142Y11430000D01*
X17711101Y11501068D01*
X17929608Y11680392D01*
X18108932Y11898899D01*
X18242182Y12148192D01*
X18324236Y12418691D01*
X18351943Y12700000D01*
X18324236Y12981309D01*
X18242182Y13251808D01*
X18108932Y13501101D01*
X17929608Y13719608D01*
X17711101Y13898932D01*
X17578142Y13970000D01*
X17711101Y14041068D01*
X17929608Y14220392D01*
X18108932Y14438899D01*
X18242182Y14688192D01*
X18324236Y14958691D01*
X18351943Y15240000D01*
X18324236Y15521309D01*
X18242182Y15791808D01*
X18108932Y16041101D01*
X17929608Y16259608D01*
X17711101Y16438932D01*
X17578142Y16510000D01*
X17711101Y16581068D01*
X17929608Y16760392D01*
X18108932Y16978899D01*
X18242182Y17228192D01*
X18324236Y17498691D01*
X18351943Y17780000D01*
X18324236Y18061309D01*
X18242182Y18331808D01*
X18108932Y18581101D01*
X17929608Y18799608D01*
X17711101Y18978932D01*
X17578142Y19050000D01*
X17711101Y19121068D01*
X17929608Y19300392D01*
X18108932Y19518899D01*
X18242182Y19768192D01*
X18324236Y20038691D01*
X18351943Y20320000D01*
X18324236Y20601309D01*
X18242182Y20871808D01*
X18108932Y21121101D01*
X17929608Y21339608D01*
X17711101Y21518932D01*
X17578142Y21590000D01*
X17711101Y21661068D01*
X17929608Y21840392D01*
X18108932Y22058899D01*
X18242182Y22308192D01*
X18324236Y22578691D01*
X18351943Y22860000D01*
X18324236Y23141309D01*
X18242182Y23411808D01*
X18108932Y23661101D01*
X17929608Y23879608D01*
X17711101Y24058932D01*
X17578142Y24130000D01*
X17711101Y24201068D01*
X17929608Y24380392D01*
X18108932Y24598899D01*
X18242182Y24848192D01*
X18324236Y25118691D01*
X18351943Y25400000D01*
X18326060Y25662794D01*
X22682830Y21306023D01*
X22531068Y21121101D01*
X22397818Y20871808D01*
X22315764Y20601309D01*
X22288057Y20320000D01*
X22315764Y20038691D01*
X22397818Y19768192D01*
X22531068Y19518899D01*
X22710392Y19300392D01*
X22928899Y19121068D01*
X23061858Y19050000D01*
X22928899Y18978932D01*
X22710392Y18799608D01*
X22531068Y18581101D01*
X22397818Y18331808D01*
X22315764Y18061309D01*
X22288057Y17780000D01*
X22315764Y17498691D01*
X22397818Y17228192D01*
X22531068Y16978899D01*
X22710392Y16760392D01*
X22928899Y16581068D01*
X23061858Y16510000D01*
X22928899Y16438932D01*
X22710392Y16259608D01*
X22531068Y16041101D01*
X22397818Y15791808D01*
X22315764Y15521309D01*
X22288057Y15240000D01*
X22315764Y14958691D01*
X22397818Y14688192D01*
X22531068Y14438899D01*
X22710392Y14220392D01*
X22928899Y14041068D01*
X23061858Y13970000D01*
X22928899Y13898932D01*
X22710392Y13719608D01*
X22531068Y13501101D01*
X22397818Y13251808D01*
X22315764Y12981309D01*
X22288057Y12700000D01*
X22315764Y12418691D01*
X22397818Y12148192D01*
X22531068Y11898899D01*
X22710392Y11680392D01*
X22928899Y11501068D01*
X23061858Y11430000D01*
X22928899Y11358932D01*
X22710392Y11179608D01*
X22531068Y10961101D01*
X22397818Y10711808D01*
X22315764Y10441309D01*
X22288057Y10160000D01*
X22315764Y9878691D01*
X22397818Y9608192D01*
X22417642Y9571105D01*
X22334145Y9605690D01*
X22163165Y9639700D01*
X21988835Y9639700D01*
X21817855Y9605690D01*
X21656795Y9538977D01*
X21511845Y9442124D01*
X21388576Y9318855D01*
X21291723Y9173905D01*
X21225010Y9012845D01*
X21191000Y8841865D01*
X21191000Y8667535D01*
X21225010Y8496555D01*
X21291723Y8335495D01*
X21388576Y8190545D01*
X21511845Y8067276D01*
X21656795Y7970423D01*
X21817855Y7903710D01*
X21988835Y7869700D01*
X22163165Y7869700D01*
X22315638Y7900029D01*
X22288057Y7620000D01*
X22315764Y7338691D01*
X22397818Y7068192D01*
X22531068Y6818899D01*
X22710392Y6600392D01*
X22928899Y6421068D01*
X23061858Y6350000D01*
X22928899Y6278932D01*
X22710392Y6099608D01*
X22531068Y5881101D01*
X22397818Y5631808D01*
X22315764Y5361309D01*
X22288057Y5080000D01*
X22315764Y4798691D01*
X22397818Y4528192D01*
X22531068Y4278899D01*
X22710392Y4060392D01*
X22928899Y3881068D01*
X23178192Y3747818D01*
X23448691Y3665764D01*
X23659508Y3645000D01*
X24600492Y3645000D01*
X24811309Y3665764D01*
X25081808Y3747818D01*
X25331101Y3881068D01*
X25549608Y4060392D01*
X25728932Y4278899D01*
X25862182Y4528192D01*
X25944236Y4798691D01*
X25971943Y5080000D01*
X25944236Y5361309D01*
X25862182Y5631808D01*
X25728932Y5881101D01*
X25549608Y6099608D01*
X25331101Y6278932D01*
X25198142Y6350000D01*
X25331101Y6421068D01*
X25549608Y6600392D01*
X25577038Y6633816D01*
X30160646Y2050207D01*
X30183662Y2022162D01*
X30295580Y1930313D01*
X30423267Y1862063D01*
X30561815Y1820035D01*
X30669795Y1809400D01*
X30669804Y1809400D01*
X30705899Y1805845D01*
X30741994Y1809400D01*
X73223595Y1809400D01*
X73259700Y1805844D01*
X73295805Y1809400D01*
X73403785Y1820035D01*
X73542333Y1862063D01*
X73670020Y1930313D01*
X73781938Y2022162D01*
X73804959Y2050213D01*
X74154187Y2399441D01*
X74182238Y2422462D01*
X74274087Y2534380D01*
X74310796Y2603057D01*
X74342337Y2662066D01*
X74384365Y2800615D01*
X74384826Y2805299D01*
X74461100Y2846068D01*
X74679607Y3025392D01*
X74858932Y3243899D01*
X74930000Y3376858D01*
X75001068Y3243900D01*
X75180392Y3025393D01*
X75398899Y2846068D01*
X75648192Y2712818D01*
X75918691Y2630764D01*
X76200000Y2603057D01*
X76481308Y2630764D01*
X76751807Y2712818D01*
X77001100Y2846068D01*
X77219607Y3025392D01*
X77398932Y3243899D01*
X77470000Y3376858D01*
X77541068Y3243900D01*
X77720392Y3025393D01*
X77938899Y2846068D01*
X78188192Y2712818D01*
X78458691Y2630764D01*
X78740000Y2603057D01*
X79021308Y2630764D01*
X79291807Y2712818D01*
X79541100Y2846068D01*
X79759607Y3025392D01*
X79938932Y3243899D01*
X80010000Y3376858D01*
X80081068Y3243900D01*
X80260392Y3025393D01*
X80478899Y2846068D01*
X80728192Y2712818D01*
X80998691Y2630764D01*
X81280000Y2603057D01*
X81561308Y2630764D01*
X81831807Y2712818D01*
X82081100Y2846068D01*
X82299607Y3025392D01*
X82478932Y3243899D01*
X82550000Y3376858D01*
X82621068Y3243900D01*
X82800392Y3025393D01*
X83018899Y2846068D01*
X83268192Y2712818D01*
X83538691Y2630764D01*
X83820000Y2603057D01*
X84101308Y2630764D01*
X84371807Y2712818D01*
X84621100Y2846068D01*
X84839607Y3025392D01*
X85018932Y3243899D01*
X85090000Y3376858D01*
X85161068Y3243900D01*
X85340392Y3025393D01*
X85558899Y2846068D01*
X85808192Y2712818D01*
X86078691Y2630764D01*
X86360000Y2603057D01*
X86641308Y2630764D01*
X86911807Y2712818D01*
X87161100Y2846068D01*
X87379607Y3025392D01*
X87558932Y3243899D01*
X87692182Y3493192D01*
X87774236Y3763691D01*
X87795000Y3974508D01*
X87795000Y4915491D01*
X87774236Y5126309D01*
X87745777Y5220128D01*
X92765000Y5220128D01*
X92765000Y4779872D01*
X92850890Y4348075D01*
X93019369Y3941331D01*
X93263962Y3575271D01*
X93575271Y3263962D01*
X93941331Y3019369D01*
X94348075Y2850890D01*
X94779872Y2765000D01*
X95220128Y2765000D01*
X95651925Y2850890D01*
X96058669Y3019369D01*
X96424729Y3263962D01*
X96736038Y3575271D01*
X96980631Y3941331D01*
X97149110Y4348075D01*
X97235000Y4779872D01*
X97235000Y5220128D01*
X97149110Y5651925D01*
X96980631Y6058669D01*
X96736038Y6424729D01*
X96424729Y6736038D01*
X96058669Y6980631D01*
X95651925Y7149110D01*
X95220128Y7235000D01*
X94779872Y7235000D01*
X94348075Y7149110D01*
X93941331Y6980631D01*
X93575271Y6736038D01*
X93263962Y6424729D01*
X93019369Y6058669D01*
X92850890Y5651925D01*
X92765000Y5220128D01*
X87745777Y5220128D01*
X87692182Y5396808D01*
X87558932Y5646101D01*
X87379608Y5864608D01*
X87161101Y6043932D01*
X86911808Y6177182D01*
X86641309Y6259236D01*
X86360000Y6286943D01*
X86078692Y6259236D01*
X85808193Y6177182D01*
X85558900Y6043932D01*
X85340393Y5864608D01*
X85161068Y5646101D01*
X85090000Y5513142D01*
X85018932Y5646101D01*
X84839608Y5864608D01*
X84621101Y6043932D01*
X84371808Y6177182D01*
X84101309Y6259236D01*
X83820000Y6286943D01*
X83538692Y6259236D01*
X83268193Y6177182D01*
X83018900Y6043932D01*
X82800393Y5864608D01*
X82621068Y5646101D01*
X82550000Y5513142D01*
X82478932Y5646101D01*
X82299608Y5864608D01*
X82081101Y6043932D01*
X81831808Y6177182D01*
X81561309Y6259236D01*
X81280000Y6286943D01*
X80998692Y6259236D01*
X80728193Y6177182D01*
X80478900Y6043932D01*
X80260393Y5864608D01*
X80081068Y5646101D01*
X80010000Y5513142D01*
X79938932Y5646101D01*
X79759608Y5864608D01*
X79541101Y6043932D01*
X79291808Y6177182D01*
X79021309Y6259236D01*
X78740000Y6286943D01*
X78458692Y6259236D01*
X78188193Y6177182D01*
X77938900Y6043932D01*
X77720393Y5864608D01*
X77541068Y5646101D01*
X77470000Y5513142D01*
X77398932Y5646101D01*
X77219608Y5864608D01*
X77001101Y6043932D01*
X76751808Y6177182D01*
X76481309Y6259236D01*
X76200000Y6286943D01*
X75918692Y6259236D01*
X75648193Y6177182D01*
X75398900Y6043932D01*
X75180393Y5864608D01*
X75001068Y5646101D01*
X74930000Y5513142D01*
X74858932Y5646101D01*
X74679608Y5864608D01*
X74461101Y6043932D01*
X74211808Y6177182D01*
X73941309Y6259236D01*
X73660000Y6286943D01*
X73378692Y6259236D01*
X73108193Y6177182D01*
X72858900Y6043932D01*
X72640393Y5864608D01*
X72461068Y5646101D01*
X72390000Y5513142D01*
X72318932Y5646101D01*
X72139608Y5864608D01*
X71921101Y6043932D01*
X71671808Y6177182D01*
X71401309Y6259236D01*
X71120000Y6286943D01*
X70838692Y6259236D01*
X70568193Y6177182D01*
X70318900Y6043932D01*
X70100393Y5864608D01*
X69921068Y5646101D01*
X69850000Y5513142D01*
X69778932Y5646101D01*
X69599608Y5864608D01*
X69381101Y6043932D01*
X69131808Y6177182D01*
X68861309Y6259236D01*
X68580000Y6286943D01*
X68298692Y6259236D01*
X68028193Y6177182D01*
X67778900Y6043932D01*
X67560393Y5864608D01*
X67381068Y5646101D01*
X67310000Y5513142D01*
X67238932Y5646101D01*
X67059608Y5864608D01*
X66841101Y6043932D01*
X66591808Y6177182D01*
X66321309Y6259236D01*
X66040000Y6286943D01*
X65758692Y6259236D01*
X65488193Y6177182D01*
X65238900Y6043932D01*
X65020393Y5864608D01*
X64841068Y5646101D01*
X64770000Y5513142D01*
X64698932Y5646101D01*
X64519608Y5864608D01*
X64301101Y6043932D01*
X64051808Y6177182D01*
X63781309Y6259236D01*
X63500000Y6286943D01*
X63218692Y6259236D01*
X62948193Y6177182D01*
X62698900Y6043932D01*
X62480393Y5864608D01*
X62301068Y5646101D01*
X62230000Y5513142D01*
X62158932Y5646101D01*
X61979608Y5864608D01*
X61761101Y6043932D01*
X61684826Y6084702D01*
X61684365Y6089385D01*
X61642337Y6227933D01*
X61574087Y6355620D01*
X61482238Y6467538D01*
X61454193Y6490554D01*
X52577159Y15367587D01*
X52554138Y15395638D01*
X52442220Y15487487D01*
X52314533Y15555737D01*
X52175985Y15597765D01*
X52068005Y15608400D01*
X52031900Y15611956D01*
X51995795Y15608400D01*
X44696953Y15608400D01*
X44623205Y15657677D01*
X44462145Y15724390D01*
X44291165Y15758400D01*
X44116835Y15758400D01*
X43945855Y15724390D01*
X43784795Y15657677D01*
X43639845Y15560824D01*
X43516576Y15437555D01*
X43419723Y15292605D01*
X43353010Y15131545D01*
X43319000Y14960565D01*
X43319000Y14786235D01*
X43353010Y14615255D01*
X43419723Y14454195D01*
X43516576Y14309245D01*
X43639845Y14185976D01*
X43784795Y14089123D01*
X43945855Y14022410D01*
X44116835Y13988400D01*
X44291165Y13988400D01*
X44462145Y14022410D01*
X44623205Y14089123D01*
X44696953Y14138400D01*
X51727454Y14138400D01*
X59973816Y5892037D01*
X59940393Y5864608D01*
X59761068Y5646101D01*
X59690000Y5513142D01*
X59618932Y5646101D01*
X59439608Y5864608D01*
X59221101Y6043932D01*
X59144826Y6084702D01*
X59144365Y6089385D01*
X59102337Y6227934D01*
X59034087Y6355620D01*
X58980375Y6421068D01*
X58942238Y6467538D01*
X58914193Y6490554D01*
X53934659Y11470087D01*
X53911638Y11498138D01*
X53799720Y11589987D01*
X53672033Y11658237D01*
X53533485Y11700265D01*
X53425505Y11710900D01*
X53389400Y11714456D01*
X53353295Y11710900D01*
X48972379Y11710900D01*
X49082324Y11820845D01*
X49179177Y11965795D01*
X49245890Y12126855D01*
X49279900Y12297835D01*
X49279900Y12472165D01*
X49245890Y12643145D01*
X49179177Y12804205D01*
X49082324Y12949155D01*
X48959055Y13072424D01*
X48814105Y13169277D01*
X48653045Y13235990D01*
X48482065Y13270000D01*
X48307735Y13270000D01*
X48136755Y13235990D01*
X47975695Y13169277D01*
X47901947Y13120000D01*
X35855794Y13120000D01*
X35819699Y13123555D01*
X35783604Y13120000D01*
X35783595Y13120000D01*
X35675615Y13109365D01*
X35537067Y13067337D01*
X35409380Y12999087D01*
X35297462Y12907238D01*
X35274446Y12879193D01*
X35256254Y12861001D01*
X35223787Y13080130D01*
X35128603Y13346292D01*
X35061671Y13471514D01*
X34817702Y13543097D01*
X34004605Y12730000D01*
X34018748Y12715857D01*
X33839143Y12536252D01*
X33825000Y12550395D01*
X33810858Y12536252D01*
X33631253Y12715857D01*
X33645395Y12730000D01*
X32832298Y13543097D01*
X32588329Y13471514D01*
X32467429Y13216004D01*
X32398700Y12941816D01*
X32384783Y12659488D01*
X32426213Y12379870D01*
X32521397Y12113708D01*
X32588329Y11988486D01*
X32832296Y11916903D01*
X32716023Y11800630D01*
X32758003Y11758650D01*
X31894354Y10895000D01*
X25764264Y10895000D01*
X25728932Y10961101D01*
X25549608Y11179608D01*
X25331101Y11358932D01*
X25198142Y11430000D01*
X25331101Y11501068D01*
X25549608Y11680392D01*
X25728932Y11898899D01*
X25769702Y11975174D01*
X25774385Y11975635D01*
X25912933Y12017663D01*
X26040620Y12085913D01*
X26152538Y12177762D01*
X26175559Y12205813D01*
X27692448Y13722702D01*
X33011903Y13722702D01*
X33825000Y12909605D01*
X34638097Y13722702D01*
X34566514Y13966671D01*
X34311004Y14087571D01*
X34036816Y14156300D01*
X33754488Y14170217D01*
X33474870Y14128787D01*
X33208708Y14033603D01*
X33083486Y13966671D01*
X33011903Y13722702D01*
X27692448Y13722702D01*
X29887547Y15917800D01*
X68041995Y15917800D01*
X68078100Y15914244D01*
X68114205Y15917800D01*
X68222185Y15928435D01*
X68360733Y15970463D01*
X68488420Y16038713D01*
X68600338Y16130562D01*
X68623358Y16158612D01*
X70202597Y17737850D01*
X70230637Y17760862D01*
X70253650Y17788903D01*
X70253653Y17788906D01*
X70322486Y17872779D01*
X70322487Y17872780D01*
X70390737Y18000467D01*
X70402422Y18038986D01*
X70428354Y18021285D01*
X70688182Y17910633D01*
X70770961Y17893096D01*
X70993000Y18015085D01*
X70993000Y19558000D01*
X70973000Y19558000D01*
X70973000Y19812000D01*
X70993000Y19812000D01*
X70993000Y19832000D01*
X71247000Y19832000D01*
X71247000Y19812000D01*
X71267000Y19812000D01*
X71267000Y19558000D01*
X71247000Y19558000D01*
X71247000Y18015085D01*
X71469039Y17893096D01*
X71551818Y17910633D01*
X71811646Y18021285D01*
X72044895Y18180500D01*
X72242601Y18382161D01*
X72392735Y18611742D01*
X72461068Y18483900D01*
X72640392Y18265393D01*
X72858899Y18086068D01*
X73108192Y17952818D01*
X73378691Y17870764D01*
X73660000Y17843057D01*
X73941308Y17870764D01*
X74211807Y17952818D01*
X74461100Y18086068D01*
X74679607Y18265392D01*
X74858932Y18483899D01*
X74930000Y18616858D01*
X75001068Y18483900D01*
X75180392Y18265393D01*
X75398899Y18086068D01*
X75648192Y17952818D01*
X75918691Y17870764D01*
X76200000Y17843057D01*
X76481308Y17870764D01*
X76751807Y17952818D01*
X77001100Y18086068D01*
X77219607Y18265392D01*
X77398932Y18483899D01*
X77470000Y18616858D01*
X77541068Y18483900D01*
X77720392Y18265393D01*
X77938899Y18086068D01*
X78188192Y17952818D01*
X78458691Y17870764D01*
X78740000Y17843057D01*
X79021308Y17870764D01*
X79291807Y17952818D01*
X79541100Y18086068D01*
X79759607Y18265392D01*
X79938932Y18483899D01*
X80010000Y18616858D01*
X80081068Y18483900D01*
X80260392Y18265393D01*
X80478899Y18086068D01*
X80728192Y17952818D01*
X80998691Y17870764D01*
X81280000Y17843057D01*
X81561308Y17870764D01*
X81831807Y17952818D01*
X82081100Y18086068D01*
X82299607Y18265392D01*
X82478932Y18483899D01*
X82550000Y18616858D01*
X82621068Y18483900D01*
X82800392Y18265393D01*
X83018899Y18086068D01*
X83268192Y17952818D01*
X83538691Y17870764D01*
X83820000Y17843057D01*
X84101308Y17870764D01*
X84371807Y17952818D01*
X84621100Y18086068D01*
X84839607Y18265392D01*
X84932419Y18378483D01*
X84934188Y18360518D01*
X84970498Y18240820D01*
X85029463Y18130506D01*
X85108815Y18033815D01*
X85205506Y17954463D01*
X85315820Y17895498D01*
X85435518Y17859188D01*
X85560000Y17846928D01*
X87160000Y17846928D01*
X87284482Y17859188D01*
X87404180Y17895498D01*
X87514494Y17954463D01*
X87611185Y18033815D01*
X87690537Y18130506D01*
X87749502Y18240820D01*
X87785812Y18360518D01*
X87798072Y18485000D01*
X87798072Y20885000D01*
X87785812Y21009482D01*
X87749502Y21129180D01*
X87690537Y21239494D01*
X87611185Y21336185D01*
X87514494Y21415537D01*
X87404180Y21474502D01*
X87284482Y21510812D01*
X87160000Y21523072D01*
X85560000Y21523072D01*
X85435518Y21510812D01*
X85315820Y21474502D01*
X85205506Y21415537D01*
X85108815Y21336185D01*
X85029463Y21239494D01*
X84970498Y21129180D01*
X84934188Y21009482D01*
X84932419Y20991518D01*
X84839608Y21104608D01*
X84621101Y21283932D01*
X84371808Y21417182D01*
X84101309Y21499236D01*
X83820000Y21526943D01*
X83538692Y21499236D01*
X83268193Y21417182D01*
X83018900Y21283932D01*
X82800393Y21104608D01*
X82621068Y20886101D01*
X82550000Y20753142D01*
X82478932Y20886101D01*
X82299608Y21104608D01*
X82081101Y21283932D01*
X81831808Y21417182D01*
X81561309Y21499236D01*
X81280000Y21526943D01*
X80998692Y21499236D01*
X80728193Y21417182D01*
X80478900Y21283932D01*
X80260393Y21104608D01*
X80081068Y20886101D01*
X80010000Y20753142D01*
X79938932Y20886101D01*
X79759608Y21104608D01*
X79541101Y21283932D01*
X79291808Y21417182D01*
X79021309Y21499236D01*
X78740000Y21526943D01*
X78458692Y21499236D01*
X78188193Y21417182D01*
X77938900Y21283932D01*
X77720393Y21104608D01*
X77541068Y20886101D01*
X77470000Y20753142D01*
X77398932Y20886101D01*
X77219608Y21104608D01*
X77001101Y21283932D01*
X76751808Y21417182D01*
X76481309Y21499236D01*
X76200000Y21526943D01*
X75918692Y21499236D01*
X75648193Y21417182D01*
X75398900Y21283932D01*
X75180393Y21104608D01*
X75001068Y20886101D01*
X74930000Y20753142D01*
X74858932Y20886101D01*
X74679608Y21104608D01*
X74461101Y21283932D01*
X74211808Y21417182D01*
X73941309Y21499236D01*
X73660000Y21526943D01*
X73378692Y21499236D01*
X73108193Y21417182D01*
X72858900Y21283932D01*
X72640393Y21104608D01*
X72461068Y20886101D01*
X72392735Y20758259D01*
X72242601Y20987839D01*
X72044895Y21189500D01*
X71834120Y21333374D01*
X76867447Y26366700D01*
X80087495Y26366700D01*
X80123600Y26363144D01*
X80159705Y26366700D01*
X80267685Y26377335D01*
X80406233Y26419363D01*
X80533920Y26487613D01*
X80645838Y26579462D01*
X80668858Y26607512D01*
X82213475Y28152129D01*
X82270241Y28095363D01*
X82505273Y27938320D01*
X82766426Y27830147D01*
X83043665Y27775000D01*
X83326335Y27775000D01*
X83603574Y27830147D01*
X83864727Y27938320D01*
X84099759Y28095363D01*
X84299637Y28295241D01*
X84455000Y28527759D01*
X84610363Y28295241D01*
X84810241Y28095363D01*
X85045273Y27938320D01*
X85306426Y27830147D01*
X85583665Y27775000D01*
X85866335Y27775000D01*
X86143574Y27830147D01*
X86404727Y27938320D01*
X86639759Y28095363D01*
X86839637Y28295241D01*
X86995000Y28527759D01*
X87150363Y28295241D01*
X87350241Y28095363D01*
X87585273Y27938320D01*
X87846426Y27830147D01*
X88123665Y27775000D01*
X88406335Y27775000D01*
X88683574Y27830147D01*
X88944727Y27938320D01*
X89179759Y28095363D01*
X89379637Y28295241D01*
X89535000Y28527759D01*
X89690363Y28295241D01*
X89890241Y28095363D01*
X90125273Y27938320D01*
X90386426Y27830147D01*
X90663665Y27775000D01*
X90946335Y27775000D01*
X91223574Y27830147D01*
X91484727Y27938320D01*
X91719759Y28095363D01*
X91919637Y28295241D01*
X92076680Y28530273D01*
X92081067Y28540865D01*
X92192615Y28354869D01*
X92381586Y28146481D01*
X92607580Y27978963D01*
X92861913Y27858754D01*
X92995961Y27818096D01*
X93218000Y27940085D01*
X93218000Y29083000D01*
X93198000Y29083000D01*
X93198000Y29337000D01*
X93218000Y29337000D01*
X93218000Y30479915D01*
X93472000Y30479915D01*
X93472000Y29337000D01*
X93492000Y29337000D01*
X93492000Y29083000D01*
X93472000Y29083000D01*
X93472000Y27940085D01*
X93694039Y27818096D01*
X93828087Y27858754D01*
X94082420Y27978963D01*
X94308414Y28146481D01*
X94497385Y28354869D01*
X94608933Y28540865D01*
X94613320Y28530273D01*
X94770363Y28295241D01*
X94970241Y28095363D01*
X95205273Y27938320D01*
X95466426Y27830147D01*
X95743665Y27775000D01*
X96026335Y27775000D01*
X96303574Y27830147D01*
X96564727Y27938320D01*
X96799759Y28095363D01*
X96999637Y28295241D01*
X97156680Y28530273D01*
X97264853Y28791426D01*
X97320000Y29068665D01*
X97320000Y29351335D01*
X97264853Y29628574D01*
X97156680Y29889727D01*
X96999637Y30124759D01*
X96799759Y30324637D01*
X96564727Y30481680D01*
X96303574Y30589853D01*
X96026335Y30645000D01*
X95743665Y30645000D01*
X95466426Y30589853D01*
X95205273Y30481680D01*
X94970241Y30324637D01*
X94770363Y30124759D01*
X94613320Y29889727D01*
X94608933Y29879135D01*
X94497385Y30065131D01*
X94308414Y30273519D01*
X94082420Y30441037D01*
X93828087Y30561246D01*
X93694039Y30601904D01*
X93472000Y30479915D01*
X93218000Y30479915D01*
X92995961Y30601904D01*
X92861913Y30561246D01*
X92607580Y30441037D01*
X92381586Y30273519D01*
X92192615Y30065131D01*
X92081067Y29879135D01*
X92076680Y29889727D01*
X91919637Y30124759D01*
X91719759Y30324637D01*
X91484727Y30481680D01*
X91223574Y30589853D01*
X90946335Y30645000D01*
X90663665Y30645000D01*
X90386426Y30589853D01*
X90125273Y30481680D01*
X89890241Y30324637D01*
X89690363Y30124759D01*
X89535000Y29892241D01*
X89379637Y30124759D01*
X89269982Y30234414D01*
X92572727Y33537159D01*
X92604591Y33563309D01*
X92708936Y33690454D01*
X92786472Y33835513D01*
X92834218Y33992911D01*
X92846300Y34115581D01*
X92846300Y34115591D01*
X92850339Y34156599D01*
X92846300Y34197607D01*
X92846300Y43103336D01*
X92926426Y43070147D01*
X93203665Y43015000D01*
X93486335Y43015000D01*
X93763574Y43070147D01*
X94024727Y43178320D01*
X94259759Y43335363D01*
X94458357Y43533961D01*
X94459188Y43525518D01*
X94495498Y43405820D01*
X94554463Y43295506D01*
X94633815Y43198815D01*
X94730506Y43119463D01*
X94840820Y43060498D01*
X94960518Y43024188D01*
X95085000Y43011928D01*
X96685000Y43011928D01*
X96809482Y43024188D01*
X96929180Y43060498D01*
X97039494Y43119463D01*
X97136185Y43198815D01*
X97215537Y43295506D01*
X97274502Y43405820D01*
X97310812Y43525518D01*
X97323072Y43650000D01*
X97323072Y45250000D01*
X97310812Y45374482D01*
X97274502Y45494180D01*
X97215537Y45604494D01*
X97136185Y45701185D01*
X97039494Y45780537D01*
X96929180Y45839502D01*
X96809482Y45875812D01*
X96685000Y45888072D01*
X95085000Y45888072D01*
X94960518Y45875812D01*
X94840820Y45839502D01*
X94730506Y45780537D01*
X94633815Y45701185D01*
X94554463Y45604494D01*
X94495498Y45494180D01*
X94459188Y45374482D01*
X94458357Y45366039D01*
X94259759Y45564637D01*
X94024727Y45721680D01*
X93763574Y45829853D01*
X93486335Y45885000D01*
X93203665Y45885000D01*
X92926426Y45829853D01*
X92665273Y45721680D01*
X92532982Y45633287D01*
X83410009Y54756260D01*
X93765000Y54756260D01*
X93765000Y54463740D01*
X93822068Y54176842D01*
X93934010Y53906589D01*
X94096525Y53663368D01*
X94303368Y53456525D01*
X94546589Y53294010D01*
X94816842Y53182068D01*
X95103740Y53125000D01*
X95396260Y53125000D01*
X95683158Y53182068D01*
X95953411Y53294010D01*
X96196632Y53456525D01*
X96403475Y53663368D01*
X96520000Y53837760D01*
X96636525Y53663368D01*
X96843368Y53456525D01*
X97086589Y53294010D01*
X97356842Y53182068D01*
X97643740Y53125000D01*
X97936260Y53125000D01*
X98223158Y53182068D01*
X98493411Y53294010D01*
X98736632Y53456525D01*
X98943475Y53663368D01*
X99105990Y53906589D01*
X99217932Y54176842D01*
X99275000Y54463740D01*
X99275000Y54756260D01*
X99217932Y55043158D01*
X99105990Y55313411D01*
X98943475Y55556632D01*
X98736632Y55763475D01*
X98493411Y55925990D01*
X98223158Y56037932D01*
X97936260Y56095000D01*
X97643740Y56095000D01*
X97356842Y56037932D01*
X97086589Y55925990D01*
X96843368Y55763475D01*
X96636525Y55556632D01*
X96520000Y55382240D01*
X96403475Y55556632D01*
X96196632Y55763475D01*
X95953411Y55925990D01*
X95683158Y56037932D01*
X95396260Y56095000D01*
X95103740Y56095000D01*
X94816842Y56037932D01*
X94546589Y55925990D01*
X94303368Y55763475D01*
X94096525Y55556632D01*
X93934010Y55313411D01*
X93822068Y55043158D01*
X93765000Y54756260D01*
X83410009Y54756260D01*
X71981522Y66184745D01*
X71983200Y66201781D01*
X71983200Y66201782D01*
X71987240Y66242800D01*
X71983200Y66283818D01*
X71983200Y72887485D01*
X71987240Y72928501D01*
X71980746Y72994436D01*
X71971118Y73092189D01*
X71923372Y73249587D01*
X71845836Y73394646D01*
X71741491Y73521791D01*
X71709627Y73547941D01*
X71320281Y73937286D01*
X71325812Y73955518D01*
X71338072Y74080000D01*
X71338072Y75076260D01*
X93765000Y75076260D01*
X93765000Y74783740D01*
X93822068Y74496842D01*
X93934010Y74226589D01*
X94096525Y73983368D01*
X94303368Y73776525D01*
X94546589Y73614010D01*
X94816842Y73502068D01*
X95103740Y73445000D01*
X95396260Y73445000D01*
X95683158Y73502068D01*
X95953411Y73614010D01*
X96196632Y73776525D01*
X96403475Y73983368D01*
X96520000Y74157760D01*
X96636525Y73983368D01*
X96843368Y73776525D01*
X97086589Y73614010D01*
X97356842Y73502068D01*
X97643740Y73445000D01*
X97936260Y73445000D01*
X98223158Y73502068D01*
X98493411Y73614010D01*
X98736632Y73776525D01*
X98943475Y73983368D01*
X99105990Y74226589D01*
X99217932Y74496842D01*
X99275000Y74783740D01*
X99275000Y75076260D01*
X99217932Y75363158D01*
X99105990Y75633411D01*
X98943475Y75876632D01*
X98736632Y76083475D01*
X98493411Y76245990D01*
X98223158Y76357932D01*
X97936260Y76415000D01*
X97643740Y76415000D01*
X97356842Y76357932D01*
X97086589Y76245990D01*
X96843368Y76083475D01*
X96636525Y75876632D01*
X96520000Y75702240D01*
X96403475Y75876632D01*
X96196632Y76083475D01*
X95953411Y76245990D01*
X95683158Y76357932D01*
X95396260Y76415000D01*
X95103740Y76415000D01*
X94816842Y76357932D01*
X94546589Y76245990D01*
X94303368Y76083475D01*
X94096525Y75876632D01*
X93934010Y75633411D01*
X93822068Y75363158D01*
X93765000Y75076260D01*
X71338072Y75076260D01*
X71338072Y75780000D01*
X71325812Y75904482D01*
X71289502Y76024180D01*
X71230537Y76134494D01*
X71151185Y76231185D01*
X71054494Y76310537D01*
X70944180Y76369502D01*
X70824482Y76405812D01*
X70700000Y76418072D01*
X69542796Y76418072D01*
X67510000Y78450867D01*
X67510000Y95031928D01*
X67525000Y95031928D01*
X67649482Y95044188D01*
X67769180Y95080498D01*
X67879494Y95139463D01*
X67976185Y95218815D01*
X67977262Y95220128D01*
X81765000Y95220128D01*
X81765000Y94779872D01*
X81850890Y94348075D01*
X82019369Y93941331D01*
X82263962Y93575271D01*
X82575271Y93263962D01*
X82941331Y93019369D01*
X83348075Y92850890D01*
X83779872Y92765000D01*
X84220128Y92765000D01*
X84651925Y92850890D01*
X85058669Y93019369D01*
X85424729Y93263962D01*
X85736038Y93575271D01*
X85980631Y93941331D01*
X86149110Y94348075D01*
X86235000Y94779872D01*
X86235000Y95220128D01*
X86149110Y95651925D01*
X85980631Y96058669D01*
X85736038Y96424729D01*
X85424729Y96736038D01*
X85058669Y96980631D01*
X84651925Y97149110D01*
X84220128Y97235000D01*
X83779872Y97235000D01*
X83348075Y97149110D01*
X82941331Y96980631D01*
X82575271Y96736038D01*
X82263962Y96424729D01*
X82019369Y96058669D01*
X81850890Y95651925D01*
X81765000Y95220128D01*
X67977262Y95220128D01*
X68055537Y95315506D01*
X68114502Y95425820D01*
X68150812Y95545518D01*
X68163072Y95670000D01*
X68163072Y97370000D01*
X68150812Y97494482D01*
X68114502Y97614180D01*
X68055537Y97724494D01*
X67976185Y97821185D01*
X67879494Y97900537D01*
X67769180Y97959502D01*
X67649482Y97995812D01*
X67525000Y98008072D01*
X65825000Y98008072D01*
X65700518Y97995812D01*
X65580820Y97959502D01*
X65470506Y97900537D01*
X65373815Y97821185D01*
X65294463Y97724494D01*
X65235498Y97614180D01*
X65213487Y97541620D01*
X65081632Y97673475D01*
X64838411Y97835990D01*
X64568158Y97947932D01*
X64281260Y98005000D01*
X63988740Y98005000D01*
X63701842Y97947932D01*
X63431589Y97835990D01*
X63188368Y97673475D01*
X62981525Y97466632D01*
X62859805Y97284466D01*
X62790178Y97401355D01*
X62595269Y97617588D01*
X62361920Y97791641D01*
X62099099Y97916825D01*
X61951890Y97961476D01*
X61722000Y97840155D01*
X61722000Y96647000D01*
X61742000Y96647000D01*
X61742000Y96393000D01*
X61722000Y96393000D01*
X61722000Y95199845D01*
X61951890Y95078524D01*
X62099099Y95123175D01*
X62361920Y95248359D01*
X62595269Y95422412D01*
X62790178Y95638645D01*
X62859805Y95755534D01*
X62981525Y95573368D01*
X63188368Y95366525D01*
X63400001Y95225117D01*
X63400000Y93014447D01*
X61100811Y90715257D01*
X61100806Y90715253D01*
X56020808Y85635254D01*
X55992762Y85612237D01*
X55900913Y85500319D01*
X55832663Y85372632D01*
X55804796Y85280767D01*
X55790635Y85234085D01*
X55776444Y85090000D01*
X55780000Y85053895D01*
X55780001Y83042954D01*
X55730723Y82969205D01*
X55664010Y82808145D01*
X55630000Y82637165D01*
X55630000Y82462835D01*
X55664010Y82291855D01*
X55730723Y82130795D01*
X55827576Y81985845D01*
X55950845Y81862576D01*
X56095795Y81765723D01*
X56256855Y81699010D01*
X56427835Y81665000D01*
X56602165Y81665000D01*
X56773145Y81699010D01*
X56934205Y81765723D01*
X57079155Y81862576D01*
X57202424Y81985845D01*
X57299277Y82130795D01*
X57365990Y82291855D01*
X57400000Y82462835D01*
X57400000Y82637165D01*
X57365990Y82808145D01*
X57299277Y82969205D01*
X57250000Y83042953D01*
X57250000Y84785554D01*
X62140253Y89675806D01*
X62140257Y89675811D01*
X64629197Y92164750D01*
X64657237Y92187762D01*
X64680250Y92215803D01*
X64680253Y92215806D01*
X64749086Y92299679D01*
X64749087Y92299680D01*
X64817337Y92427367D01*
X64859365Y92565915D01*
X64870000Y92673895D01*
X64870000Y92673904D01*
X64873555Y92709999D01*
X64870000Y92746094D01*
X64870000Y95225117D01*
X65081632Y95366525D01*
X65213487Y95498380D01*
X65235498Y95425820D01*
X65294463Y95315506D01*
X65373815Y95218815D01*
X65470506Y95139463D01*
X65580820Y95080498D01*
X65700518Y95044188D01*
X65825000Y95031928D01*
X65840000Y95031928D01*
X65840001Y78146029D01*
X65835960Y78105000D01*
X65852082Y77941312D01*
X65899828Y77783914D01*
X65943900Y77701462D01*
X65977365Y77638854D01*
X66081710Y77511709D01*
X66113574Y77485559D01*
X68361928Y75237204D01*
X68361928Y74080000D01*
X68374188Y73955518D01*
X68410498Y73835820D01*
X68469463Y73725506D01*
X68548815Y73628815D01*
X68645506Y73549463D01*
X68755820Y73490498D01*
X68828380Y73468487D01*
X68696525Y73336632D01*
X68534010Y73093411D01*
X68422068Y72823158D01*
X68365000Y72536260D01*
X68365000Y72243740D01*
X68422068Y71956842D01*
X68534010Y71686589D01*
X68696525Y71443368D01*
X68903368Y71236525D01*
X69077760Y71120000D01*
X68903368Y71003475D01*
X68696525Y70796632D01*
X68534010Y70553411D01*
X68422068Y70283158D01*
X68365000Y69996260D01*
X68365000Y69703740D01*
X68422068Y69416842D01*
X68534010Y69146589D01*
X68696525Y68903368D01*
X68903368Y68696525D01*
X69085534Y68574805D01*
X68968645Y68505178D01*
X68752412Y68310269D01*
X68578359Y68076920D01*
X68453175Y67814099D01*
X68408524Y67666890D01*
X68529845Y67437000D01*
X69723000Y67437000D01*
X69723000Y67457000D01*
X69977000Y67457000D01*
X69977000Y67437000D01*
X69997000Y67437000D01*
X69997000Y67183000D01*
X69977000Y67183000D01*
X69977000Y67163000D01*
X69723000Y67163000D01*
X69723000Y67183000D01*
X68529845Y67183000D01*
X68408524Y66953110D01*
X68426150Y66894999D01*
X64460870Y66894999D01*
X63053807Y68302061D01*
X63080000Y68433740D01*
X63080000Y68726260D01*
X63022932Y69013158D01*
X62910990Y69283411D01*
X62748475Y69526632D01*
X62616620Y69658487D01*
X62689180Y69680498D01*
X62799494Y69739463D01*
X62896185Y69818815D01*
X62975537Y69915506D01*
X63034502Y70025820D01*
X63070812Y70145518D01*
X63083072Y70270000D01*
X63080000Y70834250D01*
X62921250Y70993000D01*
X61722000Y70993000D01*
X61722000Y70973000D01*
X61468000Y70973000D01*
X61468000Y70993000D01*
X60268750Y70993000D01*
X60110000Y70834250D01*
X60106928Y70270000D01*
X60119188Y70145518D01*
X60155498Y70025820D01*
X60214463Y69915506D01*
X60293815Y69818815D01*
X60390506Y69739463D01*
X60500820Y69680498D01*
X60573380Y69658487D01*
X60441525Y69526632D01*
X60279010Y69283411D01*
X60167068Y69013158D01*
X60110000Y68726260D01*
X60110000Y68433740D01*
X60136193Y68302061D01*
X54399264Y62565132D01*
X54254759Y62709637D01*
X54019727Y62866680D01*
X53758574Y62974853D01*
X53481335Y63030000D01*
X53198665Y63030000D01*
X53104582Y63011286D01*
X50784446Y65331421D01*
X50758291Y65363291D01*
X50631146Y65467636D01*
X50486087Y65545172D01*
X50328689Y65592918D01*
X50206019Y65605000D01*
X50206018Y65605000D01*
X50165000Y65609040D01*
X50123982Y65605000D01*
X48157930Y65605000D01*
X48104637Y65684759D01*
X47904759Y65884637D01*
X47669727Y66041680D01*
X47408574Y66149853D01*
X47131335Y66205000D01*
X46848665Y66205000D01*
X46571426Y66149853D01*
X46310273Y66041680D01*
X46075241Y65884637D01*
X45875363Y65684759D01*
X45741308Y65484131D01*
X45726671Y65511514D01*
X45482702Y65583097D01*
X44669605Y64770000D01*
X44683748Y64755857D01*
X44504143Y64576252D01*
X44490000Y64590395D01*
X44475858Y64576252D01*
X44296253Y64755857D01*
X44310395Y64770000D01*
X43497298Y65583097D01*
X43253329Y65511514D01*
X43132429Y65256004D01*
X43063700Y64981816D01*
X43049783Y64699488D01*
X43091213Y64419870D01*
X43156110Y64238400D01*
X41779568Y64238400D01*
X41004046Y65013921D01*
X40977891Y65045791D01*
X40850746Y65150136D01*
X40705687Y65227672D01*
X40548289Y65275418D01*
X40425619Y65287500D01*
X40425618Y65287500D01*
X40384600Y65291540D01*
X40343582Y65287500D01*
X25387679Y65287500D01*
X25331101Y65333932D01*
X25081808Y65467182D01*
X24811309Y65549236D01*
X24600492Y65570000D01*
X24510868Y65570000D01*
X24318166Y65762702D01*
X43676903Y65762702D01*
X44490000Y64949605D01*
X45303097Y65762702D01*
X45231514Y66006671D01*
X44976004Y66127571D01*
X44701816Y66196300D01*
X44419488Y66210217D01*
X44139870Y66168787D01*
X43873708Y66073603D01*
X43748486Y66006671D01*
X43676903Y65762702D01*
X24318166Y65762702D01*
X23006285Y67074582D01*
X23025000Y67168665D01*
X23025000Y67451335D01*
X22969853Y67728574D01*
X22861680Y67989727D01*
X22704637Y68224759D01*
X22504759Y68424637D01*
X22269727Y68581680D01*
X22008574Y68689853D01*
X21731335Y68745000D01*
X21448665Y68745000D01*
X21171426Y68689853D01*
X20910273Y68581680D01*
X20675241Y68424637D01*
X20475363Y68224759D01*
X20341308Y68024131D01*
X20326671Y68051514D01*
X20082702Y68123097D01*
X19269605Y67310000D01*
X19283748Y67295857D01*
X19104143Y67116252D01*
X19090000Y67130395D01*
X18276903Y66317298D01*
X18348486Y66073329D01*
X18603996Y65952429D01*
X18878184Y65883700D01*
X18977916Y65878784D01*
X18292121Y65192988D01*
X18240537Y65289494D01*
X18161185Y65386185D01*
X18064494Y65465537D01*
X17954180Y65524502D01*
X17834482Y65560812D01*
X17710000Y65573072D01*
X15310000Y65573072D01*
X15185518Y65560812D01*
X15065820Y65524502D01*
X14955506Y65465537D01*
X14858815Y65386185D01*
X14779463Y65289494D01*
X14720498Y65179180D01*
X14684188Y65059482D01*
X14671928Y64935000D01*
X14671928Y63335000D01*
X14684188Y63210518D01*
X14720498Y63090820D01*
X14779463Y62980506D01*
X14858815Y62883815D01*
X14955506Y62804463D01*
X15065820Y62745498D01*
X15185518Y62709188D01*
X15203482Y62707419D01*
X15090392Y62614608D01*
X14911068Y62396101D01*
X14777818Y62146808D01*
X14695764Y61876309D01*
X14668057Y61595000D01*
X14695596Y61315400D01*
X8956208Y61315400D01*
X9047932Y61536842D01*
X9105000Y61823740D01*
X9105000Y62116260D01*
X9047932Y62403158D01*
X8935990Y62673411D01*
X8773475Y62916632D01*
X8566632Y63123475D01*
X8384466Y63245195D01*
X8501355Y63314822D01*
X8717588Y63509731D01*
X8891641Y63743080D01*
X9016825Y64005901D01*
X9061476Y64153110D01*
X8940155Y64383000D01*
X7747000Y64383000D01*
X7747000Y64363000D01*
X7493000Y64363000D01*
X7493000Y64383000D01*
X7473000Y64383000D01*
X7473000Y64637000D01*
X7493000Y64637000D01*
X7493000Y64657000D01*
X7747000Y64657000D01*
X7747000Y64637000D01*
X8940155Y64637000D01*
X9061476Y64866890D01*
X9016825Y65014099D01*
X8891641Y65276920D01*
X8717588Y65510269D01*
X8501355Y65705178D01*
X8384466Y65774805D01*
X8566632Y65896525D01*
X8773475Y66103368D01*
X8935990Y66346589D01*
X9047932Y66616842D01*
X9105000Y66903740D01*
X9105000Y67196260D01*
X9096402Y67239488D01*
X17649783Y67239488D01*
X17691213Y66959870D01*
X17786397Y66693708D01*
X17853329Y66568486D01*
X18097298Y66496903D01*
X18910395Y67310000D01*
X18097298Y68123097D01*
X17853329Y68051514D01*
X17732429Y67796004D01*
X17663700Y67521816D01*
X17649783Y67239488D01*
X9096402Y67239488D01*
X9047932Y67483158D01*
X8935990Y67753411D01*
X8773475Y67996632D01*
X8566632Y68203475D01*
X8418129Y68302702D01*
X18276903Y68302702D01*
X19090000Y67489605D01*
X19903097Y68302702D01*
X19831514Y68546671D01*
X19576004Y68667571D01*
X19301816Y68736300D01*
X19019488Y68750217D01*
X18739870Y68708787D01*
X18473708Y68613603D01*
X18348486Y68546671D01*
X18276903Y68302702D01*
X8418129Y68302702D01*
X8392240Y68320000D01*
X8566632Y68436525D01*
X8773475Y68643368D01*
X8935990Y68886589D01*
X9047932Y69156842D01*
X9105000Y69443740D01*
X9105000Y69736260D01*
X9047932Y70023158D01*
X9005748Y70125000D01*
X11638795Y70125000D01*
X11674900Y70121444D01*
X11711005Y70125000D01*
X11818985Y70135635D01*
X11957533Y70177663D01*
X12085220Y70245913D01*
X12197138Y70337762D01*
X12220159Y70365813D01*
X12625307Y70770961D01*
X14718096Y70770961D01*
X14735633Y70688182D01*
X14846285Y70428354D01*
X15005500Y70195105D01*
X15207161Y69997399D01*
X15443517Y69842834D01*
X15705486Y69737350D01*
X15983000Y69685000D01*
X16383000Y69685000D01*
X16383000Y70993000D01*
X16637000Y70993000D01*
X16637000Y69685000D01*
X17037000Y69685000D01*
X17314514Y69737350D01*
X17576483Y69842834D01*
X17812839Y69997399D01*
X18014500Y70195105D01*
X18173715Y70428354D01*
X18284367Y70688182D01*
X18301904Y70770961D01*
X18179915Y70993000D01*
X16637000Y70993000D01*
X16383000Y70993000D01*
X14840085Y70993000D01*
X14718096Y70770961D01*
X12625307Y70770961D01*
X14842161Y72987815D01*
X14911068Y72858899D01*
X15090392Y72640392D01*
X15308899Y72461068D01*
X15436741Y72392735D01*
X15207161Y72242601D01*
X15005500Y72044895D01*
X14846285Y71811646D01*
X14735633Y71551818D01*
X14718096Y71469039D01*
X14840085Y71247000D01*
X16383000Y71247000D01*
X16383000Y71267000D01*
X16637000Y71267000D01*
X16637000Y71247000D01*
X18179915Y71247000D01*
X18301904Y71469039D01*
X18284367Y71551818D01*
X18173715Y71811646D01*
X18014500Y72044895D01*
X17812839Y72242601D01*
X17583259Y72392735D01*
X17711101Y72461068D01*
X17929608Y72640392D01*
X17957038Y72673816D01*
X18812946Y71817907D01*
X18835962Y71789862D01*
X18947880Y71698013D01*
X19075567Y71629763D01*
X19214115Y71587735D01*
X19322095Y71577100D01*
X19322104Y71577100D01*
X19358199Y71573545D01*
X19394294Y71577100D01*
X22369089Y71577100D01*
X22315764Y71401309D01*
X22288057Y71120000D01*
X22315764Y70838691D01*
X22397818Y70568192D01*
X22531068Y70318899D01*
X22710392Y70100392D01*
X22928899Y69921068D01*
X23178192Y69787818D01*
X23448691Y69705764D01*
X23659508Y69685000D01*
X24600492Y69685000D01*
X24811309Y69705764D01*
X25081808Y69787818D01*
X25331101Y69921068D01*
X25549608Y70100392D01*
X25728932Y70318899D01*
X25862182Y70568192D01*
X25923690Y70770961D01*
X40118096Y70770961D01*
X40135633Y70688182D01*
X40246285Y70428354D01*
X40405500Y70195105D01*
X40607161Y69997399D01*
X40843517Y69842834D01*
X41105486Y69737350D01*
X41383000Y69685000D01*
X41783000Y69685000D01*
X41783000Y70993000D01*
X42037000Y70993000D01*
X42037000Y69685000D01*
X42437000Y69685000D01*
X42714514Y69737350D01*
X42976483Y69842834D01*
X43212839Y69997399D01*
X43414500Y70195105D01*
X43573715Y70428354D01*
X43684367Y70688182D01*
X43701904Y70770961D01*
X43579915Y70993000D01*
X42037000Y70993000D01*
X41783000Y70993000D01*
X40240085Y70993000D01*
X40118096Y70770961D01*
X25923690Y70770961D01*
X25944236Y70838691D01*
X25971943Y71120000D01*
X25944236Y71401309D01*
X25890911Y71577100D01*
X40146400Y71577100D01*
X40135633Y71551818D01*
X40118096Y71469039D01*
X40240085Y71247000D01*
X41783000Y71247000D01*
X41783000Y71267000D01*
X42037000Y71267000D01*
X42037000Y71247000D01*
X43579915Y71247000D01*
X43628366Y71335188D01*
X47963446Y67000107D01*
X47986462Y66972062D01*
X48098380Y66880213D01*
X48226067Y66811963D01*
X48322586Y66782684D01*
X48364614Y66769935D01*
X48378832Y66768535D01*
X48472595Y66759300D01*
X48472602Y66759300D01*
X48508699Y66755745D01*
X48544796Y66759300D01*
X51346747Y66759300D01*
X51420495Y66710023D01*
X51581555Y66643310D01*
X51752535Y66609300D01*
X51926865Y66609300D01*
X52097845Y66643310D01*
X52258905Y66710023D01*
X52403855Y66806876D01*
X52527124Y66930145D01*
X52623977Y67075095D01*
X52690690Y67236155D01*
X52724700Y67407135D01*
X52724700Y67581465D01*
X52690690Y67752445D01*
X52623977Y67913505D01*
X52527124Y68058455D01*
X52403855Y68181724D01*
X52258905Y68278577D01*
X52097845Y68345290D01*
X51926865Y68379300D01*
X51752535Y68379300D01*
X51581555Y68345290D01*
X51420495Y68278577D01*
X51346747Y68229300D01*
X48813147Y68229300D01*
X44236159Y72806287D01*
X44213138Y72834338D01*
X44101220Y72926187D01*
X43973533Y72994437D01*
X43834985Y73036465D01*
X43727005Y73047100D01*
X43690900Y73050656D01*
X43654795Y73047100D01*
X43609528Y73047100D01*
X43642182Y73108192D01*
X43724236Y73378691D01*
X43751943Y73660000D01*
X43724236Y73941309D01*
X43642182Y74211808D01*
X43508932Y74461101D01*
X43329608Y74679608D01*
X43111101Y74858932D01*
X42978142Y74930000D01*
X43111101Y75001068D01*
X43329608Y75180392D01*
X43508932Y75398899D01*
X43642182Y75648192D01*
X43724236Y75918691D01*
X43751943Y76200000D01*
X43724236Y76481309D01*
X43642182Y76751808D01*
X43508932Y77001101D01*
X43381916Y77155870D01*
X43904497Y77678450D01*
X43932537Y77701462D01*
X43955550Y77729503D01*
X43955553Y77729506D01*
X44024387Y77813380D01*
X44024388Y77813381D01*
X44092637Y77941067D01*
X44134665Y78079615D01*
X44145300Y78187595D01*
X44145300Y78187596D01*
X44148856Y78223700D01*
X44145300Y78259805D01*
X44145300Y81243895D01*
X44148856Y81280000D01*
X44134665Y81424085D01*
X44092637Y81562633D01*
X44024387Y81690320D01*
X43932538Y81802238D01*
X43820620Y81894087D01*
X43692933Y81962337D01*
X43554385Y82004365D01*
X43549702Y82004826D01*
X43508932Y82081101D01*
X43329608Y82299608D01*
X43111101Y82478932D01*
X42978142Y82550000D01*
X43111101Y82621068D01*
X43329608Y82800392D01*
X43508932Y83018899D01*
X43642182Y83268192D01*
X43724236Y83538691D01*
X43751943Y83820000D01*
X43724236Y84101309D01*
X43642182Y84371808D01*
X43508932Y84621101D01*
X43329608Y84839608D01*
X43111101Y85018932D01*
X42978142Y85090000D01*
X43111101Y85161068D01*
X43329608Y85340392D01*
X43508932Y85558899D01*
X43642182Y85808192D01*
X43724236Y86078691D01*
X43751943Y86360000D01*
X43724236Y86641309D01*
X43642182Y86911808D01*
X43508932Y87161101D01*
X43329608Y87379608D01*
X43111101Y87558932D01*
X42978142Y87630000D01*
X43111101Y87701068D01*
X43329608Y87880392D01*
X43508932Y88098899D01*
X43642182Y88348192D01*
X43724236Y88618691D01*
X43751943Y88900000D01*
X43724236Y89181309D01*
X43642182Y89451808D01*
X43508932Y89701101D01*
X43329608Y89919608D01*
X43111101Y90098932D01*
X42978142Y90170000D01*
X43111101Y90241068D01*
X43329608Y90420392D01*
X43508932Y90638899D01*
X43642182Y90888192D01*
X43724236Y91158691D01*
X43751943Y91440000D01*
X43724236Y91721309D01*
X43642182Y91991808D01*
X43508932Y92241101D01*
X43329608Y92459608D01*
X43216518Y92552419D01*
X43234482Y92554188D01*
X43354180Y92590498D01*
X43464494Y92649463D01*
X43561185Y92728815D01*
X43640537Y92825506D01*
X43699502Y92935820D01*
X43735812Y93055518D01*
X43748072Y93180000D01*
X43745000Y93694250D01*
X43586250Y93853000D01*
X42037000Y93853000D01*
X42037000Y93833000D01*
X41783000Y93833000D01*
X41783000Y93853000D01*
X40233750Y93853000D01*
X40075000Y93694250D01*
X40071928Y93180000D01*
X40084188Y93055518D01*
X40120498Y92935820D01*
X40179463Y92825506D01*
X40258815Y92728815D01*
X40355506Y92649463D01*
X40465820Y92590498D01*
X40585518Y92554188D01*
X40603482Y92552419D01*
X40490392Y92459608D01*
X40311068Y92241101D01*
X40270298Y92164826D01*
X40265615Y92164365D01*
X40127066Y92122337D01*
X39999380Y92054087D01*
X39887462Y91962238D01*
X39864446Y91934193D01*
X39004854Y91074600D01*
X25918728Y91074600D01*
X25944236Y91158691D01*
X25971943Y91440000D01*
X25944236Y91721309D01*
X25862182Y91991808D01*
X25728932Y92241101D01*
X25549608Y92459608D01*
X25331101Y92638932D01*
X25198142Y92710000D01*
X25331101Y92781068D01*
X25549608Y92960392D01*
X25728932Y93178899D01*
X25862182Y93428192D01*
X25944236Y93698691D01*
X25971943Y93980000D01*
X25944236Y94261309D01*
X25862182Y94531808D01*
X25758384Y94726000D01*
X40072251Y94726000D01*
X40075000Y94265750D01*
X40233750Y94107000D01*
X41783000Y94107000D01*
X41783000Y94127000D01*
X42037000Y94127000D01*
X42037000Y94107000D01*
X43586250Y94107000D01*
X43745000Y94265750D01*
X43747749Y94726000D01*
X45354982Y94726000D01*
X45396000Y94721960D01*
X45437018Y94726000D01*
X45437019Y94726000D01*
X45559689Y94738082D01*
X45717087Y94785828D01*
X45862146Y94863364D01*
X45989291Y94967709D01*
X46015446Y94999579D01*
X46754582Y95738715D01*
X46848665Y95720000D01*
X47131335Y95720000D01*
X47225418Y95738715D01*
X48044642Y94919491D01*
X47931068Y94781101D01*
X47797818Y94531808D01*
X47715764Y94261309D01*
X47688057Y93980000D01*
X47715764Y93698691D01*
X47797818Y93428192D01*
X47931068Y93178899D01*
X48110392Y92960392D01*
X48328899Y92781068D01*
X48461858Y92710000D01*
X48328899Y92638932D01*
X48110392Y92459608D01*
X47931068Y92241101D01*
X47797818Y91991808D01*
X47715764Y91721309D01*
X47688057Y91440000D01*
X47715764Y91158691D01*
X47797818Y90888192D01*
X47931068Y90638899D01*
X48110392Y90420392D01*
X48328899Y90241068D01*
X48461858Y90170000D01*
X48328899Y90098932D01*
X48110392Y89919608D01*
X47931068Y89701101D01*
X47797818Y89451808D01*
X47715764Y89181309D01*
X47688057Y88900000D01*
X47715764Y88618691D01*
X47797818Y88348192D01*
X47931068Y88098899D01*
X48110392Y87880392D01*
X48328899Y87701068D01*
X48461858Y87630000D01*
X48328899Y87558932D01*
X48110392Y87379608D01*
X47931068Y87161101D01*
X47797818Y86911808D01*
X47715764Y86641309D01*
X47688057Y86360000D01*
X47715764Y86078691D01*
X47797818Y85808192D01*
X47931068Y85558899D01*
X48110392Y85340392D01*
X48328899Y85161068D01*
X48461858Y85090000D01*
X48328899Y85018932D01*
X48110392Y84839608D01*
X47931068Y84621101D01*
X47797818Y84371808D01*
X47715764Y84101309D01*
X47688057Y83820000D01*
X47715764Y83538691D01*
X47797818Y83268192D01*
X47931068Y83018899D01*
X48110392Y82800392D01*
X48328899Y82621068D01*
X48461858Y82550000D01*
X48328899Y82478932D01*
X48110392Y82299608D01*
X47931068Y82081101D01*
X47797818Y81831808D01*
X47715764Y81561309D01*
X47688057Y81280000D01*
X47715764Y80998691D01*
X47797818Y80728192D01*
X47931068Y80478899D01*
X48110392Y80260392D01*
X48328899Y80081068D01*
X48461858Y80010000D01*
X48328899Y79938932D01*
X48110392Y79759608D01*
X47931068Y79541101D01*
X47797818Y79291808D01*
X47715764Y79021309D01*
X47688057Y78740000D01*
X47715764Y78458691D01*
X47797818Y78188192D01*
X47931068Y77938899D01*
X48110392Y77720392D01*
X48328899Y77541068D01*
X48461858Y77470000D01*
X48328899Y77398932D01*
X48110392Y77219608D01*
X47931068Y77001101D01*
X47797818Y76751808D01*
X47715764Y76481309D01*
X47688057Y76200000D01*
X47715764Y75918691D01*
X47797818Y75648192D01*
X47931068Y75398899D01*
X48110392Y75180392D01*
X48328899Y75001068D01*
X48461858Y74930000D01*
X48328899Y74858932D01*
X48110392Y74679608D01*
X47931068Y74461101D01*
X47797818Y74211808D01*
X47715764Y73941309D01*
X47688057Y73660000D01*
X47715764Y73378691D01*
X47797818Y73108192D01*
X47931068Y72858899D01*
X48110392Y72640392D01*
X48328899Y72461068D01*
X48461858Y72390000D01*
X48328899Y72318932D01*
X48110392Y72139608D01*
X47931068Y71921101D01*
X47797818Y71671808D01*
X47715764Y71401309D01*
X47688057Y71120000D01*
X47715764Y70838691D01*
X47797818Y70568192D01*
X47931068Y70318899D01*
X48110392Y70100392D01*
X48328899Y69921068D01*
X48578192Y69787818D01*
X48848691Y69705764D01*
X49059508Y69685000D01*
X50000492Y69685000D01*
X50211309Y69705764D01*
X50481808Y69787818D01*
X50731101Y69921068D01*
X50949608Y70100392D01*
X51128932Y70318899D01*
X51262182Y70568192D01*
X51344236Y70838691D01*
X51371943Y71120000D01*
X51344236Y71401309D01*
X51262182Y71671808D01*
X51128932Y71921101D01*
X51088802Y71970000D01*
X60106928Y71970000D01*
X60110000Y71405750D01*
X60268750Y71247000D01*
X61468000Y71247000D01*
X61468000Y72446250D01*
X61722000Y72446250D01*
X61722000Y71247000D01*
X62921250Y71247000D01*
X63080000Y71405750D01*
X63083072Y71970000D01*
X63070812Y72094482D01*
X63034502Y72214180D01*
X62975537Y72324494D01*
X62896185Y72421185D01*
X62799494Y72500537D01*
X62689180Y72559502D01*
X62569482Y72595812D01*
X62445000Y72608072D01*
X61880750Y72605000D01*
X61722000Y72446250D01*
X61468000Y72446250D01*
X61309250Y72605000D01*
X60745000Y72608072D01*
X60620518Y72595812D01*
X60500820Y72559502D01*
X60390506Y72500537D01*
X60293815Y72421185D01*
X60214463Y72324494D01*
X60155498Y72214180D01*
X60119188Y72094482D01*
X60106928Y71970000D01*
X51088802Y71970000D01*
X50949608Y72139608D01*
X50731101Y72318932D01*
X50598142Y72390000D01*
X50731101Y72461068D01*
X50949608Y72640392D01*
X51128932Y72858899D01*
X51262182Y73108192D01*
X51344236Y73378691D01*
X51371943Y73660000D01*
X51344236Y73941309D01*
X51262182Y74211808D01*
X51128932Y74461101D01*
X50949608Y74679608D01*
X50731101Y74858932D01*
X50598142Y74930000D01*
X50731101Y75001068D01*
X50949608Y75180392D01*
X51128932Y75398899D01*
X51262182Y75648192D01*
X51344236Y75918691D01*
X51371943Y76200000D01*
X51344236Y76481309D01*
X51262182Y76751808D01*
X51128932Y77001101D01*
X50949608Y77219608D01*
X50731101Y77398932D01*
X50598142Y77470000D01*
X50731101Y77541068D01*
X50949608Y77720392D01*
X51128932Y77938899D01*
X51262182Y78188192D01*
X51344236Y78458691D01*
X51371943Y78740000D01*
X51344236Y79021309D01*
X51262182Y79291808D01*
X51128932Y79541101D01*
X50949608Y79759608D01*
X50731101Y79938932D01*
X50598142Y80010000D01*
X50731101Y80081068D01*
X50949608Y80260392D01*
X51128932Y80478899D01*
X51262182Y80728192D01*
X51344236Y80998691D01*
X51371943Y81280000D01*
X51344236Y81561309D01*
X51262182Y81831808D01*
X51128932Y82081101D01*
X50949608Y82299608D01*
X50731101Y82478932D01*
X50598142Y82550000D01*
X50731101Y82621068D01*
X50949608Y82800392D01*
X51128932Y83018899D01*
X51262182Y83268192D01*
X51344236Y83538691D01*
X51371943Y83820000D01*
X51344236Y84101309D01*
X51262182Y84371808D01*
X51128932Y84621101D01*
X50949608Y84839608D01*
X50731101Y85018932D01*
X50598142Y85090000D01*
X50731101Y85161068D01*
X50949608Y85340392D01*
X51128932Y85558899D01*
X51262182Y85808192D01*
X51344236Y86078691D01*
X51371943Y86360000D01*
X51344236Y86641309D01*
X51262182Y86911808D01*
X51128932Y87161101D01*
X50949608Y87379608D01*
X50731101Y87558932D01*
X50598142Y87630000D01*
X50731101Y87701068D01*
X50949608Y87880392D01*
X51128932Y88098899D01*
X51262182Y88348192D01*
X51344236Y88618691D01*
X51371943Y88900000D01*
X51344236Y89181309D01*
X51262182Y89451808D01*
X51128932Y89701101D01*
X50949608Y89919608D01*
X50731101Y90098932D01*
X50598142Y90170000D01*
X50731101Y90241068D01*
X50949608Y90420392D01*
X51128932Y90638899D01*
X51262182Y90888192D01*
X51344236Y91158691D01*
X51371943Y91440000D01*
X51344236Y91721309D01*
X51262182Y91991808D01*
X51128932Y92241101D01*
X50949608Y92459608D01*
X50731101Y92638932D01*
X50598142Y92710000D01*
X50731101Y92781068D01*
X50949608Y92960392D01*
X51128932Y93178899D01*
X51262182Y93428192D01*
X51344236Y93698691D01*
X51371943Y93980000D01*
X51344236Y94261309D01*
X51262182Y94531808D01*
X51128932Y94781101D01*
X50949608Y94999608D01*
X50731101Y95178932D01*
X50481808Y95312182D01*
X50211309Y95394236D01*
X50000492Y95415000D01*
X49910868Y95415000D01*
X49162759Y96163109D01*
X60153519Y96163109D01*
X60250843Y95888748D01*
X60399822Y95638645D01*
X60594731Y95422412D01*
X60828080Y95248359D01*
X61090901Y95123175D01*
X61238110Y95078524D01*
X61468000Y95199845D01*
X61468000Y96393000D01*
X60274186Y96393000D01*
X60153519Y96163109D01*
X49162759Y96163109D01*
X48448977Y96876891D01*
X60153519Y96876891D01*
X60274186Y96647000D01*
X61468000Y96647000D01*
X61468000Y97840155D01*
X61238110Y97961476D01*
X61090901Y97916825D01*
X60828080Y97791641D01*
X60594731Y97617588D01*
X60399822Y97401355D01*
X60250843Y97151252D01*
X60153519Y96876891D01*
X48448977Y96876891D01*
X48406285Y96919582D01*
X48425000Y97013665D01*
X48425000Y97296335D01*
X48369853Y97573574D01*
X48261680Y97834727D01*
X48104637Y98069759D01*
X47904759Y98269637D01*
X47669727Y98426680D01*
X47408574Y98534853D01*
X47131335Y98590000D01*
X46848665Y98590000D01*
X46571426Y98534853D01*
X46310273Y98426680D01*
X46075241Y98269637D01*
X45875363Y98069759D01*
X45741308Y97869131D01*
X45726671Y97896514D01*
X45482702Y97968097D01*
X44669605Y97155000D01*
X44683748Y97140857D01*
X44504143Y96961252D01*
X44490000Y96975395D01*
X44475858Y96961252D01*
X44296253Y97140857D01*
X44310395Y97155000D01*
X43497298Y97968097D01*
X43253329Y97896514D01*
X43132429Y97641004D01*
X43063700Y97366816D01*
X43049783Y97084488D01*
X43091213Y96804870D01*
X43186397Y96538708D01*
X43253329Y96413486D01*
X43312925Y96396000D01*
X23529867Y96396000D01*
X23456446Y96469421D01*
X23430291Y96501291D01*
X23398426Y96527442D01*
X23006286Y96919582D01*
X23025000Y97013665D01*
X23025000Y97296335D01*
X22969853Y97573574D01*
X22861680Y97834727D01*
X22704637Y98069759D01*
X22626694Y98147702D01*
X43676903Y98147702D01*
X44490000Y97334605D01*
X45303097Y98147702D01*
X45231514Y98391671D01*
X44976004Y98512571D01*
X44701816Y98581300D01*
X44419488Y98595217D01*
X44139870Y98553787D01*
X43873708Y98458603D01*
X43748486Y98391671D01*
X43676903Y98147702D01*
X22626694Y98147702D01*
X22504759Y98269637D01*
X22269727Y98426680D01*
X22008574Y98534853D01*
X21731335Y98590000D01*
X21448665Y98590000D01*
X21171426Y98534853D01*
X20910273Y98426680D01*
X20675241Y98269637D01*
X20475363Y98069759D01*
X20341308Y97869131D01*
X20326671Y97896514D01*
X20082702Y97968097D01*
X19269605Y97155000D01*
X19283748Y97140857D01*
X19104143Y96961252D01*
X19090000Y96975395D01*
X18276903Y96162298D01*
X18348486Y95918329D01*
X18603996Y95797429D01*
X18718227Y95768795D01*
X18169944Y95220512D01*
X18161185Y95231185D01*
X18064494Y95310537D01*
X17954180Y95369502D01*
X17834482Y95405812D01*
X17710000Y95418072D01*
X15310000Y95418072D01*
X15185518Y95405812D01*
X15065820Y95369502D01*
X14955506Y95310537D01*
X14858815Y95231185D01*
X14779463Y95134494D01*
X14720498Y95024180D01*
X14684188Y94904482D01*
X14671928Y94780000D01*
X14671928Y93180000D01*
X14684188Y93055518D01*
X14720498Y92935820D01*
X14779463Y92825506D01*
X14858815Y92728815D01*
X14955506Y92649463D01*
X15065820Y92590498D01*
X15185518Y92554188D01*
X15203482Y92552419D01*
X15090392Y92459608D01*
X14911068Y92241101D01*
X14777818Y91991808D01*
X14695764Y91721309D01*
X14668057Y91440000D01*
X14695764Y91158691D01*
X14777818Y90888192D01*
X14911068Y90638899D01*
X15090392Y90420392D01*
X15308899Y90241068D01*
X15441858Y90170000D01*
X15308899Y90098932D01*
X15090392Y89919608D01*
X14911068Y89701101D01*
X14870298Y89624826D01*
X14865614Y89624365D01*
X14835517Y89615235D01*
X14727067Y89582337D01*
X14599380Y89514087D01*
X14487462Y89422238D01*
X14464446Y89394193D01*
X11368654Y86298400D01*
X8896850Y86298400D01*
X8977571Y86468996D01*
X9046300Y86743184D01*
X9060217Y87025512D01*
X9018787Y87305130D01*
X8923603Y87571292D01*
X8856671Y87696514D01*
X8612702Y87768097D01*
X7799605Y86955000D01*
X7813748Y86940857D01*
X7634143Y86761252D01*
X7620000Y86775395D01*
X7605858Y86761252D01*
X7426253Y86940857D01*
X7440395Y86955000D01*
X6627298Y87768097D01*
X6383329Y87696514D01*
X6262429Y87441004D01*
X6193700Y87166816D01*
X6179783Y86884488D01*
X6221213Y86604870D01*
X6316397Y86338708D01*
X6363911Y86249815D01*
X6350467Y86245737D01*
X6222780Y86177487D01*
X6110862Y86085638D01*
X6087846Y86057593D01*
X3382808Y83352554D01*
X3354763Y83329538D01*
X3262914Y83217620D01*
X3220176Y83137663D01*
X3194664Y83089933D01*
X3152635Y82951385D01*
X3138444Y82807300D01*
X3142001Y82771185D01*
X3142000Y69139005D01*
X3138444Y69102900D01*
X3142000Y69066796D01*
X3152635Y68958816D01*
X3194663Y68820268D01*
X3262913Y68692581D01*
X3354762Y68580663D01*
X3382808Y68557646D01*
X3935173Y68005280D01*
X3926525Y67996632D01*
X3764010Y67753411D01*
X3652068Y67483158D01*
X3595000Y67196260D01*
X3595000Y66903740D01*
X3652068Y66616842D01*
X3764010Y66346589D01*
X3926525Y66103368D01*
X3966173Y66063720D01*
X3019608Y65117154D01*
X2991563Y65094138D01*
X2899714Y64982220D01*
X2865733Y64918646D01*
X2831464Y64854533D01*
X2789435Y64715985D01*
X2775244Y64571900D01*
X2778801Y64535785D01*
X2778800Y59346905D01*
X2775244Y59310800D01*
X2778800Y59274696D01*
X2789435Y59166716D01*
X2831463Y59028168D01*
X2899713Y58900481D01*
X2991562Y58788563D01*
X3019608Y58765546D01*
X3937523Y57847630D01*
X3926525Y57836632D01*
X3764010Y57593411D01*
X3652068Y57323158D01*
X3595000Y57036260D01*
X3595000Y56743740D01*
X3652068Y56456842D01*
X3764010Y56186589D01*
X3926525Y55943368D01*
X4133368Y55736525D01*
X4307760Y55620000D01*
X4133368Y55503475D01*
X3926525Y55296632D01*
X3764010Y55053411D01*
X3652068Y54783158D01*
X3595000Y54496260D01*
X3595000Y54203740D01*
X3652068Y53916842D01*
X3764010Y53646589D01*
X3926525Y53403368D01*
X3966173Y53363720D01*
X2629408Y52026954D01*
X2601362Y52003937D01*
X2509513Y51892019D01*
X2441263Y51764332D01*
X2411984Y51667813D01*
X2399235Y51625785D01*
X2385044Y51481700D01*
X660000Y51481700D01*
X660000Y87947702D01*
X6806903Y87947702D01*
X7620000Y87134605D01*
X8433097Y87947702D01*
X8361514Y88191671D01*
X8106004Y88312571D01*
X7831816Y88381300D01*
X7549488Y88395217D01*
X7269870Y88353787D01*
X7003708Y88258603D01*
X6878486Y88191671D01*
X6806903Y87947702D01*
X660000Y87947702D01*
X660000Y95220128D01*
X2765000Y95220128D01*
X2765000Y94779872D01*
X2850890Y94348075D01*
X3019369Y93941331D01*
X3263962Y93575271D01*
X3575271Y93263962D01*
X3941331Y93019369D01*
X4348075Y92850890D01*
X4779872Y92765000D01*
X5220128Y92765000D01*
X5651925Y92850890D01*
X6058669Y93019369D01*
X6424729Y93263962D01*
X6736038Y93575271D01*
X6980631Y93941331D01*
X7149110Y94348075D01*
X7235000Y94779872D01*
X7235000Y95220128D01*
X7149110Y95651925D01*
X6980631Y96058669D01*
X6736038Y96424729D01*
X6424729Y96736038D01*
X6058669Y96980631D01*
X5807937Y97084488D01*
X17649783Y97084488D01*
X17691213Y96804870D01*
X17786397Y96538708D01*
X17853329Y96413486D01*
X18097298Y96341903D01*
X18910395Y97155000D01*
X18097298Y97968097D01*
X17853329Y97896514D01*
X17732429Y97641004D01*
X17663700Y97366816D01*
X17649783Y97084488D01*
X5807937Y97084488D01*
X5651925Y97149110D01*
X5220128Y97235000D01*
X4779872Y97235000D01*
X4348075Y97149110D01*
X3941331Y96980631D01*
X3575271Y96736038D01*
X3263962Y96424729D01*
X3019369Y96058669D01*
X2850890Y95651925D01*
X2765000Y95220128D01*
X660000Y95220128D01*
X660000Y98147702D01*
X18276903Y98147702D01*
X19090000Y97334605D01*
X19903097Y98147702D01*
X19831514Y98391671D01*
X19576004Y98512571D01*
X19301816Y98581300D01*
X19019488Y98595217D01*
X18739870Y98553787D01*
X18473708Y98458603D01*
X18348486Y98391671D01*
X18276903Y98147702D01*
X660000Y98147702D01*
X660000Y99340000D01*
X99340001Y99340000D01*
X99340000Y660000D01*
G37*
G04 #@! TD.AperFunction*
D22*
X14777818Y25951808D02*
X14695764Y25681309D01*
X14668057Y25400000D01*
X14695764Y25118691D01*
X14777818Y24848192D01*
X14911068Y24598899D01*
X15090392Y24380392D01*
X15308899Y24201068D01*
X15441858Y24130000D01*
X15308899Y24058932D01*
X15090392Y23879608D01*
X14911068Y23661101D01*
X14777818Y23411808D01*
X14695764Y23141309D01*
X14668057Y22860000D01*
X14695764Y22578691D01*
X14777818Y22308192D01*
X14911068Y22058899D01*
X15090392Y21840392D01*
X15308899Y21661068D01*
X15441858Y21590000D01*
X15308899Y21518932D01*
X15090392Y21339608D01*
X14911068Y21121101D01*
X14870298Y21044826D01*
X14865614Y21044365D01*
X14835521Y21035236D01*
X14727067Y21002337D01*
X14599380Y20934087D01*
X14560160Y20901900D01*
X9039877Y20901900D01*
X9061476Y20973110D01*
X8940155Y21203000D01*
X7747000Y21203000D01*
X7747000Y21183000D01*
X7493000Y21183000D01*
X7493000Y21203000D01*
X5207000Y21203000D01*
X5207000Y21183000D01*
X4953000Y21183000D01*
X4953000Y21203000D01*
X4933000Y21203000D01*
X4933000Y21457000D01*
X4953000Y21457000D01*
X4953000Y21477000D01*
X5207000Y21477000D01*
X5207000Y21457000D01*
X7493000Y21457000D01*
X7493000Y21477000D01*
X7747000Y21477000D01*
X7747000Y21457000D01*
X8940155Y21457000D01*
X9061476Y21686890D01*
X9016825Y21834099D01*
X8891641Y22096920D01*
X8717588Y22330269D01*
X8501355Y22525178D01*
X8384466Y22594805D01*
X8566632Y22716525D01*
X8773475Y22923368D01*
X8935990Y23166589D01*
X9047932Y23436842D01*
X9105000Y23723740D01*
X9105000Y24016260D01*
X9047932Y24303158D01*
X8935990Y24573411D01*
X8773475Y24816632D01*
X8566632Y25023475D01*
X8392240Y25140000D01*
X8566632Y25256525D01*
X8773475Y25463368D01*
X8923922Y25688528D01*
X9052933Y25727663D01*
X9180620Y25795913D01*
X9292538Y25887762D01*
X9315559Y25915813D01*
X9450746Y26051000D01*
X14830837Y26051000D01*
X14777818Y25951808D01*
G04 #@! TA.AperFunction,Conductor*
D23*
G36*
X14777818Y25951808D02*
G01*
X14695764Y25681309D01*
X14668057Y25400000D01*
X14695764Y25118691D01*
X14777818Y24848192D01*
X14911068Y24598899D01*
X15090392Y24380392D01*
X15308899Y24201068D01*
X15441858Y24130000D01*
X15308899Y24058932D01*
X15090392Y23879608D01*
X14911068Y23661101D01*
X14777818Y23411808D01*
X14695764Y23141309D01*
X14668057Y22860000D01*
X14695764Y22578691D01*
X14777818Y22308192D01*
X14911068Y22058899D01*
X15090392Y21840392D01*
X15308899Y21661068D01*
X15441858Y21590000D01*
X15308899Y21518932D01*
X15090392Y21339608D01*
X14911068Y21121101D01*
X14870298Y21044826D01*
X14865614Y21044365D01*
X14835521Y21035236D01*
X14727067Y21002337D01*
X14599380Y20934087D01*
X14560160Y20901900D01*
X9039877Y20901900D01*
X9061476Y20973110D01*
X8940155Y21203000D01*
X7747000Y21203000D01*
X7747000Y21183000D01*
X7493000Y21183000D01*
X7493000Y21203000D01*
X5207000Y21203000D01*
X5207000Y21183000D01*
X4953000Y21183000D01*
X4953000Y21203000D01*
X4933000Y21203000D01*
X4933000Y21457000D01*
X4953000Y21457000D01*
X4953000Y21477000D01*
X5207000Y21477000D01*
X5207000Y21457000D01*
X7493000Y21457000D01*
X7493000Y21477000D01*
X7747000Y21477000D01*
X7747000Y21457000D01*
X8940155Y21457000D01*
X9061476Y21686890D01*
X9016825Y21834099D01*
X8891641Y22096920D01*
X8717588Y22330269D01*
X8501355Y22525178D01*
X8384466Y22594805D01*
X8566632Y22716525D01*
X8773475Y22923368D01*
X8935990Y23166589D01*
X9047932Y23436842D01*
X9105000Y23723740D01*
X9105000Y24016260D01*
X9047932Y24303158D01*
X8935990Y24573411D01*
X8773475Y24816632D01*
X8566632Y25023475D01*
X8392240Y25140000D01*
X8566632Y25256525D01*
X8773475Y25463368D01*
X8923922Y25688528D01*
X9052933Y25727663D01*
X9180620Y25795913D01*
X9292538Y25887762D01*
X9315559Y25915813D01*
X9450746Y26051000D01*
X14830837Y26051000D01*
X14777818Y25951808D01*
G37*
G04 #@! TD.AperFunction*
D22*
X22315764Y44096309D02*
X22288057Y43815000D01*
X22315764Y43533691D01*
X22397818Y43263192D01*
X22531068Y43013899D01*
X22710392Y42795392D01*
X22928899Y42616068D01*
X23061858Y42545000D01*
X22928899Y42473932D01*
X22710392Y42294608D01*
X22531068Y42076101D01*
X22397818Y41826808D01*
X22315764Y41556309D01*
X22288057Y41275000D01*
X22315764Y40993691D01*
X22397818Y40723192D01*
X22531068Y40473899D01*
X22710392Y40255392D01*
X22928899Y40076068D01*
X23178192Y39942818D01*
X23448691Y39860764D01*
X23659508Y39840000D01*
X24600492Y39840000D01*
X24811309Y39860764D01*
X25081808Y39942818D01*
X25331101Y40076068D01*
X25549608Y40255392D01*
X25728932Y40473899D01*
X25862182Y40723192D01*
X25944236Y40993691D01*
X25971943Y41275000D01*
X25944236Y41556309D01*
X25862182Y41826808D01*
X25728932Y42076101D01*
X25549608Y42294608D01*
X25331101Y42473932D01*
X25198142Y42545000D01*
X25331101Y42616068D01*
X25549608Y42795392D01*
X25577038Y42828816D01*
X26203646Y42202207D01*
X26226662Y42174162D01*
X26338580Y42082313D01*
X26466267Y42014063D01*
X26604815Y41972035D01*
X26712795Y41961400D01*
X26712804Y41961400D01*
X26748899Y41957845D01*
X26784994Y41961400D01*
X36832779Y41961400D01*
X36828320Y41954727D01*
X36720147Y41693574D01*
X36665000Y41416335D01*
X36665000Y41133665D01*
X36720147Y40856426D01*
X36828320Y40595273D01*
X36985363Y40360241D01*
X37185241Y40160363D01*
X37417759Y40005000D01*
X37185241Y39849637D01*
X36985363Y39649759D01*
X36828320Y39414727D01*
X36720147Y39153574D01*
X36665000Y38876335D01*
X36665000Y38593665D01*
X36720147Y38316426D01*
X36828320Y38055273D01*
X36985363Y37820241D01*
X37185241Y37620363D01*
X37417759Y37465000D01*
X37185241Y37309637D01*
X36985363Y37109759D01*
X36828320Y36874727D01*
X36720147Y36613574D01*
X36665000Y36336335D01*
X36665000Y36053665D01*
X36720147Y35776426D01*
X36828320Y35515273D01*
X36985363Y35280241D01*
X37185241Y35080363D01*
X37417759Y34925000D01*
X37185241Y34769637D01*
X36985363Y34569759D01*
X36828320Y34334727D01*
X36720147Y34073574D01*
X36665000Y33796335D01*
X36665000Y33513665D01*
X36720147Y33236426D01*
X36828320Y32975273D01*
X36985363Y32740241D01*
X37185241Y32540363D01*
X37417759Y32385000D01*
X37185241Y32229637D01*
X36985363Y32029759D01*
X36828320Y31794727D01*
X36720147Y31533574D01*
X36665000Y31256335D01*
X36665000Y30973665D01*
X36720147Y30696426D01*
X36828320Y30435273D01*
X36985363Y30200241D01*
X37185241Y30000363D01*
X37420273Y29843320D01*
X37430865Y29838933D01*
X37244869Y29727385D01*
X37036481Y29538414D01*
X36868963Y29312420D01*
X36748754Y29058087D01*
X36708096Y28924039D01*
X36830085Y28702000D01*
X37973000Y28702000D01*
X37973000Y28722000D01*
X38227000Y28722000D01*
X38227000Y28702000D01*
X38247000Y28702000D01*
X38247000Y28448000D01*
X38227000Y28448000D01*
X38227000Y28428000D01*
X37973000Y28428000D01*
X37973000Y28448000D01*
X36830085Y28448000D01*
X36708096Y28225961D01*
X36748754Y28091913D01*
X36868963Y27837580D01*
X37036481Y27611586D01*
X37244869Y27422615D01*
X37486119Y27277930D01*
X37750960Y27183091D01*
X37972998Y27304375D01*
X37972998Y27140000D01*
X38093454Y27140000D01*
X37088454Y26135000D01*
X25764264Y26135000D01*
X25728932Y26201101D01*
X25549608Y26419608D01*
X25331101Y26598932D01*
X25198142Y26670000D01*
X25331101Y26741068D01*
X25549608Y26920392D01*
X25728932Y27138899D01*
X25862182Y27388192D01*
X25944236Y27658691D01*
X25971943Y27940000D01*
X25944236Y28221309D01*
X25862182Y28491808D01*
X25728932Y28741101D01*
X25549608Y28959608D01*
X25331101Y29138932D01*
X25198142Y29210000D01*
X25331101Y29281068D01*
X25549608Y29460392D01*
X25728932Y29678899D01*
X25862182Y29928192D01*
X25944236Y30198691D01*
X25971943Y30480000D01*
X25944236Y30761309D01*
X25862182Y31031808D01*
X25728932Y31281101D01*
X25549608Y31499608D01*
X25331101Y31678932D01*
X25198142Y31750000D01*
X25331101Y31821068D01*
X25549608Y32000392D01*
X25728932Y32218899D01*
X25862182Y32468192D01*
X25944236Y32738691D01*
X25971943Y33020000D01*
X25944236Y33301309D01*
X25862182Y33571808D01*
X25728932Y33821101D01*
X25549608Y34039608D01*
X25331101Y34218932D01*
X25081808Y34352182D01*
X24811309Y34434236D01*
X24600492Y34455000D01*
X24510868Y34455000D01*
X23006285Y35959582D01*
X23025000Y36053665D01*
X23025000Y36336335D01*
X22969853Y36613574D01*
X22861680Y36874727D01*
X22704637Y37109759D01*
X22504759Y37309637D01*
X22269727Y37466680D01*
X22008574Y37574853D01*
X21731335Y37630000D01*
X21448665Y37630000D01*
X21171426Y37574853D01*
X20910273Y37466680D01*
X20675241Y37309637D01*
X20475363Y37109759D01*
X20341308Y36909131D01*
X20326671Y36936514D01*
X20082702Y37008097D01*
X19269605Y36195000D01*
X20082702Y35381903D01*
X20326671Y35453486D01*
X20340324Y35482341D01*
X20475363Y35280241D01*
X20675241Y35080363D01*
X20910273Y34923320D01*
X21171426Y34815147D01*
X21448665Y34760000D01*
X21731335Y34760000D01*
X21825418Y34778715D01*
X22644642Y33959491D01*
X22531068Y33821101D01*
X22397818Y33571808D01*
X22315764Y33301309D01*
X22288057Y33020000D01*
X22315764Y32738691D01*
X22397818Y32468192D01*
X22531068Y32218899D01*
X22710392Y32000392D01*
X22928899Y31821068D01*
X23061858Y31750000D01*
X22928899Y31678932D01*
X22710392Y31499608D01*
X22531068Y31281101D01*
X22397818Y31031808D01*
X22315764Y30761309D01*
X22288057Y30480000D01*
X22315764Y30198691D01*
X22397818Y29928192D01*
X22531068Y29678899D01*
X22710392Y29460392D01*
X22928899Y29281068D01*
X23061858Y29210000D01*
X22928899Y29138932D01*
X22710392Y28959608D01*
X22531068Y28741101D01*
X22397818Y28491808D01*
X22315764Y28221309D01*
X22288057Y27940000D01*
X22292090Y27899057D01*
X18270181Y31920965D01*
X18299502Y31975820D01*
X18335812Y32095518D01*
X18348072Y32220000D01*
X18348072Y33520181D01*
X19182006Y32686247D01*
X19199310Y32599255D01*
X19266023Y32438195D01*
X19362876Y32293245D01*
X19486145Y32169976D01*
X19631095Y32073123D01*
X19792155Y32006410D01*
X19963135Y31972400D01*
X20137465Y31972400D01*
X20308445Y32006410D01*
X20469505Y32073123D01*
X20614455Y32169976D01*
X20737724Y32293245D01*
X20834577Y32438195D01*
X20901290Y32599255D01*
X20935300Y32770235D01*
X20935300Y32944565D01*
X20901290Y33115545D01*
X20834577Y33276605D01*
X20737724Y33421555D01*
X20614455Y33544824D01*
X20469505Y33641677D01*
X20308445Y33708390D01*
X20221453Y33725694D01*
X19188253Y34758893D01*
X19440130Y34796213D01*
X19706292Y34891397D01*
X19831514Y34958329D01*
X19903097Y35202298D01*
X19090000Y36015395D01*
X19075858Y36001252D01*
X18896253Y36180857D01*
X18910395Y36195000D01*
X18097298Y37008097D01*
X17853329Y36936514D01*
X17732429Y36681004D01*
X17663700Y36406816D01*
X17657904Y36289242D01*
X16759444Y37187702D01*
X18276903Y37187702D01*
X19090000Y36374605D01*
X19903097Y37187702D01*
X19831514Y37431671D01*
X19576004Y37552571D01*
X19301816Y37621300D01*
X19019488Y37635217D01*
X18739870Y37593787D01*
X18473708Y37498603D01*
X18348486Y37431671D01*
X18276903Y37187702D01*
X16759444Y37187702D01*
X15744700Y38202446D01*
X15744700Y39884953D01*
X15983000Y39840000D01*
X16383000Y39840000D01*
X16383000Y41148000D01*
X16637000Y41148000D01*
X16637000Y39840000D01*
X17037000Y39840000D01*
X17314514Y39892350D01*
X17576483Y39997834D01*
X17812839Y40152399D01*
X18014500Y40350105D01*
X18173715Y40583354D01*
X18284367Y40843182D01*
X18301904Y40925961D01*
X18179915Y41148000D01*
X16637000Y41148000D01*
X16383000Y41148000D01*
X16363000Y41148000D01*
X16363000Y41402000D01*
X16383000Y41402000D01*
X16383000Y41422000D01*
X16637000Y41422000D01*
X16637000Y41402000D01*
X18179915Y41402000D01*
X18301904Y41624039D01*
X18284367Y41706818D01*
X18173715Y41966646D01*
X18014500Y42199895D01*
X17812839Y42397601D01*
X17583259Y42547735D01*
X17711101Y42616068D01*
X17929608Y42795392D01*
X18108932Y43013899D01*
X18149702Y43090174D01*
X18154385Y43090635D01*
X18292933Y43132663D01*
X18420620Y43200913D01*
X18532538Y43292762D01*
X18555558Y43320812D01*
X19584747Y44350000D01*
X22392719Y44350000D01*
X22315764Y44096309D01*
G04 #@! TA.AperFunction,Conductor*
D23*
G36*
X22315764Y44096309D02*
G01*
X22288057Y43815000D01*
X22315764Y43533691D01*
X22397818Y43263192D01*
X22531068Y43013899D01*
X22710392Y42795392D01*
X22928899Y42616068D01*
X23061858Y42545000D01*
X22928899Y42473932D01*
X22710392Y42294608D01*
X22531068Y42076101D01*
X22397818Y41826808D01*
X22315764Y41556309D01*
X22288057Y41275000D01*
X22315764Y40993691D01*
X22397818Y40723192D01*
X22531068Y40473899D01*
X22710392Y40255392D01*
X22928899Y40076068D01*
X23178192Y39942818D01*
X23448691Y39860764D01*
X23659508Y39840000D01*
X24600492Y39840000D01*
X24811309Y39860764D01*
X25081808Y39942818D01*
X25331101Y40076068D01*
X25549608Y40255392D01*
X25728932Y40473899D01*
X25862182Y40723192D01*
X25944236Y40993691D01*
X25971943Y41275000D01*
X25944236Y41556309D01*
X25862182Y41826808D01*
X25728932Y42076101D01*
X25549608Y42294608D01*
X25331101Y42473932D01*
X25198142Y42545000D01*
X25331101Y42616068D01*
X25549608Y42795392D01*
X25577038Y42828816D01*
X26203646Y42202207D01*
X26226662Y42174162D01*
X26338580Y42082313D01*
X26466267Y42014063D01*
X26604815Y41972035D01*
X26712795Y41961400D01*
X26712804Y41961400D01*
X26748899Y41957845D01*
X26784994Y41961400D01*
X36832779Y41961400D01*
X36828320Y41954727D01*
X36720147Y41693574D01*
X36665000Y41416335D01*
X36665000Y41133665D01*
X36720147Y40856426D01*
X36828320Y40595273D01*
X36985363Y40360241D01*
X37185241Y40160363D01*
X37417759Y40005000D01*
X37185241Y39849637D01*
X36985363Y39649759D01*
X36828320Y39414727D01*
X36720147Y39153574D01*
X36665000Y38876335D01*
X36665000Y38593665D01*
X36720147Y38316426D01*
X36828320Y38055273D01*
X36985363Y37820241D01*
X37185241Y37620363D01*
X37417759Y37465000D01*
X37185241Y37309637D01*
X36985363Y37109759D01*
X36828320Y36874727D01*
X36720147Y36613574D01*
X36665000Y36336335D01*
X36665000Y36053665D01*
X36720147Y35776426D01*
X36828320Y35515273D01*
X36985363Y35280241D01*
X37185241Y35080363D01*
X37417759Y34925000D01*
X37185241Y34769637D01*
X36985363Y34569759D01*
X36828320Y34334727D01*
X36720147Y34073574D01*
X36665000Y33796335D01*
X36665000Y33513665D01*
X36720147Y33236426D01*
X36828320Y32975273D01*
X36985363Y32740241D01*
X37185241Y32540363D01*
X37417759Y32385000D01*
X37185241Y32229637D01*
X36985363Y32029759D01*
X36828320Y31794727D01*
X36720147Y31533574D01*
X36665000Y31256335D01*
X36665000Y30973665D01*
X36720147Y30696426D01*
X36828320Y30435273D01*
X36985363Y30200241D01*
X37185241Y30000363D01*
X37420273Y29843320D01*
X37430865Y29838933D01*
X37244869Y29727385D01*
X37036481Y29538414D01*
X36868963Y29312420D01*
X36748754Y29058087D01*
X36708096Y28924039D01*
X36830085Y28702000D01*
X37973000Y28702000D01*
X37973000Y28722000D01*
X38227000Y28722000D01*
X38227000Y28702000D01*
X38247000Y28702000D01*
X38247000Y28448000D01*
X38227000Y28448000D01*
X38227000Y28428000D01*
X37973000Y28428000D01*
X37973000Y28448000D01*
X36830085Y28448000D01*
X36708096Y28225961D01*
X36748754Y28091913D01*
X36868963Y27837580D01*
X37036481Y27611586D01*
X37244869Y27422615D01*
X37486119Y27277930D01*
X37750960Y27183091D01*
X37972998Y27304375D01*
X37972998Y27140000D01*
X38093454Y27140000D01*
X37088454Y26135000D01*
X25764264Y26135000D01*
X25728932Y26201101D01*
X25549608Y26419608D01*
X25331101Y26598932D01*
X25198142Y26670000D01*
X25331101Y26741068D01*
X25549608Y26920392D01*
X25728932Y27138899D01*
X25862182Y27388192D01*
X25944236Y27658691D01*
X25971943Y27940000D01*
X25944236Y28221309D01*
X25862182Y28491808D01*
X25728932Y28741101D01*
X25549608Y28959608D01*
X25331101Y29138932D01*
X25198142Y29210000D01*
X25331101Y29281068D01*
X25549608Y29460392D01*
X25728932Y29678899D01*
X25862182Y29928192D01*
X25944236Y30198691D01*
X25971943Y30480000D01*
X25944236Y30761309D01*
X25862182Y31031808D01*
X25728932Y31281101D01*
X25549608Y31499608D01*
X25331101Y31678932D01*
X25198142Y31750000D01*
X25331101Y31821068D01*
X25549608Y32000392D01*
X25728932Y32218899D01*
X25862182Y32468192D01*
X25944236Y32738691D01*
X25971943Y33020000D01*
X25944236Y33301309D01*
X25862182Y33571808D01*
X25728932Y33821101D01*
X25549608Y34039608D01*
X25331101Y34218932D01*
X25081808Y34352182D01*
X24811309Y34434236D01*
X24600492Y34455000D01*
X24510868Y34455000D01*
X23006285Y35959582D01*
X23025000Y36053665D01*
X23025000Y36336335D01*
X22969853Y36613574D01*
X22861680Y36874727D01*
X22704637Y37109759D01*
X22504759Y37309637D01*
X22269727Y37466680D01*
X22008574Y37574853D01*
X21731335Y37630000D01*
X21448665Y37630000D01*
X21171426Y37574853D01*
X20910273Y37466680D01*
X20675241Y37309637D01*
X20475363Y37109759D01*
X20341308Y36909131D01*
X20326671Y36936514D01*
X20082702Y37008097D01*
X19269605Y36195000D01*
X20082702Y35381903D01*
X20326671Y35453486D01*
X20340324Y35482341D01*
X20475363Y35280241D01*
X20675241Y35080363D01*
X20910273Y34923320D01*
X21171426Y34815147D01*
X21448665Y34760000D01*
X21731335Y34760000D01*
X21825418Y34778715D01*
X22644642Y33959491D01*
X22531068Y33821101D01*
X22397818Y33571808D01*
X22315764Y33301309D01*
X22288057Y33020000D01*
X22315764Y32738691D01*
X22397818Y32468192D01*
X22531068Y32218899D01*
X22710392Y32000392D01*
X22928899Y31821068D01*
X23061858Y31750000D01*
X22928899Y31678932D01*
X22710392Y31499608D01*
X22531068Y31281101D01*
X22397818Y31031808D01*
X22315764Y30761309D01*
X22288057Y30480000D01*
X22315764Y30198691D01*
X22397818Y29928192D01*
X22531068Y29678899D01*
X22710392Y29460392D01*
X22928899Y29281068D01*
X23061858Y29210000D01*
X22928899Y29138932D01*
X22710392Y28959608D01*
X22531068Y28741101D01*
X22397818Y28491808D01*
X22315764Y28221309D01*
X22288057Y27940000D01*
X22292090Y27899057D01*
X18270181Y31920965D01*
X18299502Y31975820D01*
X18335812Y32095518D01*
X18348072Y32220000D01*
X18348072Y33520181D01*
X19182006Y32686247D01*
X19199310Y32599255D01*
X19266023Y32438195D01*
X19362876Y32293245D01*
X19486145Y32169976D01*
X19631095Y32073123D01*
X19792155Y32006410D01*
X19963135Y31972400D01*
X20137465Y31972400D01*
X20308445Y32006410D01*
X20469505Y32073123D01*
X20614455Y32169976D01*
X20737724Y32293245D01*
X20834577Y32438195D01*
X20901290Y32599255D01*
X20935300Y32770235D01*
X20935300Y32944565D01*
X20901290Y33115545D01*
X20834577Y33276605D01*
X20737724Y33421555D01*
X20614455Y33544824D01*
X20469505Y33641677D01*
X20308445Y33708390D01*
X20221453Y33725694D01*
X19188253Y34758893D01*
X19440130Y34796213D01*
X19706292Y34891397D01*
X19831514Y34958329D01*
X19903097Y35202298D01*
X19090000Y36015395D01*
X19075858Y36001252D01*
X18896253Y36180857D01*
X18910395Y36195000D01*
X18097298Y37008097D01*
X17853329Y36936514D01*
X17732429Y36681004D01*
X17663700Y36406816D01*
X17657904Y36289242D01*
X16759444Y37187702D01*
X18276903Y37187702D01*
X19090000Y36374605D01*
X19903097Y37187702D01*
X19831514Y37431671D01*
X19576004Y37552571D01*
X19301816Y37621300D01*
X19019488Y37635217D01*
X18739870Y37593787D01*
X18473708Y37498603D01*
X18348486Y37431671D01*
X18276903Y37187702D01*
X16759444Y37187702D01*
X15744700Y38202446D01*
X15744700Y39884953D01*
X15983000Y39840000D01*
X16383000Y39840000D01*
X16383000Y41148000D01*
X16637000Y41148000D01*
X16637000Y39840000D01*
X17037000Y39840000D01*
X17314514Y39892350D01*
X17576483Y39997834D01*
X17812839Y40152399D01*
X18014500Y40350105D01*
X18173715Y40583354D01*
X18284367Y40843182D01*
X18301904Y40925961D01*
X18179915Y41148000D01*
X16637000Y41148000D01*
X16383000Y41148000D01*
X16363000Y41148000D01*
X16363000Y41402000D01*
X16383000Y41402000D01*
X16383000Y41422000D01*
X16637000Y41422000D01*
X16637000Y41402000D01*
X18179915Y41402000D01*
X18301904Y41624039D01*
X18284367Y41706818D01*
X18173715Y41966646D01*
X18014500Y42199895D01*
X17812839Y42397601D01*
X17583259Y42547735D01*
X17711101Y42616068D01*
X17929608Y42795392D01*
X18108932Y43013899D01*
X18149702Y43090174D01*
X18154385Y43090635D01*
X18292933Y43132663D01*
X18420620Y43200913D01*
X18532538Y43292762D01*
X18555558Y43320812D01*
X19584747Y44350000D01*
X22392719Y44350000D01*
X22315764Y44096309D01*
G37*
G04 #@! TD.AperFunction*
D22*
X48845346Y43320807D02*
X48868362Y43292762D01*
X48904393Y43263192D01*
X48980280Y43200913D01*
X49107966Y43132663D01*
X49246515Y43090635D01*
X49390600Y43076444D01*
X49426705Y43080000D01*
X52105252Y43080000D01*
X52225363Y42900241D01*
X52425241Y42700363D01*
X52660273Y42543320D01*
X52670865Y42538933D01*
X52484869Y42427385D01*
X52276481Y42238414D01*
X52108963Y42012420D01*
X51988754Y41758087D01*
X51948096Y41624039D01*
X52070085Y41402000D01*
X53213000Y41402000D01*
X53213000Y41422000D01*
X53467000Y41422000D01*
X53467000Y41402000D01*
X54609915Y41402000D01*
X54731904Y41624039D01*
X54691246Y41758087D01*
X54571037Y42012420D01*
X54403519Y42238414D01*
X54195131Y42427385D01*
X54009135Y42538933D01*
X54019727Y42543320D01*
X54254759Y42700363D01*
X54454637Y42900241D01*
X54611680Y43135273D01*
X54709419Y43371235D01*
X57606700Y40473953D01*
X57606701Y32718215D01*
X57603144Y32682100D01*
X57617335Y32538015D01*
X57647616Y32438195D01*
X57659364Y32399467D01*
X57727614Y32271780D01*
X57819463Y32159862D01*
X57847508Y32136846D01*
X59405106Y30579247D01*
X59422410Y30492255D01*
X59438007Y30454600D01*
X55615003Y30454600D01*
X55541405Y30503777D01*
X55380345Y30570490D01*
X55209365Y30604500D01*
X55035035Y30604500D01*
X54864055Y30570490D01*
X54702995Y30503777D01*
X54615969Y30445628D01*
X54719853Y30696426D01*
X54775000Y30973665D01*
X54775000Y31256335D01*
X54719853Y31533574D01*
X54611680Y31794727D01*
X54454637Y32029759D01*
X54254759Y32229637D01*
X54022241Y32385000D01*
X54254759Y32540363D01*
X54454637Y32740241D01*
X54611680Y32975273D01*
X54719853Y33236426D01*
X54775000Y33513665D01*
X54775000Y33796335D01*
X54719853Y34073574D01*
X54611680Y34334727D01*
X54454637Y34569759D01*
X54254759Y34769637D01*
X54022241Y34925000D01*
X54254759Y35080363D01*
X54454637Y35280241D01*
X54611680Y35515273D01*
X54719853Y35776426D01*
X54775000Y36053665D01*
X54775000Y36336335D01*
X54719853Y36613574D01*
X54611680Y36874727D01*
X54454637Y37109759D01*
X54254759Y37309637D01*
X54022241Y37465000D01*
X54254759Y37620363D01*
X54454637Y37820241D01*
X54611680Y38055273D01*
X54719853Y38316426D01*
X54775000Y38593665D01*
X54775000Y38876335D01*
X54719853Y39153574D01*
X54611680Y39414727D01*
X54454637Y39649759D01*
X54254759Y39849637D01*
X54019727Y40006680D01*
X54009135Y40011067D01*
X54195131Y40122615D01*
X54403519Y40311586D01*
X54571037Y40537580D01*
X54691246Y40791913D01*
X54731904Y40925961D01*
X54609915Y41148000D01*
X53467000Y41148000D01*
X53467000Y41128000D01*
X53213000Y41128000D01*
X53213000Y41148000D01*
X52070085Y41148000D01*
X51948096Y40925961D01*
X51988754Y40791913D01*
X52106778Y40542204D01*
X51990445Y40590390D01*
X51819465Y40624400D01*
X51645135Y40624400D01*
X51474155Y40590390D01*
X51313095Y40523677D01*
X51168145Y40426824D01*
X51044876Y40303555D01*
X50948023Y40158605D01*
X50881310Y39997545D01*
X50864006Y39910553D01*
X39535000Y28581547D01*
X39535000Y28702002D01*
X39369916Y28702002D01*
X39491904Y28924039D01*
X39451246Y29058087D01*
X39331037Y29312420D01*
X39163519Y29538414D01*
X38955131Y29727385D01*
X38769135Y29838933D01*
X38779727Y29843320D01*
X39014759Y30000363D01*
X39214637Y30200241D01*
X39371680Y30435273D01*
X39479853Y30696426D01*
X39535000Y30973665D01*
X39535000Y31256335D01*
X39479853Y31533574D01*
X39371680Y31794727D01*
X39214637Y32029759D01*
X39014759Y32229637D01*
X38782241Y32385000D01*
X39014759Y32540363D01*
X39214637Y32740241D01*
X39371680Y32975273D01*
X39479853Y33236426D01*
X39535000Y33513665D01*
X39535000Y33796335D01*
X39479853Y34073574D01*
X39371680Y34334727D01*
X39214637Y34569759D01*
X39014759Y34769637D01*
X38782241Y34925000D01*
X39014759Y35080363D01*
X39214637Y35280241D01*
X39371680Y35515273D01*
X39479853Y35776426D01*
X39535000Y36053665D01*
X39535000Y36336335D01*
X39479853Y36613574D01*
X39371680Y36874727D01*
X39214637Y37109759D01*
X39014759Y37309637D01*
X38782241Y37465000D01*
X39014759Y37620363D01*
X39214637Y37820241D01*
X39371680Y38055273D01*
X39479853Y38316426D01*
X39535000Y38593665D01*
X39535000Y38876335D01*
X39479853Y39153574D01*
X39371680Y39414727D01*
X39214637Y39649759D01*
X39014759Y39849637D01*
X38782241Y40005000D01*
X39014759Y40160363D01*
X39214637Y40360241D01*
X39334748Y40540000D01*
X39564195Y40540000D01*
X39600300Y40536444D01*
X39636405Y40540000D01*
X39744385Y40550635D01*
X39882933Y40592663D01*
X40010620Y40660913D01*
X40122538Y40752762D01*
X40145558Y40780812D01*
X40895097Y41530350D01*
X40923137Y41553362D01*
X40946150Y41581403D01*
X40946153Y41581406D01*
X41014986Y41665279D01*
X41014987Y41665280D01*
X41083237Y41792967D01*
X41125265Y41931515D01*
X41135900Y42039495D01*
X41135900Y42039504D01*
X41139455Y42075599D01*
X41135900Y42111694D01*
X41135900Y48631306D01*
X41139455Y48667401D01*
X41135900Y48703496D01*
X41135900Y48703505D01*
X41125265Y48811485D01*
X41083237Y48950033D01*
X41014987Y49077720D01*
X40923138Y49189638D01*
X40895093Y49212654D01*
X39448558Y50659188D01*
X39425538Y50687238D01*
X39361394Y50739879D01*
X39371680Y50755273D01*
X39479853Y51016426D01*
X39535000Y51293665D01*
X39535000Y51576335D01*
X39479853Y51853574D01*
X39431628Y51970000D01*
X40196154Y51970000D01*
X48845346Y43320807D01*
G04 #@! TA.AperFunction,Conductor*
D23*
G36*
X48845346Y43320807D02*
G01*
X48868362Y43292762D01*
X48904393Y43263192D01*
X48980280Y43200913D01*
X49107966Y43132663D01*
X49246515Y43090635D01*
X49390600Y43076444D01*
X49426705Y43080000D01*
X52105252Y43080000D01*
X52225363Y42900241D01*
X52425241Y42700363D01*
X52660273Y42543320D01*
X52670865Y42538933D01*
X52484869Y42427385D01*
X52276481Y42238414D01*
X52108963Y42012420D01*
X51988754Y41758087D01*
X51948096Y41624039D01*
X52070085Y41402000D01*
X53213000Y41402000D01*
X53213000Y41422000D01*
X53467000Y41422000D01*
X53467000Y41402000D01*
X54609915Y41402000D01*
X54731904Y41624039D01*
X54691246Y41758087D01*
X54571037Y42012420D01*
X54403519Y42238414D01*
X54195131Y42427385D01*
X54009135Y42538933D01*
X54019727Y42543320D01*
X54254759Y42700363D01*
X54454637Y42900241D01*
X54611680Y43135273D01*
X54709419Y43371235D01*
X57606700Y40473953D01*
X57606701Y32718215D01*
X57603144Y32682100D01*
X57617335Y32538015D01*
X57647616Y32438195D01*
X57659364Y32399467D01*
X57727614Y32271780D01*
X57819463Y32159862D01*
X57847508Y32136846D01*
X59405106Y30579247D01*
X59422410Y30492255D01*
X59438007Y30454600D01*
X55615003Y30454600D01*
X55541405Y30503777D01*
X55380345Y30570490D01*
X55209365Y30604500D01*
X55035035Y30604500D01*
X54864055Y30570490D01*
X54702995Y30503777D01*
X54615969Y30445628D01*
X54719853Y30696426D01*
X54775000Y30973665D01*
X54775000Y31256335D01*
X54719853Y31533574D01*
X54611680Y31794727D01*
X54454637Y32029759D01*
X54254759Y32229637D01*
X54022241Y32385000D01*
X54254759Y32540363D01*
X54454637Y32740241D01*
X54611680Y32975273D01*
X54719853Y33236426D01*
X54775000Y33513665D01*
X54775000Y33796335D01*
X54719853Y34073574D01*
X54611680Y34334727D01*
X54454637Y34569759D01*
X54254759Y34769637D01*
X54022241Y34925000D01*
X54254759Y35080363D01*
X54454637Y35280241D01*
X54611680Y35515273D01*
X54719853Y35776426D01*
X54775000Y36053665D01*
X54775000Y36336335D01*
X54719853Y36613574D01*
X54611680Y36874727D01*
X54454637Y37109759D01*
X54254759Y37309637D01*
X54022241Y37465000D01*
X54254759Y37620363D01*
X54454637Y37820241D01*
X54611680Y38055273D01*
X54719853Y38316426D01*
X54775000Y38593665D01*
X54775000Y38876335D01*
X54719853Y39153574D01*
X54611680Y39414727D01*
X54454637Y39649759D01*
X54254759Y39849637D01*
X54019727Y40006680D01*
X54009135Y40011067D01*
X54195131Y40122615D01*
X54403519Y40311586D01*
X54571037Y40537580D01*
X54691246Y40791913D01*
X54731904Y40925961D01*
X54609915Y41148000D01*
X53467000Y41148000D01*
X53467000Y41128000D01*
X53213000Y41128000D01*
X53213000Y41148000D01*
X52070085Y41148000D01*
X51948096Y40925961D01*
X51988754Y40791913D01*
X52106778Y40542204D01*
X51990445Y40590390D01*
X51819465Y40624400D01*
X51645135Y40624400D01*
X51474155Y40590390D01*
X51313095Y40523677D01*
X51168145Y40426824D01*
X51044876Y40303555D01*
X50948023Y40158605D01*
X50881310Y39997545D01*
X50864006Y39910553D01*
X39535000Y28581547D01*
X39535000Y28702002D01*
X39369916Y28702002D01*
X39491904Y28924039D01*
X39451246Y29058087D01*
X39331037Y29312420D01*
X39163519Y29538414D01*
X38955131Y29727385D01*
X38769135Y29838933D01*
X38779727Y29843320D01*
X39014759Y30000363D01*
X39214637Y30200241D01*
X39371680Y30435273D01*
X39479853Y30696426D01*
X39535000Y30973665D01*
X39535000Y31256335D01*
X39479853Y31533574D01*
X39371680Y31794727D01*
X39214637Y32029759D01*
X39014759Y32229637D01*
X38782241Y32385000D01*
X39014759Y32540363D01*
X39214637Y32740241D01*
X39371680Y32975273D01*
X39479853Y33236426D01*
X39535000Y33513665D01*
X39535000Y33796335D01*
X39479853Y34073574D01*
X39371680Y34334727D01*
X39214637Y34569759D01*
X39014759Y34769637D01*
X38782241Y34925000D01*
X39014759Y35080363D01*
X39214637Y35280241D01*
X39371680Y35515273D01*
X39479853Y35776426D01*
X39535000Y36053665D01*
X39535000Y36336335D01*
X39479853Y36613574D01*
X39371680Y36874727D01*
X39214637Y37109759D01*
X39014759Y37309637D01*
X38782241Y37465000D01*
X39014759Y37620363D01*
X39214637Y37820241D01*
X39371680Y38055273D01*
X39479853Y38316426D01*
X39535000Y38593665D01*
X39535000Y38876335D01*
X39479853Y39153574D01*
X39371680Y39414727D01*
X39214637Y39649759D01*
X39014759Y39849637D01*
X38782241Y40005000D01*
X39014759Y40160363D01*
X39214637Y40360241D01*
X39334748Y40540000D01*
X39564195Y40540000D01*
X39600300Y40536444D01*
X39636405Y40540000D01*
X39744385Y40550635D01*
X39882933Y40592663D01*
X40010620Y40660913D01*
X40122538Y40752762D01*
X40145558Y40780812D01*
X40895097Y41530350D01*
X40923137Y41553362D01*
X40946150Y41581403D01*
X40946153Y41581406D01*
X41014986Y41665279D01*
X41014987Y41665280D01*
X41083237Y41792967D01*
X41125265Y41931515D01*
X41135900Y42039495D01*
X41135900Y42039504D01*
X41139455Y42075599D01*
X41135900Y42111694D01*
X41135900Y48631306D01*
X41139455Y48667401D01*
X41135900Y48703496D01*
X41135900Y48703505D01*
X41125265Y48811485D01*
X41083237Y48950033D01*
X41014987Y49077720D01*
X40923138Y49189638D01*
X40895093Y49212654D01*
X39448558Y50659188D01*
X39425538Y50687238D01*
X39361394Y50739879D01*
X39371680Y50755273D01*
X39479853Y51016426D01*
X39535000Y51293665D01*
X39535000Y51576335D01*
X39479853Y51853574D01*
X39431628Y51970000D01*
X40196154Y51970000D01*
X48845346Y43320807D01*
G37*
G04 #@! TD.AperFunction*
D22*
X5207000Y44317000D02*
X5227000Y44317000D01*
X5227000Y44063000D01*
X5207000Y44063000D01*
X5207000Y44043000D01*
X4953000Y44043000D01*
X4953000Y44063000D01*
X4933000Y44063000D01*
X4933000Y44317000D01*
X4953000Y44317000D01*
X4953000Y44337000D01*
X5207000Y44337000D01*
X5207000Y44317000D01*
G04 #@! TA.AperFunction,Conductor*
D23*
G36*
X5207000Y44317000D02*
G01*
X5227000Y44317000D01*
X5227000Y44063000D01*
X5207000Y44063000D01*
X5207000Y44043000D01*
X4953000Y44043000D01*
X4953000Y44063000D01*
X4933000Y44063000D01*
X4933000Y44317000D01*
X4953000Y44317000D01*
X4953000Y44337000D01*
X5207000Y44337000D01*
X5207000Y44317000D01*
G37*
G04 #@! TD.AperFunction*
M02*
