G04 #@! TF.GenerationSoftware,KiCad,Pcbnew,(5.1.9)-1*
G04 #@! TF.CreationDate,2022-07-14T08:18:56+09:00*
G04 #@! TF.ProjectId,MZ2000_SD,4d5a3230-3030-45f5-9344-2e6b69636164,rev?*
G04 #@! TF.SameCoordinates,PX53920b0PY93c3260*
G04 #@! TF.FileFunction,Soldermask,Top*
G04 #@! TF.FilePolarity,Negative*
%FSLAX46Y46*%
G04 Gerber Fmt 4.6, Leading zero omitted, Abs format (unit mm)*
G04 Created by KiCad (PCBNEW (5.1.9)-1) date 2022-07-14 08:18:56*
%MOMM*%
%LPD*%
G01*
G04 APERTURE LIST*
%ADD10C,1.600000*%
%ADD11R,1.600000X2.400000*%
%ADD12O,1.600000X2.400000*%
%ADD13C,3.200000*%
%ADD14R,1.700000X1.700000*%
%ADD15O,1.700000X1.700000*%
%ADD16R,1.600000X1.600000*%
%ADD17O,1.600000X1.600000*%
%ADD18R,2.400000X1.600000*%
%ADD19O,2.400000X1.600000*%
G04 APERTURE END LIST*
D10*
X33825000Y10230000D03*
X33825000Y12730000D03*
D11*
X86360000Y19685000D03*
D12*
X38100000Y4445000D03*
X83820000Y19685000D03*
X40640000Y4445000D03*
X81280000Y19685000D03*
X43180000Y4445000D03*
X78740000Y19685000D03*
X45720000Y4445000D03*
X76200000Y19685000D03*
X48260000Y4445000D03*
X73660000Y19685000D03*
X50800000Y4445000D03*
X71120000Y19685000D03*
X53340000Y4445000D03*
X68580000Y19685000D03*
X55880000Y4445000D03*
X66040000Y19685000D03*
X58420000Y4445000D03*
X63500000Y19685000D03*
X60960000Y4445000D03*
X60960000Y19685000D03*
X63500000Y4445000D03*
X58420000Y19685000D03*
X66040000Y4445000D03*
X55880000Y19685000D03*
X68580000Y4445000D03*
X53340000Y19685000D03*
X71120000Y4445000D03*
X50800000Y19685000D03*
X73660000Y4445000D03*
X48260000Y19685000D03*
X76200000Y4445000D03*
X45720000Y19685000D03*
X78740000Y4445000D03*
X43180000Y19685000D03*
X81280000Y4445000D03*
X40640000Y19685000D03*
X83820000Y4445000D03*
X38100000Y19685000D03*
X86360000Y4445000D03*
D13*
X5000000Y95000000D03*
X84000000Y95000000D03*
X95000000Y5000000D03*
X5000000Y5000000D03*
D14*
X69850000Y74930000D03*
D15*
X69850000Y72390000D03*
X69850000Y69850000D03*
X69850000Y67310000D03*
X69850000Y64770000D03*
X69850000Y62230000D03*
X69850000Y59690000D03*
X69850000Y57150000D03*
X69850000Y54610000D03*
X97790000Y54610000D03*
X95250000Y54610000D03*
X97790000Y74930000D03*
X95250000Y74930000D03*
D16*
X95885000Y44450000D03*
D17*
X93345000Y44450000D03*
X90805000Y44450000D03*
X67945000Y29210000D03*
X88265000Y44450000D03*
X70485000Y29210000D03*
X85725000Y44450000D03*
X73025000Y29210000D03*
X83185000Y44450000D03*
X75565000Y29210000D03*
X80645000Y44450000D03*
X78105000Y29210000D03*
X78105000Y44450000D03*
X80645000Y29210000D03*
X75565000Y44450000D03*
X83185000Y29210000D03*
X73025000Y44450000D03*
X85725000Y29210000D03*
X70485000Y44450000D03*
X88265000Y29210000D03*
X67945000Y44450000D03*
X90805000Y29210000D03*
X93345000Y29210000D03*
X95885000Y29210000D03*
X86995000Y31750000D03*
X84455000Y31750000D03*
X76835000Y31750000D03*
X74295000Y31750000D03*
D10*
X19090000Y97155000D03*
X21590000Y97155000D03*
X21590000Y67310000D03*
X19090000Y67310000D03*
X19090000Y36195000D03*
X21590000Y36195000D03*
X46990000Y64770000D03*
X44490000Y64770000D03*
X46990000Y97155000D03*
X44490000Y97155000D03*
D15*
X7620000Y21330000D03*
X5080000Y21330000D03*
X7620000Y23870000D03*
X5080000Y23870000D03*
X7620000Y26410000D03*
X5080000Y26410000D03*
X7620000Y28950000D03*
X5080000Y28950000D03*
X7620000Y31490000D03*
X5080000Y31490000D03*
X7620000Y34030000D03*
X5080000Y34030000D03*
X7620000Y36570000D03*
X5080000Y36570000D03*
X7620000Y39110000D03*
X5080000Y39110000D03*
X7620000Y41650000D03*
X5080000Y41650000D03*
X7620000Y44190000D03*
X5080000Y44190000D03*
X7620000Y46730000D03*
X5080000Y46730000D03*
X7620000Y49270000D03*
X5080000Y49270000D03*
X7620000Y51810000D03*
X5080000Y51810000D03*
X7620000Y54350000D03*
X5080000Y54350000D03*
X7620000Y56890000D03*
X5080000Y56890000D03*
X7620000Y59430000D03*
X5080000Y59430000D03*
X7620000Y61970000D03*
X5080000Y61970000D03*
X7620000Y64510000D03*
X5080000Y64510000D03*
X7620000Y67050000D03*
X5080000Y67050000D03*
X7620000Y69590000D03*
X5080000Y69590000D03*
X7620000Y72130000D03*
X5080000Y72130000D03*
X7620000Y74670000D03*
D14*
X5080000Y74670000D03*
D18*
X16510000Y93980000D03*
D19*
X24130000Y71120000D03*
X16510000Y91440000D03*
X24130000Y73660000D03*
X16510000Y88900000D03*
X24130000Y76200000D03*
X16510000Y86360000D03*
X24130000Y78740000D03*
X16510000Y83820000D03*
X24130000Y81280000D03*
X16510000Y81280000D03*
X24130000Y83820000D03*
X16510000Y78740000D03*
X24130000Y86360000D03*
X16510000Y76200000D03*
X24130000Y88900000D03*
X16510000Y73660000D03*
X24130000Y91440000D03*
X16510000Y71120000D03*
X24130000Y93980000D03*
X24130000Y64135000D03*
X16510000Y41275000D03*
X24130000Y61595000D03*
X16510000Y43815000D03*
X24130000Y59055000D03*
X16510000Y46355000D03*
X24130000Y56515000D03*
X16510000Y48895000D03*
X24130000Y53975000D03*
X16510000Y51435000D03*
X24130000Y51435000D03*
X16510000Y53975000D03*
X24130000Y48895000D03*
X16510000Y56515000D03*
X24130000Y46355000D03*
X16510000Y59055000D03*
X24130000Y43815000D03*
X16510000Y61595000D03*
X24130000Y41275000D03*
D18*
X16510000Y64135000D03*
X16510000Y33020000D03*
D19*
X24130000Y5080000D03*
X16510000Y30480000D03*
X24130000Y7620000D03*
X16510000Y27940000D03*
X24130000Y10160000D03*
X16510000Y25400000D03*
X24130000Y12700000D03*
X16510000Y22860000D03*
X24130000Y15240000D03*
X16510000Y20320000D03*
X24130000Y17780000D03*
X16510000Y17780000D03*
X24130000Y20320000D03*
X16510000Y15240000D03*
X24130000Y22860000D03*
X16510000Y12700000D03*
X24130000Y25400000D03*
X16510000Y10160000D03*
X24130000Y27940000D03*
X16510000Y7620000D03*
X24130000Y30480000D03*
X16510000Y5080000D03*
X24130000Y33020000D03*
D18*
X41910000Y93980000D03*
D19*
X49530000Y71120000D03*
X41910000Y91440000D03*
X49530000Y73660000D03*
X41910000Y88900000D03*
X49530000Y76200000D03*
X41910000Y86360000D03*
X49530000Y78740000D03*
X41910000Y83820000D03*
X49530000Y81280000D03*
X41910000Y81280000D03*
X49530000Y83820000D03*
X41910000Y78740000D03*
X49530000Y86360000D03*
X41910000Y76200000D03*
X49530000Y88900000D03*
X41910000Y73660000D03*
X49530000Y91440000D03*
X41910000Y71120000D03*
X49530000Y93980000D03*
D16*
X7620000Y84455000D03*
D10*
X7620000Y86955000D03*
D14*
X66675000Y96520000D03*
D15*
X64135000Y96520000D03*
X61595000Y96520000D03*
D16*
X38100000Y61595000D03*
D17*
X53340000Y28575000D03*
X38100000Y59055000D03*
X53340000Y31115000D03*
X38100000Y56515000D03*
X53340000Y33655000D03*
X38100000Y53975000D03*
X53340000Y36195000D03*
X38100000Y51435000D03*
X53340000Y38735000D03*
X38100000Y48895000D03*
X53340000Y41275000D03*
X38100000Y46355000D03*
X53340000Y43815000D03*
X38100000Y43815000D03*
X53340000Y46355000D03*
X38100000Y41275000D03*
X53340000Y48895000D03*
X38100000Y38735000D03*
X53340000Y51435000D03*
X38100000Y36195000D03*
X53340000Y53975000D03*
X38100000Y33655000D03*
X53340000Y56515000D03*
X38100000Y31115000D03*
X53340000Y59055000D03*
X38100000Y28575000D03*
X53340000Y61595000D03*
D14*
X61595000Y71120000D03*
D15*
X61595000Y68580000D03*
X61595000Y66040000D03*
X61595000Y63500000D03*
X61595000Y60960000D03*
X61595000Y58420000D03*
M02*
