M48
; DRILL file {KiCad (5.1.9)-1} date 05/27/22 10:18:47
; FORMAT={-:-/ absolute / metric / decimal}
; #@! TF.CreationDate,2022-05-27T10:18:47+09:00
; #@! TF.GenerationSoftware,Kicad,Pcbnew,(5.1.9)-1
FMAT,2
METRIC
T1C0.300
T2C0.800
T3C1.000
T4C3.200
%
G90
G05
T1
X9.352Y31.107
X19.792Y56.325
X20.05Y32.857
X20.822Y64.739
X22.076Y8.755
X27.526Y48.751
X28.287Y56.917
X35.189Y10.976
X40.986Y61.965
X41.898Y62.6
X42.419Y61.389
X44.204Y14.873
X48.395Y12.385
X51.732Y39.739
X51.84Y67.494
X51.858Y27.455
X55.122Y29.72
X59.737Y33.233
X60.273Y30.75
X61.22Y33.896
X61.595Y77.47
X61.595Y63.5
X63.917Y37.922
X68.0Y17.363
T2
X7.62Y86.955
X7.62Y84.455
X16.51Y93.98
X16.51Y91.44
X16.51Y88.9
X16.51Y86.36
X16.51Y83.82
X16.51Y81.28
X16.51Y78.74
X16.51Y76.2
X16.51Y73.66
X16.51Y71.12
X16.51Y64.135
X16.51Y61.595
X16.51Y59.055
X16.51Y56.515
X16.51Y53.975
X16.51Y51.435
X16.51Y48.895
X16.51Y46.355
X16.51Y43.815
X16.51Y41.275
X16.51Y33.02
X16.51Y30.48
X16.51Y27.94
X16.51Y25.4
X16.51Y22.86
X16.51Y20.32
X16.51Y17.78
X16.51Y15.24
X16.51Y12.7
X16.51Y10.16
X16.51Y7.62
X16.51Y5.08
X19.09Y97.155
X19.09Y67.31
X19.09Y36.195
X21.59Y97.155
X21.59Y67.31
X21.59Y36.195
X24.13Y93.98
X24.13Y91.44
X24.13Y88.9
X24.13Y86.36
X24.13Y83.82
X24.13Y81.28
X24.13Y78.74
X24.13Y76.2
X24.13Y73.66
X24.13Y71.12
X24.13Y64.135
X24.13Y61.595
X24.13Y59.055
X24.13Y56.515
X24.13Y53.975
X24.13Y51.435
X24.13Y48.895
X24.13Y46.355
X24.13Y43.815
X24.13Y41.275
X24.13Y33.02
X24.13Y30.48
X24.13Y27.94
X24.13Y25.4
X24.13Y22.86
X24.13Y20.32
X24.13Y17.78
X24.13Y15.24
X24.13Y12.7
X24.13Y10.16
X24.13Y7.62
X24.13Y5.08
X33.825Y12.73
X33.825Y10.23
X38.1Y61.595
X38.1Y59.055
X38.1Y56.515
X38.1Y53.975
X38.1Y51.435
X38.1Y48.895
X38.1Y46.355
X38.1Y43.815
X38.1Y41.275
X38.1Y38.735
X38.1Y36.195
X38.1Y33.655
X38.1Y31.115
X38.1Y28.575
X38.1Y19.685
X38.1Y4.445
X40.64Y19.685
X40.64Y4.445
X41.91Y93.98
X41.91Y91.44
X41.91Y88.9
X41.91Y86.36
X41.91Y83.82
X41.91Y81.28
X41.91Y78.74
X41.91Y76.2
X41.91Y73.66
X41.91Y71.12
X43.18Y19.685
X43.18Y4.445
X44.49Y97.155
X44.49Y64.77
X45.72Y19.685
X45.72Y4.445
X46.99Y97.155
X46.99Y64.77
X48.26Y19.685
X48.26Y4.445
X49.53Y93.98
X49.53Y91.44
X49.53Y88.9
X49.53Y86.36
X49.53Y83.82
X49.53Y81.28
X49.53Y78.74
X49.53Y76.2
X49.53Y73.66
X49.53Y71.12
X50.8Y19.685
X50.8Y4.445
X53.34Y61.595
X53.34Y59.055
X53.34Y56.515
X53.34Y53.975
X53.34Y51.435
X53.34Y48.895
X53.34Y46.355
X53.34Y43.815
X53.34Y41.275
X53.34Y38.735
X53.34Y36.195
X53.34Y33.655
X53.34Y31.115
X53.34Y28.575
X53.34Y19.685
X53.34Y4.445
X55.88Y19.685
X55.88Y4.445
X58.42Y19.685
X58.42Y4.445
X60.96Y19.685
X60.96Y4.445
X63.5Y19.685
X63.5Y4.445
X66.04Y19.685
X66.04Y4.445
X67.945Y44.45
X67.945Y29.21
X68.58Y19.685
X68.58Y4.445
X70.485Y44.45
X70.485Y29.21
X71.12Y19.685
X71.12Y4.445
X73.025Y44.45
X73.025Y29.21
X73.66Y19.685
X73.66Y4.445
X74.295Y31.75
X75.565Y44.45
X75.565Y29.21
X76.2Y19.685
X76.2Y4.445
X76.835Y31.75
X78.105Y44.45
X78.105Y29.21
X78.74Y19.685
X78.74Y4.445
X80.645Y44.45
X80.645Y29.21
X81.28Y19.685
X81.28Y4.445
X83.185Y44.45
X83.185Y29.21
X83.82Y19.685
X83.82Y4.445
X84.455Y31.75
X85.725Y44.45
X85.725Y29.21
X86.36Y19.685
X86.36Y4.445
X86.995Y31.75
X88.265Y44.45
X88.265Y29.21
X90.805Y44.45
X90.805Y29.21
X93.345Y44.45
X93.345Y29.21
X95.885Y44.45
X95.885Y29.21
T3
X5.08Y74.67
X5.08Y72.13
X5.08Y69.59
X5.08Y67.05
X5.08Y64.51
X5.08Y61.97
X5.08Y59.43
X5.08Y56.89
X5.08Y54.35
X5.08Y51.81
X5.08Y49.27
X5.08Y46.73
X5.08Y44.19
X5.08Y41.65
X5.08Y39.11
X5.08Y36.57
X5.08Y34.03
X5.08Y31.49
X5.08Y28.95
X5.08Y26.41
X5.08Y23.87
X5.08Y21.33
X7.62Y74.67
X7.62Y72.13
X7.62Y69.59
X7.62Y67.05
X7.62Y64.51
X7.62Y61.97
X7.62Y59.43
X7.62Y56.89
X7.62Y54.35
X7.62Y51.81
X7.62Y49.27
X7.62Y46.73
X7.62Y44.19
X7.62Y41.65
X7.62Y39.11
X7.62Y36.57
X7.62Y34.03
X7.62Y31.49
X7.62Y28.95
X7.62Y26.41
X7.62Y23.87
X7.62Y21.33
X61.595Y96.52
X64.135Y96.52
X66.675Y96.52
X69.85Y74.93
X69.85Y72.39
X69.85Y69.85
X69.85Y67.31
X69.85Y64.77
X69.85Y62.23
X69.85Y59.69
X69.85Y57.15
X69.85Y54.61
X95.25Y74.93
X95.25Y54.61
X97.79Y74.93
X97.79Y54.61
T4
X5.0Y95.0
X5.0Y5.0
X84.0Y95.0
X95.0Y5.0
T0
M30
