G04 #@! TF.GenerationSoftware,KiCad,Pcbnew,(5.1.9)-1*
G04 #@! TF.CreationDate,2022-07-14T08:18:56+09:00*
G04 #@! TF.ProjectId,MZ2000_SD,4d5a3230-3030-45f5-9344-2e6b69636164,rev?*
G04 #@! TF.SameCoordinates,PX53920b0PY93c3260*
G04 #@! TF.FileFunction,Legend,Top*
G04 #@! TF.FilePolarity,Positive*
%FSLAX46Y46*%
G04 Gerber Fmt 4.6, Leading zero omitted, Abs format (unit mm)*
G04 Created by KiCad (PCBNEW (5.1.9)-1) date 2022-07-14 08:18:56*
%MOMM*%
%LPD*%
G01*
G04 APERTURE LIST*
%ADD10C,0.150000*%
%ADD11C,0.300000*%
%ADD12C,0.120000*%
G04 APERTURE END LIST*
D10*
X64968380Y56428691D02*
X63968380Y56428691D01*
X64682666Y56762024D01*
X63968380Y57095358D01*
X64968380Y57095358D01*
X64968380Y57571548D02*
X64301714Y57571548D01*
X63968380Y57571548D02*
X64016000Y57523929D01*
X64063619Y57571548D01*
X64016000Y57619167D01*
X63968380Y57571548D01*
X64063619Y57571548D01*
X64920761Y58476310D02*
X64968380Y58381072D01*
X64968380Y58190596D01*
X64920761Y58095358D01*
X64873142Y58047739D01*
X64777904Y58000120D01*
X64492190Y58000120D01*
X64396952Y58047739D01*
X64349333Y58095358D01*
X64301714Y58190596D01*
X64301714Y58381072D01*
X64349333Y58476310D01*
X64968380Y58904881D02*
X64301714Y58904881D01*
X64492190Y58904881D02*
X64396952Y58952500D01*
X64349333Y59000120D01*
X64301714Y59095358D01*
X64301714Y59190596D01*
X64968380Y59666786D02*
X64920761Y59571548D01*
X64873142Y59523929D01*
X64777904Y59476310D01*
X64492190Y59476310D01*
X64396952Y59523929D01*
X64349333Y59571548D01*
X64301714Y59666786D01*
X64301714Y59809643D01*
X64349333Y59904881D01*
X64396952Y59952500D01*
X64492190Y60000120D01*
X64777904Y60000120D01*
X64873142Y59952500D01*
X64920761Y59904881D01*
X64968380Y59809643D01*
X64968380Y59666786D01*
X64920761Y60381072D02*
X64968380Y60523929D01*
X64968380Y60762024D01*
X64920761Y60857262D01*
X64873142Y60904881D01*
X64777904Y60952500D01*
X64682666Y60952500D01*
X64587428Y60904881D01*
X64539809Y60857262D01*
X64492190Y60762024D01*
X64444571Y60571548D01*
X64396952Y60476310D01*
X64349333Y60428691D01*
X64254095Y60381072D01*
X64158857Y60381072D01*
X64063619Y60428691D01*
X64016000Y60476310D01*
X63968380Y60571548D01*
X63968380Y60809643D01*
X64016000Y60952500D01*
X64968380Y61381072D02*
X63968380Y61381072D01*
X63968380Y61619167D01*
X64016000Y61762024D01*
X64111238Y61857262D01*
X64206476Y61904881D01*
X64396952Y61952500D01*
X64539809Y61952500D01*
X64730285Y61904881D01*
X64825523Y61857262D01*
X64920761Y61762024D01*
X64968380Y61619167D01*
X64968380Y61381072D01*
X64873142Y63714405D02*
X64920761Y63666786D01*
X64968380Y63523929D01*
X64968380Y63428691D01*
X64920761Y63285834D01*
X64825523Y63190596D01*
X64730285Y63142977D01*
X64539809Y63095358D01*
X64396952Y63095358D01*
X64206476Y63142977D01*
X64111238Y63190596D01*
X64016000Y63285834D01*
X63968380Y63428691D01*
X63968380Y63523929D01*
X64016000Y63666786D01*
X64063619Y63714405D01*
X64968380Y64571548D02*
X64444571Y64571548D01*
X64349333Y64523929D01*
X64301714Y64428691D01*
X64301714Y64238215D01*
X64349333Y64142977D01*
X64920761Y64571548D02*
X64968380Y64476310D01*
X64968380Y64238215D01*
X64920761Y64142977D01*
X64825523Y64095358D01*
X64730285Y64095358D01*
X64635047Y64142977D01*
X64587428Y64238215D01*
X64587428Y64476310D01*
X64539809Y64571548D01*
X64968380Y65047739D02*
X64301714Y65047739D01*
X64492190Y65047739D02*
X64396952Y65095358D01*
X64349333Y65142977D01*
X64301714Y65238215D01*
X64301714Y65333453D01*
X64968380Y66095358D02*
X63968380Y66095358D01*
X64920761Y66095358D02*
X64968380Y66000120D01*
X64968380Y65809643D01*
X64920761Y65714405D01*
X64873142Y65666786D01*
X64777904Y65619167D01*
X64492190Y65619167D01*
X64396952Y65666786D01*
X64349333Y65714405D01*
X64301714Y65809643D01*
X64301714Y66000120D01*
X64349333Y66095358D01*
X64682666Y67285834D02*
X64682666Y67762024D01*
X64968380Y67190596D02*
X63968380Y67523929D01*
X64968380Y67857262D01*
X64968380Y68619167D02*
X63968380Y68619167D01*
X64920761Y68619167D02*
X64968380Y68523929D01*
X64968380Y68333453D01*
X64920761Y68238215D01*
X64873142Y68190596D01*
X64777904Y68142977D01*
X64492190Y68142977D01*
X64396952Y68190596D01*
X64349333Y68238215D01*
X64301714Y68333453D01*
X64301714Y68523929D01*
X64349333Y68619167D01*
X64968380Y69523929D02*
X64444571Y69523929D01*
X64349333Y69476310D01*
X64301714Y69381072D01*
X64301714Y69190596D01*
X64349333Y69095358D01*
X64920761Y69523929D02*
X64968380Y69428691D01*
X64968380Y69190596D01*
X64920761Y69095358D01*
X64825523Y69047739D01*
X64730285Y69047739D01*
X64635047Y69095358D01*
X64587428Y69190596D01*
X64587428Y69428691D01*
X64539809Y69523929D01*
X64301714Y70000120D02*
X65301714Y70000120D01*
X64349333Y70000120D02*
X64301714Y70095358D01*
X64301714Y70285834D01*
X64349333Y70381072D01*
X64396952Y70428691D01*
X64492190Y70476310D01*
X64777904Y70476310D01*
X64873142Y70428691D01*
X64920761Y70381072D01*
X64968380Y70285834D01*
X64968380Y70095358D01*
X64920761Y70000120D01*
X64301714Y70762024D02*
X64301714Y71142977D01*
X63968380Y70904881D02*
X64825523Y70904881D01*
X64920761Y70952500D01*
X64968380Y71047739D01*
X64968380Y71142977D01*
X64920761Y71857262D02*
X64968380Y71762024D01*
X64968380Y71571548D01*
X64920761Y71476310D01*
X64825523Y71428691D01*
X64444571Y71428691D01*
X64349333Y71476310D01*
X64301714Y71571548D01*
X64301714Y71762024D01*
X64349333Y71857262D01*
X64444571Y71904881D01*
X64539809Y71904881D01*
X64635047Y71428691D01*
X64968380Y72333453D02*
X64301714Y72333453D01*
X64492190Y72333453D02*
X64396952Y72381072D01*
X64349333Y72428691D01*
X64301714Y72523929D01*
X64301714Y72619167D01*
X58697833Y58062858D02*
X58650214Y58015239D01*
X58507357Y57967620D01*
X58412119Y57967620D01*
X58269261Y58015239D01*
X58174023Y58110477D01*
X58126404Y58205715D01*
X58078785Y58396191D01*
X58078785Y58539048D01*
X58126404Y58729524D01*
X58174023Y58824762D01*
X58269261Y58920000D01*
X58412119Y58967620D01*
X58507357Y58967620D01*
X58650214Y58920000D01*
X58697833Y58872381D01*
X59078785Y58015239D02*
X59221642Y57967620D01*
X59459738Y57967620D01*
X59554976Y58015239D01*
X59602595Y58062858D01*
X59650214Y58158096D01*
X59650214Y58253334D01*
X59602595Y58348572D01*
X59554976Y58396191D01*
X59459738Y58443810D01*
X59269261Y58491429D01*
X59174023Y58539048D01*
X59126404Y58586667D01*
X59078785Y58681905D01*
X59078785Y58777143D01*
X59126404Y58872381D01*
X59174023Y58920000D01*
X59269261Y58967620D01*
X59507357Y58967620D01*
X59650214Y58920000D01*
X57197785Y60555239D02*
X57340642Y60507620D01*
X57578738Y60507620D01*
X57673976Y60555239D01*
X57721595Y60602858D01*
X57769214Y60698096D01*
X57769214Y60793334D01*
X57721595Y60888572D01*
X57673976Y60936191D01*
X57578738Y60983810D01*
X57388261Y61031429D01*
X57293023Y61079048D01*
X57245404Y61126667D01*
X57197785Y61221905D01*
X57197785Y61317143D01*
X57245404Y61412381D01*
X57293023Y61460000D01*
X57388261Y61507620D01*
X57626357Y61507620D01*
X57769214Y61460000D01*
X58769214Y60602858D02*
X58721595Y60555239D01*
X58578738Y60507620D01*
X58483500Y60507620D01*
X58340642Y60555239D01*
X58245404Y60650477D01*
X58197785Y60745715D01*
X58150166Y60936191D01*
X58150166Y61079048D01*
X58197785Y61269524D01*
X58245404Y61364762D01*
X58340642Y61460000D01*
X58483500Y61507620D01*
X58578738Y61507620D01*
X58721595Y61460000D01*
X58769214Y61412381D01*
X59197785Y60507620D02*
X59197785Y61507620D01*
X59769214Y60507620D02*
X59340642Y61079048D01*
X59769214Y61507620D02*
X59197785Y60936191D01*
X56594571Y63111120D02*
X56594571Y64111120D01*
X56927904Y63396834D01*
X57261238Y64111120D01*
X57261238Y63111120D01*
X57927904Y64111120D02*
X58118380Y64111120D01*
X58213619Y64063500D01*
X58308857Y63968262D01*
X58356476Y63777786D01*
X58356476Y63444453D01*
X58308857Y63253977D01*
X58213619Y63158739D01*
X58118380Y63111120D01*
X57927904Y63111120D01*
X57832666Y63158739D01*
X57737428Y63253977D01*
X57689809Y63444453D01*
X57689809Y63777786D01*
X57737428Y63968262D01*
X57832666Y64063500D01*
X57927904Y64111120D01*
X58737428Y63158739D02*
X58880285Y63111120D01*
X59118380Y63111120D01*
X59213619Y63158739D01*
X59261238Y63206358D01*
X59308857Y63301596D01*
X59308857Y63396834D01*
X59261238Y63492072D01*
X59213619Y63539691D01*
X59118380Y63587310D01*
X58927904Y63634929D01*
X58832666Y63682548D01*
X58785047Y63730167D01*
X58737428Y63825405D01*
X58737428Y63920643D01*
X58785047Y64015881D01*
X58832666Y64063500D01*
X58927904Y64111120D01*
X59166000Y64111120D01*
X59308857Y64063500D01*
X59737428Y63111120D02*
X59737428Y64111120D01*
X56594571Y65524120D02*
X56594571Y66524120D01*
X56927904Y65809834D01*
X57261238Y66524120D01*
X57261238Y65524120D01*
X57737428Y65524120D02*
X57737428Y66524120D01*
X58166000Y65571739D02*
X58308857Y65524120D01*
X58546952Y65524120D01*
X58642190Y65571739D01*
X58689809Y65619358D01*
X58737428Y65714596D01*
X58737428Y65809834D01*
X58689809Y65905072D01*
X58642190Y65952691D01*
X58546952Y66000310D01*
X58356476Y66047929D01*
X58261238Y66095548D01*
X58213619Y66143167D01*
X58166000Y66238405D01*
X58166000Y66333643D01*
X58213619Y66428881D01*
X58261238Y66476500D01*
X58356476Y66524120D01*
X58594571Y66524120D01*
X58737428Y66476500D01*
X59356476Y66524120D02*
X59546952Y66524120D01*
X59642190Y66476500D01*
X59737428Y66381262D01*
X59785047Y66190786D01*
X59785047Y65857453D01*
X59737428Y65666977D01*
X59642190Y65571739D01*
X59546952Y65524120D01*
X59356476Y65524120D01*
X59261238Y65571739D01*
X59166000Y65666977D01*
X59118380Y65857453D01*
X59118380Y66190786D01*
X59166000Y66381262D01*
X59261238Y66476500D01*
X59356476Y66524120D01*
X57070785Y68508572D02*
X57832690Y68508572D01*
X57451738Y68127620D02*
X57451738Y68889524D01*
X58785071Y69127620D02*
X58308880Y69127620D01*
X58261261Y68651429D01*
X58308880Y68699048D01*
X58404119Y68746667D01*
X58642214Y68746667D01*
X58737452Y68699048D01*
X58785071Y68651429D01*
X58832690Y68556191D01*
X58832690Y68318096D01*
X58785071Y68222858D01*
X58737452Y68175239D01*
X58642214Y68127620D01*
X58404119Y68127620D01*
X58308880Y68175239D01*
X58261261Y68222858D01*
X59118404Y69127620D02*
X59451738Y68127620D01*
X59785071Y69127620D01*
X57658095Y71620000D02*
X57562857Y71667620D01*
X57420000Y71667620D01*
X57277142Y71620000D01*
X57181904Y71524762D01*
X57134285Y71429524D01*
X57086666Y71239048D01*
X57086666Y71096191D01*
X57134285Y70905715D01*
X57181904Y70810477D01*
X57277142Y70715239D01*
X57420000Y70667620D01*
X57515238Y70667620D01*
X57658095Y70715239D01*
X57705714Y70762858D01*
X57705714Y71096191D01*
X57515238Y71096191D01*
X58134285Y70667620D02*
X58134285Y71667620D01*
X58705714Y70667620D01*
X58705714Y71667620D01*
X59181904Y70667620D02*
X59181904Y71667620D01*
X59420000Y71667620D01*
X59562857Y71620000D01*
X59658095Y71524762D01*
X59705714Y71429524D01*
X59753333Y71239048D01*
X59753333Y71096191D01*
X59705714Y70905715D01*
X59658095Y70810477D01*
X59562857Y70715239D01*
X59420000Y70667620D01*
X59181904Y70667620D01*
X71802785Y74922072D02*
X72564690Y74922072D01*
X72183738Y74541120D02*
X72183738Y75303024D01*
X73517071Y75541120D02*
X73040880Y75541120D01*
X72993261Y75064929D01*
X73040880Y75112548D01*
X73136119Y75160167D01*
X73374214Y75160167D01*
X73469452Y75112548D01*
X73517071Y75064929D01*
X73564690Y74969691D01*
X73564690Y74731596D01*
X73517071Y74636358D01*
X73469452Y74588739D01*
X73374214Y74541120D01*
X73136119Y74541120D01*
X73040880Y74588739D01*
X72993261Y74636358D01*
X73850404Y75541120D02*
X74183738Y74541120D01*
X74517071Y75541120D01*
X72413833Y56792858D02*
X72366214Y56745239D01*
X72223357Y56697620D01*
X72128119Y56697620D01*
X71985261Y56745239D01*
X71890023Y56840477D01*
X71842404Y56935715D01*
X71794785Y57126191D01*
X71794785Y57269048D01*
X71842404Y57459524D01*
X71890023Y57554762D01*
X71985261Y57650000D01*
X72128119Y57697620D01*
X72223357Y57697620D01*
X72366214Y57650000D01*
X72413833Y57602381D01*
X72794785Y56745239D02*
X72937642Y56697620D01*
X73175738Y56697620D01*
X73270976Y56745239D01*
X73318595Y56792858D01*
X73366214Y56888096D01*
X73366214Y56983334D01*
X73318595Y57078572D01*
X73270976Y57126191D01*
X73175738Y57173810D01*
X72985261Y57221429D01*
X72890023Y57269048D01*
X72842404Y57316667D01*
X72794785Y57411905D01*
X72794785Y57507143D01*
X72842404Y57602381D01*
X72890023Y57650000D01*
X72985261Y57697620D01*
X73223357Y57697620D01*
X73366214Y57650000D01*
X71771071Y59237620D02*
X71771071Y60237620D01*
X72104404Y59523334D01*
X72437738Y60237620D01*
X72437738Y59237620D01*
X73104404Y60237620D02*
X73294880Y60237620D01*
X73390119Y60190000D01*
X73485357Y60094762D01*
X73532976Y59904286D01*
X73532976Y59570953D01*
X73485357Y59380477D01*
X73390119Y59285239D01*
X73294880Y59237620D01*
X73104404Y59237620D01*
X73009166Y59285239D01*
X72913928Y59380477D01*
X72866309Y59570953D01*
X72866309Y59904286D01*
X72913928Y60094762D01*
X73009166Y60190000D01*
X73104404Y60237620D01*
X73913928Y59285239D02*
X74056785Y59237620D01*
X74294880Y59237620D01*
X74390119Y59285239D01*
X74437738Y59332858D01*
X74485357Y59428096D01*
X74485357Y59523334D01*
X74437738Y59618572D01*
X74390119Y59666191D01*
X74294880Y59713810D01*
X74104404Y59761429D01*
X74009166Y59809048D01*
X73961547Y59856667D01*
X73913928Y59951905D01*
X73913928Y60047143D01*
X73961547Y60142381D01*
X74009166Y60190000D01*
X74104404Y60237620D01*
X74342500Y60237620D01*
X74485357Y60190000D01*
X74913928Y59237620D02*
X74913928Y60237620D01*
X71707571Y61777620D02*
X71707571Y62777620D01*
X72040904Y62063334D01*
X72374238Y62777620D01*
X72374238Y61777620D01*
X72850428Y61777620D02*
X72850428Y62777620D01*
X73279000Y61825239D02*
X73421857Y61777620D01*
X73659952Y61777620D01*
X73755190Y61825239D01*
X73802809Y61872858D01*
X73850428Y61968096D01*
X73850428Y62063334D01*
X73802809Y62158572D01*
X73755190Y62206191D01*
X73659952Y62253810D01*
X73469476Y62301429D01*
X73374238Y62349048D01*
X73326619Y62396667D01*
X73279000Y62491905D01*
X73279000Y62587143D01*
X73326619Y62682381D01*
X73374238Y62730000D01*
X73469476Y62777620D01*
X73707571Y62777620D01*
X73850428Y62730000D01*
X74469476Y62777620D02*
X74659952Y62777620D01*
X74755190Y62730000D01*
X74850428Y62634762D01*
X74898047Y62444286D01*
X74898047Y62110953D01*
X74850428Y61920477D01*
X74755190Y61825239D01*
X74659952Y61777620D01*
X74469476Y61777620D01*
X74374238Y61825239D01*
X74279000Y61920477D01*
X74231380Y62110953D01*
X74231380Y62444286D01*
X74279000Y62634762D01*
X74374238Y62730000D01*
X74469476Y62777620D01*
X71739285Y64365239D02*
X71882142Y64317620D01*
X72120238Y64317620D01*
X72215476Y64365239D01*
X72263095Y64412858D01*
X72310714Y64508096D01*
X72310714Y64603334D01*
X72263095Y64698572D01*
X72215476Y64746191D01*
X72120238Y64793810D01*
X71929761Y64841429D01*
X71834523Y64889048D01*
X71786904Y64936667D01*
X71739285Y65031905D01*
X71739285Y65127143D01*
X71786904Y65222381D01*
X71834523Y65270000D01*
X71929761Y65317620D01*
X72167857Y65317620D01*
X72310714Y65270000D01*
X73310714Y64412858D02*
X73263095Y64365239D01*
X73120238Y64317620D01*
X73025000Y64317620D01*
X72882142Y64365239D01*
X72786904Y64460477D01*
X72739285Y64555715D01*
X72691666Y64746191D01*
X72691666Y64889048D01*
X72739285Y65079524D01*
X72786904Y65174762D01*
X72882142Y65270000D01*
X73025000Y65317620D01*
X73120238Y65317620D01*
X73263095Y65270000D01*
X73310714Y65222381D01*
X73739285Y64317620D02*
X73739285Y65317620D01*
X74310714Y64317620D02*
X73882142Y64889048D01*
X74310714Y65317620D02*
X73739285Y64746191D01*
X72263095Y67810000D02*
X72167857Y67857620D01*
X72025000Y67857620D01*
X71882142Y67810000D01*
X71786904Y67714762D01*
X71739285Y67619524D01*
X71691666Y67429048D01*
X71691666Y67286191D01*
X71739285Y67095715D01*
X71786904Y67000477D01*
X71882142Y66905239D01*
X72025000Y66857620D01*
X72120238Y66857620D01*
X72263095Y66905239D01*
X72310714Y66952858D01*
X72310714Y67286191D01*
X72120238Y67286191D01*
X72739285Y66857620D02*
X72739285Y67857620D01*
X73310714Y66857620D01*
X73310714Y67857620D01*
X73786904Y66857620D02*
X73786904Y67857620D01*
X74025000Y67857620D01*
X74167857Y67810000D01*
X74263095Y67714762D01*
X74310714Y67619524D01*
X74358333Y67429048D01*
X74358333Y67286191D01*
X74310714Y67095715D01*
X74263095Y67000477D01*
X74167857Y66905239D01*
X74025000Y66857620D01*
X73786904Y66857620D01*
X80225238Y38568334D02*
X80701428Y38568334D01*
X80130000Y38282620D02*
X80463333Y39282620D01*
X80796666Y38282620D01*
X81130000Y38282620D02*
X81130000Y38949286D01*
X81130000Y38758810D02*
X81177619Y38854048D01*
X81225238Y38901667D01*
X81320476Y38949286D01*
X81415714Y38949286D01*
X82177619Y38282620D02*
X82177619Y39282620D01*
X82177619Y38330239D02*
X82082380Y38282620D01*
X81891904Y38282620D01*
X81796666Y38330239D01*
X81749047Y38377858D01*
X81701428Y38473096D01*
X81701428Y38758810D01*
X81749047Y38854048D01*
X81796666Y38901667D01*
X81891904Y38949286D01*
X82082380Y38949286D01*
X82177619Y38901667D01*
X83082380Y38949286D02*
X83082380Y38282620D01*
X82653809Y38949286D02*
X82653809Y38425477D01*
X82701428Y38330239D01*
X82796666Y38282620D01*
X82939523Y38282620D01*
X83034761Y38330239D01*
X83082380Y38377858D01*
X83558571Y38282620D02*
X83558571Y38949286D01*
X83558571Y39282620D02*
X83510952Y39235000D01*
X83558571Y39187381D01*
X83606190Y39235000D01*
X83558571Y39282620D01*
X83558571Y39187381D01*
X84034761Y38949286D02*
X84034761Y38282620D01*
X84034761Y38854048D02*
X84082380Y38901667D01*
X84177619Y38949286D01*
X84320476Y38949286D01*
X84415714Y38901667D01*
X84463333Y38806429D01*
X84463333Y38282620D01*
X85082380Y38282620D02*
X84987142Y38330239D01*
X84939523Y38377858D01*
X84891904Y38473096D01*
X84891904Y38758810D01*
X84939523Y38854048D01*
X84987142Y38901667D01*
X85082380Y38949286D01*
X85225238Y38949286D01*
X85320476Y38901667D01*
X85368095Y38854048D01*
X85415714Y38758810D01*
X85415714Y38473096D01*
X85368095Y38377858D01*
X85320476Y38330239D01*
X85225238Y38282620D01*
X85082380Y38282620D01*
X85606190Y38187381D02*
X86368095Y38187381D01*
X86606190Y38282620D02*
X86606190Y39282620D01*
X86987142Y39282620D01*
X87082380Y39235000D01*
X87130000Y39187381D01*
X87177619Y39092143D01*
X87177619Y38949286D01*
X87130000Y38854048D01*
X87082380Y38806429D01*
X86987142Y38758810D01*
X86606190Y38758810D01*
X87606190Y38282620D02*
X87606190Y38949286D01*
X87606190Y38758810D02*
X87653809Y38854048D01*
X87701428Y38901667D01*
X87796666Y38949286D01*
X87891904Y38949286D01*
X88368095Y38282620D02*
X88272857Y38330239D01*
X88225238Y38377858D01*
X88177619Y38473096D01*
X88177619Y38758810D01*
X88225238Y38854048D01*
X88272857Y38901667D01*
X88368095Y38949286D01*
X88510952Y38949286D01*
X88606190Y38901667D01*
X88653809Y38854048D01*
X88701428Y38758810D01*
X88701428Y38473096D01*
X88653809Y38377858D01*
X88606190Y38330239D01*
X88510952Y38282620D01*
X88368095Y38282620D01*
X88891904Y38187381D02*
X89653809Y38187381D01*
X89891904Y38282620D02*
X89891904Y39282620D01*
X90225238Y38568334D01*
X90558571Y39282620D01*
X90558571Y38282620D01*
X91034761Y38282620D02*
X91034761Y38949286D01*
X91034761Y39282620D02*
X90987142Y39235000D01*
X91034761Y39187381D01*
X91082380Y39235000D01*
X91034761Y39282620D01*
X91034761Y39187381D01*
X91510952Y38949286D02*
X91510952Y38282620D01*
X91510952Y38854048D02*
X91558571Y38901667D01*
X91653809Y38949286D01*
X91796666Y38949286D01*
X91891904Y38901667D01*
X91939523Y38806429D01*
X91939523Y38282620D01*
X92415714Y38282620D02*
X92415714Y38949286D01*
X92415714Y39282620D02*
X92368095Y39235000D01*
X92415714Y39187381D01*
X92463333Y39235000D01*
X92415714Y39282620D01*
X92415714Y39187381D01*
X92653809Y38187381D02*
X93415714Y38187381D01*
X94130000Y39282620D02*
X93653809Y39282620D01*
X93606190Y38806429D01*
X93653809Y38854048D01*
X93749047Y38901667D01*
X93987142Y38901667D01*
X94082380Y38854048D01*
X94130000Y38806429D01*
X94177619Y38711191D01*
X94177619Y38473096D01*
X94130000Y38377858D01*
X94082380Y38330239D01*
X93987142Y38282620D01*
X93749047Y38282620D01*
X93653809Y38330239D01*
X93606190Y38377858D01*
X94463333Y39282620D02*
X94796666Y38282620D01*
X95130000Y39282620D01*
X11247380Y87987381D02*
X11247380Y87415953D01*
X11247380Y87701667D02*
X10247380Y87701667D01*
X10390238Y87606429D01*
X10485476Y87511191D01*
X10533095Y87415953D01*
X10247380Y88606429D02*
X10247380Y88701667D01*
X10295000Y88796905D01*
X10342619Y88844524D01*
X10437857Y88892143D01*
X10628333Y88939762D01*
X10866428Y88939762D01*
X11056904Y88892143D01*
X11152142Y88844524D01*
X11199761Y88796905D01*
X11247380Y88701667D01*
X11247380Y88606429D01*
X11199761Y88511191D01*
X11152142Y88463572D01*
X11056904Y88415953D01*
X10866428Y88368334D01*
X10628333Y88368334D01*
X10437857Y88415953D01*
X10342619Y88463572D01*
X10295000Y88511191D01*
X10247380Y88606429D01*
X10247380Y89558810D02*
X10247380Y89654048D01*
X10295000Y89749286D01*
X10342619Y89796905D01*
X10437857Y89844524D01*
X10628333Y89892143D01*
X10866428Y89892143D01*
X11056904Y89844524D01*
X11152142Y89796905D01*
X11199761Y89749286D01*
X11247380Y89654048D01*
X11247380Y89558810D01*
X11199761Y89463572D01*
X11152142Y89415953D01*
X11056904Y89368334D01*
X10866428Y89320715D01*
X10628333Y89320715D01*
X10437857Y89368334D01*
X10342619Y89415953D01*
X10295000Y89463572D01*
X10247380Y89558810D01*
X10580714Y90749286D02*
X11247380Y90749286D01*
X10580714Y90320715D02*
X11104523Y90320715D01*
X11199761Y90368334D01*
X11247380Y90463572D01*
X11247380Y90606429D01*
X11199761Y90701667D01*
X11152142Y90749286D01*
X10723571Y91558810D02*
X10723571Y91225477D01*
X11247380Y91225477D02*
X10247380Y91225477D01*
X10247380Y91701667D01*
X12787380Y78795953D02*
X12787380Y79462620D01*
X13787380Y79034048D01*
X13120714Y80272143D02*
X13787380Y80272143D01*
X12739761Y80034048D02*
X13454047Y79795953D01*
X13454047Y80415000D01*
X13787380Y81272143D02*
X13787380Y80795953D01*
X12787380Y80795953D01*
X13739761Y81557858D02*
X13787380Y81700715D01*
X13787380Y81938810D01*
X13739761Y82034048D01*
X13692142Y82081667D01*
X13596904Y82129286D01*
X13501666Y82129286D01*
X13406428Y82081667D01*
X13358809Y82034048D01*
X13311190Y81938810D01*
X13263571Y81748334D01*
X13215952Y81653096D01*
X13168333Y81605477D01*
X13073095Y81557858D01*
X12977857Y81557858D01*
X12882619Y81605477D01*
X12835000Y81653096D01*
X12787380Y81748334D01*
X12787380Y81986429D01*
X12835000Y82129286D01*
X12882619Y82510239D02*
X12835000Y82557858D01*
X12787380Y82653096D01*
X12787380Y82891191D01*
X12835000Y82986429D01*
X12882619Y83034048D01*
X12977857Y83081667D01*
X13073095Y83081667D01*
X13215952Y83034048D01*
X13787380Y82462620D01*
X13787380Y83081667D01*
X12787380Y83415000D02*
X12787380Y84081667D01*
X13787380Y83653096D01*
X12787380Y84367381D02*
X12787380Y84986429D01*
X13168333Y84653096D01*
X13168333Y84795953D01*
X13215952Y84891191D01*
X13263571Y84938810D01*
X13358809Y84986429D01*
X13596904Y84986429D01*
X13692142Y84938810D01*
X13739761Y84891191D01*
X13787380Y84795953D01*
X13787380Y84510239D01*
X13739761Y84415000D01*
X13692142Y84367381D01*
X12787380Y51490953D02*
X12787380Y52157620D01*
X13787380Y51729048D01*
X13120714Y52967143D02*
X13787380Y52967143D01*
X12739761Y52729048D02*
X13454047Y52490953D01*
X13454047Y53110000D01*
X13787380Y53967143D02*
X13787380Y53490953D01*
X12787380Y53490953D01*
X13739761Y54252858D02*
X13787380Y54395715D01*
X13787380Y54633810D01*
X13739761Y54729048D01*
X13692142Y54776667D01*
X13596904Y54824286D01*
X13501666Y54824286D01*
X13406428Y54776667D01*
X13358809Y54729048D01*
X13311190Y54633810D01*
X13263571Y54443334D01*
X13215952Y54348096D01*
X13168333Y54300477D01*
X13073095Y54252858D01*
X12977857Y54252858D01*
X12882619Y54300477D01*
X12835000Y54348096D01*
X12787380Y54443334D01*
X12787380Y54681429D01*
X12835000Y54824286D01*
X12882619Y55205239D02*
X12835000Y55252858D01*
X12787380Y55348096D01*
X12787380Y55586191D01*
X12835000Y55681429D01*
X12882619Y55729048D01*
X12977857Y55776667D01*
X13073095Y55776667D01*
X13215952Y55729048D01*
X13787380Y55157620D01*
X13787380Y55776667D01*
X12787380Y56110000D02*
X12787380Y56776667D01*
X13787380Y56348096D01*
X12787380Y57062381D02*
X12787380Y57681429D01*
X13168333Y57348096D01*
X13168333Y57490953D01*
X13215952Y57586191D01*
X13263571Y57633810D01*
X13358809Y57681429D01*
X13596904Y57681429D01*
X13692142Y57633810D01*
X13739761Y57586191D01*
X13787380Y57490953D01*
X13787380Y57205239D01*
X13739761Y57110000D01*
X13692142Y57062381D01*
X12835000Y17415239D02*
X12787380Y17320000D01*
X12787380Y17177143D01*
X12835000Y17034286D01*
X12930238Y16939048D01*
X13025476Y16891429D01*
X13215952Y16843810D01*
X13358809Y16843810D01*
X13549285Y16891429D01*
X13644523Y16939048D01*
X13739761Y17034286D01*
X13787380Y17177143D01*
X13787380Y17272381D01*
X13739761Y17415239D01*
X13692142Y17462858D01*
X13358809Y17462858D01*
X13358809Y17272381D01*
X13501666Y17843810D02*
X13501666Y18320000D01*
X13787380Y17748572D02*
X12787380Y18081905D01*
X13787380Y18415239D01*
X13787380Y19224762D02*
X13787380Y18748572D01*
X12787380Y18748572D01*
X12882619Y19510477D02*
X12835000Y19558096D01*
X12787380Y19653334D01*
X12787380Y19891429D01*
X12835000Y19986667D01*
X12882619Y20034286D01*
X12977857Y20081905D01*
X13073095Y20081905D01*
X13215952Y20034286D01*
X13787380Y19462858D01*
X13787380Y20081905D01*
X12882619Y20462858D02*
X12835000Y20510477D01*
X12787380Y20605715D01*
X12787380Y20843810D01*
X12835000Y20939048D01*
X12882619Y20986667D01*
X12977857Y21034286D01*
X13073095Y21034286D01*
X13215952Y20986667D01*
X13787380Y20415239D01*
X13787380Y21034286D01*
X12787380Y21320000D02*
X13787380Y21653334D01*
X12787380Y21986667D01*
X13787380Y22843810D02*
X13787380Y22272381D01*
X13787380Y22558096D02*
X12787380Y22558096D01*
X12930238Y22462858D01*
X13025476Y22367620D01*
X13073095Y22272381D01*
X12787380Y23462858D02*
X12787380Y23558096D01*
X12835000Y23653334D01*
X12882619Y23700953D01*
X12977857Y23748572D01*
X13168333Y23796191D01*
X13406428Y23796191D01*
X13596904Y23748572D01*
X13692142Y23700953D01*
X13739761Y23653334D01*
X13787380Y23558096D01*
X13787380Y23462858D01*
X13739761Y23367620D01*
X13692142Y23320000D01*
X13596904Y23272381D01*
X13406428Y23224762D01*
X13168333Y23224762D01*
X12977857Y23272381D01*
X12882619Y23320000D01*
X12835000Y23367620D01*
X12787380Y23462858D01*
X89415952Y13081191D02*
X89368333Y12985953D01*
X89320714Y12938334D01*
X89225476Y12890715D01*
X89177857Y12890715D01*
X89082619Y12938334D01*
X89035000Y12985953D01*
X88987380Y13081191D01*
X88987380Y13271667D01*
X89035000Y13366905D01*
X89082619Y13414524D01*
X89177857Y13462143D01*
X89225476Y13462143D01*
X89320714Y13414524D01*
X89368333Y13366905D01*
X89415952Y13271667D01*
X89415952Y13081191D01*
X89463571Y12985953D01*
X89511190Y12938334D01*
X89606428Y12890715D01*
X89796904Y12890715D01*
X89892142Y12938334D01*
X89939761Y12985953D01*
X89987380Y13081191D01*
X89987380Y13271667D01*
X89939761Y13366905D01*
X89892142Y13414524D01*
X89796904Y13462143D01*
X89606428Y13462143D01*
X89511190Y13414524D01*
X89463571Y13366905D01*
X89415952Y13271667D01*
X89082619Y13843096D02*
X89035000Y13890715D01*
X88987380Y13985953D01*
X88987380Y14224048D01*
X89035000Y14319286D01*
X89082619Y14366905D01*
X89177857Y14414524D01*
X89273095Y14414524D01*
X89415952Y14366905D01*
X89987380Y13795477D01*
X89987380Y14414524D01*
X88987380Y15319286D02*
X88987380Y14843096D01*
X89463571Y14795477D01*
X89415952Y14843096D01*
X89368333Y14938334D01*
X89368333Y15176429D01*
X89415952Y15271667D01*
X89463571Y15319286D01*
X89558809Y15366905D01*
X89796904Y15366905D01*
X89892142Y15319286D01*
X89939761Y15271667D01*
X89987380Y15176429D01*
X89987380Y14938334D01*
X89939761Y14843096D01*
X89892142Y14795477D01*
X88987380Y16271667D02*
X88987380Y15795477D01*
X89463571Y15747858D01*
X89415952Y15795477D01*
X89368333Y15890715D01*
X89368333Y16128810D01*
X89415952Y16224048D01*
X89463571Y16271667D01*
X89558809Y16319286D01*
X89796904Y16319286D01*
X89892142Y16271667D01*
X89939761Y16224048D01*
X89987380Y16128810D01*
X89987380Y15890715D01*
X89939761Y15795477D01*
X89892142Y15747858D01*
X45140952Y69127620D02*
X45807619Y69127620D01*
X45379047Y68127620D01*
X46617142Y68794286D02*
X46617142Y68127620D01*
X46379047Y69175239D02*
X46140952Y68460953D01*
X46760000Y68460953D01*
X47617142Y68127620D02*
X47140952Y68127620D01*
X47140952Y69127620D01*
X47902857Y68175239D02*
X48045714Y68127620D01*
X48283809Y68127620D01*
X48379047Y68175239D01*
X48426666Y68222858D01*
X48474285Y68318096D01*
X48474285Y68413334D01*
X48426666Y68508572D01*
X48379047Y68556191D01*
X48283809Y68603810D01*
X48093333Y68651429D01*
X47998095Y68699048D01*
X47950476Y68746667D01*
X47902857Y68841905D01*
X47902857Y68937143D01*
X47950476Y69032381D01*
X47998095Y69080000D01*
X48093333Y69127620D01*
X48331428Y69127620D01*
X48474285Y69080000D01*
X48855238Y69032381D02*
X48902857Y69080000D01*
X48998095Y69127620D01*
X49236190Y69127620D01*
X49331428Y69080000D01*
X49379047Y69032381D01*
X49426666Y68937143D01*
X49426666Y68841905D01*
X49379047Y68699048D01*
X48807619Y68127620D01*
X49426666Y68127620D01*
X50283809Y68794286D02*
X50283809Y68127620D01*
X50045714Y69175239D02*
X49807619Y68460953D01*
X50426666Y68460953D01*
X51283809Y69127620D02*
X50807619Y69127620D01*
X50760000Y68651429D01*
X50807619Y68699048D01*
X50902857Y68746667D01*
X51140952Y68746667D01*
X51236190Y68699048D01*
X51283809Y68651429D01*
X51331428Y68556191D01*
X51331428Y68318096D01*
X51283809Y68222858D01*
X51236190Y68175239D01*
X51140952Y68127620D01*
X50902857Y68127620D01*
X50807619Y68175239D01*
X50760000Y68222858D01*
X42799761Y25852381D02*
X42847380Y25900000D01*
X42942619Y25947620D01*
X43180714Y25947620D01*
X43275952Y25900000D01*
X43323571Y25852381D01*
X43371190Y25757143D01*
X43371190Y25661905D01*
X43323571Y25519048D01*
X42752142Y24947620D01*
X43371190Y24947620D01*
X43704523Y25947620D02*
X44371190Y25947620D01*
X43942619Y24947620D01*
X45323571Y25042858D02*
X45275952Y24995239D01*
X45133095Y24947620D01*
X45037857Y24947620D01*
X44895000Y24995239D01*
X44799761Y25090477D01*
X44752142Y25185715D01*
X44704523Y25376191D01*
X44704523Y25519048D01*
X44752142Y25709524D01*
X44799761Y25804762D01*
X44895000Y25900000D01*
X45037857Y25947620D01*
X45133095Y25947620D01*
X45275952Y25900000D01*
X45323571Y25852381D01*
X45704523Y25852381D02*
X45752142Y25900000D01*
X45847380Y25947620D01*
X46085476Y25947620D01*
X46180714Y25900000D01*
X46228333Y25852381D01*
X46275952Y25757143D01*
X46275952Y25661905D01*
X46228333Y25519048D01*
X45656904Y24947620D01*
X46275952Y24947620D01*
X47180714Y25947620D02*
X46704523Y25947620D01*
X46656904Y25471429D01*
X46704523Y25519048D01*
X46799761Y25566667D01*
X47037857Y25566667D01*
X47133095Y25519048D01*
X47180714Y25471429D01*
X47228333Y25376191D01*
X47228333Y25138096D01*
X47180714Y25042858D01*
X47133095Y24995239D01*
X47037857Y24947620D01*
X46799761Y24947620D01*
X46704523Y24995239D01*
X46656904Y25042858D01*
X48085476Y25947620D02*
X47895000Y25947620D01*
X47799761Y25900000D01*
X47752142Y25852381D01*
X47656904Y25709524D01*
X47609285Y25519048D01*
X47609285Y25138096D01*
X47656904Y25042858D01*
X47704523Y24995239D01*
X47799761Y24947620D01*
X47990238Y24947620D01*
X48085476Y24995239D01*
X48133095Y25042858D01*
X48180714Y25138096D01*
X48180714Y25376191D01*
X48133095Y25471429D01*
X48085476Y25519048D01*
X47990238Y25566667D01*
X47799761Y25566667D01*
X47704523Y25519048D01*
X47656904Y25471429D01*
X47609285Y25376191D01*
X49323571Y25995239D02*
X48466428Y24709524D01*
X49609285Y25852381D02*
X49656904Y25900000D01*
X49752142Y25947620D01*
X49990238Y25947620D01*
X50085476Y25900000D01*
X50133095Y25852381D01*
X50180714Y25757143D01*
X50180714Y25661905D01*
X50133095Y25519048D01*
X49561666Y24947620D01*
X50180714Y24947620D01*
X50514047Y25947620D02*
X51180714Y25947620D01*
X50752142Y24947620D01*
X52133095Y25042858D02*
X52085476Y24995239D01*
X51942619Y24947620D01*
X51847380Y24947620D01*
X51704523Y24995239D01*
X51609285Y25090477D01*
X51561666Y25185715D01*
X51514047Y25376191D01*
X51514047Y25519048D01*
X51561666Y25709524D01*
X51609285Y25804762D01*
X51704523Y25900000D01*
X51847380Y25947620D01*
X51942619Y25947620D01*
X52085476Y25900000D01*
X52133095Y25852381D01*
X53037857Y25947620D02*
X52561666Y25947620D01*
X52514047Y25471429D01*
X52561666Y25519048D01*
X52656904Y25566667D01*
X52895000Y25566667D01*
X52990238Y25519048D01*
X53037857Y25471429D01*
X53085476Y25376191D01*
X53085476Y25138096D01*
X53037857Y25042858D01*
X52990238Y24995239D01*
X52895000Y24947620D01*
X52656904Y24947620D01*
X52561666Y24995239D01*
X52514047Y25042858D01*
X54037857Y24947620D02*
X53466428Y24947620D01*
X53752142Y24947620D02*
X53752142Y25947620D01*
X53656904Y25804762D01*
X53561666Y25709524D01*
X53466428Y25661905D01*
X54418809Y25852381D02*
X54466428Y25900000D01*
X54561666Y25947620D01*
X54799761Y25947620D01*
X54895000Y25900000D01*
X54942619Y25852381D01*
X54990238Y25757143D01*
X54990238Y25661905D01*
X54942619Y25519048D01*
X54371190Y24947620D01*
X54990238Y24947620D01*
X33107380Y14867143D02*
X33107380Y14962381D01*
X33155000Y15057620D01*
X33202619Y15105239D01*
X33297857Y15152858D01*
X33488333Y15200477D01*
X33726428Y15200477D01*
X33916904Y15152858D01*
X34012142Y15105239D01*
X34059761Y15057620D01*
X34107380Y14962381D01*
X34107380Y14867143D01*
X34059761Y14771905D01*
X34012142Y14724286D01*
X33916904Y14676667D01*
X33726428Y14629048D01*
X33488333Y14629048D01*
X33297857Y14676667D01*
X33202619Y14724286D01*
X33155000Y14771905D01*
X33107380Y14867143D01*
X34012142Y15629048D02*
X34059761Y15676667D01*
X34107380Y15629048D01*
X34059761Y15581429D01*
X34012142Y15629048D01*
X34107380Y15629048D01*
X34107380Y16629048D02*
X34107380Y16057620D01*
X34107380Y16343334D02*
X33107380Y16343334D01*
X33250238Y16248096D01*
X33345476Y16152858D01*
X33393095Y16057620D01*
X33440714Y17486191D02*
X34107380Y17486191D01*
X33440714Y17057620D02*
X33964523Y17057620D01*
X34059761Y17105239D01*
X34107380Y17200477D01*
X34107380Y17343334D01*
X34059761Y17438572D01*
X34012142Y17486191D01*
X33583571Y18295715D02*
X33583571Y17962381D01*
X34107380Y17962381D02*
X33107380Y17962381D01*
X33107380Y18438572D01*
X23757142Y36361620D02*
X23852380Y36361620D01*
X23947619Y36314000D01*
X23995238Y36266381D01*
X24042857Y36171143D01*
X24090476Y35980667D01*
X24090476Y35742572D01*
X24042857Y35552096D01*
X23995238Y35456858D01*
X23947619Y35409239D01*
X23852380Y35361620D01*
X23757142Y35361620D01*
X23661904Y35409239D01*
X23614285Y35456858D01*
X23566666Y35552096D01*
X23519047Y35742572D01*
X23519047Y35980667D01*
X23566666Y36171143D01*
X23614285Y36266381D01*
X23661904Y36314000D01*
X23757142Y36361620D01*
X24519047Y35456858D02*
X24566666Y35409239D01*
X24519047Y35361620D01*
X24471428Y35409239D01*
X24519047Y35456858D01*
X24519047Y35361620D01*
X25519047Y35361620D02*
X24947619Y35361620D01*
X25233333Y35361620D02*
X25233333Y36361620D01*
X25138095Y36218762D01*
X25042857Y36123524D01*
X24947619Y36075905D01*
X26376190Y36028286D02*
X26376190Y35361620D01*
X25947619Y36028286D02*
X25947619Y35504477D01*
X25995238Y35409239D01*
X26090476Y35361620D01*
X26233333Y35361620D01*
X26328571Y35409239D01*
X26376190Y35456858D01*
X27185714Y35885429D02*
X26852380Y35885429D01*
X26852380Y35361620D02*
X26852380Y36361620D01*
X27328571Y36361620D01*
X38997142Y65317620D02*
X39092380Y65317620D01*
X39187619Y65270000D01*
X39235238Y65222381D01*
X39282857Y65127143D01*
X39330476Y64936667D01*
X39330476Y64698572D01*
X39282857Y64508096D01*
X39235238Y64412858D01*
X39187619Y64365239D01*
X39092380Y64317620D01*
X38997142Y64317620D01*
X38901904Y64365239D01*
X38854285Y64412858D01*
X38806666Y64508096D01*
X38759047Y64698572D01*
X38759047Y64936667D01*
X38806666Y65127143D01*
X38854285Y65222381D01*
X38901904Y65270000D01*
X38997142Y65317620D01*
X39759047Y64412858D02*
X39806666Y64365239D01*
X39759047Y64317620D01*
X39711428Y64365239D01*
X39759047Y64412858D01*
X39759047Y64317620D01*
X40759047Y64317620D02*
X40187619Y64317620D01*
X40473333Y64317620D02*
X40473333Y65317620D01*
X40378095Y65174762D01*
X40282857Y65079524D01*
X40187619Y65031905D01*
X41616190Y64984286D02*
X41616190Y64317620D01*
X41187619Y64984286D02*
X41187619Y64460477D01*
X41235238Y64365239D01*
X41330476Y64317620D01*
X41473333Y64317620D01*
X41568571Y64365239D01*
X41616190Y64412858D01*
X42425714Y64841429D02*
X42092380Y64841429D01*
X42092380Y64317620D02*
X42092380Y65317620D01*
X42568571Y65317620D01*
X23757142Y67476620D02*
X23852380Y67476620D01*
X23947619Y67429000D01*
X23995238Y67381381D01*
X24042857Y67286143D01*
X24090476Y67095667D01*
X24090476Y66857572D01*
X24042857Y66667096D01*
X23995238Y66571858D01*
X23947619Y66524239D01*
X23852380Y66476620D01*
X23757142Y66476620D01*
X23661904Y66524239D01*
X23614285Y66571858D01*
X23566666Y66667096D01*
X23519047Y66857572D01*
X23519047Y67095667D01*
X23566666Y67286143D01*
X23614285Y67381381D01*
X23661904Y67429000D01*
X23757142Y67476620D01*
X24519047Y66571858D02*
X24566666Y66524239D01*
X24519047Y66476620D01*
X24471428Y66524239D01*
X24519047Y66571858D01*
X24519047Y66476620D01*
X25519047Y66476620D02*
X24947619Y66476620D01*
X25233333Y66476620D02*
X25233333Y67476620D01*
X25138095Y67333762D01*
X25042857Y67238524D01*
X24947619Y67190905D01*
X26376190Y67143286D02*
X26376190Y66476620D01*
X25947619Y67143286D02*
X25947619Y66619477D01*
X25995238Y66524239D01*
X26090476Y66476620D01*
X26233333Y66476620D01*
X26328571Y66524239D01*
X26376190Y66571858D01*
X27185714Y67000429D02*
X26852380Y67000429D01*
X26852380Y66476620D02*
X26852380Y67476620D01*
X27328571Y67476620D01*
X49157142Y97702620D02*
X49252380Y97702620D01*
X49347619Y97655000D01*
X49395238Y97607381D01*
X49442857Y97512143D01*
X49490476Y97321667D01*
X49490476Y97083572D01*
X49442857Y96893096D01*
X49395238Y96797858D01*
X49347619Y96750239D01*
X49252380Y96702620D01*
X49157142Y96702620D01*
X49061904Y96750239D01*
X49014285Y96797858D01*
X48966666Y96893096D01*
X48919047Y97083572D01*
X48919047Y97321667D01*
X48966666Y97512143D01*
X49014285Y97607381D01*
X49061904Y97655000D01*
X49157142Y97702620D01*
X49919047Y96797858D02*
X49966666Y96750239D01*
X49919047Y96702620D01*
X49871428Y96750239D01*
X49919047Y96797858D01*
X49919047Y96702620D01*
X50919047Y96702620D02*
X50347619Y96702620D01*
X50633333Y96702620D02*
X50633333Y97702620D01*
X50538095Y97559762D01*
X50442857Y97464524D01*
X50347619Y97416905D01*
X51776190Y97369286D02*
X51776190Y96702620D01*
X51347619Y97369286D02*
X51347619Y96845477D01*
X51395238Y96750239D01*
X51490476Y96702620D01*
X51633333Y96702620D01*
X51728571Y96750239D01*
X51776190Y96797858D01*
X52585714Y97226429D02*
X52252380Y97226429D01*
X52252380Y96702620D02*
X52252380Y97702620D01*
X52728571Y97702620D01*
X23757142Y97956620D02*
X23852380Y97956620D01*
X23947619Y97909000D01*
X23995238Y97861381D01*
X24042857Y97766143D01*
X24090476Y97575667D01*
X24090476Y97337572D01*
X24042857Y97147096D01*
X23995238Y97051858D01*
X23947619Y97004239D01*
X23852380Y96956620D01*
X23757142Y96956620D01*
X23661904Y97004239D01*
X23614285Y97051858D01*
X23566666Y97147096D01*
X23519047Y97337572D01*
X23519047Y97575667D01*
X23566666Y97766143D01*
X23614285Y97861381D01*
X23661904Y97909000D01*
X23757142Y97956620D01*
X24519047Y97051858D02*
X24566666Y97004239D01*
X24519047Y96956620D01*
X24471428Y97004239D01*
X24519047Y97051858D01*
X24519047Y96956620D01*
X25519047Y96956620D02*
X24947619Y96956620D01*
X25233333Y96956620D02*
X25233333Y97956620D01*
X25138095Y97813762D01*
X25042857Y97718524D01*
X24947619Y97670905D01*
X26376190Y97623286D02*
X26376190Y96956620D01*
X25947619Y97623286D02*
X25947619Y97099477D01*
X25995238Y97004239D01*
X26090476Y96956620D01*
X26233333Y96956620D01*
X26328571Y97004239D01*
X26376190Y97051858D01*
X27185714Y97480429D02*
X26852380Y97480429D01*
X26852380Y96956620D02*
X26852380Y97956620D01*
X27328571Y97956620D01*
X10410000Y15359286D02*
X10410000Y16073572D01*
X10838571Y15216429D02*
X9338571Y15716429D01*
X10838571Y16216429D01*
X9481428Y16645000D02*
X9410000Y16716429D01*
X9338571Y16859286D01*
X9338571Y17216429D01*
X9410000Y17359286D01*
X9481428Y17430715D01*
X9624285Y17502143D01*
X9767142Y17502143D01*
X9981428Y17430715D01*
X10838571Y16573572D01*
X10838571Y17502143D01*
X9481428Y18073572D02*
X9410000Y18145000D01*
X9338571Y18287858D01*
X9338571Y18645000D01*
X9410000Y18787858D01*
X9481428Y18859286D01*
X9624285Y18930715D01*
X9767142Y18930715D01*
X9981428Y18859286D01*
X10838571Y18002143D01*
X10838571Y18930715D01*
X2432857Y15823572D02*
X2504285Y16037858D01*
X2575714Y16109286D01*
X2718571Y16180715D01*
X2932857Y16180715D01*
X3075714Y16109286D01*
X3147142Y16037858D01*
X3218571Y15895000D01*
X3218571Y15323572D01*
X1718571Y15323572D01*
X1718571Y15823572D01*
X1790000Y15966429D01*
X1861428Y16037858D01*
X2004285Y16109286D01*
X2147142Y16109286D01*
X2290000Y16037858D01*
X2361428Y15966429D01*
X2432857Y15823572D01*
X2432857Y15323572D01*
X1861428Y16752143D02*
X1790000Y16823572D01*
X1718571Y16966429D01*
X1718571Y17323572D01*
X1790000Y17466429D01*
X1861428Y17537858D01*
X2004285Y17609286D01*
X2147142Y17609286D01*
X2361428Y17537858D01*
X3218571Y16680715D01*
X3218571Y17609286D01*
X1861428Y18180715D02*
X1790000Y18252143D01*
X1718571Y18395000D01*
X1718571Y18752143D01*
X1790000Y18895000D01*
X1861428Y18966429D01*
X2004285Y19037858D01*
X2147142Y19037858D01*
X2361428Y18966429D01*
X3218571Y18109286D01*
X3218571Y19037858D01*
X10410000Y77668572D02*
X10410000Y78382858D01*
X10838571Y77525715D02*
X9338571Y78025715D01*
X10838571Y78525715D01*
X10838571Y79811429D02*
X10838571Y78954286D01*
X10838571Y79382858D02*
X9338571Y79382858D01*
X9552857Y79240000D01*
X9695714Y79097143D01*
X9767142Y78954286D01*
X2432857Y78132858D02*
X2504285Y78347143D01*
X2575714Y78418572D01*
X2718571Y78490000D01*
X2932857Y78490000D01*
X3075714Y78418572D01*
X3147142Y78347143D01*
X3218571Y78204286D01*
X3218571Y77632858D01*
X1718571Y77632858D01*
X1718571Y78132858D01*
X1790000Y78275715D01*
X1861428Y78347143D01*
X2004285Y78418572D01*
X2147142Y78418572D01*
X2290000Y78347143D01*
X2361428Y78275715D01*
X2432857Y78132858D01*
X2432857Y77632858D01*
X3218571Y79918572D02*
X3218571Y79061429D01*
X3218571Y79490000D02*
X1718571Y79490000D01*
X1932857Y79347143D01*
X2075714Y79204286D01*
X2147142Y79061429D01*
X9969523Y75477620D02*
X9493333Y75477620D01*
X9445714Y75001429D01*
X9493333Y75049048D01*
X9588571Y75096667D01*
X9826666Y75096667D01*
X9921904Y75049048D01*
X9969523Y75001429D01*
X10017142Y74906191D01*
X10017142Y74668096D01*
X9969523Y74572858D01*
X9921904Y74525239D01*
X9826666Y74477620D01*
X9588571Y74477620D01*
X9493333Y74525239D01*
X9445714Y74572858D01*
X10302857Y75477620D02*
X10636190Y74477620D01*
X10969523Y75477620D01*
X2349523Y75477620D02*
X1873333Y75477620D01*
X1825714Y75001429D01*
X1873333Y75049048D01*
X1968571Y75096667D01*
X2206666Y75096667D01*
X2301904Y75049048D01*
X2349523Y75001429D01*
X2397142Y74906191D01*
X2397142Y74668096D01*
X2349523Y74572858D01*
X2301904Y74525239D01*
X2206666Y74477620D01*
X1968571Y74477620D01*
X1873333Y74525239D01*
X1825714Y74572858D01*
X2682857Y75477620D02*
X3016190Y74477620D01*
X3349523Y75477620D01*
X1778095Y44950000D02*
X1682857Y44997620D01*
X1540000Y44997620D01*
X1397142Y44950000D01*
X1301904Y44854762D01*
X1254285Y44759524D01*
X1206666Y44569048D01*
X1206666Y44426191D01*
X1254285Y44235715D01*
X1301904Y44140477D01*
X1397142Y44045239D01*
X1540000Y43997620D01*
X1635238Y43997620D01*
X1778095Y44045239D01*
X1825714Y44092858D01*
X1825714Y44426191D01*
X1635238Y44426191D01*
X2254285Y43997620D02*
X2254285Y44997620D01*
X2825714Y43997620D01*
X2825714Y44997620D01*
X3301904Y43997620D02*
X3301904Y44997620D01*
X3540000Y44997620D01*
X3682857Y44950000D01*
X3778095Y44854762D01*
X3825714Y44759524D01*
X3873333Y44569048D01*
X3873333Y44426191D01*
X3825714Y44235715D01*
X3778095Y44140477D01*
X3682857Y44045239D01*
X3540000Y43997620D01*
X3301904Y43997620D01*
X9398095Y65270000D02*
X9302857Y65317620D01*
X9160000Y65317620D01*
X9017142Y65270000D01*
X8921904Y65174762D01*
X8874285Y65079524D01*
X8826666Y64889048D01*
X8826666Y64746191D01*
X8874285Y64555715D01*
X8921904Y64460477D01*
X9017142Y64365239D01*
X9160000Y64317620D01*
X9255238Y64317620D01*
X9398095Y64365239D01*
X9445714Y64412858D01*
X9445714Y64746191D01*
X9255238Y64746191D01*
X9874285Y64317620D02*
X9874285Y65317620D01*
X10445714Y64317620D01*
X10445714Y65317620D01*
X10921904Y64317620D02*
X10921904Y65317620D01*
X11160000Y65317620D01*
X11302857Y65270000D01*
X11398095Y65174762D01*
X11445714Y65079524D01*
X11493333Y64889048D01*
X11493333Y64746191D01*
X11445714Y64555715D01*
X11398095Y64460477D01*
X11302857Y64365239D01*
X11160000Y64317620D01*
X10921904Y64317620D01*
X9398095Y22090000D02*
X9302857Y22137620D01*
X9160000Y22137620D01*
X9017142Y22090000D01*
X8921904Y21994762D01*
X8874285Y21899524D01*
X8826666Y21709048D01*
X8826666Y21566191D01*
X8874285Y21375715D01*
X8921904Y21280477D01*
X9017142Y21185239D01*
X9160000Y21137620D01*
X9255238Y21137620D01*
X9398095Y21185239D01*
X9445714Y21232858D01*
X9445714Y21566191D01*
X9255238Y21566191D01*
X9874285Y21137620D02*
X9874285Y22137620D01*
X10445714Y21137620D01*
X10445714Y22137620D01*
X10921904Y21137620D02*
X10921904Y22137620D01*
X11160000Y22137620D01*
X11302857Y22090000D01*
X11398095Y21994762D01*
X11445714Y21899524D01*
X11493333Y21709048D01*
X11493333Y21566191D01*
X11445714Y21375715D01*
X11398095Y21280477D01*
X11302857Y21185239D01*
X11160000Y21137620D01*
X10921904Y21137620D01*
X1611428Y55157620D02*
X1849523Y54157620D01*
X2040000Y54871905D01*
X2230476Y54157620D01*
X2468571Y55157620D01*
X3420952Y54157620D02*
X3087619Y54633810D01*
X2849523Y54157620D02*
X2849523Y55157620D01*
X3230476Y55157620D01*
X3325714Y55110000D01*
X3373333Y55062381D01*
X3420952Y54967143D01*
X3420952Y54824286D01*
X3373333Y54729048D01*
X3325714Y54681429D01*
X3230476Y54633810D01*
X2849523Y54633810D01*
X2349523Y51617620D02*
X2016190Y52093810D01*
X1778095Y51617620D02*
X1778095Y52617620D01*
X2159047Y52617620D01*
X2254285Y52570000D01*
X2301904Y52522381D01*
X2349523Y52427143D01*
X2349523Y52284286D01*
X2301904Y52189048D01*
X2254285Y52141429D01*
X2159047Y52093810D01*
X1778095Y52093810D01*
X2778095Y51617620D02*
X2778095Y52617620D01*
X3016190Y52617620D01*
X3159047Y52570000D01*
X3254285Y52474762D01*
X3301904Y52379524D01*
X3349523Y52189048D01*
X3349523Y52046191D01*
X3301904Y51855715D01*
X3254285Y51760477D01*
X3159047Y51665239D01*
X3016190Y51617620D01*
X2778095Y51617620D01*
X1516190Y49077620D02*
X1516190Y50077620D01*
X2563809Y49077620D02*
X2230476Y49553810D01*
X1992380Y49077620D02*
X1992380Y50077620D01*
X2373333Y50077620D01*
X2468571Y50030000D01*
X2516190Y49982381D01*
X2563809Y49887143D01*
X2563809Y49744286D01*
X2516190Y49649048D01*
X2468571Y49601429D01*
X2373333Y49553810D01*
X1992380Y49553810D01*
X3659047Y48982381D02*
X3563809Y49030000D01*
X3468571Y49125239D01*
X3325714Y49268096D01*
X3230476Y49315715D01*
X3135238Y49315715D01*
X3182857Y49077620D02*
X3087619Y49125239D01*
X2992380Y49220477D01*
X2944761Y49410953D01*
X2944761Y49744286D01*
X2992380Y49934762D01*
X3087619Y50030000D01*
X3182857Y50077620D01*
X3373333Y50077620D01*
X3468571Y50030000D01*
X3563809Y49934762D01*
X3611428Y49744286D01*
X3611428Y49410953D01*
X3563809Y49220477D01*
X3468571Y49125239D01*
X3373333Y49077620D01*
X3182857Y49077620D01*
X1182857Y46537620D02*
X1182857Y47537620D01*
X1516190Y46823334D01*
X1849523Y47537620D01*
X1849523Y46537620D01*
X2897142Y46537620D02*
X2563809Y47013810D01*
X2325714Y46537620D02*
X2325714Y47537620D01*
X2706666Y47537620D01*
X2801904Y47490000D01*
X2849523Y47442381D01*
X2897142Y47347143D01*
X2897142Y47204286D01*
X2849523Y47109048D01*
X2801904Y47061429D01*
X2706666Y47013810D01*
X2325714Y47013810D01*
X3992380Y46442381D02*
X3897142Y46490000D01*
X3801904Y46585239D01*
X3659047Y46728096D01*
X3563809Y46775715D01*
X3468571Y46775715D01*
X3516190Y46537620D02*
X3420952Y46585239D01*
X3325714Y46680477D01*
X3278095Y46870953D01*
X3278095Y47204286D01*
X3325714Y47394762D01*
X3420952Y47490000D01*
X3516190Y47537620D01*
X3706666Y47537620D01*
X3801904Y47490000D01*
X3897142Y47394762D01*
X3944761Y47204286D01*
X3944761Y46870953D01*
X3897142Y46680477D01*
X3801904Y46585239D01*
X3706666Y46537620D01*
X3516190Y46537620D01*
X1920952Y33837620D02*
X1587619Y34313810D01*
X1349523Y33837620D02*
X1349523Y34837620D01*
X1730476Y34837620D01*
X1825714Y34790000D01*
X1873333Y34742381D01*
X1920952Y34647143D01*
X1920952Y34504286D01*
X1873333Y34409048D01*
X1825714Y34361429D01*
X1730476Y34313810D01*
X1349523Y34313810D01*
X2349523Y34361429D02*
X2682857Y34361429D01*
X2825714Y33837620D02*
X2349523Y33837620D01*
X2349523Y34837620D01*
X2825714Y34837620D01*
X3206666Y33885239D02*
X3349523Y33837620D01*
X3587619Y33837620D01*
X3682857Y33885239D01*
X3730476Y33932858D01*
X3778095Y34028096D01*
X3778095Y34123334D01*
X3730476Y34218572D01*
X3682857Y34266191D01*
X3587619Y34313810D01*
X3397142Y34361429D01*
X3301904Y34409048D01*
X3254285Y34456667D01*
X3206666Y34551905D01*
X3206666Y34647143D01*
X3254285Y34742381D01*
X3301904Y34790000D01*
X3397142Y34837620D01*
X3635238Y34837620D01*
X3778095Y34790000D01*
X1738095Y22000000D02*
X1642857Y22047620D01*
X1500000Y22047620D01*
X1357142Y22000000D01*
X1261904Y21904762D01*
X1214285Y21809524D01*
X1166666Y21619048D01*
X1166666Y21476191D01*
X1214285Y21285715D01*
X1261904Y21190477D01*
X1357142Y21095239D01*
X1500000Y21047620D01*
X1595238Y21047620D01*
X1738095Y21095239D01*
X1785714Y21142858D01*
X1785714Y21476191D01*
X1595238Y21476191D01*
X2214285Y21047620D02*
X2214285Y22047620D01*
X2785714Y21047620D01*
X2785714Y22047620D01*
X3261904Y21047620D02*
X3261904Y22047620D01*
X3500000Y22047620D01*
X3642857Y22000000D01*
X3738095Y21904762D01*
X3785714Y21809524D01*
X3833333Y21619048D01*
X3833333Y21476191D01*
X3785714Y21285715D01*
X3738095Y21190477D01*
X3642857Y21095239D01*
X3500000Y21047620D01*
X3261904Y21047620D01*
X9421904Y66857620D02*
X9421904Y67857620D01*
X9660000Y67857620D01*
X9802857Y67810000D01*
X9898095Y67714762D01*
X9945714Y67619524D01*
X9993333Y67429048D01*
X9993333Y67286191D01*
X9945714Y67095715D01*
X9898095Y67000477D01*
X9802857Y66905239D01*
X9660000Y66857620D01*
X9421904Y66857620D01*
X10612380Y67857620D02*
X10707619Y67857620D01*
X10802857Y67810000D01*
X10850476Y67762381D01*
X10898095Y67667143D01*
X10945714Y67476667D01*
X10945714Y67238572D01*
X10898095Y67048096D01*
X10850476Y66952858D01*
X10802857Y66905239D01*
X10707619Y66857620D01*
X10612380Y66857620D01*
X10517142Y66905239D01*
X10469523Y66952858D01*
X10421904Y67048096D01*
X10374285Y67238572D01*
X10374285Y67476667D01*
X10421904Y67667143D01*
X10469523Y67762381D01*
X10517142Y67810000D01*
X10612380Y67857620D01*
X9421904Y69397620D02*
X9421904Y70397620D01*
X9660000Y70397620D01*
X9802857Y70350000D01*
X9898095Y70254762D01*
X9945714Y70159524D01*
X9993333Y69969048D01*
X9993333Y69826191D01*
X9945714Y69635715D01*
X9898095Y69540477D01*
X9802857Y69445239D01*
X9660000Y69397620D01*
X9421904Y69397620D01*
X10945714Y69397620D02*
X10374285Y69397620D01*
X10660000Y69397620D02*
X10660000Y70397620D01*
X10564761Y70254762D01*
X10469523Y70159524D01*
X10374285Y70111905D01*
X9421904Y71937620D02*
X9421904Y72937620D01*
X9660000Y72937620D01*
X9802857Y72890000D01*
X9898095Y72794762D01*
X9945714Y72699524D01*
X9993333Y72509048D01*
X9993333Y72366191D01*
X9945714Y72175715D01*
X9898095Y72080477D01*
X9802857Y71985239D01*
X9660000Y71937620D01*
X9421904Y71937620D01*
X10374285Y72842381D02*
X10421904Y72890000D01*
X10517142Y72937620D01*
X10755238Y72937620D01*
X10850476Y72890000D01*
X10898095Y72842381D01*
X10945714Y72747143D01*
X10945714Y72651905D01*
X10898095Y72509048D01*
X10326666Y71937620D01*
X10945714Y71937620D01*
X1801904Y71937620D02*
X1801904Y72937620D01*
X2040000Y72937620D01*
X2182857Y72890000D01*
X2278095Y72794762D01*
X2325714Y72699524D01*
X2373333Y72509048D01*
X2373333Y72366191D01*
X2325714Y72175715D01*
X2278095Y72080477D01*
X2182857Y71985239D01*
X2040000Y71937620D01*
X1801904Y71937620D01*
X2706666Y72937620D02*
X3325714Y72937620D01*
X2992380Y72556667D01*
X3135238Y72556667D01*
X3230476Y72509048D01*
X3278095Y72461429D01*
X3325714Y72366191D01*
X3325714Y72128096D01*
X3278095Y72032858D01*
X3230476Y71985239D01*
X3135238Y71937620D01*
X2849523Y71937620D01*
X2754285Y71985239D01*
X2706666Y72032858D01*
X1801904Y69397620D02*
X1801904Y70397620D01*
X2040000Y70397620D01*
X2182857Y70350000D01*
X2278095Y70254762D01*
X2325714Y70159524D01*
X2373333Y69969048D01*
X2373333Y69826191D01*
X2325714Y69635715D01*
X2278095Y69540477D01*
X2182857Y69445239D01*
X2040000Y69397620D01*
X1801904Y69397620D01*
X3230476Y70064286D02*
X3230476Y69397620D01*
X2992380Y70445239D02*
X2754285Y69730953D01*
X3373333Y69730953D01*
X1801904Y66857620D02*
X1801904Y67857620D01*
X2040000Y67857620D01*
X2182857Y67810000D01*
X2278095Y67714762D01*
X2325714Y67619524D01*
X2373333Y67429048D01*
X2373333Y67286191D01*
X2325714Y67095715D01*
X2278095Y67000477D01*
X2182857Y66905239D01*
X2040000Y66857620D01*
X1801904Y66857620D01*
X3278095Y67857620D02*
X2801904Y67857620D01*
X2754285Y67381429D01*
X2801904Y67429048D01*
X2897142Y67476667D01*
X3135238Y67476667D01*
X3230476Y67429048D01*
X3278095Y67381429D01*
X3325714Y67286191D01*
X3325714Y67048096D01*
X3278095Y66952858D01*
X3230476Y66905239D01*
X3135238Y66857620D01*
X2897142Y66857620D01*
X2801904Y66905239D01*
X2754285Y66952858D01*
X1801904Y64317620D02*
X1801904Y65317620D01*
X2040000Y65317620D01*
X2182857Y65270000D01*
X2278095Y65174762D01*
X2325714Y65079524D01*
X2373333Y64889048D01*
X2373333Y64746191D01*
X2325714Y64555715D01*
X2278095Y64460477D01*
X2182857Y64365239D01*
X2040000Y64317620D01*
X1801904Y64317620D01*
X3230476Y65317620D02*
X3040000Y65317620D01*
X2944761Y65270000D01*
X2897142Y65222381D01*
X2801904Y65079524D01*
X2754285Y64889048D01*
X2754285Y64508096D01*
X2801904Y64412858D01*
X2849523Y64365239D01*
X2944761Y64317620D01*
X3135238Y64317620D01*
X3230476Y64365239D01*
X3278095Y64412858D01*
X3325714Y64508096D01*
X3325714Y64746191D01*
X3278095Y64841429D01*
X3230476Y64889048D01*
X3135238Y64936667D01*
X2944761Y64936667D01*
X2849523Y64889048D01*
X2801904Y64841429D01*
X2754285Y64746191D01*
X1801904Y61777620D02*
X1801904Y62777620D01*
X2040000Y62777620D01*
X2182857Y62730000D01*
X2278095Y62634762D01*
X2325714Y62539524D01*
X2373333Y62349048D01*
X2373333Y62206191D01*
X2325714Y62015715D01*
X2278095Y61920477D01*
X2182857Y61825239D01*
X2040000Y61777620D01*
X1801904Y61777620D01*
X2706666Y62777620D02*
X3373333Y62777620D01*
X2944761Y61777620D01*
X9445714Y23963334D02*
X9921904Y23963334D01*
X9350476Y23677620D02*
X9683809Y24677620D01*
X10017142Y23677620D01*
X10540952Y24677620D02*
X10636190Y24677620D01*
X10731428Y24630000D01*
X10779047Y24582381D01*
X10826666Y24487143D01*
X10874285Y24296667D01*
X10874285Y24058572D01*
X10826666Y23868096D01*
X10779047Y23772858D01*
X10731428Y23725239D01*
X10636190Y23677620D01*
X10540952Y23677620D01*
X10445714Y23725239D01*
X10398095Y23772858D01*
X10350476Y23868096D01*
X10302857Y24058572D01*
X10302857Y24296667D01*
X10350476Y24487143D01*
X10398095Y24582381D01*
X10445714Y24630000D01*
X10540952Y24677620D01*
X9445714Y26503334D02*
X9921904Y26503334D01*
X9350476Y26217620D02*
X9683809Y27217620D01*
X10017142Y26217620D01*
X10874285Y26217620D02*
X10302857Y26217620D01*
X10588571Y26217620D02*
X10588571Y27217620D01*
X10493333Y27074762D01*
X10398095Y26979524D01*
X10302857Y26931905D01*
X9445714Y29043334D02*
X9921904Y29043334D01*
X9350476Y28757620D02*
X9683809Y29757620D01*
X10017142Y28757620D01*
X10302857Y29662381D02*
X10350476Y29710000D01*
X10445714Y29757620D01*
X10683809Y29757620D01*
X10779047Y29710000D01*
X10826666Y29662381D01*
X10874285Y29567143D01*
X10874285Y29471905D01*
X10826666Y29329048D01*
X10255238Y28757620D01*
X10874285Y28757620D01*
X9445714Y31583334D02*
X9921904Y31583334D01*
X9350476Y31297620D02*
X9683809Y32297620D01*
X10017142Y31297620D01*
X10255238Y32297620D02*
X10874285Y32297620D01*
X10540952Y31916667D01*
X10683809Y31916667D01*
X10779047Y31869048D01*
X10826666Y31821429D01*
X10874285Y31726191D01*
X10874285Y31488096D01*
X10826666Y31392858D01*
X10779047Y31345239D01*
X10683809Y31297620D01*
X10398095Y31297620D01*
X10302857Y31345239D01*
X10255238Y31392858D01*
X9445714Y34123334D02*
X9921904Y34123334D01*
X9350476Y33837620D02*
X9683809Y34837620D01*
X10017142Y33837620D01*
X10779047Y34504286D02*
X10779047Y33837620D01*
X10540952Y34885239D02*
X10302857Y34170953D01*
X10921904Y34170953D01*
X9445714Y36663334D02*
X9921904Y36663334D01*
X9350476Y36377620D02*
X9683809Y37377620D01*
X10017142Y36377620D01*
X10826666Y37377620D02*
X10350476Y37377620D01*
X10302857Y36901429D01*
X10350476Y36949048D01*
X10445714Y36996667D01*
X10683809Y36996667D01*
X10779047Y36949048D01*
X10826666Y36901429D01*
X10874285Y36806191D01*
X10874285Y36568096D01*
X10826666Y36472858D01*
X10779047Y36425239D01*
X10683809Y36377620D01*
X10445714Y36377620D01*
X10350476Y36425239D01*
X10302857Y36472858D01*
X9445714Y39203334D02*
X9921904Y39203334D01*
X9350476Y38917620D02*
X9683809Y39917620D01*
X10017142Y38917620D01*
X10779047Y39917620D02*
X10588571Y39917620D01*
X10493333Y39870000D01*
X10445714Y39822381D01*
X10350476Y39679524D01*
X10302857Y39489048D01*
X10302857Y39108096D01*
X10350476Y39012858D01*
X10398095Y38965239D01*
X10493333Y38917620D01*
X10683809Y38917620D01*
X10779047Y38965239D01*
X10826666Y39012858D01*
X10874285Y39108096D01*
X10874285Y39346191D01*
X10826666Y39441429D01*
X10779047Y39489048D01*
X10683809Y39536667D01*
X10493333Y39536667D01*
X10398095Y39489048D01*
X10350476Y39441429D01*
X10302857Y39346191D01*
X9445714Y41743334D02*
X9921904Y41743334D01*
X9350476Y41457620D02*
X9683809Y42457620D01*
X10017142Y41457620D01*
X10255238Y42457620D02*
X10921904Y42457620D01*
X10493333Y41457620D01*
X9445714Y44283334D02*
X9921904Y44283334D01*
X9350476Y43997620D02*
X9683809Y44997620D01*
X10017142Y43997620D01*
X10493333Y44569048D02*
X10398095Y44616667D01*
X10350476Y44664286D01*
X10302857Y44759524D01*
X10302857Y44807143D01*
X10350476Y44902381D01*
X10398095Y44950000D01*
X10493333Y44997620D01*
X10683809Y44997620D01*
X10779047Y44950000D01*
X10826666Y44902381D01*
X10874285Y44807143D01*
X10874285Y44759524D01*
X10826666Y44664286D01*
X10779047Y44616667D01*
X10683809Y44569048D01*
X10493333Y44569048D01*
X10398095Y44521429D01*
X10350476Y44473810D01*
X10302857Y44378572D01*
X10302857Y44188096D01*
X10350476Y44092858D01*
X10398095Y44045239D01*
X10493333Y43997620D01*
X10683809Y43997620D01*
X10779047Y44045239D01*
X10826666Y44092858D01*
X10874285Y44188096D01*
X10874285Y44378572D01*
X10826666Y44473810D01*
X10779047Y44521429D01*
X10683809Y44569048D01*
X9445714Y46823334D02*
X9921904Y46823334D01*
X9350476Y46537620D02*
X9683809Y47537620D01*
X10017142Y46537620D01*
X10398095Y46537620D02*
X10588571Y46537620D01*
X10683809Y46585239D01*
X10731428Y46632858D01*
X10826666Y46775715D01*
X10874285Y46966191D01*
X10874285Y47347143D01*
X10826666Y47442381D01*
X10779047Y47490000D01*
X10683809Y47537620D01*
X10493333Y47537620D01*
X10398095Y47490000D01*
X10350476Y47442381D01*
X10302857Y47347143D01*
X10302857Y47109048D01*
X10350476Y47013810D01*
X10398095Y46966191D01*
X10493333Y46918572D01*
X10683809Y46918572D01*
X10779047Y46966191D01*
X10826666Y47013810D01*
X10874285Y47109048D01*
X8969523Y49363334D02*
X9445714Y49363334D01*
X8874285Y49077620D02*
X9207619Y50077620D01*
X9540952Y49077620D01*
X10398095Y49077620D02*
X9826666Y49077620D01*
X10112380Y49077620D02*
X10112380Y50077620D01*
X10017142Y49934762D01*
X9921904Y49839524D01*
X9826666Y49791905D01*
X11017142Y50077620D02*
X11112380Y50077620D01*
X11207619Y50030000D01*
X11255238Y49982381D01*
X11302857Y49887143D01*
X11350476Y49696667D01*
X11350476Y49458572D01*
X11302857Y49268096D01*
X11255238Y49172858D01*
X11207619Y49125239D01*
X11112380Y49077620D01*
X11017142Y49077620D01*
X10921904Y49125239D01*
X10874285Y49172858D01*
X10826666Y49268096D01*
X10779047Y49458572D01*
X10779047Y49696667D01*
X10826666Y49887143D01*
X10874285Y49982381D01*
X10921904Y50030000D01*
X11017142Y50077620D01*
X8969523Y51903334D02*
X9445714Y51903334D01*
X8874285Y51617620D02*
X9207619Y52617620D01*
X9540952Y51617620D01*
X10398095Y51617620D02*
X9826666Y51617620D01*
X10112380Y51617620D02*
X10112380Y52617620D01*
X10017142Y52474762D01*
X9921904Y52379524D01*
X9826666Y52331905D01*
X11350476Y51617620D02*
X10779047Y51617620D01*
X11064761Y51617620D02*
X11064761Y52617620D01*
X10969523Y52474762D01*
X10874285Y52379524D01*
X10779047Y52331905D01*
X8969523Y54443334D02*
X9445714Y54443334D01*
X8874285Y54157620D02*
X9207619Y55157620D01*
X9540952Y54157620D01*
X10398095Y54157620D02*
X9826666Y54157620D01*
X10112380Y54157620D02*
X10112380Y55157620D01*
X10017142Y55014762D01*
X9921904Y54919524D01*
X9826666Y54871905D01*
X10779047Y55062381D02*
X10826666Y55110000D01*
X10921904Y55157620D01*
X11160000Y55157620D01*
X11255238Y55110000D01*
X11302857Y55062381D01*
X11350476Y54967143D01*
X11350476Y54871905D01*
X11302857Y54729048D01*
X10731428Y54157620D01*
X11350476Y54157620D01*
X8969523Y56983334D02*
X9445714Y56983334D01*
X8874285Y56697620D02*
X9207619Y57697620D01*
X9540952Y56697620D01*
X10398095Y56697620D02*
X9826666Y56697620D01*
X10112380Y56697620D02*
X10112380Y57697620D01*
X10017142Y57554762D01*
X9921904Y57459524D01*
X9826666Y57411905D01*
X10731428Y57697620D02*
X11350476Y57697620D01*
X11017142Y57316667D01*
X11160000Y57316667D01*
X11255238Y57269048D01*
X11302857Y57221429D01*
X11350476Y57126191D01*
X11350476Y56888096D01*
X11302857Y56792858D01*
X11255238Y56745239D01*
X11160000Y56697620D01*
X10874285Y56697620D01*
X10779047Y56745239D01*
X10731428Y56792858D01*
X8969523Y59523334D02*
X9445714Y59523334D01*
X8874285Y59237620D02*
X9207619Y60237620D01*
X9540952Y59237620D01*
X10398095Y59237620D02*
X9826666Y59237620D01*
X10112380Y59237620D02*
X10112380Y60237620D01*
X10017142Y60094762D01*
X9921904Y59999524D01*
X9826666Y59951905D01*
X11255238Y59904286D02*
X11255238Y59237620D01*
X11017142Y60285239D02*
X10779047Y59570953D01*
X11398095Y59570953D01*
X8969523Y62063334D02*
X9445714Y62063334D01*
X8874285Y61777620D02*
X9207619Y62777620D01*
X9540952Y61777620D01*
X10398095Y61777620D02*
X9826666Y61777620D01*
X10112380Y61777620D02*
X10112380Y62777620D01*
X10017142Y62634762D01*
X9921904Y62539524D01*
X9826666Y62491905D01*
X11302857Y62777620D02*
X10826666Y62777620D01*
X10779047Y62301429D01*
X10826666Y62349048D01*
X10921904Y62396667D01*
X11160000Y62396667D01*
X11255238Y62349048D01*
X11302857Y62301429D01*
X11350476Y62206191D01*
X11350476Y61968096D01*
X11302857Y61872858D01*
X11255238Y61825239D01*
X11160000Y61777620D01*
X10921904Y61777620D01*
X10826666Y61825239D01*
X10779047Y61872858D01*
D11*
X90104761Y77833334D02*
X88104761Y77833334D01*
X89533333Y78500000D01*
X88104761Y79166667D01*
X90104761Y79166667D01*
X88104761Y79928572D02*
X88104761Y81261905D01*
X90104761Y79928572D01*
X90104761Y81261905D01*
X89342857Y82023810D02*
X89342857Y83547620D01*
X88295238Y84404762D02*
X88200000Y84500000D01*
X88104761Y84690477D01*
X88104761Y85166667D01*
X88200000Y85357143D01*
X88295238Y85452381D01*
X88485714Y85547620D01*
X88676190Y85547620D01*
X88961904Y85452381D01*
X90104761Y84309524D01*
X90104761Y85547620D01*
X88104761Y86785715D02*
X88104761Y86976191D01*
X88200000Y87166667D01*
X88295238Y87261905D01*
X88485714Y87357143D01*
X88866666Y87452381D01*
X89342857Y87452381D01*
X89723809Y87357143D01*
X89914285Y87261905D01*
X90009523Y87166667D01*
X90104761Y86976191D01*
X90104761Y86785715D01*
X90009523Y86595239D01*
X89914285Y86500000D01*
X89723809Y86404762D01*
X89342857Y86309524D01*
X88866666Y86309524D01*
X88485714Y86404762D01*
X88295238Y86500000D01*
X88200000Y86595239D01*
X88104761Y86785715D01*
X88104761Y88690477D02*
X88104761Y88880953D01*
X88200000Y89071429D01*
X88295238Y89166667D01*
X88485714Y89261905D01*
X88866666Y89357143D01*
X89342857Y89357143D01*
X89723809Y89261905D01*
X89914285Y89166667D01*
X90009523Y89071429D01*
X90104761Y88880953D01*
X90104761Y88690477D01*
X90009523Y88500000D01*
X89914285Y88404762D01*
X89723809Y88309524D01*
X89342857Y88214286D01*
X88866666Y88214286D01*
X88485714Y88309524D01*
X88295238Y88404762D01*
X88200000Y88500000D01*
X88104761Y88690477D01*
X88104761Y90595239D02*
X88104761Y90785715D01*
X88200000Y90976191D01*
X88295238Y91071429D01*
X88485714Y91166667D01*
X88866666Y91261905D01*
X89342857Y91261905D01*
X89723809Y91166667D01*
X89914285Y91071429D01*
X90009523Y90976191D01*
X90104761Y90785715D01*
X90104761Y90595239D01*
X90009523Y90404762D01*
X89914285Y90309524D01*
X89723809Y90214286D01*
X89342857Y90119048D01*
X88866666Y90119048D01*
X88485714Y90214286D01*
X88295238Y90309524D01*
X88200000Y90404762D01*
X88104761Y90595239D01*
X93309523Y79357143D02*
X93404761Y79642858D01*
X93404761Y80119048D01*
X93309523Y80309524D01*
X93214285Y80404762D01*
X93023809Y80500000D01*
X92833333Y80500000D01*
X92642857Y80404762D01*
X92547619Y80309524D01*
X92452380Y80119048D01*
X92357142Y79738096D01*
X92261904Y79547620D01*
X92166666Y79452381D01*
X91976190Y79357143D01*
X91785714Y79357143D01*
X91595238Y79452381D01*
X91500000Y79547620D01*
X91404761Y79738096D01*
X91404761Y80214286D01*
X91500000Y80500000D01*
X93404761Y81357143D02*
X91404761Y81357143D01*
X91404761Y81833334D01*
X91500000Y82119048D01*
X91690476Y82309524D01*
X91880952Y82404762D01*
X92261904Y82500000D01*
X92547619Y82500000D01*
X92928571Y82404762D01*
X93119047Y82309524D01*
X93309523Y82119048D01*
X93404761Y81833334D01*
X93404761Y81357143D01*
X92642857Y83357143D02*
X92642857Y84880953D01*
X93214285Y86976191D02*
X93309523Y86880953D01*
X93404761Y86595239D01*
X93404761Y86404762D01*
X93309523Y86119048D01*
X93119047Y85928572D01*
X92928571Y85833334D01*
X92547619Y85738096D01*
X92261904Y85738096D01*
X91880952Y85833334D01*
X91690476Y85928572D01*
X91500000Y86119048D01*
X91404761Y86404762D01*
X91404761Y86595239D01*
X91500000Y86880953D01*
X91595238Y86976191D01*
X92833333Y87738096D02*
X92833333Y88690477D01*
X93404761Y87547620D02*
X91404761Y88214286D01*
X93404761Y88880953D01*
X93404761Y90690477D02*
X92452380Y90023810D01*
X93404761Y89547620D02*
X91404761Y89547620D01*
X91404761Y90309524D01*
X91500000Y90500000D01*
X91595238Y90595239D01*
X91785714Y90690477D01*
X92071428Y90690477D01*
X92261904Y90595239D01*
X92357142Y90500000D01*
X92452380Y90309524D01*
X92452380Y89547620D01*
X93404761Y91547620D02*
X91404761Y91547620D01*
X91404761Y92023810D01*
X91500000Y92309524D01*
X91690476Y92500000D01*
X91880952Y92595239D01*
X92261904Y92690477D01*
X92547619Y92690477D01*
X92928571Y92595239D01*
X93119047Y92500000D01*
X93309523Y92309524D01*
X93404761Y92023810D01*
X93404761Y91547620D01*
X94704761Y79690477D02*
X96323809Y79690477D01*
X96514285Y79785715D01*
X96609523Y79880953D01*
X96704761Y80071429D01*
X96704761Y80452381D01*
X96609523Y80642858D01*
X96514285Y80738096D01*
X96323809Y80833334D01*
X94704761Y80833334D01*
X96704761Y81785715D02*
X94704761Y81785715D01*
X96704761Y82928572D01*
X94704761Y82928572D01*
X96704761Y83880953D02*
X94704761Y83880953D01*
X94704761Y84547620D02*
X94704761Y85690477D01*
X96704761Y85119048D02*
X94704761Y85119048D01*
X96704761Y89023810D02*
X95752380Y88357143D01*
X96704761Y87880953D02*
X94704761Y87880953D01*
X94704761Y88642858D01*
X94800000Y88833334D01*
X94895238Y88928572D01*
X95085714Y89023810D01*
X95371428Y89023810D01*
X95561904Y88928572D01*
X95657142Y88833334D01*
X95752380Y88642858D01*
X95752380Y87880953D01*
X96609523Y90642858D02*
X96704761Y90452381D01*
X96704761Y90071429D01*
X96609523Y89880953D01*
X96419047Y89785715D01*
X95657142Y89785715D01*
X95466666Y89880953D01*
X95371428Y90071429D01*
X95371428Y90452381D01*
X95466666Y90642858D01*
X95657142Y90738096D01*
X95847619Y90738096D01*
X96038095Y89785715D01*
X95371428Y91404762D02*
X96704761Y91880953D01*
X95371428Y92357143D01*
X94895238Y93023810D02*
X94800000Y93119048D01*
X94704761Y93309524D01*
X94704761Y93785715D01*
X94800000Y93976191D01*
X94895238Y94071429D01*
X95085714Y94166667D01*
X95276190Y94166667D01*
X95561904Y94071429D01*
X96704761Y92928572D01*
X96704761Y94166667D01*
X96514285Y95023810D02*
X96609523Y95119048D01*
X96704761Y95023810D01*
X96609523Y94928572D01*
X96514285Y95023810D01*
X96704761Y95023810D01*
X94704761Y95785715D02*
X94704761Y97023810D01*
X95466666Y96357143D01*
X95466666Y96642858D01*
X95561904Y96833334D01*
X95657142Y96928572D01*
X95847619Y97023810D01*
X96323809Y97023810D01*
X96514285Y96928572D01*
X96609523Y96833334D01*
X96704761Y96642858D01*
X96704761Y96071429D01*
X96609523Y95880953D01*
X96514285Y95785715D01*
D12*
X34490000Y13600000D02*
X35195000Y13600000D01*
X32455000Y13600000D02*
X33160000Y13600000D01*
X34490000Y9360000D02*
X35195000Y9360000D01*
X32455000Y9360000D02*
X33160000Y9360000D01*
X35195000Y9360000D02*
X35195000Y13600000D01*
X32455000Y9360000D02*
X32455000Y13600000D01*
X87690000Y6005000D02*
X87690000Y11065000D01*
X36770000Y6005000D02*
X87690000Y6005000D01*
X36770000Y18125000D02*
X36770000Y6005000D01*
X87690000Y18125000D02*
X36770000Y18125000D01*
X87690000Y13065000D02*
X87690000Y18125000D01*
X87690000Y11065000D02*
G75*
G02*
X87690000Y13065000I0J1000000D01*
G01*
X68150000Y76610000D02*
X68150000Y52910000D01*
X99950000Y76610000D02*
X68150000Y76610000D01*
X99950000Y52910000D02*
X99950000Y76610000D01*
X68150000Y52910000D02*
X99950000Y52910000D01*
X68520000Y76260000D02*
X69850000Y76260000D01*
X68520000Y74930000D02*
X68520000Y76260000D01*
X68520000Y73660000D02*
X71180000Y73660000D01*
X71180000Y73660000D02*
X71180000Y53280000D01*
X68520000Y73660000D02*
X68520000Y53280000D01*
X68520000Y53280000D02*
X71180000Y53280000D01*
X99822000Y27813000D02*
X99822000Y45847000D01*
X66548000Y27813000D02*
X99822000Y27813000D01*
X94615000Y43180000D02*
X66548000Y43180000D01*
X94615000Y43180000D02*
X94615000Y45847000D01*
X66548000Y45847000D02*
X66548000Y27810000D01*
X97155000Y30480000D02*
X66548000Y30480000D01*
X97155000Y30480000D02*
X97155000Y27810000D01*
X99822000Y45847000D02*
X97155000Y45847000D01*
X94615000Y45847000D02*
X66548000Y45847000D01*
X97155000Y43180000D02*
X97155000Y45847000D01*
X94615000Y43180000D02*
X97155000Y43180000D01*
X18220000Y97820000D02*
X18220000Y98525000D01*
X18220000Y95785000D02*
X18220000Y96490000D01*
X22460000Y97820000D02*
X22460000Y98525000D01*
X22460000Y95785000D02*
X22460000Y96490000D01*
X22460000Y98525000D02*
X18220000Y98525000D01*
X22460000Y95785000D02*
X18220000Y95785000D01*
X22460000Y65940000D02*
X18220000Y65940000D01*
X22460000Y68680000D02*
X18220000Y68680000D01*
X22460000Y65940000D02*
X22460000Y66645000D01*
X22460000Y67975000D02*
X22460000Y68680000D01*
X18220000Y65940000D02*
X18220000Y66645000D01*
X18220000Y67975000D02*
X18220000Y68680000D01*
X18220000Y36860000D02*
X18220000Y37565000D01*
X18220000Y34825000D02*
X18220000Y35530000D01*
X22460000Y36860000D02*
X22460000Y37565000D01*
X22460000Y34825000D02*
X22460000Y35530000D01*
X22460000Y37565000D02*
X18220000Y37565000D01*
X22460000Y34825000D02*
X18220000Y34825000D01*
X47860000Y63400000D02*
X43620000Y63400000D01*
X47860000Y66140000D02*
X43620000Y66140000D01*
X47860000Y63400000D02*
X47860000Y64105000D01*
X47860000Y65435000D02*
X47860000Y66140000D01*
X43620000Y63400000D02*
X43620000Y64105000D01*
X43620000Y65435000D02*
X43620000Y66140000D01*
X47860000Y95785000D02*
X43620000Y95785000D01*
X47860000Y98525000D02*
X43620000Y98525000D01*
X47860000Y95785000D02*
X47860000Y96490000D01*
X47860000Y97820000D02*
X47860000Y98525000D01*
X43620000Y95785000D02*
X43620000Y96490000D01*
X43620000Y97820000D02*
X43620000Y98525000D01*
X3750000Y76000000D02*
X5080000Y76000000D01*
X3750000Y74670000D02*
X3750000Y76000000D01*
X6350000Y76000000D02*
X8950000Y76000000D01*
X6350000Y73400000D02*
X6350000Y76000000D01*
X3750000Y73400000D02*
X6350000Y73400000D01*
X8950000Y76000000D02*
X8950000Y20000000D01*
X3750000Y73400000D02*
X3750000Y20000000D01*
X3750000Y20000000D02*
X8950000Y20000000D01*
X19320000Y95310000D02*
X18070000Y95310000D01*
X18070000Y95310000D02*
X18070000Y69790000D01*
X18070000Y69790000D02*
X22570000Y69790000D01*
X22570000Y69790000D02*
X22570000Y95310000D01*
X22570000Y95310000D02*
X21320000Y95310000D01*
X21320000Y95310000D02*
G75*
G02*
X19320000Y95310000I-1000000J0D01*
G01*
X22570000Y65465000D02*
X21320000Y65465000D01*
X22570000Y39945000D02*
X22570000Y65465000D01*
X18070000Y39945000D02*
X22570000Y39945000D01*
X18070000Y65465000D02*
X18070000Y39945000D01*
X19320000Y65465000D02*
X18070000Y65465000D01*
X21320000Y65465000D02*
G75*
G02*
X19320000Y65465000I-1000000J0D01*
G01*
X19320000Y34350000D02*
X18070000Y34350000D01*
X18070000Y34350000D02*
X18070000Y3750000D01*
X18070000Y3750000D02*
X22570000Y3750000D01*
X22570000Y3750000D02*
X22570000Y34350000D01*
X22570000Y34350000D02*
X21320000Y34350000D01*
X21320000Y34350000D02*
G75*
G02*
X19320000Y34350000I-1000000J0D01*
G01*
X44720000Y95310000D02*
X43470000Y95310000D01*
X43470000Y95310000D02*
X43470000Y69790000D01*
X43470000Y69790000D02*
X47970000Y69790000D01*
X47970000Y69790000D02*
X47970000Y95310000D01*
X47970000Y95310000D02*
X46720000Y95310000D01*
X46720000Y95310000D02*
G75*
G02*
X44720000Y95310000I-1000000J0D01*
G01*
X10240000Y85705000D02*
G75*
G03*
X10240000Y85705000I-2620000J0D01*
G01*
X6145000Y82900225D02*
X6145000Y83400225D01*
X5895000Y83150225D02*
X6395000Y83150225D01*
X60265000Y97850000D02*
X60265000Y95190000D01*
X65405000Y97850000D02*
X60265000Y97850000D01*
X65405000Y95190000D02*
X60265000Y95190000D01*
X65405000Y97850000D02*
X65405000Y95190000D01*
X66675000Y97850000D02*
X68005000Y97850000D01*
X68005000Y97850000D02*
X68005000Y96520000D01*
X44720000Y62925000D02*
X39260000Y62925000D01*
X39260000Y62925000D02*
X39260000Y27245000D01*
X39260000Y27245000D02*
X52180000Y27245000D01*
X52180000Y27245000D02*
X52180000Y62925000D01*
X52180000Y62925000D02*
X46720000Y62925000D01*
X46720000Y62925000D02*
G75*
G02*
X44720000Y62925000I-1000000J0D01*
G01*
X60265000Y69850000D02*
X62925000Y69850000D01*
X60265000Y69850000D02*
X60265000Y57090000D01*
X60265000Y57090000D02*
X62925000Y57090000D01*
X62925000Y69850000D02*
X62925000Y57090000D01*
X62925000Y72450000D02*
X62925000Y71120000D01*
X61595000Y72450000D02*
X62925000Y72450000D01*
D10*
X32742142Y7453334D02*
X32789761Y7405715D01*
X32837380Y7262858D01*
X32837380Y7167620D01*
X32789761Y7024762D01*
X32694523Y6929524D01*
X32599285Y6881905D01*
X32408809Y6834286D01*
X32265952Y6834286D01*
X32075476Y6881905D01*
X31980238Y6929524D01*
X31885000Y7024762D01*
X31837380Y7167620D01*
X31837380Y7262858D01*
X31885000Y7405715D01*
X31932619Y7453334D01*
X31837380Y7786667D02*
X31837380Y8405715D01*
X32218333Y8072381D01*
X32218333Y8215239D01*
X32265952Y8310477D01*
X32313571Y8358096D01*
X32408809Y8405715D01*
X32646904Y8405715D01*
X32742142Y8358096D01*
X32789761Y8310477D01*
X32837380Y8215239D01*
X32837380Y7929524D01*
X32789761Y7834286D01*
X32742142Y7786667D01*
X88452380Y7738096D02*
X89261904Y7738096D01*
X89357142Y7785715D01*
X89404761Y7833334D01*
X89452380Y7928572D01*
X89452380Y8119048D01*
X89404761Y8214286D01*
X89357142Y8261905D01*
X89261904Y8309524D01*
X88452380Y8309524D01*
X88452380Y8690477D02*
X88452380Y9309524D01*
X88833333Y8976191D01*
X88833333Y9119048D01*
X88880952Y9214286D01*
X88928571Y9261905D01*
X89023809Y9309524D01*
X89261904Y9309524D01*
X89357142Y9261905D01*
X89404761Y9214286D01*
X89452380Y9119048D01*
X89452380Y8833334D01*
X89404761Y8738096D01*
X89357142Y8690477D01*
X84666666Y60547620D02*
X84666666Y59833334D01*
X84619047Y59690477D01*
X84523809Y59595239D01*
X84380952Y59547620D01*
X84285714Y59547620D01*
X85095238Y60452381D02*
X85142857Y60500000D01*
X85238095Y60547620D01*
X85476190Y60547620D01*
X85571428Y60500000D01*
X85619047Y60452381D01*
X85666666Y60357143D01*
X85666666Y60261905D01*
X85619047Y60119048D01*
X85047619Y59547620D01*
X85666666Y59547620D01*
X77382666Y57317596D02*
X77382666Y57793786D01*
X77668380Y57222358D02*
X76668380Y57555691D01*
X77668380Y57889024D01*
X77144571Y58222358D02*
X77144571Y58555691D01*
X77668380Y58698548D02*
X77668380Y58222358D01*
X76668380Y58222358D01*
X76668380Y58698548D01*
X77287428Y59127120D02*
X77287428Y59889024D01*
X77668380Y60365215D02*
X77001714Y60365215D01*
X77096952Y60365215D02*
X77049333Y60412834D01*
X77001714Y60508072D01*
X77001714Y60650929D01*
X77049333Y60746167D01*
X77144571Y60793786D01*
X77668380Y60793786D01*
X77144571Y60793786D02*
X77049333Y60841405D01*
X77001714Y60936643D01*
X77001714Y61079500D01*
X77049333Y61174739D01*
X77144571Y61222358D01*
X77668380Y61222358D01*
X77668380Y61698548D02*
X77001714Y61698548D01*
X76668380Y61698548D02*
X76716000Y61650929D01*
X76763619Y61698548D01*
X76716000Y61746167D01*
X76668380Y61698548D01*
X76763619Y61698548D01*
X77620761Y62603310D02*
X77668380Y62508072D01*
X77668380Y62317596D01*
X77620761Y62222358D01*
X77573142Y62174739D01*
X77477904Y62127120D01*
X77192190Y62127120D01*
X77096952Y62174739D01*
X77049333Y62222358D01*
X77001714Y62317596D01*
X77001714Y62508072D01*
X77049333Y62603310D01*
X77668380Y63031881D02*
X77001714Y63031881D01*
X77192190Y63031881D02*
X77096952Y63079500D01*
X77049333Y63127120D01*
X77001714Y63222358D01*
X77001714Y63317596D01*
X77668380Y63793786D02*
X77620761Y63698548D01*
X77573142Y63650929D01*
X77477904Y63603310D01*
X77192190Y63603310D01*
X77096952Y63650929D01*
X77049333Y63698548D01*
X77001714Y63793786D01*
X77001714Y63936643D01*
X77049333Y64031881D01*
X77096952Y64079500D01*
X77192190Y64127120D01*
X77477904Y64127120D01*
X77573142Y64079500D01*
X77620761Y64031881D01*
X77668380Y63936643D01*
X77668380Y63793786D01*
X77620761Y64508072D02*
X77668380Y64650929D01*
X77668380Y64889024D01*
X77620761Y64984262D01*
X77573142Y65031881D01*
X77477904Y65079500D01*
X77382666Y65079500D01*
X77287428Y65031881D01*
X77239809Y64984262D01*
X77192190Y64889024D01*
X77144571Y64698548D01*
X77096952Y64603310D01*
X77049333Y64555691D01*
X76954095Y64508072D01*
X76858857Y64508072D01*
X76763619Y64555691D01*
X76716000Y64603310D01*
X76668380Y64698548D01*
X76668380Y64936643D01*
X76716000Y65079500D01*
X77668380Y65508072D02*
X76668380Y65508072D01*
X76668380Y65746167D01*
X76716000Y65889024D01*
X76811238Y65984262D01*
X76906476Y66031881D01*
X77096952Y66079500D01*
X77239809Y66079500D01*
X77430285Y66031881D01*
X77525523Y65984262D01*
X77620761Y65889024D01*
X77668380Y65746167D01*
X77668380Y65508072D01*
X77287428Y66508072D02*
X77287428Y67269977D01*
X77668380Y68222358D02*
X77668380Y67746167D01*
X76668380Y67746167D01*
X77668380Y69031881D02*
X77668380Y68555691D01*
X76668380Y68555691D01*
X77573142Y69936643D02*
X77620761Y69889024D01*
X77668380Y69746167D01*
X77668380Y69650929D01*
X77620761Y69508072D01*
X77525523Y69412834D01*
X77430285Y69365215D01*
X77239809Y69317596D01*
X77096952Y69317596D01*
X76906476Y69365215D01*
X76811238Y69412834D01*
X76716000Y69508072D01*
X76668380Y69650929D01*
X76668380Y69746167D01*
X76716000Y69889024D01*
X76763619Y69936643D01*
X77668380Y70365215D02*
X76668380Y70365215D01*
X77668380Y70936643D01*
X76668380Y70936643D01*
X76668380Y71269977D02*
X77668380Y71603310D01*
X76668380Y71936643D01*
X84238095Y35047620D02*
X84238095Y34238096D01*
X84285714Y34142858D01*
X84333333Y34095239D01*
X84428571Y34047620D01*
X84619047Y34047620D01*
X84714285Y34095239D01*
X84761904Y34142858D01*
X84809523Y34238096D01*
X84809523Y35047620D01*
X85714285Y34714286D02*
X85714285Y34047620D01*
X85476190Y35095239D02*
X85238095Y34380953D01*
X85857142Y34380953D01*
X16333333Y97142858D02*
X16285714Y97095239D01*
X16142857Y97047620D01*
X16047619Y97047620D01*
X15904761Y97095239D01*
X15809523Y97190477D01*
X15761904Y97285715D01*
X15714285Y97476191D01*
X15714285Y97619048D01*
X15761904Y97809524D01*
X15809523Y97904762D01*
X15904761Y98000000D01*
X16047619Y98047620D01*
X16142857Y98047620D01*
X16285714Y98000000D01*
X16333333Y97952381D01*
X16714285Y97952381D02*
X16761904Y98000000D01*
X16857142Y98047620D01*
X17095238Y98047620D01*
X17190476Y98000000D01*
X17238095Y97952381D01*
X17285714Y97857143D01*
X17285714Y97761905D01*
X17238095Y97619048D01*
X16666666Y97047620D01*
X17285714Y97047620D01*
X16333333Y66642858D02*
X16285714Y66595239D01*
X16142857Y66547620D01*
X16047619Y66547620D01*
X15904761Y66595239D01*
X15809523Y66690477D01*
X15761904Y66785715D01*
X15714285Y66976191D01*
X15714285Y67119048D01*
X15761904Y67309524D01*
X15809523Y67404762D01*
X15904761Y67500000D01*
X16047619Y67547620D01*
X16142857Y67547620D01*
X16285714Y67500000D01*
X16333333Y67452381D01*
X17190476Y67214286D02*
X17190476Y66547620D01*
X16952380Y67595239D02*
X16714285Y66880953D01*
X17333333Y66880953D01*
X16833333Y35642858D02*
X16785714Y35595239D01*
X16642857Y35547620D01*
X16547619Y35547620D01*
X16404761Y35595239D01*
X16309523Y35690477D01*
X16261904Y35785715D01*
X16214285Y35976191D01*
X16214285Y36119048D01*
X16261904Y36309524D01*
X16309523Y36404762D01*
X16404761Y36500000D01*
X16547619Y36547620D01*
X16642857Y36547620D01*
X16785714Y36500000D01*
X16833333Y36452381D01*
X17738095Y36547620D02*
X17261904Y36547620D01*
X17214285Y36071429D01*
X17261904Y36119048D01*
X17357142Y36166667D01*
X17595238Y36166667D01*
X17690476Y36119048D01*
X17738095Y36071429D01*
X17785714Y35976191D01*
X17785714Y35738096D01*
X17738095Y35642858D01*
X17690476Y35595239D01*
X17595238Y35547620D01*
X17357142Y35547620D01*
X17261904Y35595239D01*
X17214285Y35642858D01*
X49633333Y64507858D02*
X49585714Y64460239D01*
X49442857Y64412620D01*
X49347619Y64412620D01*
X49204761Y64460239D01*
X49109523Y64555477D01*
X49061904Y64650715D01*
X49014285Y64841191D01*
X49014285Y64984048D01*
X49061904Y65174524D01*
X49109523Y65269762D01*
X49204761Y65365000D01*
X49347619Y65412620D01*
X49442857Y65412620D01*
X49585714Y65365000D01*
X49633333Y65317381D01*
X50490476Y65412620D02*
X50300000Y65412620D01*
X50204761Y65365000D01*
X50157142Y65317381D01*
X50061904Y65174524D01*
X50014285Y64984048D01*
X50014285Y64603096D01*
X50061904Y64507858D01*
X50109523Y64460239D01*
X50204761Y64412620D01*
X50395238Y64412620D01*
X50490476Y64460239D01*
X50538095Y64507858D01*
X50585714Y64603096D01*
X50585714Y64841191D01*
X50538095Y64936429D01*
X50490476Y64984048D01*
X50395238Y65031667D01*
X50204761Y65031667D01*
X50109523Y64984048D01*
X50061904Y64936429D01*
X50014285Y64841191D01*
X41518333Y96952858D02*
X41470714Y96905239D01*
X41327857Y96857620D01*
X41232619Y96857620D01*
X41089761Y96905239D01*
X40994523Y97000477D01*
X40946904Y97095715D01*
X40899285Y97286191D01*
X40899285Y97429048D01*
X40946904Y97619524D01*
X40994523Y97714762D01*
X41089761Y97810000D01*
X41232619Y97857620D01*
X41327857Y97857620D01*
X41470714Y97810000D01*
X41518333Y97762381D01*
X41851666Y97857620D02*
X42518333Y97857620D01*
X42089761Y96857620D01*
X4952380Y77166667D02*
X5666666Y77166667D01*
X5809523Y77119048D01*
X5904761Y77023810D01*
X5952380Y76880953D01*
X5952380Y76785715D01*
X5952380Y78166667D02*
X5952380Y77595239D01*
X5952380Y77880953D02*
X4952380Y77880953D01*
X5095238Y77785715D01*
X5190476Y77690477D01*
X5238095Y77595239D01*
X13452380Y75738096D02*
X14261904Y75738096D01*
X14357142Y75785715D01*
X14404761Y75833334D01*
X14452380Y75928572D01*
X14452380Y76119048D01*
X14404761Y76214286D01*
X14357142Y76261905D01*
X14261904Y76309524D01*
X13452380Y76309524D01*
X14452380Y77309524D02*
X14452380Y76738096D01*
X14452380Y77023810D02*
X13452380Y77023810D01*
X13595238Y76928572D01*
X13690476Y76833334D01*
X13738095Y76738096D01*
X13452380Y48238096D02*
X14261904Y48238096D01*
X14357142Y48285715D01*
X14404761Y48333334D01*
X14452380Y48428572D01*
X14452380Y48619048D01*
X14404761Y48714286D01*
X14357142Y48761905D01*
X14261904Y48809524D01*
X13452380Y48809524D01*
X13547619Y49238096D02*
X13500000Y49285715D01*
X13452380Y49380953D01*
X13452380Y49619048D01*
X13500000Y49714286D01*
X13547619Y49761905D01*
X13642857Y49809524D01*
X13738095Y49809524D01*
X13880952Y49761905D01*
X14452380Y49190477D01*
X14452380Y49809524D01*
X13452380Y12238096D02*
X14261904Y12238096D01*
X14357142Y12285715D01*
X14404761Y12333334D01*
X14452380Y12428572D01*
X14452380Y12619048D01*
X14404761Y12714286D01*
X14357142Y12761905D01*
X14261904Y12809524D01*
X13452380Y12809524D01*
X13452380Y13761905D02*
X13452380Y13285715D01*
X13928571Y13238096D01*
X13880952Y13285715D01*
X13833333Y13380953D01*
X13833333Y13619048D01*
X13880952Y13714286D01*
X13928571Y13761905D01*
X14023809Y13809524D01*
X14261904Y13809524D01*
X14357142Y13761905D01*
X14404761Y13714286D01*
X14452380Y13619048D01*
X14452380Y13380953D01*
X14404761Y13285715D01*
X14357142Y13238096D01*
X41423095Y68857620D02*
X41423095Y68048096D01*
X41470714Y67952858D01*
X41518333Y67905239D01*
X41613571Y67857620D01*
X41804047Y67857620D01*
X41899285Y67905239D01*
X41946904Y67952858D01*
X41994523Y68048096D01*
X41994523Y68857620D01*
X42518333Y67857620D02*
X42708809Y67857620D01*
X42804047Y67905239D01*
X42851666Y67952858D01*
X42946904Y68095715D01*
X42994523Y68286191D01*
X42994523Y68667143D01*
X42946904Y68762381D01*
X42899285Y68810000D01*
X42804047Y68857620D01*
X42613571Y68857620D01*
X42518333Y68810000D01*
X42470714Y68762381D01*
X42423095Y68667143D01*
X42423095Y68429048D01*
X42470714Y68333810D01*
X42518333Y68286191D01*
X42613571Y68238572D01*
X42804047Y68238572D01*
X42899285Y68286191D01*
X42946904Y68333810D01*
X42994523Y68429048D01*
X4227142Y85538334D02*
X4274761Y85490715D01*
X4322380Y85347858D01*
X4322380Y85252620D01*
X4274761Y85109762D01*
X4179523Y85014524D01*
X4084285Y84966905D01*
X3893809Y84919286D01*
X3750952Y84919286D01*
X3560476Y84966905D01*
X3465238Y85014524D01*
X3370000Y85109762D01*
X3322380Y85252620D01*
X3322380Y85347858D01*
X3370000Y85490715D01*
X3417619Y85538334D01*
X4322380Y86490715D02*
X4322380Y85919286D01*
X4322380Y86205000D02*
X3322380Y86205000D01*
X3465238Y86109762D01*
X3560476Y86014524D01*
X3608095Y85919286D01*
X68243095Y96115239D02*
X68385952Y96067620D01*
X68624047Y96067620D01*
X68719285Y96115239D01*
X68766904Y96162858D01*
X68814523Y96258096D01*
X68814523Y96353334D01*
X68766904Y96448572D01*
X68719285Y96496191D01*
X68624047Y96543810D01*
X68433571Y96591429D01*
X68338333Y96639048D01*
X68290714Y96686667D01*
X68243095Y96781905D01*
X68243095Y96877143D01*
X68290714Y96972381D01*
X68338333Y97020000D01*
X68433571Y97067620D01*
X68671666Y97067620D01*
X68814523Y97020000D01*
X69766904Y96067620D02*
X69195476Y96067620D01*
X69481190Y96067620D02*
X69481190Y97067620D01*
X69385952Y96924762D01*
X69290714Y96829524D01*
X69195476Y96781905D01*
X39878095Y25947620D02*
X39878095Y25138096D01*
X39925714Y25042858D01*
X39973333Y24995239D01*
X40068571Y24947620D01*
X40259047Y24947620D01*
X40354285Y24995239D01*
X40401904Y25042858D01*
X40449523Y25138096D01*
X40449523Y25947620D01*
X41354285Y25947620D02*
X41163809Y25947620D01*
X41068571Y25900000D01*
X41020952Y25852381D01*
X40925714Y25709524D01*
X40878095Y25519048D01*
X40878095Y25138096D01*
X40925714Y25042858D01*
X40973333Y24995239D01*
X41068571Y24947620D01*
X41259047Y24947620D01*
X41354285Y24995239D01*
X41401904Y25042858D01*
X41449523Y25138096D01*
X41449523Y25376191D01*
X41401904Y25471429D01*
X41354285Y25519048D01*
X41259047Y25566667D01*
X41068571Y25566667D01*
X40973333Y25519048D01*
X40925714Y25471429D01*
X40878095Y25376191D01*
X61261666Y74437620D02*
X61261666Y73723334D01*
X61214047Y73580477D01*
X61118809Y73485239D01*
X60975952Y73437620D01*
X60880714Y73437620D01*
X61642619Y74437620D02*
X62261666Y74437620D01*
X61928333Y74056667D01*
X62071190Y74056667D01*
X62166428Y74009048D01*
X62214047Y73961429D01*
X62261666Y73866191D01*
X62261666Y73628096D01*
X62214047Y73532858D01*
X62166428Y73485239D01*
X62071190Y73437620D01*
X61785476Y73437620D01*
X61690238Y73485239D01*
X61642619Y73532858D01*
M02*
