G04 #@! TF.GenerationSoftware,KiCad,Pcbnew,(5.1.9)-1*
G04 #@! TF.CreationDate,2022-07-14T08:18:56+09:00*
G04 #@! TF.ProjectId,MZ2000_SD,4d5a3230-3030-45f5-9344-2e6b69636164,rev?*
G04 #@! TF.SameCoordinates,PX53920b0PY93c3260*
G04 #@! TF.FileFunction,Copper,L2,Bot*
G04 #@! TF.FilePolarity,Positive*
%FSLAX46Y46*%
G04 Gerber Fmt 4.6, Leading zero omitted, Abs format (unit mm)*
G04 Created by KiCad (PCBNEW (5.1.9)-1) date 2022-07-14 08:18:56*
%MOMM*%
%LPD*%
G01*
G04 APERTURE LIST*
G04 #@! TA.AperFunction,ComponentPad*
%ADD10C,1.600000*%
G04 #@! TD*
G04 #@! TA.AperFunction,ComponentPad*
%ADD11R,1.600000X2.400000*%
G04 #@! TD*
G04 #@! TA.AperFunction,ComponentPad*
%ADD12O,1.600000X2.400000*%
G04 #@! TD*
G04 #@! TA.AperFunction,ComponentPad*
%ADD13R,1.700000X1.700000*%
G04 #@! TD*
G04 #@! TA.AperFunction,ComponentPad*
%ADD14O,1.700000X1.700000*%
G04 #@! TD*
G04 #@! TA.AperFunction,ComponentPad*
%ADD15R,1.600000X1.600000*%
G04 #@! TD*
G04 #@! TA.AperFunction,ComponentPad*
%ADD16O,1.600000X1.600000*%
G04 #@! TD*
G04 #@! TA.AperFunction,ComponentPad*
%ADD17R,2.400000X1.600000*%
G04 #@! TD*
G04 #@! TA.AperFunction,ComponentPad*
%ADD18O,2.400000X1.600000*%
G04 #@! TD*
G04 #@! TA.AperFunction,ViaPad*
%ADD19C,0.500000*%
G04 #@! TD*
G04 #@! TA.AperFunction,Conductor*
%ADD20C,0.400000*%
G04 #@! TD*
G04 #@! TA.AperFunction,Conductor*
%ADD21C,0.200000*%
G04 #@! TD*
G04 #@! TA.AperFunction,Conductor*
%ADD22C,0.254000*%
G04 #@! TD*
G04 #@! TA.AperFunction,Conductor*
%ADD23C,0.100000*%
G04 #@! TD*
G04 APERTURE END LIST*
D10*
X33825000Y10230000D03*
X33825000Y12730000D03*
D11*
X86360000Y19685000D03*
D12*
X38100000Y4445000D03*
X83820000Y19685000D03*
X40640000Y4445000D03*
X81280000Y19685000D03*
X43180000Y4445000D03*
X78740000Y19685000D03*
X45720000Y4445000D03*
X76200000Y19685000D03*
X48260000Y4445000D03*
X73660000Y19685000D03*
X50800000Y4445000D03*
X71120000Y19685000D03*
X53340000Y4445000D03*
X68580000Y19685000D03*
X55880000Y4445000D03*
X66040000Y19685000D03*
X58420000Y4445000D03*
X63500000Y19685000D03*
X60960000Y4445000D03*
X60960000Y19685000D03*
X63500000Y4445000D03*
X58420000Y19685000D03*
X66040000Y4445000D03*
X55880000Y19685000D03*
X68580000Y4445000D03*
X53340000Y19685000D03*
X71120000Y4445000D03*
X50800000Y19685000D03*
X73660000Y4445000D03*
X48260000Y19685000D03*
X76200000Y4445000D03*
X45720000Y19685000D03*
X78740000Y4445000D03*
X43180000Y19685000D03*
X81280000Y4445000D03*
X40640000Y19685000D03*
X83820000Y4445000D03*
X38100000Y19685000D03*
X86360000Y4445000D03*
D13*
X69850000Y74930000D03*
D14*
X69850000Y72390000D03*
X69850000Y69850000D03*
X69850000Y67310000D03*
X69850000Y64770000D03*
X69850000Y62230000D03*
X69850000Y59690000D03*
X69850000Y57150000D03*
X69850000Y54610000D03*
X97790000Y54610000D03*
X95250000Y54610000D03*
X97790000Y74930000D03*
X95250000Y74930000D03*
D15*
X95885000Y44450000D03*
D16*
X93345000Y44450000D03*
X90805000Y44450000D03*
X67945000Y29210000D03*
X88265000Y44450000D03*
X70485000Y29210000D03*
X85725000Y44450000D03*
X73025000Y29210000D03*
X83185000Y44450000D03*
X75565000Y29210000D03*
X80645000Y44450000D03*
X78105000Y29210000D03*
X78105000Y44450000D03*
X80645000Y29210000D03*
X75565000Y44450000D03*
X83185000Y29210000D03*
X73025000Y44450000D03*
X85725000Y29210000D03*
X70485000Y44450000D03*
X88265000Y29210000D03*
X67945000Y44450000D03*
X90805000Y29210000D03*
X93345000Y29210000D03*
X95885000Y29210000D03*
X86995000Y31750000D03*
X84455000Y31750000D03*
X76835000Y31750000D03*
X74295000Y31750000D03*
D10*
X19090000Y97155000D03*
X21590000Y97155000D03*
X21590000Y67310000D03*
X19090000Y67310000D03*
X19090000Y36195000D03*
X21590000Y36195000D03*
X46990000Y64770000D03*
X44490000Y64770000D03*
X46990000Y97155000D03*
X44490000Y97155000D03*
D14*
X7620000Y21330000D03*
X5080000Y21330000D03*
X7620000Y23870000D03*
X5080000Y23870000D03*
X7620000Y26410000D03*
X5080000Y26410000D03*
X7620000Y28950000D03*
X5080000Y28950000D03*
X7620000Y31490000D03*
X5080000Y31490000D03*
X7620000Y34030000D03*
X5080000Y34030000D03*
X7620000Y36570000D03*
X5080000Y36570000D03*
X7620000Y39110000D03*
X5080000Y39110000D03*
X7620000Y41650000D03*
X5080000Y41650000D03*
X7620000Y44190000D03*
X5080000Y44190000D03*
X7620000Y46730000D03*
X5080000Y46730000D03*
X7620000Y49270000D03*
X5080000Y49270000D03*
X7620000Y51810000D03*
X5080000Y51810000D03*
X7620000Y54350000D03*
X5080000Y54350000D03*
X7620000Y56890000D03*
X5080000Y56890000D03*
X7620000Y59430000D03*
X5080000Y59430000D03*
X7620000Y61970000D03*
X5080000Y61970000D03*
X7620000Y64510000D03*
X5080000Y64510000D03*
X7620000Y67050000D03*
X5080000Y67050000D03*
X7620000Y69590000D03*
X5080000Y69590000D03*
X7620000Y72130000D03*
X5080000Y72130000D03*
X7620000Y74670000D03*
D13*
X5080000Y74670000D03*
D17*
X16510000Y93980000D03*
D18*
X24130000Y71120000D03*
X16510000Y91440000D03*
X24130000Y73660000D03*
X16510000Y88900000D03*
X24130000Y76200000D03*
X16510000Y86360000D03*
X24130000Y78740000D03*
X16510000Y83820000D03*
X24130000Y81280000D03*
X16510000Y81280000D03*
X24130000Y83820000D03*
X16510000Y78740000D03*
X24130000Y86360000D03*
X16510000Y76200000D03*
X24130000Y88900000D03*
X16510000Y73660000D03*
X24130000Y91440000D03*
X16510000Y71120000D03*
X24130000Y93980000D03*
X24130000Y64135000D03*
X16510000Y41275000D03*
X24130000Y61595000D03*
X16510000Y43815000D03*
X24130000Y59055000D03*
X16510000Y46355000D03*
X24130000Y56515000D03*
X16510000Y48895000D03*
X24130000Y53975000D03*
X16510000Y51435000D03*
X24130000Y51435000D03*
X16510000Y53975000D03*
X24130000Y48895000D03*
X16510000Y56515000D03*
X24130000Y46355000D03*
X16510000Y59055000D03*
X24130000Y43815000D03*
X16510000Y61595000D03*
X24130000Y41275000D03*
D17*
X16510000Y64135000D03*
X16510000Y33020000D03*
D18*
X24130000Y5080000D03*
X16510000Y30480000D03*
X24130000Y7620000D03*
X16510000Y27940000D03*
X24130000Y10160000D03*
X16510000Y25400000D03*
X24130000Y12700000D03*
X16510000Y22860000D03*
X24130000Y15240000D03*
X16510000Y20320000D03*
X24130000Y17780000D03*
X16510000Y17780000D03*
X24130000Y20320000D03*
X16510000Y15240000D03*
X24130000Y22860000D03*
X16510000Y12700000D03*
X24130000Y25400000D03*
X16510000Y10160000D03*
X24130000Y27940000D03*
X16510000Y7620000D03*
X24130000Y30480000D03*
X16510000Y5080000D03*
X24130000Y33020000D03*
D17*
X41910000Y93980000D03*
D18*
X49530000Y71120000D03*
X41910000Y91440000D03*
X49530000Y73660000D03*
X41910000Y88900000D03*
X49530000Y76200000D03*
X41910000Y86360000D03*
X49530000Y78740000D03*
X41910000Y83820000D03*
X49530000Y81280000D03*
X41910000Y81280000D03*
X49530000Y83820000D03*
X41910000Y78740000D03*
X49530000Y86360000D03*
X41910000Y76200000D03*
X49530000Y88900000D03*
X41910000Y73660000D03*
X49530000Y91440000D03*
X41910000Y71120000D03*
X49530000Y93980000D03*
D15*
X7620000Y84455000D03*
D10*
X7620000Y86955000D03*
D13*
X66675000Y96520000D03*
D14*
X64135000Y96520000D03*
X61595000Y96520000D03*
D15*
X38100000Y61595000D03*
D16*
X53340000Y28575000D03*
X38100000Y59055000D03*
X53340000Y31115000D03*
X38100000Y56515000D03*
X53340000Y33655000D03*
X38100000Y53975000D03*
X53340000Y36195000D03*
X38100000Y51435000D03*
X53340000Y38735000D03*
X38100000Y48895000D03*
X53340000Y41275000D03*
X38100000Y46355000D03*
X53340000Y43815000D03*
X38100000Y43815000D03*
X53340000Y46355000D03*
X38100000Y41275000D03*
X53340000Y48895000D03*
X38100000Y38735000D03*
X53340000Y51435000D03*
X38100000Y36195000D03*
X53340000Y53975000D03*
X38100000Y33655000D03*
X53340000Y56515000D03*
X38100000Y31115000D03*
X53340000Y59055000D03*
X38100000Y28575000D03*
X53340000Y61595000D03*
D13*
X61595000Y71120000D03*
D14*
X61595000Y68580000D03*
X61595000Y66040000D03*
X61595000Y63500000D03*
X61595000Y60960000D03*
X61595000Y58420000D03*
D19*
X51857700Y27455200D03*
X55122200Y29719500D03*
X59736700Y33232500D03*
X61220100Y33896000D03*
X63917500Y37921500D03*
X42418900Y61389400D03*
X20821600Y64738500D03*
X40986400Y61964800D03*
X19792200Y56325500D03*
X41898300Y62599900D03*
X51839700Y67494300D03*
X28286900Y56917400D03*
X67999800Y17362900D03*
X51732300Y39739400D03*
X48394900Y12385000D03*
X56515000Y53975000D03*
X56515000Y82550000D03*
X9352000Y31107000D03*
X60273400Y30750400D03*
X35189000Y10975900D03*
X27525900Y48750900D03*
X44204000Y14873400D03*
X22076000Y8754700D03*
X20050300Y32857400D03*
D20*
X21590000Y36195000D02*
X21590000Y63195300D01*
X21590000Y63195300D02*
X22529700Y64135000D01*
X24130000Y64135000D02*
X22529700Y64135000D01*
X7620000Y73419700D02*
X8138100Y73419700D01*
X8138100Y73419700D02*
X14909700Y66648100D01*
X14909700Y66648100D02*
X14909700Y64135000D01*
X7620000Y84455000D02*
X7620000Y85655300D01*
X16510000Y93980000D02*
X14909700Y93980000D01*
X14909700Y93980000D02*
X14909700Y92494900D01*
X14909700Y92494900D02*
X8070100Y85655300D01*
X8070100Y85655300D02*
X7620000Y85655300D01*
X7620000Y74670000D02*
X7620000Y73419700D01*
X16510000Y64135000D02*
X14909700Y64135000D01*
X24130000Y33020000D02*
X25730300Y33020000D01*
X33825000Y10230000D02*
X25730300Y18324700D01*
X25730300Y18324700D02*
X25730300Y33020000D01*
X6369700Y46211900D02*
X5598100Y45440300D01*
X5598100Y45440300D02*
X5080000Y45440300D01*
X6369700Y64510000D02*
X6369700Y46211900D01*
X14909700Y41275000D02*
X10705100Y45479600D01*
X10705100Y45479600D02*
X7102000Y45479600D01*
X7102000Y45479600D02*
X6369700Y46211900D01*
X16510000Y41275000D02*
X14909700Y41275000D01*
X5080000Y44190000D02*
X5080000Y45440300D01*
X7620000Y86955000D02*
X3821400Y83156400D01*
X3821400Y83156400D02*
X3821400Y66515200D01*
X3821400Y66515200D02*
X4556600Y65780000D01*
X4556600Y65780000D02*
X5617800Y65780000D01*
X5617800Y65780000D02*
X6369700Y65028100D01*
X6369700Y65028100D02*
X6369700Y64510000D01*
X38100000Y28575000D02*
X36499700Y28575000D01*
X36499700Y28575000D02*
X36499700Y15404700D01*
X36499700Y15404700D02*
X33825000Y12730000D01*
X19090000Y97155000D02*
X21064700Y95180300D01*
X21064700Y95180300D02*
X39109400Y95180300D01*
X39109400Y95180300D02*
X40309700Y93980000D01*
X7620000Y86955000D02*
X7620000Y87715300D01*
X7620000Y87715300D02*
X17059700Y97155000D01*
X17059700Y97155000D02*
X19090000Y97155000D01*
X41910000Y93980000D02*
X40309700Y93980000D01*
X7620000Y64510000D02*
X6369700Y64510000D01*
X16510000Y5080000D02*
X14909700Y5080000D01*
X7620000Y21330000D02*
X7620000Y12369700D01*
X7620000Y12369700D02*
X14909700Y5080000D01*
X41910000Y93980000D02*
X43510300Y93980000D01*
X43510300Y93980000D02*
X43510300Y96175300D01*
X43510300Y96175300D02*
X44490000Y97155000D01*
X71100001Y68560001D02*
X69850000Y67310000D01*
X71100001Y87014999D02*
X71100001Y68560001D01*
X61595000Y96520000D02*
X71100001Y87014999D01*
D21*
X86360000Y19685000D02*
X86360000Y21185300D01*
X86995000Y31750000D02*
X86995000Y21820300D01*
X86995000Y21820300D02*
X86360000Y21185300D01*
X38100000Y4445000D02*
X38100000Y5945300D01*
X51857700Y27455200D02*
X51491900Y27455200D01*
X51491900Y27455200D02*
X44602200Y20565500D01*
X44602200Y20565500D02*
X44602200Y15290300D01*
X44602200Y15290300D02*
X44772800Y15119700D01*
X44772800Y15119700D02*
X44772800Y12618100D01*
X44772800Y12618100D02*
X38100000Y5945300D01*
X83820000Y19685000D02*
X83820000Y21185300D01*
X84455000Y31750000D02*
X84455000Y21820300D01*
X84455000Y21820300D02*
X83820000Y21185300D01*
X40640000Y5945300D02*
X46990000Y12295300D01*
X46990000Y12295300D02*
X46990000Y20384800D01*
X46990000Y20384800D02*
X53697300Y27092100D01*
X53697300Y27092100D02*
X53834600Y27092100D01*
X53834600Y27092100D02*
X55122200Y28379700D01*
X55122200Y28379700D02*
X55122200Y29719500D01*
X40640000Y4445000D02*
X40640000Y5945300D01*
X81280000Y19685000D02*
X81280000Y18184700D01*
X85725000Y29210000D02*
X85725000Y28109700D01*
X85725000Y28109700D02*
X85231700Y27616400D01*
X85231700Y27616400D02*
X85231700Y19072400D01*
X85231700Y19072400D02*
X84344000Y18184700D01*
X84344000Y18184700D02*
X81280000Y18184700D01*
X43180000Y4445000D02*
X43180000Y5945300D01*
X59736700Y33232500D02*
X56614700Y30110500D01*
X56614700Y30110500D02*
X56614700Y24285700D01*
X56614700Y24285700D02*
X54610000Y22281000D01*
X54610000Y22281000D02*
X54610000Y17375300D01*
X54610000Y17375300D02*
X43180000Y5945300D01*
X78740000Y19685000D02*
X78740000Y21185300D01*
X83185000Y29210000D02*
X83185000Y25630300D01*
X83185000Y25630300D02*
X78740000Y21185300D01*
X45720000Y5945300D02*
X57234700Y17460000D01*
X57234700Y17460000D02*
X57234700Y29910600D01*
X57234700Y29910600D02*
X61220100Y33896000D01*
X45720000Y4445000D02*
X45720000Y5945300D01*
X63917500Y37921500D02*
X63917500Y35172700D01*
X63917500Y35172700D02*
X59723100Y30978300D01*
X59723100Y30978300D02*
X59723100Y17948000D01*
X59723100Y17948000D02*
X54523600Y12748500D01*
X54523600Y12748500D02*
X54523600Y3667100D01*
X54523600Y3667100D02*
X53801200Y2944700D01*
X53801200Y2944700D02*
X48260000Y2944700D01*
X48260000Y4445000D02*
X48260000Y2944700D01*
X24130000Y22860000D02*
X22629700Y22860000D01*
X22629700Y22860000D02*
X22195500Y23294200D01*
X22195500Y23294200D02*
X22195500Y33824500D01*
X22195500Y33824500D02*
X23124300Y34753300D01*
X23124300Y34753300D02*
X23124300Y39844000D01*
X23124300Y39844000D02*
X22627300Y40341000D01*
X22627300Y40341000D02*
X22627300Y46826200D01*
X22627300Y46826200D02*
X23426100Y47625000D01*
X23426100Y47625000D02*
X24820700Y47625000D01*
X24820700Y47625000D02*
X26845500Y49649800D01*
X26845500Y49649800D02*
X26845500Y68404500D01*
X26845500Y68404500D02*
X24130000Y71120000D01*
X42418900Y61389400D02*
X42448600Y61419100D01*
X42448600Y61419100D02*
X42448600Y69682900D01*
X42448600Y69682900D02*
X43810700Y71045000D01*
X43810700Y71045000D02*
X43810700Y76396100D01*
X43810700Y76396100D02*
X42736800Y77470000D01*
X42736800Y77470000D02*
X41153900Y77470000D01*
X41153900Y77470000D02*
X26074400Y92549500D01*
X26074400Y92549500D02*
X19119800Y92549500D01*
X19119800Y92549500D02*
X18010300Y91440000D01*
X16510000Y91440000D02*
X18010300Y91440000D01*
X24130000Y73660000D02*
X25630300Y73660000D01*
X38100000Y59055000D02*
X36599700Y59055000D01*
X36599700Y59055000D02*
X36599700Y62690600D01*
X36599700Y62690600D02*
X25630300Y73660000D01*
X16510000Y83820000D02*
X18010300Y83820000D01*
X20821600Y64738500D02*
X20340000Y65220100D01*
X20340000Y65220100D02*
X20340000Y81490300D01*
X20340000Y81490300D02*
X18010300Y83820000D01*
X25630300Y81280000D02*
X40986400Y65923900D01*
X40986400Y65923900D02*
X40986400Y61964800D01*
X24130000Y81280000D02*
X25630300Y81280000D01*
X18010300Y81280000D02*
X18412100Y80878200D01*
X18412100Y80878200D02*
X18412100Y69538700D01*
X18412100Y69538700D02*
X17933100Y69059700D01*
X17933100Y69059700D02*
X17933100Y66185400D01*
X17933100Y66185400D02*
X19792200Y64326300D01*
X19792200Y64326300D02*
X19792200Y56325500D01*
X16510000Y81280000D02*
X18010300Y81280000D01*
X24130000Y83820000D02*
X25630300Y83820000D01*
X41898300Y62599900D02*
X41898300Y67552000D01*
X41898300Y67552000D02*
X25630300Y83820000D01*
X51839700Y48895000D02*
X51839700Y67494300D01*
X53340000Y48895000D02*
X51839700Y48895000D01*
X25630300Y5080000D02*
X25630300Y8111800D01*
X25630300Y8111800D02*
X24852100Y8890000D01*
X24852100Y8890000D02*
X23428200Y8890000D01*
X23428200Y8890000D02*
X19499800Y12818400D01*
X19499800Y12818400D02*
X19499800Y33590900D01*
X19499800Y33590900D02*
X20342600Y34433700D01*
X20342600Y34433700D02*
X20342600Y62887600D01*
X20342600Y62887600D02*
X22711300Y65256300D01*
X22711300Y65256300D02*
X22711300Y68027800D01*
X22711300Y68027800D02*
X20994900Y69744200D01*
X20994900Y69744200D02*
X20994900Y89805200D01*
X20994900Y89805200D02*
X22629700Y91440000D01*
X24130000Y91440000D02*
X22629700Y91440000D01*
X24130000Y5080000D02*
X25630300Y5080000D01*
X38100000Y38735000D02*
X36599700Y38735000D01*
X36599700Y38735000D02*
X36599700Y48604600D01*
X36599700Y48604600D02*
X28286900Y56917400D01*
X24130000Y27940000D02*
X22629700Y27940000D01*
X22629700Y27940000D02*
X22629700Y33565100D01*
X22629700Y33565100D02*
X24130000Y35065400D01*
X24130000Y35065400D02*
X24130000Y41275000D01*
X73660000Y18184700D02*
X68821600Y18184700D01*
X68821600Y18184700D02*
X67999800Y17362900D01*
X73660000Y19685000D02*
X73660000Y18184700D01*
X51732300Y39739400D02*
X51280500Y40191200D01*
X51280500Y40191200D02*
X51280500Y89689500D01*
X51280500Y89689500D02*
X49530000Y91440000D01*
X53340000Y46355000D02*
X54840300Y46355000D01*
X54840300Y46355000D02*
X55711200Y45484100D01*
X55711200Y45484100D02*
X55711200Y25457600D01*
X55711200Y25457600D02*
X52070000Y21816400D01*
X52070000Y21816400D02*
X52070000Y16060100D01*
X52070000Y16060100D02*
X48394900Y12385000D01*
X56515000Y82550000D02*
X56515000Y53975000D01*
X49530000Y81280000D02*
X48029700Y81280000D01*
X53340000Y28575000D02*
X51839700Y28575000D01*
X51839700Y28575000D02*
X48228900Y32185800D01*
X48228900Y32185800D02*
X48228900Y65087600D01*
X48228900Y65087600D02*
X46778100Y66538400D01*
X46778100Y66538400D02*
X46778100Y80028400D01*
X46778100Y80028400D02*
X48029700Y81280000D01*
X51839700Y31115000D02*
X48629300Y34325400D01*
X48629300Y34325400D02*
X48629300Y65819500D01*
X48629300Y65819500D02*
X47186800Y67262000D01*
X47186800Y67262000D02*
X47186800Y77897100D01*
X47186800Y77897100D02*
X48029700Y78740000D01*
X49530000Y78740000D02*
X48029700Y78740000D01*
X53340000Y31115000D02*
X51839700Y31115000D01*
X51839700Y33655000D02*
X49029600Y36465100D01*
X49029600Y36465100D02*
X49029600Y65985400D01*
X49029600Y65985400D02*
X47620500Y67394500D01*
X47620500Y67394500D02*
X47620500Y75790800D01*
X47620500Y75790800D02*
X48029700Y76200000D01*
X49530000Y76200000D02*
X48029700Y76200000D01*
X53340000Y33655000D02*
X51839700Y33655000D01*
X49530000Y73660000D02*
X48029700Y73660000D01*
X53340000Y36195000D02*
X51839700Y36195000D01*
X51839700Y36195000D02*
X50171600Y37863100D01*
X50171600Y37863100D02*
X50171600Y66765600D01*
X50171600Y66765600D02*
X48029700Y68907500D01*
X48029700Y68907500D02*
X48029700Y73660000D01*
X53340000Y38735000D02*
X51839700Y38735000D01*
X51839700Y38735000D02*
X50867700Y39707000D01*
X50867700Y39707000D02*
X50867700Y69782300D01*
X50867700Y69782300D02*
X49530000Y71120000D01*
X39600300Y36195000D02*
X42969800Y39564500D01*
X42969800Y39564500D02*
X42969800Y69071700D01*
X42969800Y69071700D02*
X44777000Y70878900D01*
X44777000Y70878900D02*
X44777000Y85647300D01*
X44777000Y85647300D02*
X48029700Y88900000D01*
X38100000Y36195000D02*
X39600300Y36195000D01*
X49530000Y88900000D02*
X48029700Y88900000D01*
X39600300Y33655000D02*
X43370100Y37424800D01*
X43370100Y37424800D02*
X43370100Y68905900D01*
X43370100Y68905900D02*
X45177400Y70713200D01*
X45177400Y70713200D02*
X45177400Y83507700D01*
X45177400Y83507700D02*
X48029700Y86360000D01*
X49530000Y86360000D02*
X48029700Y86360000D01*
X38100000Y33655000D02*
X39600300Y33655000D01*
X39600300Y31115000D02*
X45836200Y37350900D01*
X45836200Y37350900D02*
X45836200Y81626500D01*
X45836200Y81626500D02*
X48029700Y83820000D01*
X49530000Y83820000D02*
X48029700Y83820000D01*
X38100000Y31115000D02*
X39600300Y31115000D01*
X16510000Y25400000D02*
X15009700Y25400000D01*
X15009700Y25400000D02*
X15009700Y25449300D01*
X15009700Y25449300D02*
X9352000Y31107000D01*
X15009700Y22860000D02*
X15009700Y23764100D01*
X15009700Y23764100D02*
X8801700Y29972100D01*
X8801700Y29972100D02*
X8801700Y31936300D01*
X8801700Y31936300D02*
X7858300Y32879700D01*
X7858300Y32879700D02*
X7620000Y32879700D01*
X16510000Y22860000D02*
X15009700Y22860000D01*
X7620000Y34030000D02*
X7620000Y32879700D01*
X5080000Y34030000D02*
X5080000Y32879700D01*
X24130000Y7620000D02*
X22389600Y7620000D01*
X22389600Y7620000D02*
X18614700Y11394900D01*
X18614700Y11394900D02*
X18614700Y12556400D01*
X18614700Y12556400D02*
X17201100Y13970000D01*
X17201100Y13970000D02*
X15788600Y13970000D01*
X15788600Y13970000D02*
X15009600Y14749000D01*
X15009600Y14749000D02*
X15009600Y21244400D01*
X15009600Y21244400D02*
X8770300Y27483700D01*
X8770300Y27483700D02*
X8770300Y29426500D01*
X8770300Y29426500D02*
X7857200Y30339600D01*
X7857200Y30339600D02*
X7081900Y30339600D01*
X7081900Y30339600D02*
X6350000Y31071500D01*
X6350000Y31071500D02*
X6350000Y31848000D01*
X6350000Y31848000D02*
X5318300Y32879700D01*
X5318300Y32879700D02*
X5080000Y32879700D01*
X7620000Y39110000D02*
X7620000Y37959700D01*
X16510000Y17780000D02*
X18010300Y17780000D01*
X18010300Y17780000D02*
X18010300Y25871900D01*
X18010300Y25871900D02*
X17191600Y26690600D01*
X17191600Y26690600D02*
X15785300Y26690600D01*
X15785300Y26690600D02*
X9009600Y33466300D01*
X9009600Y33466300D02*
X9009600Y36808400D01*
X9009600Y36808400D02*
X7858300Y37959700D01*
X7858300Y37959700D02*
X7620000Y37959700D01*
X16510000Y15240000D02*
X18010300Y15240000D01*
X18010300Y15240000D02*
X18448900Y15678600D01*
X18448900Y15678600D02*
X18448900Y33547000D01*
X18448900Y33547000D02*
X10345900Y41650000D01*
X10345900Y41650000D02*
X7620000Y41650000D01*
X5080000Y48119700D02*
X4841600Y48119700D01*
X4841600Y48119700D02*
X3917300Y47195400D01*
X3917300Y47195400D02*
X3917300Y31004500D01*
X3917300Y31004500D02*
X4701800Y30220000D01*
X4701800Y30220000D02*
X5474200Y30220000D01*
X5474200Y30220000D02*
X6260600Y29433600D01*
X6260600Y29433600D02*
X6260600Y28658100D01*
X6260600Y28658100D02*
X7238700Y27680000D01*
X7238700Y27680000D02*
X8007600Y27680000D01*
X8007600Y27680000D02*
X14042900Y21644700D01*
X14042900Y21644700D02*
X14042900Y8586800D01*
X14042900Y8586800D02*
X15009700Y7620000D01*
X5080000Y49270000D02*
X5080000Y48119700D01*
X16510000Y7620000D02*
X15009700Y7620000D01*
X76200000Y19685000D02*
X76200000Y18184700D01*
X16510000Y12700000D02*
X22135400Y7074600D01*
X22135400Y7074600D02*
X22135400Y5097200D01*
X22135400Y5097200D02*
X25141200Y2091400D01*
X25141200Y2091400D02*
X70768700Y2091400D01*
X70768700Y2091400D02*
X72390000Y3712700D01*
X72390000Y3712700D02*
X72390000Y14374700D01*
X72390000Y14374700D02*
X76200000Y18184700D01*
X18010300Y10160000D02*
X18010300Y8656200D01*
X18010300Y8656200D02*
X24975400Y1691100D01*
X24975400Y1691100D02*
X74946400Y1691100D01*
X74946400Y1691100D02*
X76200000Y2944700D01*
X76200000Y4445000D02*
X76200000Y2944700D01*
X16510000Y10160000D02*
X18010300Y10160000D01*
X22629700Y88900000D02*
X21424600Y87694900D01*
X21424600Y87694900D02*
X21424600Y70398500D01*
X21424600Y70398500D02*
X25630300Y66192800D01*
X25630300Y66192800D02*
X25630300Y60121800D01*
X25630300Y60121800D02*
X24563500Y59055000D01*
X24130000Y88900000D02*
X22629700Y88900000D01*
X53340000Y5945300D02*
X47786000Y5945300D01*
X47786000Y5945300D02*
X46990000Y5149300D01*
X46990000Y5149300D02*
X46990000Y3711400D01*
X46990000Y3711400D02*
X46218300Y2939700D01*
X46218300Y2939700D02*
X37627700Y2939700D01*
X37627700Y2939700D02*
X33154500Y7412900D01*
X33154500Y7412900D02*
X33154500Y8193100D01*
X33154500Y8193100D02*
X24837600Y16510000D01*
X24837600Y16510000D02*
X23373900Y16510000D01*
X23373900Y16510000D02*
X21795100Y18088800D01*
X21795100Y18088800D02*
X21795100Y34518200D01*
X21795100Y34518200D02*
X22707000Y35430100D01*
X22707000Y35430100D02*
X22707000Y39615100D01*
X22707000Y39615100D02*
X22226900Y40095200D01*
X22226900Y40095200D02*
X22226900Y56718400D01*
X22226900Y56718400D02*
X24563500Y59055000D01*
X53340000Y4445000D02*
X53340000Y5945300D01*
X24130000Y59055000D02*
X24563500Y59055000D01*
X24130000Y88900000D02*
X25630300Y88900000D01*
X41910000Y73660000D02*
X40409700Y73660000D01*
X40409700Y73660000D02*
X25630300Y88439400D01*
X25630300Y88439400D02*
X25630300Y88900000D01*
X55880000Y4445000D02*
X55880000Y5945300D01*
X60273400Y30750400D02*
X62060900Y28962900D01*
X62060900Y28962900D02*
X62060900Y12126200D01*
X62060900Y12126200D02*
X55880000Y5945300D01*
X22629700Y86360000D02*
X21824900Y85555200D01*
X21824900Y85555200D02*
X21824900Y70612700D01*
X21824900Y70612700D02*
X26030600Y66407000D01*
X26030600Y66407000D02*
X26030600Y56915300D01*
X26030600Y56915300D02*
X25630300Y56515000D01*
X24130000Y56515000D02*
X25630300Y56515000D01*
X24130000Y86360000D02*
X22629700Y86360000D01*
X24130000Y86360000D02*
X25630300Y86360000D01*
X41910000Y76200000D02*
X43410300Y76200000D01*
X43410300Y76200000D02*
X43410300Y73199900D01*
X43410300Y73199900D02*
X42765500Y72555100D01*
X42765500Y72555100D02*
X39435200Y72555100D01*
X39435200Y72555100D02*
X25630300Y86360000D01*
X43410300Y91440000D02*
X47071500Y95101200D01*
X47071500Y95101200D02*
X50376800Y95101200D01*
X50376800Y95101200D02*
X65950800Y79527200D01*
X65950800Y79527200D02*
X65950800Y29299200D01*
X65950800Y29299200D02*
X67149800Y28100200D01*
X67149800Y28100200D02*
X67149800Y9915500D01*
X67149800Y9915500D02*
X71120000Y5945300D01*
X16510000Y59055000D02*
X15009700Y59055000D01*
X15009700Y59055000D02*
X15009700Y59660300D01*
X15009700Y59660300D02*
X7620000Y67050000D01*
X71120000Y4445000D02*
X71120000Y5945300D01*
X41910000Y91440000D02*
X43410300Y91440000D01*
X35189000Y10975900D02*
X34684900Y11480000D01*
X34684900Y11480000D02*
X33489600Y11480000D01*
X33489600Y11480000D02*
X27525900Y17443700D01*
X27525900Y17443700D02*
X27525900Y48750900D01*
X24130000Y78740000D02*
X22629700Y78740000D01*
X24130000Y48895000D02*
X26445200Y51210200D01*
X26445200Y51210200D02*
X26445200Y66703600D01*
X26445200Y66703600D02*
X22225200Y70923600D01*
X22225200Y70923600D02*
X22225200Y78335500D01*
X22225200Y78335500D02*
X22629700Y78740000D01*
X16510000Y56515000D02*
X18010300Y56515000D01*
X7620000Y69590000D02*
X7620000Y68439700D01*
X18010300Y56515000D02*
X18010300Y59515400D01*
X18010300Y59515400D02*
X17342300Y60183400D01*
X17342300Y60183400D02*
X15934900Y60183400D01*
X15934900Y60183400D02*
X15009600Y61108700D01*
X15009600Y61108700D02*
X15009600Y61317700D01*
X15009600Y61317700D02*
X7887600Y68439700D01*
X7887600Y68439700D02*
X7620000Y68439700D01*
X43410300Y88900000D02*
X47063000Y92552700D01*
X47063000Y92552700D02*
X50401600Y92552700D01*
X50401600Y92552700D02*
X64770000Y78184300D01*
X64770000Y78184300D02*
X64770000Y9755300D01*
X64770000Y9755300D02*
X68580000Y5945300D01*
X68580000Y4445000D02*
X68580000Y5945300D01*
X41910000Y88900000D02*
X43410300Y88900000D01*
X7620000Y69590000D02*
X7620000Y70740300D01*
X16510000Y86360000D02*
X15009700Y86360000D01*
X15009700Y86360000D02*
X6450100Y77800400D01*
X6450100Y77800400D02*
X6450100Y71671800D01*
X6450100Y71671800D02*
X7381600Y70740300D01*
X7381600Y70740300D02*
X7620000Y70740300D01*
X27273600Y49498600D02*
X25630300Y47855300D01*
X25630300Y47855300D02*
X25630300Y46355000D01*
X22629700Y76200000D02*
X22629700Y73199000D01*
X22629700Y73199000D02*
X23438700Y72390000D01*
X23438700Y72390000D02*
X24830600Y72390000D01*
X24830600Y72390000D02*
X27273600Y69947000D01*
X27273600Y69947000D02*
X27273600Y49498600D01*
X27273600Y49498600D02*
X27557500Y49498600D01*
X27557500Y49498600D02*
X29291400Y47764700D01*
X29291400Y47764700D02*
X29291400Y37914000D01*
X29291400Y37914000D02*
X37274000Y29931400D01*
X37274000Y29931400D02*
X38728100Y29931400D01*
X38728100Y29931400D02*
X41910000Y26749500D01*
X41910000Y26749500D02*
X41910000Y17167400D01*
X41910000Y17167400D02*
X44204000Y14873400D01*
X24130000Y76200000D02*
X22629700Y76200000D01*
X24130000Y46355000D02*
X25630300Y46355000D01*
X22076000Y8754700D02*
X19015100Y11815600D01*
X19015100Y11815600D02*
X19015100Y33951200D01*
X19015100Y33951200D02*
X17941000Y35025300D01*
X17941000Y35025300D02*
X17941000Y39411300D01*
X17941000Y39411300D02*
X18010300Y39480600D01*
X18010300Y39480600D02*
X18010300Y48895000D01*
X18010300Y48895000D02*
X18410600Y49295300D01*
X18410600Y49295300D02*
X18410600Y62611700D01*
X18410600Y62611700D02*
X18010300Y63012000D01*
X18010300Y78740000D02*
X18010300Y69986000D01*
X18010300Y69986000D02*
X17502000Y69477700D01*
X17502000Y69477700D02*
X17502000Y65725400D01*
X17502000Y65725400D02*
X18010300Y65217100D01*
X18010300Y65217100D02*
X18010300Y63012000D01*
X18010300Y63012000D02*
X15165300Y63012000D01*
X15165300Y63012000D02*
X8810900Y69366400D01*
X8810900Y69366400D02*
X8810900Y70939100D01*
X8810900Y70939100D02*
X7620000Y72130000D01*
X16510000Y78740000D02*
X18010300Y78740000D01*
X16510000Y48895000D02*
X18010300Y48895000D01*
X20050300Y32857400D02*
X20050300Y17363400D01*
X20050300Y17363400D02*
X23443700Y13970000D01*
X23443700Y13970000D02*
X25786800Y13970000D01*
X25786800Y13970000D02*
X37262400Y2494400D01*
X37262400Y2494400D02*
X63049700Y2494400D01*
X63049700Y2494400D02*
X63500000Y2944700D01*
X5080000Y72130000D02*
X5080000Y70979700D01*
X16510000Y46355000D02*
X15009700Y46355000D01*
X15009700Y46355000D02*
X9164700Y52200000D01*
X9164700Y52200000D02*
X9164700Y64618700D01*
X9164700Y64618700D02*
X8003400Y65780000D01*
X8003400Y65780000D02*
X7210600Y65780000D01*
X7210600Y65780000D02*
X6469600Y66521000D01*
X6469600Y66521000D02*
X6469600Y69828400D01*
X6469600Y69828400D02*
X5318300Y70979700D01*
X5318300Y70979700D02*
X5080000Y70979700D01*
X63500000Y4445000D02*
X63500000Y2944700D01*
X69850000Y64770000D02*
X69850000Y63619700D01*
X75565000Y29210000D02*
X75565000Y39100900D01*
X75565000Y39100900D02*
X74453800Y40212100D01*
X74453800Y40212100D02*
X74453800Y59254200D01*
X74453800Y59254200D02*
X70088300Y63619700D01*
X70088300Y63619700D02*
X69850000Y63619700D01*
X69850000Y62230000D02*
X69850000Y61079700D01*
X73025000Y29210000D02*
X73025000Y30310300D01*
X73025000Y30310300D02*
X71924700Y31410600D01*
X71924700Y31410600D02*
X71924700Y59243300D01*
X71924700Y59243300D02*
X70088300Y61079700D01*
X70088300Y61079700D02*
X69850000Y61079700D01*
X69850000Y59690000D02*
X69850000Y58539700D01*
X70485000Y29210000D02*
X70485000Y30310300D01*
X70485000Y30310300D02*
X69373700Y31421600D01*
X69373700Y31421600D02*
X69373700Y50696300D01*
X69373700Y50696300D02*
X71004800Y52327400D01*
X71004800Y52327400D02*
X71004800Y57623200D01*
X71004800Y57623200D02*
X70088300Y58539700D01*
X70088300Y58539700D02*
X69850000Y58539700D01*
X69850000Y57150000D02*
X69850000Y55999700D01*
X67945000Y29210000D02*
X67945000Y30310300D01*
X67945000Y30310300D02*
X66836500Y31418800D01*
X66836500Y31418800D02*
X66836500Y53224600D01*
X66836500Y53224600D02*
X69611600Y55999700D01*
X69611600Y55999700D02*
X69850000Y55999700D01*
D22*
X99340000Y660000D02*
X660000Y660000D01*
X660000Y5220128D01*
X2765000Y5220128D01*
X2765000Y4779872D01*
X2850890Y4348075D01*
X3019369Y3941331D01*
X3263962Y3575271D01*
X3575271Y3263962D01*
X3941331Y3019369D01*
X4348075Y2850890D01*
X4779872Y2765000D01*
X5220128Y2765000D01*
X5651925Y2850890D01*
X6058669Y3019369D01*
X6424729Y3263962D01*
X6736038Y3575271D01*
X6980631Y3941331D01*
X7149110Y4348075D01*
X7225270Y4730961D01*
X14718096Y4730961D01*
X14735633Y4648182D01*
X14846285Y4388354D01*
X15005500Y4155105D01*
X15207161Y3957399D01*
X15443517Y3802834D01*
X15705486Y3697350D01*
X15983000Y3645000D01*
X16383000Y3645000D01*
X16383000Y4953000D01*
X16637000Y4953000D01*
X16637000Y3645000D01*
X17037000Y3645000D01*
X17314514Y3697350D01*
X17576483Y3802834D01*
X17812839Y3957399D01*
X18014500Y4155105D01*
X18173715Y4388354D01*
X18284367Y4648182D01*
X18301904Y4730961D01*
X18179915Y4953000D01*
X16637000Y4953000D01*
X16383000Y4953000D01*
X14840085Y4953000D01*
X14718096Y4730961D01*
X7225270Y4730961D01*
X7235000Y4779872D01*
X7235000Y5220128D01*
X7149110Y5651925D01*
X6980631Y6058669D01*
X6736038Y6424729D01*
X6424729Y6736038D01*
X6058669Y6980631D01*
X5651925Y7149110D01*
X5220128Y7235000D01*
X4779872Y7235000D01*
X4348075Y7149110D01*
X3941331Y6980631D01*
X3575271Y6736038D01*
X3263962Y6424729D01*
X3019369Y6058669D01*
X2850890Y5651925D01*
X2765000Y5220128D01*
X660000Y5220128D01*
X660000Y20973110D01*
X3638524Y20973110D01*
X3683175Y20825901D01*
X3808359Y20563080D01*
X3982412Y20329731D01*
X4198645Y20134822D01*
X4448748Y19985843D01*
X4723109Y19888519D01*
X4953000Y20009186D01*
X4953000Y21203000D01*
X5207000Y21203000D01*
X5207000Y20009186D01*
X5436891Y19888519D01*
X5711252Y19985843D01*
X5961355Y20134822D01*
X6177588Y20329731D01*
X6350000Y20560880D01*
X6522412Y20329731D01*
X6738645Y20134822D01*
X6988748Y19985843D01*
X7263109Y19888519D01*
X7493000Y20009186D01*
X7493000Y21203000D01*
X7747000Y21203000D01*
X7747000Y20009186D01*
X7976891Y19888519D01*
X8251252Y19985843D01*
X8501355Y20134822D01*
X8717588Y20329731D01*
X8891641Y20563080D01*
X9016825Y20825901D01*
X9061476Y20973110D01*
X8940155Y21203000D01*
X7747000Y21203000D01*
X7493000Y21203000D01*
X5207000Y21203000D01*
X4953000Y21203000D01*
X3759845Y21203000D01*
X3638524Y20973110D01*
X660000Y20973110D01*
X660000Y47195400D01*
X3178744Y47195400D01*
X3182300Y47159295D01*
X3182301Y31040615D01*
X3178744Y31004500D01*
X3192935Y30860415D01*
X3228785Y30742237D01*
X3234964Y30721867D01*
X3303214Y30594180D01*
X3395063Y30482262D01*
X3423108Y30459246D01*
X3956123Y29926230D01*
X3926525Y29896632D01*
X3764010Y29653411D01*
X3652068Y29383158D01*
X3595000Y29096260D01*
X3595000Y28803740D01*
X3652068Y28516842D01*
X3764010Y28246589D01*
X3926525Y28003368D01*
X4133368Y27796525D01*
X4307760Y27680000D01*
X4133368Y27563475D01*
X3926525Y27356632D01*
X3764010Y27113411D01*
X3652068Y26843158D01*
X3595000Y26556260D01*
X3595000Y26263740D01*
X3652068Y25976842D01*
X3764010Y25706589D01*
X3926525Y25463368D01*
X4133368Y25256525D01*
X4307760Y25140000D01*
X4133368Y25023475D01*
X3926525Y24816632D01*
X3764010Y24573411D01*
X3652068Y24303158D01*
X3595000Y24016260D01*
X3595000Y23723740D01*
X3652068Y23436842D01*
X3764010Y23166589D01*
X3926525Y22923368D01*
X4133368Y22716525D01*
X4315534Y22594805D01*
X4198645Y22525178D01*
X3982412Y22330269D01*
X3808359Y22096920D01*
X3683175Y21834099D01*
X3638524Y21686890D01*
X3759845Y21457000D01*
X4953000Y21457000D01*
X4953000Y21477000D01*
X5207000Y21477000D01*
X5207000Y21457000D01*
X7493000Y21457000D01*
X7493000Y21477000D01*
X7747000Y21477000D01*
X7747000Y21457000D01*
X8940155Y21457000D01*
X9061476Y21686890D01*
X9016825Y21834099D01*
X8891641Y22096920D01*
X8717588Y22330269D01*
X8501355Y22525178D01*
X8384466Y22594805D01*
X8566632Y22716525D01*
X8773475Y22923368D01*
X8935990Y23166589D01*
X9047932Y23436842D01*
X9105000Y23723740D01*
X9105000Y24016260D01*
X9047932Y24303158D01*
X8935990Y24573411D01*
X8773475Y24816632D01*
X8566632Y25023475D01*
X8392240Y25140000D01*
X8566632Y25256525D01*
X8773475Y25463368D01*
X8935990Y25706589D01*
X8937623Y25710531D01*
X13307900Y21340253D01*
X13307901Y8622915D01*
X13304344Y8586800D01*
X13318535Y8442715D01*
X13345144Y8355000D01*
X13360564Y8304167D01*
X13428814Y8176480D01*
X13520663Y8064562D01*
X13548708Y8041546D01*
X14464446Y7125807D01*
X14487462Y7097762D01*
X14515506Y7074747D01*
X14599380Y7005913D01*
X14727066Y6937663D01*
X14865615Y6895635D01*
X14870298Y6895174D01*
X14911068Y6818899D01*
X15090392Y6600392D01*
X15308899Y6421068D01*
X15436741Y6352735D01*
X15207161Y6202601D01*
X15005500Y6004895D01*
X14846285Y5771646D01*
X14735633Y5511818D01*
X14718096Y5429039D01*
X14840085Y5207000D01*
X16383000Y5207000D01*
X16383000Y5227000D01*
X16637000Y5227000D01*
X16637000Y5207000D01*
X18179915Y5207000D01*
X18301904Y5429039D01*
X18284367Y5511818D01*
X18173715Y5771646D01*
X18014500Y6004895D01*
X17812839Y6202601D01*
X17583259Y6352735D01*
X17711101Y6421068D01*
X17929608Y6600392D01*
X18108932Y6818899D01*
X18242182Y7068192D01*
X18315887Y7311167D01*
X24430146Y1196907D01*
X24453162Y1168862D01*
X24565080Y1077013D01*
X24692767Y1008763D01*
X24831315Y966735D01*
X24975400Y952544D01*
X25011505Y956100D01*
X74910295Y956100D01*
X74946400Y952544D01*
X74982505Y956100D01*
X75090485Y966735D01*
X75229033Y1008763D01*
X75356720Y1077013D01*
X75468638Y1168862D01*
X75491658Y1196912D01*
X76694194Y2399447D01*
X76722238Y2422462D01*
X76814087Y2534380D01*
X76882337Y2662067D01*
X76916212Y2773737D01*
X76924365Y2800614D01*
X76924826Y2805299D01*
X77001100Y2846068D01*
X77219607Y3025392D01*
X77398932Y3243899D01*
X77470000Y3376858D01*
X77541068Y3243900D01*
X77720392Y3025393D01*
X77938899Y2846068D01*
X78188192Y2712818D01*
X78458691Y2630764D01*
X78740000Y2603057D01*
X79021308Y2630764D01*
X79291807Y2712818D01*
X79541100Y2846068D01*
X79759607Y3025392D01*
X79938932Y3243899D01*
X80010000Y3376858D01*
X80081068Y3243900D01*
X80260392Y3025393D01*
X80478899Y2846068D01*
X80728192Y2712818D01*
X80998691Y2630764D01*
X81280000Y2603057D01*
X81561308Y2630764D01*
X81831807Y2712818D01*
X82081100Y2846068D01*
X82299607Y3025392D01*
X82478932Y3243899D01*
X82550000Y3376858D01*
X82621068Y3243900D01*
X82800392Y3025393D01*
X83018899Y2846068D01*
X83268192Y2712818D01*
X83538691Y2630764D01*
X83820000Y2603057D01*
X84101308Y2630764D01*
X84371807Y2712818D01*
X84621100Y2846068D01*
X84839607Y3025392D01*
X85018932Y3243899D01*
X85090000Y3376858D01*
X85161068Y3243900D01*
X85340392Y3025393D01*
X85558899Y2846068D01*
X85808192Y2712818D01*
X86078691Y2630764D01*
X86360000Y2603057D01*
X86641308Y2630764D01*
X86911807Y2712818D01*
X87161100Y2846068D01*
X87379607Y3025392D01*
X87558932Y3243899D01*
X87692182Y3493192D01*
X87774236Y3763691D01*
X87795000Y3974508D01*
X87795000Y4915491D01*
X87774236Y5126309D01*
X87745777Y5220128D01*
X92765000Y5220128D01*
X92765000Y4779872D01*
X92850890Y4348075D01*
X93019369Y3941331D01*
X93263962Y3575271D01*
X93575271Y3263962D01*
X93941331Y3019369D01*
X94348075Y2850890D01*
X94779872Y2765000D01*
X95220128Y2765000D01*
X95651925Y2850890D01*
X96058669Y3019369D01*
X96424729Y3263962D01*
X96736038Y3575271D01*
X96980631Y3941331D01*
X97149110Y4348075D01*
X97235000Y4779872D01*
X97235000Y5220128D01*
X97149110Y5651925D01*
X96980631Y6058669D01*
X96736038Y6424729D01*
X96424729Y6736038D01*
X96058669Y6980631D01*
X95651925Y7149110D01*
X95220128Y7235000D01*
X94779872Y7235000D01*
X94348075Y7149110D01*
X93941331Y6980631D01*
X93575271Y6736038D01*
X93263962Y6424729D01*
X93019369Y6058669D01*
X92850890Y5651925D01*
X92765000Y5220128D01*
X87745777Y5220128D01*
X87692182Y5396808D01*
X87558932Y5646101D01*
X87379608Y5864608D01*
X87161101Y6043932D01*
X86911808Y6177182D01*
X86641309Y6259236D01*
X86360000Y6286943D01*
X86078692Y6259236D01*
X85808193Y6177182D01*
X85558900Y6043932D01*
X85340393Y5864608D01*
X85161068Y5646101D01*
X85090000Y5513142D01*
X85018932Y5646101D01*
X84839608Y5864608D01*
X84621101Y6043932D01*
X84371808Y6177182D01*
X84101309Y6259236D01*
X83820000Y6286943D01*
X83538692Y6259236D01*
X83268193Y6177182D01*
X83018900Y6043932D01*
X82800393Y5864608D01*
X82621068Y5646101D01*
X82550000Y5513142D01*
X82478932Y5646101D01*
X82299608Y5864608D01*
X82081101Y6043932D01*
X81831808Y6177182D01*
X81561309Y6259236D01*
X81280000Y6286943D01*
X80998692Y6259236D01*
X80728193Y6177182D01*
X80478900Y6043932D01*
X80260393Y5864608D01*
X80081068Y5646101D01*
X80010000Y5513142D01*
X79938932Y5646101D01*
X79759608Y5864608D01*
X79541101Y6043932D01*
X79291808Y6177182D01*
X79021309Y6259236D01*
X78740000Y6286943D01*
X78458692Y6259236D01*
X78188193Y6177182D01*
X77938900Y6043932D01*
X77720393Y5864608D01*
X77541068Y5646101D01*
X77470000Y5513142D01*
X77398932Y5646101D01*
X77219608Y5864608D01*
X77001101Y6043932D01*
X76751808Y6177182D01*
X76481309Y6259236D01*
X76200000Y6286943D01*
X75918692Y6259236D01*
X75648193Y6177182D01*
X75398900Y6043932D01*
X75180393Y5864608D01*
X75001068Y5646101D01*
X74930000Y5513142D01*
X74858932Y5646101D01*
X74679608Y5864608D01*
X74461101Y6043932D01*
X74211808Y6177182D01*
X73941309Y6259236D01*
X73660000Y6286943D01*
X73378692Y6259236D01*
X73125000Y6182280D01*
X73125000Y14070254D01*
X76694194Y17639447D01*
X76722238Y17662462D01*
X76814087Y17774380D01*
X76829874Y17803915D01*
X76882337Y17902066D01*
X76924365Y18040615D01*
X76924826Y18045299D01*
X77001100Y18086068D01*
X77219607Y18265392D01*
X77398932Y18483899D01*
X77470000Y18616858D01*
X77541068Y18483900D01*
X77720392Y18265393D01*
X77938899Y18086068D01*
X78188192Y17952818D01*
X78458691Y17870764D01*
X78740000Y17843057D01*
X79021308Y17870764D01*
X79291807Y17952818D01*
X79541100Y18086068D01*
X79759607Y18265392D01*
X79938932Y18483899D01*
X80010000Y18616858D01*
X80081068Y18483900D01*
X80260392Y18265393D01*
X80478899Y18086068D01*
X80555174Y18045298D01*
X80555635Y18040615D01*
X80597663Y17902067D01*
X80665913Y17774380D01*
X80757762Y17662462D01*
X80869680Y17570613D01*
X80997367Y17502363D01*
X81135915Y17460335D01*
X81243895Y17449700D01*
X81280000Y17446144D01*
X81316105Y17449700D01*
X84307895Y17449700D01*
X84344000Y17446144D01*
X84380105Y17449700D01*
X84488085Y17460335D01*
X84626633Y17502363D01*
X84754320Y17570613D01*
X84866238Y17662462D01*
X84889258Y17690512D01*
X85176782Y17978036D01*
X85205506Y17954463D01*
X85315820Y17895498D01*
X85435518Y17859188D01*
X85560000Y17846928D01*
X87160000Y17846928D01*
X87284482Y17859188D01*
X87404180Y17895498D01*
X87514494Y17954463D01*
X87611185Y18033815D01*
X87690537Y18130506D01*
X87749502Y18240820D01*
X87785812Y18360518D01*
X87798072Y18485000D01*
X87798072Y20885000D01*
X87785812Y21009482D01*
X87749502Y21129180D01*
X87690537Y21239494D01*
X87611185Y21336185D01*
X87573743Y21366913D01*
X87609087Y21409980D01*
X87635485Y21459367D01*
X87677337Y21537666D01*
X87719365Y21676215D01*
X87733556Y21820300D01*
X87730000Y21856405D01*
X87730000Y27878372D01*
X87846426Y27830147D01*
X88123665Y27775000D01*
X88406335Y27775000D01*
X88683574Y27830147D01*
X88944727Y27938320D01*
X89179759Y28095363D01*
X89379637Y28295241D01*
X89535000Y28527759D01*
X89690363Y28295241D01*
X89890241Y28095363D01*
X90125273Y27938320D01*
X90386426Y27830147D01*
X90663665Y27775000D01*
X90946335Y27775000D01*
X91223574Y27830147D01*
X91484727Y27938320D01*
X91719759Y28095363D01*
X91919637Y28295241D01*
X92076680Y28530273D01*
X92081067Y28540865D01*
X92192615Y28354869D01*
X92381586Y28146481D01*
X92607580Y27978963D01*
X92861913Y27858754D01*
X92995961Y27818096D01*
X93218000Y27940085D01*
X93218000Y29083000D01*
X93198000Y29083000D01*
X93198000Y29337000D01*
X93218000Y29337000D01*
X93218000Y30479915D01*
X93472000Y30479915D01*
X93472000Y29337000D01*
X93492000Y29337000D01*
X93492000Y29083000D01*
X93472000Y29083000D01*
X93472000Y27940085D01*
X93694039Y27818096D01*
X93828087Y27858754D01*
X94082420Y27978963D01*
X94308414Y28146481D01*
X94497385Y28354869D01*
X94608933Y28540865D01*
X94613320Y28530273D01*
X94770363Y28295241D01*
X94970241Y28095363D01*
X95205273Y27938320D01*
X95466426Y27830147D01*
X95743665Y27775000D01*
X96026335Y27775000D01*
X96303574Y27830147D01*
X96564727Y27938320D01*
X96799759Y28095363D01*
X96999637Y28295241D01*
X97156680Y28530273D01*
X97264853Y28791426D01*
X97320000Y29068665D01*
X97320000Y29351335D01*
X97264853Y29628574D01*
X97156680Y29889727D01*
X96999637Y30124759D01*
X96799759Y30324637D01*
X96564727Y30481680D01*
X96303574Y30589853D01*
X96026335Y30645000D01*
X95743665Y30645000D01*
X95466426Y30589853D01*
X95205273Y30481680D01*
X94970241Y30324637D01*
X94770363Y30124759D01*
X94613320Y29889727D01*
X94608933Y29879135D01*
X94497385Y30065131D01*
X94308414Y30273519D01*
X94082420Y30441037D01*
X93828087Y30561246D01*
X93694039Y30601904D01*
X93472000Y30479915D01*
X93218000Y30479915D01*
X92995961Y30601904D01*
X92861913Y30561246D01*
X92607580Y30441037D01*
X92381586Y30273519D01*
X92192615Y30065131D01*
X92081067Y29879135D01*
X92076680Y29889727D01*
X91919637Y30124759D01*
X91719759Y30324637D01*
X91484727Y30481680D01*
X91223574Y30589853D01*
X90946335Y30645000D01*
X90663665Y30645000D01*
X90386426Y30589853D01*
X90125273Y30481680D01*
X89890241Y30324637D01*
X89690363Y30124759D01*
X89535000Y29892241D01*
X89379637Y30124759D01*
X89179759Y30324637D01*
X88944727Y30481680D01*
X88683574Y30589853D01*
X88406335Y30645000D01*
X88123665Y30645000D01*
X87846426Y30589853D01*
X87833856Y30584646D01*
X87909759Y30635363D01*
X88109637Y30835241D01*
X88266680Y31070273D01*
X88374853Y31331426D01*
X88430000Y31608665D01*
X88430000Y31891335D01*
X88374853Y32168574D01*
X88266680Y32429727D01*
X88109637Y32664759D01*
X87909759Y32864637D01*
X87674727Y33021680D01*
X87413574Y33129853D01*
X87136335Y33185000D01*
X86853665Y33185000D01*
X86576426Y33129853D01*
X86315273Y33021680D01*
X86080241Y32864637D01*
X85880363Y32664759D01*
X85725000Y32432241D01*
X85569637Y32664759D01*
X85369759Y32864637D01*
X85134727Y33021680D01*
X84873574Y33129853D01*
X84596335Y33185000D01*
X84313665Y33185000D01*
X84036426Y33129853D01*
X83775273Y33021680D01*
X83540241Y32864637D01*
X83340363Y32664759D01*
X83183320Y32429727D01*
X83075147Y32168574D01*
X83020000Y31891335D01*
X83020000Y31608665D01*
X83075147Y31331426D01*
X83183320Y31070273D01*
X83340363Y30835241D01*
X83540241Y30635363D01*
X83616144Y30584646D01*
X83603574Y30589853D01*
X83326335Y30645000D01*
X83043665Y30645000D01*
X82766426Y30589853D01*
X82505273Y30481680D01*
X82270241Y30324637D01*
X82070363Y30124759D01*
X81915000Y29892241D01*
X81759637Y30124759D01*
X81559759Y30324637D01*
X81324727Y30481680D01*
X81063574Y30589853D01*
X80786335Y30645000D01*
X80503665Y30645000D01*
X80226426Y30589853D01*
X79965273Y30481680D01*
X79730241Y30324637D01*
X79530363Y30124759D01*
X79375000Y29892241D01*
X79219637Y30124759D01*
X79019759Y30324637D01*
X78784727Y30481680D01*
X78523574Y30589853D01*
X78246335Y30645000D01*
X77963665Y30645000D01*
X77686426Y30589853D01*
X77673856Y30584646D01*
X77749759Y30635363D01*
X77949637Y30835241D01*
X78106680Y31070273D01*
X78214853Y31331426D01*
X78270000Y31608665D01*
X78270000Y31891335D01*
X78214853Y32168574D01*
X78106680Y32429727D01*
X77949637Y32664759D01*
X77749759Y32864637D01*
X77514727Y33021680D01*
X77253574Y33129853D01*
X76976335Y33185000D01*
X76693665Y33185000D01*
X76416426Y33129853D01*
X76300000Y33081628D01*
X76300000Y39064804D01*
X76303555Y39100901D01*
X76300000Y39136998D01*
X76300000Y39137005D01*
X76289365Y39244985D01*
X76247337Y39383533D01*
X76179087Y39511220D01*
X76087238Y39623138D01*
X76059193Y39646154D01*
X75188800Y40516546D01*
X75188800Y43061718D01*
X75423665Y43015000D01*
X75706335Y43015000D01*
X75983574Y43070147D01*
X76244727Y43178320D01*
X76479759Y43335363D01*
X76679637Y43535241D01*
X76835000Y43767759D01*
X76990363Y43535241D01*
X77190241Y43335363D01*
X77425273Y43178320D01*
X77686426Y43070147D01*
X77963665Y43015000D01*
X78246335Y43015000D01*
X78523574Y43070147D01*
X78784727Y43178320D01*
X79019759Y43335363D01*
X79219637Y43535241D01*
X79375000Y43767759D01*
X79530363Y43535241D01*
X79730241Y43335363D01*
X79965273Y43178320D01*
X80226426Y43070147D01*
X80503665Y43015000D01*
X80786335Y43015000D01*
X81063574Y43070147D01*
X81324727Y43178320D01*
X81559759Y43335363D01*
X81759637Y43535241D01*
X81915000Y43767759D01*
X82070363Y43535241D01*
X82270241Y43335363D01*
X82505273Y43178320D01*
X82766426Y43070147D01*
X83043665Y43015000D01*
X83326335Y43015000D01*
X83603574Y43070147D01*
X83864727Y43178320D01*
X84099759Y43335363D01*
X84299637Y43535241D01*
X84455000Y43767759D01*
X84610363Y43535241D01*
X84810241Y43335363D01*
X85045273Y43178320D01*
X85306426Y43070147D01*
X85583665Y43015000D01*
X85866335Y43015000D01*
X86143574Y43070147D01*
X86404727Y43178320D01*
X86639759Y43335363D01*
X86839637Y43535241D01*
X86995000Y43767759D01*
X87150363Y43535241D01*
X87350241Y43335363D01*
X87585273Y43178320D01*
X87846426Y43070147D01*
X88123665Y43015000D01*
X88406335Y43015000D01*
X88683574Y43070147D01*
X88944727Y43178320D01*
X89179759Y43335363D01*
X89379637Y43535241D01*
X89535000Y43767759D01*
X89690363Y43535241D01*
X89890241Y43335363D01*
X90125273Y43178320D01*
X90386426Y43070147D01*
X90663665Y43015000D01*
X90946335Y43015000D01*
X91223574Y43070147D01*
X91484727Y43178320D01*
X91719759Y43335363D01*
X91919637Y43535241D01*
X92075000Y43767759D01*
X92230363Y43535241D01*
X92430241Y43335363D01*
X92665273Y43178320D01*
X92926426Y43070147D01*
X93203665Y43015000D01*
X93486335Y43015000D01*
X93763574Y43070147D01*
X94024727Y43178320D01*
X94259759Y43335363D01*
X94458357Y43533961D01*
X94459188Y43525518D01*
X94495498Y43405820D01*
X94554463Y43295506D01*
X94633815Y43198815D01*
X94730506Y43119463D01*
X94840820Y43060498D01*
X94960518Y43024188D01*
X95085000Y43011928D01*
X96685000Y43011928D01*
X96809482Y43024188D01*
X96929180Y43060498D01*
X97039494Y43119463D01*
X97136185Y43198815D01*
X97215537Y43295506D01*
X97274502Y43405820D01*
X97310812Y43525518D01*
X97323072Y43650000D01*
X97323072Y45250000D01*
X97310812Y45374482D01*
X97274502Y45494180D01*
X97215537Y45604494D01*
X97136185Y45701185D01*
X97039494Y45780537D01*
X96929180Y45839502D01*
X96809482Y45875812D01*
X96685000Y45888072D01*
X95085000Y45888072D01*
X94960518Y45875812D01*
X94840820Y45839502D01*
X94730506Y45780537D01*
X94633815Y45701185D01*
X94554463Y45604494D01*
X94495498Y45494180D01*
X94459188Y45374482D01*
X94458357Y45366039D01*
X94259759Y45564637D01*
X94024727Y45721680D01*
X93763574Y45829853D01*
X93486335Y45885000D01*
X93203665Y45885000D01*
X92926426Y45829853D01*
X92665273Y45721680D01*
X92430241Y45564637D01*
X92230363Y45364759D01*
X92075000Y45132241D01*
X91919637Y45364759D01*
X91719759Y45564637D01*
X91484727Y45721680D01*
X91223574Y45829853D01*
X90946335Y45885000D01*
X90663665Y45885000D01*
X90386426Y45829853D01*
X90125273Y45721680D01*
X89890241Y45564637D01*
X89690363Y45364759D01*
X89535000Y45132241D01*
X89379637Y45364759D01*
X89179759Y45564637D01*
X88944727Y45721680D01*
X88683574Y45829853D01*
X88406335Y45885000D01*
X88123665Y45885000D01*
X87846426Y45829853D01*
X87585273Y45721680D01*
X87350241Y45564637D01*
X87150363Y45364759D01*
X86995000Y45132241D01*
X86839637Y45364759D01*
X86639759Y45564637D01*
X86404727Y45721680D01*
X86143574Y45829853D01*
X85866335Y45885000D01*
X85583665Y45885000D01*
X85306426Y45829853D01*
X85045273Y45721680D01*
X84810241Y45564637D01*
X84610363Y45364759D01*
X84455000Y45132241D01*
X84299637Y45364759D01*
X84099759Y45564637D01*
X83864727Y45721680D01*
X83603574Y45829853D01*
X83326335Y45885000D01*
X83043665Y45885000D01*
X82766426Y45829853D01*
X82505273Y45721680D01*
X82270241Y45564637D01*
X82070363Y45364759D01*
X81915000Y45132241D01*
X81759637Y45364759D01*
X81559759Y45564637D01*
X81324727Y45721680D01*
X81063574Y45829853D01*
X80786335Y45885000D01*
X80503665Y45885000D01*
X80226426Y45829853D01*
X79965273Y45721680D01*
X79730241Y45564637D01*
X79530363Y45364759D01*
X79375000Y45132241D01*
X79219637Y45364759D01*
X79019759Y45564637D01*
X78784727Y45721680D01*
X78523574Y45829853D01*
X78246335Y45885000D01*
X77963665Y45885000D01*
X77686426Y45829853D01*
X77425273Y45721680D01*
X77190241Y45564637D01*
X76990363Y45364759D01*
X76835000Y45132241D01*
X76679637Y45364759D01*
X76479759Y45564637D01*
X76244727Y45721680D01*
X75983574Y45829853D01*
X75706335Y45885000D01*
X75423665Y45885000D01*
X75188800Y45838282D01*
X75188800Y54756260D01*
X93765000Y54756260D01*
X93765000Y54463740D01*
X93822068Y54176842D01*
X93934010Y53906589D01*
X94096525Y53663368D01*
X94303368Y53456525D01*
X94546589Y53294010D01*
X94816842Y53182068D01*
X95103740Y53125000D01*
X95396260Y53125000D01*
X95683158Y53182068D01*
X95953411Y53294010D01*
X96196632Y53456525D01*
X96403475Y53663368D01*
X96520000Y53837760D01*
X96636525Y53663368D01*
X96843368Y53456525D01*
X97086589Y53294010D01*
X97356842Y53182068D01*
X97643740Y53125000D01*
X97936260Y53125000D01*
X98223158Y53182068D01*
X98493411Y53294010D01*
X98736632Y53456525D01*
X98943475Y53663368D01*
X99105990Y53906589D01*
X99217932Y54176842D01*
X99275000Y54463740D01*
X99275000Y54756260D01*
X99217932Y55043158D01*
X99105990Y55313411D01*
X98943475Y55556632D01*
X98736632Y55763475D01*
X98493411Y55925990D01*
X98223158Y56037932D01*
X97936260Y56095000D01*
X97643740Y56095000D01*
X97356842Y56037932D01*
X97086589Y55925990D01*
X96843368Y55763475D01*
X96636525Y55556632D01*
X96520000Y55382240D01*
X96403475Y55556632D01*
X96196632Y55763475D01*
X95953411Y55925990D01*
X95683158Y56037932D01*
X95396260Y56095000D01*
X95103740Y56095000D01*
X94816842Y56037932D01*
X94546589Y55925990D01*
X94303368Y55763475D01*
X94096525Y55556632D01*
X93934010Y55313411D01*
X93822068Y55043158D01*
X93765000Y54756260D01*
X75188800Y54756260D01*
X75188800Y59218106D01*
X75192355Y59254201D01*
X75188800Y59290296D01*
X75188800Y59290305D01*
X75178165Y59398285D01*
X75136137Y59536833D01*
X75067887Y59664520D01*
X74976038Y59776438D01*
X74947993Y59799454D01*
X70963777Y63783670D01*
X71003475Y63823368D01*
X71165990Y64066589D01*
X71277932Y64336842D01*
X71335000Y64623740D01*
X71335000Y64916260D01*
X71277932Y65203158D01*
X71165990Y65473411D01*
X71003475Y65716632D01*
X70796632Y65923475D01*
X70614466Y66045195D01*
X70731355Y66114822D01*
X70947588Y66309731D01*
X71121641Y66543080D01*
X71246825Y66805901D01*
X71291476Y66953110D01*
X71170155Y67183000D01*
X69977000Y67183000D01*
X69977000Y67163000D01*
X69723000Y67163000D01*
X69723000Y67183000D01*
X68529845Y67183000D01*
X68408524Y66953110D01*
X68453175Y66805901D01*
X68578359Y66543080D01*
X68752412Y66309731D01*
X68968645Y66114822D01*
X69085534Y66045195D01*
X68903368Y65923475D01*
X68696525Y65716632D01*
X68534010Y65473411D01*
X68422068Y65203158D01*
X68365000Y64916260D01*
X68365000Y64623740D01*
X68422068Y64336842D01*
X68534010Y64066589D01*
X68696525Y63823368D01*
X68903368Y63616525D01*
X69077760Y63500000D01*
X68903368Y63383475D01*
X68696525Y63176632D01*
X68534010Y62933411D01*
X68422068Y62663158D01*
X68365000Y62376260D01*
X68365000Y62083740D01*
X68422068Y61796842D01*
X68534010Y61526589D01*
X68696525Y61283368D01*
X68903368Y61076525D01*
X69077760Y60960000D01*
X68903368Y60843475D01*
X68696525Y60636632D01*
X68534010Y60393411D01*
X68422068Y60123158D01*
X68365000Y59836260D01*
X68365000Y59543740D01*
X68422068Y59256842D01*
X68534010Y58986589D01*
X68696525Y58743368D01*
X68903368Y58536525D01*
X69077760Y58420000D01*
X68903368Y58303475D01*
X68696525Y58096632D01*
X68534010Y57853411D01*
X68422068Y57583158D01*
X68365000Y57296260D01*
X68365000Y57003740D01*
X68422068Y56716842D01*
X68534010Y56446589D01*
X68696525Y56203368D01*
X68736173Y56163720D01*
X66685800Y54113346D01*
X66685800Y75780000D01*
X68361928Y75780000D01*
X68361928Y74080000D01*
X68374188Y73955518D01*
X68410498Y73835820D01*
X68469463Y73725506D01*
X68548815Y73628815D01*
X68645506Y73549463D01*
X68755820Y73490498D01*
X68828380Y73468487D01*
X68696525Y73336632D01*
X68534010Y73093411D01*
X68422068Y72823158D01*
X68365000Y72536260D01*
X68365000Y72243740D01*
X68422068Y71956842D01*
X68534010Y71686589D01*
X68696525Y71443368D01*
X68903368Y71236525D01*
X69077760Y71120000D01*
X68903368Y71003475D01*
X68696525Y70796632D01*
X68534010Y70553411D01*
X68422068Y70283158D01*
X68365000Y69996260D01*
X68365000Y69703740D01*
X68422068Y69416842D01*
X68534010Y69146589D01*
X68696525Y68903368D01*
X68903368Y68696525D01*
X69085534Y68574805D01*
X68968645Y68505178D01*
X68752412Y68310269D01*
X68578359Y68076920D01*
X68453175Y67814099D01*
X68408524Y67666890D01*
X68529845Y67437000D01*
X69723000Y67437000D01*
X69723000Y67457000D01*
X69977000Y67457000D01*
X69977000Y67437000D01*
X71170155Y67437000D01*
X71291476Y67666890D01*
X71246825Y67814099D01*
X71121641Y68076920D01*
X70947588Y68310269D01*
X70731355Y68505178D01*
X70614466Y68574805D01*
X70796632Y68696525D01*
X71003475Y68903368D01*
X71165990Y69146589D01*
X71277932Y69416842D01*
X71335000Y69703740D01*
X71335000Y69996260D01*
X71277932Y70283158D01*
X71165990Y70553411D01*
X71003475Y70796632D01*
X70796632Y71003475D01*
X70622240Y71120000D01*
X70796632Y71236525D01*
X71003475Y71443368D01*
X71165990Y71686589D01*
X71277932Y71956842D01*
X71335000Y72243740D01*
X71335000Y72536260D01*
X71277932Y72823158D01*
X71165990Y73093411D01*
X71003475Y73336632D01*
X70871620Y73468487D01*
X70944180Y73490498D01*
X71054494Y73549463D01*
X71151185Y73628815D01*
X71230537Y73725506D01*
X71289502Y73835820D01*
X71325812Y73955518D01*
X71338072Y74080000D01*
X71338072Y75076260D01*
X93765000Y75076260D01*
X93765000Y74783740D01*
X93822068Y74496842D01*
X93934010Y74226589D01*
X94096525Y73983368D01*
X94303368Y73776525D01*
X94546589Y73614010D01*
X94816842Y73502068D01*
X95103740Y73445000D01*
X95396260Y73445000D01*
X95683158Y73502068D01*
X95953411Y73614010D01*
X96196632Y73776525D01*
X96403475Y73983368D01*
X96520000Y74157760D01*
X96636525Y73983368D01*
X96843368Y73776525D01*
X97086589Y73614010D01*
X97356842Y73502068D01*
X97643740Y73445000D01*
X97936260Y73445000D01*
X98223158Y73502068D01*
X98493411Y73614010D01*
X98736632Y73776525D01*
X98943475Y73983368D01*
X99105990Y74226589D01*
X99217932Y74496842D01*
X99275000Y74783740D01*
X99275000Y75076260D01*
X99217932Y75363158D01*
X99105990Y75633411D01*
X98943475Y75876632D01*
X98736632Y76083475D01*
X98493411Y76245990D01*
X98223158Y76357932D01*
X97936260Y76415000D01*
X97643740Y76415000D01*
X97356842Y76357932D01*
X97086589Y76245990D01*
X96843368Y76083475D01*
X96636525Y75876632D01*
X96520000Y75702240D01*
X96403475Y75876632D01*
X96196632Y76083475D01*
X95953411Y76245990D01*
X95683158Y76357932D01*
X95396260Y76415000D01*
X95103740Y76415000D01*
X94816842Y76357932D01*
X94546589Y76245990D01*
X94303368Y76083475D01*
X94096525Y75876632D01*
X93934010Y75633411D01*
X93822068Y75363158D01*
X93765000Y75076260D01*
X71338072Y75076260D01*
X71338072Y75780000D01*
X71325812Y75904482D01*
X71289502Y76024180D01*
X71230537Y76134494D01*
X71151185Y76231185D01*
X71054494Y76310537D01*
X70944180Y76369502D01*
X70824482Y76405812D01*
X70700000Y76418072D01*
X69000000Y76418072D01*
X68875518Y76405812D01*
X68755820Y76369502D01*
X68645506Y76310537D01*
X68548815Y76231185D01*
X68469463Y76134494D01*
X68410498Y76024180D01*
X68374188Y75904482D01*
X68361928Y75780000D01*
X66685800Y75780000D01*
X66685800Y79491096D01*
X66689356Y79527201D01*
X66675165Y79671286D01*
X66652571Y79745767D01*
X66633137Y79809833D01*
X66564887Y79937520D01*
X66520917Y79991097D01*
X66496053Y80021394D01*
X66496050Y80021397D01*
X66473037Y80049438D01*
X66444998Y80072449D01*
X50922059Y95595387D01*
X50899038Y95623438D01*
X50787120Y95715287D01*
X50659433Y95783537D01*
X50520885Y95825565D01*
X50412905Y95836200D01*
X50376800Y95839756D01*
X50340695Y95836200D01*
X47555969Y95836200D01*
X47669727Y95883320D01*
X47904759Y96040363D01*
X48027505Y96163109D01*
X60153519Y96163109D01*
X60250843Y95888748D01*
X60399822Y95638645D01*
X60594731Y95422412D01*
X60828080Y95248359D01*
X61090901Y95123175D01*
X61238110Y95078524D01*
X61468000Y95199845D01*
X61468000Y96393000D01*
X60274186Y96393000D01*
X60153519Y96163109D01*
X48027505Y96163109D01*
X48104637Y96240241D01*
X48261680Y96475273D01*
X48369853Y96736426D01*
X48397793Y96876891D01*
X60153519Y96876891D01*
X60274186Y96647000D01*
X61468000Y96647000D01*
X61468000Y97840155D01*
X61722000Y97840155D01*
X61722000Y96647000D01*
X61742000Y96647000D01*
X61742000Y96393000D01*
X61722000Y96393000D01*
X61722000Y95199845D01*
X61951890Y95078524D01*
X62099099Y95123175D01*
X62361920Y95248359D01*
X62595269Y95422412D01*
X62790178Y95638645D01*
X62859805Y95755534D01*
X62981525Y95573368D01*
X63188368Y95366525D01*
X63431589Y95204010D01*
X63701842Y95092068D01*
X63988740Y95035000D01*
X64281260Y95035000D01*
X64568158Y95092068D01*
X64838411Y95204010D01*
X65081632Y95366525D01*
X65213487Y95498380D01*
X65235498Y95425820D01*
X65294463Y95315506D01*
X65373815Y95218815D01*
X65470506Y95139463D01*
X65580820Y95080498D01*
X65700518Y95044188D01*
X65825000Y95031928D01*
X67525000Y95031928D01*
X67649482Y95044188D01*
X67769180Y95080498D01*
X67879494Y95139463D01*
X67976185Y95218815D01*
X67977262Y95220128D01*
X81765000Y95220128D01*
X81765000Y94779872D01*
X81850890Y94348075D01*
X82019369Y93941331D01*
X82263962Y93575271D01*
X82575271Y93263962D01*
X82941331Y93019369D01*
X83348075Y92850890D01*
X83779872Y92765000D01*
X84220128Y92765000D01*
X84651925Y92850890D01*
X85058669Y93019369D01*
X85424729Y93263962D01*
X85736038Y93575271D01*
X85980631Y93941331D01*
X86149110Y94348075D01*
X86235000Y94779872D01*
X86235000Y95220128D01*
X86149110Y95651925D01*
X85980631Y96058669D01*
X85736038Y96424729D01*
X85424729Y96736038D01*
X85058669Y96980631D01*
X84651925Y97149110D01*
X84220128Y97235000D01*
X83779872Y97235000D01*
X83348075Y97149110D01*
X82941331Y96980631D01*
X82575271Y96736038D01*
X82263962Y96424729D01*
X82019369Y96058669D01*
X81850890Y95651925D01*
X81765000Y95220128D01*
X67977262Y95220128D01*
X68055537Y95315506D01*
X68114502Y95425820D01*
X68150812Y95545518D01*
X68163072Y95670000D01*
X68163072Y97370000D01*
X68150812Y97494482D01*
X68114502Y97614180D01*
X68055537Y97724494D01*
X67976185Y97821185D01*
X67879494Y97900537D01*
X67769180Y97959502D01*
X67649482Y97995812D01*
X67525000Y98008072D01*
X65825000Y98008072D01*
X65700518Y97995812D01*
X65580820Y97959502D01*
X65470506Y97900537D01*
X65373815Y97821185D01*
X65294463Y97724494D01*
X65235498Y97614180D01*
X65213487Y97541620D01*
X65081632Y97673475D01*
X64838411Y97835990D01*
X64568158Y97947932D01*
X64281260Y98005000D01*
X63988740Y98005000D01*
X63701842Y97947932D01*
X63431589Y97835990D01*
X63188368Y97673475D01*
X62981525Y97466632D01*
X62859805Y97284466D01*
X62790178Y97401355D01*
X62595269Y97617588D01*
X62361920Y97791641D01*
X62099099Y97916825D01*
X61951890Y97961476D01*
X61722000Y97840155D01*
X61468000Y97840155D01*
X61238110Y97961476D01*
X61090901Y97916825D01*
X60828080Y97791641D01*
X60594731Y97617588D01*
X60399822Y97401355D01*
X60250843Y97151252D01*
X60153519Y96876891D01*
X48397793Y96876891D01*
X48425000Y97013665D01*
X48425000Y97296335D01*
X48369853Y97573574D01*
X48261680Y97834727D01*
X48104637Y98069759D01*
X47904759Y98269637D01*
X47669727Y98426680D01*
X47408574Y98534853D01*
X47131335Y98590000D01*
X46848665Y98590000D01*
X46571426Y98534853D01*
X46310273Y98426680D01*
X46075241Y98269637D01*
X45875363Y98069759D01*
X45741308Y97869131D01*
X45726671Y97896514D01*
X45482702Y97968097D01*
X44669605Y97155000D01*
X45482702Y96341903D01*
X45726671Y96413486D01*
X45740324Y96442341D01*
X45875363Y96240241D01*
X46075241Y96040363D01*
X46310273Y95883320D01*
X46571426Y95775147D01*
X46718455Y95745901D01*
X46661180Y95715287D01*
X46549262Y95623438D01*
X46526246Y95595393D01*
X43357038Y92426184D01*
X43329608Y92459608D01*
X43216518Y92552419D01*
X43234482Y92554188D01*
X43354180Y92590498D01*
X43464494Y92649463D01*
X43561185Y92728815D01*
X43640537Y92825506D01*
X43699502Y92935820D01*
X43735812Y93055518D01*
X43748072Y93180000D01*
X43745000Y93694250D01*
X43586250Y93853000D01*
X42037000Y93853000D01*
X42037000Y93833000D01*
X41783000Y93833000D01*
X41783000Y93853000D01*
X40233750Y93853000D01*
X40075000Y93694250D01*
X40071928Y93180000D01*
X40084188Y93055518D01*
X40120498Y92935820D01*
X40179463Y92825506D01*
X40258815Y92728815D01*
X40355506Y92649463D01*
X40465820Y92590498D01*
X40585518Y92554188D01*
X40603482Y92552419D01*
X40490392Y92459608D01*
X40311068Y92241101D01*
X40177818Y91991808D01*
X40095764Y91721309D01*
X40068057Y91440000D01*
X40095764Y91158691D01*
X40177818Y90888192D01*
X40311068Y90638899D01*
X40490392Y90420392D01*
X40708899Y90241068D01*
X40841858Y90170000D01*
X40708899Y90098932D01*
X40490392Y89919608D01*
X40311068Y89701101D01*
X40177818Y89451808D01*
X40095764Y89181309D01*
X40068057Y88900000D01*
X40095764Y88618691D01*
X40177818Y88348192D01*
X40311068Y88098899D01*
X40490392Y87880392D01*
X40708899Y87701068D01*
X40841858Y87630000D01*
X40708899Y87558932D01*
X40490392Y87379608D01*
X40311068Y87161101D01*
X40177818Y86911808D01*
X40095764Y86641309D01*
X40068057Y86360000D01*
X40095764Y86078691D01*
X40177818Y85808192D01*
X40311068Y85558899D01*
X40490392Y85340392D01*
X40708899Y85161068D01*
X40841858Y85090000D01*
X40708899Y85018932D01*
X40490392Y84839608D01*
X40311068Y84621101D01*
X40177818Y84371808D01*
X40095764Y84101309D01*
X40068057Y83820000D01*
X40095764Y83538691D01*
X40177818Y83268192D01*
X40311068Y83018899D01*
X40490392Y82800392D01*
X40708899Y82621068D01*
X40841858Y82550000D01*
X40708899Y82478932D01*
X40490392Y82299608D01*
X40311068Y82081101D01*
X40177818Y81831808D01*
X40095764Y81561309D01*
X40068057Y81280000D01*
X40095764Y80998691D01*
X40177818Y80728192D01*
X40311068Y80478899D01*
X40490392Y80260392D01*
X40708899Y80081068D01*
X40841858Y80010000D01*
X40708899Y79938932D01*
X40490392Y79759608D01*
X40311068Y79541101D01*
X40245296Y79418051D01*
X26619659Y93043687D01*
X26596638Y93071738D01*
X26484720Y93163587D01*
X26357033Y93231837D01*
X26218485Y93273865D01*
X26110505Y93284500D01*
X26074400Y93288056D01*
X26038295Y93284500D01*
X25785377Y93284500D01*
X25862182Y93428192D01*
X25944236Y93698691D01*
X25971943Y93980000D01*
X25944236Y94261309D01*
X25862182Y94531808D01*
X25729521Y94780000D01*
X40071928Y94780000D01*
X40075000Y94265750D01*
X40233750Y94107000D01*
X41783000Y94107000D01*
X41783000Y95256250D01*
X42037000Y95256250D01*
X42037000Y94107000D01*
X43586250Y94107000D01*
X43745000Y94265750D01*
X43748072Y94780000D01*
X43735812Y94904482D01*
X43699502Y95024180D01*
X43640537Y95134494D01*
X43561185Y95231185D01*
X43464494Y95310537D01*
X43354180Y95369502D01*
X43234482Y95405812D01*
X43110000Y95418072D01*
X42195750Y95415000D01*
X42037000Y95256250D01*
X41783000Y95256250D01*
X41624250Y95415000D01*
X40710000Y95418072D01*
X40585518Y95405812D01*
X40465820Y95369502D01*
X40355506Y95310537D01*
X40258815Y95231185D01*
X40179463Y95134494D01*
X40120498Y95024180D01*
X40084188Y94904482D01*
X40071928Y94780000D01*
X25729521Y94780000D01*
X25728932Y94781101D01*
X25549608Y94999608D01*
X25331101Y95178932D01*
X25081808Y95312182D01*
X24811309Y95394236D01*
X24600492Y95415000D01*
X23659508Y95415000D01*
X23448691Y95394236D01*
X23178192Y95312182D01*
X22928899Y95178932D01*
X22710392Y94999608D01*
X22531068Y94781101D01*
X22397818Y94531808D01*
X22315764Y94261309D01*
X22288057Y93980000D01*
X22315764Y93698691D01*
X22397818Y93428192D01*
X22474623Y93284500D01*
X19155905Y93284500D01*
X19119800Y93288056D01*
X19083695Y93284500D01*
X18975715Y93273865D01*
X18837167Y93231837D01*
X18709480Y93163587D01*
X18597562Y93071738D01*
X18574546Y93043693D01*
X17957038Y92426184D01*
X17929608Y92459608D01*
X17816518Y92552419D01*
X17834482Y92554188D01*
X17954180Y92590498D01*
X18064494Y92649463D01*
X18161185Y92728815D01*
X18240537Y92825506D01*
X18299502Y92935820D01*
X18335812Y93055518D01*
X18348072Y93180000D01*
X18348072Y94780000D01*
X18335812Y94904482D01*
X18299502Y95024180D01*
X18240537Y95134494D01*
X18161185Y95231185D01*
X18064494Y95310537D01*
X17954180Y95369502D01*
X17834482Y95405812D01*
X17710000Y95418072D01*
X15310000Y95418072D01*
X15185518Y95405812D01*
X15065820Y95369502D01*
X14955506Y95310537D01*
X14858815Y95231185D01*
X14779463Y95134494D01*
X14720498Y95024180D01*
X14684188Y94904482D01*
X14671973Y94780459D01*
X14588613Y94755172D01*
X14443554Y94677636D01*
X14316409Y94573291D01*
X14212064Y94446146D01*
X14134528Y94301087D01*
X14086782Y94143689D01*
X14070660Y93980000D01*
X14074700Y93938981D01*
X14074701Y92840769D01*
X8882369Y87648436D01*
X8856671Y87696514D01*
X8612702Y87768097D01*
X7799605Y86955000D01*
X7813748Y86940857D01*
X7634143Y86761252D01*
X7620000Y86775395D01*
X7247706Y86403101D01*
X7153854Y86352936D01*
X7026709Y86248591D01*
X6922364Y86121446D01*
X6872199Y86027594D01*
X6806903Y85962298D01*
X6823448Y85905908D01*
X6819541Y85893027D01*
X6695518Y85880812D01*
X6575820Y85844502D01*
X6465506Y85785537D01*
X6368815Y85706185D01*
X6289463Y85609494D01*
X6230498Y85499180D01*
X6194188Y85379482D01*
X6181928Y85255000D01*
X6181928Y83655000D01*
X6194188Y83530518D01*
X6230498Y83410820D01*
X6289463Y83300506D01*
X6368815Y83203815D01*
X6465506Y83124463D01*
X6575820Y83065498D01*
X6695518Y83029188D01*
X6820000Y83016928D01*
X8420000Y83016928D01*
X8544482Y83029188D01*
X8664180Y83065498D01*
X8774494Y83124463D01*
X8871185Y83203815D01*
X8950537Y83300506D01*
X9009502Y83410820D01*
X9045812Y83530518D01*
X9058072Y83655000D01*
X9058072Y85255000D01*
X9045812Y85379482D01*
X9029366Y85433699D01*
X14709402Y91113734D01*
X14777818Y90888192D01*
X14911068Y90638899D01*
X15090392Y90420392D01*
X15308899Y90241068D01*
X15441858Y90170000D01*
X15308899Y90098932D01*
X15090392Y89919608D01*
X14911068Y89701101D01*
X14777818Y89451808D01*
X14695764Y89181309D01*
X14668057Y88900000D01*
X14695764Y88618691D01*
X14777818Y88348192D01*
X14911068Y88098899D01*
X15090392Y87880392D01*
X15308899Y87701068D01*
X15441858Y87630000D01*
X15308899Y87558932D01*
X15090392Y87379608D01*
X14911068Y87161101D01*
X14870298Y87084826D01*
X14865615Y87084365D01*
X14727067Y87042337D01*
X14599380Y86974087D01*
X14487462Y86882238D01*
X14464446Y86854193D01*
X5955908Y78345654D01*
X5927862Y78322637D01*
X5836013Y78210719D01*
X5767763Y78083032D01*
X5747203Y78015253D01*
X5725735Y77944485D01*
X5711544Y77800400D01*
X5715100Y77764295D01*
X5715100Y76158072D01*
X4230000Y76158072D01*
X4105518Y76145812D01*
X3985820Y76109502D01*
X3875506Y76050537D01*
X3778815Y75971185D01*
X3699463Y75874494D01*
X3640498Y75764180D01*
X3604188Y75644482D01*
X3591928Y75520000D01*
X3591928Y73820000D01*
X3604188Y73695518D01*
X3640498Y73575820D01*
X3699463Y73465506D01*
X3778815Y73368815D01*
X3875506Y73289463D01*
X3985820Y73230498D01*
X4058380Y73208487D01*
X3926525Y73076632D01*
X3764010Y72833411D01*
X3652068Y72563158D01*
X3595000Y72276260D01*
X3595000Y71983740D01*
X3652068Y71696842D01*
X3764010Y71426589D01*
X3926525Y71183368D01*
X4133368Y70976525D01*
X4307760Y70860000D01*
X4133368Y70743475D01*
X3926525Y70536632D01*
X3764010Y70293411D01*
X3652068Y70023158D01*
X3595000Y69736260D01*
X3595000Y69443740D01*
X3652068Y69156842D01*
X3764010Y68886589D01*
X3926525Y68643368D01*
X4133368Y68436525D01*
X4307760Y68320000D01*
X4133368Y68203475D01*
X3926525Y67996632D01*
X3764010Y67753411D01*
X3652068Y67483158D01*
X3595000Y67196260D01*
X3595000Y66903740D01*
X3652068Y66616842D01*
X3764010Y66346589D01*
X3926525Y66103368D01*
X4133368Y65896525D01*
X4307760Y65780000D01*
X4133368Y65663475D01*
X3926525Y65456632D01*
X3764010Y65213411D01*
X3652068Y64943158D01*
X3595000Y64656260D01*
X3595000Y64363740D01*
X3652068Y64076842D01*
X3764010Y63806589D01*
X3926525Y63563368D01*
X4133368Y63356525D01*
X4307760Y63240000D01*
X4133368Y63123475D01*
X3926525Y62916632D01*
X3764010Y62673411D01*
X3652068Y62403158D01*
X3595000Y62116260D01*
X3595000Y61823740D01*
X3652068Y61536842D01*
X3764010Y61266589D01*
X3926525Y61023368D01*
X4133368Y60816525D01*
X4307760Y60700000D01*
X4133368Y60583475D01*
X3926525Y60376632D01*
X3764010Y60133411D01*
X3652068Y59863158D01*
X3595000Y59576260D01*
X3595000Y59283740D01*
X3652068Y58996842D01*
X3764010Y58726589D01*
X3926525Y58483368D01*
X4133368Y58276525D01*
X4307760Y58160000D01*
X4133368Y58043475D01*
X3926525Y57836632D01*
X3764010Y57593411D01*
X3652068Y57323158D01*
X3595000Y57036260D01*
X3595000Y56743740D01*
X3652068Y56456842D01*
X3764010Y56186589D01*
X3926525Y55943368D01*
X4133368Y55736525D01*
X4307760Y55620000D01*
X4133368Y55503475D01*
X3926525Y55296632D01*
X3764010Y55053411D01*
X3652068Y54783158D01*
X3595000Y54496260D01*
X3595000Y54203740D01*
X3652068Y53916842D01*
X3764010Y53646589D01*
X3926525Y53403368D01*
X4133368Y53196525D01*
X4307760Y53080000D01*
X4133368Y52963475D01*
X3926525Y52756632D01*
X3764010Y52513411D01*
X3652068Y52243158D01*
X3595000Y51956260D01*
X3595000Y51663740D01*
X3652068Y51376842D01*
X3764010Y51106589D01*
X3926525Y50863368D01*
X4133368Y50656525D01*
X4307760Y50540000D01*
X4133368Y50423475D01*
X3926525Y50216632D01*
X3764010Y49973411D01*
X3652068Y49703158D01*
X3595000Y49416260D01*
X3595000Y49123740D01*
X3652068Y48836842D01*
X3764010Y48566589D01*
X3926525Y48323368D01*
X3966173Y48283720D01*
X3423108Y47740654D01*
X3395062Y47717637D01*
X3303213Y47605719D01*
X3234963Y47478032D01*
X3209877Y47395335D01*
X3192935Y47339485D01*
X3178744Y47195400D01*
X660000Y47195400D01*
X660000Y86884488D01*
X6179783Y86884488D01*
X6221213Y86604870D01*
X6316397Y86338708D01*
X6383329Y86213486D01*
X6627298Y86141903D01*
X7440395Y86955000D01*
X6627298Y87768097D01*
X6383329Y87696514D01*
X6262429Y87441004D01*
X6193700Y87166816D01*
X6179783Y86884488D01*
X660000Y86884488D01*
X660000Y87947702D01*
X6806903Y87947702D01*
X7620000Y87134605D01*
X8433097Y87947702D01*
X8361514Y88191671D01*
X8106004Y88312571D01*
X7831816Y88381300D01*
X7549488Y88395217D01*
X7269870Y88353787D01*
X7003708Y88258603D01*
X6878486Y88191671D01*
X6806903Y87947702D01*
X660000Y87947702D01*
X660000Y95220128D01*
X2765000Y95220128D01*
X2765000Y94779872D01*
X2850890Y94348075D01*
X3019369Y93941331D01*
X3263962Y93575271D01*
X3575271Y93263962D01*
X3941331Y93019369D01*
X4348075Y92850890D01*
X4779872Y92765000D01*
X5220128Y92765000D01*
X5651925Y92850890D01*
X6058669Y93019369D01*
X6424729Y93263962D01*
X6736038Y93575271D01*
X6980631Y93941331D01*
X7149110Y94348075D01*
X7235000Y94779872D01*
X7235000Y95220128D01*
X7149110Y95651925D01*
X6980631Y96058669D01*
X6911389Y96162298D01*
X18276903Y96162298D01*
X18348486Y95918329D01*
X18603996Y95797429D01*
X18878184Y95728700D01*
X19160512Y95714783D01*
X19440130Y95756213D01*
X19706292Y95851397D01*
X19831514Y95918329D01*
X19903097Y96162298D01*
X19090000Y96975395D01*
X18276903Y96162298D01*
X6911389Y96162298D01*
X6736038Y96424729D01*
X6424729Y96736038D01*
X6058669Y96980631D01*
X5807937Y97084488D01*
X17649783Y97084488D01*
X17691213Y96804870D01*
X17786397Y96538708D01*
X17853329Y96413486D01*
X18097298Y96341903D01*
X18910395Y97155000D01*
X19269605Y97155000D01*
X20082702Y96341903D01*
X20326671Y96413486D01*
X20340324Y96442341D01*
X20475363Y96240241D01*
X20675241Y96040363D01*
X20910273Y95883320D01*
X21171426Y95775147D01*
X21448665Y95720000D01*
X21731335Y95720000D01*
X22008574Y95775147D01*
X22269727Y95883320D01*
X22504759Y96040363D01*
X22626694Y96162298D01*
X43676903Y96162298D01*
X43748486Y95918329D01*
X44003996Y95797429D01*
X44278184Y95728700D01*
X44560512Y95714783D01*
X44840130Y95756213D01*
X45106292Y95851397D01*
X45231514Y95918329D01*
X45303097Y96162298D01*
X44490000Y96975395D01*
X43676903Y96162298D01*
X22626694Y96162298D01*
X22704637Y96240241D01*
X22861680Y96475273D01*
X22969853Y96736426D01*
X23025000Y97013665D01*
X23025000Y97084488D01*
X43049783Y97084488D01*
X43091213Y96804870D01*
X43186397Y96538708D01*
X43253329Y96413486D01*
X43497298Y96341903D01*
X44310395Y97155000D01*
X43497298Y97968097D01*
X43253329Y97896514D01*
X43132429Y97641004D01*
X43063700Y97366816D01*
X43049783Y97084488D01*
X23025000Y97084488D01*
X23025000Y97296335D01*
X22969853Y97573574D01*
X22861680Y97834727D01*
X22704637Y98069759D01*
X22626694Y98147702D01*
X43676903Y98147702D01*
X44490000Y97334605D01*
X45303097Y98147702D01*
X45231514Y98391671D01*
X44976004Y98512571D01*
X44701816Y98581300D01*
X44419488Y98595217D01*
X44139870Y98553787D01*
X43873708Y98458603D01*
X43748486Y98391671D01*
X43676903Y98147702D01*
X22626694Y98147702D01*
X22504759Y98269637D01*
X22269727Y98426680D01*
X22008574Y98534853D01*
X21731335Y98590000D01*
X21448665Y98590000D01*
X21171426Y98534853D01*
X20910273Y98426680D01*
X20675241Y98269637D01*
X20475363Y98069759D01*
X20341308Y97869131D01*
X20326671Y97896514D01*
X20082702Y97968097D01*
X19269605Y97155000D01*
X18910395Y97155000D01*
X18097298Y97968097D01*
X17853329Y97896514D01*
X17732429Y97641004D01*
X17663700Y97366816D01*
X17649783Y97084488D01*
X5807937Y97084488D01*
X5651925Y97149110D01*
X5220128Y97235000D01*
X4779872Y97235000D01*
X4348075Y97149110D01*
X3941331Y96980631D01*
X3575271Y96736038D01*
X3263962Y96424729D01*
X3019369Y96058669D01*
X2850890Y95651925D01*
X2765000Y95220128D01*
X660000Y95220128D01*
X660000Y98147702D01*
X18276903Y98147702D01*
X19090000Y97334605D01*
X19903097Y98147702D01*
X19831514Y98391671D01*
X19576004Y98512571D01*
X19301816Y98581300D01*
X19019488Y98595217D01*
X18739870Y98553787D01*
X18473708Y98458603D01*
X18348486Y98391671D01*
X18276903Y98147702D01*
X660000Y98147702D01*
X660000Y99340000D01*
X99340001Y99340000D01*
X99340000Y660000D01*
G04 #@! TA.AperFunction,Conductor*
D23*
G36*
X99340000Y660000D02*
G01*
X660000Y660000D01*
X660000Y5220128D01*
X2765000Y5220128D01*
X2765000Y4779872D01*
X2850890Y4348075D01*
X3019369Y3941331D01*
X3263962Y3575271D01*
X3575271Y3263962D01*
X3941331Y3019369D01*
X4348075Y2850890D01*
X4779872Y2765000D01*
X5220128Y2765000D01*
X5651925Y2850890D01*
X6058669Y3019369D01*
X6424729Y3263962D01*
X6736038Y3575271D01*
X6980631Y3941331D01*
X7149110Y4348075D01*
X7225270Y4730961D01*
X14718096Y4730961D01*
X14735633Y4648182D01*
X14846285Y4388354D01*
X15005500Y4155105D01*
X15207161Y3957399D01*
X15443517Y3802834D01*
X15705486Y3697350D01*
X15983000Y3645000D01*
X16383000Y3645000D01*
X16383000Y4953000D01*
X16637000Y4953000D01*
X16637000Y3645000D01*
X17037000Y3645000D01*
X17314514Y3697350D01*
X17576483Y3802834D01*
X17812839Y3957399D01*
X18014500Y4155105D01*
X18173715Y4388354D01*
X18284367Y4648182D01*
X18301904Y4730961D01*
X18179915Y4953000D01*
X16637000Y4953000D01*
X16383000Y4953000D01*
X14840085Y4953000D01*
X14718096Y4730961D01*
X7225270Y4730961D01*
X7235000Y4779872D01*
X7235000Y5220128D01*
X7149110Y5651925D01*
X6980631Y6058669D01*
X6736038Y6424729D01*
X6424729Y6736038D01*
X6058669Y6980631D01*
X5651925Y7149110D01*
X5220128Y7235000D01*
X4779872Y7235000D01*
X4348075Y7149110D01*
X3941331Y6980631D01*
X3575271Y6736038D01*
X3263962Y6424729D01*
X3019369Y6058669D01*
X2850890Y5651925D01*
X2765000Y5220128D01*
X660000Y5220128D01*
X660000Y20973110D01*
X3638524Y20973110D01*
X3683175Y20825901D01*
X3808359Y20563080D01*
X3982412Y20329731D01*
X4198645Y20134822D01*
X4448748Y19985843D01*
X4723109Y19888519D01*
X4953000Y20009186D01*
X4953000Y21203000D01*
X5207000Y21203000D01*
X5207000Y20009186D01*
X5436891Y19888519D01*
X5711252Y19985843D01*
X5961355Y20134822D01*
X6177588Y20329731D01*
X6350000Y20560880D01*
X6522412Y20329731D01*
X6738645Y20134822D01*
X6988748Y19985843D01*
X7263109Y19888519D01*
X7493000Y20009186D01*
X7493000Y21203000D01*
X7747000Y21203000D01*
X7747000Y20009186D01*
X7976891Y19888519D01*
X8251252Y19985843D01*
X8501355Y20134822D01*
X8717588Y20329731D01*
X8891641Y20563080D01*
X9016825Y20825901D01*
X9061476Y20973110D01*
X8940155Y21203000D01*
X7747000Y21203000D01*
X7493000Y21203000D01*
X5207000Y21203000D01*
X4953000Y21203000D01*
X3759845Y21203000D01*
X3638524Y20973110D01*
X660000Y20973110D01*
X660000Y47195400D01*
X3178744Y47195400D01*
X3182300Y47159295D01*
X3182301Y31040615D01*
X3178744Y31004500D01*
X3192935Y30860415D01*
X3228785Y30742237D01*
X3234964Y30721867D01*
X3303214Y30594180D01*
X3395063Y30482262D01*
X3423108Y30459246D01*
X3956123Y29926230D01*
X3926525Y29896632D01*
X3764010Y29653411D01*
X3652068Y29383158D01*
X3595000Y29096260D01*
X3595000Y28803740D01*
X3652068Y28516842D01*
X3764010Y28246589D01*
X3926525Y28003368D01*
X4133368Y27796525D01*
X4307760Y27680000D01*
X4133368Y27563475D01*
X3926525Y27356632D01*
X3764010Y27113411D01*
X3652068Y26843158D01*
X3595000Y26556260D01*
X3595000Y26263740D01*
X3652068Y25976842D01*
X3764010Y25706589D01*
X3926525Y25463368D01*
X4133368Y25256525D01*
X4307760Y25140000D01*
X4133368Y25023475D01*
X3926525Y24816632D01*
X3764010Y24573411D01*
X3652068Y24303158D01*
X3595000Y24016260D01*
X3595000Y23723740D01*
X3652068Y23436842D01*
X3764010Y23166589D01*
X3926525Y22923368D01*
X4133368Y22716525D01*
X4315534Y22594805D01*
X4198645Y22525178D01*
X3982412Y22330269D01*
X3808359Y22096920D01*
X3683175Y21834099D01*
X3638524Y21686890D01*
X3759845Y21457000D01*
X4953000Y21457000D01*
X4953000Y21477000D01*
X5207000Y21477000D01*
X5207000Y21457000D01*
X7493000Y21457000D01*
X7493000Y21477000D01*
X7747000Y21477000D01*
X7747000Y21457000D01*
X8940155Y21457000D01*
X9061476Y21686890D01*
X9016825Y21834099D01*
X8891641Y22096920D01*
X8717588Y22330269D01*
X8501355Y22525178D01*
X8384466Y22594805D01*
X8566632Y22716525D01*
X8773475Y22923368D01*
X8935990Y23166589D01*
X9047932Y23436842D01*
X9105000Y23723740D01*
X9105000Y24016260D01*
X9047932Y24303158D01*
X8935990Y24573411D01*
X8773475Y24816632D01*
X8566632Y25023475D01*
X8392240Y25140000D01*
X8566632Y25256525D01*
X8773475Y25463368D01*
X8935990Y25706589D01*
X8937623Y25710531D01*
X13307900Y21340253D01*
X13307901Y8622915D01*
X13304344Y8586800D01*
X13318535Y8442715D01*
X13345144Y8355000D01*
X13360564Y8304167D01*
X13428814Y8176480D01*
X13520663Y8064562D01*
X13548708Y8041546D01*
X14464446Y7125807D01*
X14487462Y7097762D01*
X14515506Y7074747D01*
X14599380Y7005913D01*
X14727066Y6937663D01*
X14865615Y6895635D01*
X14870298Y6895174D01*
X14911068Y6818899D01*
X15090392Y6600392D01*
X15308899Y6421068D01*
X15436741Y6352735D01*
X15207161Y6202601D01*
X15005500Y6004895D01*
X14846285Y5771646D01*
X14735633Y5511818D01*
X14718096Y5429039D01*
X14840085Y5207000D01*
X16383000Y5207000D01*
X16383000Y5227000D01*
X16637000Y5227000D01*
X16637000Y5207000D01*
X18179915Y5207000D01*
X18301904Y5429039D01*
X18284367Y5511818D01*
X18173715Y5771646D01*
X18014500Y6004895D01*
X17812839Y6202601D01*
X17583259Y6352735D01*
X17711101Y6421068D01*
X17929608Y6600392D01*
X18108932Y6818899D01*
X18242182Y7068192D01*
X18315887Y7311167D01*
X24430146Y1196907D01*
X24453162Y1168862D01*
X24565080Y1077013D01*
X24692767Y1008763D01*
X24831315Y966735D01*
X24975400Y952544D01*
X25011505Y956100D01*
X74910295Y956100D01*
X74946400Y952544D01*
X74982505Y956100D01*
X75090485Y966735D01*
X75229033Y1008763D01*
X75356720Y1077013D01*
X75468638Y1168862D01*
X75491658Y1196912D01*
X76694194Y2399447D01*
X76722238Y2422462D01*
X76814087Y2534380D01*
X76882337Y2662067D01*
X76916212Y2773737D01*
X76924365Y2800614D01*
X76924826Y2805299D01*
X77001100Y2846068D01*
X77219607Y3025392D01*
X77398932Y3243899D01*
X77470000Y3376858D01*
X77541068Y3243900D01*
X77720392Y3025393D01*
X77938899Y2846068D01*
X78188192Y2712818D01*
X78458691Y2630764D01*
X78740000Y2603057D01*
X79021308Y2630764D01*
X79291807Y2712818D01*
X79541100Y2846068D01*
X79759607Y3025392D01*
X79938932Y3243899D01*
X80010000Y3376858D01*
X80081068Y3243900D01*
X80260392Y3025393D01*
X80478899Y2846068D01*
X80728192Y2712818D01*
X80998691Y2630764D01*
X81280000Y2603057D01*
X81561308Y2630764D01*
X81831807Y2712818D01*
X82081100Y2846068D01*
X82299607Y3025392D01*
X82478932Y3243899D01*
X82550000Y3376858D01*
X82621068Y3243900D01*
X82800392Y3025393D01*
X83018899Y2846068D01*
X83268192Y2712818D01*
X83538691Y2630764D01*
X83820000Y2603057D01*
X84101308Y2630764D01*
X84371807Y2712818D01*
X84621100Y2846068D01*
X84839607Y3025392D01*
X85018932Y3243899D01*
X85090000Y3376858D01*
X85161068Y3243900D01*
X85340392Y3025393D01*
X85558899Y2846068D01*
X85808192Y2712818D01*
X86078691Y2630764D01*
X86360000Y2603057D01*
X86641308Y2630764D01*
X86911807Y2712818D01*
X87161100Y2846068D01*
X87379607Y3025392D01*
X87558932Y3243899D01*
X87692182Y3493192D01*
X87774236Y3763691D01*
X87795000Y3974508D01*
X87795000Y4915491D01*
X87774236Y5126309D01*
X87745777Y5220128D01*
X92765000Y5220128D01*
X92765000Y4779872D01*
X92850890Y4348075D01*
X93019369Y3941331D01*
X93263962Y3575271D01*
X93575271Y3263962D01*
X93941331Y3019369D01*
X94348075Y2850890D01*
X94779872Y2765000D01*
X95220128Y2765000D01*
X95651925Y2850890D01*
X96058669Y3019369D01*
X96424729Y3263962D01*
X96736038Y3575271D01*
X96980631Y3941331D01*
X97149110Y4348075D01*
X97235000Y4779872D01*
X97235000Y5220128D01*
X97149110Y5651925D01*
X96980631Y6058669D01*
X96736038Y6424729D01*
X96424729Y6736038D01*
X96058669Y6980631D01*
X95651925Y7149110D01*
X95220128Y7235000D01*
X94779872Y7235000D01*
X94348075Y7149110D01*
X93941331Y6980631D01*
X93575271Y6736038D01*
X93263962Y6424729D01*
X93019369Y6058669D01*
X92850890Y5651925D01*
X92765000Y5220128D01*
X87745777Y5220128D01*
X87692182Y5396808D01*
X87558932Y5646101D01*
X87379608Y5864608D01*
X87161101Y6043932D01*
X86911808Y6177182D01*
X86641309Y6259236D01*
X86360000Y6286943D01*
X86078692Y6259236D01*
X85808193Y6177182D01*
X85558900Y6043932D01*
X85340393Y5864608D01*
X85161068Y5646101D01*
X85090000Y5513142D01*
X85018932Y5646101D01*
X84839608Y5864608D01*
X84621101Y6043932D01*
X84371808Y6177182D01*
X84101309Y6259236D01*
X83820000Y6286943D01*
X83538692Y6259236D01*
X83268193Y6177182D01*
X83018900Y6043932D01*
X82800393Y5864608D01*
X82621068Y5646101D01*
X82550000Y5513142D01*
X82478932Y5646101D01*
X82299608Y5864608D01*
X82081101Y6043932D01*
X81831808Y6177182D01*
X81561309Y6259236D01*
X81280000Y6286943D01*
X80998692Y6259236D01*
X80728193Y6177182D01*
X80478900Y6043932D01*
X80260393Y5864608D01*
X80081068Y5646101D01*
X80010000Y5513142D01*
X79938932Y5646101D01*
X79759608Y5864608D01*
X79541101Y6043932D01*
X79291808Y6177182D01*
X79021309Y6259236D01*
X78740000Y6286943D01*
X78458692Y6259236D01*
X78188193Y6177182D01*
X77938900Y6043932D01*
X77720393Y5864608D01*
X77541068Y5646101D01*
X77470000Y5513142D01*
X77398932Y5646101D01*
X77219608Y5864608D01*
X77001101Y6043932D01*
X76751808Y6177182D01*
X76481309Y6259236D01*
X76200000Y6286943D01*
X75918692Y6259236D01*
X75648193Y6177182D01*
X75398900Y6043932D01*
X75180393Y5864608D01*
X75001068Y5646101D01*
X74930000Y5513142D01*
X74858932Y5646101D01*
X74679608Y5864608D01*
X74461101Y6043932D01*
X74211808Y6177182D01*
X73941309Y6259236D01*
X73660000Y6286943D01*
X73378692Y6259236D01*
X73125000Y6182280D01*
X73125000Y14070254D01*
X76694194Y17639447D01*
X76722238Y17662462D01*
X76814087Y17774380D01*
X76829874Y17803915D01*
X76882337Y17902066D01*
X76924365Y18040615D01*
X76924826Y18045299D01*
X77001100Y18086068D01*
X77219607Y18265392D01*
X77398932Y18483899D01*
X77470000Y18616858D01*
X77541068Y18483900D01*
X77720392Y18265393D01*
X77938899Y18086068D01*
X78188192Y17952818D01*
X78458691Y17870764D01*
X78740000Y17843057D01*
X79021308Y17870764D01*
X79291807Y17952818D01*
X79541100Y18086068D01*
X79759607Y18265392D01*
X79938932Y18483899D01*
X80010000Y18616858D01*
X80081068Y18483900D01*
X80260392Y18265393D01*
X80478899Y18086068D01*
X80555174Y18045298D01*
X80555635Y18040615D01*
X80597663Y17902067D01*
X80665913Y17774380D01*
X80757762Y17662462D01*
X80869680Y17570613D01*
X80997367Y17502363D01*
X81135915Y17460335D01*
X81243895Y17449700D01*
X81280000Y17446144D01*
X81316105Y17449700D01*
X84307895Y17449700D01*
X84344000Y17446144D01*
X84380105Y17449700D01*
X84488085Y17460335D01*
X84626633Y17502363D01*
X84754320Y17570613D01*
X84866238Y17662462D01*
X84889258Y17690512D01*
X85176782Y17978036D01*
X85205506Y17954463D01*
X85315820Y17895498D01*
X85435518Y17859188D01*
X85560000Y17846928D01*
X87160000Y17846928D01*
X87284482Y17859188D01*
X87404180Y17895498D01*
X87514494Y17954463D01*
X87611185Y18033815D01*
X87690537Y18130506D01*
X87749502Y18240820D01*
X87785812Y18360518D01*
X87798072Y18485000D01*
X87798072Y20885000D01*
X87785812Y21009482D01*
X87749502Y21129180D01*
X87690537Y21239494D01*
X87611185Y21336185D01*
X87573743Y21366913D01*
X87609087Y21409980D01*
X87635485Y21459367D01*
X87677337Y21537666D01*
X87719365Y21676215D01*
X87733556Y21820300D01*
X87730000Y21856405D01*
X87730000Y27878372D01*
X87846426Y27830147D01*
X88123665Y27775000D01*
X88406335Y27775000D01*
X88683574Y27830147D01*
X88944727Y27938320D01*
X89179759Y28095363D01*
X89379637Y28295241D01*
X89535000Y28527759D01*
X89690363Y28295241D01*
X89890241Y28095363D01*
X90125273Y27938320D01*
X90386426Y27830147D01*
X90663665Y27775000D01*
X90946335Y27775000D01*
X91223574Y27830147D01*
X91484727Y27938320D01*
X91719759Y28095363D01*
X91919637Y28295241D01*
X92076680Y28530273D01*
X92081067Y28540865D01*
X92192615Y28354869D01*
X92381586Y28146481D01*
X92607580Y27978963D01*
X92861913Y27858754D01*
X92995961Y27818096D01*
X93218000Y27940085D01*
X93218000Y29083000D01*
X93198000Y29083000D01*
X93198000Y29337000D01*
X93218000Y29337000D01*
X93218000Y30479915D01*
X93472000Y30479915D01*
X93472000Y29337000D01*
X93492000Y29337000D01*
X93492000Y29083000D01*
X93472000Y29083000D01*
X93472000Y27940085D01*
X93694039Y27818096D01*
X93828087Y27858754D01*
X94082420Y27978963D01*
X94308414Y28146481D01*
X94497385Y28354869D01*
X94608933Y28540865D01*
X94613320Y28530273D01*
X94770363Y28295241D01*
X94970241Y28095363D01*
X95205273Y27938320D01*
X95466426Y27830147D01*
X95743665Y27775000D01*
X96026335Y27775000D01*
X96303574Y27830147D01*
X96564727Y27938320D01*
X96799759Y28095363D01*
X96999637Y28295241D01*
X97156680Y28530273D01*
X97264853Y28791426D01*
X97320000Y29068665D01*
X97320000Y29351335D01*
X97264853Y29628574D01*
X97156680Y29889727D01*
X96999637Y30124759D01*
X96799759Y30324637D01*
X96564727Y30481680D01*
X96303574Y30589853D01*
X96026335Y30645000D01*
X95743665Y30645000D01*
X95466426Y30589853D01*
X95205273Y30481680D01*
X94970241Y30324637D01*
X94770363Y30124759D01*
X94613320Y29889727D01*
X94608933Y29879135D01*
X94497385Y30065131D01*
X94308414Y30273519D01*
X94082420Y30441037D01*
X93828087Y30561246D01*
X93694039Y30601904D01*
X93472000Y30479915D01*
X93218000Y30479915D01*
X92995961Y30601904D01*
X92861913Y30561246D01*
X92607580Y30441037D01*
X92381586Y30273519D01*
X92192615Y30065131D01*
X92081067Y29879135D01*
X92076680Y29889727D01*
X91919637Y30124759D01*
X91719759Y30324637D01*
X91484727Y30481680D01*
X91223574Y30589853D01*
X90946335Y30645000D01*
X90663665Y30645000D01*
X90386426Y30589853D01*
X90125273Y30481680D01*
X89890241Y30324637D01*
X89690363Y30124759D01*
X89535000Y29892241D01*
X89379637Y30124759D01*
X89179759Y30324637D01*
X88944727Y30481680D01*
X88683574Y30589853D01*
X88406335Y30645000D01*
X88123665Y30645000D01*
X87846426Y30589853D01*
X87833856Y30584646D01*
X87909759Y30635363D01*
X88109637Y30835241D01*
X88266680Y31070273D01*
X88374853Y31331426D01*
X88430000Y31608665D01*
X88430000Y31891335D01*
X88374853Y32168574D01*
X88266680Y32429727D01*
X88109637Y32664759D01*
X87909759Y32864637D01*
X87674727Y33021680D01*
X87413574Y33129853D01*
X87136335Y33185000D01*
X86853665Y33185000D01*
X86576426Y33129853D01*
X86315273Y33021680D01*
X86080241Y32864637D01*
X85880363Y32664759D01*
X85725000Y32432241D01*
X85569637Y32664759D01*
X85369759Y32864637D01*
X85134727Y33021680D01*
X84873574Y33129853D01*
X84596335Y33185000D01*
X84313665Y33185000D01*
X84036426Y33129853D01*
X83775273Y33021680D01*
X83540241Y32864637D01*
X83340363Y32664759D01*
X83183320Y32429727D01*
X83075147Y32168574D01*
X83020000Y31891335D01*
X83020000Y31608665D01*
X83075147Y31331426D01*
X83183320Y31070273D01*
X83340363Y30835241D01*
X83540241Y30635363D01*
X83616144Y30584646D01*
X83603574Y30589853D01*
X83326335Y30645000D01*
X83043665Y30645000D01*
X82766426Y30589853D01*
X82505273Y30481680D01*
X82270241Y30324637D01*
X82070363Y30124759D01*
X81915000Y29892241D01*
X81759637Y30124759D01*
X81559759Y30324637D01*
X81324727Y30481680D01*
X81063574Y30589853D01*
X80786335Y30645000D01*
X80503665Y30645000D01*
X80226426Y30589853D01*
X79965273Y30481680D01*
X79730241Y30324637D01*
X79530363Y30124759D01*
X79375000Y29892241D01*
X79219637Y30124759D01*
X79019759Y30324637D01*
X78784727Y30481680D01*
X78523574Y30589853D01*
X78246335Y30645000D01*
X77963665Y30645000D01*
X77686426Y30589853D01*
X77673856Y30584646D01*
X77749759Y30635363D01*
X77949637Y30835241D01*
X78106680Y31070273D01*
X78214853Y31331426D01*
X78270000Y31608665D01*
X78270000Y31891335D01*
X78214853Y32168574D01*
X78106680Y32429727D01*
X77949637Y32664759D01*
X77749759Y32864637D01*
X77514727Y33021680D01*
X77253574Y33129853D01*
X76976335Y33185000D01*
X76693665Y33185000D01*
X76416426Y33129853D01*
X76300000Y33081628D01*
X76300000Y39064804D01*
X76303555Y39100901D01*
X76300000Y39136998D01*
X76300000Y39137005D01*
X76289365Y39244985D01*
X76247337Y39383533D01*
X76179087Y39511220D01*
X76087238Y39623138D01*
X76059193Y39646154D01*
X75188800Y40516546D01*
X75188800Y43061718D01*
X75423665Y43015000D01*
X75706335Y43015000D01*
X75983574Y43070147D01*
X76244727Y43178320D01*
X76479759Y43335363D01*
X76679637Y43535241D01*
X76835000Y43767759D01*
X76990363Y43535241D01*
X77190241Y43335363D01*
X77425273Y43178320D01*
X77686426Y43070147D01*
X77963665Y43015000D01*
X78246335Y43015000D01*
X78523574Y43070147D01*
X78784727Y43178320D01*
X79019759Y43335363D01*
X79219637Y43535241D01*
X79375000Y43767759D01*
X79530363Y43535241D01*
X79730241Y43335363D01*
X79965273Y43178320D01*
X80226426Y43070147D01*
X80503665Y43015000D01*
X80786335Y43015000D01*
X81063574Y43070147D01*
X81324727Y43178320D01*
X81559759Y43335363D01*
X81759637Y43535241D01*
X81915000Y43767759D01*
X82070363Y43535241D01*
X82270241Y43335363D01*
X82505273Y43178320D01*
X82766426Y43070147D01*
X83043665Y43015000D01*
X83326335Y43015000D01*
X83603574Y43070147D01*
X83864727Y43178320D01*
X84099759Y43335363D01*
X84299637Y43535241D01*
X84455000Y43767759D01*
X84610363Y43535241D01*
X84810241Y43335363D01*
X85045273Y43178320D01*
X85306426Y43070147D01*
X85583665Y43015000D01*
X85866335Y43015000D01*
X86143574Y43070147D01*
X86404727Y43178320D01*
X86639759Y43335363D01*
X86839637Y43535241D01*
X86995000Y43767759D01*
X87150363Y43535241D01*
X87350241Y43335363D01*
X87585273Y43178320D01*
X87846426Y43070147D01*
X88123665Y43015000D01*
X88406335Y43015000D01*
X88683574Y43070147D01*
X88944727Y43178320D01*
X89179759Y43335363D01*
X89379637Y43535241D01*
X89535000Y43767759D01*
X89690363Y43535241D01*
X89890241Y43335363D01*
X90125273Y43178320D01*
X90386426Y43070147D01*
X90663665Y43015000D01*
X90946335Y43015000D01*
X91223574Y43070147D01*
X91484727Y43178320D01*
X91719759Y43335363D01*
X91919637Y43535241D01*
X92075000Y43767759D01*
X92230363Y43535241D01*
X92430241Y43335363D01*
X92665273Y43178320D01*
X92926426Y43070147D01*
X93203665Y43015000D01*
X93486335Y43015000D01*
X93763574Y43070147D01*
X94024727Y43178320D01*
X94259759Y43335363D01*
X94458357Y43533961D01*
X94459188Y43525518D01*
X94495498Y43405820D01*
X94554463Y43295506D01*
X94633815Y43198815D01*
X94730506Y43119463D01*
X94840820Y43060498D01*
X94960518Y43024188D01*
X95085000Y43011928D01*
X96685000Y43011928D01*
X96809482Y43024188D01*
X96929180Y43060498D01*
X97039494Y43119463D01*
X97136185Y43198815D01*
X97215537Y43295506D01*
X97274502Y43405820D01*
X97310812Y43525518D01*
X97323072Y43650000D01*
X97323072Y45250000D01*
X97310812Y45374482D01*
X97274502Y45494180D01*
X97215537Y45604494D01*
X97136185Y45701185D01*
X97039494Y45780537D01*
X96929180Y45839502D01*
X96809482Y45875812D01*
X96685000Y45888072D01*
X95085000Y45888072D01*
X94960518Y45875812D01*
X94840820Y45839502D01*
X94730506Y45780537D01*
X94633815Y45701185D01*
X94554463Y45604494D01*
X94495498Y45494180D01*
X94459188Y45374482D01*
X94458357Y45366039D01*
X94259759Y45564637D01*
X94024727Y45721680D01*
X93763574Y45829853D01*
X93486335Y45885000D01*
X93203665Y45885000D01*
X92926426Y45829853D01*
X92665273Y45721680D01*
X92430241Y45564637D01*
X92230363Y45364759D01*
X92075000Y45132241D01*
X91919637Y45364759D01*
X91719759Y45564637D01*
X91484727Y45721680D01*
X91223574Y45829853D01*
X90946335Y45885000D01*
X90663665Y45885000D01*
X90386426Y45829853D01*
X90125273Y45721680D01*
X89890241Y45564637D01*
X89690363Y45364759D01*
X89535000Y45132241D01*
X89379637Y45364759D01*
X89179759Y45564637D01*
X88944727Y45721680D01*
X88683574Y45829853D01*
X88406335Y45885000D01*
X88123665Y45885000D01*
X87846426Y45829853D01*
X87585273Y45721680D01*
X87350241Y45564637D01*
X87150363Y45364759D01*
X86995000Y45132241D01*
X86839637Y45364759D01*
X86639759Y45564637D01*
X86404727Y45721680D01*
X86143574Y45829853D01*
X85866335Y45885000D01*
X85583665Y45885000D01*
X85306426Y45829853D01*
X85045273Y45721680D01*
X84810241Y45564637D01*
X84610363Y45364759D01*
X84455000Y45132241D01*
X84299637Y45364759D01*
X84099759Y45564637D01*
X83864727Y45721680D01*
X83603574Y45829853D01*
X83326335Y45885000D01*
X83043665Y45885000D01*
X82766426Y45829853D01*
X82505273Y45721680D01*
X82270241Y45564637D01*
X82070363Y45364759D01*
X81915000Y45132241D01*
X81759637Y45364759D01*
X81559759Y45564637D01*
X81324727Y45721680D01*
X81063574Y45829853D01*
X80786335Y45885000D01*
X80503665Y45885000D01*
X80226426Y45829853D01*
X79965273Y45721680D01*
X79730241Y45564637D01*
X79530363Y45364759D01*
X79375000Y45132241D01*
X79219637Y45364759D01*
X79019759Y45564637D01*
X78784727Y45721680D01*
X78523574Y45829853D01*
X78246335Y45885000D01*
X77963665Y45885000D01*
X77686426Y45829853D01*
X77425273Y45721680D01*
X77190241Y45564637D01*
X76990363Y45364759D01*
X76835000Y45132241D01*
X76679637Y45364759D01*
X76479759Y45564637D01*
X76244727Y45721680D01*
X75983574Y45829853D01*
X75706335Y45885000D01*
X75423665Y45885000D01*
X75188800Y45838282D01*
X75188800Y54756260D01*
X93765000Y54756260D01*
X93765000Y54463740D01*
X93822068Y54176842D01*
X93934010Y53906589D01*
X94096525Y53663368D01*
X94303368Y53456525D01*
X94546589Y53294010D01*
X94816842Y53182068D01*
X95103740Y53125000D01*
X95396260Y53125000D01*
X95683158Y53182068D01*
X95953411Y53294010D01*
X96196632Y53456525D01*
X96403475Y53663368D01*
X96520000Y53837760D01*
X96636525Y53663368D01*
X96843368Y53456525D01*
X97086589Y53294010D01*
X97356842Y53182068D01*
X97643740Y53125000D01*
X97936260Y53125000D01*
X98223158Y53182068D01*
X98493411Y53294010D01*
X98736632Y53456525D01*
X98943475Y53663368D01*
X99105990Y53906589D01*
X99217932Y54176842D01*
X99275000Y54463740D01*
X99275000Y54756260D01*
X99217932Y55043158D01*
X99105990Y55313411D01*
X98943475Y55556632D01*
X98736632Y55763475D01*
X98493411Y55925990D01*
X98223158Y56037932D01*
X97936260Y56095000D01*
X97643740Y56095000D01*
X97356842Y56037932D01*
X97086589Y55925990D01*
X96843368Y55763475D01*
X96636525Y55556632D01*
X96520000Y55382240D01*
X96403475Y55556632D01*
X96196632Y55763475D01*
X95953411Y55925990D01*
X95683158Y56037932D01*
X95396260Y56095000D01*
X95103740Y56095000D01*
X94816842Y56037932D01*
X94546589Y55925990D01*
X94303368Y55763475D01*
X94096525Y55556632D01*
X93934010Y55313411D01*
X93822068Y55043158D01*
X93765000Y54756260D01*
X75188800Y54756260D01*
X75188800Y59218106D01*
X75192355Y59254201D01*
X75188800Y59290296D01*
X75188800Y59290305D01*
X75178165Y59398285D01*
X75136137Y59536833D01*
X75067887Y59664520D01*
X74976038Y59776438D01*
X74947993Y59799454D01*
X70963777Y63783670D01*
X71003475Y63823368D01*
X71165990Y64066589D01*
X71277932Y64336842D01*
X71335000Y64623740D01*
X71335000Y64916260D01*
X71277932Y65203158D01*
X71165990Y65473411D01*
X71003475Y65716632D01*
X70796632Y65923475D01*
X70614466Y66045195D01*
X70731355Y66114822D01*
X70947588Y66309731D01*
X71121641Y66543080D01*
X71246825Y66805901D01*
X71291476Y66953110D01*
X71170155Y67183000D01*
X69977000Y67183000D01*
X69977000Y67163000D01*
X69723000Y67163000D01*
X69723000Y67183000D01*
X68529845Y67183000D01*
X68408524Y66953110D01*
X68453175Y66805901D01*
X68578359Y66543080D01*
X68752412Y66309731D01*
X68968645Y66114822D01*
X69085534Y66045195D01*
X68903368Y65923475D01*
X68696525Y65716632D01*
X68534010Y65473411D01*
X68422068Y65203158D01*
X68365000Y64916260D01*
X68365000Y64623740D01*
X68422068Y64336842D01*
X68534010Y64066589D01*
X68696525Y63823368D01*
X68903368Y63616525D01*
X69077760Y63500000D01*
X68903368Y63383475D01*
X68696525Y63176632D01*
X68534010Y62933411D01*
X68422068Y62663158D01*
X68365000Y62376260D01*
X68365000Y62083740D01*
X68422068Y61796842D01*
X68534010Y61526589D01*
X68696525Y61283368D01*
X68903368Y61076525D01*
X69077760Y60960000D01*
X68903368Y60843475D01*
X68696525Y60636632D01*
X68534010Y60393411D01*
X68422068Y60123158D01*
X68365000Y59836260D01*
X68365000Y59543740D01*
X68422068Y59256842D01*
X68534010Y58986589D01*
X68696525Y58743368D01*
X68903368Y58536525D01*
X69077760Y58420000D01*
X68903368Y58303475D01*
X68696525Y58096632D01*
X68534010Y57853411D01*
X68422068Y57583158D01*
X68365000Y57296260D01*
X68365000Y57003740D01*
X68422068Y56716842D01*
X68534010Y56446589D01*
X68696525Y56203368D01*
X68736173Y56163720D01*
X66685800Y54113346D01*
X66685800Y75780000D01*
X68361928Y75780000D01*
X68361928Y74080000D01*
X68374188Y73955518D01*
X68410498Y73835820D01*
X68469463Y73725506D01*
X68548815Y73628815D01*
X68645506Y73549463D01*
X68755820Y73490498D01*
X68828380Y73468487D01*
X68696525Y73336632D01*
X68534010Y73093411D01*
X68422068Y72823158D01*
X68365000Y72536260D01*
X68365000Y72243740D01*
X68422068Y71956842D01*
X68534010Y71686589D01*
X68696525Y71443368D01*
X68903368Y71236525D01*
X69077760Y71120000D01*
X68903368Y71003475D01*
X68696525Y70796632D01*
X68534010Y70553411D01*
X68422068Y70283158D01*
X68365000Y69996260D01*
X68365000Y69703740D01*
X68422068Y69416842D01*
X68534010Y69146589D01*
X68696525Y68903368D01*
X68903368Y68696525D01*
X69085534Y68574805D01*
X68968645Y68505178D01*
X68752412Y68310269D01*
X68578359Y68076920D01*
X68453175Y67814099D01*
X68408524Y67666890D01*
X68529845Y67437000D01*
X69723000Y67437000D01*
X69723000Y67457000D01*
X69977000Y67457000D01*
X69977000Y67437000D01*
X71170155Y67437000D01*
X71291476Y67666890D01*
X71246825Y67814099D01*
X71121641Y68076920D01*
X70947588Y68310269D01*
X70731355Y68505178D01*
X70614466Y68574805D01*
X70796632Y68696525D01*
X71003475Y68903368D01*
X71165990Y69146589D01*
X71277932Y69416842D01*
X71335000Y69703740D01*
X71335000Y69996260D01*
X71277932Y70283158D01*
X71165990Y70553411D01*
X71003475Y70796632D01*
X70796632Y71003475D01*
X70622240Y71120000D01*
X70796632Y71236525D01*
X71003475Y71443368D01*
X71165990Y71686589D01*
X71277932Y71956842D01*
X71335000Y72243740D01*
X71335000Y72536260D01*
X71277932Y72823158D01*
X71165990Y73093411D01*
X71003475Y73336632D01*
X70871620Y73468487D01*
X70944180Y73490498D01*
X71054494Y73549463D01*
X71151185Y73628815D01*
X71230537Y73725506D01*
X71289502Y73835820D01*
X71325812Y73955518D01*
X71338072Y74080000D01*
X71338072Y75076260D01*
X93765000Y75076260D01*
X93765000Y74783740D01*
X93822068Y74496842D01*
X93934010Y74226589D01*
X94096525Y73983368D01*
X94303368Y73776525D01*
X94546589Y73614010D01*
X94816842Y73502068D01*
X95103740Y73445000D01*
X95396260Y73445000D01*
X95683158Y73502068D01*
X95953411Y73614010D01*
X96196632Y73776525D01*
X96403475Y73983368D01*
X96520000Y74157760D01*
X96636525Y73983368D01*
X96843368Y73776525D01*
X97086589Y73614010D01*
X97356842Y73502068D01*
X97643740Y73445000D01*
X97936260Y73445000D01*
X98223158Y73502068D01*
X98493411Y73614010D01*
X98736632Y73776525D01*
X98943475Y73983368D01*
X99105990Y74226589D01*
X99217932Y74496842D01*
X99275000Y74783740D01*
X99275000Y75076260D01*
X99217932Y75363158D01*
X99105990Y75633411D01*
X98943475Y75876632D01*
X98736632Y76083475D01*
X98493411Y76245990D01*
X98223158Y76357932D01*
X97936260Y76415000D01*
X97643740Y76415000D01*
X97356842Y76357932D01*
X97086589Y76245990D01*
X96843368Y76083475D01*
X96636525Y75876632D01*
X96520000Y75702240D01*
X96403475Y75876632D01*
X96196632Y76083475D01*
X95953411Y76245990D01*
X95683158Y76357932D01*
X95396260Y76415000D01*
X95103740Y76415000D01*
X94816842Y76357932D01*
X94546589Y76245990D01*
X94303368Y76083475D01*
X94096525Y75876632D01*
X93934010Y75633411D01*
X93822068Y75363158D01*
X93765000Y75076260D01*
X71338072Y75076260D01*
X71338072Y75780000D01*
X71325812Y75904482D01*
X71289502Y76024180D01*
X71230537Y76134494D01*
X71151185Y76231185D01*
X71054494Y76310537D01*
X70944180Y76369502D01*
X70824482Y76405812D01*
X70700000Y76418072D01*
X69000000Y76418072D01*
X68875518Y76405812D01*
X68755820Y76369502D01*
X68645506Y76310537D01*
X68548815Y76231185D01*
X68469463Y76134494D01*
X68410498Y76024180D01*
X68374188Y75904482D01*
X68361928Y75780000D01*
X66685800Y75780000D01*
X66685800Y79491096D01*
X66689356Y79527201D01*
X66675165Y79671286D01*
X66652571Y79745767D01*
X66633137Y79809833D01*
X66564887Y79937520D01*
X66520917Y79991097D01*
X66496053Y80021394D01*
X66496050Y80021397D01*
X66473037Y80049438D01*
X66444998Y80072449D01*
X50922059Y95595387D01*
X50899038Y95623438D01*
X50787120Y95715287D01*
X50659433Y95783537D01*
X50520885Y95825565D01*
X50412905Y95836200D01*
X50376800Y95839756D01*
X50340695Y95836200D01*
X47555969Y95836200D01*
X47669727Y95883320D01*
X47904759Y96040363D01*
X48027505Y96163109D01*
X60153519Y96163109D01*
X60250843Y95888748D01*
X60399822Y95638645D01*
X60594731Y95422412D01*
X60828080Y95248359D01*
X61090901Y95123175D01*
X61238110Y95078524D01*
X61468000Y95199845D01*
X61468000Y96393000D01*
X60274186Y96393000D01*
X60153519Y96163109D01*
X48027505Y96163109D01*
X48104637Y96240241D01*
X48261680Y96475273D01*
X48369853Y96736426D01*
X48397793Y96876891D01*
X60153519Y96876891D01*
X60274186Y96647000D01*
X61468000Y96647000D01*
X61468000Y97840155D01*
X61722000Y97840155D01*
X61722000Y96647000D01*
X61742000Y96647000D01*
X61742000Y96393000D01*
X61722000Y96393000D01*
X61722000Y95199845D01*
X61951890Y95078524D01*
X62099099Y95123175D01*
X62361920Y95248359D01*
X62595269Y95422412D01*
X62790178Y95638645D01*
X62859805Y95755534D01*
X62981525Y95573368D01*
X63188368Y95366525D01*
X63431589Y95204010D01*
X63701842Y95092068D01*
X63988740Y95035000D01*
X64281260Y95035000D01*
X64568158Y95092068D01*
X64838411Y95204010D01*
X65081632Y95366525D01*
X65213487Y95498380D01*
X65235498Y95425820D01*
X65294463Y95315506D01*
X65373815Y95218815D01*
X65470506Y95139463D01*
X65580820Y95080498D01*
X65700518Y95044188D01*
X65825000Y95031928D01*
X67525000Y95031928D01*
X67649482Y95044188D01*
X67769180Y95080498D01*
X67879494Y95139463D01*
X67976185Y95218815D01*
X67977262Y95220128D01*
X81765000Y95220128D01*
X81765000Y94779872D01*
X81850890Y94348075D01*
X82019369Y93941331D01*
X82263962Y93575271D01*
X82575271Y93263962D01*
X82941331Y93019369D01*
X83348075Y92850890D01*
X83779872Y92765000D01*
X84220128Y92765000D01*
X84651925Y92850890D01*
X85058669Y93019369D01*
X85424729Y93263962D01*
X85736038Y93575271D01*
X85980631Y93941331D01*
X86149110Y94348075D01*
X86235000Y94779872D01*
X86235000Y95220128D01*
X86149110Y95651925D01*
X85980631Y96058669D01*
X85736038Y96424729D01*
X85424729Y96736038D01*
X85058669Y96980631D01*
X84651925Y97149110D01*
X84220128Y97235000D01*
X83779872Y97235000D01*
X83348075Y97149110D01*
X82941331Y96980631D01*
X82575271Y96736038D01*
X82263962Y96424729D01*
X82019369Y96058669D01*
X81850890Y95651925D01*
X81765000Y95220128D01*
X67977262Y95220128D01*
X68055537Y95315506D01*
X68114502Y95425820D01*
X68150812Y95545518D01*
X68163072Y95670000D01*
X68163072Y97370000D01*
X68150812Y97494482D01*
X68114502Y97614180D01*
X68055537Y97724494D01*
X67976185Y97821185D01*
X67879494Y97900537D01*
X67769180Y97959502D01*
X67649482Y97995812D01*
X67525000Y98008072D01*
X65825000Y98008072D01*
X65700518Y97995812D01*
X65580820Y97959502D01*
X65470506Y97900537D01*
X65373815Y97821185D01*
X65294463Y97724494D01*
X65235498Y97614180D01*
X65213487Y97541620D01*
X65081632Y97673475D01*
X64838411Y97835990D01*
X64568158Y97947932D01*
X64281260Y98005000D01*
X63988740Y98005000D01*
X63701842Y97947932D01*
X63431589Y97835990D01*
X63188368Y97673475D01*
X62981525Y97466632D01*
X62859805Y97284466D01*
X62790178Y97401355D01*
X62595269Y97617588D01*
X62361920Y97791641D01*
X62099099Y97916825D01*
X61951890Y97961476D01*
X61722000Y97840155D01*
X61468000Y97840155D01*
X61238110Y97961476D01*
X61090901Y97916825D01*
X60828080Y97791641D01*
X60594731Y97617588D01*
X60399822Y97401355D01*
X60250843Y97151252D01*
X60153519Y96876891D01*
X48397793Y96876891D01*
X48425000Y97013665D01*
X48425000Y97296335D01*
X48369853Y97573574D01*
X48261680Y97834727D01*
X48104637Y98069759D01*
X47904759Y98269637D01*
X47669727Y98426680D01*
X47408574Y98534853D01*
X47131335Y98590000D01*
X46848665Y98590000D01*
X46571426Y98534853D01*
X46310273Y98426680D01*
X46075241Y98269637D01*
X45875363Y98069759D01*
X45741308Y97869131D01*
X45726671Y97896514D01*
X45482702Y97968097D01*
X44669605Y97155000D01*
X45482702Y96341903D01*
X45726671Y96413486D01*
X45740324Y96442341D01*
X45875363Y96240241D01*
X46075241Y96040363D01*
X46310273Y95883320D01*
X46571426Y95775147D01*
X46718455Y95745901D01*
X46661180Y95715287D01*
X46549262Y95623438D01*
X46526246Y95595393D01*
X43357038Y92426184D01*
X43329608Y92459608D01*
X43216518Y92552419D01*
X43234482Y92554188D01*
X43354180Y92590498D01*
X43464494Y92649463D01*
X43561185Y92728815D01*
X43640537Y92825506D01*
X43699502Y92935820D01*
X43735812Y93055518D01*
X43748072Y93180000D01*
X43745000Y93694250D01*
X43586250Y93853000D01*
X42037000Y93853000D01*
X42037000Y93833000D01*
X41783000Y93833000D01*
X41783000Y93853000D01*
X40233750Y93853000D01*
X40075000Y93694250D01*
X40071928Y93180000D01*
X40084188Y93055518D01*
X40120498Y92935820D01*
X40179463Y92825506D01*
X40258815Y92728815D01*
X40355506Y92649463D01*
X40465820Y92590498D01*
X40585518Y92554188D01*
X40603482Y92552419D01*
X40490392Y92459608D01*
X40311068Y92241101D01*
X40177818Y91991808D01*
X40095764Y91721309D01*
X40068057Y91440000D01*
X40095764Y91158691D01*
X40177818Y90888192D01*
X40311068Y90638899D01*
X40490392Y90420392D01*
X40708899Y90241068D01*
X40841858Y90170000D01*
X40708899Y90098932D01*
X40490392Y89919608D01*
X40311068Y89701101D01*
X40177818Y89451808D01*
X40095764Y89181309D01*
X40068057Y88900000D01*
X40095764Y88618691D01*
X40177818Y88348192D01*
X40311068Y88098899D01*
X40490392Y87880392D01*
X40708899Y87701068D01*
X40841858Y87630000D01*
X40708899Y87558932D01*
X40490392Y87379608D01*
X40311068Y87161101D01*
X40177818Y86911808D01*
X40095764Y86641309D01*
X40068057Y86360000D01*
X40095764Y86078691D01*
X40177818Y85808192D01*
X40311068Y85558899D01*
X40490392Y85340392D01*
X40708899Y85161068D01*
X40841858Y85090000D01*
X40708899Y85018932D01*
X40490392Y84839608D01*
X40311068Y84621101D01*
X40177818Y84371808D01*
X40095764Y84101309D01*
X40068057Y83820000D01*
X40095764Y83538691D01*
X40177818Y83268192D01*
X40311068Y83018899D01*
X40490392Y82800392D01*
X40708899Y82621068D01*
X40841858Y82550000D01*
X40708899Y82478932D01*
X40490392Y82299608D01*
X40311068Y82081101D01*
X40177818Y81831808D01*
X40095764Y81561309D01*
X40068057Y81280000D01*
X40095764Y80998691D01*
X40177818Y80728192D01*
X40311068Y80478899D01*
X40490392Y80260392D01*
X40708899Y80081068D01*
X40841858Y80010000D01*
X40708899Y79938932D01*
X40490392Y79759608D01*
X40311068Y79541101D01*
X40245296Y79418051D01*
X26619659Y93043687D01*
X26596638Y93071738D01*
X26484720Y93163587D01*
X26357033Y93231837D01*
X26218485Y93273865D01*
X26110505Y93284500D01*
X26074400Y93288056D01*
X26038295Y93284500D01*
X25785377Y93284500D01*
X25862182Y93428192D01*
X25944236Y93698691D01*
X25971943Y93980000D01*
X25944236Y94261309D01*
X25862182Y94531808D01*
X25729521Y94780000D01*
X40071928Y94780000D01*
X40075000Y94265750D01*
X40233750Y94107000D01*
X41783000Y94107000D01*
X41783000Y95256250D01*
X42037000Y95256250D01*
X42037000Y94107000D01*
X43586250Y94107000D01*
X43745000Y94265750D01*
X43748072Y94780000D01*
X43735812Y94904482D01*
X43699502Y95024180D01*
X43640537Y95134494D01*
X43561185Y95231185D01*
X43464494Y95310537D01*
X43354180Y95369502D01*
X43234482Y95405812D01*
X43110000Y95418072D01*
X42195750Y95415000D01*
X42037000Y95256250D01*
X41783000Y95256250D01*
X41624250Y95415000D01*
X40710000Y95418072D01*
X40585518Y95405812D01*
X40465820Y95369502D01*
X40355506Y95310537D01*
X40258815Y95231185D01*
X40179463Y95134494D01*
X40120498Y95024180D01*
X40084188Y94904482D01*
X40071928Y94780000D01*
X25729521Y94780000D01*
X25728932Y94781101D01*
X25549608Y94999608D01*
X25331101Y95178932D01*
X25081808Y95312182D01*
X24811309Y95394236D01*
X24600492Y95415000D01*
X23659508Y95415000D01*
X23448691Y95394236D01*
X23178192Y95312182D01*
X22928899Y95178932D01*
X22710392Y94999608D01*
X22531068Y94781101D01*
X22397818Y94531808D01*
X22315764Y94261309D01*
X22288057Y93980000D01*
X22315764Y93698691D01*
X22397818Y93428192D01*
X22474623Y93284500D01*
X19155905Y93284500D01*
X19119800Y93288056D01*
X19083695Y93284500D01*
X18975715Y93273865D01*
X18837167Y93231837D01*
X18709480Y93163587D01*
X18597562Y93071738D01*
X18574546Y93043693D01*
X17957038Y92426184D01*
X17929608Y92459608D01*
X17816518Y92552419D01*
X17834482Y92554188D01*
X17954180Y92590498D01*
X18064494Y92649463D01*
X18161185Y92728815D01*
X18240537Y92825506D01*
X18299502Y92935820D01*
X18335812Y93055518D01*
X18348072Y93180000D01*
X18348072Y94780000D01*
X18335812Y94904482D01*
X18299502Y95024180D01*
X18240537Y95134494D01*
X18161185Y95231185D01*
X18064494Y95310537D01*
X17954180Y95369502D01*
X17834482Y95405812D01*
X17710000Y95418072D01*
X15310000Y95418072D01*
X15185518Y95405812D01*
X15065820Y95369502D01*
X14955506Y95310537D01*
X14858815Y95231185D01*
X14779463Y95134494D01*
X14720498Y95024180D01*
X14684188Y94904482D01*
X14671973Y94780459D01*
X14588613Y94755172D01*
X14443554Y94677636D01*
X14316409Y94573291D01*
X14212064Y94446146D01*
X14134528Y94301087D01*
X14086782Y94143689D01*
X14070660Y93980000D01*
X14074700Y93938981D01*
X14074701Y92840769D01*
X8882369Y87648436D01*
X8856671Y87696514D01*
X8612702Y87768097D01*
X7799605Y86955000D01*
X7813748Y86940857D01*
X7634143Y86761252D01*
X7620000Y86775395D01*
X7247706Y86403101D01*
X7153854Y86352936D01*
X7026709Y86248591D01*
X6922364Y86121446D01*
X6872199Y86027594D01*
X6806903Y85962298D01*
X6823448Y85905908D01*
X6819541Y85893027D01*
X6695518Y85880812D01*
X6575820Y85844502D01*
X6465506Y85785537D01*
X6368815Y85706185D01*
X6289463Y85609494D01*
X6230498Y85499180D01*
X6194188Y85379482D01*
X6181928Y85255000D01*
X6181928Y83655000D01*
X6194188Y83530518D01*
X6230498Y83410820D01*
X6289463Y83300506D01*
X6368815Y83203815D01*
X6465506Y83124463D01*
X6575820Y83065498D01*
X6695518Y83029188D01*
X6820000Y83016928D01*
X8420000Y83016928D01*
X8544482Y83029188D01*
X8664180Y83065498D01*
X8774494Y83124463D01*
X8871185Y83203815D01*
X8950537Y83300506D01*
X9009502Y83410820D01*
X9045812Y83530518D01*
X9058072Y83655000D01*
X9058072Y85255000D01*
X9045812Y85379482D01*
X9029366Y85433699D01*
X14709402Y91113734D01*
X14777818Y90888192D01*
X14911068Y90638899D01*
X15090392Y90420392D01*
X15308899Y90241068D01*
X15441858Y90170000D01*
X15308899Y90098932D01*
X15090392Y89919608D01*
X14911068Y89701101D01*
X14777818Y89451808D01*
X14695764Y89181309D01*
X14668057Y88900000D01*
X14695764Y88618691D01*
X14777818Y88348192D01*
X14911068Y88098899D01*
X15090392Y87880392D01*
X15308899Y87701068D01*
X15441858Y87630000D01*
X15308899Y87558932D01*
X15090392Y87379608D01*
X14911068Y87161101D01*
X14870298Y87084826D01*
X14865615Y87084365D01*
X14727067Y87042337D01*
X14599380Y86974087D01*
X14487462Y86882238D01*
X14464446Y86854193D01*
X5955908Y78345654D01*
X5927862Y78322637D01*
X5836013Y78210719D01*
X5767763Y78083032D01*
X5747203Y78015253D01*
X5725735Y77944485D01*
X5711544Y77800400D01*
X5715100Y77764295D01*
X5715100Y76158072D01*
X4230000Y76158072D01*
X4105518Y76145812D01*
X3985820Y76109502D01*
X3875506Y76050537D01*
X3778815Y75971185D01*
X3699463Y75874494D01*
X3640498Y75764180D01*
X3604188Y75644482D01*
X3591928Y75520000D01*
X3591928Y73820000D01*
X3604188Y73695518D01*
X3640498Y73575820D01*
X3699463Y73465506D01*
X3778815Y73368815D01*
X3875506Y73289463D01*
X3985820Y73230498D01*
X4058380Y73208487D01*
X3926525Y73076632D01*
X3764010Y72833411D01*
X3652068Y72563158D01*
X3595000Y72276260D01*
X3595000Y71983740D01*
X3652068Y71696842D01*
X3764010Y71426589D01*
X3926525Y71183368D01*
X4133368Y70976525D01*
X4307760Y70860000D01*
X4133368Y70743475D01*
X3926525Y70536632D01*
X3764010Y70293411D01*
X3652068Y70023158D01*
X3595000Y69736260D01*
X3595000Y69443740D01*
X3652068Y69156842D01*
X3764010Y68886589D01*
X3926525Y68643368D01*
X4133368Y68436525D01*
X4307760Y68320000D01*
X4133368Y68203475D01*
X3926525Y67996632D01*
X3764010Y67753411D01*
X3652068Y67483158D01*
X3595000Y67196260D01*
X3595000Y66903740D01*
X3652068Y66616842D01*
X3764010Y66346589D01*
X3926525Y66103368D01*
X4133368Y65896525D01*
X4307760Y65780000D01*
X4133368Y65663475D01*
X3926525Y65456632D01*
X3764010Y65213411D01*
X3652068Y64943158D01*
X3595000Y64656260D01*
X3595000Y64363740D01*
X3652068Y64076842D01*
X3764010Y63806589D01*
X3926525Y63563368D01*
X4133368Y63356525D01*
X4307760Y63240000D01*
X4133368Y63123475D01*
X3926525Y62916632D01*
X3764010Y62673411D01*
X3652068Y62403158D01*
X3595000Y62116260D01*
X3595000Y61823740D01*
X3652068Y61536842D01*
X3764010Y61266589D01*
X3926525Y61023368D01*
X4133368Y60816525D01*
X4307760Y60700000D01*
X4133368Y60583475D01*
X3926525Y60376632D01*
X3764010Y60133411D01*
X3652068Y59863158D01*
X3595000Y59576260D01*
X3595000Y59283740D01*
X3652068Y58996842D01*
X3764010Y58726589D01*
X3926525Y58483368D01*
X4133368Y58276525D01*
X4307760Y58160000D01*
X4133368Y58043475D01*
X3926525Y57836632D01*
X3764010Y57593411D01*
X3652068Y57323158D01*
X3595000Y57036260D01*
X3595000Y56743740D01*
X3652068Y56456842D01*
X3764010Y56186589D01*
X3926525Y55943368D01*
X4133368Y55736525D01*
X4307760Y55620000D01*
X4133368Y55503475D01*
X3926525Y55296632D01*
X3764010Y55053411D01*
X3652068Y54783158D01*
X3595000Y54496260D01*
X3595000Y54203740D01*
X3652068Y53916842D01*
X3764010Y53646589D01*
X3926525Y53403368D01*
X4133368Y53196525D01*
X4307760Y53080000D01*
X4133368Y52963475D01*
X3926525Y52756632D01*
X3764010Y52513411D01*
X3652068Y52243158D01*
X3595000Y51956260D01*
X3595000Y51663740D01*
X3652068Y51376842D01*
X3764010Y51106589D01*
X3926525Y50863368D01*
X4133368Y50656525D01*
X4307760Y50540000D01*
X4133368Y50423475D01*
X3926525Y50216632D01*
X3764010Y49973411D01*
X3652068Y49703158D01*
X3595000Y49416260D01*
X3595000Y49123740D01*
X3652068Y48836842D01*
X3764010Y48566589D01*
X3926525Y48323368D01*
X3966173Y48283720D01*
X3423108Y47740654D01*
X3395062Y47717637D01*
X3303213Y47605719D01*
X3234963Y47478032D01*
X3209877Y47395335D01*
X3192935Y47339485D01*
X3178744Y47195400D01*
X660000Y47195400D01*
X660000Y86884488D01*
X6179783Y86884488D01*
X6221213Y86604870D01*
X6316397Y86338708D01*
X6383329Y86213486D01*
X6627298Y86141903D01*
X7440395Y86955000D01*
X6627298Y87768097D01*
X6383329Y87696514D01*
X6262429Y87441004D01*
X6193700Y87166816D01*
X6179783Y86884488D01*
X660000Y86884488D01*
X660000Y87947702D01*
X6806903Y87947702D01*
X7620000Y87134605D01*
X8433097Y87947702D01*
X8361514Y88191671D01*
X8106004Y88312571D01*
X7831816Y88381300D01*
X7549488Y88395217D01*
X7269870Y88353787D01*
X7003708Y88258603D01*
X6878486Y88191671D01*
X6806903Y87947702D01*
X660000Y87947702D01*
X660000Y95220128D01*
X2765000Y95220128D01*
X2765000Y94779872D01*
X2850890Y94348075D01*
X3019369Y93941331D01*
X3263962Y93575271D01*
X3575271Y93263962D01*
X3941331Y93019369D01*
X4348075Y92850890D01*
X4779872Y92765000D01*
X5220128Y92765000D01*
X5651925Y92850890D01*
X6058669Y93019369D01*
X6424729Y93263962D01*
X6736038Y93575271D01*
X6980631Y93941331D01*
X7149110Y94348075D01*
X7235000Y94779872D01*
X7235000Y95220128D01*
X7149110Y95651925D01*
X6980631Y96058669D01*
X6911389Y96162298D01*
X18276903Y96162298D01*
X18348486Y95918329D01*
X18603996Y95797429D01*
X18878184Y95728700D01*
X19160512Y95714783D01*
X19440130Y95756213D01*
X19706292Y95851397D01*
X19831514Y95918329D01*
X19903097Y96162298D01*
X19090000Y96975395D01*
X18276903Y96162298D01*
X6911389Y96162298D01*
X6736038Y96424729D01*
X6424729Y96736038D01*
X6058669Y96980631D01*
X5807937Y97084488D01*
X17649783Y97084488D01*
X17691213Y96804870D01*
X17786397Y96538708D01*
X17853329Y96413486D01*
X18097298Y96341903D01*
X18910395Y97155000D01*
X19269605Y97155000D01*
X20082702Y96341903D01*
X20326671Y96413486D01*
X20340324Y96442341D01*
X20475363Y96240241D01*
X20675241Y96040363D01*
X20910273Y95883320D01*
X21171426Y95775147D01*
X21448665Y95720000D01*
X21731335Y95720000D01*
X22008574Y95775147D01*
X22269727Y95883320D01*
X22504759Y96040363D01*
X22626694Y96162298D01*
X43676903Y96162298D01*
X43748486Y95918329D01*
X44003996Y95797429D01*
X44278184Y95728700D01*
X44560512Y95714783D01*
X44840130Y95756213D01*
X45106292Y95851397D01*
X45231514Y95918329D01*
X45303097Y96162298D01*
X44490000Y96975395D01*
X43676903Y96162298D01*
X22626694Y96162298D01*
X22704637Y96240241D01*
X22861680Y96475273D01*
X22969853Y96736426D01*
X23025000Y97013665D01*
X23025000Y97084488D01*
X43049783Y97084488D01*
X43091213Y96804870D01*
X43186397Y96538708D01*
X43253329Y96413486D01*
X43497298Y96341903D01*
X44310395Y97155000D01*
X43497298Y97968097D01*
X43253329Y97896514D01*
X43132429Y97641004D01*
X43063700Y97366816D01*
X43049783Y97084488D01*
X23025000Y97084488D01*
X23025000Y97296335D01*
X22969853Y97573574D01*
X22861680Y97834727D01*
X22704637Y98069759D01*
X22626694Y98147702D01*
X43676903Y98147702D01*
X44490000Y97334605D01*
X45303097Y98147702D01*
X45231514Y98391671D01*
X44976004Y98512571D01*
X44701816Y98581300D01*
X44419488Y98595217D01*
X44139870Y98553787D01*
X43873708Y98458603D01*
X43748486Y98391671D01*
X43676903Y98147702D01*
X22626694Y98147702D01*
X22504759Y98269637D01*
X22269727Y98426680D01*
X22008574Y98534853D01*
X21731335Y98590000D01*
X21448665Y98590000D01*
X21171426Y98534853D01*
X20910273Y98426680D01*
X20675241Y98269637D01*
X20475363Y98069759D01*
X20341308Y97869131D01*
X20326671Y97896514D01*
X20082702Y97968097D01*
X19269605Y97155000D01*
X18910395Y97155000D01*
X18097298Y97968097D01*
X17853329Y97896514D01*
X17732429Y97641004D01*
X17663700Y97366816D01*
X17649783Y97084488D01*
X5807937Y97084488D01*
X5651925Y97149110D01*
X5220128Y97235000D01*
X4779872Y97235000D01*
X4348075Y97149110D01*
X3941331Y96980631D01*
X3575271Y96736038D01*
X3263962Y96424729D01*
X3019369Y96058669D01*
X2850890Y95651925D01*
X2765000Y95220128D01*
X660000Y95220128D01*
X660000Y98147702D01*
X18276903Y98147702D01*
X19090000Y97334605D01*
X19903097Y98147702D01*
X19831514Y98391671D01*
X19576004Y98512571D01*
X19301816Y98581300D01*
X19019488Y98595217D01*
X18739870Y98553787D01*
X18473708Y98458603D01*
X18348486Y98391671D01*
X18276903Y98147702D01*
X660000Y98147702D01*
X660000Y99340000D01*
X99340001Y99340000D01*
X99340000Y660000D01*
G37*
G04 #@! TD.AperFunction*
D22*
X28556400Y47460253D02*
X28556401Y37950115D01*
X28552844Y37914000D01*
X28567035Y37769915D01*
X28607896Y37635217D01*
X28609064Y37631367D01*
X28677314Y37503680D01*
X28769163Y37391762D01*
X28797208Y37368746D01*
X36728746Y29437207D01*
X36751762Y29409162D01*
X36863680Y29317313D01*
X36870062Y29313902D01*
X36868963Y29312420D01*
X36748754Y29058087D01*
X36708096Y28924039D01*
X36830085Y28702000D01*
X37973000Y28702000D01*
X37973000Y28722000D01*
X38227000Y28722000D01*
X38227000Y28702000D01*
X38247000Y28702000D01*
X38247000Y28448000D01*
X38227000Y28448000D01*
X38227000Y27304376D01*
X38449040Y27183091D01*
X38713881Y27277930D01*
X38955131Y27422615D01*
X39163519Y27611586D01*
X39331037Y27837580D01*
X39451246Y28091913D01*
X39469141Y28150913D01*
X41175000Y26445053D01*
X41175001Y21422280D01*
X40921309Y21499236D01*
X40640000Y21526943D01*
X40358692Y21499236D01*
X40088193Y21417182D01*
X39838900Y21283932D01*
X39620393Y21104608D01*
X39441068Y20886101D01*
X39370000Y20753142D01*
X39298932Y20886101D01*
X39119608Y21104608D01*
X38901101Y21283932D01*
X38651808Y21417182D01*
X38381309Y21499236D01*
X38100000Y21526943D01*
X37818692Y21499236D01*
X37548193Y21417182D01*
X37298900Y21283932D01*
X37080393Y21104608D01*
X36901068Y20886101D01*
X36767818Y20636808D01*
X36685764Y20366309D01*
X36665000Y20155492D01*
X36665000Y19214509D01*
X36685764Y19003692D01*
X36767818Y18733193D01*
X36901068Y18483900D01*
X37080392Y18265393D01*
X37298899Y18086068D01*
X37548192Y17952818D01*
X37818691Y17870764D01*
X38100000Y17843057D01*
X38381308Y17870764D01*
X38651807Y17952818D01*
X38901100Y18086068D01*
X39119607Y18265392D01*
X39298932Y18483899D01*
X39370000Y18616858D01*
X39441068Y18483900D01*
X39620392Y18265393D01*
X39838899Y18086068D01*
X40088192Y17952818D01*
X40358691Y17870764D01*
X40640000Y17843057D01*
X40921308Y17870764D01*
X41175001Y17947720D01*
X41175001Y17203515D01*
X41171444Y17167400D01*
X41185635Y17023315D01*
X41216879Y16920321D01*
X41227664Y16884767D01*
X41295914Y16757080D01*
X41387763Y16645162D01*
X41415808Y16622146D01*
X43335706Y14702247D01*
X43353010Y14615255D01*
X43419723Y14454195D01*
X43516576Y14309245D01*
X43639845Y14185976D01*
X43784795Y14089123D01*
X43945855Y14022410D01*
X44037800Y14004121D01*
X44037801Y12922548D01*
X37605808Y6490554D01*
X37577763Y6467538D01*
X37485914Y6355620D01*
X37434396Y6259236D01*
X37417664Y6227933D01*
X37375635Y6089385D01*
X37375174Y6084701D01*
X37298900Y6043932D01*
X37080393Y5864608D01*
X36901068Y5646101D01*
X36767818Y5396808D01*
X36685764Y5126309D01*
X36667363Y4939484D01*
X33889500Y7717346D01*
X33889500Y8156995D01*
X33893056Y8193100D01*
X33878865Y8337185D01*
X33873461Y8355000D01*
X33836837Y8475733D01*
X33768587Y8603420D01*
X33676738Y8715338D01*
X33648693Y8738354D01*
X33569298Y8817749D01*
X33683665Y8795000D01*
X33966335Y8795000D01*
X34243574Y8850147D01*
X34504727Y8958320D01*
X34739759Y9115363D01*
X34939637Y9315241D01*
X35096680Y9550273D01*
X35204853Y9811426D01*
X35260000Y10088665D01*
X35260000Y10090900D01*
X35276165Y10090900D01*
X35447145Y10124910D01*
X35608205Y10191623D01*
X35753155Y10288476D01*
X35876424Y10411745D01*
X35973277Y10556695D01*
X36039990Y10717755D01*
X36074000Y10888735D01*
X36074000Y11063065D01*
X36039990Y11234045D01*
X35973277Y11395105D01*
X35876424Y11540055D01*
X35753155Y11663324D01*
X35608205Y11760177D01*
X35447145Y11826890D01*
X35360152Y11844194D01*
X35230158Y11974188D01*
X35207138Y12002238D01*
X35107046Y12084382D01*
X35182571Y12243996D01*
X35251300Y12518184D01*
X35265217Y12800512D01*
X35223787Y13080130D01*
X35128603Y13346292D01*
X35061671Y13471514D01*
X34817702Y13543097D01*
X34004605Y12730000D01*
X34018748Y12715857D01*
X33839143Y12536252D01*
X33825000Y12550395D01*
X33810858Y12536252D01*
X33631253Y12715857D01*
X33645395Y12730000D01*
X32832298Y13543097D01*
X32588329Y13471514D01*
X32572014Y13437033D01*
X32286345Y13722702D01*
X33011903Y13722702D01*
X33825000Y12909605D01*
X34638097Y13722702D01*
X34566514Y13966671D01*
X34311004Y14087571D01*
X34036816Y14156300D01*
X33754488Y14170217D01*
X33474870Y14128787D01*
X33208708Y14033603D01*
X33083486Y13966671D01*
X33011903Y13722702D01*
X32286345Y13722702D01*
X28260900Y17748146D01*
X28260900Y28225961D01*
X36708096Y28225961D01*
X36748754Y28091913D01*
X36868963Y27837580D01*
X37036481Y27611586D01*
X37244869Y27422615D01*
X37486119Y27277930D01*
X37750960Y27183091D01*
X37973000Y27304376D01*
X37973000Y28448000D01*
X36830085Y28448000D01*
X36708096Y28225961D01*
X28260900Y28225961D01*
X28260900Y47755753D01*
X28556400Y47460253D01*
G04 #@! TA.AperFunction,Conductor*
D23*
G36*
X28556400Y47460253D02*
G01*
X28556401Y37950115D01*
X28552844Y37914000D01*
X28567035Y37769915D01*
X28607896Y37635217D01*
X28609064Y37631367D01*
X28677314Y37503680D01*
X28769163Y37391762D01*
X28797208Y37368746D01*
X36728746Y29437207D01*
X36751762Y29409162D01*
X36863680Y29317313D01*
X36870062Y29313902D01*
X36868963Y29312420D01*
X36748754Y29058087D01*
X36708096Y28924039D01*
X36830085Y28702000D01*
X37973000Y28702000D01*
X37973000Y28722000D01*
X38227000Y28722000D01*
X38227000Y28702000D01*
X38247000Y28702000D01*
X38247000Y28448000D01*
X38227000Y28448000D01*
X38227000Y27304376D01*
X38449040Y27183091D01*
X38713881Y27277930D01*
X38955131Y27422615D01*
X39163519Y27611586D01*
X39331037Y27837580D01*
X39451246Y28091913D01*
X39469141Y28150913D01*
X41175000Y26445053D01*
X41175001Y21422280D01*
X40921309Y21499236D01*
X40640000Y21526943D01*
X40358692Y21499236D01*
X40088193Y21417182D01*
X39838900Y21283932D01*
X39620393Y21104608D01*
X39441068Y20886101D01*
X39370000Y20753142D01*
X39298932Y20886101D01*
X39119608Y21104608D01*
X38901101Y21283932D01*
X38651808Y21417182D01*
X38381309Y21499236D01*
X38100000Y21526943D01*
X37818692Y21499236D01*
X37548193Y21417182D01*
X37298900Y21283932D01*
X37080393Y21104608D01*
X36901068Y20886101D01*
X36767818Y20636808D01*
X36685764Y20366309D01*
X36665000Y20155492D01*
X36665000Y19214509D01*
X36685764Y19003692D01*
X36767818Y18733193D01*
X36901068Y18483900D01*
X37080392Y18265393D01*
X37298899Y18086068D01*
X37548192Y17952818D01*
X37818691Y17870764D01*
X38100000Y17843057D01*
X38381308Y17870764D01*
X38651807Y17952818D01*
X38901100Y18086068D01*
X39119607Y18265392D01*
X39298932Y18483899D01*
X39370000Y18616858D01*
X39441068Y18483900D01*
X39620392Y18265393D01*
X39838899Y18086068D01*
X40088192Y17952818D01*
X40358691Y17870764D01*
X40640000Y17843057D01*
X40921308Y17870764D01*
X41175001Y17947720D01*
X41175001Y17203515D01*
X41171444Y17167400D01*
X41185635Y17023315D01*
X41216879Y16920321D01*
X41227664Y16884767D01*
X41295914Y16757080D01*
X41387763Y16645162D01*
X41415808Y16622146D01*
X43335706Y14702247D01*
X43353010Y14615255D01*
X43419723Y14454195D01*
X43516576Y14309245D01*
X43639845Y14185976D01*
X43784795Y14089123D01*
X43945855Y14022410D01*
X44037800Y14004121D01*
X44037801Y12922548D01*
X37605808Y6490554D01*
X37577763Y6467538D01*
X37485914Y6355620D01*
X37434396Y6259236D01*
X37417664Y6227933D01*
X37375635Y6089385D01*
X37375174Y6084701D01*
X37298900Y6043932D01*
X37080393Y5864608D01*
X36901068Y5646101D01*
X36767818Y5396808D01*
X36685764Y5126309D01*
X36667363Y4939484D01*
X33889500Y7717346D01*
X33889500Y8156995D01*
X33893056Y8193100D01*
X33878865Y8337185D01*
X33873461Y8355000D01*
X33836837Y8475733D01*
X33768587Y8603420D01*
X33676738Y8715338D01*
X33648693Y8738354D01*
X33569298Y8817749D01*
X33683665Y8795000D01*
X33966335Y8795000D01*
X34243574Y8850147D01*
X34504727Y8958320D01*
X34739759Y9115363D01*
X34939637Y9315241D01*
X35096680Y9550273D01*
X35204853Y9811426D01*
X35260000Y10088665D01*
X35260000Y10090900D01*
X35276165Y10090900D01*
X35447145Y10124910D01*
X35608205Y10191623D01*
X35753155Y10288476D01*
X35876424Y10411745D01*
X35973277Y10556695D01*
X36039990Y10717755D01*
X36074000Y10888735D01*
X36074000Y11063065D01*
X36039990Y11234045D01*
X35973277Y11395105D01*
X35876424Y11540055D01*
X35753155Y11663324D01*
X35608205Y11760177D01*
X35447145Y11826890D01*
X35360152Y11844194D01*
X35230158Y11974188D01*
X35207138Y12002238D01*
X35107046Y12084382D01*
X35182571Y12243996D01*
X35251300Y12518184D01*
X35265217Y12800512D01*
X35223787Y13080130D01*
X35128603Y13346292D01*
X35061671Y13471514D01*
X34817702Y13543097D01*
X34004605Y12730000D01*
X34018748Y12715857D01*
X33839143Y12536252D01*
X33825000Y12550395D01*
X33810858Y12536252D01*
X33631253Y12715857D01*
X33645395Y12730000D01*
X32832298Y13543097D01*
X32588329Y13471514D01*
X32572014Y13437033D01*
X32286345Y13722702D01*
X33011903Y13722702D01*
X33825000Y12909605D01*
X34638097Y13722702D01*
X34566514Y13966671D01*
X34311004Y14087571D01*
X34036816Y14156300D01*
X33754488Y14170217D01*
X33474870Y14128787D01*
X33208708Y14033603D01*
X33083486Y13966671D01*
X33011903Y13722702D01*
X32286345Y13722702D01*
X28260900Y17748146D01*
X28260900Y28225961D01*
X36708096Y28225961D01*
X36748754Y28091913D01*
X36868963Y27837580D01*
X37036481Y27611586D01*
X37244869Y27422615D01*
X37486119Y27277930D01*
X37750960Y27183091D01*
X37973000Y27304376D01*
X37973000Y28448000D01*
X36830085Y28448000D01*
X36708096Y28225961D01*
X28260900Y28225961D01*
X28260900Y47755753D01*
X28556400Y47460253D01*
G37*
G04 #@! TD.AperFunction*
D22*
X82070363Y28295241D02*
X82270241Y28095363D01*
X82450000Y27975252D01*
X82450001Y25934748D01*
X78245808Y21730554D01*
X78217763Y21707538D01*
X78125914Y21595620D01*
X78074396Y21499236D01*
X78057664Y21467933D01*
X78015635Y21329385D01*
X78015174Y21324701D01*
X77938900Y21283932D01*
X77720393Y21104608D01*
X77541068Y20886101D01*
X77470000Y20753142D01*
X77398932Y20886101D01*
X77219608Y21104608D01*
X77001101Y21283932D01*
X76751808Y21417182D01*
X76481309Y21499236D01*
X76200000Y21526943D01*
X75918692Y21499236D01*
X75648193Y21417182D01*
X75398900Y21283932D01*
X75180393Y21104608D01*
X75001068Y20886101D01*
X74930000Y20753142D01*
X74858932Y20886101D01*
X74679608Y21104608D01*
X74461101Y21283932D01*
X74211808Y21417182D01*
X73941309Y21499236D01*
X73660000Y21526943D01*
X73378692Y21499236D01*
X73108193Y21417182D01*
X72858900Y21283932D01*
X72640393Y21104608D01*
X72461068Y20886101D01*
X72392735Y20758259D01*
X72242601Y20987839D01*
X72044895Y21189500D01*
X71811646Y21348715D01*
X71551818Y21459367D01*
X71469039Y21476904D01*
X71247000Y21354915D01*
X71247000Y19812000D01*
X71267000Y19812000D01*
X71267000Y19558000D01*
X71247000Y19558000D01*
X71247000Y19538000D01*
X70993000Y19538000D01*
X70993000Y19558000D01*
X70973000Y19558000D01*
X70973000Y19812000D01*
X70993000Y19812000D01*
X70993000Y21354915D01*
X70770961Y21476904D01*
X70688182Y21459367D01*
X70428354Y21348715D01*
X70195105Y21189500D01*
X69997399Y20987839D01*
X69847265Y20758259D01*
X69778932Y20886101D01*
X69599608Y21104608D01*
X69381101Y21283932D01*
X69131808Y21417182D01*
X68861309Y21499236D01*
X68580000Y21526943D01*
X68298692Y21499236D01*
X68028193Y21417182D01*
X67884800Y21340537D01*
X67884800Y27775000D01*
X68086335Y27775000D01*
X68363574Y27830147D01*
X68624727Y27938320D01*
X68859759Y28095363D01*
X69059637Y28295241D01*
X69215000Y28527759D01*
X69370363Y28295241D01*
X69570241Y28095363D01*
X69805273Y27938320D01*
X70066426Y27830147D01*
X70343665Y27775000D01*
X70626335Y27775000D01*
X70903574Y27830147D01*
X71164727Y27938320D01*
X71399759Y28095363D01*
X71599637Y28295241D01*
X71755000Y28527759D01*
X71910363Y28295241D01*
X72110241Y28095363D01*
X72345273Y27938320D01*
X72606426Y27830147D01*
X72883665Y27775000D01*
X73166335Y27775000D01*
X73443574Y27830147D01*
X73704727Y27938320D01*
X73939759Y28095363D01*
X74139637Y28295241D01*
X74295000Y28527759D01*
X74450363Y28295241D01*
X74650241Y28095363D01*
X74885273Y27938320D01*
X75146426Y27830147D01*
X75423665Y27775000D01*
X75706335Y27775000D01*
X75983574Y27830147D01*
X76244727Y27938320D01*
X76479759Y28095363D01*
X76679637Y28295241D01*
X76835000Y28527759D01*
X76990363Y28295241D01*
X77190241Y28095363D01*
X77425273Y27938320D01*
X77686426Y27830147D01*
X77963665Y27775000D01*
X78246335Y27775000D01*
X78523574Y27830147D01*
X78784727Y27938320D01*
X79019759Y28095363D01*
X79219637Y28295241D01*
X79375000Y28527759D01*
X79530363Y28295241D01*
X79730241Y28095363D01*
X79965273Y27938320D01*
X80226426Y27830147D01*
X80503665Y27775000D01*
X80786335Y27775000D01*
X81063574Y27830147D01*
X81324727Y27938320D01*
X81559759Y28095363D01*
X81759637Y28295241D01*
X81915000Y28527759D01*
X82070363Y28295241D01*
G04 #@! TA.AperFunction,Conductor*
D23*
G36*
X82070363Y28295241D02*
G01*
X82270241Y28095363D01*
X82450000Y27975252D01*
X82450001Y25934748D01*
X78245808Y21730554D01*
X78217763Y21707538D01*
X78125914Y21595620D01*
X78074396Y21499236D01*
X78057664Y21467933D01*
X78015635Y21329385D01*
X78015174Y21324701D01*
X77938900Y21283932D01*
X77720393Y21104608D01*
X77541068Y20886101D01*
X77470000Y20753142D01*
X77398932Y20886101D01*
X77219608Y21104608D01*
X77001101Y21283932D01*
X76751808Y21417182D01*
X76481309Y21499236D01*
X76200000Y21526943D01*
X75918692Y21499236D01*
X75648193Y21417182D01*
X75398900Y21283932D01*
X75180393Y21104608D01*
X75001068Y20886101D01*
X74930000Y20753142D01*
X74858932Y20886101D01*
X74679608Y21104608D01*
X74461101Y21283932D01*
X74211808Y21417182D01*
X73941309Y21499236D01*
X73660000Y21526943D01*
X73378692Y21499236D01*
X73108193Y21417182D01*
X72858900Y21283932D01*
X72640393Y21104608D01*
X72461068Y20886101D01*
X72392735Y20758259D01*
X72242601Y20987839D01*
X72044895Y21189500D01*
X71811646Y21348715D01*
X71551818Y21459367D01*
X71469039Y21476904D01*
X71247000Y21354915D01*
X71247000Y19812000D01*
X71267000Y19812000D01*
X71267000Y19558000D01*
X71247000Y19558000D01*
X71247000Y19538000D01*
X70993000Y19538000D01*
X70993000Y19558000D01*
X70973000Y19558000D01*
X70973000Y19812000D01*
X70993000Y19812000D01*
X70993000Y21354915D01*
X70770961Y21476904D01*
X70688182Y21459367D01*
X70428354Y21348715D01*
X70195105Y21189500D01*
X69997399Y20987839D01*
X69847265Y20758259D01*
X69778932Y20886101D01*
X69599608Y21104608D01*
X69381101Y21283932D01*
X69131808Y21417182D01*
X68861309Y21499236D01*
X68580000Y21526943D01*
X68298692Y21499236D01*
X68028193Y21417182D01*
X67884800Y21340537D01*
X67884800Y27775000D01*
X68086335Y27775000D01*
X68363574Y27830147D01*
X68624727Y27938320D01*
X68859759Y28095363D01*
X69059637Y28295241D01*
X69215000Y28527759D01*
X69370363Y28295241D01*
X69570241Y28095363D01*
X69805273Y27938320D01*
X70066426Y27830147D01*
X70343665Y27775000D01*
X70626335Y27775000D01*
X70903574Y27830147D01*
X71164727Y27938320D01*
X71399759Y28095363D01*
X71599637Y28295241D01*
X71755000Y28527759D01*
X71910363Y28295241D01*
X72110241Y28095363D01*
X72345273Y27938320D01*
X72606426Y27830147D01*
X72883665Y27775000D01*
X73166335Y27775000D01*
X73443574Y27830147D01*
X73704727Y27938320D01*
X73939759Y28095363D01*
X74139637Y28295241D01*
X74295000Y28527759D01*
X74450363Y28295241D01*
X74650241Y28095363D01*
X74885273Y27938320D01*
X75146426Y27830147D01*
X75423665Y27775000D01*
X75706335Y27775000D01*
X75983574Y27830147D01*
X76244727Y27938320D01*
X76479759Y28095363D01*
X76679637Y28295241D01*
X76835000Y28527759D01*
X76990363Y28295241D01*
X77190241Y28095363D01*
X77425273Y27938320D01*
X77686426Y27830147D01*
X77963665Y27775000D01*
X78246335Y27775000D01*
X78523574Y27830147D01*
X78784727Y27938320D01*
X79019759Y28095363D01*
X79219637Y28295241D01*
X79375000Y28527759D01*
X79530363Y28295241D01*
X79730241Y28095363D01*
X79965273Y27938320D01*
X80226426Y27830147D01*
X80503665Y27775000D01*
X80786335Y27775000D01*
X81063574Y27830147D01*
X81324727Y27938320D01*
X81559759Y28095363D01*
X81759637Y28295241D01*
X81915000Y28527759D01*
X82070363Y28295241D01*
G37*
G04 #@! TD.AperFunction*
D22*
X54976200Y45179653D02*
X54976201Y30592797D01*
X54864055Y30570490D01*
X54702995Y30503777D01*
X54615969Y30445628D01*
X54719853Y30696426D01*
X54775000Y30973665D01*
X54775000Y31256335D01*
X54719853Y31533574D01*
X54611680Y31794727D01*
X54454637Y32029759D01*
X54254759Y32229637D01*
X54022241Y32385000D01*
X54254759Y32540363D01*
X54454637Y32740241D01*
X54611680Y32975273D01*
X54719853Y33236426D01*
X54775000Y33513665D01*
X54775000Y33796335D01*
X54719853Y34073574D01*
X54611680Y34334727D01*
X54454637Y34569759D01*
X54254759Y34769637D01*
X54022241Y34925000D01*
X54254759Y35080363D01*
X54454637Y35280241D01*
X54611680Y35515273D01*
X54719853Y35776426D01*
X54775000Y36053665D01*
X54775000Y36336335D01*
X54719853Y36613574D01*
X54611680Y36874727D01*
X54454637Y37109759D01*
X54254759Y37309637D01*
X54022241Y37465000D01*
X54254759Y37620363D01*
X54454637Y37820241D01*
X54611680Y38055273D01*
X54719853Y38316426D01*
X54775000Y38593665D01*
X54775000Y38876335D01*
X54719853Y39153574D01*
X54611680Y39414727D01*
X54454637Y39649759D01*
X54254759Y39849637D01*
X54019727Y40006680D01*
X54009135Y40011067D01*
X54195131Y40122615D01*
X54403519Y40311586D01*
X54571037Y40537580D01*
X54691246Y40791913D01*
X54731904Y40925961D01*
X54609915Y41148000D01*
X53467000Y41148000D01*
X53467000Y41128000D01*
X53213000Y41128000D01*
X53213000Y41148000D01*
X53193000Y41148000D01*
X53193000Y41402000D01*
X53213000Y41402000D01*
X53213000Y41422000D01*
X53467000Y41422000D01*
X53467000Y41402000D01*
X54609915Y41402000D01*
X54731904Y41624039D01*
X54691246Y41758087D01*
X54571037Y42012420D01*
X54403519Y42238414D01*
X54195131Y42427385D01*
X54009135Y42538933D01*
X54019727Y42543320D01*
X54254759Y42700363D01*
X54454637Y42900241D01*
X54611680Y43135273D01*
X54719853Y43396426D01*
X54775000Y43673665D01*
X54775000Y43956335D01*
X54719853Y44233574D01*
X54611680Y44494727D01*
X54454637Y44729759D01*
X54254759Y44929637D01*
X54022241Y45085000D01*
X54254759Y45240363D01*
X54454637Y45440241D01*
X54559169Y45596685D01*
X54976200Y45179653D01*
G04 #@! TA.AperFunction,Conductor*
D23*
G36*
X54976200Y45179653D02*
G01*
X54976201Y30592797D01*
X54864055Y30570490D01*
X54702995Y30503777D01*
X54615969Y30445628D01*
X54719853Y30696426D01*
X54775000Y30973665D01*
X54775000Y31256335D01*
X54719853Y31533574D01*
X54611680Y31794727D01*
X54454637Y32029759D01*
X54254759Y32229637D01*
X54022241Y32385000D01*
X54254759Y32540363D01*
X54454637Y32740241D01*
X54611680Y32975273D01*
X54719853Y33236426D01*
X54775000Y33513665D01*
X54775000Y33796335D01*
X54719853Y34073574D01*
X54611680Y34334727D01*
X54454637Y34569759D01*
X54254759Y34769637D01*
X54022241Y34925000D01*
X54254759Y35080363D01*
X54454637Y35280241D01*
X54611680Y35515273D01*
X54719853Y35776426D01*
X54775000Y36053665D01*
X54775000Y36336335D01*
X54719853Y36613574D01*
X54611680Y36874727D01*
X54454637Y37109759D01*
X54254759Y37309637D01*
X54022241Y37465000D01*
X54254759Y37620363D01*
X54454637Y37820241D01*
X54611680Y38055273D01*
X54719853Y38316426D01*
X54775000Y38593665D01*
X54775000Y38876335D01*
X54719853Y39153574D01*
X54611680Y39414727D01*
X54454637Y39649759D01*
X54254759Y39849637D01*
X54019727Y40006680D01*
X54009135Y40011067D01*
X54195131Y40122615D01*
X54403519Y40311586D01*
X54571037Y40537580D01*
X54691246Y40791913D01*
X54731904Y40925961D01*
X54609915Y41148000D01*
X53467000Y41148000D01*
X53467000Y41128000D01*
X53213000Y41128000D01*
X53213000Y41148000D01*
X53193000Y41148000D01*
X53193000Y41402000D01*
X53213000Y41402000D01*
X53213000Y41422000D01*
X53467000Y41422000D01*
X53467000Y41402000D01*
X54609915Y41402000D01*
X54731904Y41624039D01*
X54691246Y41758087D01*
X54571037Y42012420D01*
X54403519Y42238414D01*
X54195131Y42427385D01*
X54009135Y42538933D01*
X54019727Y42543320D01*
X54254759Y42700363D01*
X54454637Y42900241D01*
X54611680Y43135273D01*
X54719853Y43396426D01*
X54775000Y43673665D01*
X54775000Y43956335D01*
X54719853Y44233574D01*
X54611680Y44494727D01*
X54454637Y44729759D01*
X54254759Y44929637D01*
X54022241Y45085000D01*
X54254759Y45240363D01*
X54454637Y45440241D01*
X54559169Y45596685D01*
X54976200Y45179653D01*
G37*
G04 #@! TD.AperFunction*
D22*
X64035000Y77879853D02*
X64035001Y38800466D01*
X64004665Y38806500D01*
X63830335Y38806500D01*
X63659355Y38772490D01*
X63498295Y38705777D01*
X63353345Y38608924D01*
X63230076Y38485655D01*
X63133223Y38340705D01*
X63066510Y38179645D01*
X63032500Y38008665D01*
X63032500Y37834335D01*
X63066510Y37663355D01*
X63133223Y37502295D01*
X63182500Y37428547D01*
X63182501Y35477148D01*
X62009116Y34303763D01*
X62004377Y34315205D01*
X61907524Y34460155D01*
X61784255Y34583424D01*
X61639305Y34680277D01*
X61478245Y34746990D01*
X61307265Y34781000D01*
X61132935Y34781000D01*
X60961955Y34746990D01*
X60800895Y34680277D01*
X60655945Y34583424D01*
X60532676Y34460155D01*
X60435823Y34315205D01*
X60369110Y34154145D01*
X60351806Y34067153D01*
X60243141Y33958488D01*
X60155905Y34016777D01*
X59994845Y34083490D01*
X59823865Y34117500D01*
X59649535Y34117500D01*
X59478555Y34083490D01*
X59317495Y34016777D01*
X59172545Y33919924D01*
X59049276Y33796655D01*
X58952423Y33651705D01*
X58885710Y33490645D01*
X58868406Y33403653D01*
X56446200Y30981446D01*
X56446200Y45447995D01*
X56449756Y45484100D01*
X56435565Y45628185D01*
X56393537Y45766734D01*
X56325287Y45894420D01*
X56256453Y45978294D01*
X56256450Y45978297D01*
X56233437Y46006338D01*
X56205397Y46029350D01*
X55385558Y46849188D01*
X55362538Y46877238D01*
X55250620Y46969087D01*
X55122933Y47037337D01*
X54984385Y47079365D01*
X54876405Y47090000D01*
X54840300Y47093556D01*
X54804195Y47090000D01*
X54574748Y47090000D01*
X54454637Y47269759D01*
X54254759Y47469637D01*
X54022241Y47625000D01*
X54254759Y47780363D01*
X54454637Y47980241D01*
X54611680Y48215273D01*
X54719853Y48476426D01*
X54775000Y48753665D01*
X54775000Y49036335D01*
X54719853Y49313574D01*
X54611680Y49574727D01*
X54454637Y49809759D01*
X54254759Y50009637D01*
X54022241Y50165000D01*
X54254759Y50320363D01*
X54454637Y50520241D01*
X54611680Y50755273D01*
X54719853Y51016426D01*
X54775000Y51293665D01*
X54775000Y51576335D01*
X54719853Y51853574D01*
X54611680Y52114727D01*
X54454637Y52349759D01*
X54254759Y52549637D01*
X54022241Y52705000D01*
X54254759Y52860363D01*
X54454637Y53060241D01*
X54611680Y53295273D01*
X54719853Y53556426D01*
X54775000Y53833665D01*
X54775000Y54116335D01*
X54719853Y54393574D01*
X54611680Y54654727D01*
X54454637Y54889759D01*
X54254759Y55089637D01*
X54022241Y55245000D01*
X54254759Y55400363D01*
X54454637Y55600241D01*
X54611680Y55835273D01*
X54719853Y56096426D01*
X54775000Y56373665D01*
X54775000Y56656335D01*
X54719853Y56933574D01*
X54611680Y57194727D01*
X54454637Y57429759D01*
X54254759Y57629637D01*
X54022241Y57785000D01*
X54254759Y57940363D01*
X54454637Y58140241D01*
X54611680Y58375273D01*
X54719853Y58636426D01*
X54775000Y58913665D01*
X54775000Y59196335D01*
X54719853Y59473574D01*
X54611680Y59734727D01*
X54454637Y59969759D01*
X54254759Y60169637D01*
X54022241Y60325000D01*
X54254759Y60480363D01*
X54454637Y60680241D01*
X54611680Y60915273D01*
X54719853Y61176426D01*
X54775000Y61453665D01*
X54775000Y61736335D01*
X54719853Y62013574D01*
X54611680Y62274727D01*
X54454637Y62509759D01*
X54254759Y62709637D01*
X54019727Y62866680D01*
X53758574Y62974853D01*
X53481335Y63030000D01*
X53198665Y63030000D01*
X52921426Y62974853D01*
X52660273Y62866680D01*
X52574700Y62809502D01*
X52574700Y67001347D01*
X52623977Y67075095D01*
X52690690Y67236155D01*
X52724700Y67407135D01*
X52724700Y67581465D01*
X52690690Y67752445D01*
X52623977Y67913505D01*
X52527124Y68058455D01*
X52403855Y68181724D01*
X52258905Y68278577D01*
X52097845Y68345290D01*
X52015500Y68361669D01*
X52015500Y82637165D01*
X55630000Y82637165D01*
X55630000Y82462835D01*
X55664010Y82291855D01*
X55730723Y82130795D01*
X55780000Y82057047D01*
X55780001Y54467954D01*
X55730723Y54394205D01*
X55664010Y54233145D01*
X55630000Y54062165D01*
X55630000Y53887835D01*
X55664010Y53716855D01*
X55730723Y53555795D01*
X55827576Y53410845D01*
X55950845Y53287576D01*
X56095795Y53190723D01*
X56256855Y53124010D01*
X56427835Y53090000D01*
X56602165Y53090000D01*
X56773145Y53124010D01*
X56934205Y53190723D01*
X57079155Y53287576D01*
X57202424Y53410845D01*
X57299277Y53555795D01*
X57365990Y53716855D01*
X57400000Y53887835D01*
X57400000Y54062165D01*
X57365990Y54233145D01*
X57299277Y54394205D01*
X57250000Y54467953D01*
X57250000Y70270000D01*
X60106928Y70270000D01*
X60119188Y70145518D01*
X60155498Y70025820D01*
X60214463Y69915506D01*
X60293815Y69818815D01*
X60390506Y69739463D01*
X60500820Y69680498D01*
X60573380Y69658487D01*
X60441525Y69526632D01*
X60279010Y69283411D01*
X60167068Y69013158D01*
X60110000Y68726260D01*
X60110000Y68433740D01*
X60167068Y68146842D01*
X60279010Y67876589D01*
X60441525Y67633368D01*
X60648368Y67426525D01*
X60822760Y67310000D01*
X60648368Y67193475D01*
X60441525Y66986632D01*
X60279010Y66743411D01*
X60167068Y66473158D01*
X60110000Y66186260D01*
X60110000Y65893740D01*
X60167068Y65606842D01*
X60279010Y65336589D01*
X60441525Y65093368D01*
X60648368Y64886525D01*
X60822760Y64770000D01*
X60648368Y64653475D01*
X60441525Y64446632D01*
X60279010Y64203411D01*
X60167068Y63933158D01*
X60110000Y63646260D01*
X60110000Y63353740D01*
X60167068Y63066842D01*
X60279010Y62796589D01*
X60441525Y62553368D01*
X60648368Y62346525D01*
X60822760Y62230000D01*
X60648368Y62113475D01*
X60441525Y61906632D01*
X60279010Y61663411D01*
X60167068Y61393158D01*
X60110000Y61106260D01*
X60110000Y60813740D01*
X60167068Y60526842D01*
X60279010Y60256589D01*
X60441525Y60013368D01*
X60648368Y59806525D01*
X60822760Y59690000D01*
X60648368Y59573475D01*
X60441525Y59366632D01*
X60279010Y59123411D01*
X60167068Y58853158D01*
X60110000Y58566260D01*
X60110000Y58273740D01*
X60167068Y57986842D01*
X60279010Y57716589D01*
X60441525Y57473368D01*
X60648368Y57266525D01*
X60891589Y57104010D01*
X61161842Y56992068D01*
X61448740Y56935000D01*
X61741260Y56935000D01*
X62028158Y56992068D01*
X62298411Y57104010D01*
X62541632Y57266525D01*
X62748475Y57473368D01*
X62910990Y57716589D01*
X63022932Y57986842D01*
X63080000Y58273740D01*
X63080000Y58566260D01*
X63022932Y58853158D01*
X62910990Y59123411D01*
X62748475Y59366632D01*
X62541632Y59573475D01*
X62367240Y59690000D01*
X62541632Y59806525D01*
X62748475Y60013368D01*
X62910990Y60256589D01*
X63022932Y60526842D01*
X63080000Y60813740D01*
X63080000Y61106260D01*
X63022932Y61393158D01*
X62910990Y61663411D01*
X62748475Y61906632D01*
X62541632Y62113475D01*
X62367240Y62230000D01*
X62541632Y62346525D01*
X62748475Y62553368D01*
X62910990Y62796589D01*
X63022932Y63066842D01*
X63080000Y63353740D01*
X63080000Y63646260D01*
X63022932Y63933158D01*
X62910990Y64203411D01*
X62748475Y64446632D01*
X62541632Y64653475D01*
X62367240Y64770000D01*
X62541632Y64886525D01*
X62748475Y65093368D01*
X62910990Y65336589D01*
X63022932Y65606842D01*
X63080000Y65893740D01*
X63080000Y66186260D01*
X63022932Y66473158D01*
X62910990Y66743411D01*
X62748475Y66986632D01*
X62541632Y67193475D01*
X62367240Y67310000D01*
X62541632Y67426525D01*
X62748475Y67633368D01*
X62910990Y67876589D01*
X63022932Y68146842D01*
X63080000Y68433740D01*
X63080000Y68726260D01*
X63022932Y69013158D01*
X62910990Y69283411D01*
X62748475Y69526632D01*
X62616620Y69658487D01*
X62689180Y69680498D01*
X62799494Y69739463D01*
X62896185Y69818815D01*
X62975537Y69915506D01*
X63034502Y70025820D01*
X63070812Y70145518D01*
X63083072Y70270000D01*
X63080000Y70834250D01*
X62921250Y70993000D01*
X61722000Y70993000D01*
X61722000Y70973000D01*
X61468000Y70973000D01*
X61468000Y70993000D01*
X60268750Y70993000D01*
X60110000Y70834250D01*
X60106928Y70270000D01*
X57250000Y70270000D01*
X57250000Y71970000D01*
X60106928Y71970000D01*
X60110000Y71405750D01*
X60268750Y71247000D01*
X61468000Y71247000D01*
X61468000Y72446250D01*
X61722000Y72446250D01*
X61722000Y71247000D01*
X62921250Y71247000D01*
X63080000Y71405750D01*
X63083072Y71970000D01*
X63070812Y72094482D01*
X63034502Y72214180D01*
X62975537Y72324494D01*
X62896185Y72421185D01*
X62799494Y72500537D01*
X62689180Y72559502D01*
X62569482Y72595812D01*
X62445000Y72608072D01*
X61880750Y72605000D01*
X61722000Y72446250D01*
X61468000Y72446250D01*
X61309250Y72605000D01*
X60745000Y72608072D01*
X60620518Y72595812D01*
X60500820Y72559502D01*
X60390506Y72500537D01*
X60293815Y72421185D01*
X60214463Y72324494D01*
X60155498Y72214180D01*
X60119188Y72094482D01*
X60106928Y71970000D01*
X57250000Y71970000D01*
X57250000Y82057047D01*
X57299277Y82130795D01*
X57365990Y82291855D01*
X57400000Y82462835D01*
X57400000Y82637165D01*
X57365990Y82808145D01*
X57299277Y82969205D01*
X57202424Y83114155D01*
X57079155Y83237424D01*
X56934205Y83334277D01*
X56773145Y83400990D01*
X56602165Y83435000D01*
X56427835Y83435000D01*
X56256855Y83400990D01*
X56095795Y83334277D01*
X55950845Y83237424D01*
X55827576Y83114155D01*
X55730723Y82969205D01*
X55664010Y82808145D01*
X55630000Y82637165D01*
X52015500Y82637165D01*
X52015500Y89653395D01*
X52019056Y89689500D01*
X52004865Y89833585D01*
X51978770Y89919608D01*
X51971596Y89943258D01*
X64035000Y77879853D01*
G04 #@! TA.AperFunction,Conductor*
D23*
G36*
X64035000Y77879853D02*
G01*
X64035001Y38800466D01*
X64004665Y38806500D01*
X63830335Y38806500D01*
X63659355Y38772490D01*
X63498295Y38705777D01*
X63353345Y38608924D01*
X63230076Y38485655D01*
X63133223Y38340705D01*
X63066510Y38179645D01*
X63032500Y38008665D01*
X63032500Y37834335D01*
X63066510Y37663355D01*
X63133223Y37502295D01*
X63182500Y37428547D01*
X63182501Y35477148D01*
X62009116Y34303763D01*
X62004377Y34315205D01*
X61907524Y34460155D01*
X61784255Y34583424D01*
X61639305Y34680277D01*
X61478245Y34746990D01*
X61307265Y34781000D01*
X61132935Y34781000D01*
X60961955Y34746990D01*
X60800895Y34680277D01*
X60655945Y34583424D01*
X60532676Y34460155D01*
X60435823Y34315205D01*
X60369110Y34154145D01*
X60351806Y34067153D01*
X60243141Y33958488D01*
X60155905Y34016777D01*
X59994845Y34083490D01*
X59823865Y34117500D01*
X59649535Y34117500D01*
X59478555Y34083490D01*
X59317495Y34016777D01*
X59172545Y33919924D01*
X59049276Y33796655D01*
X58952423Y33651705D01*
X58885710Y33490645D01*
X58868406Y33403653D01*
X56446200Y30981446D01*
X56446200Y45447995D01*
X56449756Y45484100D01*
X56435565Y45628185D01*
X56393537Y45766734D01*
X56325287Y45894420D01*
X56256453Y45978294D01*
X56256450Y45978297D01*
X56233437Y46006338D01*
X56205397Y46029350D01*
X55385558Y46849188D01*
X55362538Y46877238D01*
X55250620Y46969087D01*
X55122933Y47037337D01*
X54984385Y47079365D01*
X54876405Y47090000D01*
X54840300Y47093556D01*
X54804195Y47090000D01*
X54574748Y47090000D01*
X54454637Y47269759D01*
X54254759Y47469637D01*
X54022241Y47625000D01*
X54254759Y47780363D01*
X54454637Y47980241D01*
X54611680Y48215273D01*
X54719853Y48476426D01*
X54775000Y48753665D01*
X54775000Y49036335D01*
X54719853Y49313574D01*
X54611680Y49574727D01*
X54454637Y49809759D01*
X54254759Y50009637D01*
X54022241Y50165000D01*
X54254759Y50320363D01*
X54454637Y50520241D01*
X54611680Y50755273D01*
X54719853Y51016426D01*
X54775000Y51293665D01*
X54775000Y51576335D01*
X54719853Y51853574D01*
X54611680Y52114727D01*
X54454637Y52349759D01*
X54254759Y52549637D01*
X54022241Y52705000D01*
X54254759Y52860363D01*
X54454637Y53060241D01*
X54611680Y53295273D01*
X54719853Y53556426D01*
X54775000Y53833665D01*
X54775000Y54116335D01*
X54719853Y54393574D01*
X54611680Y54654727D01*
X54454637Y54889759D01*
X54254759Y55089637D01*
X54022241Y55245000D01*
X54254759Y55400363D01*
X54454637Y55600241D01*
X54611680Y55835273D01*
X54719853Y56096426D01*
X54775000Y56373665D01*
X54775000Y56656335D01*
X54719853Y56933574D01*
X54611680Y57194727D01*
X54454637Y57429759D01*
X54254759Y57629637D01*
X54022241Y57785000D01*
X54254759Y57940363D01*
X54454637Y58140241D01*
X54611680Y58375273D01*
X54719853Y58636426D01*
X54775000Y58913665D01*
X54775000Y59196335D01*
X54719853Y59473574D01*
X54611680Y59734727D01*
X54454637Y59969759D01*
X54254759Y60169637D01*
X54022241Y60325000D01*
X54254759Y60480363D01*
X54454637Y60680241D01*
X54611680Y60915273D01*
X54719853Y61176426D01*
X54775000Y61453665D01*
X54775000Y61736335D01*
X54719853Y62013574D01*
X54611680Y62274727D01*
X54454637Y62509759D01*
X54254759Y62709637D01*
X54019727Y62866680D01*
X53758574Y62974853D01*
X53481335Y63030000D01*
X53198665Y63030000D01*
X52921426Y62974853D01*
X52660273Y62866680D01*
X52574700Y62809502D01*
X52574700Y67001347D01*
X52623977Y67075095D01*
X52690690Y67236155D01*
X52724700Y67407135D01*
X52724700Y67581465D01*
X52690690Y67752445D01*
X52623977Y67913505D01*
X52527124Y68058455D01*
X52403855Y68181724D01*
X52258905Y68278577D01*
X52097845Y68345290D01*
X52015500Y68361669D01*
X52015500Y82637165D01*
X55630000Y82637165D01*
X55630000Y82462835D01*
X55664010Y82291855D01*
X55730723Y82130795D01*
X55780000Y82057047D01*
X55780001Y54467954D01*
X55730723Y54394205D01*
X55664010Y54233145D01*
X55630000Y54062165D01*
X55630000Y53887835D01*
X55664010Y53716855D01*
X55730723Y53555795D01*
X55827576Y53410845D01*
X55950845Y53287576D01*
X56095795Y53190723D01*
X56256855Y53124010D01*
X56427835Y53090000D01*
X56602165Y53090000D01*
X56773145Y53124010D01*
X56934205Y53190723D01*
X57079155Y53287576D01*
X57202424Y53410845D01*
X57299277Y53555795D01*
X57365990Y53716855D01*
X57400000Y53887835D01*
X57400000Y54062165D01*
X57365990Y54233145D01*
X57299277Y54394205D01*
X57250000Y54467953D01*
X57250000Y70270000D01*
X60106928Y70270000D01*
X60119188Y70145518D01*
X60155498Y70025820D01*
X60214463Y69915506D01*
X60293815Y69818815D01*
X60390506Y69739463D01*
X60500820Y69680498D01*
X60573380Y69658487D01*
X60441525Y69526632D01*
X60279010Y69283411D01*
X60167068Y69013158D01*
X60110000Y68726260D01*
X60110000Y68433740D01*
X60167068Y68146842D01*
X60279010Y67876589D01*
X60441525Y67633368D01*
X60648368Y67426525D01*
X60822760Y67310000D01*
X60648368Y67193475D01*
X60441525Y66986632D01*
X60279010Y66743411D01*
X60167068Y66473158D01*
X60110000Y66186260D01*
X60110000Y65893740D01*
X60167068Y65606842D01*
X60279010Y65336589D01*
X60441525Y65093368D01*
X60648368Y64886525D01*
X60822760Y64770000D01*
X60648368Y64653475D01*
X60441525Y64446632D01*
X60279010Y64203411D01*
X60167068Y63933158D01*
X60110000Y63646260D01*
X60110000Y63353740D01*
X60167068Y63066842D01*
X60279010Y62796589D01*
X60441525Y62553368D01*
X60648368Y62346525D01*
X60822760Y62230000D01*
X60648368Y62113475D01*
X60441525Y61906632D01*
X60279010Y61663411D01*
X60167068Y61393158D01*
X60110000Y61106260D01*
X60110000Y60813740D01*
X60167068Y60526842D01*
X60279010Y60256589D01*
X60441525Y60013368D01*
X60648368Y59806525D01*
X60822760Y59690000D01*
X60648368Y59573475D01*
X60441525Y59366632D01*
X60279010Y59123411D01*
X60167068Y58853158D01*
X60110000Y58566260D01*
X60110000Y58273740D01*
X60167068Y57986842D01*
X60279010Y57716589D01*
X60441525Y57473368D01*
X60648368Y57266525D01*
X60891589Y57104010D01*
X61161842Y56992068D01*
X61448740Y56935000D01*
X61741260Y56935000D01*
X62028158Y56992068D01*
X62298411Y57104010D01*
X62541632Y57266525D01*
X62748475Y57473368D01*
X62910990Y57716589D01*
X63022932Y57986842D01*
X63080000Y58273740D01*
X63080000Y58566260D01*
X63022932Y58853158D01*
X62910990Y59123411D01*
X62748475Y59366632D01*
X62541632Y59573475D01*
X62367240Y59690000D01*
X62541632Y59806525D01*
X62748475Y60013368D01*
X62910990Y60256589D01*
X63022932Y60526842D01*
X63080000Y60813740D01*
X63080000Y61106260D01*
X63022932Y61393158D01*
X62910990Y61663411D01*
X62748475Y61906632D01*
X62541632Y62113475D01*
X62367240Y62230000D01*
X62541632Y62346525D01*
X62748475Y62553368D01*
X62910990Y62796589D01*
X63022932Y63066842D01*
X63080000Y63353740D01*
X63080000Y63646260D01*
X63022932Y63933158D01*
X62910990Y64203411D01*
X62748475Y64446632D01*
X62541632Y64653475D01*
X62367240Y64770000D01*
X62541632Y64886525D01*
X62748475Y65093368D01*
X62910990Y65336589D01*
X63022932Y65606842D01*
X63080000Y65893740D01*
X63080000Y66186260D01*
X63022932Y66473158D01*
X62910990Y66743411D01*
X62748475Y66986632D01*
X62541632Y67193475D01*
X62367240Y67310000D01*
X62541632Y67426525D01*
X62748475Y67633368D01*
X62910990Y67876589D01*
X63022932Y68146842D01*
X63080000Y68433740D01*
X63080000Y68726260D01*
X63022932Y69013158D01*
X62910990Y69283411D01*
X62748475Y69526632D01*
X62616620Y69658487D01*
X62689180Y69680498D01*
X62799494Y69739463D01*
X62896185Y69818815D01*
X62975537Y69915506D01*
X63034502Y70025820D01*
X63070812Y70145518D01*
X63083072Y70270000D01*
X63080000Y70834250D01*
X62921250Y70993000D01*
X61722000Y70993000D01*
X61722000Y70973000D01*
X61468000Y70973000D01*
X61468000Y70993000D01*
X60268750Y70993000D01*
X60110000Y70834250D01*
X60106928Y70270000D01*
X57250000Y70270000D01*
X57250000Y71970000D01*
X60106928Y71970000D01*
X60110000Y71405750D01*
X60268750Y71247000D01*
X61468000Y71247000D01*
X61468000Y72446250D01*
X61722000Y72446250D01*
X61722000Y71247000D01*
X62921250Y71247000D01*
X63080000Y71405750D01*
X63083072Y71970000D01*
X63070812Y72094482D01*
X63034502Y72214180D01*
X62975537Y72324494D01*
X62896185Y72421185D01*
X62799494Y72500537D01*
X62689180Y72559502D01*
X62569482Y72595812D01*
X62445000Y72608072D01*
X61880750Y72605000D01*
X61722000Y72446250D01*
X61468000Y72446250D01*
X61309250Y72605000D01*
X60745000Y72608072D01*
X60620518Y72595812D01*
X60500820Y72559502D01*
X60390506Y72500537D01*
X60293815Y72421185D01*
X60214463Y72324494D01*
X60155498Y72214180D01*
X60119188Y72094482D01*
X60106928Y71970000D01*
X57250000Y71970000D01*
X57250000Y82057047D01*
X57299277Y82130795D01*
X57365990Y82291855D01*
X57400000Y82462835D01*
X57400000Y82637165D01*
X57365990Y82808145D01*
X57299277Y82969205D01*
X57202424Y83114155D01*
X57079155Y83237424D01*
X56934205Y83334277D01*
X56773145Y83400990D01*
X56602165Y83435000D01*
X56427835Y83435000D01*
X56256855Y83400990D01*
X56095795Y83334277D01*
X55950845Y83237424D01*
X55827576Y83114155D01*
X55730723Y82969205D01*
X55664010Y82808145D01*
X55630000Y82637165D01*
X52015500Y82637165D01*
X52015500Y89653395D01*
X52019056Y89689500D01*
X52004865Y89833585D01*
X51978770Y89919608D01*
X51971596Y89943258D01*
X64035000Y77879853D01*
G37*
G04 #@! TD.AperFunction*
D22*
X14464446Y45860807D02*
X14487462Y45832762D01*
X14599380Y45740913D01*
X14727067Y45672663D01*
X14865615Y45630635D01*
X14870298Y45630174D01*
X14911068Y45553899D01*
X15090392Y45335392D01*
X15308899Y45156068D01*
X15441858Y45085000D01*
X15308899Y45013932D01*
X15090392Y44834608D01*
X14911068Y44616101D01*
X14777818Y44366808D01*
X14695764Y44096309D01*
X14668057Y43815000D01*
X14695764Y43533691D01*
X14777818Y43263192D01*
X14911068Y43013899D01*
X15090392Y42795392D01*
X15308899Y42616068D01*
X15436741Y42547735D01*
X15207161Y42397601D01*
X15005500Y42199895D01*
X14846285Y41966646D01*
X14735633Y41706818D01*
X14718096Y41624039D01*
X14840085Y41402000D01*
X16383000Y41402000D01*
X16383000Y41422000D01*
X16637000Y41422000D01*
X16637000Y41402000D01*
X16657000Y41402000D01*
X16657000Y41148000D01*
X16637000Y41148000D01*
X16637000Y39840000D01*
X17037000Y39840000D01*
X17275300Y39884953D01*
X17275300Y39725057D01*
X17258664Y39693933D01*
X17216635Y39555385D01*
X17202444Y39411300D01*
X17206001Y39375185D01*
X17206000Y35829347D01*
X12109386Y40925961D01*
X14718096Y40925961D01*
X14735633Y40843182D01*
X14846285Y40583354D01*
X15005500Y40350105D01*
X15207161Y40152399D01*
X15443517Y39997834D01*
X15705486Y39892350D01*
X15983000Y39840000D01*
X16383000Y39840000D01*
X16383000Y41148000D01*
X14840085Y41148000D01*
X14718096Y40925961D01*
X12109386Y40925961D01*
X10891159Y42144187D01*
X10868138Y42172238D01*
X10756220Y42264087D01*
X10628533Y42332337D01*
X10489985Y42374365D01*
X10382005Y42385000D01*
X10345900Y42388556D01*
X10309795Y42385000D01*
X8914883Y42385000D01*
X8773475Y42596632D01*
X8566632Y42803475D01*
X8392240Y42920000D01*
X8566632Y43036525D01*
X8773475Y43243368D01*
X8935990Y43486589D01*
X9047932Y43756842D01*
X9105000Y44043740D01*
X9105000Y44336260D01*
X9047932Y44623158D01*
X8935990Y44893411D01*
X8773475Y45136632D01*
X8566632Y45343475D01*
X8392240Y45460000D01*
X8566632Y45576525D01*
X8773475Y45783368D01*
X8935990Y46026589D01*
X9047932Y46296842D01*
X9105000Y46583740D01*
X9105000Y46876260D01*
X9047932Y47163158D01*
X8935990Y47433411D01*
X8773475Y47676632D01*
X8566632Y47883475D01*
X8392240Y48000000D01*
X8566632Y48116525D01*
X8773475Y48323368D01*
X8935990Y48566589D01*
X9047932Y48836842D01*
X9105000Y49123740D01*
X9105000Y49416260D01*
X9047932Y49703158D01*
X8935990Y49973411D01*
X8773475Y50216632D01*
X8566632Y50423475D01*
X8392240Y50540000D01*
X8566632Y50656525D01*
X8773475Y50863368D01*
X8935990Y51106589D01*
X9018783Y51306471D01*
X14464446Y45860807D01*
G04 #@! TA.AperFunction,Conductor*
D23*
G36*
X14464446Y45860807D02*
G01*
X14487462Y45832762D01*
X14599380Y45740913D01*
X14727067Y45672663D01*
X14865615Y45630635D01*
X14870298Y45630174D01*
X14911068Y45553899D01*
X15090392Y45335392D01*
X15308899Y45156068D01*
X15441858Y45085000D01*
X15308899Y45013932D01*
X15090392Y44834608D01*
X14911068Y44616101D01*
X14777818Y44366808D01*
X14695764Y44096309D01*
X14668057Y43815000D01*
X14695764Y43533691D01*
X14777818Y43263192D01*
X14911068Y43013899D01*
X15090392Y42795392D01*
X15308899Y42616068D01*
X15436741Y42547735D01*
X15207161Y42397601D01*
X15005500Y42199895D01*
X14846285Y41966646D01*
X14735633Y41706818D01*
X14718096Y41624039D01*
X14840085Y41402000D01*
X16383000Y41402000D01*
X16383000Y41422000D01*
X16637000Y41422000D01*
X16637000Y41402000D01*
X16657000Y41402000D01*
X16657000Y41148000D01*
X16637000Y41148000D01*
X16637000Y39840000D01*
X17037000Y39840000D01*
X17275300Y39884953D01*
X17275300Y39725057D01*
X17258664Y39693933D01*
X17216635Y39555385D01*
X17202444Y39411300D01*
X17206001Y39375185D01*
X17206000Y35829347D01*
X12109386Y40925961D01*
X14718096Y40925961D01*
X14735633Y40843182D01*
X14846285Y40583354D01*
X15005500Y40350105D01*
X15207161Y40152399D01*
X15443517Y39997834D01*
X15705486Y39892350D01*
X15983000Y39840000D01*
X16383000Y39840000D01*
X16383000Y41148000D01*
X14840085Y41148000D01*
X14718096Y40925961D01*
X12109386Y40925961D01*
X10891159Y42144187D01*
X10868138Y42172238D01*
X10756220Y42264087D01*
X10628533Y42332337D01*
X10489985Y42374365D01*
X10382005Y42385000D01*
X10345900Y42388556D01*
X10309795Y42385000D01*
X8914883Y42385000D01*
X8773475Y42596632D01*
X8566632Y42803475D01*
X8392240Y42920000D01*
X8566632Y43036525D01*
X8773475Y43243368D01*
X8935990Y43486589D01*
X9047932Y43756842D01*
X9105000Y44043740D01*
X9105000Y44336260D01*
X9047932Y44623158D01*
X8935990Y44893411D01*
X8773475Y45136632D01*
X8566632Y45343475D01*
X8392240Y45460000D01*
X8566632Y45576525D01*
X8773475Y45783368D01*
X8935990Y46026589D01*
X9047932Y46296842D01*
X9105000Y46583740D01*
X9105000Y46876260D01*
X9047932Y47163158D01*
X8935990Y47433411D01*
X8773475Y47676632D01*
X8566632Y47883475D01*
X8392240Y48000000D01*
X8566632Y48116525D01*
X8773475Y48323368D01*
X8935990Y48566589D01*
X9047932Y48836842D01*
X9105000Y49123740D01*
X9105000Y49416260D01*
X9047932Y49703158D01*
X8935990Y49973411D01*
X8773475Y50216632D01*
X8566632Y50423475D01*
X8392240Y50540000D01*
X8566632Y50656525D01*
X8773475Y50863368D01*
X8935990Y51106589D01*
X9018783Y51306471D01*
X14464446Y45860807D01*
G37*
G04 #@! TD.AperFunction*
D22*
X19283748Y36209142D02*
X19269605Y36195000D01*
X19283748Y36180857D01*
X19104143Y36001252D01*
X19090000Y36015395D01*
X19075858Y36001252D01*
X18896253Y36180857D01*
X18910395Y36195000D01*
X18896253Y36209142D01*
X19075858Y36388747D01*
X19090000Y36374605D01*
X19104143Y36388747D01*
X19283748Y36209142D01*
G04 #@! TA.AperFunction,Conductor*
D23*
G36*
X19283748Y36209142D02*
G01*
X19269605Y36195000D01*
X19283748Y36180857D01*
X19104143Y36001252D01*
X19090000Y36015395D01*
X19075858Y36001252D01*
X18896253Y36180857D01*
X18910395Y36195000D01*
X18896253Y36209142D01*
X19075858Y36388747D01*
X19090000Y36374605D01*
X19104143Y36388747D01*
X19283748Y36209142D01*
G37*
G04 #@! TD.AperFunction*
D22*
X5207000Y44317000D02*
X5227000Y44317000D01*
X5227000Y44063000D01*
X5207000Y44063000D01*
X5207000Y44043000D01*
X4953000Y44043000D01*
X4953000Y44063000D01*
X4933000Y44063000D01*
X4933000Y44317000D01*
X4953000Y44317000D01*
X4953000Y44337000D01*
X5207000Y44337000D01*
X5207000Y44317000D01*
G04 #@! TA.AperFunction,Conductor*
D23*
G36*
X5207000Y44317000D02*
G01*
X5227000Y44317000D01*
X5227000Y44063000D01*
X5207000Y44063000D01*
X5207000Y44043000D01*
X4953000Y44043000D01*
X4953000Y44063000D01*
X4933000Y44063000D01*
X4933000Y44317000D01*
X4953000Y44317000D01*
X4953000Y44337000D01*
X5207000Y44337000D01*
X5207000Y44317000D01*
G37*
G04 #@! TD.AperFunction*
D22*
X7747000Y64637000D02*
X7767000Y64637000D01*
X7767000Y64383000D01*
X7747000Y64383000D01*
X7747000Y64363000D01*
X7493000Y64363000D01*
X7493000Y64383000D01*
X7473000Y64383000D01*
X7473000Y64637000D01*
X7493000Y64637000D01*
X7493000Y64657000D01*
X7747000Y64657000D01*
X7747000Y64637000D01*
G04 #@! TA.AperFunction,Conductor*
D23*
G36*
X7747000Y64637000D02*
G01*
X7767000Y64637000D01*
X7767000Y64383000D01*
X7747000Y64383000D01*
X7747000Y64363000D01*
X7493000Y64363000D01*
X7493000Y64383000D01*
X7473000Y64383000D01*
X7473000Y64637000D01*
X7493000Y64637000D01*
X7493000Y64657000D01*
X7747000Y64657000D01*
X7747000Y64637000D01*
G37*
G04 #@! TD.AperFunction*
D22*
X44683748Y64784142D02*
X44669605Y64770000D01*
X44683748Y64755857D01*
X44504143Y64576252D01*
X44490000Y64590395D01*
X44475858Y64576252D01*
X44296253Y64755857D01*
X44310395Y64770000D01*
X44296253Y64784142D01*
X44475858Y64963747D01*
X44490000Y64949605D01*
X44504143Y64963747D01*
X44683748Y64784142D01*
G04 #@! TA.AperFunction,Conductor*
D23*
G36*
X44683748Y64784142D02*
G01*
X44669605Y64770000D01*
X44683748Y64755857D01*
X44504143Y64576252D01*
X44490000Y64590395D01*
X44475858Y64576252D01*
X44296253Y64755857D01*
X44310395Y64770000D01*
X44296253Y64784142D01*
X44475858Y64963747D01*
X44490000Y64949605D01*
X44504143Y64963747D01*
X44683748Y64784142D01*
G37*
G04 #@! TD.AperFunction*
D22*
X15090392Y85340392D02*
X15308899Y85161068D01*
X15441858Y85090000D01*
X15308899Y85018932D01*
X15090392Y84839608D01*
X14911068Y84621101D01*
X14777818Y84371808D01*
X14695764Y84101309D01*
X14668057Y83820000D01*
X14695764Y83538691D01*
X14777818Y83268192D01*
X14911068Y83018899D01*
X15090392Y82800392D01*
X15308899Y82621068D01*
X15441858Y82550000D01*
X15308899Y82478932D01*
X15090392Y82299608D01*
X14911068Y82081101D01*
X14777818Y81831808D01*
X14695764Y81561309D01*
X14668057Y81280000D01*
X14695764Y80998691D01*
X14777818Y80728192D01*
X14911068Y80478899D01*
X15090392Y80260392D01*
X15308899Y80081068D01*
X15441858Y80010000D01*
X15308899Y79938932D01*
X15090392Y79759608D01*
X14911068Y79541101D01*
X14777818Y79291808D01*
X14695764Y79021309D01*
X14668057Y78740000D01*
X14695764Y78458691D01*
X14777818Y78188192D01*
X14911068Y77938899D01*
X15090392Y77720392D01*
X15308899Y77541068D01*
X15441858Y77470000D01*
X15308899Y77398932D01*
X15090392Y77219608D01*
X14911068Y77001101D01*
X14777818Y76751808D01*
X14695764Y76481309D01*
X14668057Y76200000D01*
X14695764Y75918691D01*
X14777818Y75648192D01*
X14911068Y75398899D01*
X15090392Y75180392D01*
X15308899Y75001068D01*
X15441858Y74930000D01*
X15308899Y74858932D01*
X15090392Y74679608D01*
X14911068Y74461101D01*
X14777818Y74211808D01*
X14695764Y73941309D01*
X14668057Y73660000D01*
X14695764Y73378691D01*
X14777818Y73108192D01*
X14911068Y72858899D01*
X15090392Y72640392D01*
X15308899Y72461068D01*
X15436741Y72392735D01*
X15207161Y72242601D01*
X15005500Y72044895D01*
X14846285Y71811646D01*
X14735633Y71551818D01*
X14718096Y71469039D01*
X14840085Y71247000D01*
X16383000Y71247000D01*
X16383000Y71267000D01*
X16637000Y71267000D01*
X16637000Y71247000D01*
X16657000Y71247000D01*
X16657000Y70993000D01*
X16637000Y70993000D01*
X16637000Y69685000D01*
X16796811Y69685000D01*
X16793410Y69673787D01*
X16777635Y69621785D01*
X16763444Y69477700D01*
X16767000Y69441595D01*
X16767001Y65761515D01*
X16763444Y65725400D01*
X16777635Y65581315D01*
X16780136Y65573072D01*
X15744700Y65573072D01*
X15744700Y66607082D01*
X15748740Y66648100D01*
X15742876Y66707637D01*
X15732618Y66811789D01*
X15684872Y66969187D01*
X15607336Y67114246D01*
X15502991Y67241391D01*
X15471133Y67267536D01*
X11967707Y70770961D01*
X14718096Y70770961D01*
X14735633Y70688182D01*
X14846285Y70428354D01*
X15005500Y70195105D01*
X15207161Y69997399D01*
X15443517Y69842834D01*
X15705486Y69737350D01*
X15983000Y69685000D01*
X16383000Y69685000D01*
X16383000Y70993000D01*
X14840085Y70993000D01*
X14718096Y70770961D01*
X11967707Y70770961D01*
X8870336Y73868331D01*
X8935990Y73966589D01*
X9047932Y74236842D01*
X9105000Y74523740D01*
X9105000Y74816260D01*
X9047932Y75103158D01*
X8935990Y75373411D01*
X8773475Y75616632D01*
X8566632Y75823475D01*
X8323411Y75985990D01*
X8053158Y76097932D01*
X7766260Y76155000D01*
X7473740Y76155000D01*
X7186842Y76097932D01*
X7185100Y76097210D01*
X7185100Y77495954D01*
X15062962Y85373815D01*
X15090392Y85340392D01*
G04 #@! TA.AperFunction,Conductor*
D23*
G36*
X15090392Y85340392D02*
G01*
X15308899Y85161068D01*
X15441858Y85090000D01*
X15308899Y85018932D01*
X15090392Y84839608D01*
X14911068Y84621101D01*
X14777818Y84371808D01*
X14695764Y84101309D01*
X14668057Y83820000D01*
X14695764Y83538691D01*
X14777818Y83268192D01*
X14911068Y83018899D01*
X15090392Y82800392D01*
X15308899Y82621068D01*
X15441858Y82550000D01*
X15308899Y82478932D01*
X15090392Y82299608D01*
X14911068Y82081101D01*
X14777818Y81831808D01*
X14695764Y81561309D01*
X14668057Y81280000D01*
X14695764Y80998691D01*
X14777818Y80728192D01*
X14911068Y80478899D01*
X15090392Y80260392D01*
X15308899Y80081068D01*
X15441858Y80010000D01*
X15308899Y79938932D01*
X15090392Y79759608D01*
X14911068Y79541101D01*
X14777818Y79291808D01*
X14695764Y79021309D01*
X14668057Y78740000D01*
X14695764Y78458691D01*
X14777818Y78188192D01*
X14911068Y77938899D01*
X15090392Y77720392D01*
X15308899Y77541068D01*
X15441858Y77470000D01*
X15308899Y77398932D01*
X15090392Y77219608D01*
X14911068Y77001101D01*
X14777818Y76751808D01*
X14695764Y76481309D01*
X14668057Y76200000D01*
X14695764Y75918691D01*
X14777818Y75648192D01*
X14911068Y75398899D01*
X15090392Y75180392D01*
X15308899Y75001068D01*
X15441858Y74930000D01*
X15308899Y74858932D01*
X15090392Y74679608D01*
X14911068Y74461101D01*
X14777818Y74211808D01*
X14695764Y73941309D01*
X14668057Y73660000D01*
X14695764Y73378691D01*
X14777818Y73108192D01*
X14911068Y72858899D01*
X15090392Y72640392D01*
X15308899Y72461068D01*
X15436741Y72392735D01*
X15207161Y72242601D01*
X15005500Y72044895D01*
X14846285Y71811646D01*
X14735633Y71551818D01*
X14718096Y71469039D01*
X14840085Y71247000D01*
X16383000Y71247000D01*
X16383000Y71267000D01*
X16637000Y71267000D01*
X16637000Y71247000D01*
X16657000Y71247000D01*
X16657000Y70993000D01*
X16637000Y70993000D01*
X16637000Y69685000D01*
X16796811Y69685000D01*
X16793410Y69673787D01*
X16777635Y69621785D01*
X16763444Y69477700D01*
X16767000Y69441595D01*
X16767001Y65761515D01*
X16763444Y65725400D01*
X16777635Y65581315D01*
X16780136Y65573072D01*
X15744700Y65573072D01*
X15744700Y66607082D01*
X15748740Y66648100D01*
X15742876Y66707637D01*
X15732618Y66811789D01*
X15684872Y66969187D01*
X15607336Y67114246D01*
X15502991Y67241391D01*
X15471133Y67267536D01*
X11967707Y70770961D01*
X14718096Y70770961D01*
X14735633Y70688182D01*
X14846285Y70428354D01*
X15005500Y70195105D01*
X15207161Y69997399D01*
X15443517Y69842834D01*
X15705486Y69737350D01*
X15983000Y69685000D01*
X16383000Y69685000D01*
X16383000Y70993000D01*
X14840085Y70993000D01*
X14718096Y70770961D01*
X11967707Y70770961D01*
X8870336Y73868331D01*
X8935990Y73966589D01*
X9047932Y74236842D01*
X9105000Y74523740D01*
X9105000Y74816260D01*
X9047932Y75103158D01*
X8935990Y75373411D01*
X8773475Y75616632D01*
X8566632Y75823475D01*
X8323411Y75985990D01*
X8053158Y76097932D01*
X7766260Y76155000D01*
X7473740Y76155000D01*
X7186842Y76097932D01*
X7185100Y76097210D01*
X7185100Y77495954D01*
X15062962Y85373815D01*
X15090392Y85340392D01*
G37*
G04 #@! TD.AperFunction*
D22*
X19283748Y67324142D02*
X19269605Y67310000D01*
X19283748Y67295857D01*
X19104143Y67116252D01*
X19090000Y67130395D01*
X19075858Y67116252D01*
X18896253Y67295857D01*
X18910395Y67310000D01*
X18896253Y67324142D01*
X19075858Y67503747D01*
X19090000Y67489605D01*
X19104143Y67503747D01*
X19283748Y67324142D01*
G04 #@! TA.AperFunction,Conductor*
D23*
G36*
X19283748Y67324142D02*
G01*
X19269605Y67310000D01*
X19283748Y67295857D01*
X19104143Y67116252D01*
X19090000Y67130395D01*
X19075858Y67116252D01*
X18896253Y67295857D01*
X18910395Y67310000D01*
X18896253Y67324142D01*
X19075858Y67503747D01*
X19090000Y67489605D01*
X19104143Y67503747D01*
X19283748Y67324142D01*
G37*
G04 #@! TD.AperFunction*
D22*
X38889946Y72060907D02*
X38912962Y72032862D01*
X39024880Y71941013D01*
X39152567Y71872763D01*
X39291115Y71830735D01*
X39435200Y71816544D01*
X39471305Y71820100D01*
X40252056Y71820100D01*
X40246285Y71811646D01*
X40135633Y71551818D01*
X40118096Y71469039D01*
X40240085Y71247000D01*
X41783000Y71247000D01*
X41783000Y71267000D01*
X42037000Y71267000D01*
X42037000Y71247000D01*
X42057000Y71247000D01*
X42057000Y70993000D01*
X42037000Y70993000D01*
X42037000Y70973000D01*
X41783000Y70973000D01*
X41783000Y70993000D01*
X40240085Y70993000D01*
X40118096Y70770961D01*
X40135633Y70688182D01*
X40246285Y70428354D01*
X40405500Y70195105D01*
X40607161Y69997399D01*
X40843517Y69842834D01*
X41105486Y69737350D01*
X41383000Y69685000D01*
X41710251Y69685000D01*
X41710044Y69682900D01*
X41713601Y69646785D01*
X41713601Y68776146D01*
X26175559Y84314187D01*
X26152538Y84342238D01*
X26040620Y84434087D01*
X25912933Y84502337D01*
X25774385Y84544365D01*
X25769702Y84544826D01*
X25728932Y84621101D01*
X25549608Y84839608D01*
X25331101Y85018932D01*
X25198142Y85090000D01*
X25331101Y85161068D01*
X25549608Y85340392D01*
X25577038Y85373816D01*
X38889946Y72060907D01*
G04 #@! TA.AperFunction,Conductor*
D23*
G36*
X38889946Y72060907D02*
G01*
X38912962Y72032862D01*
X39024880Y71941013D01*
X39152567Y71872763D01*
X39291115Y71830735D01*
X39435200Y71816544D01*
X39471305Y71820100D01*
X40252056Y71820100D01*
X40246285Y71811646D01*
X40135633Y71551818D01*
X40118096Y71469039D01*
X40240085Y71247000D01*
X41783000Y71247000D01*
X41783000Y71267000D01*
X42037000Y71267000D01*
X42037000Y71247000D01*
X42057000Y71247000D01*
X42057000Y70993000D01*
X42037000Y70993000D01*
X42037000Y70973000D01*
X41783000Y70973000D01*
X41783000Y70993000D01*
X40240085Y70993000D01*
X40118096Y70770961D01*
X40135633Y70688182D01*
X40246285Y70428354D01*
X40405500Y70195105D01*
X40607161Y69997399D01*
X40843517Y69842834D01*
X41105486Y69737350D01*
X41383000Y69685000D01*
X41710251Y69685000D01*
X41710044Y69682900D01*
X41713601Y69646785D01*
X41713601Y68776146D01*
X26175559Y84314187D01*
X26152538Y84342238D01*
X26040620Y84434087D01*
X25912933Y84502337D01*
X25774385Y84544365D01*
X25769702Y84544826D01*
X25728932Y84621101D01*
X25549608Y84839608D01*
X25331101Y85018932D01*
X25198142Y85090000D01*
X25331101Y85161068D01*
X25549608Y85340392D01*
X25577038Y85373816D01*
X38889946Y72060907D01*
G37*
G04 #@! TD.AperFunction*
M02*
